<svg width="36" height="36" viewBox="0 0 36 36" fill="none" xmlns="http://www.w3.org/2000/svg">
<path d="M18.0346 35.7812C27.6518 35.7812 35.4481 27.9849 35.4481 18.3677C35.4481 8.75045 27.6518 0.954163 18.0346 0.954163C8.41739 0.954163 0.621094 8.75045 0.621094 18.3677C0.621094 27.9849 8.41739 35.7812 18.0346 35.7812Z" fill="white"/>
<path d="M28.0332 3.53891C28.2095 3.23341 28.3857 2.92791 28.5854 2.63416C28.3857 2.92791 28.1977 3.23341 28.0332 3.53891Z" fill="#090909"/>
<path d="M27.1982 5.01957C27.0925 5.24282 26.9515 5.44257 26.8105 5.63057C27.116 5.24282 27.3393 4.79632 27.5743 4.36157C27.445 4.57307 27.3157 4.79632 27.1982 5.01957Z" fill="#090909"/>
<path d="M34.0605 7.54552C33.9077 7.31052 33.6727 7.35752 33.4377 7.38102C32.9442 7.42802 32.6269 7.75702 32.2744 8.03902C31.7692 8.46202 31.2169 8.80277 30.5707 8.92027C29.7599 9.07302 28.9375 8.99078 28.1267 9.04953C28.068 9.04953 28.0327 9.04953 28.021 8.97903C27.9739 8.65003 27.8799 8.33278 27.9269 8.00378C28.0092 7.42803 28.1854 6.87577 28.4322 6.35877C28.9374 5.26602 29.4192 4.17328 29.9714 3.10403C30.1359 2.78678 30.2887 2.46952 30.2652 2.09352C30.5237 1.89377 30.5237 1.61178 30.5002 1.31803C30.4649 1.01253 30.324 0.883275 30.0185 0.859775C29.5602 0.824525 29.1489 0.989025 28.7494 1.17703C28.1502 1.45903 27.6684 1.92903 27.0574 2.19928C26.1292 2.62227 25.1892 3.02177 24.2609 3.44477C23.5677 3.77377 22.8627 3.93827 22.099 3.73852C21.8287 3.66802 21.5702 3.70328 21.3117 3.79728C20.7947 3.98528 20.3952 4.33777 19.9957 4.69027C19.6784 4.97227 19.3612 5.30127 18.9265 5.41877C18.527 5.52452 18.151 5.65377 17.7632 5.79477C16.1182 6.40577 14.5437 7.20477 13.0045 8.05077C11.3712 8.94377 9.78493 9.89552 8.31618 11.0588C7.42318 11.7638 6.51848 12.4453 5.73123 13.256C4.50923 14.4898 3.65146 15.9703 3.06396 17.6035C2.37071 19.5305 2.05349 21.5045 2.42949 23.549C2.80549 25.617 3.62792 27.4618 5.15542 28.9423C5.35517 29.1303 5.37873 29.2948 5.21423 29.5063C5.10848 29.6355 5.04968 29.8 4.94393 29.941C4.28593 30.8575 3.98042 31.9033 3.82767 33.0078C3.79242 33.278 3.95694 33.4308 4.21544 33.4073C4.40344 33.3955 4.53271 33.2545 4.67371 33.1488C5.07321 32.8668 5.4492 32.5378 5.9192 32.385C6.58895 32.1618 7.11771 31.727 7.61121 31.257C7.79921 31.0808 8.03417 30.9163 8.09292 30.6108C8.32792 29.3535 8.50417 28.0845 8.52767 26.792C8.52767 26.6158 8.56298 26.4395 8.58648 26.2045C8.65698 26.322 8.65697 26.3925 8.65697 26.463C8.68047 27.0035 8.65696 27.544 8.64521 28.0963C8.62171 29.0245 8.58646 29.9528 8.35146 30.8458C8.25746 31.1983 8.25749 31.1983 8.59824 31.3275C10.1257 31.9385 11.6885 31.9738 13.2865 31.7153C13.9327 31.6095 14.5319 31.3863 15.1664 31.2335C15.2839 31.21 15.3897 31.1983 15.4955 31.257C16.036 31.5743 16.6235 31.7623 17.1875 32.0208C17.6105 32.2205 18.0335 32.432 18.5035 32.526C19.2907 32.7023 20.078 32.6318 20.8535 32.4555C21.4527 32.3145 22.0754 32.2088 22.6277 31.915C22.8157 31.821 22.8509 31.7388 22.6512 31.6095C22.0284 31.21 21.3822 30.8693 20.7125 30.5755C20.548 30.505 20.3717 30.4228 20.1837 30.3993C19.514 30.3405 18.8559 30.1173 18.1744 30.176C18.1392 30.176 18.0805 30.1878 18.057 30.1408C18.0335 30.0703 18.0922 30.0468 18.1392 30.0233C18.3155 29.9293 18.5034 29.847 18.6797 29.7413C19.6667 29.142 20.736 28.8013 21.8875 28.672C22.1577 28.6485 22.4515 28.7073 22.6865 28.5075C23.0507 28.2138 23.3209 27.8495 23.5089 27.4383C23.6382 27.1563 23.7439 26.8508 23.6029 26.5335C23.4384 26.1458 23.2504 25.758 22.9332 25.4525C22.4162 24.959 21.8405 24.536 21.2765 24.113C20.7947 23.7605 20.8065 23.7488 20.3365 24.1365C19.6785 24.677 18.9029 24.8768 18.0804 24.8415C17.3284 24.8063 16.6117 24.6183 15.9302 24.2893C15.5425 24.113 15.143 23.9603 14.7552 23.7958C14.109 23.5255 13.4275 23.4315 12.7459 23.3258C12.4052 23.2788 12.3935 23.267 12.4052 23.6195C12.4052 23.7135 12.4169 23.8075 12.4404 23.9133C12.5697 24.4303 12.6754 24.9473 12.8634 25.4525C12.8869 25.4995 12.9105 25.5583 12.84 25.6053C12.7812 25.4995 12.7225 25.382 12.6755 25.2763C12.4287 24.7593 12.1467 24.2423 12.1349 23.6548C12.1114 22.6678 12.5462 21.8688 13.1455 21.1403C13.8505 20.2943 14.72 19.6833 15.6952 19.2015C16.4942 18.802 17.3402 18.4965 18.1039 18.0148C18.1392 17.9913 18.1862 17.9795 18.2214 17.956C18.2567 17.9443 18.3037 17.909 18.339 17.9443C18.3742 17.9795 18.3625 18.0265 18.339 18.0735C18.2567 18.2263 18.1627 18.379 18.0687 18.5318C17.8572 18.896 17.5987 19.2485 17.6692 19.7185C17.8337 20.7995 18.4094 21.669 19.0557 22.5033C19.1262 22.5973 19.2202 22.656 19.3259 22.7265C19.5844 22.891 19.6667 22.8793 19.7724 22.5973C20.1367 21.6573 20.407 20.6938 20.407 19.6833C20.407 18.708 20.2307 17.7563 19.9487 16.828C19.9135 16.6988 19.8664 16.6048 20.0074 16.4873C21.3234 15.4768 22.5219 14.337 23.7557 13.2325C24.2257 12.8213 24.6605 12.3278 25.3067 12.175C25.812 12.0575 26.2937 11.8695 26.7519 11.6463C28.5379 10.7885 30.4062 10.1423 32.2862 9.53127C32.9677 9.30802 33.567 8.96728 34.0017 8.37978C34.1897 8.14478 34.225 7.79227 34.0605 7.54552ZM4.75596 23.3258C4.66196 23.3023 4.62673 23.22 4.62673 23.1143C4.62673 23.032 4.6737 22.985 4.7442 22.9733C4.82645 23.0203 4.9087 23.0673 4.8852 23.173C4.8852 23.2553 4.84996 23.3493 4.75596 23.3258ZM13.122 24.7475C13.216 24.7828 13.2982 24.8415 13.3804 24.8885C14.3792 25.523 15.4954 25.8638 16.6234 26.181C17.5987 26.463 18.5387 26.839 19.3259 27.5088C19.3494 27.5323 19.3847 27.5558 19.4082 27.5793C19.4669 27.638 19.5375 27.6968 19.514 27.779C19.4787 27.8848 19.373 27.826 19.373 27.826C18.8442 27.8378 18.4212 27.6263 17.9747 27.6028C17.305 27.5675 16.6469 27.5558 15.9772 27.4735C15.3192 27.3913 14.7669 27.1328 14.2852 26.698C13.8387 26.3103 13.4627 25.8638 13.1455 25.3585C13.0397 25.194 13.0162 25.0178 12.9927 24.8298C12.981 24.724 13.0515 24.724 13.122 24.7475ZM23.4619 4.13802C23.5442 4.14977 23.6382 4.16153 23.6265 4.26728C23.6147 4.37303 23.5207 4.36127 23.4619 4.34952C23.1917 4.30252 22.9567 4.44353 22.6865 4.46703C22.9097 4.23203 23.1447 4.09102 23.4619 4.13802ZM22.3457 4.89002C22.3222 4.90177 22.2987 4.89003 22.2869 4.86653C22.1107 4.44353 21.7934 4.23203 21.3234 4.29078C21.2999 4.29078 21.2764 4.27903 21.2529 4.26728C21.2529 4.26728 21.2529 4.26728 21.2647 4.26728C21.8522 4.07928 22.3692 4.38477 22.3457 4.89002ZM21.817 5.30127C21.817 5.40702 21.7229 5.41877 21.6759 5.41877C21.4879 5.41877 21.3822 5.34827 21.3234 5.20727C21.2647 5.06627 21.2412 4.91353 21.3234 4.77253C21.3234 4.76078 21.3352 4.76077 21.3352 4.74902C21.4174 4.67852 21.4879 4.74903 21.5467 4.78428C21.7347 4.90178 21.8287 5.08977 21.817 5.30127ZM20.5832 5.07803C20.6537 4.69028 20.8887 4.42003 21.2529 4.26728C21.2529 4.26728 21.2529 4.26727 21.2529 4.25552C21.2529 4.25552 21.2529 4.25552 21.2412 4.25552C21.2294 4.38477 21.1119 4.44352 21.0297 4.53752C20.7712 4.83127 20.7125 5.16027 20.9122 5.39527C21.1942 5.74777 21.4645 5.80652 21.864 5.58327C21.8875 5.57152 21.911 5.55978 21.9345 5.54803C21.7935 5.93578 21.3352 6.06502 20.9945 5.79477C20.7712 5.61852 20.5127 5.43053 20.5832 5.07803ZM19.6314 11.47C19.7607 11.5288 19.9722 11.5523 19.9369 11.7403C19.9017 11.9165 19.7137 11.8343 19.5962 11.846C19.1027 11.893 18.6327 11.8695 18.1744 11.6345C17.4342 11.2585 17.0347 10.6475 16.8937 9.84853C16.8115 9.36678 16.835 8.86153 17.0112 8.40328C17.1875 7.94503 17.5517 7.61603 17.9277 7.31053C17.8337 7.54553 17.6927 7.75703 17.6222 8.00378C17.3872 8.90853 17.6457 9.68402 18.1275 10.4478C18.4682 10.9883 18.9617 11.2703 19.5375 11.4583C19.5845 11.4583 19.6079 11.4583 19.6314 11.47ZM12.6167 10.4478C12.7577 10.3185 12.934 10.2128 13.122 10.154C13.2865 10.107 13.3452 10.2128 13.3687 10.342C13.3335 10.4948 13.2865 10.6358 13.122 10.6945C12.934 10.7533 12.7577 10.7768 12.605 10.624C12.5227 10.5653 12.558 10.5065 12.6167 10.4478ZM12.9574 12.0575C13.1219 12.0693 13.2042 12.222 13.1807 12.3395C13.1454 12.5393 12.9809 12.6568 12.7929 12.6803C12.6167 12.7038 12.5697 12.5745 12.558 12.4923C12.5462 12.2573 12.7694 12.0458 12.9574 12.0575ZM11.9117 13.2443C11.9117 13.4793 11.5827 13.773 11.3477 13.773C11.2537 13.7848 11.1715 13.7378 11.1362 13.6555C11.0892 13.5498 11.0892 13.4323 11.1597 13.3265C11.289 13.1503 11.4652 13.0563 11.665 13.0093C11.853 12.974 11.9117 13.0798 11.9117 13.2443ZM11.2302 12.0575C11.383 12.0458 11.43 12.1868 11.43 12.316C11.4182 12.4805 11.336 12.598 11.1597 12.598C11.007 12.5863 10.8777 12.5393 10.8894 12.363C10.9129 12.175 11.054 12.0693 11.2302 12.0575ZM9.73795 13.4088C9.87895 13.3618 10.0434 13.3735 10.1727 13.4323C10.2314 13.4558 10.2197 13.5498 10.1609 13.5968C10.0434 13.6908 9.92595 13.7848 9.80845 13.867C9.6322 13.9728 9.54998 13.8905 9.54998 13.7143C9.53823 13.5498 9.62045 13.444 9.73795 13.4088ZM8.66873 15.0655C8.82148 15.0538 8.90368 15.2183 8.90368 15.3358C8.90368 15.512 8.75093 15.6178 8.60993 15.6295C8.44543 15.6413 8.50418 15.465 8.46893 15.3828C8.46893 15.2065 8.52773 15.0655 8.66873 15.0655ZM7.1647 15.6883C7.2822 15.6883 7.31746 15.7588 7.31746 15.8763C7.32921 16.0055 7.24698 16.0878 7.11773 16.1113C7.00023 16.1348 6.98848 16.0173 6.97673 15.935C6.96498 15.794 7.01195 15.7 7.1647 15.6883ZM6.98842 16.922C7.08242 16.922 7.14119 16.9573 7.15294 17.0395C7.15294 17.1453 7.10596 17.2158 7.02371 17.2393C6.91796 17.251 6.87093 17.1688 6.84743 17.0748C6.83568 16.9573 6.89442 16.922 6.98842 16.922ZM5.55496 23.6195C5.69596 23.596 5.77821 23.69 5.77821 23.8193C5.76646 23.9603 5.74297 24.1013 5.56672 24.1483C5.42572 24.113 5.29648 24.0425 5.28473 23.9015C5.28473 23.7488 5.40221 23.643 5.55496 23.6195ZM5.28473 26.2515C5.28473 26.0988 5.41396 26.0283 5.55496 26.0165C5.70771 26.0048 5.78997 26.1105 5.78997 26.2398C5.78997 26.3808 5.73121 26.4983 5.55496 26.51C5.41396 26.4865 5.28473 26.4043 5.28473 26.2515ZM6.27169 28.9775C5.64894 29.8705 5.21422 30.8575 4.83822 31.868C4.72072 32.1618 4.60323 32.4673 4.40348 32.714C4.35648 32.7728 4.32121 32.855 4.23896 32.7963C4.18021 32.761 4.21545 32.6905 4.2272 32.62C4.54445 31.539 4.96748 30.5168 5.64898 29.612C5.96623 29.189 6.24818 28.7425 6.55368 28.296C6.57718 28.2608 6.61244 28.2255 6.63594 28.202C6.65944 28.2138 6.67117 28.2255 6.69467 28.2373C6.55367 28.4958 6.43619 28.7543 6.27169 28.9775ZM15.5542 16.7928C15.4837 16.922 15.4132 17.0748 15.3074 17.1688C14.2382 18.2263 13.216 19.3308 12.088 20.3295C11.43 20.917 10.7484 21.011 9.94944 20.7995C9.59694 20.7055 9.22094 20.6115 8.84494 20.6703C8.63344 20.7525 8.42197 20.6468 8.21047 20.6585C7.69347 20.682 7.18822 20.6938 6.67122 20.7173C6.54197 20.7173 6.42442 20.729 6.33042 20.6115C6.13067 20.3883 6.35393 20.259 6.48318 20.165C6.98843 19.8008 7.52895 19.4953 8.11645 19.272C9.0212 18.9195 9.98471 18.7668 10.9247 18.5553C12.182 18.2733 13.3099 17.6858 14.4027 17.063C14.6964 16.8985 14.9785 16.6988 15.2605 16.5225C15.3545 16.4638 15.4719 16.3698 15.5777 16.452C15.7069 16.5578 15.613 16.687 15.5542 16.7928ZM19.8664 14.0903C19.1262 14.196 18.3977 13.9963 17.6692 13.9493C17.2932 13.9258 16.9172 13.8905 16.5529 13.7378C16.0007 13.5145 15.6717 13.1033 15.5189 12.5628C15.3662 12.034 15.19 11.517 15.049 10.9883C14.8022 10.0248 15.0724 9.15528 15.6717 8.39153C16.3297 7.54553 17.1875 6.92278 18.0687 6.32353C18.433 6.07678 18.809 5.83003 19.1497 5.54803C19.0792 5.71253 18.9852 5.84178 18.8324 5.94753C17.8454 6.67603 16.8819 7.41627 16.1769 8.43852C15.6247 9.23752 15.2604 10.107 15.5777 11.094C15.7774 11.7168 16.0712 12.316 16.4355 12.8683C16.6705 13.2208 17.0465 13.4205 17.4577 13.5028C17.9865 13.6085 18.5152 13.6438 19.0439 13.8083C19.6549 14.008 20.2895 13.82 20.9122 13.7025C20.9475 13.6908 20.9827 13.6908 21.0179 13.6908C21.0297 13.6908 21.0297 13.7025 21.0767 13.7495C20.6772 13.9728 20.2659 14.0315 19.8664 14.0903ZM27.7742 9.09652C27.5862 9.15527 27.3982 9.12002 27.2689 8.95552C27.1867 8.84977 27.1279 8.73227 27.0574 8.61477C27.0104 8.53252 26.987 8.42677 26.8577 8.37978C26.846 8.53253 26.7637 8.66177 26.8224 8.81452C26.8459 8.88502 26.7872 8.95553 26.7167 8.99078C26.6227 9.03778 26.5875 8.96727 26.5522 8.90852C26.4699 8.75577 26.3172 8.63827 26.3054 8.45027C26.3054 8.39152 26.282 8.33277 26.2232 8.33277C26.141 8.32102 26.1292 8.41502 26.1175 8.46202C26.0822 8.62652 26.0705 8.79103 26.047 8.96728C26.0352 9.03778 26.0235 9.10827 25.9295 9.12002C25.859 9.13177 25.8119 9.07302 25.7884 9.02602C25.6944 8.86152 25.6004 8.70877 25.5182 8.54427C25.4594 8.43852 25.3655 8.37978 25.2597 8.39153C25.1775 8.40328 25.1422 8.49728 25.1422 8.57953C25.1539 8.94378 25.0247 9.17877 24.6369 9.23752C24.5429 9.24927 24.4725 9.30802 24.449 9.40202C24.4255 9.44902 24.4137 9.48427 24.3785 9.50777C24.3785 9.59002 24.3432 9.64877 24.308 9.70752C24.2962 9.69577 24.2962 9.67228 24.2845 9.66053C24.2727 9.61353 24.2727 9.55477 24.2727 9.50777C24.2374 9.48427 24.2139 9.44902 24.2022 9.41377C24.167 9.33152 24.1905 9.26103 24.2375 9.19053C24.7897 8.29753 25.436 7.47502 26.1292 6.67602C26.2467 6.54677 26.329 6.38228 26.423 6.22953C26.5052 6.05328 26.6109 5.88878 26.7402 5.74778C26.5992 5.91228 26.4582 6.07678 26.3172 6.24128C26.2467 6.32353 26.1527 6.38227 26.0705 6.45277C25.5065 7.06377 24.8367 7.58077 24.2492 8.16827C23.9084 8.50902 23.5795 8.86153 23.3327 9.27278C23.227 9.44903 23.1682 9.64878 23.1447 9.84853C23.1212 10.0483 23.1917 10.2128 23.3914 10.3068C23.5794 10.389 23.6969 10.2598 23.8027 10.1423C23.9319 10.0013 24.0377 9.82503 24.2257 9.75453C24.2727 9.73102 24.308 9.73103 24.355 9.76628C24.3667 9.78978 24.3667 9.81327 24.3432 9.83677C23.9319 10.718 23.1564 11.0235 22.2752 11.1645C22.1812 11.1763 22.0872 11.188 21.9814 11.2115C21.4409 11.3173 21.065 10.9295 21.1472 10.389C21.253 9.67227 21.6054 9.09653 22.0637 8.55602C23.4032 6.94627 24.8955 5.47752 26.4347 4.05577C27.0692 3.48002 27.6802 2.88078 28.3265 2.31678C28.5732 2.09353 28.7847 1.83503 29.0432 1.62353C29.4427 1.30628 30.0184 1.32978 30.2887 1.83503C30.3004 1.90553 30.3592 1.98778 30.2417 2.01128C30.1947 1.88203 30.1007 1.79977 29.9714 1.74102C29.7599 1.69402 29.5602 1.72928 29.3957 1.81153C29.5014 1.78803 29.5837 1.85853 29.7012 2.02303C29.7952 2.30503 29.7835 2.58702 29.7247 2.85727C29.4662 3.96177 28.9962 4.98402 28.491 5.99452C28.1972 6.58202 27.9622 7.19302 27.8682 7.85102C27.8212 8.15652 27.88 8.45027 27.8917 8.75577C27.8682 8.86152 27.9387 9.03777 27.7742 9.09652Z" fill="#090909"/>
</svg>
