<svg width="41" height="37" viewBox="0 0 41 37" fill="none" xmlns="http://www.w3.org/2000/svg">
<path d="M21.0451 36.0269C30.4157 36.0269 38.0121 28.4305 38.0121 19.0599C38.0121 9.68928 30.4157 2.0929 21.0451 2.0929C11.6745 2.0929 4.07812 9.68928 4.07812 19.0599C4.07812 28.4305 11.6745 36.0269 21.0451 36.0269Z" fill="white"/>
<path d="M5.4054 7.39233C4.6769 7.39233 -0.28159 26.5918 0.12966 27.1441C0.48216 27.6258 2.64413 27.8843 4.72388 27.9313V30.4223C4.72388 30.6808 6.09861 30.6808 6.09861 30.4223V27.9313C8.17836 27.8843 10.3404 27.6258 10.6929 27.1441C11.0924 26.5918 6.1339 7.39233 5.4054 7.39233Z" fill="black"/>
<path d="M5.40531 30.7277C5.17031 30.7277 4.60632 30.7042 4.60632 30.4222V28.0252C3.72507 28.0017 0.517305 27.8725 0.0355547 27.191C-0.269945 26.7797 1.59833 19.483 1.97433 18.026C3.02008 13.9957 4.45355 8.84922 5.0998 7.59197C5.2173 7.35697 5.29956 7.26294 5.40531 7.26294C5.51106 7.26294 5.59332 7.35697 5.71082 7.59197C6.35707 8.84922 7.80229 14.0075 8.83629 18.026C9.21229 19.483 11.0806 26.768 10.7751 27.1792C10.2816 27.849 7.08555 27.9782 6.2043 28.0135V30.4105C6.2043 30.6925 5.65206 30.7277 5.40531 30.7277ZM4.82957 30.4105C4.86482 30.4457 5.06456 30.5045 5.40531 30.5045C5.74606 30.5045 5.9458 30.4457 5.98105 30.4105V27.9312C5.98105 27.8725 6.02808 27.8254 6.08683 27.8254C8.46033 27.7667 10.3168 27.4613 10.5988 27.0853C10.728 26.7445 9.75279 22.3969 8.38979 17.1799C6.75654 10.9407 5.71081 7.83873 5.40531 7.52148C5.09981 7.83873 4.05402 10.9407 2.42077 17.1799C1.04602 22.3969 0.0825834 26.7444 0.211833 27.0969C0.482083 27.4729 2.33853 27.7785 4.71203 27.8372C4.77078 27.8372 4.81781 27.8842 4.81781 27.943V30.4105H4.82957Z" fill="black"/>
<path d="M35.6033 7.52161C36.3318 7.52161 41.2903 26.7211 40.8791 27.2734C40.5266 27.7551 38.3645 28.0136 36.2848 28.0606V30.5516C36.2848 30.8101 34.9101 30.8101 34.9101 30.5516V28.0606C32.8303 28.0136 30.6683 27.7551 30.3158 27.2734C29.9163 26.7211 34.8748 7.52161 35.6033 7.52161Z" fill="black"/>
<path d="M35.6026 30.857C35.3676 30.857 34.8036 30.8335 34.8036 30.5515V28.1546C33.9223 28.1311 30.7146 28.0018 30.2328 27.3203C29.9273 26.909 31.7955 19.6123 32.1715 18.1553C33.2173 14.1251 34.6508 8.97855 35.2971 7.7213C35.4146 7.4863 35.4968 7.39233 35.6026 7.39233C35.7083 7.39233 35.7905 7.4863 35.908 7.7213C36.5543 8.9903 37.9996 14.1368 39.0336 18.1553C39.4096 19.6123 41.2778 26.8973 40.9723 27.3085C40.4788 27.9783 37.2828 28.1076 36.4016 28.1428V30.5398C36.3898 30.8335 35.8376 30.857 35.6026 30.857ZM35.0151 30.5515C35.0503 30.5868 35.2501 30.6456 35.5908 30.6456C35.9316 30.6456 36.1313 30.5868 36.1666 30.5515V28.0723C36.1666 28.0136 36.2136 27.9666 36.2723 27.9666C38.6458 27.9078 40.5023 27.6023 40.7843 27.2263C40.9135 26.8856 39.9383 22.538 38.5753 17.321C36.942 11.0818 35.8963 7.97981 35.5908 7.66256C35.2853 7.97981 34.2513 11.0818 32.6063 17.321C31.2315 22.538 30.2681 26.8855 30.3973 27.238C30.6676 27.614 32.524 27.9195 34.8975 27.9783C34.9563 27.9783 35.0033 28.0253 35.0033 28.0841V30.5515H35.0151Z" fill="black"/>
<path d="M5.45312 27.5553H21.1982V4.31384H13.9014L5.45312 27.5553Z" fill="black"/>
<path d="M21.1983 27.6611H5.4533C5.41805 27.6611 5.38279 27.6493 5.37104 27.6141C5.34754 27.5906 5.34753 27.5436 5.35928 27.5201L13.8075 4.29035C13.8193 4.24335 13.8663 4.21985 13.9133 4.21985H21.2101C21.2688 4.21985 21.3158 4.26681 21.3158 4.32556V27.5553C21.304 27.6141 21.2571 27.6611 21.1983 27.6611ZM5.60605 27.4496H21.0925V4.43134H13.972L5.60605 27.4496Z" fill="black"/>
<path d="M7.05078 27.5201V30.622H32.607L32.5718 28.1193L22.3611 5.41833H15.0291L7.05078 27.5201Z" fill="white"/>
<path d="M32.6073 30.7276H7.05102C6.99227 30.7276 6.94531 30.6806 6.94531 30.6219V27.5199C6.94531 27.5082 6.94532 27.4964 6.95707 27.4846L14.9353 5.38288C14.947 5.33588 14.9941 5.31238 15.0411 5.31238H22.3731C22.4201 5.31238 22.4553 5.33586 22.4671 5.37111L32.6661 28.0721C32.6778 28.0839 32.6778 28.0956 32.6778 28.1191L32.7131 30.6219C32.7131 30.6454 32.7013 30.6806 32.6778 30.6923C32.6543 30.7041 32.6308 30.7276 32.6073 30.7276ZM7.1568 30.5161H32.4898L32.4546 28.1544L22.2908 5.53563H15.0998L7.1568 27.5434V30.5161Z" fill="black"/>
<path d="M24.0761 27.9782C24.0291 27.9782 23.9938 27.9548 23.9821 27.9195L13.8065 4.36076C13.7948 4.32551 13.7948 4.29023 13.8183 4.25498C13.8418 4.21973 13.8771 4.20801 13.9123 4.20801H23.0891C23.1361 4.20801 23.1713 4.23149 23.1831 4.26674L33.8638 27.8255C33.8756 27.8607 33.8755 27.896 33.852 27.9313C33.8285 27.9665 33.7933 27.9782 33.7581 27.9782H24.0761Z" fill="black"/>
<path d="M23.0781 4.31361L33.7589 27.8724H24.0886L13.9132 4.31361H23.0781ZM23.0781 4.10205H13.9014C13.8309 4.10205 13.7604 4.13732 13.7252 4.19607C13.6899 4.25482 13.6782 4.33705 13.7017 4.3958L23.8771 27.9546C23.9124 28.0369 23.9829 28.0838 24.0769 28.0838H33.7472C33.8177 28.0838 33.8882 28.0486 33.9234 27.9898C33.9587 27.9311 33.9704 27.8488 33.9351 27.7901L23.2544 4.23136C23.2309 4.14911 23.1604 4.10205 23.0781 4.10205Z" fill="black"/>
<path d="M23.0902 30.7279C23.0314 30.7279 22.9844 30.6809 22.9844 30.6221V21.5981C22.9844 21.5394 23.0314 21.4924 23.0902 21.4924C23.1489 21.4924 23.1959 21.5394 23.1959 21.5981V30.6221C23.1959 30.6809 23.1489 30.7279 23.0902 30.7279Z" fill="black"/>
<path d="M24.0771 27.9783C24.0301 27.9783 23.9948 27.9548 23.9831 27.9196L14.4303 5.86481L6.68703 27.5906C6.67528 27.6376 6.62832 27.6611 6.58132 27.6611H5.4533C5.41805 27.6611 5.38279 27.6493 5.37104 27.6141C5.34754 27.5906 5.34753 27.5436 5.35928 27.5201L13.8075 4.29035C13.8193 4.24335 13.8663 4.21985 13.9133 4.21985H15.0413C15.0883 4.21985 15.1235 4.24333 15.1353 4.27858L25.3108 27.8373C25.3226 27.8726 25.3226 27.9079 25.2991 27.9431C25.2756 27.9784 25.2403 27.9901 25.205 27.9901H24.0771V27.9783Z" fill="white"/>
<path d="M15.0285 4.31361L25.2039 27.8723H24.076L14.4174 5.5708L6.58021 27.5433H5.45218L13.9004 4.31361H15.0285ZM15.0285 4.10205H13.9004C13.8064 4.10205 13.736 4.16087 13.7007 4.24312L5.25245 27.4728C5.22895 27.5433 5.24073 27.6139 5.27598 27.6726C5.31123 27.7314 5.38168 27.7666 5.45218 27.7666H6.58021C6.67421 27.7666 6.75644 27.7078 6.77994 27.6256L14.441 6.1583L23.8879 27.9664C23.9232 28.0486 23.9937 28.0956 24.0877 28.0956H25.2157C25.2862 28.0956 25.3567 28.0603 25.392 28.0016C25.4272 27.9428 25.4389 27.8606 25.4154 27.8018L15.24 4.24312C15.193 4.16087 15.1107 4.10205 15.0285 4.10205Z" fill="black"/>
<path d="M11.0215 21.5864H19.1642L14.6992 10.9526L11.0215 21.5864Z" fill="black"/>
<path d="M19.1644 21.7037H11.0216C10.9864 21.7037 10.9511 21.6919 10.9394 21.6566C10.9159 21.6331 10.9159 21.5979 10.9277 21.5627L14.5937 10.9172C14.6054 10.8702 14.6524 10.8467 14.6876 10.8467C14.7346 10.8467 14.7699 10.8702 14.7934 10.9172L19.2701 21.5627C19.2819 21.5979 19.2819 21.6331 19.2584 21.6684C19.2349 21.6801 19.1996 21.7037 19.1644 21.7037ZM11.1744 21.4804H19.0117L14.7111 11.2461L11.1744 21.4804Z" fill="black"/>
<path d="M16.9782 23.948H13.4414V30.622H16.9782V23.948Z" fill="black"/>
<path d="M16.9901 30.7278H13.4534C13.3946 30.7278 13.3477 30.6807 13.3477 30.622V23.948C13.3477 23.8892 13.3946 23.8423 13.4534 23.8423H16.9901C17.0489 23.8423 17.0959 23.8892 17.0959 23.948V30.622C17.0959 30.6807 17.0489 30.7278 16.9901 30.7278ZM13.5474 30.5163H16.8727V24.0538H13.5474V30.5163Z" fill="black"/>
<path d="M11.939 27.0737C11.939 27.2852 11.7627 27.4614 11.5512 27.4614H8.84871C8.63721 27.4614 8.46094 27.2852 8.46094 27.0737V25.7694C8.46094 25.5579 8.63721 25.3817 8.84871 25.3817H11.5512C11.7627 25.3817 11.939 25.5579 11.939 25.7694V27.0737Z" fill="black"/>
<path d="M11.5495 27.5669H8.847C8.57675 27.5669 8.35352 27.3437 8.35352 27.0734V25.7691C8.35352 25.4989 8.57675 25.2756 8.847 25.2756H11.5495C11.8197 25.2756 12.043 25.4989 12.043 25.7691V27.0734C12.043 27.3437 11.8197 27.5669 11.5495 27.5669ZM8.847 25.4871C8.69425 25.4871 8.56501 25.6164 8.56501 25.7691V27.0734C8.56501 27.2262 8.69425 27.3554 8.847 27.3554H11.5495C11.7022 27.3554 11.8315 27.2262 11.8315 27.0734V25.7691C11.8315 25.6164 11.7022 25.4871 11.5495 25.4871H8.847Z" fill="black"/>
<path d="M18.4941 27.0737C18.4941 27.2852 18.6703 27.4614 18.8818 27.4614H21.5844C21.7959 27.4614 21.9721 27.2852 21.9721 27.0737V25.7694C21.9721 25.5579 21.7959 25.3817 21.5844 25.3817H18.8818C18.6703 25.3817 18.4941 25.5579 18.4941 25.7694V27.0737Z" fill="black"/>
<path d="M21.5847 27.5669H18.8822C18.6119 27.5669 18.3887 27.3437 18.3887 27.0734V25.7691C18.3887 25.4989 18.6119 25.2756 18.8822 25.2756H21.5847C21.855 25.2756 22.0782 25.4989 22.0782 25.7691V27.0734C22.0782 27.3437 21.855 27.5669 21.5847 27.5669ZM18.8822 25.4871C18.7294 25.4871 18.6002 25.6164 18.6002 25.7691V27.0734C18.6002 27.2262 18.7294 27.3554 18.8822 27.3554H21.5847C21.7375 27.3554 21.8667 27.2262 21.8667 27.0734V25.7691C21.8667 25.6164 21.7375 25.4871 21.5847 25.4871H18.8822Z" fill="black"/>
<path d="M20.822 6.89886L19.4355 4.29039V1.67017H20.822V6.89886Z" fill="black"/>
<path d="M20.8224 7.00475C20.7871 7.00475 20.7518 6.98127 20.7283 6.94602L19.3418 4.32572C19.3301 4.31397 19.3301 4.29049 19.3301 4.27874V1.65852C19.3301 1.59977 19.3771 1.55273 19.4359 1.55273H20.8224C20.8811 1.55273 20.9281 1.59977 20.9281 1.65852V6.88728C20.9281 6.93428 20.8929 6.98124 20.8459 6.99299C20.8341 7.00474 20.8341 7.00475 20.8224 7.00475ZM19.5416 4.25522L20.7166 6.46423V1.76423H19.5416V4.25522Z" fill="black"/>
<path d="M22.8413 1.67017H20.8203V6.89886H22.8413V1.67017Z" fill="white"/>
<path d="M22.8416 7.00459H20.8206C20.7619 7.00459 20.7148 6.95756 20.7148 6.89881V1.67011C20.7148 1.61136 20.7619 1.56433 20.8206 1.56433H22.8416C22.9003 1.56433 22.9474 1.61136 22.9474 1.67011V6.89881C22.9474 6.95756 22.9003 7.00459 22.8416 7.00459ZM20.9263 6.7931H22.7359V1.77582H20.9263V6.7931Z" fill="black"/>
<path d="M23.3239 1.02368H19.0352V2.11649H23.3239V1.02368Z" fill="black"/>
<path d="M23.3359 2.22208H19.0471C18.9884 2.22208 18.9414 2.17512 18.9414 2.11637V1.02356C18.9414 0.964807 18.9884 0.917847 19.0471 0.917847H23.3359C23.3946 0.917847 23.4416 0.964807 23.4416 1.02356V2.11637C23.4416 2.17512 23.3946 2.22208 23.3359 2.22208ZM19.1411 2.01059H23.2184V1.12934H19.1411V2.01059Z" fill="black"/>
<path d="M14.7232 22.1268C14.6174 22.1268 14.5234 21.9859 14.5234 21.7979V11.1053C14.5234 10.9291 14.6174 10.7764 14.7232 10.7764C14.8407 10.7764 14.9229 10.9173 14.9229 11.1053V21.7979C14.9229 21.9741 14.8289 22.1268 14.7232 22.1268Z" fill="white"/>
</svg>
