<svg width="60" height="73" viewBox="0 0 60 73" fill="none" xmlns="http://www.w3.org/2000/svg">
<path d="M23.8908 2.25391C20.7877 3.19832 14.8514 4.99719 10.6241 6.25641C6.4417 7.51562 2.52914 8.77483 1.94451 8.99969L0.910156 9.44941L1.09004 26.6736C1.26993 45.9666 1.58473 48.3051 4.77774 54.3763C8.91515 62.2014 16.8302 68.2726 27.2637 71.5106L30.4117 72.5L34.774 70.926C47.6809 66.2939 55.2362 58.7386 58.1594 47.6305C59.0588 44.1227 59.1488 42.5937 59.2837 26.9884C59.3736 17.7242 59.2837 9.85416 59.0588 9.53935C58.699 9.04466 53.932 7.51562 36.2581 2.20893C33.0651 1.26453 30.2318 0.5 29.962 0.5C29.7371 0.5 26.9939 1.30949 23.8908 2.25391ZM43.4536 7.3807C47.1862 8.505 51.5035 9.76421 53.1225 10.2139L56.0457 11.0684L56.1806 27.0334C56.3155 45.0222 56.0907 47.0459 53.2574 52.7124C51.3237 56.535 46.1969 61.9316 42.2393 64.2252C38.5516 66.4288 31.7159 69.262 30.2318 69.262C28.343 69.262 20.6528 65.9791 17.235 63.6855C11.4786 59.8629 7.70091 55.0509 5.58723 48.8448L4.32802 45.2021V28.1127V11.0684L9.27493 9.6293C12.0182 8.86477 17.8646 7.11087 22.3168 5.76171L30.3667 3.28826L33.5598 4.32262C35.2687 4.86227 39.7659 6.25641 43.4536 7.3807Z" fill="#97A483"/>
<path d="M29.3774 6.84112C27.6685 8.55005 29.2425 9.31458 42.3293 13.0472C44.1732 13.5869 47.0064 14.3964 48.5804 14.9361L51.4137 15.8355L51.1888 29.6419C51.0539 40.0304 50.829 43.9879 50.2894 45.6968C48.1307 53.1622 42.0595 59.0535 33.1101 62.3364C31.4012 62.966 29.6473 63.6406 29.2875 63.8655C28.2531 64.3602 28.2531 65.5294 29.2875 66.1141C30.052 66.5188 30.9514 66.294 34.2794 64.9898C42.6891 61.6169 47.9058 57.3895 50.9639 51.4982C53.6622 46.3264 54.022 43.3583 54.022 27.7531C54.022 17.3196 53.8871 13.9467 53.4824 13.6319C53.1676 13.407 49.255 12.1478 44.8028 10.7986C40.3506 9.49446 35.1788 7.92044 33.335 7.38078C31.4911 6.79615 29.9621 6.30146 29.9621 6.30146C29.9171 6.30146 29.6922 6.52632 29.3774 6.84112Z" fill="#97A483"/>
<path d="M6.9819 15.0709C6.84699 15.7005 6.80201 22.3564 6.93693 29.8217C7.16179 44.6175 7.38665 46.1915 9.95005 51.2733C11.659 54.6912 16.3361 59.5031 17.7302 59.2783C19.5291 59.0085 19.0793 57.7043 16.2911 54.916C13.233 51.9928 11.1643 48.1253 10.3998 44.1228C10.1749 42.7736 9.95005 35.803 9.95005 28.5175C9.95005 21.277 9.81513 15.0709 9.68022 14.6662C9.2305 13.4519 7.29671 13.7667 6.9819 15.0709Z" fill="#97A483"/>
<path d="M34.0097 35.9828L25.9148 44.0777L22.2721 40.435C18.5844 36.7473 17.1453 36.1177 16.7855 37.9615C16.6506 38.5462 17.8648 40.0752 20.6081 42.8185C22.7667 45.0221 24.9254 47.0459 25.4201 47.3157C26.0947 47.6755 27.4438 46.5512 34.9541 39.0409C42.1946 31.8454 43.6787 30.1814 43.5887 29.237C43.4988 28.6074 43.139 28.0677 42.7792 27.9778C42.4195 27.9328 38.5519 31.4406 34.0097 35.9828Z" fill="#97A483"/>
</svg>
