<svg width="76" height="59" viewBox="0 0 76 59" fill="none" xmlns="http://www.w3.org/2000/svg">
<path d="M41.3193 34.1711L34.9912 40.4993H26.0117C16.2559 40.5139 10.1035 40.2795 1.97363 39.6204C0.918945 39.5325 0.816406 39.5471 0.479492 39.8547C0.201172 40.1184 0.113281 40.3528 0.113281 40.8215C0.113281 42.3596 1.40234 47.2815 2.53027 49.9915C2.61816 50.1965 2.53027 50.2258 1.76855 50.1526C1.05078 50.094 0.860352 50.1233 0.508789 50.4016C0.201172 50.636 0.113281 50.8411 0.113281 51.2659C0.113281 52.0715 0.538086 52.3938 1.72461 52.4963C2.25195 52.5549 3.2627 52.804 3.99512 53.053C5.21094 53.4924 5.45996 53.5217 7.21777 53.5364C9.03418 53.551 9.19531 53.5217 10.5869 53.0383C11.8467 52.5989 12.2422 52.5256 13.3701 52.5256C14.498 52.5256 14.8936 52.5989 16.1533 53.0383C17.5156 53.5071 17.75 53.551 19.376 53.551C21.002 53.551 21.2656 53.5071 22.877 52.9944C25.1328 52.2913 25.7773 52.2913 28.0332 52.9944C29.6445 53.5071 29.9229 53.551 31.5342 53.551C33.1748 53.551 33.3945 53.5217 34.7568 53.0383C36.0166 52.5989 36.3975 52.5256 37.54 52.5256C38.6387 52.5403 39.1074 52.6135 40.3965 53.0383C41.8027 53.5071 42.0811 53.551 43.6924 53.551C45.3184 53.551 45.5527 53.5071 46.915 53.0383C48.1748 52.5989 48.5703 52.5256 49.6982 52.5256C50.8262 52.5256 51.2217 52.5989 52.4814 53.0383C53.8584 53.5217 54.0635 53.551 55.7773 53.551C57.4912 53.551 57.6963 53.5217 59.0732 53.0383C60.333 52.5989 60.7285 52.5256 61.8564 52.5256C62.9844 52.5256 63.3799 52.5989 64.6396 53.0383C66.0312 53.5217 66.1924 53.551 68.0088 53.5364C69.7666 53.5217 70.0156 53.4924 71.2314 53.053C71.9639 52.804 72.9746 52.5549 73.502 52.4963C74.6885 52.3938 75.1133 52.0715 75.1133 51.2659C75.1133 50.8411 75.0254 50.636 74.7178 50.4016C74.3516 50.1086 74.1904 50.0793 73.209 50.1526C72.5352 50.2112 71.5977 50.4309 70.792 50.7092C69.6348 51.134 69.2832 51.178 67.9355 51.1926C67.0859 51.1926 66.2363 51.1194 66.0605 51.0461C65.7236 50.8997 65.7529 50.8704 66.6465 50.2844C70.8506 47.5452 73.7949 43.0042 74.8203 37.7161C74.9814 36.8665 75.1133 35.7532 75.1133 35.2405C75.1133 34.4055 75.0693 34.2737 74.7324 34.01C74.1904 33.5852 73.9121 33.6145 72.1689 34.2737C64.1416 37.2766 53.3604 39.2542 40.3525 40.1184L38.6387 40.2209L43.9854 34.8743C49.0098 29.8499 49.332 29.4836 49.332 29.0002C49.332 28.3264 48.8486 27.843 48.1602 27.843C47.6914 27.843 47.1934 28.3118 41.3193 34.1711ZM72.3594 38.009L72.0957 39.0198L71.085 39.386C70.5137 39.5764 69.2393 39.9866 68.2432 40.3088C66.4707 40.8508 65.9434 41.1438 65.8848 41.6125C65.7676 42.4622 66.1924 43.0774 66.8809 43.0774C67.1152 43.0774 68.0381 42.843 68.9463 42.55C69.8545 42.2717 70.6602 42.052 70.7334 42.0813C70.9238 42.1399 70.0449 43.6047 68.9902 44.967C67.6572 46.7102 65.5625 48.3655 63.1748 49.552C62.3838 49.9475 61.8857 50.094 61.0508 50.1526C60.3916 50.2112 59.4248 50.4309 58.6338 50.7092C57.5059 51.1047 57.0957 51.178 55.8506 51.1926C54.5322 51.2073 54.2393 51.1487 52.9209 50.6946C51.5586 50.2112 51.3389 50.1819 49.6982 50.1819C48.0576 50.1819 47.8379 50.2258 46.2559 50.7532C44.6885 51.2659 44.4834 51.3098 43.3262 51.2366C42.4326 51.178 41.7002 51.0168 40.7627 50.6799C39.5469 50.2405 39.3125 50.2112 37.6133 50.2112C35.8994 50.1965 35.6797 50.2405 34.127 50.7385C32.8379 51.1633 32.2227 51.2805 31.417 51.2805H30.377L30.9043 50.7239C31.666 49.9329 31.9004 49.3762 31.9004 48.3508V47.4719H33.5557C36.9395 47.4719 44.9375 46.9006 50.1377 46.2854C55.6895 45.6409 62.3252 44.4397 62.9551 43.9856C63.6143 43.4875 63.4385 42.2278 62.6621 41.9788C62.501 41.9348 61.373 42.0813 60.1426 42.3303C54.4297 43.4583 49.4053 44.1321 43.1797 44.6155C40.3086 44.8352 35.1963 45.1282 34.2441 45.1282H33.7314L34.9619 43.8977L36.1777 42.6819L38.3896 42.5793C41.2314 42.4475 46.9297 41.9788 50.1377 41.5979C58.1943 40.6458 65.2402 39.1663 71.085 37.1741C72.0078 36.8665 72.5645 36.7346 72.5791 36.8372C72.6084 36.925 72.5059 37.4524 72.3594 38.009ZM8.46289 42.4182C14.7031 42.7698 22.1299 42.9749 27.4766 42.9016L32.6475 42.843L31.3877 44.1028L30.1426 45.3479H28.9268C27.2422 45.3479 26.8906 45.5969 25.0889 48.1165C24.3271 49.2004 23.6094 50.1379 23.5068 50.2112C23.4189 50.2844 22.6426 50.5627 21.793 50.8118C19.7129 51.4563 18.8926 51.4417 16.7686 50.7385C15.2158 50.2112 15.04 50.1819 13.2969 50.1965C11.627 50.2112 11.3486 50.2551 10.1475 50.6799C8.71191 51.1926 7.4082 51.3684 6.36816 51.2219C5.73828 51.1194 5.69434 51.0901 5.26953 50.2112C4.68359 49.0247 3.90723 47.0032 3.99512 46.9006C4.03906 46.8713 5.87012 46.9446 8.06738 47.0764C14.4834 47.4719 22.3057 47.6917 22.8037 47.4719C23.6533 47.1204 23.7266 45.8459 22.9209 45.4504C22.7305 45.3479 20.416 45.2307 17.1055 45.1282C11.5244 44.967 3.37988 44.4836 3.2041 44.3225C3.16016 44.2639 3.01367 43.7219 2.86719 43.1213L2.63281 42.0227L3.74609 42.1106C4.37598 42.1692 6.48535 42.301 8.46289 42.4182ZM29.3369 47.8528C29.791 48.3069 29.5566 48.8049 28.5459 49.552C27.8574 50.0647 27.4766 50.2551 27.125 50.2551C26.8467 50.2551 26.627 50.2112 26.627 50.1672C26.627 50.0793 26.9492 49.5959 27.8281 48.3801C28.4287 47.5598 28.8828 47.3987 29.3369 47.8528Z" fill="#97A483"/>
<path d="M12.7542 54.9573C12.2561 55.2209 12.051 55.9973 12.344 56.5393C12.5784 57.0081 12.7249 57.0667 14.0139 57.2131C14.4534 57.2571 15.4348 57.5061 16.2112 57.7698C17.5002 58.1946 17.7786 58.2385 19.4485 58.2385C21.1624 58.2385 21.3821 58.2092 22.7444 57.7258C24.7805 57.0081 26.0989 57.0081 28.1643 57.7258C29.512 58.1799 29.7756 58.2239 31.4602 58.2385C33.1594 58.2385 33.3938 58.2092 34.8293 57.7258C36.9973 57.0227 38.2864 57.0227 40.3225 57.7258C41.6848 58.2092 41.9045 58.2385 43.6184 58.2385C45.3323 58.2385 45.552 58.2092 46.9143 57.7258C48.1594 57.301 48.5842 57.2278 49.6975 57.2131C50.8401 57.2131 51.2209 57.2864 52.4807 57.7258C53.8723 58.2092 54.0334 58.2385 55.8499 58.2239C57.6223 58.2239 57.8567 58.1799 59.0725 57.7405C59.8049 57.4915 60.8303 57.2278 61.3723 57.1838C62.6907 57.0667 63.0422 56.7444 62.969 55.7483C62.9543 55.5872 62.7639 55.2942 62.5442 55.1038C62.1926 54.7815 62.0754 54.7668 61.1233 54.8401C60.5374 54.8987 59.3362 55.1624 58.428 55.4553C56.1868 56.1584 55.2932 56.1438 53.0959 55.426C51.5579 54.9133 51.3381 54.884 49.6975 54.884C48.0715 54.884 47.8225 54.928 46.2551 55.4407C44.7024 55.9534 44.468 55.9827 43.3254 55.9241C42.4319 55.8655 41.6995 55.7043 40.762 55.3674C39.5608 54.9426 39.2825 54.8987 37.6858 54.8987C36.0452 54.884 35.8108 54.928 34.1702 55.4407C32.5588 55.9534 32.3098 55.9827 31.1672 55.9241C30.2737 55.8655 29.5413 55.7043 28.6038 55.3674C27.3879 54.928 27.1536 54.8987 25.4543 54.8987C23.7551 54.8987 23.5208 54.928 22.3049 55.3674C21.3674 55.7043 20.635 55.8655 19.7415 55.9241C18.5989 55.9827 18.3499 55.9534 16.8264 55.47C15.01 54.8987 13.2961 54.679 12.7542 54.9573Z" fill="#97A483"/>
<path d="M54.4872 0.898255C53.9976 1.19348 53.9688 1.32309 53.9688 3.09445C53.9688 4.53457 53.9832 4.70019 54.1128 4.909C54.4872 5.52826 55.3513 5.58586 55.8337 5.03862L56.0569 4.77939V3.15925C56.0569 1.29429 56.0209 1.13588 55.5601 0.905456C55.1929 0.71824 54.7896 0.711039 54.4872 0.898255Z" fill="#97A483"/>
<path d="M55.5148 26.3788C56.0044 26.0836 56.0332 25.954 56.0332 24.1827C56.0332 22.7425 56.0188 22.5769 55.8892 22.3681C55.5148 21.7488 54.6507 21.6912 54.1682 22.2385L53.945 22.4977L53.945 24.1178C53.945 25.9828 53.981 26.1412 54.4419 26.3716C54.8091 26.5589 55.2123 26.5661 55.5148 26.3788Z" fill="#97A483"/>
<path d="M49.5752 4.19606C49.2008 4.40488 49.0352 4.6713 49.0352 5.06734C49.0352 5.34096 49.0928 5.49217 49.3376 5.87381C49.6832 6.39225 49.9424 6.58667 50.3241 6.58667C50.8857 6.58667 51.325 6.24104 51.4186 5.737C51.4762 5.42737 51.2313 4.89452 50.8065 4.41928C50.5761 4.16006 50.4969 4.11685 50.1873 4.08805C49.9208 4.06645 49.7624 4.09525 49.5752 4.19606Z" fill="#97A483"/>
<path d="M60.4248 23.081C60.7992 22.8722 60.9648 22.6058 60.9648 22.2098C60.9648 21.9361 60.9072 21.7849 60.6624 21.4033C60.3168 20.8848 60.0576 20.6904 59.6759 20.6904C59.1143 20.6904 58.675 21.0361 58.5814 21.5401C58.5238 21.8497 58.7687 22.3826 59.1935 22.8578C59.4239 23.117 59.5031 23.1602 59.8127 23.189C60.0792 23.2106 60.2376 23.1818 60.4248 23.081Z" fill="#97A483"/>
<path d="M59.5627 4.13848C59.4474 4.17449 59.3106 4.24649 59.2458 4.2969C59.073 4.43371 58.5762 5.5066 58.5762 5.72262C58.5762 6.21947 59.2818 6.77391 59.8219 6.70191C60.1891 6.6587 60.3403 6.50749 60.65 5.90264C61.0748 5.05296 60.9812 4.57772 60.3043 4.22489C59.9659 4.05208 59.8795 4.04488 59.5627 4.13848Z" fill="#97A483"/>
<path d="M50.4393 23.1386C50.5545 23.1026 50.6913 23.0306 50.7561 22.9802C50.9289 22.8434 51.4258 21.7705 51.4258 21.5545C51.4258 21.0576 50.7201 20.5032 50.1801 20.5752C49.8128 20.6184 49.6616 20.7696 49.352 21.3745C48.9272 22.2241 49.0208 22.6994 49.6976 23.0522C50.0361 23.225 50.1225 23.2322 50.4393 23.1386Z" fill="#97A483"/>
<path d="M56.6683 8.27879C58.5116 8.89085 59.8942 10.3454 60.391 12.1959C60.5926 12.9304 60.5998 14.1905 60.4198 14.9034C60.2398 15.609 59.8077 16.4803 59.3469 17.0708C58.9653 17.5604 58.13 18.2877 58.0076 18.2373C57.9716 18.2229 57.6908 17.9852 57.3883 17.7116C55.4442 15.9547 53.1184 14.4137 50.4973 13.132C49.7413 12.772 49.4316 12.5848 49.4316 12.4984C49.4316 12.2823 49.7845 11.3319 50.0149 10.9142C50.7998 9.5101 52.1751 8.50201 53.788 8.14198C54.5801 7.96917 55.9266 8.02677 56.6683 8.27879Z" fill="#97A483"/>
<path d="M52.9304 19.3806C51.087 18.7686 49.7045 17.3141 49.2077 15.4635C49.006 14.729 48.9988 13.4689 49.1789 12.7561C49.3589 12.0504 49.7909 11.1791 50.2517 10.5887C51.8135 8.5849 61.493 13.2848 59.5838 16.7452C58.7989 18.1493 57.4236 19.1574 55.8106 19.5175C55.0186 19.6903 53.672 19.6327 52.9304 19.3806Z" fill="#97A483"/>
<path d="M56.6315 9.38052C56.1347 9.62534 55.897 10.4174 56.1851 10.8566C56.2571 10.9647 56.4803 11.1519 56.6747 11.2743C57.2796 11.6559 57.5676 12.0592 57.7476 12.7936C57.834 13.1176 57.9348 13.3337 58.0716 13.4633C58.5973 13.9673 59.6414 13.6433 59.8214 12.916C59.8862 12.6496 59.6342 11.7063 59.3533 11.1735C58.8997 10.3094 57.6396 9.25091 57.0707 9.25091C56.9627 9.25091 56.7683 9.30851 56.6315 9.38052Z" fill="#97A483"/>
<path d="M44.4348 6.6586C43.7291 6.88182 43.4555 7.88991 43.9811 8.36515C44.0675 8.44436 44.658 8.81159 45.2916 9.17882C46.2637 9.74047 46.5013 9.85568 46.8326 9.88448C47.3438 9.92769 47.6462 9.76927 47.8478 9.35164C48.0279 8.9772 47.9919 8.62437 47.7254 8.31475C47.5166 8.06272 45.1476 6.673 44.8524 6.6298C44.7372 6.6082 44.55 6.6226 44.4348 6.6586Z" fill="#97A483"/>
<path d="M65.5672 20.6185C66.2729 20.3953 66.5465 19.3872 66.0208 18.9119C65.9344 18.8327 65.344 18.4655 64.7103 18.0983C63.7382 17.5366 63.5006 17.4214 63.1694 17.3926C62.6581 17.3494 62.3557 17.5078 62.1541 17.9255C61.9741 18.2999 62.0101 18.6527 62.2765 18.9624C62.4853 19.2144 64.8543 20.6041 65.1496 20.6473C65.2648 20.6689 65.452 20.6545 65.5672 20.6185Z" fill="#97A483"/>
<path d="M64.8346 6.89639C64.2154 7.18442 62.2856 8.37972 62.1632 8.55254C61.8392 9.00618 61.9616 9.69744 62.408 9.97106C62.5736 10.0719 62.768 10.1151 63.0417 10.1079C63.4089 10.1079 63.5241 10.0575 64.6978 9.36621C65.5835 8.84776 66.0083 8.55974 66.1163 8.38692C66.6564 7.59485 65.7059 6.49316 64.8346 6.89639Z" fill="#97A483"/>
<path d="M45.1673 20.3807C45.7866 20.0927 47.7164 18.8974 47.8388 18.7246C48.1628 18.2709 48.0404 17.5797 47.5939 17.306C47.4283 17.2052 47.2339 17.162 46.9603 17.1692C46.5931 17.1692 46.4778 17.2196 45.3041 17.9109C44.4185 18.4293 43.9936 18.7174 43.8856 18.8902C43.3456 19.6822 44.2961 20.7839 45.1673 20.3807Z" fill="#97A483"/>
<path d="M63.6369 12.8512C63.176 13.1249 63.0464 13.7729 63.3416 14.2986C63.5505 14.6658 63.8385 14.7954 64.4937 14.7954C65.1778 14.7954 65.4658 14.6586 65.689 14.2194C65.8835 13.8305 65.8907 13.6289 65.7034 13.2473C65.4946 12.8152 65.2642 12.7072 64.5009 12.7072C63.9969 12.7072 63.8169 12.736 63.6369 12.8512Z" fill="#97A483"/>
<path d="M46.3631 14.4259C46.824 14.1522 46.9536 13.5042 46.6584 12.9785C46.4495 12.6113 46.1615 12.4817 45.5063 12.4817C44.8222 12.4817 44.5342 12.6185 44.311 13.0577C44.1165 13.4466 44.1093 13.6482 44.2966 14.0298C44.5054 14.4619 44.7358 14.5699 45.4991 14.5699C46.0031 14.5699 46.1831 14.5411 46.3631 14.4259Z" fill="#97A483"/>
</svg>
