<svg width="73" height="71" viewBox="0 0 73 71" fill="none" xmlns="http://www.w3.org/2000/svg">
<path d="M54.4852 0.357484C53.9956 0.652709 53.9668 0.782321 53.9668 2.55368C53.9668 3.9938 53.9812 4.15941 54.1108 4.36823C54.4852 4.98749 55.3493 5.04509 55.8318 4.49784L56.055 4.23862V2.61848C56.055 0.753519 56.019 0.595105 55.5581 0.364685C55.1909 0.177468 54.7877 0.170268 54.4852 0.357484Z" fill="#97A483"/>
<path d="M49.5752 3.65529C49.2008 3.86411 49.0352 4.13053 49.0352 4.52657C49.0352 4.80019 49.0928 4.9514 49.3376 5.33304C49.6832 5.85148 49.9424 6.0459 50.3241 6.0459C50.8857 6.0459 51.325 5.70027 51.4186 5.19622C51.4762 4.8866 51.2313 4.35375 50.8065 3.87851C50.5761 3.61929 50.4969 3.57608 50.1873 3.54728C49.9208 3.52568 49.7624 3.55448 49.5752 3.65529Z" fill="#97A483"/>
<path d="M59.5627 3.59771C59.4474 3.63372 59.3106 3.70572 59.2458 3.75613C59.073 3.89294 58.5762 4.96583 58.5762 5.18185C58.5762 5.67869 59.2818 6.23314 59.8219 6.16114C60.1891 6.11793 60.3403 5.96672 60.65 5.36187C61.0748 4.51219 60.9812 4.03695 60.3043 3.68412C59.9659 3.51131 59.8795 3.50411 59.5627 3.59771Z" fill="#97A483"/>
<path d="M36.866 4.17371C29.5861 4.59135 22.6087 7.40679 17.0714 12.152C15.4441 13.5489 13.2263 15.9107 13.0823 16.4076C12.9383 16.8684 13.1471 17.3437 13.5863 17.5741C14.1624 17.8693 14.4792 17.7469 15.1273 16.9836C15.7105 16.2924 17.1362 14.845 17.9643 14.1034C22.3567 10.1934 27.9372 7.55801 33.8129 6.62913C35.1738 6.41311 36.0811 6.3267 37.622 6.26909C39.1846 6.21149 39.3646 6.16109 39.631 5.73625C39.9622 5.2034 39.7534 4.49774 39.1846 4.24572C38.8533 4.09451 38.5221 4.0801 36.866 4.17371Z" fill="#97A483"/>
<path d="M53.8957 5.51311C52.3044 5.72193 50.6194 6.55721 49.4673 7.73091C48.5672 8.63099 47.8976 9.73268 47.5591 10.856C47.4727 11.144 47.3647 11.3744 47.3215 11.3744C47.2711 11.3744 47.0263 11.3096 46.7671 11.2304C42.7779 9.9919 38.2775 9.71828 33.9644 10.4455C29.4352 11.2016 24.9924 13.2178 21.3993 16.1484C19.6855 17.5526 17.6765 19.6839 16.4524 21.3977C16.3228 21.5921 16.1932 21.7433 16.1644 21.7433C16.1356 21.7433 16.042 21.6569 15.9412 21.5561C15.1491 20.7064 13.5794 19.9792 12.2401 19.8352C11.8872 19.7992 11.592 19.7127 11.2536 19.5399C10.3967 19.1079 9.62624 18.9207 8.52454 18.8847C7.77567 18.8559 7.40844 18.8703 6.9404 18.9711C4.96743 19.3671 3.41209 20.5624 2.72083 22.2114C2.54082 22.629 2.3392 23.5651 2.3392 23.9467C2.3392 24.1771 2.2816 24.2635 1.79915 24.71C0.279822 26.1285 -0.253024 28.0367 0.36623 29.88C0.855872 31.3562 2.21679 32.6667 3.82973 33.2283C4.83062 33.5812 5.37067 33.6244 8.55334 33.6244H11.5056L11.4624 33.9628C11.4408 34.1572 11.3832 35.0141 11.3328 35.8854C11.0664 40.7386 12.0384 45.4766 14.177 49.7322C18.3822 58.1281 26.4757 63.7446 35.8365 64.7743C37.1686 64.9255 40.1569 64.9471 41.3666 64.8175C44.8445 64.4503 47.8904 63.579 50.9074 62.1028C58.6625 58.3081 64.243 50.9491 65.8055 42.4811C66.6768 37.7431 66.2736 32.8323 64.639 28.2527C63.7174 25.6677 62.3636 23.1835 60.6499 20.9369C60.2971 20.4688 59.8578 19.9288 59.6778 19.7271L59.3538 19.3671L59.6994 19.0647C60.9451 17.999 61.7732 16.7245 62.2124 15.2124C63.2349 11.6912 61.5284 7.89652 58.1801 6.25478C57.1504 5.75073 56.2503 5.53471 55.0838 5.50591C54.5725 5.49151 54.0325 5.49871 53.8957 5.51311ZM56.6679 7.73811C58.5113 8.35016 59.8938 9.80469 60.3907 11.6552C60.5923 12.3897 60.5995 13.6498 60.4195 14.3627C60.2394 15.0683 59.8074 15.9396 59.3466 16.5301C58.9649 17.0197 58.1297 17.747 58.0072 17.6966C57.9712 17.6822 57.6904 17.4446 57.388 17.1709C55.4438 15.414 53.118 13.873 50.497 12.5913C49.7409 12.2313 49.4313 12.0441 49.4313 11.9577C49.4313 11.7417 49.7841 10.7912 50.0146 10.3735C50.7994 8.96941 52.1747 7.96133 53.7877 7.6013C54.5798 7.42848 55.9263 7.48608 56.6679 7.73811ZM41.6546 12.1953C46.7527 12.8289 51.3107 14.8091 55.1846 18.0638L55.4294 18.2654L54.3925 19.5471C52.5564 21.8081 52.5132 21.8729 52.4772 22.2114C52.4412 22.4706 52.5636 22.845 53.2908 24.7604L54.1333 27.0142L53.5789 29.5272L53.0172 32.0402L53.5789 33.9556L54.1333 35.8782L53.7085 36.7422C53.4709 37.2103 53.262 37.6135 53.2332 37.6279C53.2044 37.6495 52.3404 37.7719 51.3035 37.9087C49.9281 38.0888 49.3809 38.1896 49.2657 38.2832C48.9057 38.564 43.9156 43.7845 43.8004 44.0005C43.7284 44.1373 43.6708 44.3389 43.6708 44.4541C43.6708 44.6701 45.3918 49.9698 45.5862 50.337C45.6942 50.553 46.119 50.7763 48.3944 51.8348C49.5393 52.3604 49.4529 52.3748 52.2971 51.3811C55.055 50.4234 55.1054 50.4018 55.3214 50.1642C55.4222 50.0562 55.6742 49.4369 55.9695 48.5585L56.4519 47.1255L57.028 46.8879C58.7561 46.1607 61.3987 45.1238 61.7444 45.0302C61.9604 44.9726 62.342 44.9293 62.5941 44.9293H63.0549L63.0045 45.1598C62.9037 45.6494 62.1404 47.5288 61.5932 48.6521C58.3601 55.2334 52.3188 60.1731 45.2189 62.0308C44.1748 62.3045 42.3171 62.6645 42.1875 62.6141C42.1443 62.5997 42.0867 62.3621 42.0579 62.0884C41.9426 60.9363 41.5322 59.5682 40.9706 58.4305C39.3936 55.2478 36.2902 52.9508 32.5386 52.1948C31.5665 52.0004 29.6008 51.9284 28.6575 52.0508C26.0797 52.382 23.7539 53.5197 21.7881 55.3991L21.2624 55.9103L20.4704 55.0822C16.6252 51.0643 14.2418 46.0959 13.529 40.609C13.349 39.2121 13.3202 36.6486 13.457 35.1365C13.5218 34.4452 13.5938 33.826 13.6154 33.7612C13.6442 33.6532 13.853 33.6388 15.3219 33.6028C16.7261 33.574 17.0861 33.5452 17.5685 33.4155C18.3174 33.2139 19.3327 32.7099 19.8655 32.2778C20.0959 32.0906 20.3264 31.9034 20.3768 31.8674C20.4344 31.8242 20.6792 31.925 21.1112 32.1698C21.4641 32.3715 21.9465 32.6307 22.1841 32.7315C22.969 33.0843 22.9762 33.1203 22.6738 34.6469C22.2489 36.7782 22.501 37.9591 23.5811 38.9744C24.0563 39.4281 24.8268 39.8817 25.6116 40.1769C25.9213 40.2921 26.1157 40.4362 26.4253 40.7602C27.2966 41.7107 27.9662 43.0644 29.3848 46.8015C30.3424 49.3361 31.0409 50.337 32.0058 50.553C32.3226 50.625 33.0859 50.4594 33.4027 50.2506C34.1876 49.7178 34.9508 48.1912 35.5989 45.851C35.7861 45.1886 35.7429 44.9366 35.3685 44.4109C35.0156 43.9213 34.7348 43.2516 34.6916 42.8052C34.6124 42.0347 35.0372 41.4442 36.1533 40.753C37.1614 40.1409 37.7231 39.3777 37.9463 38.3408C38.0831 37.6927 38.0831 37.3471 37.9391 36.663C37.6511 35.2373 36.6718 33.7684 35.4117 32.8683C34.9436 32.5299 34.9004 32.4867 34.8284 32.141C34.5188 30.6505 33.2947 29.844 30.5297 29.2968C29.5792 29.1096 29.4352 29.0376 28.8879 28.5191C28.1823 27.8495 27.8006 27.1726 27.9662 26.8702C28.0886 26.6398 28.6359 26.4309 29.7232 26.2077C32.3514 25.6605 34.2956 24.962 35.5557 24.1195C36.895 23.2267 37.3559 22.2546 37.363 20.3392C37.3703 19.5471 37.3414 19.3239 37.2046 18.8991C36.7798 17.6174 35.9445 16.7317 34.67 16.2204C33.9572 15.9324 33.2875 15.7812 32.2434 15.6948C31.5161 15.63 31.3073 15.6372 30.9185 15.7308C30.2776 15.8892 28.6503 15.9468 27.8222 15.846C26.9437 15.7308 26.0869 15.5364 26.0797 15.4428C26.0725 15.3204 28.7511 14.0243 29.8456 13.621C32.1066 12.7857 34.7708 12.2241 37.1542 12.0657C38.0039 12.0153 40.841 12.0945 41.6546 12.1953ZM24.3155 17.0917C25.014 17.3581 26.4685 17.6894 27.4694 17.8262C28.4991 17.9558 30.2632 17.9342 31.1201 17.7758C31.5593 17.6966 31.7466 17.7038 32.4522 17.7974C34.058 18.0278 34.9076 18.5534 35.1669 19.4823C35.2821 19.8928 35.2605 20.7352 35.1309 21.3329C35.03 21.7865 34.9724 21.8873 34.6988 22.1466C34.0076 22.7946 31.9986 23.5867 29.7736 24.0835C27.4694 24.5948 26.6989 24.9332 26.1949 25.6605C25.7556 26.3013 25.6404 26.9998 25.8564 27.727C26.1013 28.5407 26.5621 29.2464 27.3398 29.9952C28.1751 30.8017 28.7439 31.1041 29.7592 31.2842C31.1849 31.529 32.3226 31.9322 32.5314 32.2706C32.589 32.3571 32.661 32.5947 32.6898 32.7963C32.7402 33.1635 32.9419 33.6316 33.1507 33.8692C33.2155 33.9412 33.4963 34.15 33.7699 34.3228C35.4981 35.4461 36.3118 37.3975 35.4981 38.492C35.4045 38.6144 35.1237 38.8304 34.8644 38.9816C33.1075 40.0113 32.2794 41.4586 32.5026 43.0932C32.5962 43.7556 32.733 44.1589 33.1075 44.9077L33.4027 45.5054L33.1291 46.3119C32.7618 47.3704 32.4234 48.184 32.3226 48.22C32.2218 48.256 31.8258 47.392 30.8537 45.0014C30.4144 43.9141 29.86 42.6323 29.6368 42.1571C28.5855 39.9681 27.4982 38.7152 26.2237 38.24C25.2804 37.8943 24.7908 37.5415 24.5531 37.0447C24.3947 36.7062 24.4163 36.0942 24.6323 34.9493C24.8916 33.5884 24.8628 32.6883 24.5531 32.1194C24.2507 31.5794 23.9627 31.3562 22.681 30.7153C21.6801 30.2185 21.5577 30.1321 21.5865 29.9952C21.6081 29.916 21.6801 29.5848 21.7449 29.268C22.0905 27.5902 21.3489 25.6965 19.8655 24.4652C19.4335 24.1123 18.4398 23.5651 17.9502 23.3995C17.7989 23.3563 17.6765 23.2915 17.6765 23.2627C17.6765 23.1691 18.9078 21.5273 19.4407 20.9081C20.4632 19.7127 21.8601 18.3806 23.185 17.3293C23.4658 17.1061 23.7251 16.9261 23.7683 16.9189C23.8187 16.9189 24.0563 16.9981 24.3155 17.0917ZM57.9928 20.8433C61.3411 24.7388 63.3357 29.2392 64.027 34.4164C64.1854 35.6333 64.207 39.0824 64.063 40.2489C63.9622 41.0194 63.7101 42.5675 63.6453 42.7764C63.6165 42.87 63.4509 42.8988 62.7309 42.9348C61.2691 43.0068 61.3627 42.9708 55.703 45.239C55.1774 45.455 54.911 45.599 54.803 45.743C54.7166 45.8582 54.4429 46.5855 54.1837 47.3632L53.7157 48.7817L51.6419 49.4801L49.5753 50.1786L48.4664 49.6458L47.3503 49.1201L46.6663 46.9959C46.2846 45.8294 45.975 44.8501 45.975 44.8213C45.975 44.7925 46.6159 44.1013 47.4007 43.2948C48.1784 42.4811 49.1793 41.4442 49.6113 40.9978L50.4034 40.1697L52.3548 39.8961C54.0037 39.6657 54.3493 39.5937 54.5437 39.4569C54.8534 39.2337 56.2719 36.411 56.2719 36.015C56.2719 35.7702 56.1351 35.2517 55.4078 32.8251L55.1342 31.9178L55.667 29.5488C55.9551 28.2455 56.1999 27.0934 56.1999 26.9854C56.1999 26.8342 55.2278 24.1123 54.6518 22.6722C54.623 22.6002 54.983 22.1034 55.7751 21.1385L56.9344 19.7127L57.1864 19.9576C57.3232 20.0872 57.6904 20.4832 57.9928 20.8433ZM9.41742 20.9945C9.87106 21.1097 10.3895 21.3473 10.8503 21.6497C11.0664 21.7937 11.2536 21.8441 11.8224 21.8873C12.2113 21.9233 12.7369 22.0098 12.9961 22.0962C14.0402 22.4274 14.9907 23.2843 15.1131 24.0115C15.1779 24.4076 15.4371 24.8396 15.7108 25.0268C15.8476 25.1204 16.114 25.1996 16.3948 25.2284C17.7053 25.3652 18.9582 26.1933 19.4623 27.2734C19.6279 27.6262 19.6567 27.7775 19.6567 28.3679C19.6567 28.9944 19.6351 29.0952 19.4191 29.5344C18.9943 30.3913 18.0078 31.1401 16.9205 31.4282C16.2868 31.5866 5.61549 31.5938 4.96743 31.4282C3.87294 31.1473 2.85765 30.4057 2.45441 29.5848C1.79915 28.2383 2.332 26.6758 3.74332 25.7829C4.39858 25.3652 4.45619 25.2572 4.41298 24.5228C4.39138 24.1987 4.39858 23.7595 4.43458 23.5507C4.6218 22.3698 5.62989 21.3689 7.02681 20.9945C7.55966 20.8504 8.86297 20.8504 9.41742 20.9945ZM31.4297 54.0813C33.1795 54.2974 34.958 54.9958 36.3262 56.0039C38.3567 57.5016 39.7753 59.9571 39.9697 62.2973L40.0201 62.8805L38.2271 62.8373C37.2118 62.8157 36.0597 62.7509 35.5701 62.6789C31.0625 62.0668 27.095 60.4539 23.4946 57.7537C23.1418 57.4944 22.861 57.264 22.861 57.2352C22.861 57.2064 23.1202 56.94 23.4442 56.6376C25.1868 55.003 27.6206 54.0309 30.0616 54.0093C30.4792 54.0021 31.0985 54.0381 31.4297 54.0813Z" fill="#97A483"/>
<path d="M56.6315 8.83975C56.1347 9.08457 55.897 9.87664 56.1851 10.3159C56.2571 10.4239 56.4803 10.6111 56.6747 10.7335C57.2796 11.1151 57.5676 11.5184 57.7476 12.2528C57.834 12.5769 57.9348 12.7929 58.0716 12.9225C58.5973 13.4265 59.6414 13.1025 59.8214 12.3753C59.8862 12.1088 59.6342 11.1656 59.3533 10.6327C58.8997 9.76863 57.6396 8.71014 57.0707 8.71014C56.9627 8.71014 56.7683 8.76774 56.6315 8.83975Z" fill="#97A483"/>
<path d="M44.4348 6.11783C43.7291 6.34105 43.4555 7.34914 43.9811 7.82438C44.0675 7.90359 44.658 8.27082 45.2916 8.63805C46.2637 9.1997 46.5013 9.31491 46.8326 9.34371C47.3438 9.38692 47.6462 9.2285 47.8478 8.81087C48.0279 8.43643 47.9919 8.0836 47.7254 7.77397C47.5166 7.52195 45.1476 6.13223 44.8524 6.08903C44.7372 6.06743 44.55 6.08183 44.4348 6.11783Z" fill="#97A483"/>
<path d="M64.8327 6.35562C64.2134 6.64365 62.2836 7.83895 62.1612 8.01177C61.8372 8.46541 61.9596 9.15667 62.4061 9.43029C62.5717 9.5311 62.7661 9.5743 63.0397 9.5671C63.4069 9.5671 63.5222 9.5167 64.6959 8.82544C65.5815 8.30699 66.0064 8.01897 66.1144 7.84615C66.6544 7.05408 65.7039 5.95239 64.8327 6.35562Z" fill="#97A483"/>
<path d="M63.6388 12.3105C63.178 12.5841 63.0484 13.2321 63.3436 13.7578C63.5524 14.125 63.8404 14.2546 64.4957 14.2546C65.1797 14.2546 65.4678 14.1178 65.691 13.6786C65.8854 13.2898 65.8926 13.0881 65.7054 12.7065C65.4966 12.2745 65.2662 12.1665 64.5029 12.1665C63.9988 12.1665 63.8188 12.1953 63.6388 12.3105Z" fill="#97A483"/>
<path d="M62.4925 16.9115C62.2549 17.0123 61.8949 17.4732 61.8445 17.7396C61.8157 17.9268 61.8445 18.078 61.9525 18.3013C62.1181 18.6541 62.0461 18.5965 63.5438 19.4606C64.5663 20.051 64.6959 20.1086 65.0704 20.1158C65.38 20.123 65.524 20.087 65.6824 19.9718C65.9632 19.763 66.1648 19.3454 66.1072 19.0573C66.0136 18.5677 65.8408 18.4093 64.5087 17.6388C63.2054 16.8899 62.8526 16.7603 62.4925 16.9115Z" fill="#97A483"/>
<path d="M67.4767 23.0467C67.2246 23.2483 67.0734 23.5507 67.0734 23.8748C67.0734 24.0476 67.2606 24.5732 67.5847 25.3293C68.7368 28.0295 69.4784 30.7874 69.8601 33.8548C70.0257 35.1509 70.0473 39.5937 69.8961 40.861C69.6729 42.7692 69.2048 45.0446 68.7296 46.5999L68.5063 47.3056H67.9879C66.843 47.3056 65.8565 47.7304 65.1005 48.5297C63.9196 49.7898 63.5955 51.5828 64.2796 53.0805C64.4164 53.3685 64.6252 53.7214 64.7404 53.8582C65.1869 54.391 65.1797 54.3262 64.87 54.7799C61.1689 60.2667 55.8765 64.4503 49.7199 66.7617C48.9134 67.0641 48.7622 67.1649 48.5894 67.4962C48.431 67.7986 48.4958 68.353 48.719 68.5979C48.9206 68.8139 49.2735 68.9795 49.5399 68.9795C50.1159 68.9795 54.1699 67.1289 55.9845 66.0344C60.1464 63.5214 63.7323 60.1227 66.4686 56.0904L66.9438 55.3847L67.7143 55.4207C68.9672 55.4855 69.8097 55.1975 70.6449 54.4198C72.3515 52.8213 72.4523 50.2363 70.8754 48.5729C70.6449 48.3353 70.4577 48.1049 70.4577 48.0617C70.4577 48.0257 70.5441 47.7304 70.6449 47.4136C71.5666 44.5334 72.1139 40.8538 72.1139 37.5488C72.1139 32.8827 71.2066 28.5408 69.3704 24.3356C68.8376 23.1187 68.6288 22.8955 68.0527 22.8955C67.7719 22.8955 67.6207 22.9387 67.4767 23.0467ZM68.5135 49.401C68.9888 49.545 69.4568 49.9626 69.7233 50.4739C69.9537 50.9059 69.9681 50.9779 69.9321 51.4244C69.8457 52.4685 69.176 53.1813 68.1319 53.3253C67.0518 53.4765 65.9933 52.5045 65.9933 51.3596C65.9933 49.9842 67.2318 49.0194 68.5135 49.401Z" fill="#97A483"/>
<path d="M6.01777 36.5622C5.58573 36.7782 5.47052 37.0086 5.44172 37.7431C5.41292 38.4919 5.53533 40.3281 5.69374 41.545C6.16898 45.2677 7.24908 48.8392 8.89802 52.1659C9.88451 54.1461 10.835 55.6654 12.4767 57.8976C12.5631 58.0056 12.5487 58.0704 12.3975 58.3369C11.7135 59.5106 11.7207 61.1235 12.4119 62.3188C13.2616 63.7877 14.9609 64.5798 16.5955 64.2702C16.9267 64.2126 17.402 64.0614 17.6612 63.9389C17.9132 63.8237 18.1508 63.7229 18.1796 63.7229C18.2156 63.7229 18.5109 63.9317 18.8493 64.1838C22.8168 67.1792 27.7781 69.3322 32.7609 70.2323C34.6043 70.5635 36.7428 70.7795 38.2262 70.7795C39.1479 70.7795 39.4215 70.6859 39.6951 70.2755C40.0119 69.8075 39.8031 69.1234 39.2415 68.821C39.1695 68.7778 38.435 68.7202 37.6213 68.6842C31.4216 68.4537 25.6179 66.4448 20.3974 62.722C19.9726 62.4196 19.6198 62.1316 19.6198 62.0812C19.6198 62.0308 19.6918 61.786 19.7782 61.5411C19.8934 61.2027 19.9294 60.9219 19.9294 60.3746C19.9366 59.1721 19.5766 58.2937 18.7485 57.4512C17.6684 56.3495 15.9186 55.9678 14.5145 56.5151L14.1545 56.6591L13.5136 55.7806C10.763 51.9715 8.90522 47.6583 8.06275 43.1003C7.80353 41.689 7.67391 40.5297 7.57311 38.6503C7.4867 37.0734 7.4723 37.0086 7.30668 36.8214C6.92505 36.4253 6.47141 36.3245 6.01777 36.5622ZM16.4803 58.4017C16.9411 58.5169 17.4524 58.9417 17.6972 59.4025C17.8844 59.7626 17.8988 59.849 17.8772 60.3386C17.8412 60.9435 17.6756 61.3323 17.3084 61.6995C16.1347 62.8733 14.1041 62.146 13.9529 60.4898C13.8953 59.8706 14.0753 59.3953 14.5361 58.9273C15.0834 58.3801 15.7242 58.2072 16.4803 58.4017Z" fill="#97A483"/>
</svg>
