<svg width="73" height="69" viewBox="0 0 73 69" fill="none" xmlns="http://www.w3.org/2000/svg">
<path d="M25.0029 1.88966C23.2081 3.79013 22.7329 4.00129 22.0467 3.47339C20.9381 2.52315 19.3543 2.94548 19.3543 4.21246C19.3543 4.84595 18.8792 5.32106 18.0346 5.53223C16.1869 5.95455 17.4011 6.58804 20.7797 6.90479C24.3695 7.27432 27.009 6.74642 27.009 5.79618C27.009 5.37386 26.7978 5.00432 26.4811 5.00432C26.2171 5.00432 26.4811 4.15967 27.0618 3.15664C27.8009 1.94245 28.012 1.0978 27.6425 0.517101C27.2729 -0.22197 26.8506 -0.010807 25.0029 1.88966Z" fill="#97A483"/>
<path d="M53.9316 2.57583C53.9316 3.3149 54.5651 4.58188 55.3042 5.47933L56.6768 7.11584H55.4098C54.2484 7.16863 54.2484 7.16863 55.1986 7.9077C56.7823 9.12189 64.4898 8.80515 64.4898 7.59096C64.4898 7.327 64.3314 7.16863 64.1203 7.16863C63.8563 7.22142 63.1172 7.22142 62.431 7.16863C61.3751 7.11584 61.2696 6.95747 61.7447 6.48235C62.1142 6.11281 62.3782 5.53212 62.3782 5.16258C62.3782 4.31793 60.6889 4.26514 59.8442 5.10979C59.3691 5.58491 58.6828 5.26816 56.9407 3.52607C54.354 0.939316 53.9316 0.833734 53.9316 2.57583Z" fill="#97A483"/>
<path d="M3.83378 6.79912C2.93634 9.59703 2.19727 12.131 2.19727 12.3949C2.19727 12.7117 2.77796 12.9229 3.56983 12.9229C4.8896 12.9229 4.8896 12.9756 4.8896 17.2517C4.83681 19.6801 4.8896 22.214 4.94239 22.9531C4.99518 23.6922 4.94239 24.484 4.8896 24.8008C4.78402 25.0647 4.73122 29.7631 4.78402 35.2006C4.83681 43.6471 4.94239 45.1252 5.62867 45.1252C6.31495 45.1252 6.42053 42.9608 6.42053 29.024V12.9229H8.05704C9.42961 12.9229 9.64077 12.7645 9.32402 11.9726C9.11286 11.4975 8.37379 9.17471 7.63472 6.85191C6.89565 4.52911 6.10379 2.41748 5.89262 2.15353C5.62867 1.94236 4.73122 4.00121 3.83378 6.79912Z" fill="#97A483"/>
<path d="M33.9248 5.69049C32.9745 6.85189 32.6578 9.54422 33.3441 10.7584C33.872 11.7614 33.7664 11.9726 32.0771 12.6589C30.4934 13.3452 30.071 13.9786 28.6457 17.6212C27.7482 19.944 27.0092 22.1612 27.0092 22.5308C26.9564 22.9003 26.4285 25.1175 25.7422 27.4403C24.7392 30.8189 24.2112 31.8219 22.9971 32.561C20.9382 33.828 20.6743 33.7752 20.991 31.9803C21.255 30.8717 21.0438 30.1854 20.1991 29.3408C19.1433 28.285 18.0347 28.285 16.6094 29.4464C15.7647 30.0798 15.7119 32.825 16.5566 33.0889C16.9261 33.2473 16.7149 33.9336 15.8703 35.0422C14.7617 36.5203 14.3922 36.7315 12.914 36.4147C11.5414 36.1508 11.1719 36.3092 11.1719 36.8899C11.1719 37.7873 13.2835 38.5264 14.8145 38.104C15.7647 37.8929 15.7647 37.9985 15.0256 40.1101C14.4449 41.9578 14.0754 42.3273 13.2308 42.1161C12.7028 41.9578 12.2277 42.1161 12.2277 42.4329C12.2277 42.7496 11.8054 43.0136 11.2775 43.0136C10.7496 43.0136 9.95773 43.4887 9.42982 44.0694C8.32121 45.3892 8.32121 45.6531 9.32424 45.6531C9.90493 45.6531 10.1161 46.2338 10.1161 47.712C10.1161 51.7769 7.84609 51.1962 5.5233 46.6034C4.62585 44.7557 3.72841 42.4857 3.51725 41.5882C3.2005 39.9517 1.93352 39.2654 0.983288 40.1629C0.560961 40.5852 2.09189 45.4948 3.62283 48.5038L4.9426 51.0906L3.46446 52.252C1.61678 53.7301 2.19748 54.6276 4.99539 54.6276C7.00144 54.6804 7.58214 54.9971 11.3303 58.6397C14.4977 61.6487 16.6094 63.1269 20.3047 64.9218C25.4254 67.3502 30.4406 68.6171 33.5552 68.2476C34.611 68.142 35.4557 68.2476 35.4557 68.4588C35.4557 69.1978 39.9429 68.9339 45.1692 67.8781C52.6127 66.3471 58.3669 63.2325 64.0155 57.5839C66.8662 54.7859 67.1302 54.6276 69.6641 54.6276C72.9372 54.6276 73.5179 53.8885 71.2479 52.7271C70.2976 52.252 69.453 51.7769 69.3474 51.7241C69.2946 51.6713 70.0865 49.7708 71.1423 47.5008C72.6204 44.2278 72.8844 43.3303 72.3037 42.9608C71.0895 42.1689 70.8783 42.3801 69.2418 45.7059C67.1302 50.0348 66.8134 50.4043 64.4378 50.4043C62.5902 50.4043 62.379 50.2459 62.379 49.1373C62.379 47.8703 63.382 46.445 64.5434 46.0755C64.9657 45.9171 64.8602 45.2836 64.2795 43.8582C63.2236 41.3243 63.2236 39.635 64.2267 38.7903C65.3881 37.8401 65.1769 36.7315 63.8571 36.2036C62.643 35.7285 62.643 35.7285 64.1211 35.1478C65.652 34.5671 66.0744 33.5112 64.7546 33.5112C64.2795 33.5112 63.646 32.9305 63.3292 32.1915C62.4846 30.3438 60.6369 30.4494 59.2115 32.4554C58.5781 33.3529 57.8918 33.9336 57.6278 33.7752C57.3639 33.6168 56.9943 32.1387 56.7832 30.4494C56.3608 26.8068 55.8857 25.8038 54.4076 25.3287C53.299 24.9591 53.299 24.9063 54.7771 23.7449C56.5192 22.3196 56.3081 21.4749 53.7741 19.5745C52.5071 18.6242 52.3487 18.6242 51.0818 19.4161C49.3397 20.5775 48.9173 22.1612 49.9204 23.7449C50.7122 24.9063 50.6594 25.0119 49.7092 25.3287C49.0757 25.5398 48.1255 26.754 47.492 28.021C46.9113 29.3408 46.3306 30.291 46.1722 30.1854C46.0666 30.0271 45.1692 26.754 44.219 22.9003C42.0545 14.2954 41.5266 12.9228 40.4708 12.9228C39.9957 12.9228 39.151 12.6589 38.5703 12.3421C37.5673 11.8142 37.5673 11.7086 38.3592 10.4417C39.0983 9.33306 39.151 8.91073 38.5703 7.48538C38.2008 6.53514 37.6201 5.6377 37.3562 5.42654C36.4059 4.79305 34.5582 4.95142 33.9248 5.69049ZM32.0243 41.1131C32.9745 46.8145 32.8689 47.2369 30.1766 47.2369C29.4375 47.2369 27.1675 47.712 25.1615 48.2927C23.1554 48.8734 21.4133 49.3485 21.3605 49.3485C20.8854 49.3485 21.3077 44.5973 21.7829 44.2806C22.3636 43.9638 22.258 42.2217 21.4133 37.9457C21.1494 36.4675 21.3077 36.2036 23.4194 34.9366C26.5868 33.0889 28.1178 31.3468 27.9594 29.7103C27.9066 28.9184 28.4345 27.0708 29.1208 25.5398L30.4406 22.7419L30.8101 29.3408C31.0213 32.9305 31.5492 38.2096 32.0243 41.1131ZM43.5855 30.5022C42.952 32.561 46.4362 34.4615 48.0199 32.8778C48.495 32.4026 48.6534 32.825 48.6534 34.8838C48.6534 36.3619 48.8646 38.8431 49.1285 40.4268C49.3925 42.0106 49.7092 44.7557 49.8148 46.4978L50.026 49.718L46.4362 48.5038C44.4829 47.8176 42.3185 47.2369 41.685 47.2369C39.3094 47.2369 39.0455 46.6034 39.415 42.4329C39.6262 40.2685 39.8901 37.9457 39.9957 37.2066C40.1013 36.4675 40.3652 33.0361 40.5764 29.5519L40.8931 23.2698L42.3713 26.3845C43.2159 28.1266 43.7438 29.9743 43.5855 30.5022ZM57.8918 43.2248C57.0999 45.6003 57.0471 45.8643 57.839 46.2866C58.3669 46.6034 58.6836 47.5008 58.6836 48.8206V50.9322H56.0969C53.4046 50.9322 52.4015 50.2987 53.299 49.1901C53.5629 48.8206 53.9325 46.6562 54.1436 44.3334C54.302 42.0106 54.6188 38.7375 54.7771 37.0482L55.1467 33.9336L56.9415 37.3122L58.7892 40.638L57.8918 43.2248ZM36.7227 45.2308C36.9338 46.2866 36.7755 46.7089 36.2476 46.7089C35.6141 46.7089 35.4557 45.8115 35.5085 41.7994L35.6141 36.9426L36.0364 40.374C36.2476 42.2745 36.5643 44.4389 36.7227 45.2308ZM15.3952 44.5445C15.6591 45.1252 15.9231 46.6562 15.9231 47.9759V50.4043H14.0226C11.7526 50.4043 10.644 49.4013 10.644 47.2896C10.644 46.181 10.9608 45.6003 11.6998 45.3892C12.2805 45.2308 12.7556 44.7029 12.7556 44.2806C12.7556 43.172 14.7617 43.3831 15.3952 44.5445ZM18.8794 49.7708C18.1931 50.4043 17.9291 49.2957 18.3515 47.3952L18.7738 45.3892L18.985 47.448C19.0905 48.5566 19.0377 49.6124 18.8794 49.7708ZM46.6473 55.0499C54.9883 54.9971 61.9039 55.0499 62.0623 55.1555C63.0125 56.1057 55.7801 61.332 50.1315 63.7604C46.9113 65.1329 44.5885 65.7664 41.5266 66.0304C38.6231 66.2943 37.0922 66.6639 36.6171 67.2446C36.0364 68.0364 35.9836 68.0364 36.2476 67.2446C36.5115 66.5583 35.9836 66.3471 33.0801 66.0304C28.6985 65.6081 21.4133 62.9685 17.8763 60.5929C14.6033 58.3757 11.5942 55.6306 12.0166 55.2083C12.1749 55.0499 15.7119 54.8915 19.8824 54.8915C24.8447 54.8915 27.6954 54.6804 28.065 54.3108C28.5401 53.8357 29.0152 53.8885 30.071 54.4164C31.2324 55.0499 34.3471 55.1555 46.6473 55.0499Z" fill="#97A483"/>
<path d="M20.6738 58.8508C20.6738 59.1147 21.5185 59.3787 22.5215 59.3787C23.5245 59.3787 24.3692 59.1147 24.3692 58.8508C24.3692 58.534 23.5245 58.3228 22.5215 58.3228C21.5185 58.3228 20.6738 58.534 20.6738 58.8508Z" fill="#97A483"/>
<path d="M28.8561 59.3786C28.6449 59.6953 30.2814 59.9065 33.2905 59.9065C36.1412 59.9065 38.0945 59.6953 38.0945 59.3786C38.0945 59.0618 36.2468 58.8507 33.66 58.8507C31.1789 58.8507 29.0145 59.0618 28.8561 59.3786Z" fill="#97A483"/>
<path d="M47.1741 59.7482C45.3265 60.1177 46.3823 60.9624 48.6523 60.9624C50.9751 60.9624 51.8725 60.1705 50.0776 59.6954C49.4441 59.5371 48.8106 59.4315 48.6523 59.4315C48.4939 59.4843 47.8604 59.6426 47.1741 59.7482Z" fill="#97A483"/>
<path d="M44.0608 8.01335C42.7411 8.54126 43.4273 9.22754 45.1694 9.22754C47.3339 9.22754 48.1257 8.43568 46.3836 7.96056C45.0639 7.64381 44.9583 7.64381 44.0608 8.01335Z" fill="#97A483"/>
<path d="M69.2422 16.6181C69.2422 16.882 69.9813 17.146 70.8787 17.146C71.7761 17.146 72.3568 16.9348 72.1457 16.6181C71.9873 16.3013 71.2482 16.0902 70.5092 16.0902C69.8229 16.0902 69.2422 16.3013 69.2422 16.6181Z" fill="#97A483"/>
<path d="M11.8053 18.5715C10.7495 18.9938 11.6469 19.7856 13.2834 19.7856C15.0255 19.7856 15.8174 18.9938 14.5504 18.5187C13.6002 18.1491 12.8083 18.1491 11.8053 18.5715Z" fill="#97A483"/>
<path d="M61.5873 18.7297C61.3761 19.0464 61.8512 19.2576 62.6431 19.2576C63.435 19.2576 63.9101 19.0464 63.6989 18.7297C63.5405 18.4129 63.0654 18.2018 62.6431 18.2018C62.2208 18.2018 61.7456 18.4129 61.5873 18.7297Z" fill="#97A483"/>
<path d="M64.227 20.8415C64.0159 21.1582 64.5966 21.3694 65.494 21.3694C66.3914 21.3694 67.1305 21.1054 67.1305 20.8415C67.1305 20.5247 66.5498 20.3136 65.8635 20.3136C65.1245 20.3136 64.3854 20.5247 64.227 20.8415Z" fill="#97A483"/>
<path d="M10.8012 22.5308C10.9068 22.9003 11.5403 23.217 12.2265 23.217C12.9128 23.217 13.5463 22.9003 13.7047 22.5308C13.8103 22.1084 13.3351 21.8973 12.2265 21.8973C11.1179 21.8973 10.6428 22.1084 10.8012 22.5308Z" fill="#97A483"/>
<path d="M61.3223 25.0646C61.3223 25.3814 62.7476 25.5925 64.4897 25.5925C66.2318 25.5925 67.6572 25.3814 67.6572 25.0646C67.6572 24.7479 66.2318 24.5367 64.4897 24.5367C62.7476 24.5367 61.3223 24.7479 61.3223 25.0646Z" fill="#97A483"/>
<path d="M9.58789 27.7043C9.58789 27.9682 10.063 28.2322 10.6437 28.2322C11.2244 28.2322 11.6995 27.9682 11.6995 27.7043C11.6995 27.3875 11.2244 27.1764 10.6437 27.1764C10.063 27.1764 9.58789 27.3875 9.58789 27.7043Z" fill="#97A483"/>
<path d="M0.613281 59.9064C0.613281 60.1704 1.6691 60.4343 2.98887 60.4343C4.30864 60.4343 5.36445 60.1704 5.36445 59.9064C5.36445 59.5897 4.30864 59.3785 2.98887 59.3785C1.6691 59.3785 0.613281 59.5897 0.613281 59.9064Z" fill="#97A483"/>
<path d="M66.6016 62.5461C66.6016 62.81 66.9183 63.074 67.3406 63.074C67.763 63.074 68.2909 62.81 68.4492 62.5461C68.6076 62.2293 68.2909 62.0182 67.7102 62.0182C67.0767 62.0182 66.6016 62.2293 66.6016 62.5461Z" fill="#97A483"/>
</svg>
