<svg width="40" height="17" viewBox="0 0 40 17" fill="none" xmlns="http://www.w3.org/2000/svg">
<path d="M35.6952 4.84117C35.5138 5.39232 35.3603 5.8745 35.3603 5.91636C35.3615 5.95152 35.5289 6.04216 35.7235 6.11167C35.926 6.18848 36.5047 6.44667 36.9999 6.69078C37.495 6.93486 38.1786 7.33901 38.5136 7.59019C38.8554 7.84133 39.2605 8.21124 39.414 8.4066C39.5743 8.60878 39.7697 8.90147 39.8466 9.05503C39.9652 9.27125 39.9999 9.45996 39.9999 9.9271C39.9999 10.4294 39.9719 10.5837 39.8114 10.9046C39.7136 11.1139 39.435 11.483 39.205 11.7201C38.9678 11.9642 38.521 12.3272 38.2001 12.5365C37.8862 12.7457 37.2656 13.0879 36.8261 13.2972C36.3867 13.5134 35.7098 13.7993 35.3261 13.9388C34.9424 14.0853 34.1398 14.3367 33.5468 14.5111C32.9538 14.6785 31.935 14.9293 31.2792 15.0619C30.6236 15.1944 29.7172 15.3621 29.2567 15.4388C28.7963 15.5086 28.0424 15.6202 27.5819 15.683C27.1215 15.7388 26.2427 15.8371 25.6288 15.8929L25.5556 15.8988C24.9411 15.9477 24.0372 16.0194 23.5009 16.0462C22.9428 16.0742 21.4217 16.1019 20.1171 16.1019C18.8128 16.1019 17.2714 16.081 16.6991 16.0531C16.1202 16.0252 15.2901 15.969 14.8505 15.9271C14.411 15.8922 13.7474 15.8293 13.3847 15.7875C13.0218 15.7525 12.3592 15.6696 11.9198 15.6068C11.4803 15.551 10.6919 15.425 10.1757 15.3343C9.65948 15.2436 8.79484 15.076 8.25772 14.9574C7.72062 14.8318 6.93918 14.6365 6.51358 14.5179C6.08802 14.4063 5.38278 14.1831 4.94327 14.0296C4.50369 13.8761 3.72947 13.5549 3.23429 13.3177C2.73202 13.0805 2.08305 12.7181 1.78311 12.5228C1.49011 12.3205 1.05738 11.9642 0.820223 11.7201C0.590222 11.483 0.311561 11.1139 0.213778 10.9046C0.0951826 10.6605 0.0187495 10.367 0.00479378 10.1019C-0.00915901 9.87168 0.0117635 9.5506 0.0536219 9.38316C0.0955855 9.22263 0.262282 8.89477 0.429598 8.65074C0.597032 8.41353 0.93919 8.04363 1.19034 7.83433C1.44144 7.62509 1.90854 7.29725 2.2294 7.10191C2.55032 6.91354 3.19279 6.59315 3.65323 6.39781C4.11362 6.20249 4.86661 5.90873 5.32706 5.75523C5.7874 5.60178 6.48516 5.39297 6.87589 5.29527C7.27354 5.1976 7.60886 5.11363 7.62979 5.11363C7.65059 5.11501 7.66397 5.30435 7.66397 5.95054L7.05069 6.12535C6.71583 6.22302 6.11548 6.43182 5.71085 6.58531C5.30622 6.74577 4.74101 6.99726 4.45499 7.15074C4.16896 7.30424 3.73621 7.56928 3.4921 7.73667C3.25499 7.9041 2.93478 8.2113 2.77433 8.4066C2.62084 8.60892 2.46657 8.8883 2.42472 9.02085C2.38989 9.1534 2.36222 9.35549 2.36222 9.47398C2.36222 9.58552 2.4252 9.81549 2.50186 9.97593C2.57859 10.1433 2.77404 10.4226 2.93448 10.597C3.1019 10.7714 3.40878 11.0297 3.61808 11.1693C3.82737 11.3088 4.23927 11.5395 4.5253 11.6791C4.81139 11.8255 5.34823 12.0485 5.71085 12.181C6.07362 12.3136 6.71595 12.5232 7.14151 12.6488C7.56719 12.7744 8.39733 12.9764 8.99015 13.1019C9.58316 13.2275 10.5878 13.4154 11.2226 13.513C11.8574 13.6107 12.9878 13.7508 13.7343 13.8275C14.4807 13.9042 15.4712 13.9882 15.9316 14.0091C16.392 14.0301 16.9085 14.0644 17.0829 14.0853C17.2585 14.1062 18.5134 14.1205 19.873 14.1205C21.2331 14.1205 22.6353 14.1064 22.9774 14.0785L24.2333 14.0023C24.582 13.9883 25.0144 13.9528 25.2099 13.9388C25.3982 13.9179 26.0263 13.855 26.6054 13.7992C27.1774 13.7364 28.0632 13.6249 28.5585 13.5482C29.0538 13.4715 29.8147 13.3456 30.2333 13.2689C30.652 13.1921 31.4404 13.0176 31.9774 12.8851C32.5146 12.7525 33.3031 12.5295 33.7216 12.39C34.1401 12.2574 34.8373 11.9788 35.2558 11.7835C35.6743 11.5812 36.1766 11.3154 36.372 11.1898C36.5603 11.0573 36.8608 10.8278 37.0282 10.6673C37.1955 10.507 37.4042 10.2209 37.495 10.0326C37.5857 9.83728 37.663 9.56485 37.663 9.41831C37.663 9.2788 37.6144 9.04139 37.5517 8.89488C37.4959 8.75535 37.3279 8.49688 37.1884 8.32945C37.0487 8.15504 36.7142 7.86243 36.4423 7.67417C36.1702 7.48581 35.7442 7.22753 35.0116 6.85777L34.956 7.01109C34.9211 7.10178 34.74 7.61829 34.5517 8.16245C34.3633 8.7136 34.1956 9.1605 34.1747 9.1605C34.1536 9.16695 34.0906 9.06216 34.0419 8.93687C33.986 8.8111 33.5959 8.01603 33.1845 7.17222C32.7743 6.33089 32.4329 5.61384 32.4237 5.5814C32.4237 5.54652 33.0869 5.20465 33.9101 4.80699C34.7262 4.41634 35.5356 4.0323 35.703 3.94859C35.8758 3.86567 36.0142 3.80995 36.0233 3.82261C36.0233 3.82959 35.8766 4.29013 35.6952 4.84117ZM11.1523 0.690775C11.4034 0.711705 11.7809 0.760244 11.9901 0.802103C12.1994 0.843996 12.5408 0.948772 12.7431 1.03941C12.9383 1.13005 13.2731 1.35989 13.4755 1.5482C13.7197 1.77145 13.9014 2.03043 14.0409 2.33042C14.1664 2.60937 14.2503 2.94395 14.2782 3.22984C14.2992 3.56456 14.278 3.78787 14.1874 4.06675C14.0967 4.33186 13.9435 4.56986 13.3505 5.19078L13.7196 5.55308C13.9429 5.76935 14.1808 6.0974 14.3134 6.36949C14.5086 6.76699 14.5292 6.89293 14.5292 7.38121C14.5222 7.78569 14.4808 8.05787 14.3622 8.35777C14.2436 8.66474 14.0823 8.88771 13.7753 9.19468C13.5102 9.45278 13.1754 9.69691 12.8964 9.82945C12.6453 9.95495 12.2134 10.1016 11.9413 10.1644C11.6624 10.2272 11.1809 10.2767 10.8739 10.2767C10.567 10.2767 10.1686 10.2414 9.98722 10.1996C9.79871 10.1506 9.40141 10.004 9.09464 9.8646C8.72489 9.69717 8.39685 9.48099 8.13175 9.22984C7.90853 9.02056 7.74098 8.82512 7.74796 8.79722C7.76191 8.77629 8.06212 8.4556 9.05948 7.41636L9.35245 7.6605C9.51989 7.80003 9.79231 7.98108 9.96671 8.0648C10.2109 8.18338 10.4063 8.21812 10.8388 8.21812C11.2568 8.21811 11.4522 8.18356 11.5917 8.09312C11.6964 8.03033 11.8431 7.86909 11.9198 7.74351C12.0034 7.61106 12.0594 7.39532 12.0595 7.22105C12.0595 7.06059 12.0108 6.83672 11.955 6.71812C11.8991 6.59953 11.7454 6.45276 11.6269 6.38999C11.4664 6.30638 11.1868 6.2647 9.96671 6.22984V4.69468H10.5107C10.8037 4.69468 11.167 4.66023 11.3066 4.62535C11.453 4.5834 11.6685 4.47124 11.787 4.35972C11.9614 4.20624 12.0111 4.10167 12.039 3.82261C12.0668 3.53688 12.0456 3.43192 11.9062 3.23667C11.8224 3.10419 11.6343 2.92964 11.5019 2.85288C11.3345 2.75526 11.1389 2.70631 10.8739 2.71324C10.6437 2.71324 10.3641 2.76917 10.1757 2.85288C10.0013 2.92963 9.75062 3.09759 9.61808 3.21617C9.48552 3.33477 9.34548 3.43199 9.30362 3.43199C9.26067 3.43045 8.95308 3.08794 8.00675 1.9398L8.27823 1.69468C8.42482 1.56211 8.76713 1.33918 9.03214 1.19273C9.29724 1.05323 9.68816 0.89319 9.89737 0.830424C10.1066 0.774635 10.3786 0.711556 10.4901 0.697611C10.6019 0.676735 10.9014 0.676852 11.1523 0.690775ZM26.4657 0.655619C26.696 0.648642 27.0801 0.683236 27.3173 0.718119C27.5614 0.760009 27.938 0.871473 28.1542 0.969096C28.3775 1.06677 28.6987 1.24893 28.8661 1.36753C29.0336 1.49328 29.3263 1.80666 29.5146 2.07847C29.7447 2.40626 29.919 2.7693 30.0585 3.19468C30.1631 3.53653 30.2958 4.13714 30.3446 4.52085C30.3935 4.92549 30.4076 5.51178 30.3866 5.91636C30.3657 6.30006 30.2961 6.85112 30.2333 7.13706C30.1705 7.42311 30.0306 7.88372 29.912 8.14878C29.8003 8.41389 29.5705 8.81164 29.4101 9.02085C29.2426 9.23011 28.9357 9.51608 28.7265 9.65562C28.5173 9.80203 28.1475 9.98283 27.8964 10.0736C27.6034 10.1713 27.219 10.2411 26.8144 10.2621C26.382 10.283 26.0399 10.2549 25.6982 10.1712C25.4262 10.1084 25.0289 9.95578 24.7987 9.83726C24.5755 9.71168 24.219 9.43913 24.0097 9.22984C23.7587 8.9788 23.5287 8.65096 23.3544 8.28843C23.1939 7.96053 23.026 7.45744 22.9423 7.06675C22.8517 6.63429 22.8028 6.11772 22.7958 5.56675C22.7889 5.10651 22.8242 4.52792 22.873 4.27671C22.9148 4.02556 22.9986 3.66235 23.0614 3.47398C23.1243 3.27859 23.2777 2.91576 23.4032 2.65074C23.5358 2.3926 23.8215 1.98764 24.0517 1.74351C24.2749 1.50637 24.6379 1.21384 24.8681 1.08824C25.0913 0.969634 25.4547 0.815924 25.664 0.760111C25.8733 0.704356 26.2357 0.655633 26.4657 0.655619ZM19.2108 0.690775C19.4411 0.704785 19.8452 0.767688 20.1171 0.830424C20.3892 0.893213 20.9266 1.09518 21.3173 1.28355C21.7149 1.47191 22.036 1.66747 22.036 1.70933C22.0355 1.75922 21.8467 2.17152 21.1991 3.43882L20.7099 3.19468C20.4378 3.06218 20.0403 2.90866 19.8241 2.85288C19.6009 2.80408 19.2797 2.76946 19.1054 2.79038C18.931 2.80441 18.6526 2.88841 18.4853 2.97203C18.3109 3.05574 18.0659 3.25116 17.9403 3.40464C17.8079 3.5582 17.6478 3.87185 17.578 4.10191C17.5013 4.33213 17.4596 4.53508 17.4735 4.55601C17.4882 4.57587 17.5577 4.53435 17.62 4.47203C17.6898 4.40922 17.9338 4.26903 18.164 4.16441C18.4708 4.02496 18.736 3.96965 19.1405 3.94175C19.5312 3.92082 19.8383 3.94899 20.1523 4.02574C20.4034 4.08854 20.7455 4.22775 20.9198 4.33238C21.0942 4.43009 21.3525 4.62552 21.4989 4.76499C21.6524 4.89769 21.8752 5.23246 22.0077 5.49742C22.1611 5.81122 22.2658 6.1459 22.3007 6.43882C22.3286 6.68998 22.3286 7.1161 22.3007 7.38121C22.2658 7.72298 22.1821 8.01598 22.0077 8.35777C21.8682 8.64376 21.6176 8.99293 21.3944 9.21617C21.1921 9.41849 20.8498 9.66983 20.6405 9.78843C20.4313 9.9 20.0547 10.039 19.8036 10.1087C19.5525 10.1715 19.0846 10.2279 18.7567 10.2279C18.394 10.2279 18.0031 10.1855 17.745 10.1087C17.5148 10.0389 17.1451 9.88549 16.9149 9.76695C16.6917 9.64133 16.3427 9.36974 16.1474 9.1605C15.9451 8.9512 15.7012 8.63667 15.5966 8.46226C15.4989 8.28778 15.3311 7.89709 15.2265 7.59019C15.0801 7.14391 15.0387 6.85079 15.0038 6.1605C14.9829 5.63726 15.0038 5.05049 15.0526 4.69468C15.1015 4.36673 15.234 3.81569 15.3456 3.47398C15.4572 3.12522 15.6383 2.68577 15.7499 2.49742C15.8615 2.30213 16.0636 2.023 16.1962 1.86949C16.3218 1.71601 16.6012 1.47191 16.8105 1.33238C17.0197 1.18592 17.3752 1.00402 17.6054 0.920267C17.8356 0.843525 18.1988 0.752861 18.4081 0.724955C18.6174 0.697056 18.9807 0.6838 19.2108 0.690775ZM26.4237 2.79722C26.3678 2.81145 26.2352 2.90956 26.1308 3.01402C26.0192 3.11172 25.8866 3.27191 25.8378 3.36949C25.789 3.46714 25.6984 3.69016 25.6357 3.87144C25.5729 4.05981 25.4889 4.50015 25.454 4.84898C25.4052 5.30216 25.4052 5.67881 25.454 6.09019C25.4959 6.41809 25.5941 6.86513 25.6708 7.0814C25.7406 7.30455 25.8865 7.61836 25.9911 7.77183C26.1027 7.93216 26.2702 8.10662 26.3749 8.15562C26.5004 8.21835 26.6402 8.23236 26.7587 8.19761C26.8563 8.16971 27.0309 8.04385 27.1425 7.91831C27.2471 7.79978 27.4075 7.48606 27.4843 7.22105C27.6029 6.86528 27.645 6.51605 27.6659 5.77671C27.6938 5.05123 27.6725 4.66736 27.5888 4.27671C27.526 3.99067 27.4077 3.62746 27.331 3.47398C27.2542 3.32053 27.1147 3.12518 27.038 3.03453C26.9543 2.95083 26.8007 2.85357 26.703 2.8187C26.5984 2.79081 26.4726 2.77629 26.4237 2.79722ZM18.8964 5.81089C18.7638 5.81097 18.4919 5.88821 18.3036 5.97886C18.1083 6.06258 17.8501 6.22299 17.7245 6.32066C17.5432 6.47408 17.5009 6.5578 17.5009 6.76695C17.5009 6.91346 17.5782 7.18586 17.6689 7.38121C17.7595 7.56954 17.8921 7.78621 17.9618 7.84898C18.0317 7.91173 18.2198 8.01574 18.373 8.07847C18.5613 8.16219 18.7432 8.18353 18.9316 8.15562C19.085 8.12771 19.3224 8.03732 19.455 7.94663C19.5875 7.86292 19.7545 7.67405 19.8173 7.53453C19.887 7.39513 19.9432 7.14435 19.9433 6.97691C19.9433 6.80251 19.8806 6.55771 19.7899 6.37632C19.6923 6.19493 19.5312 6.02045 19.3847 5.94371C19.2521 5.86705 19.0289 5.81089 18.8964 5.81089ZM32.4306 0.104838C32.7584 0.125762 32.9747 0.188171 33.2118 0.320658C33.4001 0.425261 33.6441 0.641663 33.7558 0.802103C33.8744 0.969533 34.0002 1.24864 34.0351 1.43003C34.0769 1.61839 34.0844 1.8975 34.0566 2.05796C34.0286 2.22537 33.9095 2.5112 33.7909 2.69956C33.6444 2.94374 33.4702 3.10467 33.1982 3.25816C32.8774 3.4325 32.7377 3.46712 32.3612 3.46714C32.0405 3.46714 31.8241 3.41821 31.6288 3.32066C31.4754 3.24397 31.2591 3.08351 31.1474 2.97886C31.0428 2.86735 30.9103 2.69304 30.8544 2.5814C30.7986 2.47675 30.7213 2.25288 30.6864 2.07847C30.6377 1.8693 30.6376 1.65314 30.6864 1.43003C30.7213 1.24875 30.8607 0.962874 30.9862 0.788431C31.1327 0.593088 31.3633 0.397268 31.6005 0.278666C31.9283 0.104323 32.04 0.0839153 32.4306 0.104838ZM32.0888 0.906596C31.9981 0.920638 31.838 1.0324 31.7265 1.1439C31.6149 1.25553 31.5033 1.45108 31.4823 1.56968C31.4544 1.69526 31.4613 1.89054 31.4892 2.00913C31.5171 2.12774 31.6428 2.32317 31.7753 2.44175C31.9775 2.6439 32.0612 2.67222 32.3681 2.67222C32.6889 2.67222 32.7518 2.64378 32.996 2.4066C33.219 2.19052 33.2605 2.09982 33.2675 1.84898C33.2675 1.68852 33.2188 1.45767 33.163 1.34605C33.107 1.2275 32.9325 1.07408 32.7792 0.997416C32.6258 0.920769 32.4446 0.864603 32.3749 0.864603C32.3121 0.871585 32.1795 0.892646 32.0888 0.906596Z" fill="#97A483"/>
</svg>
