<svg width="24" height="10" viewBox="-1 0 24 10" fill="none" xmlns="http://www.w3.org/2000/svg">
<path fill-rule="evenodd" clip-rule="evenodd" d="M22 4.83206V5.21093C19.8522 5.67738 18.2929 7.84973 17.6519 10.0078C17.6515 10.0092 17.3876 9.91899 17.3798 9.91634C17.3719 9.91368 17.3885 9.91769 17.389 9.91604C17.8747 8.26513 18.4082 6.43638 19.7551 5.24591C16.3174 5.32616 13.9616 5.4538 11.1196 5.46826L11.1189 5.46826C7.81789 5.48505 4.51954 5.50184 0.292564 5.62154L0 5.62983V4.39053L19.7551 4.76972C18.4082 3.57924 17.8787 1.76866 17.389 0.0995945C17.389 0.0995945 17.1078 0.191892 17.3797 0.0998956C17.6517 0.00789927 17.6516 0.0078125 17.6516 0.0078125C18.287 2.17014 19.8518 4.36553 22 4.83206Z" fill="#97A483"/>
</svg>
