<svg width="24" height="13" viewBox="-4.5 0 24 13" fill="none" xmlns="http://www.w3.org/2000/svg">
<path fill-rule="evenodd" clip-rule="evenodd" d="M0.571533 6.67132C0.571533 6.22047 0.951292 5.85499 1.41975 5.85499H11.247L7.60568 2.35059C7.27443 2.03179 7.27443 1.51492 7.60568 1.19613C7.93693 0.877332 8.47399 0.877332 8.80524 1.19613L13.8945 6.09409C14.2258 6.41288 14.2258 6.92975 13.8945 7.24855L8.80524 12.1465C8.47399 12.4653 7.93693 12.4653 7.60568 12.1465C7.27443 11.8277 7.27443 11.3108 7.60568 10.992L11.247 7.48764H1.41975C0.951292 7.48764 0.571533 7.12216 0.571533 6.67132Z" fill="#345E40"/>
<path fill-rule="evenodd" clip-rule="evenodd" d="M0.571533 6.67132C0.571533 6.22047 0.951292 5.85499 1.41975 5.85499H11.247L7.60568 2.35059C7.27443 2.03179 7.27443 1.51492 7.60568 1.19613C7.93693 0.877332 8.47399 0.877332 8.80524 1.19613L13.8945 6.09409C14.2258 6.41288 14.2258 6.92975 13.8945 7.24855L8.80524 12.1465C8.47399 12.4653 7.93693 12.4653 7.60568 12.1465C7.27443 11.8277 7.27443 11.3108 7.60568 10.992L11.247 7.48764H1.41975C0.951292 7.48764 0.571533 7.12216 0.571533 6.67132Z" fill="black" fill-opacity="0.2"/>
<path fill-rule="evenodd" clip-rule="evenodd" d="M0.571533 6.67132C0.571533 6.22047 0.951292 5.85499 1.41975 5.85499H11.247L7.60568 2.35059C7.27443 2.03179 7.27443 1.51492 7.60568 1.19613C7.93693 0.877332 8.47399 0.877332 8.80524 1.19613L13.8945 6.09409C14.2258 6.41288 14.2258 6.92975 13.8945 7.24855L8.80524 12.1465C8.47399 12.4653 7.93693 12.4653 7.60568 12.1465C7.27443 11.8277 7.27443 11.3108 7.60568 10.992L11.247 7.48764H1.41975C0.951292 7.48764 0.571533 7.12216 0.571533 6.67132Z" fill="black" fill-opacity="0.2"/>
<path fill-rule="evenodd" clip-rule="evenodd" d="M0.571533 6.67132C0.571533 6.22047 0.951292 5.85499 1.41975 5.85499H11.247L7.60568 2.35059C7.27443 2.03179 7.27443 1.51492 7.60568 1.19613C7.93693 0.877332 8.47399 0.877332 8.80524 1.19613L13.8945 6.09409C14.2258 6.41288 14.2258 6.92975 13.8945 7.24855L8.80524 12.1465C8.47399 12.4653 7.93693 12.4653 7.60568 12.1465C7.27443 11.8277 7.27443 11.3108 7.60568 10.992L11.247 7.48764H1.41975C0.951292 7.48764 0.571533 7.12216 0.571533 6.67132Z" fill="black" fill-opacity="0.2"/>
<path fill-rule="evenodd" clip-rule="evenodd" d="M0.571533 6.67132C0.571533 6.22047 0.951292 5.85499 1.41975 5.85499H11.247L7.60568 2.35059C7.27443 2.03179 7.27443 1.51492 7.60568 1.19613C7.93693 0.877332 8.47399 0.877332 8.80524 1.19613L13.8945 6.09409C14.2258 6.41288 14.2258 6.92975 13.8945 7.24855L8.80524 12.1465C8.47399 12.4653 7.93693 12.4653 7.60568 12.1465C7.27443 11.8277 7.27443 11.3108 7.60568 10.992L11.247 7.48764H1.41975C0.951292 7.48764 0.571533 7.12216 0.571533 6.67132Z" fill="black" fill-opacity="0.2"/>
</svg>
