<svg width="31" height="30" viewBox="0 0 31 30" fill="none" xmlns="http://www.w3.org/2000/svg">
<rect x="0.5" width="30" height="30" rx="1" fill="white"/>
<path d="M21.6545 11.2442L20.564 10.2093C20.417 10.0698 20.2332 10 20.0249 10C19.8166 10 19.6328 10.0698 19.4858 10.2093L14.2417 15.186L11.9015 12.9535C11.7545 12.814 11.5707 12.7442 11.3624 12.7442C11.1541 12.7442 10.9703 12.814 10.8233 12.9535L9.7328 13.9884C9.57351 14.1279 9.5 14.3023 9.5 14.5C9.5 14.6977 9.57351 14.8721 9.72054 15.0116L12.6121 17.7558L13.7026 18.7907C13.8496 18.9302 14.0334 19 14.2417 19C14.45 19 14.6338 18.9302 14.7808 18.7907L15.8713 17.7558L21.6545 12.2674C21.8015 12.1279 21.875 11.9535 21.875 11.7558C21.875 11.5581 21.8015 11.3837 21.6545 11.2442Z" fill="#252324"/>
</svg>
