<svg width="26" height="22" viewBox="0 0 26 22" fill="none" xmlns="http://www.w3.org/2000/svg">
<path d="M20.3839 10.0769H3.76855V4.07686C3.77038 3.46538 4.0141 2.87947 4.44648 2.44709C4.87886 2.01471 5.46477 1.77099 6.07625 1.76917H19.9224C20.5339 1.77099 21.1198 2.01471 21.5522 2.44709C21.9845 2.87947 22.2283 3.46538 22.2301 4.07686V10.0769H20.3839Z" stroke="#345E40" stroke-width="2" stroke-linecap="round" stroke-linejoin="round"/>
<path d="M20.3839 10.0769H3.76855V4.07686C3.77038 3.46538 4.0141 2.87947 4.44648 2.44709C4.87886 2.01471 5.46477 1.77099 6.07625 1.76917H19.9224C20.5339 1.77099 21.1198 2.01471 21.5522 2.44709C21.9845 2.87947 22.2283 3.46538 22.2301 4.07686V10.0769H20.3839Z" stroke="black" stroke-opacity="0.2" stroke-width="2" stroke-linecap="round" stroke-linejoin="round"/>
<path d="M20.3839 10.0769H3.76855V4.07686C3.77038 3.46538 4.0141 2.87947 4.44648 2.44709C4.87886 2.01471 5.46477 1.77099 6.07625 1.76917H19.9224C20.5339 1.77099 21.1198 2.01471 21.5522 2.44709C21.9845 2.87947 22.2283 3.46538 22.2301 4.07686V10.0769H20.3839Z" stroke="black" stroke-opacity="0.2" stroke-width="2" stroke-linecap="round" stroke-linejoin="round"/>
<path d="M20.3839 10.0769H3.76855V4.07686C3.77038 3.46538 4.0141 2.87947 4.44648 2.44709C4.87886 2.01471 5.46477 1.77099 6.07625 1.76917H19.9224C20.5339 1.77099 21.1198 2.01471 21.5522 2.44709C21.9845 2.87947 22.2283 3.46538 22.2301 4.07686V10.0769H20.3839Z" stroke="black" stroke-opacity="0.2" stroke-width="2" stroke-linecap="round" stroke-linejoin="round"/>
<path d="M20.3839 10.0769H3.76855V4.07686C3.77038 3.46538 4.0141 2.87947 4.44648 2.44709C4.87886 2.01471 5.46477 1.77099 6.07625 1.76917H19.9224C20.5339 1.77099 21.1198 2.01471 21.5522 2.44709C21.9845 2.87947 22.2283 3.46538 22.2301 4.07686V10.0769H20.3839Z" stroke="black" stroke-opacity="0.2" stroke-width="2" stroke-linecap="round" stroke-linejoin="round"/>
<path d="M1 20.2308V13.7692C1.00289 12.7908 1.39283 11.8534 2.08465 11.1616C2.77646 10.4697 3.71394 10.0798 4.69231 10.0769H21.3077C22.2861 10.0798 23.2235 10.4697 23.9154 11.1616C24.6072 11.8534 24.9971 12.7908 25 13.7692V20.2308" stroke="#345E40" stroke-width="2" stroke-linecap="round" stroke-linejoin="round"/>
<path d="M1 20.2308V13.7692C1.00289 12.7908 1.39283 11.8534 2.08465 11.1616C2.77646 10.4697 3.71394 10.0798 4.69231 10.0769H21.3077C22.2861 10.0798 23.2235 10.4697 23.9154 11.1616C24.6072 11.8534 24.9971 12.7908 25 13.7692V20.2308" stroke="black" stroke-opacity="0.2" stroke-width="2" stroke-linecap="round" stroke-linejoin="round"/>
<path d="M1 20.2308V13.7692C1.00289 12.7908 1.39283 11.8534 2.08465 11.1616C2.77646 10.4697 3.71394 10.0798 4.69231 10.0769H21.3077C22.2861 10.0798 23.2235 10.4697 23.9154 11.1616C24.6072 11.8534 24.9971 12.7908 25 13.7692V20.2308" stroke="black" stroke-opacity="0.2" stroke-width="2" stroke-linecap="round" stroke-linejoin="round"/>
<path d="M1 20.2308V13.7692C1.00289 12.7908 1.39283 11.8534 2.08465 11.1616C2.77646 10.4697 3.71394 10.0798 4.69231 10.0769H21.3077C22.2861 10.0798 23.2235 10.4697 23.9154 11.1616C24.6072 11.8534 24.9971 12.7908 25 13.7692V20.2308" stroke="black" stroke-opacity="0.2" stroke-width="2" stroke-linecap="round" stroke-linejoin="round"/>
<path d="M1 20.2308V13.7692C1.00289 12.7908 1.39283 11.8534 2.08465 11.1616C2.77646 10.4697 3.71394 10.0798 4.69231 10.0769H21.3077C22.2861 10.0798 23.2235 10.4697 23.9154 11.1616C24.6072 11.8534 24.9971 12.7908 25 13.7692V20.2308" stroke="black" stroke-opacity="0.2" stroke-width="2" stroke-linecap="round" stroke-linejoin="round"/>
<path d="M1 20.2306V19.769C1.00107 19.4021 1.14729 19.0506 1.40672 18.7911C1.66616 18.5317 2.01772 18.3855 2.38462 18.3844H23.6154C23.9823 18.3855 24.3338 18.5317 24.5933 18.7911C24.8527 19.0506 24.9989 19.4021 25 19.769V20.2306" stroke="#345E40" stroke-width="2" stroke-linecap="round" stroke-linejoin="round"/>
<path d="M1 20.2306V19.769C1.00107 19.4021 1.14729 19.0506 1.40672 18.7911C1.66616 18.5317 2.01772 18.3855 2.38462 18.3844H23.6154C23.9823 18.3855 24.3338 18.5317 24.5933 18.7911C24.8527 19.0506 24.9989 19.4021 25 19.769V20.2306" stroke="black" stroke-opacity="0.2" stroke-width="2" stroke-linecap="round" stroke-linejoin="round"/>
<path d="M1 20.2306V19.769C1.00107 19.4021 1.14729 19.0506 1.40672 18.7911C1.66616 18.5317 2.01772 18.3855 2.38462 18.3844H23.6154C23.9823 18.3855 24.3338 18.5317 24.5933 18.7911C24.8527 19.0506 24.9989 19.4021 25 19.769V20.2306" stroke="black" stroke-opacity="0.2" stroke-width="2" stroke-linecap="round" stroke-linejoin="round"/>
<path d="M1 20.2306V19.769C1.00107 19.4021 1.14729 19.0506 1.40672 18.7911C1.66616 18.5317 2.01772 18.3855 2.38462 18.3844H23.6154C23.9823 18.3855 24.3338 18.5317 24.5933 18.7911C24.8527 19.0506 24.9989 19.4021 25 19.769V20.2306" stroke="black" stroke-opacity="0.2" stroke-width="2" stroke-linecap="round" stroke-linejoin="round"/>
<path d="M1 20.2306V19.769C1.00107 19.4021 1.14729 19.0506 1.40672 18.7911C1.66616 18.5317 2.01772 18.3855 2.38462 18.3844H23.6154C23.9823 18.3855 24.3338 18.5317 24.5933 18.7911C24.8527 19.0506 24.9989 19.4021 25 19.769V20.2306" stroke="black" stroke-opacity="0.2" stroke-width="2" stroke-linecap="round" stroke-linejoin="round"/>
<path d="M4.69141 10.077V9.15389C4.69278 8.66468 4.88772 8.1959 5.23365 7.84998C5.57957 7.50405 6.04835 7.30911 6.53756 7.30774H11.1529C11.6422 7.30911 12.1109 7.50405 12.4569 7.84998C12.8028 8.1959 12.9977 8.66468 12.9991 9.15389V10.077" stroke="#345E40" stroke-width="2" stroke-linecap="round" stroke-linejoin="round"/>
<path d="M4.69141 10.077V9.15389C4.69278 8.66468 4.88772 8.1959 5.23365 7.84998C5.57957 7.50405 6.04835 7.30911 6.53756 7.30774H11.1529C11.6422 7.30911 12.1109 7.50405 12.4569 7.84998C12.8028 8.1959 12.9977 8.66468 12.9991 9.15389V10.077" stroke="black" stroke-opacity="0.2" stroke-width="2" stroke-linecap="round" stroke-linejoin="round"/>
<path d="M4.69141 10.077V9.15389C4.69278 8.66468 4.88772 8.1959 5.23365 7.84998C5.57957 7.50405 6.04835 7.30911 6.53756 7.30774H11.1529C11.6422 7.30911 12.1109 7.50405 12.4569 7.84998C12.8028 8.1959 12.9977 8.66468 12.9991 9.15389V10.077" stroke="black" stroke-opacity="0.2" stroke-width="2" stroke-linecap="round" stroke-linejoin="round"/>
<path d="M4.69141 10.077V9.15389C4.69278 8.66468 4.88772 8.1959 5.23365 7.84998C5.57957 7.50405 6.04835 7.30911 6.53756 7.30774H11.1529C11.6422 7.30911 12.1109 7.50405 12.4569 7.84998C12.8028 8.1959 12.9977 8.66468 12.9991 9.15389V10.077" stroke="black" stroke-opacity="0.2" stroke-width="2" stroke-linecap="round" stroke-linejoin="round"/>
<path d="M4.69141 10.077V9.15389C4.69278 8.66468 4.88772 8.1959 5.23365 7.84998C5.57957 7.50405 6.04835 7.30911 6.53756 7.30774H11.1529C11.6422 7.30911 12.1109 7.50405 12.4569 7.84998C12.8028 8.1959 12.9977 8.66468 12.9991 9.15389V10.077" stroke="black" stroke-opacity="0.2" stroke-width="2" stroke-linecap="round" stroke-linejoin="round"/>
<path d="M12.999 10.077V9.15389C13.0004 8.66468 13.1953 8.1959 13.5413 7.84998C13.8872 7.50405 14.356 7.30911 14.8452 7.30774H19.4606C19.9498 7.30911 20.4186 7.50405 20.7645 7.84998C21.1104 8.1959 21.3053 8.66468 21.3067 9.15389V10.077" stroke="#345E40" stroke-width="2" stroke-linecap="round" stroke-linejoin="round"/>
<path d="M12.999 10.077V9.15389C13.0004 8.66468 13.1953 8.1959 13.5413 7.84998C13.8872 7.50405 14.356 7.30911 14.8452 7.30774H19.4606C19.9498 7.30911 20.4186 7.50405 20.7645 7.84998C21.1104 8.1959 21.3053 8.66468 21.3067 9.15389V10.077" stroke="black" stroke-opacity="0.2" stroke-width="2" stroke-linecap="round" stroke-linejoin="round"/>
<path d="M12.999 10.077V9.15389C13.0004 8.66468 13.1953 8.1959 13.5413 7.84998C13.8872 7.50405 14.356 7.30911 14.8452 7.30774H19.4606C19.9498 7.30911 20.4186 7.50405 20.7645 7.84998C21.1104 8.1959 21.3053 8.66468 21.3067 9.15389V10.077" stroke="black" stroke-opacity="0.2" stroke-width="2" stroke-linecap="round" stroke-linejoin="round"/>
<path d="M12.999 10.077V9.15389C13.0004 8.66468 13.1953 8.1959 13.5413 7.84998C13.8872 7.50405 14.356 7.30911 14.8452 7.30774H19.4606C19.9498 7.30911 20.4186 7.50405 20.7645 7.84998C21.1104 8.1959 21.3053 8.66468 21.3067 9.15389V10.077" stroke="black" stroke-opacity="0.2" stroke-width="2" stroke-linecap="round" stroke-linejoin="round"/>
<path d="M12.999 10.077V9.15389C13.0004 8.66468 13.1953 8.1959 13.5413 7.84998C13.8872 7.50405 14.356 7.30911 14.8452 7.30774H19.4606C19.9498 7.30911 20.4186 7.50405 20.7645 7.84998C21.1104 8.1959 21.3053 8.66468 21.3067 9.15389V10.077" stroke="black" stroke-opacity="0.2" stroke-width="2" stroke-linecap="round" stroke-linejoin="round"/>
</svg>
