<svg width="18" height="24" viewBox="0 0 18 24" fill="none" xmlns="http://www.w3.org/2000/svg">
<path d="M12.5 10.75C12.5 10.3358 12.1642 10 11.75 10C11.3358 10 11 10.3358 11 10.75V13.25C11 13.6642 11.3358 14 11.75 14C12.1642 14 12.5 13.6642 12.5 13.25V10.75Z" fill="#345E40"/>
<path d="M12.5 10.75C12.5 10.3358 12.1642 10 11.75 10C11.3358 10 11 10.3358 11 10.75V13.25C11 13.6642 11.3358 14 11.75 14C12.1642 14 12.5 13.6642 12.5 13.25V10.75Z" fill="black" fill-opacity="0.2"/>
<path d="M12.5 10.75C12.5 10.3358 12.1642 10 11.75 10C11.3358 10 11 10.3358 11 10.75V13.25C11 13.6642 11.3358 14 11.75 14C12.1642 14 12.5 13.6642 12.5 13.25V10.75Z" fill="black" fill-opacity="0.2"/>
<path d="M12.5 10.75C12.5 10.3358 12.1642 10 11.75 10C11.3358 10 11 10.3358 11 10.75V13.25C11 13.6642 11.3358 14 11.75 14C12.1642 14 12.5 13.6642 12.5 13.25V10.75Z" fill="black" fill-opacity="0.2"/>
<path d="M12.5 10.75C12.5 10.3358 12.1642 10 11.75 10C11.3358 10 11 10.3358 11 10.75V13.25C11 13.6642 11.3358 14 11.75 14C12.1642 14 12.5 13.6642 12.5 13.25V10.75Z" fill="black" fill-opacity="0.2"/>
<path d="M0 3C0 1.34314 1.34315 0 3 0H15C16.6569 0 18 1.34315 18 3V21C18 22.6569 16.6569 24 15 24H3C1.34315 24 0 22.6569 0 21V3ZM3 2C2.44771 2 2 2.44772 2 3V21C2 21.5523 2.44772 22 3 22H8V2H3ZM16 21V3C16 2.44772 15.5523 2 15 2H10V22H15C15.5523 22 16 21.5523 16 21Z" fill="#345E40"/>
<path d="M0 3C0 1.34314 1.34315 0 3 0H15C16.6569 0 18 1.34315 18 3V21C18 22.6569 16.6569 24 15 24H3C1.34315 24 0 22.6569 0 21V3ZM3 2C2.44771 2 2 2.44772 2 3V21C2 21.5523 2.44772 22 3 22H8V2H3ZM16 21V3C16 2.44772 15.5523 2 15 2H10V22H15C15.5523 22 16 21.5523 16 21Z" fill="black" fill-opacity="0.2"/>
<path d="M0 3C0 1.34314 1.34315 0 3 0H15C16.6569 0 18 1.34315 18 3V21C18 22.6569 16.6569 24 15 24H3C1.34315 24 0 22.6569 0 21V3ZM3 2C2.44771 2 2 2.44772 2 3V21C2 21.5523 2.44772 22 3 22H8V2H3ZM16 21V3C16 2.44772 15.5523 2 15 2H10V22H15C15.5523 22 16 21.5523 16 21Z" fill="black" fill-opacity="0.2"/>
<path d="M0 3C0 1.34314 1.34315 0 3 0H15C16.6569 0 18 1.34315 18 3V21C18 22.6569 16.6569 24 15 24H3C1.34315 24 0 22.6569 0 21V3ZM3 2C2.44771 2 2 2.44772 2 3V21C2 21.5523 2.44772 22 3 22H8V2H3ZM16 21V3C16 2.44772 15.5523 2 15 2H10V22H15C15.5523 22 16 21.5523 16 21Z" fill="black" fill-opacity="0.2"/>
<path d="M0 3C0 1.34314 1.34315 0 3 0H15C16.6569 0 18 1.34315 18 3V21C18 22.6569 16.6569 24 15 24H3C1.34315 24 0 22.6569 0 21V3ZM3 2C2.44771 2 2 2.44772 2 3V21C2 21.5523 2.44772 22 3 22H8V2H3ZM16 21V3C16 2.44772 15.5523 2 15 2H10V22H15C15.5523 22 16 21.5523 16 21Z" fill="black" fill-opacity="0.2"/>
</svg>
