<svg width="18" height="24" viewBox="0 0 18 24" fill="none" xmlns="http://www.w3.org/2000/svg">
<path d="M7 3.5C7.27614 3.5 7.5 3.72386 7.5 4V4.5C7.5 4.77614 7.72386 5 8 5H10C10.2761 5 10.5 4.77614 10.5 4.5V4C10.5 3.72386 10.7239 3.5 11 3.5C11.2761 3.5 11.5 3.72386 11.5 4V4.5C11.5 5.32843 10.8284 6 10 6H8C7.17157 6 6.5 5.32843 6.5 4.5V4C6.5 3.72386 6.72386 3.5 7 3.5Z" fill="#345E40"/>
<path d="M7 3.5C7.27614 3.5 7.5 3.72386 7.5 4V4.5C7.5 4.77614 7.72386 5 8 5H10C10.2761 5 10.5 4.77614 10.5 4.5V4C10.5 3.72386 10.7239 3.5 11 3.5C11.2761 3.5 11.5 3.72386 11.5 4V4.5C11.5 5.32843 10.8284 6 10 6H8C7.17157 6 6.5 5.32843 6.5 4.5V4C6.5 3.72386 6.72386 3.5 7 3.5Z" fill="black" fill-opacity="0.2"/>
<path d="M7 3.5C7.27614 3.5 7.5 3.72386 7.5 4V4.5C7.5 4.77614 7.72386 5 8 5H10C10.2761 5 10.5 4.77614 10.5 4.5V4C10.5 3.72386 10.7239 3.5 11 3.5C11.2761 3.5 11.5 3.72386 11.5 4V4.5C11.5 5.32843 10.8284 6 10 6H8C7.17157 6 6.5 5.32843 6.5 4.5V4C6.5 3.72386 6.72386 3.5 7 3.5Z" fill="black" fill-opacity="0.2"/>
<path d="M7 3.5C7.27614 3.5 7.5 3.72386 7.5 4V4.5C7.5 4.77614 7.72386 5 8 5H10C10.2761 5 10.5 4.77614 10.5 4.5V4C10.5 3.72386 10.7239 3.5 11 3.5C11.2761 3.5 11.5 3.72386 11.5 4V4.5C11.5 5.32843 10.8284 6 10 6H8C7.17157 6 6.5 5.32843 6.5 4.5V4C6.5 3.72386 6.72386 3.5 7 3.5Z" fill="black" fill-opacity="0.2"/>
<path d="M7 3.5C7.27614 3.5 7.5 3.72386 7.5 4V4.5C7.5 4.77614 7.72386 5 8 5H10C10.2761 5 10.5 4.77614 10.5 4.5V4C10.5 3.72386 10.7239 3.5 11 3.5C11.2761 3.5 11.5 3.72386 11.5 4V4.5C11.5 5.32843 10.8284 6 10 6H8C7.17157 6 6.5 5.32843 6.5 4.5V4C6.5 3.72386 6.72386 3.5 7 3.5Z" fill="black" fill-opacity="0.2"/>
<path d="M7.5 15C7.5 14.7239 7.27614 14.5 7 14.5C6.72386 14.5 6.5 14.7239 6.5 15V15.5C6.5 16.3284 7.17157 17 8 17H10C10.8284 17 11.5 16.3284 11.5 15.5V15C11.5 14.7239 11.2761 14.5 11 14.5C10.7239 14.5 10.5 14.7239 10.5 15V15.5C10.5 15.7761 10.2761 16 10 16H8C7.72386 16 7.5 15.7761 7.5 15.5V15Z" fill="#345E40"/>
<path d="M7.5 15C7.5 14.7239 7.27614 14.5 7 14.5C6.72386 14.5 6.5 14.7239 6.5 15V15.5C6.5 16.3284 7.17157 17 8 17H10C10.8284 17 11.5 16.3284 11.5 15.5V15C11.5 14.7239 11.2761 14.5 11 14.5C10.7239 14.5 10.5 14.7239 10.5 15V15.5C10.5 15.7761 10.2761 16 10 16H8C7.72386 16 7.5 15.7761 7.5 15.5V15Z" fill="black" fill-opacity="0.2"/>
<path d="M7.5 15C7.5 14.7239 7.27614 14.5 7 14.5C6.72386 14.5 6.5 14.7239 6.5 15V15.5C6.5 16.3284 7.17157 17 8 17H10C10.8284 17 11.5 16.3284 11.5 15.5V15C11.5 14.7239 11.2761 14.5 11 14.5C10.7239 14.5 10.5 14.7239 10.5 15V15.5C10.5 15.7761 10.2761 16 10 16H8C7.72386 16 7.5 15.7761 7.5 15.5V15Z" fill="black" fill-opacity="0.2"/>
<path d="M7.5 15C7.5 14.7239 7.27614 14.5 7 14.5C6.72386 14.5 6.5 14.7239 6.5 15V15.5C6.5 16.3284 7.17157 17 8 17H10C10.8284 17 11.5 16.3284 11.5 15.5V15C11.5 14.7239 11.2761 14.5 11 14.5C10.7239 14.5 10.5 14.7239 10.5 15V15.5C10.5 15.7761 10.2761 16 10 16H8C7.72386 16 7.5 15.7761 7.5 15.5V15Z" fill="black" fill-opacity="0.2"/>
<path d="M7.5 15C7.5 14.7239 7.27614 14.5 7 14.5C6.72386 14.5 6.5 14.7239 6.5 15V15.5C6.5 16.3284 7.17157 17 8 17H10C10.8284 17 11.5 16.3284 11.5 15.5V15C11.5 14.7239 11.2761 14.5 11 14.5C10.7239 14.5 10.5 14.7239 10.5 15V15.5C10.5 15.7761 10.2761 16 10 16H8C7.72386 16 7.5 15.7761 7.5 15.5V15Z" fill="black" fill-opacity="0.2"/>
<path d="M0 3C0 1.34315 1.34315 0 3 0H15C16.6569 0 18 1.34315 18 3V21C18 22.6569 16.6569 24 15 24H3C1.34315 24 0 22.6569 0 21V3ZM3 2C2.44772 2 2 2.44772 2 3V11H16V3C16 2.44772 15.5523 2 15 2H3ZM16 13H2V21C2 21.5523 2.44772 22 3 22H15C15.5523 22 16 21.5523 16 21V13Z" fill="#345E40"/>
<path d="M0 3C0 1.34315 1.34315 0 3 0H15C16.6569 0 18 1.34315 18 3V21C18 22.6569 16.6569 24 15 24H3C1.34315 24 0 22.6569 0 21V3ZM3 2C2.44772 2 2 2.44772 2 3V11H16V3C16 2.44772 15.5523 2 15 2H3ZM16 13H2V21C2 21.5523 2.44772 22 3 22H15C15.5523 22 16 21.5523 16 21V13Z" fill="black" fill-opacity="0.2"/>
<path d="M0 3C0 1.34315 1.34315 0 3 0H15C16.6569 0 18 1.34315 18 3V21C18 22.6569 16.6569 24 15 24H3C1.34315 24 0 22.6569 0 21V3ZM3 2C2.44772 2 2 2.44772 2 3V11H16V3C16 2.44772 15.5523 2 15 2H3ZM16 13H2V21C2 21.5523 2.44772 22 3 22H15C15.5523 22 16 21.5523 16 21V13Z" fill="black" fill-opacity="0.2"/>
<path d="M0 3C0 1.34315 1.34315 0 3 0H15C16.6569 0 18 1.34315 18 3V21C18 22.6569 16.6569 24 15 24H3C1.34315 24 0 22.6569 0 21V3ZM3 2C2.44772 2 2 2.44772 2 3V11H16V3C16 2.44772 15.5523 2 15 2H3ZM16 13H2V21C2 21.5523 2.44772 22 3 22H15C15.5523 22 16 21.5523 16 21V13Z" fill="black" fill-opacity="0.2"/>
<path d="M0 3C0 1.34315 1.34315 0 3 0H15C16.6569 0 18 1.34315 18 3V21C18 22.6569 16.6569 24 15 24H3C1.34315 24 0 22.6569 0 21V3ZM3 2C2.44772 2 2 2.44772 2 3V11H16V3C16 2.44772 15.5523 2 15 2H3ZM16 13H2V21C2 21.5523 2.44772 22 3 22H15C15.5523 22 16 21.5523 16 21V13Z" fill="black" fill-opacity="0.2"/>
</svg>
