<svg width="24" height="14" viewBox="0 0 24 14" fill="none" xmlns="http://www.w3.org/2000/svg">
<g clip-path="url(#clip0_1015_1848)">
<path d="M2.36663 4.74591H3.67798V2.12322C3.67798 1.73524 3.93405 1.48694 4.29874 1.48694H10.7236C11.096 1.48694 11.3443 1.73524 11.3443 2.12322V8.28424H12.6557V2.11545C12.6557 0.951538 11.903 0.18335 10.7857 0.18335H4.24442C3.1193 0.18335 2.36663 0.951538 2.36663 2.11545V4.74591ZM21.8041 4.74591V2.11545C21.8041 0.951538 21.0514 0.18335 19.9263 0.18335H13.2143C12.097 0.18335 11.3443 0.951538 11.3443 2.11545V8.28424H12.6557V2.12322C12.6557 1.73524 12.904 1.48694 13.2764 1.48694H19.872C20.2367 1.48694 20.4927 1.73524 20.4927 2.12322V4.74591H21.8041ZM0 10.3638C0 11.4811 0.737147 12.2183 1.83899 12.2183H22.161C23.2628 12.2183 24 11.4811 24 10.3638V5.64601C24 4.53641 23.2628 3.7915 22.161 3.7915H21.0902C19.9961 3.7915 19.2589 4.53641 19.2589 5.64601V7.50828H4.74879V5.64601C4.74879 4.53641 4.00388 3.7915 2.90979 3.7915H1.83899C0.737147 3.7915 0 4.53641 0 5.64601V10.3638ZM1.31911 10.3483V5.66153C1.31911 5.32011 1.55189 5.09509 1.90106 5.09509H2.83996C3.19689 5.09509 3.42968 5.32011 3.42968 5.66153V8.81183H20.5703V5.66153C20.5703 5.32011 20.8109 5.09509 21.16 5.09509H22.0989C22.4481 5.09509 22.6886 5.32011 22.6886 5.66153V10.3483C22.6886 10.6897 22.4481 10.9147 22.0989 10.9147H1.90106C1.55189 10.9147 1.31911 10.6897 1.31911 10.3483ZM2.82444 13.8012H3.30553C3.72454 13.8012 3.99612 13.5374 3.99612 13.1184V11.4734H2.13385V13.1184C2.13385 13.5374 2.40543 13.8012 2.82444 13.8012ZM20.6945 13.8012H21.1756C21.5946 13.8012 21.8661 13.5374 21.8661 13.1184V11.4734H20.0039V13.1184C20.0039 13.5374 20.2832 13.8012 20.6945 13.8012Z" fill="#345E40"/>
<path d="M2.36663 4.74591H3.67798V2.12322C3.67798 1.73524 3.93405 1.48694 4.29874 1.48694H10.7236C11.096 1.48694 11.3443 1.73524 11.3443 2.12322V8.28424H12.6557V2.11545C12.6557 0.951538 11.903 0.18335 10.7857 0.18335H4.24442C3.1193 0.18335 2.36663 0.951538 2.36663 2.11545V4.74591ZM21.8041 4.74591V2.11545C21.8041 0.951538 21.0514 0.18335 19.9263 0.18335H13.2143C12.097 0.18335 11.3443 0.951538 11.3443 2.11545V8.28424H12.6557V2.12322C12.6557 1.73524 12.904 1.48694 13.2764 1.48694H19.872C20.2367 1.48694 20.4927 1.73524 20.4927 2.12322V4.74591H21.8041ZM0 10.3638C0 11.4811 0.737147 12.2183 1.83899 12.2183H22.161C23.2628 12.2183 24 11.4811 24 10.3638V5.64601C24 4.53641 23.2628 3.7915 22.161 3.7915H21.0902C19.9961 3.7915 19.2589 4.53641 19.2589 5.64601V7.50828H4.74879V5.64601C4.74879 4.53641 4.00388 3.7915 2.90979 3.7915H1.83899C0.737147 3.7915 0 4.53641 0 5.64601V10.3638ZM1.31911 10.3483V5.66153C1.31911 5.32011 1.55189 5.09509 1.90106 5.09509H2.83996C3.19689 5.09509 3.42968 5.32011 3.42968 5.66153V8.81183H20.5703V5.66153C20.5703 5.32011 20.8109 5.09509 21.16 5.09509H22.0989C22.4481 5.09509 22.6886 5.32011 22.6886 5.66153V10.3483C22.6886 10.6897 22.4481 10.9147 22.0989 10.9147H1.90106C1.55189 10.9147 1.31911 10.6897 1.31911 10.3483ZM2.82444 13.8012H3.30553C3.72454 13.8012 3.99612 13.5374 3.99612 13.1184V11.4734H2.13385V13.1184C2.13385 13.5374 2.40543 13.8012 2.82444 13.8012ZM20.6945 13.8012H21.1756C21.5946 13.8012 21.8661 13.5374 21.8661 13.1184V11.4734H20.0039V13.1184C20.0039 13.5374 20.2832 13.8012 20.6945 13.8012Z" fill="black" fill-opacity="0.2"/>
<path d="M2.36663 4.74591H3.67798V2.12322C3.67798 1.73524 3.93405 1.48694 4.29874 1.48694H10.7236C11.096 1.48694 11.3443 1.73524 11.3443 2.12322V8.28424H12.6557V2.11545C12.6557 0.951538 11.903 0.18335 10.7857 0.18335H4.24442C3.1193 0.18335 2.36663 0.951538 2.36663 2.11545V4.74591ZM21.8041 4.74591V2.11545C21.8041 0.951538 21.0514 0.18335 19.9263 0.18335H13.2143C12.097 0.18335 11.3443 0.951538 11.3443 2.11545V8.28424H12.6557V2.12322C12.6557 1.73524 12.904 1.48694 13.2764 1.48694H19.872C20.2367 1.48694 20.4927 1.73524 20.4927 2.12322V4.74591H21.8041ZM0 10.3638C0 11.4811 0.737147 12.2183 1.83899 12.2183H22.161C23.2628 12.2183 24 11.4811 24 10.3638V5.64601C24 4.53641 23.2628 3.7915 22.161 3.7915H21.0902C19.9961 3.7915 19.2589 4.53641 19.2589 5.64601V7.50828H4.74879V5.64601C4.74879 4.53641 4.00388 3.7915 2.90979 3.7915H1.83899C0.737147 3.7915 0 4.53641 0 5.64601V10.3638ZM1.31911 10.3483V5.66153C1.31911 5.32011 1.55189 5.09509 1.90106 5.09509H2.83996C3.19689 5.09509 3.42968 5.32011 3.42968 5.66153V8.81183H20.5703V5.66153C20.5703 5.32011 20.8109 5.09509 21.16 5.09509H22.0989C22.4481 5.09509 22.6886 5.32011 22.6886 5.66153V10.3483C22.6886 10.6897 22.4481 10.9147 22.0989 10.9147H1.90106C1.55189 10.9147 1.31911 10.6897 1.31911 10.3483ZM2.82444 13.8012H3.30553C3.72454 13.8012 3.99612 13.5374 3.99612 13.1184V11.4734H2.13385V13.1184C2.13385 13.5374 2.40543 13.8012 2.82444 13.8012ZM20.6945 13.8012H21.1756C21.5946 13.8012 21.8661 13.5374 21.8661 13.1184V11.4734H20.0039V13.1184C20.0039 13.5374 20.2832 13.8012 20.6945 13.8012Z" fill="black" fill-opacity="0.2"/>
<path d="M2.36663 4.74591H3.67798V2.12322C3.67798 1.73524 3.93405 1.48694 4.29874 1.48694H10.7236C11.096 1.48694 11.3443 1.73524 11.3443 2.12322V8.28424H12.6557V2.11545C12.6557 0.951538 11.903 0.18335 10.7857 0.18335H4.24442C3.1193 0.18335 2.36663 0.951538 2.36663 2.11545V4.74591ZM21.8041 4.74591V2.11545C21.8041 0.951538 21.0514 0.18335 19.9263 0.18335H13.2143C12.097 0.18335 11.3443 0.951538 11.3443 2.11545V8.28424H12.6557V2.12322C12.6557 1.73524 12.904 1.48694 13.2764 1.48694H19.872C20.2367 1.48694 20.4927 1.73524 20.4927 2.12322V4.74591H21.8041ZM0 10.3638C0 11.4811 0.737147 12.2183 1.83899 12.2183H22.161C23.2628 12.2183 24 11.4811 24 10.3638V5.64601C24 4.53641 23.2628 3.7915 22.161 3.7915H21.0902C19.9961 3.7915 19.2589 4.53641 19.2589 5.64601V7.50828H4.74879V5.64601C4.74879 4.53641 4.00388 3.7915 2.90979 3.7915H1.83899C0.737147 3.7915 0 4.53641 0 5.64601V10.3638ZM1.31911 10.3483V5.66153C1.31911 5.32011 1.55189 5.09509 1.90106 5.09509H2.83996C3.19689 5.09509 3.42968 5.32011 3.42968 5.66153V8.81183H20.5703V5.66153C20.5703 5.32011 20.8109 5.09509 21.16 5.09509H22.0989C22.4481 5.09509 22.6886 5.32011 22.6886 5.66153V10.3483C22.6886 10.6897 22.4481 10.9147 22.0989 10.9147H1.90106C1.55189 10.9147 1.31911 10.6897 1.31911 10.3483ZM2.82444 13.8012H3.30553C3.72454 13.8012 3.99612 13.5374 3.99612 13.1184V11.4734H2.13385V13.1184C2.13385 13.5374 2.40543 13.8012 2.82444 13.8012ZM20.6945 13.8012H21.1756C21.5946 13.8012 21.8661 13.5374 21.8661 13.1184V11.4734H20.0039V13.1184C20.0039 13.5374 20.2832 13.8012 20.6945 13.8012Z" fill="black" fill-opacity="0.2"/>
<path d="M2.36663 4.74591H3.67798V2.12322C3.67798 1.73524 3.93405 1.48694 4.29874 1.48694H10.7236C11.096 1.48694 11.3443 1.73524 11.3443 2.12322V8.28424H12.6557V2.11545C12.6557 0.951538 11.903 0.18335 10.7857 0.18335H4.24442C3.1193 0.18335 2.36663 0.951538 2.36663 2.11545V4.74591ZM21.8041 4.74591V2.11545C21.8041 0.951538 21.0514 0.18335 19.9263 0.18335H13.2143C12.097 0.18335 11.3443 0.951538 11.3443 2.11545V8.28424H12.6557V2.12322C12.6557 1.73524 12.904 1.48694 13.2764 1.48694H19.872C20.2367 1.48694 20.4927 1.73524 20.4927 2.12322V4.74591H21.8041ZM0 10.3638C0 11.4811 0.737147 12.2183 1.83899 12.2183H22.161C23.2628 12.2183 24 11.4811 24 10.3638V5.64601C24 4.53641 23.2628 3.7915 22.161 3.7915H21.0902C19.9961 3.7915 19.2589 4.53641 19.2589 5.64601V7.50828H4.74879V5.64601C4.74879 4.53641 4.00388 3.7915 2.90979 3.7915H1.83899C0.737147 3.7915 0 4.53641 0 5.64601V10.3638ZM1.31911 10.3483V5.66153C1.31911 5.32011 1.55189 5.09509 1.90106 5.09509H2.83996C3.19689 5.09509 3.42968 5.32011 3.42968 5.66153V8.81183H20.5703V5.66153C20.5703 5.32011 20.8109 5.09509 21.16 5.09509H22.0989C22.4481 5.09509 22.6886 5.32011 22.6886 5.66153V10.3483C22.6886 10.6897 22.4481 10.9147 22.0989 10.9147H1.90106C1.55189 10.9147 1.31911 10.6897 1.31911 10.3483ZM2.82444 13.8012H3.30553C3.72454 13.8012 3.99612 13.5374 3.99612 13.1184V11.4734H2.13385V13.1184C2.13385 13.5374 2.40543 13.8012 2.82444 13.8012ZM20.6945 13.8012H21.1756C21.5946 13.8012 21.8661 13.5374 21.8661 13.1184V11.4734H20.0039V13.1184C20.0039 13.5374 20.2832 13.8012 20.6945 13.8012Z" fill="black" fill-opacity="0.2"/>
</g>
<defs>
<clipPath id="clip0_1015_1848">
<rect width="24" height="13.6333" fill="white" transform="translate(0 0.18335)"/>
</clipPath>
</defs>
</svg>
