<svg width="24" height="24" viewBox="0 0 24 24" fill="none" xmlns="http://www.w3.org/2000/svg">
<path d="M20.952 18.3673H3.31934V21.7959H20.952V18.3673Z" stroke="#345E40" stroke-width="1.95918" stroke-linecap="round" stroke-linejoin="round"/>
<path d="M20.952 18.3673H3.31934V21.7959H20.952V18.3673Z" stroke="black" stroke-opacity="0.2" stroke-width="1.95918" stroke-linecap="round" stroke-linejoin="round"/>
<path d="M20.952 18.3673H3.31934V21.7959H20.952V18.3673Z" stroke="black" stroke-opacity="0.2" stroke-width="1.95918" stroke-linecap="round" stroke-linejoin="round"/>
<path d="M20.952 18.3673H3.31934V21.7959H20.952V18.3673Z" stroke="black" stroke-opacity="0.2" stroke-width="1.95918" stroke-linecap="round" stroke-linejoin="round"/>
<path d="M20.952 18.3673H3.31934V21.7959H20.952V18.3673Z" stroke="black" stroke-opacity="0.2" stroke-width="1.95918" stroke-linecap="round" stroke-linejoin="round"/>
<path d="M18.9929 17.8775L18.0133 5.14282H2.33984L5.55583 8.84044C5.81488 9.13828 5.94321 9.52782 5.91186 9.92132L5.2786 17.8775" stroke="#345E40" stroke-width="1.95918" stroke-linecap="round" stroke-linejoin="round"/>
<path d="M18.9929 17.8775L18.0133 5.14282H2.33984L5.55583 8.84044C5.81488 9.13828 5.94321 9.52782 5.91186 9.92132L5.2786 17.8775" stroke="black" stroke-opacity="0.2" stroke-width="1.95918" stroke-linecap="round" stroke-linejoin="round"/>
<path d="M18.9929 17.8775L18.0133 5.14282H2.33984L5.55583 8.84044C5.81488 9.13828 5.94321 9.52782 5.91186 9.92132L5.2786 17.8775" stroke="black" stroke-opacity="0.2" stroke-width="1.95918" stroke-linecap="round" stroke-linejoin="round"/>
<path d="M18.9929 17.8775L18.0133 5.14282H2.33984L5.55583 8.84044C5.81488 9.13828 5.94321 9.52782 5.91186 9.92132L5.2786 17.8775" stroke="black" stroke-opacity="0.2" stroke-width="1.95918" stroke-linecap="round" stroke-linejoin="round"/>
<path d="M18.9929 17.8775L18.0133 5.14282H2.33984L5.55583 8.84044C5.81488 9.13828 5.94321 9.52782 5.91186 9.92132L5.2786 17.8775" stroke="black" stroke-opacity="0.2" stroke-width="1.95918" stroke-linecap="round" stroke-linejoin="round"/>
<path d="M13.116 9.06128H10.667" stroke="#345E40" stroke-width="1.95918" stroke-linecap="round" stroke-linejoin="round"/>
<path d="M13.116 9.06128H10.667" stroke="black" stroke-opacity="0.2" stroke-width="1.95918" stroke-linecap="round" stroke-linejoin="round"/>
<path d="M13.116 9.06128H10.667" stroke="black" stroke-opacity="0.2" stroke-width="1.95918" stroke-linecap="round" stroke-linejoin="round"/>
<path d="M13.116 9.06128H10.667" stroke="black" stroke-opacity="0.2" stroke-width="1.95918" stroke-linecap="round" stroke-linejoin="round"/>
<path d="M13.116 9.06128H10.667" stroke="black" stroke-opacity="0.2" stroke-width="1.95918" stroke-linecap="round" stroke-linejoin="round"/>
<path d="M13.116 12H10.667" stroke="#345E40" stroke-width="1.95918" stroke-linecap="round" stroke-linejoin="round"/>
<path d="M13.116 12H10.667" stroke="black" stroke-opacity="0.2" stroke-width="1.95918" stroke-linecap="round" stroke-linejoin="round"/>
<path d="M13.116 12H10.667" stroke="black" stroke-opacity="0.2" stroke-width="1.95918" stroke-linecap="round" stroke-linejoin="round"/>
<path d="M13.116 12H10.667" stroke="black" stroke-opacity="0.2" stroke-width="1.95918" stroke-linecap="round" stroke-linejoin="round"/>
<path d="M13.116 12H10.667" stroke="black" stroke-opacity="0.2" stroke-width="1.95918" stroke-linecap="round" stroke-linejoin="round"/>
<path d="M13.116 14.9387H10.667" stroke="#345E40" stroke-width="1.95918" stroke-linecap="round" stroke-linejoin="round"/>
<path d="M13.116 14.9387H10.667" stroke="black" stroke-opacity="0.2" stroke-width="1.95918" stroke-linecap="round" stroke-linejoin="round"/>
<path d="M13.116 14.9387H10.667" stroke="black" stroke-opacity="0.2" stroke-width="1.95918" stroke-linecap="round" stroke-linejoin="round"/>
<path d="M13.116 14.9387H10.667" stroke="black" stroke-opacity="0.2" stroke-width="1.95918" stroke-linecap="round" stroke-linejoin="round"/>
<path d="M13.116 14.9387H10.667" stroke="black" stroke-opacity="0.2" stroke-width="1.95918" stroke-linecap="round" stroke-linejoin="round"/>
<path d="M18.0137 5.14282H21.932V12.9796H18.9933" stroke="#345E40" stroke-width="1.95918" stroke-linecap="round" stroke-linejoin="round"/>
<path d="M18.0137 5.14282H21.932V12.9796H18.9933" stroke="black" stroke-opacity="0.2" stroke-width="1.95918" stroke-linecap="round" stroke-linejoin="round"/>
<path d="M18.0137 5.14282H21.932V12.9796H18.9933" stroke="black" stroke-opacity="0.2" stroke-width="1.95918" stroke-linecap="round" stroke-linejoin="round"/>
<path d="M18.0137 5.14282H21.932V12.9796H18.9933" stroke="black" stroke-opacity="0.2" stroke-width="1.95918" stroke-linecap="round" stroke-linejoin="round"/>
<path d="M18.0137 5.14282H21.932V12.9796H18.9933" stroke="black" stroke-opacity="0.2" stroke-width="1.95918" stroke-linecap="round" stroke-linejoin="round"/>
<path d="M9.6875 4.65308V2.2041H14.0957V4.65308" stroke="#345E40" stroke-width="1.95918" stroke-linecap="round" stroke-linejoin="round"/>
<path d="M9.6875 4.65308V2.2041H14.0957V4.65308" stroke="black" stroke-opacity="0.2" stroke-width="1.95918" stroke-linecap="round" stroke-linejoin="round"/>
<path d="M9.6875 4.65308V2.2041H14.0957V4.65308" stroke="black" stroke-opacity="0.2" stroke-width="1.95918" stroke-linecap="round" stroke-linejoin="round"/>
<path d="M9.6875 4.65308V2.2041H14.0957V4.65308" stroke="black" stroke-opacity="0.2" stroke-width="1.95918" stroke-linecap="round" stroke-linejoin="round"/>
<path d="M9.6875 4.65308V2.2041H14.0957V4.65308" stroke="black" stroke-opacity="0.2" stroke-width="1.95918" stroke-linecap="round" stroke-linejoin="round"/>
</svg>
