<svg width="24" height="18" viewBox="0 0 24 18" fill="none" xmlns="http://www.w3.org/2000/svg">
<path d="M0 3.5C0 1.84315 1.34315 0.5 3 0.5H21C22.6569 0.5 24 1.84315 24 3.5V11.5C24 13.1569 22.6569 14.5 21 14.5H14.5V15.5H15.5C16.0523 15.5 16.5 15.9477 16.5 16.5C16.5 17.0523 16.0523 17.5 15.5 17.5H8C7.44772 17.5 7 17.0523 7 16.5C7 15.9477 7.44772 15.5 8 15.5H9V14.5H3C1.34315 14.5 0 13.1569 0 11.5V3.5ZM11 14.5V15.5H12.5V14.5H11ZM3 2.5C2.44772 2.5 2 2.94772 2 3.5V11.5C2 12.0523 2.44772 12.5 3 12.5H21C21.5523 12.5 22 12.0523 22 11.5V3.5C22 2.94771 21.5523 2.5 21 2.5H3Z" fill="#345E40"/>
<path d="M0 3.5C0 1.84315 1.34315 0.5 3 0.5H21C22.6569 0.5 24 1.84315 24 3.5V11.5C24 13.1569 22.6569 14.5 21 14.5H14.5V15.5H15.5C16.0523 15.5 16.5 15.9477 16.5 16.5C16.5 17.0523 16.0523 17.5 15.5 17.5H8C7.44772 17.5 7 17.0523 7 16.5C7 15.9477 7.44772 15.5 8 15.5H9V14.5H3C1.34315 14.5 0 13.1569 0 11.5V3.5ZM11 14.5V15.5H12.5V14.5H11ZM3 2.5C2.44772 2.5 2 2.94772 2 3.5V11.5C2 12.0523 2.44772 12.5 3 12.5H21C21.5523 12.5 22 12.0523 22 11.5V3.5C22 2.94771 21.5523 2.5 21 2.5H3Z" fill="black" fill-opacity="0.2"/>
<path d="M0 3.5C0 1.84315 1.34315 0.5 3 0.5H21C22.6569 0.5 24 1.84315 24 3.5V11.5C24 13.1569 22.6569 14.5 21 14.5H14.5V15.5H15.5C16.0523 15.5 16.5 15.9477 16.5 16.5C16.5 17.0523 16.0523 17.5 15.5 17.5H8C7.44772 17.5 7 17.0523 7 16.5C7 15.9477 7.44772 15.5 8 15.5H9V14.5H3C1.34315 14.5 0 13.1569 0 11.5V3.5ZM11 14.5V15.5H12.5V14.5H11ZM3 2.5C2.44772 2.5 2 2.94772 2 3.5V11.5C2 12.0523 2.44772 12.5 3 12.5H21C21.5523 12.5 22 12.0523 22 11.5V3.5C22 2.94771 21.5523 2.5 21 2.5H3Z" fill="black" fill-opacity="0.2"/>
<path d="M0 3.5C0 1.84315 1.34315 0.5 3 0.5H21C22.6569 0.5 24 1.84315 24 3.5V11.5C24 13.1569 22.6569 14.5 21 14.5H14.5V15.5H15.5C16.0523 15.5 16.5 15.9477 16.5 16.5C16.5 17.0523 16.0523 17.5 15.5 17.5H8C7.44772 17.5 7 17.0523 7 16.5C7 15.9477 7.44772 15.5 8 15.5H9V14.5H3C1.34315 14.5 0 13.1569 0 11.5V3.5ZM11 14.5V15.5H12.5V14.5H11ZM3 2.5C2.44772 2.5 2 2.94772 2 3.5V11.5C2 12.0523 2.44772 12.5 3 12.5H21C21.5523 12.5 22 12.0523 22 11.5V3.5C22 2.94771 21.5523 2.5 21 2.5H3Z" fill="black" fill-opacity="0.2"/>
<path d="M0 3.5C0 1.84315 1.34315 0.5 3 0.5H21C22.6569 0.5 24 1.84315 24 3.5V11.5C24 13.1569 22.6569 14.5 21 14.5H14.5V15.5H15.5C16.0523 15.5 16.5 15.9477 16.5 16.5C16.5 17.0523 16.0523 17.5 15.5 17.5H8C7.44772 17.5 7 17.0523 7 16.5C7 15.9477 7.44772 15.5 8 15.5H9V14.5H3C1.34315 14.5 0 13.1569 0 11.5V3.5ZM11 14.5V15.5H12.5V14.5H11ZM3 2.5C2.44772 2.5 2 2.94772 2 3.5V11.5C2 12.0523 2.44772 12.5 3 12.5H21C21.5523 12.5 22 12.0523 22 11.5V3.5C22 2.94771 21.5523 2.5 21 2.5H3Z" fill="black" fill-opacity="0.2"/>
</svg>
