<svg width="25" height="24" viewBox="0 0 25 24" fill="none" xmlns="http://www.w3.org/2000/svg">
<path d="M7.5 2V22" stroke="#345E40" stroke-width="2" stroke-linecap="round" stroke-linejoin="round"/>
<path d="M7.5 2V22" stroke="#97A483" stroke-opacity="0.2" stroke-width="2" stroke-linecap="round" stroke-linejoin="round"/>
<path d="M7.5 2V22" stroke="#97A483" stroke-opacity="0.2" stroke-width="2" stroke-linecap="round" stroke-linejoin="round"/>
<path d="M7.5 2V22" stroke="#97A483" stroke-opacity="0.2" stroke-width="2" stroke-linecap="round" stroke-linejoin="round"/>
<path d="M7.5 2V22" stroke="#97A483" stroke-opacity="0.2" stroke-width="2" stroke-linecap="round" stroke-linejoin="round"/>
<path d="M4.5 2.5V7.5C4.5 10 7.5 10 7.5 10C7.5 10 10.5 10 10.5 7.5V2.5" stroke="#345E40" stroke-width="2" stroke-linecap="round" stroke-linejoin="round"/>
<path d="M4.5 2.5V7.5C4.5 10 7.5 10 7.5 10C7.5 10 10.5 10 10.5 7.5V2.5" stroke="#97A483" stroke-opacity="0.2" stroke-width="2" stroke-linecap="round" stroke-linejoin="round"/>
<path d="M4.5 2.5V7.5C4.5 10 7.5 10 7.5 10C7.5 10 10.5 10 10.5 7.5V2.5" stroke="#97A483" stroke-opacity="0.2" stroke-width="2" stroke-linecap="round" stroke-linejoin="round"/>
<path d="M4.5 2.5V7.5C4.5 10 7.5 10 7.5 10C7.5 10 10.5 10 10.5 7.5V2.5" stroke="#97A483" stroke-opacity="0.2" stroke-width="2" stroke-linecap="round" stroke-linejoin="round"/>
<path d="M4.5 2.5V7.5C4.5 10 7.5 10 7.5 10C7.5 10 10.5 10 10.5 7.5V2.5" stroke="#97A483" stroke-opacity="0.2" stroke-width="2" stroke-linecap="round" stroke-linejoin="round"/>
<path d="M19.5 10.5H15.5V6C15.5 2 19.5 2 19.5 2V10.5ZM19.5 10.5V22" stroke="#345E40" stroke-width="2" stroke-linecap="round" stroke-linejoin="round"/>
<path d="M19.5 10.5H15.5V6C15.5 2 19.5 2 19.5 2V10.5ZM19.5 10.5V22" stroke="#97A483" stroke-opacity="0.2" stroke-width="2" stroke-linecap="round" stroke-linejoin="round"/>
<path d="M19.5 10.5H15.5V6C15.5 2 19.5 2 19.5 2V10.5ZM19.5 10.5V22" stroke="#97A483" stroke-opacity="0.2" stroke-width="2" stroke-linecap="round" stroke-linejoin="round"/>
<path d="M19.5 10.5H15.5V6C15.5 2 19.5 2 19.5 2V10.5ZM19.5 10.5V22" stroke="#97A483" stroke-opacity="0.2" stroke-width="2" stroke-linecap="round" stroke-linejoin="round"/>
<path d="M19.5 10.5H15.5V6C15.5 2 19.5 2 19.5 2V10.5ZM19.5 10.5V22" stroke="#97A483" stroke-opacity="0.2" stroke-width="2" stroke-linecap="round" stroke-linejoin="round"/>
</svg>
