<svg width="24" height="16" viewBox="0 0 24 16" fill="none" xmlns="http://www.w3.org/2000/svg">
<path d="M10 0.5C8.34315 0.5 7 1.84315 7 3.5H1C0.447716 3.5 0 3.94772 0 4.5C0 5.05228 0.447716 5.5 1 5.5H2V12.5C2 14.1569 3.34315 15.5 5 15.5H19C20.6569 15.5 22 14.1569 22 12.5V5.5H23C23.5523 5.5 24 5.05228 24 4.5C24 3.94772 23.5523 3.5 23 3.5H17C17 1.84315 15.6569 0.5 14 0.5H10ZM15 3.5H9C9 2.94772 9.44772 2.5 10 2.5H14C14.5523 2.5 15 2.94772 15 3.5ZM4 5.5H20V12.5C20 13.0523 19.5523 13.5 19 13.5H5C4.44772 13.5 4 13.0523 4 12.5V5.5Z" fill="#345E40"/>
<path d="M10 0.5C8.34315 0.5 7 1.84315 7 3.5H1C0.447716 3.5 0 3.94772 0 4.5C0 5.05228 0.447716 5.5 1 5.5H2V12.5C2 14.1569 3.34315 15.5 5 15.5H19C20.6569 15.5 22 14.1569 22 12.5V5.5H23C23.5523 5.5 24 5.05228 24 4.5C24 3.94772 23.5523 3.5 23 3.5H17C17 1.84315 15.6569 0.5 14 0.5H10ZM15 3.5H9C9 2.94772 9.44772 2.5 10 2.5H14C14.5523 2.5 15 2.94772 15 3.5ZM4 5.5H20V12.5C20 13.0523 19.5523 13.5 19 13.5H5C4.44772 13.5 4 13.0523 4 12.5V5.5Z" fill="black" fill-opacity="0.2"/>
<path d="M10 0.5C8.34315 0.5 7 1.84315 7 3.5H1C0.447716 3.5 0 3.94772 0 4.5C0 5.05228 0.447716 5.5 1 5.5H2V12.5C2 14.1569 3.34315 15.5 5 15.5H19C20.6569 15.5 22 14.1569 22 12.5V5.5H23C23.5523 5.5 24 5.05228 24 4.5C24 3.94772 23.5523 3.5 23 3.5H17C17 1.84315 15.6569 0.5 14 0.5H10ZM15 3.5H9C9 2.94772 9.44772 2.5 10 2.5H14C14.5523 2.5 15 2.94772 15 3.5ZM4 5.5H20V12.5C20 13.0523 19.5523 13.5 19 13.5H5C4.44772 13.5 4 13.0523 4 12.5V5.5Z" fill="black" fill-opacity="0.2"/>
<path d="M10 0.5C8.34315 0.5 7 1.84315 7 3.5H1C0.447716 3.5 0 3.94772 0 4.5C0 5.05228 0.447716 5.5 1 5.5H2V12.5C2 14.1569 3.34315 15.5 5 15.5H19C20.6569 15.5 22 14.1569 22 12.5V5.5H23C23.5523 5.5 24 5.05228 24 4.5C24 3.94772 23.5523 3.5 23 3.5H17C17 1.84315 15.6569 0.5 14 0.5H10ZM15 3.5H9C9 2.94772 9.44772 2.5 10 2.5H14C14.5523 2.5 15 2.94772 15 3.5ZM4 5.5H20V12.5C20 13.0523 19.5523 13.5 19 13.5H5C4.44772 13.5 4 13.0523 4 12.5V5.5Z" fill="black" fill-opacity="0.2"/>
<path d="M10 0.5C8.34315 0.5 7 1.84315 7 3.5H1C0.447716 3.5 0 3.94772 0 4.5C0 5.05228 0.447716 5.5 1 5.5H2V12.5C2 14.1569 3.34315 15.5 5 15.5H19C20.6569 15.5 22 14.1569 22 12.5V5.5H23C23.5523 5.5 24 5.05228 24 4.5C24 3.94772 23.5523 3.5 23 3.5H17C17 1.84315 15.6569 0.5 14 0.5H10ZM15 3.5H9C9 2.94772 9.44772 2.5 10 2.5H14C14.5523 2.5 15 2.94772 15 3.5ZM4 5.5H20V12.5C20 13.0523 19.5523 13.5 19 13.5H5C4.44772 13.5 4 13.0523 4 12.5V5.5Z" fill="black" fill-opacity="0.2"/>
</svg>
