<svg width="22" height="16" viewBox="0 0 22 16" fill="none" xmlns="http://www.w3.org/2000/svg">
<path d="M1.00001 0.25C0.703485 0.25 0.422253 0.381596 0.232256 0.609253C0.0422598 0.836909 -0.0369055 1.13715 0.0161382 1.42889L0.672496 5.03886C1.24852 8.20701 3.27926 10.7986 6.00001 12.1755V14.75C6.00001 15.3023 6.44772 15.75 7.00001 15.75H15C15.5523 15.75 16 15.3023 16 14.75V12.1755C18.7208 10.7986 20.7515 8.20701 21.3275 5.03885L21.9839 1.42889C22.0369 1.13715 21.9578 0.836909 21.7678 0.609253C21.5778 0.381596 21.2965 0.25 21 0.25H1.00001ZM14 12.9309V13.75H8.00001V12.9309C8.80511 13.1395 9.6471 13.25 10.5112 13.25H11.4888C12.3529 13.25 13.1949 13.1395 14 12.9309ZM2.64024 4.68108L2.19822 2.25H19.8018L19.3598 4.68108C18.6682 8.48501 15.3551 11.25 11.4888 11.25H10.5112C6.64491 11.25 3.33186 8.48501 2.64024 4.68108Z" fill="#345E40"/>
<path d="M1.00001 0.25C0.703485 0.25 0.422253 0.381596 0.232256 0.609253C0.0422598 0.836909 -0.0369055 1.13715 0.0161382 1.42889L0.672496 5.03886C1.24852 8.20701 3.27926 10.7986 6.00001 12.1755V14.75C6.00001 15.3023 6.44772 15.75 7.00001 15.75H15C15.5523 15.75 16 15.3023 16 14.75V12.1755C18.7208 10.7986 20.7515 8.20701 21.3275 5.03885L21.9839 1.42889C22.0369 1.13715 21.9578 0.836909 21.7678 0.609253C21.5778 0.381596 21.2965 0.25 21 0.25H1.00001ZM14 12.9309V13.75H8.00001V12.9309C8.80511 13.1395 9.6471 13.25 10.5112 13.25H11.4888C12.3529 13.25 13.1949 13.1395 14 12.9309ZM2.64024 4.68108L2.19822 2.25H19.8018L19.3598 4.68108C18.6682 8.48501 15.3551 11.25 11.4888 11.25H10.5112C6.64491 11.25 3.33186 8.48501 2.64024 4.68108Z" fill="black" fill-opacity="0.2"/>
<path d="M1.00001 0.25C0.703485 0.25 0.422253 0.381596 0.232256 0.609253C0.0422598 0.836909 -0.0369055 1.13715 0.0161382 1.42889L0.672496 5.03886C1.24852 8.20701 3.27926 10.7986 6.00001 12.1755V14.75C6.00001 15.3023 6.44772 15.75 7.00001 15.75H15C15.5523 15.75 16 15.3023 16 14.75V12.1755C18.7208 10.7986 20.7515 8.20701 21.3275 5.03885L21.9839 1.42889C22.0369 1.13715 21.9578 0.836909 21.7678 0.609253C21.5778 0.381596 21.2965 0.25 21 0.25H1.00001ZM14 12.9309V13.75H8.00001V12.9309C8.80511 13.1395 9.6471 13.25 10.5112 13.25H11.4888C12.3529 13.25 13.1949 13.1395 14 12.9309ZM2.64024 4.68108L2.19822 2.25H19.8018L19.3598 4.68108C18.6682 8.48501 15.3551 11.25 11.4888 11.25H10.5112C6.64491 11.25 3.33186 8.48501 2.64024 4.68108Z" fill="black" fill-opacity="0.2"/>
<path d="M1.00001 0.25C0.703485 0.25 0.422253 0.381596 0.232256 0.609253C0.0422598 0.836909 -0.0369055 1.13715 0.0161382 1.42889L0.672496 5.03886C1.24852 8.20701 3.27926 10.7986 6.00001 12.1755V14.75C6.00001 15.3023 6.44772 15.75 7.00001 15.75H15C15.5523 15.75 16 15.3023 16 14.75V12.1755C18.7208 10.7986 20.7515 8.20701 21.3275 5.03885L21.9839 1.42889C22.0369 1.13715 21.9578 0.836909 21.7678 0.609253C21.5778 0.381596 21.2965 0.25 21 0.25H1.00001ZM14 12.9309V13.75H8.00001V12.9309C8.80511 13.1395 9.6471 13.25 10.5112 13.25H11.4888C12.3529 13.25 13.1949 13.1395 14 12.9309ZM2.64024 4.68108L2.19822 2.25H19.8018L19.3598 4.68108C18.6682 8.48501 15.3551 11.25 11.4888 11.25H10.5112C6.64491 11.25 3.33186 8.48501 2.64024 4.68108Z" fill="black" fill-opacity="0.2"/>
<path d="M1.00001 0.25C0.703485 0.25 0.422253 0.381596 0.232256 0.609253C0.0422598 0.836909 -0.0369055 1.13715 0.0161382 1.42889L0.672496 5.03886C1.24852 8.20701 3.27926 10.7986 6.00001 12.1755V14.75C6.00001 15.3023 6.44772 15.75 7.00001 15.75H15C15.5523 15.75 16 15.3023 16 14.75V12.1755C18.7208 10.7986 20.7515 8.20701 21.3275 5.03885L21.9839 1.42889C22.0369 1.13715 21.9578 0.836909 21.7678 0.609253C21.5778 0.381596 21.2965 0.25 21 0.25H1.00001ZM14 12.9309V13.75H8.00001V12.9309C8.80511 13.1395 9.6471 13.25 10.5112 13.25H11.4888C12.3529 13.25 13.1949 13.1395 14 12.9309ZM2.64024 4.68108L2.19822 2.25H19.8018L19.3598 4.68108C18.6682 8.48501 15.3551 11.25 11.4888 11.25H10.5112C6.64491 11.25 3.33186 8.48501 2.64024 4.68108Z" fill="black" fill-opacity="0.2"/>
</svg>
