<svg width="24" height="24" viewBox="0 0 24 24" fill="none" xmlns="http://www.w3.org/2000/svg">
<path d="M13.6816 3.06299C15.179 2.82945 16.5597 2.97586 17.7139 3.47607L17.5488 3.50049H17.5459C15.5029 3.79852 13.6348 4.82034 12.2812 6.37939C10.9278 7.93838 10.1782 9.93109 10.1699 11.9956V12.0015C10.171 13.2153 9.73575 14.3895 8.94336 15.3091C8.15224 16.2271 7.05778 16.8308 5.85938 17.0103L3.37402 17.3628C2.31342 14.4231 3.41946 10.1712 6.77441 6.76807L6.77539 6.76904C8.88206 4.67178 11.3795 3.42205 13.6816 3.06299Z" stroke="#345E40" stroke-width="2"/>
<path d="M13.6816 3.06299C15.179 2.82945 16.5597 2.97586 17.7139 3.47607L17.5488 3.50049H17.5459C15.5029 3.79852 13.6348 4.82034 12.2812 6.37939C10.9278 7.93838 10.1782 9.93109 10.1699 11.9956V12.0015C10.171 13.2153 9.73575 14.3895 8.94336 15.3091C8.15224 16.2271 7.05778 16.8308 5.85938 17.0103L3.37402 17.3628C2.31342 14.4231 3.41946 10.1712 6.77441 6.76807L6.77539 6.76904C8.88206 4.67178 11.3795 3.42205 13.6816 3.06299Z" stroke="black" stroke-opacity="0.2" stroke-width="2"/>
<path d="M13.6816 3.06299C15.179 2.82945 16.5597 2.97586 17.7139 3.47607L17.5488 3.50049H17.5459C15.5029 3.79852 13.6348 4.82034 12.2812 6.37939C10.9278 7.93838 10.1782 9.93109 10.1699 11.9956V12.0015C10.171 13.2153 9.73575 14.3895 8.94336 15.3091C8.15224 16.2271 7.05778 16.8308 5.85938 17.0103L3.37402 17.3628C2.31342 14.4231 3.41946 10.1712 6.77441 6.76807L6.77539 6.76904C8.88206 4.67178 11.3795 3.42205 13.6816 3.06299Z" stroke="black" stroke-opacity="0.2" stroke-width="2"/>
<path d="M13.6816 3.06299C15.179 2.82945 16.5597 2.97586 17.7139 3.47607L17.5488 3.50049H17.5459C15.5029 3.79852 13.6348 4.82034 12.2812 6.37939C10.9278 7.93838 10.1782 9.93109 10.1699 11.9956V12.0015C10.171 13.2153 9.73575 14.3895 8.94336 15.3091C8.15224 16.2271 7.05778 16.8308 5.85938 17.0103L3.37402 17.3628C2.31342 14.4231 3.41946 10.1712 6.77441 6.76807L6.77539 6.76904C8.88206 4.67178 11.3795 3.42205 13.6816 3.06299Z" stroke="black" stroke-opacity="0.2" stroke-width="2"/>
<path d="M13.6816 3.06299C15.179 2.82945 16.5597 2.97586 17.7139 3.47607L17.5488 3.50049H17.5459C15.5029 3.79852 13.6348 4.82034 12.2812 6.37939C10.9278 7.93838 10.1782 9.93109 10.1699 11.9956V12.0015C10.171 13.2153 9.73575 14.3895 8.94336 15.3091C8.15224 16.2271 7.05778 16.8308 5.85938 17.0103L3.37402 17.3628C2.31342 14.4231 3.41946 10.1712 6.77441 6.76807L6.77539 6.76904C8.88206 4.67178 11.3795 3.42205 13.6816 3.06299Z" stroke="black" stroke-opacity="0.2" stroke-width="2"/>
<path d="M20.6357 6.6886C21.6749 9.58399 20.5418 13.8321 17.2041 17.1613C15.0978 19.2581 12.6007 20.5047 10.2988 20.8615C8.85875 21.0846 7.52541 20.959 6.39844 20.5031C8.42754 20.1942 10.2812 19.1735 11.625 17.6212C12.9745 16.0623 13.7206 14.0716 13.7295 12.0099C13.7409 10.8046 14.1836 9.64228 14.9766 8.7345C15.7694 7.82709 16.8603 7.23209 18.0527 7.05872L20.6357 6.6886Z" stroke="#345E40" stroke-width="2"/>
<path d="M20.6357 6.6886C21.6749 9.58399 20.5418 13.8321 17.2041 17.1613C15.0978 19.2581 12.6007 20.5047 10.2988 20.8615C8.85875 21.0846 7.52541 20.959 6.39844 20.5031C8.42754 20.1942 10.2812 19.1735 11.625 17.6212C12.9745 16.0623 13.7206 14.0716 13.7295 12.0099C13.7409 10.8046 14.1836 9.64228 14.9766 8.7345C15.7694 7.82709 16.8603 7.23209 18.0527 7.05872L20.6357 6.6886Z" stroke="black" stroke-opacity="0.2" stroke-width="2"/>
<path d="M20.6357 6.6886C21.6749 9.58399 20.5418 13.8321 17.2041 17.1613C15.0978 19.2581 12.6007 20.5047 10.2988 20.8615C8.85875 21.0846 7.52541 20.959 6.39844 20.5031C8.42754 20.1942 10.2812 19.1735 11.625 17.6212C12.9745 16.0623 13.7206 14.0716 13.7295 12.0099C13.7409 10.8046 14.1836 9.64228 14.9766 8.7345C15.7694 7.82709 16.8603 7.23209 18.0527 7.05872L20.6357 6.6886Z" stroke="black" stroke-opacity="0.2" stroke-width="2"/>
<path d="M20.6357 6.6886C21.6749 9.58399 20.5418 13.8321 17.2041 17.1613C15.0978 19.2581 12.6007 20.5047 10.2988 20.8615C8.85875 21.0846 7.52541 20.959 6.39844 20.5031C8.42754 20.1942 10.2812 19.1735 11.625 17.6212C12.9745 16.0623 13.7206 14.0716 13.7295 12.0099C13.7409 10.8046 14.1836 9.64228 14.9766 8.7345C15.7694 7.82709 16.8603 7.23209 18.0527 7.05872L20.6357 6.6886Z" stroke="black" stroke-opacity="0.2" stroke-width="2"/>
<path d="M20.6357 6.6886C21.6749 9.58399 20.5418 13.8321 17.2041 17.1613C15.0978 19.2581 12.6007 20.5047 10.2988 20.8615C8.85875 21.0846 7.52541 20.959 6.39844 20.5031C8.42754 20.1942 10.2812 19.1735 11.625 17.6212C12.9745 16.0623 13.7206 14.0716 13.7295 12.0099C13.7409 10.8046 14.1836 9.64228 14.9766 8.7345C15.7694 7.82709 16.8603 7.23209 18.0527 7.05872L20.6357 6.6886Z" stroke="black" stroke-opacity="0.2" stroke-width="2"/>
</svg>
