<svg width="24" height="16" viewBox="0 0 24 16" fill="none" xmlns="http://www.w3.org/2000/svg">
<path d="M11.0186 11.3997C10.1151 11.9448 9.27712 12.5775 8.49805 13.2375L8.48633 13.2463L8.47461 13.2571C7.81525 13.8503 6.94872 14.2004 6 14.2004H4.7998C3.04627 14.2004 1.57238 13.0137 1.13379 11.3997H11.0186ZM19.2002 9.00024H23V9.39966H19.2002C17.6557 9.39966 16.1843 9.58951 14.8652 9.85083L14.8613 9.85181C13.8455 10.0582 12.8941 10.4109 12.002 10.8577C13.4737 10.0157 15.5856 9.00024 19.2002 9.00024ZM8.59961 6.59985V8.20044H7V6.59985H8.59961ZM3.7998 6.59985V8.20044H2.2002V6.59985H3.7998ZM6.2002 1.80005V3.39966H4.59961V1.80005H6.2002Z" stroke="#345E40" stroke-width="2"/>
<path d="M11.0186 11.3997C10.1151 11.9448 9.27712 12.5775 8.49805 13.2375L8.48633 13.2463L8.47461 13.2571C7.81525 13.8503 6.94872 14.2004 6 14.2004H4.7998C3.04627 14.2004 1.57238 13.0137 1.13379 11.3997H11.0186ZM19.2002 9.00024H23V9.39966H19.2002C17.6557 9.39966 16.1843 9.58951 14.8652 9.85083L14.8613 9.85181C13.8455 10.0582 12.8941 10.4109 12.002 10.8577C13.4737 10.0157 15.5856 9.00024 19.2002 9.00024ZM8.59961 6.59985V8.20044H7V6.59985H8.59961ZM3.7998 6.59985V8.20044H2.2002V6.59985H3.7998ZM6.2002 1.80005V3.39966H4.59961V1.80005H6.2002Z" stroke="black" stroke-opacity="0.2" stroke-width="2"/>
<path d="M11.0186 11.3997C10.1151 11.9448 9.27712 12.5775 8.49805 13.2375L8.48633 13.2463L8.47461 13.2571C7.81525 13.8503 6.94872 14.2004 6 14.2004H4.7998C3.04627 14.2004 1.57238 13.0137 1.13379 11.3997H11.0186ZM19.2002 9.00024H23V9.39966H19.2002C17.6557 9.39966 16.1843 9.58951 14.8652 9.85083L14.8613 9.85181C13.8455 10.0582 12.8941 10.4109 12.002 10.8577C13.4737 10.0157 15.5856 9.00024 19.2002 9.00024ZM8.59961 6.59985V8.20044H7V6.59985H8.59961ZM3.7998 6.59985V8.20044H2.2002V6.59985H3.7998ZM6.2002 1.80005V3.39966H4.59961V1.80005H6.2002Z" stroke="black" stroke-opacity="0.2" stroke-width="2"/>
<path d="M11.0186 11.3997C10.1151 11.9448 9.27712 12.5775 8.49805 13.2375L8.48633 13.2463L8.47461 13.2571C7.81525 13.8503 6.94872 14.2004 6 14.2004H4.7998C3.04627 14.2004 1.57238 13.0137 1.13379 11.3997H11.0186ZM19.2002 9.00024H23V9.39966H19.2002C17.6557 9.39966 16.1843 9.58951 14.8652 9.85083L14.8613 9.85181C13.8455 10.0582 12.8941 10.4109 12.002 10.8577C13.4737 10.0157 15.5856 9.00024 19.2002 9.00024ZM8.59961 6.59985V8.20044H7V6.59985H8.59961ZM3.7998 6.59985V8.20044H2.2002V6.59985H3.7998ZM6.2002 1.80005V3.39966H4.59961V1.80005H6.2002Z" stroke="black" stroke-opacity="0.2" stroke-width="2"/>
<path d="M11.0186 11.3997C10.1151 11.9448 9.27712 12.5775 8.49805 13.2375L8.48633 13.2463L8.47461 13.2571C7.81525 13.8503 6.94872 14.2004 6 14.2004H4.7998C3.04627 14.2004 1.57238 13.0137 1.13379 11.3997H11.0186ZM19.2002 9.00024H23V9.39966H19.2002C17.6557 9.39966 16.1843 9.58951 14.8652 9.85083L14.8613 9.85181C13.8455 10.0582 12.8941 10.4109 12.002 10.8577C13.4737 10.0157 15.5856 9.00024 19.2002 9.00024ZM8.59961 6.59985V8.20044H7V6.59985H8.59961ZM3.7998 6.59985V8.20044H2.2002V6.59985H3.7998ZM6.2002 1.80005V3.39966H4.59961V1.80005H6.2002Z" stroke="black" stroke-opacity="0.2" stroke-width="2"/>
</svg>
