<svg width="22" height="26" viewBox="0 0 22 26" fill="none" xmlns="http://www.w3.org/2000/svg">
<path d="M11 14.5V14.515" stroke="#345E40" stroke-width="2" stroke-linecap="round" stroke-linejoin="round"/>
<path d="M11 14.5V14.515" stroke="black" stroke-opacity="0.2" stroke-width="2" stroke-linecap="round" stroke-linejoin="round"/>
<path d="M11 14.5V14.515" stroke="black" stroke-opacity="0.2" stroke-width="2" stroke-linecap="round" stroke-linejoin="round"/>
<path d="M11 14.5V14.515" stroke="black" stroke-opacity="0.2" stroke-width="2" stroke-linecap="round" stroke-linejoin="round"/>
<path d="M11 14.5V14.515" stroke="black" stroke-opacity="0.2" stroke-width="2" stroke-linecap="round" stroke-linejoin="round"/>
<path d="M8 19V19.015" stroke="#345E40" stroke-width="2" stroke-linecap="round" stroke-linejoin="round"/>
<path d="M8 19V19.015" stroke="black" stroke-opacity="0.2" stroke-width="2" stroke-linecap="round" stroke-linejoin="round"/>
<path d="M8 19V19.015" stroke="black" stroke-opacity="0.2" stroke-width="2" stroke-linecap="round" stroke-linejoin="round"/>
<path d="M8 19V19.015" stroke="black" stroke-opacity="0.2" stroke-width="2" stroke-linecap="round" stroke-linejoin="round"/>
<path d="M8 19V19.015" stroke="black" stroke-opacity="0.2" stroke-width="2" stroke-linecap="round" stroke-linejoin="round"/>
<path d="M14 19V19.015" stroke="#345E40" stroke-width="2" stroke-linecap="round" stroke-linejoin="round"/>
<path d="M14 19V19.015" stroke="black" stroke-opacity="0.2" stroke-width="2" stroke-linecap="round" stroke-linejoin="round"/>
<path d="M14 19V19.015" stroke="black" stroke-opacity="0.2" stroke-width="2" stroke-linecap="round" stroke-linejoin="round"/>
<path d="M14 19V19.015" stroke="black" stroke-opacity="0.2" stroke-width="2" stroke-linecap="round" stroke-linejoin="round"/>
<path d="M14 19V19.015" stroke="black" stroke-opacity="0.2" stroke-width="2" stroke-linecap="round" stroke-linejoin="round"/>
<path d="M4.25 7H17.75L17.3285 3.628C17.2378 2.90231 16.8852 2.23474 16.3369 1.75078C15.7885 1.26683 15.0823 0.999842 14.351 1H7.649C6.9174 0.999476 6.21083 1.2663 5.66221 1.75029C5.11358 2.23427 4.76072 2.90205 4.67 3.628L4.25 7V7Z" stroke="#345E40" stroke-width="2" stroke-linecap="round" stroke-linejoin="round"/>
<path d="M4.25 7H17.75L17.3285 3.628C17.2378 2.90231 16.8852 2.23474 16.3369 1.75078C15.7885 1.26683 15.0823 0.999842 14.351 1H7.649C6.9174 0.999476 6.21083 1.2663 5.66221 1.75029C5.11358 2.23427 4.76072 2.90205 4.67 3.628L4.25 7V7Z" stroke="black" stroke-opacity="0.2" stroke-width="2" stroke-linecap="round" stroke-linejoin="round"/>
<path d="M4.25 7H17.75L17.3285 3.628C17.2378 2.90231 16.8852 2.23474 16.3369 1.75078C15.7885 1.26683 15.0823 0.999842 14.351 1H7.649C6.9174 0.999476 6.21083 1.2663 5.66221 1.75029C5.11358 2.23427 4.76072 2.90205 4.67 3.628L4.25 7V7Z" stroke="black" stroke-opacity="0.2" stroke-width="2" stroke-linecap="round" stroke-linejoin="round"/>
<path d="M4.25 7H17.75L17.3285 3.628C17.2378 2.90231 16.8852 2.23474 16.3369 1.75078C15.7885 1.26683 15.0823 0.999842 14.351 1H7.649C6.9174 0.999476 6.21083 1.2663 5.66221 1.75029C5.11358 2.23427 4.76072 2.90205 4.67 3.628L4.25 7V7Z" stroke="black" stroke-opacity="0.2" stroke-width="2" stroke-linecap="round" stroke-linejoin="round"/>
<path d="M4.25 7H17.75L17.3285 3.628C17.2378 2.90231 16.8852 2.23474 16.3369 1.75078C15.7885 1.26683 15.0823 0.999842 14.351 1H7.649C6.9174 0.999476 6.21083 1.2663 5.66221 1.75029C5.11358 2.23427 4.76072 2.90205 4.67 3.628L4.25 7V7Z" stroke="black" stroke-opacity="0.2" stroke-width="2" stroke-linecap="round" stroke-linejoin="round"/>
<path d="M4.24988 7L1.83188 21.5065C1.7602 21.9363 1.78302 22.3766 1.89874 22.7967C2.01446 23.2168 2.22031 23.6067 2.50198 23.9391C2.78364 24.2716 3.13435 24.5388 3.52972 24.722C3.92509 24.9052 4.35563 25.0001 4.79138 25H17.2084C17.6441 25.0001 18.0747 24.9052 18.47 24.722C18.8654 24.5388 19.2161 24.2716 19.4978 23.9391C19.7795 23.6067 19.9853 23.2168 20.101 22.7967C20.2168 22.3766 20.2396 21.9363 20.1679 21.5065L17.7499 7" stroke="#345E40" stroke-width="2" stroke-linecap="round" stroke-linejoin="round"/>
<path d="M4.24988 7L1.83188 21.5065C1.7602 21.9363 1.78302 22.3766 1.89874 22.7967C2.01446 23.2168 2.22031 23.6067 2.50198 23.9391C2.78364 24.2716 3.13435 24.5388 3.52972 24.722C3.92509 24.9052 4.35563 25.0001 4.79138 25H17.2084C17.6441 25.0001 18.0747 24.9052 18.47 24.722C18.8654 24.5388 19.2161 24.2716 19.4978 23.9391C19.7795 23.6067 19.9853 23.2168 20.101 22.7967C20.2168 22.3766 20.2396 21.9363 20.1679 21.5065L17.7499 7" stroke="black" stroke-opacity="0.2" stroke-width="2" stroke-linecap="round" stroke-linejoin="round"/>
<path d="M4.24988 7L1.83188 21.5065C1.7602 21.9363 1.78302 22.3766 1.89874 22.7967C2.01446 23.2168 2.22031 23.6067 2.50198 23.9391C2.78364 24.2716 3.13435 24.5388 3.52972 24.722C3.92509 24.9052 4.35563 25.0001 4.79138 25H17.2084C17.6441 25.0001 18.0747 24.9052 18.47 24.722C18.8654 24.5388 19.2161 24.2716 19.4978 23.9391C19.7795 23.6067 19.9853 23.2168 20.101 22.7967C20.2168 22.3766 20.2396 21.9363 20.1679 21.5065L17.7499 7" stroke="black" stroke-opacity="0.2" stroke-width="2" stroke-linecap="round" stroke-linejoin="round"/>
<path d="M4.24988 7L1.83188 21.5065C1.7602 21.9363 1.78302 22.3766 1.89874 22.7967C2.01446 23.2168 2.22031 23.6067 2.50198 23.9391C2.78364 24.2716 3.13435 24.5388 3.52972 24.722C3.92509 24.9052 4.35563 25.0001 4.79138 25H17.2084C17.6441 25.0001 18.0747 24.9052 18.47 24.722C18.8654 24.5388 19.2161 24.2716 19.4978 23.9391C19.7795 23.6067 19.9853 23.2168 20.101 22.7967C20.2168 22.3766 20.2396 21.9363 20.1679 21.5065L17.7499 7" stroke="black" stroke-opacity="0.2" stroke-width="2" stroke-linecap="round" stroke-linejoin="round"/>
<path d="M4.24988 7L1.83188 21.5065C1.7602 21.9363 1.78302 22.3766 1.89874 22.7967C2.01446 23.2168 2.22031 23.6067 2.50198 23.9391C2.78364 24.2716 3.13435 24.5388 3.52972 24.722C3.92509 24.9052 4.35563 25.0001 4.79138 25H17.2084C17.6441 25.0001 18.0747 24.9052 18.47 24.722C18.8654 24.5388 19.2161 24.2716 19.4978 23.9391C19.7795 23.6067 19.9853 23.2168 20.101 22.7967C20.2168 22.3766 20.2396 21.9363 20.1679 21.5065L17.7499 7" stroke="black" stroke-opacity="0.2" stroke-width="2" stroke-linecap="round" stroke-linejoin="round"/>
</svg>
