<svg width="26" height="24" viewBox="0 0 26 24" fill="none" xmlns="http://www.w3.org/2000/svg">
<path d="M15.1176 11.2941C15.1176 14.4141 11.9567 16.9412 8.05882 16.9412C4.16094 16.9412 1 14.4141 1 11.2941C1 14.2895 2.18991 17.1622 4.30797 19.2803C6.42603 21.3983 9.29873 22.5882 12.2941 22.5882C15.2895 22.5882 18.1622 21.3983 20.2803 19.2803C22.3983 17.1622 23.5882 14.2895 23.5882 11.2941C23.5882 10.1709 23.142 9.0936 22.3477 8.29933C21.5535 7.50505 20.4762 7.05884 19.3529 7.05884C18.2297 7.05884 17.1524 7.50505 16.3581 8.29933C15.5639 9.0936 15.1176 10.1709 15.1176 11.2941Z" stroke="#345E40" stroke-width="2" stroke-linecap="round" stroke-linejoin="round"/>
<path d="M15.1176 11.2941C15.1176 14.4141 11.9567 16.9412 8.05882 16.9412C4.16094 16.9412 1 14.4141 1 11.2941C1 14.2895 2.18991 17.1622 4.30797 19.2803C6.42603 21.3983 9.29873 22.5882 12.2941 22.5882C15.2895 22.5882 18.1622 21.3983 20.2803 19.2803C22.3983 17.1622 23.5882 14.2895 23.5882 11.2941C23.5882 10.1709 23.142 9.0936 22.3477 8.29933C21.5535 7.50505 20.4762 7.05884 19.3529 7.05884C18.2297 7.05884 17.1524 7.50505 16.3581 8.29933C15.5639 9.0936 15.1176 10.1709 15.1176 11.2941Z" stroke="black" stroke-opacity="0.2" stroke-width="2" stroke-linecap="round" stroke-linejoin="round"/>
<path d="M15.1176 11.2941C15.1176 14.4141 11.9567 16.9412 8.05882 16.9412C4.16094 16.9412 1 14.4141 1 11.2941C1 14.2895 2.18991 17.1622 4.30797 19.2803C6.42603 21.3983 9.29873 22.5882 12.2941 22.5882C15.2895 22.5882 18.1622 21.3983 20.2803 19.2803C22.3983 17.1622 23.5882 14.2895 23.5882 11.2941C23.5882 10.1709 23.142 9.0936 22.3477 8.29933C21.5535 7.50505 20.4762 7.05884 19.3529 7.05884C18.2297 7.05884 17.1524 7.50505 16.3581 8.29933C15.5639 9.0936 15.1176 10.1709 15.1176 11.2941Z" stroke="black" stroke-opacity="0.2" stroke-width="2" stroke-linecap="round" stroke-linejoin="round"/>
<path d="M15.1176 11.2941C15.1176 14.4141 11.9567 16.9412 8.05882 16.9412C4.16094 16.9412 1 14.4141 1 11.2941C1 14.2895 2.18991 17.1622 4.30797 19.2803C6.42603 21.3983 9.29873 22.5882 12.2941 22.5882C15.2895 22.5882 18.1622 21.3983 20.2803 19.2803C22.3983 17.1622 23.5882 14.2895 23.5882 11.2941C23.5882 10.1709 23.142 9.0936 22.3477 8.29933C21.5535 7.50505 20.4762 7.05884 19.3529 7.05884C18.2297 7.05884 17.1524 7.50505 16.3581 8.29933C15.5639 9.0936 15.1176 10.1709 15.1176 11.2941Z" stroke="black" stroke-opacity="0.2" stroke-width="2" stroke-linecap="round" stroke-linejoin="round"/>
<path d="M15.1176 11.2941C15.1176 14.4141 11.9567 16.9412 8.05882 16.9412C4.16094 16.9412 1 14.4141 1 11.2941C1 14.2895 2.18991 17.1622 4.30797 19.2803C6.42603 21.3983 9.29873 22.5882 12.2941 22.5882C15.2895 22.5882 18.1622 21.3983 20.2803 19.2803C22.3983 17.1622 23.5882 14.2895 23.5882 11.2941C23.5882 10.1709 23.142 9.0936 22.3477 8.29933C21.5535 7.50505 20.4762 7.05884 19.3529 7.05884C18.2297 7.05884 17.1524 7.50505 16.3581 8.29933C15.5639 9.0936 15.1176 10.1709 15.1176 11.2941Z" stroke="black" stroke-opacity="0.2" stroke-width="2" stroke-linecap="round" stroke-linejoin="round"/>
<path d="M19.3525 7.0588C19.3525 4.23527 22.1761 1.41174 24.9996 1.41174" stroke="#345E40" stroke-width="2" stroke-linecap="round" stroke-linejoin="round"/>
<path d="M19.3525 7.0588C19.3525 4.23527 22.1761 1.41174 24.9996 1.41174" stroke="black" stroke-opacity="0.2" stroke-width="2" stroke-linecap="round" stroke-linejoin="round"/>
<path d="M19.3525 7.0588C19.3525 4.23527 22.1761 1.41174 24.9996 1.41174" stroke="black" stroke-opacity="0.2" stroke-width="2" stroke-linecap="round" stroke-linejoin="round"/>
<path d="M19.3525 7.0588C19.3525 4.23527 22.1761 1.41174 24.9996 1.41174" stroke="black" stroke-opacity="0.2" stroke-width="2" stroke-linecap="round" stroke-linejoin="round"/>
<path d="M19.3525 7.0588C19.3525 4.23527 22.1761 1.41174 24.9996 1.41174" stroke="black" stroke-opacity="0.2" stroke-width="2" stroke-linecap="round" stroke-linejoin="round"/>
</svg>
