<svg width="26" height="26" viewBox="0 0 26 26" fill="none" xmlns="http://www.w3.org/2000/svg">
<path d="M4.40972 1.5072C4.24721 1.62457 4.24721 1.66069 4.46389 2.78922C4.64445 3.76428 4.68057 4.23376 4.68057 5.63314V7.30338L4.12081 7.82702C3.49786 8.39581 3.01936 9.1271 2.80268 9.82228C2.72142 10.066 2.45057 11.2488 2.18875 12.4405C1.93596 13.6322 1.5658 15.3566 1.36718 16.2775C0.81645 18.8235 0.870619 19.8888 1.629 21.4237C2.12555 22.4258 3.18187 23.4641 4.19304 23.9516C5.54728 24.6016 5.23129 24.5836 14.6659 24.5836C22.0059 24.5836 23.1615 24.5655 23.5136 24.4481C24.8047 24.0058 25.3825 22.5341 24.7234 21.3514C24.4797 20.9 23.9921 20.4667 23.5588 20.3041C23.3963 20.25 23.4233 20.1958 23.7935 19.8166C24.3442 19.2388 24.5609 18.9048 24.7686 18.3089C25.1297 17.2526 25.1207 17.072 24.3623 13.3433C23.5858 9.49726 23.4414 9.0639 22.6018 8.12496L22.1323 7.60132L22.1413 6.77071C22.1503 6.05747 22.3941 4.26987 22.5566 3.68303C22.5837 3.58372 22.5566 3.42121 22.4844 3.33092C22.367 3.16841 22.3309 3.16841 21.4191 3.31287C19.5141 3.6108 17.2751 3.72817 17.2751 3.52052C17.2751 3.46635 17.3563 3.02396 17.4556 2.55449C17.6272 1.73291 17.6272 1.68777 17.4737 1.53429C17.3292 1.38984 17.248 1.38984 16.8778 1.47109C15.2979 1.8232 11.3796 1.99473 8.54468 1.84125C6.9557 1.76 5.15907 1.56137 4.71668 1.42595C4.64445 1.39886 4.5 1.43498 4.40972 1.5072ZM6.62165 2.47323C8.94193 2.717 14.2235 2.6538 16.0924 2.36489C16.4083 2.31975 16.6792 2.29267 16.6882 2.3017C16.7063 2.31975 16.6702 2.62671 16.616 2.98785L16.5167 3.63789H14.9277C13.2394 3.63789 11.9303 3.5476 10.4226 3.31287C9.14055 3.11424 9.15861 3.09619 9.42946 4.54975C9.58294 5.40743 9.63711 6.02136 9.63711 7.15893L9.64614 8.6486L8.33703 8.72083C7.61477 8.75694 6.61263 8.83819 6.10704 8.90139C5.59243 8.96459 5.17712 8.99168 5.17712 8.96459C5.17712 8.93751 5.24032 8.46803 5.31255 7.92633C5.48409 6.66237 5.48409 4.57683 5.31255 3.41218C5.13198 2.1753 5.12295 2.25656 5.5202 2.32878C5.70077 2.36489 6.19732 2.42809 6.62165 2.47323ZM11.9935 4.26987C14.5666 4.5046 18.53 4.45946 20.8232 4.16153C21.2565 4.10736 21.6357 4.08027 21.6538 4.10736C21.6718 4.12542 21.6267 4.48655 21.5455 4.90185C21.3468 5.94913 21.3468 8.89236 21.5455 9.9577C21.6267 10.373 21.6718 10.7341 21.6538 10.7522C21.6357 10.7703 21.2836 10.7432 20.8683 10.689C18.214 10.3369 13.3658 10.3369 10.9282 10.689C10.5399 10.7432 10.2059 10.7703 10.1788 10.7432C10.1517 10.7161 10.1878 10.2918 10.2691 9.7952C10.4587 8.63957 10.4587 6.23804 10.2781 5.0463C10.2059 4.54975 10.1427 4.13444 10.1427 4.10736C10.1427 4.0893 10.3594 4.09833 10.6212 4.12542C10.874 4.16153 11.4969 4.22473 11.9935 4.26987ZM4.35555 8.98265C4.22915 9.43406 4.25624 9.77714 4.41875 9.84034C4.5 9.86742 5.03267 9.82228 5.61048 9.74103C6.6668 9.58754 8.53566 9.41601 9.17667 9.41601C9.57391 9.41601 9.58294 9.45212 9.35723 10.6077C9.18569 11.5286 9.25792 11.7273 9.72739 11.637C12.6887 11.0411 18.7828 11.0411 22.0149 11.637C22.1774 11.6641 22.349 11.637 22.4483 11.5647C22.6108 11.4474 22.6108 11.4022 22.4212 10.4091C22.3219 9.84034 22.2135 9.28058 22.1865 9.16321C22.1052 8.78402 22.3038 8.96459 22.5927 9.52435C22.7914 9.92159 22.9719 10.5445 23.1886 11.5828C23.3511 12.4044 23.5317 13.244 23.5768 13.4517C23.631 13.6683 23.649 13.8399 23.631 13.8399C23.6129 13.8399 23.3331 13.6954 23.008 13.5149C21.9246 12.919 22.2497 12.937 13.8714 12.937C5.36672 12.937 5.5202 12.928 4.22915 13.569C3.83191 13.7586 3.29021 14.1107 3.03741 14.3364C2.77559 14.5712 2.55891 14.7066 2.55891 14.6434C2.55891 14.4267 3.47077 10.3188 3.6062 9.93965C3.74162 9.5424 4.27429 8.69374 4.38263 8.69374C4.41875 8.69374 4.40069 8.82917 4.35555 8.98265ZM21.8885 13.894C22.9358 14.21 23.6852 14.9323 24.0373 15.9886C24.263 16.6477 24.272 17.1533 24.0824 17.8214C23.7935 18.8235 23.0261 19.627 22.0149 19.9882C21.5455 20.1507 21.1753 20.1597 14.0068 20.1597C7.02793 20.1597 6.45914 20.1507 6.17024 19.9972C5.80911 19.8166 5.47506 19.3652 5.3938 18.9318C5.32158 18.5436 5.62854 17.8846 6.01676 17.6137L6.30566 17.4061L13.7811 17.3609C20.2905 17.3248 21.2656 17.2977 21.3378 17.1804C21.4642 16.9817 21.4461 16.8553 21.2836 16.6838C21.1572 16.5574 20.4079 16.5484 13.6818 16.5664L6.21538 16.5935L5.85425 16.7921C4.13887 17.7221 4.20207 20.0333 5.96259 20.8097C6.15218 20.9 8.20161 20.9361 14.7652 20.9722L23.306 21.0174L23.6581 21.2973C24.0644 21.6223 24.272 22.173 24.1907 22.6515C24.1095 23.0849 23.6581 23.5634 23.2247 23.6807C22.99 23.7439 20.0829 23.771 14.3228 23.753L5.76396 23.7259L5.13198 23.4731C3.0645 22.6425 1.81859 20.8549 1.81859 18.7152C1.80956 16.2595 3.46174 14.3455 6.03481 13.8038C6.13412 13.7857 9.62808 13.7677 13.8082 13.7586C20.5433 13.7496 21.4461 13.7677 21.8885 13.894Z" fill="#345E40"/>
<path d="M4.40972 1.5072C4.24721 1.62457 4.24721 1.66069 4.46389 2.78922C4.64445 3.76428 4.68057 4.23376 4.68057 5.63314V7.30338L4.12081 7.82702C3.49786 8.39581 3.01936 9.1271 2.80268 9.82228C2.72142 10.066 2.45057 11.2488 2.18875 12.4405C1.93596 13.6322 1.5658 15.3566 1.36718 16.2775C0.81645 18.8235 0.870619 19.8888 1.629 21.4237C2.12555 22.4258 3.18187 23.4641 4.19304 23.9516C5.54728 24.6016 5.23129 24.5836 14.6659 24.5836C22.0059 24.5836 23.1615 24.5655 23.5136 24.4481C24.8047 24.0058 25.3825 22.5341 24.7234 21.3514C24.4797 20.9 23.9921 20.4667 23.5588 20.3041C23.3963 20.25 23.4233 20.1958 23.7935 19.8166C24.3442 19.2388 24.5609 18.9048 24.7686 18.3089C25.1297 17.2526 25.1207 17.072 24.3623 13.3433C23.5858 9.49726 23.4414 9.0639 22.6018 8.12496L22.1323 7.60132L22.1413 6.77071C22.1503 6.05747 22.3941 4.26987 22.5566 3.68303C22.5837 3.58372 22.5566 3.42121 22.4844 3.33092C22.367 3.16841 22.3309 3.16841 21.4191 3.31287C19.5141 3.6108 17.2751 3.72817 17.2751 3.52052C17.2751 3.46635 17.3563 3.02396 17.4556 2.55449C17.6272 1.73291 17.6272 1.68777 17.4737 1.53429C17.3292 1.38984 17.248 1.38984 16.8778 1.47109C15.2979 1.8232 11.3796 1.99473 8.54468 1.84125C6.9557 1.76 5.15907 1.56137 4.71668 1.42595C4.64445 1.39886 4.5 1.43498 4.40972 1.5072ZM6.62165 2.47323C8.94193 2.717 14.2235 2.6538 16.0924 2.36489C16.4083 2.31975 16.6792 2.29267 16.6882 2.3017C16.7063 2.31975 16.6702 2.62671 16.616 2.98785L16.5167 3.63789H14.9277C13.2394 3.63789 11.9303 3.5476 10.4226 3.31287C9.14055 3.11424 9.15861 3.09619 9.42946 4.54975C9.58294 5.40743 9.63711 6.02136 9.63711 7.15893L9.64614 8.6486L8.33703 8.72083C7.61477 8.75694 6.61263 8.83819 6.10704 8.90139C5.59243 8.96459 5.17712 8.99168 5.17712 8.96459C5.17712 8.93751 5.24032 8.46803 5.31255 7.92633C5.48409 6.66237 5.48409 4.57683 5.31255 3.41218C5.13198 2.1753 5.12295 2.25656 5.5202 2.32878C5.70077 2.36489 6.19732 2.42809 6.62165 2.47323ZM11.9935 4.26987C14.5666 4.5046 18.53 4.45946 20.8232 4.16153C21.2565 4.10736 21.6357 4.08027 21.6538 4.10736C21.6718 4.12542 21.6267 4.48655 21.5455 4.90185C21.3468 5.94913 21.3468 8.89236 21.5455 9.9577C21.6267 10.373 21.6718 10.7341 21.6538 10.7522C21.6357 10.7703 21.2836 10.7432 20.8683 10.689C18.214 10.3369 13.3658 10.3369 10.9282 10.689C10.5399 10.7432 10.2059 10.7703 10.1788 10.7432C10.1517 10.7161 10.1878 10.2918 10.2691 9.7952C10.4587 8.63957 10.4587 6.23804 10.2781 5.0463C10.2059 4.54975 10.1427 4.13444 10.1427 4.10736C10.1427 4.0893 10.3594 4.09833 10.6212 4.12542C10.874 4.16153 11.4969 4.22473 11.9935 4.26987ZM4.35555 8.98265C4.22915 9.43406 4.25624 9.77714 4.41875 9.84034C4.5 9.86742 5.03267 9.82228 5.61048 9.74103C6.6668 9.58754 8.53566 9.41601 9.17667 9.41601C9.57391 9.41601 9.58294 9.45212 9.35723 10.6077C9.18569 11.5286 9.25792 11.7273 9.72739 11.637C12.6887 11.0411 18.7828 11.0411 22.0149 11.637C22.1774 11.6641 22.349 11.637 22.4483 11.5647C22.6108 11.4474 22.6108 11.4022 22.4212 10.4091C22.3219 9.84034 22.2135 9.28058 22.1865 9.16321C22.1052 8.78402 22.3038 8.96459 22.5927 9.52435C22.7914 9.92159 22.9719 10.5445 23.1886 11.5828C23.3511 12.4044 23.5317 13.244 23.5768 13.4517C23.631 13.6683 23.649 13.8399 23.631 13.8399C23.6129 13.8399 23.3331 13.6954 23.008 13.5149C21.9246 12.919 22.2497 12.937 13.8714 12.937C5.36672 12.937 5.5202 12.928 4.22915 13.569C3.83191 13.7586 3.29021 14.1107 3.03741 14.3364C2.77559 14.5712 2.55891 14.7066 2.55891 14.6434C2.55891 14.4267 3.47077 10.3188 3.6062 9.93965C3.74162 9.5424 4.27429 8.69374 4.38263 8.69374C4.41875 8.69374 4.40069 8.82917 4.35555 8.98265ZM21.8885 13.894C22.9358 14.21 23.6852 14.9323 24.0373 15.9886C24.263 16.6477 24.272 17.1533 24.0824 17.8214C23.7935 18.8235 23.0261 19.627 22.0149 19.9882C21.5455 20.1507 21.1753 20.1597 14.0068 20.1597C7.02793 20.1597 6.45914 20.1507 6.17024 19.9972C5.80911 19.8166 5.47506 19.3652 5.3938 18.9318C5.32158 18.5436 5.62854 17.8846 6.01676 17.6137L6.30566 17.4061L13.7811 17.3609C20.2905 17.3248 21.2656 17.2977 21.3378 17.1804C21.4642 16.9817 21.4461 16.8553 21.2836 16.6838C21.1572 16.5574 20.4079 16.5484 13.6818 16.5664L6.21538 16.5935L5.85425 16.7921C4.13887 17.7221 4.20207 20.0333 5.96259 20.8097C6.15218 20.9 8.20161 20.9361 14.7652 20.9722L23.306 21.0174L23.6581 21.2973C24.0644 21.6223 24.272 22.173 24.1907 22.6515C24.1095 23.0849 23.6581 23.5634 23.2247 23.6807C22.99 23.7439 20.0829 23.771 14.3228 23.753L5.76396 23.7259L5.13198 23.4731C3.0645 22.6425 1.81859 20.8549 1.81859 18.7152C1.80956 16.2595 3.46174 14.3455 6.03481 13.8038C6.13412 13.7857 9.62808 13.7677 13.8082 13.7586C20.5433 13.7496 21.4461 13.7677 21.8885 13.894Z" fill="black" fill-opacity="0.2"/>
<path d="M4.40972 1.5072C4.24721 1.62457 4.24721 1.66069 4.46389 2.78922C4.64445 3.76428 4.68057 4.23376 4.68057 5.63314V7.30338L4.12081 7.82702C3.49786 8.39581 3.01936 9.1271 2.80268 9.82228C2.72142 10.066 2.45057 11.2488 2.18875 12.4405C1.93596 13.6322 1.5658 15.3566 1.36718 16.2775C0.81645 18.8235 0.870619 19.8888 1.629 21.4237C2.12555 22.4258 3.18187 23.4641 4.19304 23.9516C5.54728 24.6016 5.23129 24.5836 14.6659 24.5836C22.0059 24.5836 23.1615 24.5655 23.5136 24.4481C24.8047 24.0058 25.3825 22.5341 24.7234 21.3514C24.4797 20.9 23.9921 20.4667 23.5588 20.3041C23.3963 20.25 23.4233 20.1958 23.7935 19.8166C24.3442 19.2388 24.5609 18.9048 24.7686 18.3089C25.1297 17.2526 25.1207 17.072 24.3623 13.3433C23.5858 9.49726 23.4414 9.0639 22.6018 8.12496L22.1323 7.60132L22.1413 6.77071C22.1503 6.05747 22.3941 4.26987 22.5566 3.68303C22.5837 3.58372 22.5566 3.42121 22.4844 3.33092C22.367 3.16841 22.3309 3.16841 21.4191 3.31287C19.5141 3.6108 17.2751 3.72817 17.2751 3.52052C17.2751 3.46635 17.3563 3.02396 17.4556 2.55449C17.6272 1.73291 17.6272 1.68777 17.4737 1.53429C17.3292 1.38984 17.248 1.38984 16.8778 1.47109C15.2979 1.8232 11.3796 1.99473 8.54468 1.84125C6.9557 1.76 5.15907 1.56137 4.71668 1.42595C4.64445 1.39886 4.5 1.43498 4.40972 1.5072ZM6.62165 2.47323C8.94193 2.717 14.2235 2.6538 16.0924 2.36489C16.4083 2.31975 16.6792 2.29267 16.6882 2.3017C16.7063 2.31975 16.6702 2.62671 16.616 2.98785L16.5167 3.63789H14.9277C13.2394 3.63789 11.9303 3.5476 10.4226 3.31287C9.14055 3.11424 9.15861 3.09619 9.42946 4.54975C9.58294 5.40743 9.63711 6.02136 9.63711 7.15893L9.64614 8.6486L8.33703 8.72083C7.61477 8.75694 6.61263 8.83819 6.10704 8.90139C5.59243 8.96459 5.17712 8.99168 5.17712 8.96459C5.17712 8.93751 5.24032 8.46803 5.31255 7.92633C5.48409 6.66237 5.48409 4.57683 5.31255 3.41218C5.13198 2.1753 5.12295 2.25656 5.5202 2.32878C5.70077 2.36489 6.19732 2.42809 6.62165 2.47323ZM11.9935 4.26987C14.5666 4.5046 18.53 4.45946 20.8232 4.16153C21.2565 4.10736 21.6357 4.08027 21.6538 4.10736C21.6718 4.12542 21.6267 4.48655 21.5455 4.90185C21.3468 5.94913 21.3468 8.89236 21.5455 9.9577C21.6267 10.373 21.6718 10.7341 21.6538 10.7522C21.6357 10.7703 21.2836 10.7432 20.8683 10.689C18.214 10.3369 13.3658 10.3369 10.9282 10.689C10.5399 10.7432 10.2059 10.7703 10.1788 10.7432C10.1517 10.7161 10.1878 10.2918 10.2691 9.7952C10.4587 8.63957 10.4587 6.23804 10.2781 5.0463C10.2059 4.54975 10.1427 4.13444 10.1427 4.10736C10.1427 4.0893 10.3594 4.09833 10.6212 4.12542C10.874 4.16153 11.4969 4.22473 11.9935 4.26987ZM4.35555 8.98265C4.22915 9.43406 4.25624 9.77714 4.41875 9.84034C4.5 9.86742 5.03267 9.82228 5.61048 9.74103C6.6668 9.58754 8.53566 9.41601 9.17667 9.41601C9.57391 9.41601 9.58294 9.45212 9.35723 10.6077C9.18569 11.5286 9.25792 11.7273 9.72739 11.637C12.6887 11.0411 18.7828 11.0411 22.0149 11.637C22.1774 11.6641 22.349 11.637 22.4483 11.5647C22.6108 11.4474 22.6108 11.4022 22.4212 10.4091C22.3219 9.84034 22.2135 9.28058 22.1865 9.16321C22.1052 8.78402 22.3038 8.96459 22.5927 9.52435C22.7914 9.92159 22.9719 10.5445 23.1886 11.5828C23.3511 12.4044 23.5317 13.244 23.5768 13.4517C23.631 13.6683 23.649 13.8399 23.631 13.8399C23.6129 13.8399 23.3331 13.6954 23.008 13.5149C21.9246 12.919 22.2497 12.937 13.8714 12.937C5.36672 12.937 5.5202 12.928 4.22915 13.569C3.83191 13.7586 3.29021 14.1107 3.03741 14.3364C2.77559 14.5712 2.55891 14.7066 2.55891 14.6434C2.55891 14.4267 3.47077 10.3188 3.6062 9.93965C3.74162 9.5424 4.27429 8.69374 4.38263 8.69374C4.41875 8.69374 4.40069 8.82917 4.35555 8.98265ZM21.8885 13.894C22.9358 14.21 23.6852 14.9323 24.0373 15.9886C24.263 16.6477 24.272 17.1533 24.0824 17.8214C23.7935 18.8235 23.0261 19.627 22.0149 19.9882C21.5455 20.1507 21.1753 20.1597 14.0068 20.1597C7.02793 20.1597 6.45914 20.1507 6.17024 19.9972C5.80911 19.8166 5.47506 19.3652 5.3938 18.9318C5.32158 18.5436 5.62854 17.8846 6.01676 17.6137L6.30566 17.4061L13.7811 17.3609C20.2905 17.3248 21.2656 17.2977 21.3378 17.1804C21.4642 16.9817 21.4461 16.8553 21.2836 16.6838C21.1572 16.5574 20.4079 16.5484 13.6818 16.5664L6.21538 16.5935L5.85425 16.7921C4.13887 17.7221 4.20207 20.0333 5.96259 20.8097C6.15218 20.9 8.20161 20.9361 14.7652 20.9722L23.306 21.0174L23.6581 21.2973C24.0644 21.6223 24.272 22.173 24.1907 22.6515C24.1095 23.0849 23.6581 23.5634 23.2247 23.6807C22.99 23.7439 20.0829 23.771 14.3228 23.753L5.76396 23.7259L5.13198 23.4731C3.0645 22.6425 1.81859 20.8549 1.81859 18.7152C1.80956 16.2595 3.46174 14.3455 6.03481 13.8038C6.13412 13.7857 9.62808 13.7677 13.8082 13.7586C20.5433 13.7496 21.4461 13.7677 21.8885 13.894Z" fill="black" fill-opacity="0.2"/>
<path d="M4.40972 1.5072C4.24721 1.62457 4.24721 1.66069 4.46389 2.78922C4.64445 3.76428 4.68057 4.23376 4.68057 5.63314V7.30338L4.12081 7.82702C3.49786 8.39581 3.01936 9.1271 2.80268 9.82228C2.72142 10.066 2.45057 11.2488 2.18875 12.4405C1.93596 13.6322 1.5658 15.3566 1.36718 16.2775C0.81645 18.8235 0.870619 19.8888 1.629 21.4237C2.12555 22.4258 3.18187 23.4641 4.19304 23.9516C5.54728 24.6016 5.23129 24.5836 14.6659 24.5836C22.0059 24.5836 23.1615 24.5655 23.5136 24.4481C24.8047 24.0058 25.3825 22.5341 24.7234 21.3514C24.4797 20.9 23.9921 20.4667 23.5588 20.3041C23.3963 20.25 23.4233 20.1958 23.7935 19.8166C24.3442 19.2388 24.5609 18.9048 24.7686 18.3089C25.1297 17.2526 25.1207 17.072 24.3623 13.3433C23.5858 9.49726 23.4414 9.0639 22.6018 8.12496L22.1323 7.60132L22.1413 6.77071C22.1503 6.05747 22.3941 4.26987 22.5566 3.68303C22.5837 3.58372 22.5566 3.42121 22.4844 3.33092C22.367 3.16841 22.3309 3.16841 21.4191 3.31287C19.5141 3.6108 17.2751 3.72817 17.2751 3.52052C17.2751 3.46635 17.3563 3.02396 17.4556 2.55449C17.6272 1.73291 17.6272 1.68777 17.4737 1.53429C17.3292 1.38984 17.248 1.38984 16.8778 1.47109C15.2979 1.8232 11.3796 1.99473 8.54468 1.84125C6.9557 1.76 5.15907 1.56137 4.71668 1.42595C4.64445 1.39886 4.5 1.43498 4.40972 1.5072ZM6.62165 2.47323C8.94193 2.717 14.2235 2.6538 16.0924 2.36489C16.4083 2.31975 16.6792 2.29267 16.6882 2.3017C16.7063 2.31975 16.6702 2.62671 16.616 2.98785L16.5167 3.63789H14.9277C13.2394 3.63789 11.9303 3.5476 10.4226 3.31287C9.14055 3.11424 9.15861 3.09619 9.42946 4.54975C9.58294 5.40743 9.63711 6.02136 9.63711 7.15893L9.64614 8.6486L8.33703 8.72083C7.61477 8.75694 6.61263 8.83819 6.10704 8.90139C5.59243 8.96459 5.17712 8.99168 5.17712 8.96459C5.17712 8.93751 5.24032 8.46803 5.31255 7.92633C5.48409 6.66237 5.48409 4.57683 5.31255 3.41218C5.13198 2.1753 5.12295 2.25656 5.5202 2.32878C5.70077 2.36489 6.19732 2.42809 6.62165 2.47323ZM11.9935 4.26987C14.5666 4.5046 18.53 4.45946 20.8232 4.16153C21.2565 4.10736 21.6357 4.08027 21.6538 4.10736C21.6718 4.12542 21.6267 4.48655 21.5455 4.90185C21.3468 5.94913 21.3468 8.89236 21.5455 9.9577C21.6267 10.373 21.6718 10.7341 21.6538 10.7522C21.6357 10.7703 21.2836 10.7432 20.8683 10.689C18.214 10.3369 13.3658 10.3369 10.9282 10.689C10.5399 10.7432 10.2059 10.7703 10.1788 10.7432C10.1517 10.7161 10.1878 10.2918 10.2691 9.7952C10.4587 8.63957 10.4587 6.23804 10.2781 5.0463C10.2059 4.54975 10.1427 4.13444 10.1427 4.10736C10.1427 4.0893 10.3594 4.09833 10.6212 4.12542C10.874 4.16153 11.4969 4.22473 11.9935 4.26987ZM4.35555 8.98265C4.22915 9.43406 4.25624 9.77714 4.41875 9.84034C4.5 9.86742 5.03267 9.82228 5.61048 9.74103C6.6668 9.58754 8.53566 9.41601 9.17667 9.41601C9.57391 9.41601 9.58294 9.45212 9.35723 10.6077C9.18569 11.5286 9.25792 11.7273 9.72739 11.637C12.6887 11.0411 18.7828 11.0411 22.0149 11.637C22.1774 11.6641 22.349 11.637 22.4483 11.5647C22.6108 11.4474 22.6108 11.4022 22.4212 10.4091C22.3219 9.84034 22.2135 9.28058 22.1865 9.16321C22.1052 8.78402 22.3038 8.96459 22.5927 9.52435C22.7914 9.92159 22.9719 10.5445 23.1886 11.5828C23.3511 12.4044 23.5317 13.244 23.5768 13.4517C23.631 13.6683 23.649 13.8399 23.631 13.8399C23.6129 13.8399 23.3331 13.6954 23.008 13.5149C21.9246 12.919 22.2497 12.937 13.8714 12.937C5.36672 12.937 5.5202 12.928 4.22915 13.569C3.83191 13.7586 3.29021 14.1107 3.03741 14.3364C2.77559 14.5712 2.55891 14.7066 2.55891 14.6434C2.55891 14.4267 3.47077 10.3188 3.6062 9.93965C3.74162 9.5424 4.27429 8.69374 4.38263 8.69374C4.41875 8.69374 4.40069 8.82917 4.35555 8.98265ZM21.8885 13.894C22.9358 14.21 23.6852 14.9323 24.0373 15.9886C24.263 16.6477 24.272 17.1533 24.0824 17.8214C23.7935 18.8235 23.0261 19.627 22.0149 19.9882C21.5455 20.1507 21.1753 20.1597 14.0068 20.1597C7.02793 20.1597 6.45914 20.1507 6.17024 19.9972C5.80911 19.8166 5.47506 19.3652 5.3938 18.9318C5.32158 18.5436 5.62854 17.8846 6.01676 17.6137L6.30566 17.4061L13.7811 17.3609C20.2905 17.3248 21.2656 17.2977 21.3378 17.1804C21.4642 16.9817 21.4461 16.8553 21.2836 16.6838C21.1572 16.5574 20.4079 16.5484 13.6818 16.5664L6.21538 16.5935L5.85425 16.7921C4.13887 17.7221 4.20207 20.0333 5.96259 20.8097C6.15218 20.9 8.20161 20.9361 14.7652 20.9722L23.306 21.0174L23.6581 21.2973C24.0644 21.6223 24.272 22.173 24.1907 22.6515C24.1095 23.0849 23.6581 23.5634 23.2247 23.6807C22.99 23.7439 20.0829 23.771 14.3228 23.753L5.76396 23.7259L5.13198 23.4731C3.0645 22.6425 1.81859 20.8549 1.81859 18.7152C1.80956 16.2595 3.46174 14.3455 6.03481 13.8038C6.13412 13.7857 9.62808 13.7677 13.8082 13.7586C20.5433 13.7496 21.4461 13.7677 21.8885 13.894Z" fill="black" fill-opacity="0.2"/>
<path d="M4.40972 1.5072C4.24721 1.62457 4.24721 1.66069 4.46389 2.78922C4.64445 3.76428 4.68057 4.23376 4.68057 5.63314V7.30338L4.12081 7.82702C3.49786 8.39581 3.01936 9.1271 2.80268 9.82228C2.72142 10.066 2.45057 11.2488 2.18875 12.4405C1.93596 13.6322 1.5658 15.3566 1.36718 16.2775C0.81645 18.8235 0.870619 19.8888 1.629 21.4237C2.12555 22.4258 3.18187 23.4641 4.19304 23.9516C5.54728 24.6016 5.23129 24.5836 14.6659 24.5836C22.0059 24.5836 23.1615 24.5655 23.5136 24.4481C24.8047 24.0058 25.3825 22.5341 24.7234 21.3514C24.4797 20.9 23.9921 20.4667 23.5588 20.3041C23.3963 20.25 23.4233 20.1958 23.7935 19.8166C24.3442 19.2388 24.5609 18.9048 24.7686 18.3089C25.1297 17.2526 25.1207 17.072 24.3623 13.3433C23.5858 9.49726 23.4414 9.0639 22.6018 8.12496L22.1323 7.60132L22.1413 6.77071C22.1503 6.05747 22.3941 4.26987 22.5566 3.68303C22.5837 3.58372 22.5566 3.42121 22.4844 3.33092C22.367 3.16841 22.3309 3.16841 21.4191 3.31287C19.5141 3.6108 17.2751 3.72817 17.2751 3.52052C17.2751 3.46635 17.3563 3.02396 17.4556 2.55449C17.6272 1.73291 17.6272 1.68777 17.4737 1.53429C17.3292 1.38984 17.248 1.38984 16.8778 1.47109C15.2979 1.8232 11.3796 1.99473 8.54468 1.84125C6.9557 1.76 5.15907 1.56137 4.71668 1.42595C4.64445 1.39886 4.5 1.43498 4.40972 1.5072ZM6.62165 2.47323C8.94193 2.717 14.2235 2.6538 16.0924 2.36489C16.4083 2.31975 16.6792 2.29267 16.6882 2.3017C16.7063 2.31975 16.6702 2.62671 16.616 2.98785L16.5167 3.63789H14.9277C13.2394 3.63789 11.9303 3.5476 10.4226 3.31287C9.14055 3.11424 9.15861 3.09619 9.42946 4.54975C9.58294 5.40743 9.63711 6.02136 9.63711 7.15893L9.64614 8.6486L8.33703 8.72083C7.61477 8.75694 6.61263 8.83819 6.10704 8.90139C5.59243 8.96459 5.17712 8.99168 5.17712 8.96459C5.17712 8.93751 5.24032 8.46803 5.31255 7.92633C5.48409 6.66237 5.48409 4.57683 5.31255 3.41218C5.13198 2.1753 5.12295 2.25656 5.5202 2.32878C5.70077 2.36489 6.19732 2.42809 6.62165 2.47323ZM11.9935 4.26987C14.5666 4.5046 18.53 4.45946 20.8232 4.16153C21.2565 4.10736 21.6357 4.08027 21.6538 4.10736C21.6718 4.12542 21.6267 4.48655 21.5455 4.90185C21.3468 5.94913 21.3468 8.89236 21.5455 9.9577C21.6267 10.373 21.6718 10.7341 21.6538 10.7522C21.6357 10.7703 21.2836 10.7432 20.8683 10.689C18.214 10.3369 13.3658 10.3369 10.9282 10.689C10.5399 10.7432 10.2059 10.7703 10.1788 10.7432C10.1517 10.7161 10.1878 10.2918 10.2691 9.7952C10.4587 8.63957 10.4587 6.23804 10.2781 5.0463C10.2059 4.54975 10.1427 4.13444 10.1427 4.10736C10.1427 4.0893 10.3594 4.09833 10.6212 4.12542C10.874 4.16153 11.4969 4.22473 11.9935 4.26987ZM4.35555 8.98265C4.22915 9.43406 4.25624 9.77714 4.41875 9.84034C4.5 9.86742 5.03267 9.82228 5.61048 9.74103C6.6668 9.58754 8.53566 9.41601 9.17667 9.41601C9.57391 9.41601 9.58294 9.45212 9.35723 10.6077C9.18569 11.5286 9.25792 11.7273 9.72739 11.637C12.6887 11.0411 18.7828 11.0411 22.0149 11.637C22.1774 11.6641 22.349 11.637 22.4483 11.5647C22.6108 11.4474 22.6108 11.4022 22.4212 10.4091C22.3219 9.84034 22.2135 9.28058 22.1865 9.16321C22.1052 8.78402 22.3038 8.96459 22.5927 9.52435C22.7914 9.92159 22.9719 10.5445 23.1886 11.5828C23.3511 12.4044 23.5317 13.244 23.5768 13.4517C23.631 13.6683 23.649 13.8399 23.631 13.8399C23.6129 13.8399 23.3331 13.6954 23.008 13.5149C21.9246 12.919 22.2497 12.937 13.8714 12.937C5.36672 12.937 5.5202 12.928 4.22915 13.569C3.83191 13.7586 3.29021 14.1107 3.03741 14.3364C2.77559 14.5712 2.55891 14.7066 2.55891 14.6434C2.55891 14.4267 3.47077 10.3188 3.6062 9.93965C3.74162 9.5424 4.27429 8.69374 4.38263 8.69374C4.41875 8.69374 4.40069 8.82917 4.35555 8.98265ZM21.8885 13.894C22.9358 14.21 23.6852 14.9323 24.0373 15.9886C24.263 16.6477 24.272 17.1533 24.0824 17.8214C23.7935 18.8235 23.0261 19.627 22.0149 19.9882C21.5455 20.1507 21.1753 20.1597 14.0068 20.1597C7.02793 20.1597 6.45914 20.1507 6.17024 19.9972C5.80911 19.8166 5.47506 19.3652 5.3938 18.9318C5.32158 18.5436 5.62854 17.8846 6.01676 17.6137L6.30566 17.4061L13.7811 17.3609C20.2905 17.3248 21.2656 17.2977 21.3378 17.1804C21.4642 16.9817 21.4461 16.8553 21.2836 16.6838C21.1572 16.5574 20.4079 16.5484 13.6818 16.5664L6.21538 16.5935L5.85425 16.7921C4.13887 17.7221 4.20207 20.0333 5.96259 20.8097C6.15218 20.9 8.20161 20.9361 14.7652 20.9722L23.306 21.0174L23.6581 21.2973C24.0644 21.6223 24.272 22.173 24.1907 22.6515C24.1095 23.0849 23.6581 23.5634 23.2247 23.6807C22.99 23.7439 20.0829 23.771 14.3228 23.753L5.76396 23.7259L5.13198 23.4731C3.0645 22.6425 1.81859 20.8549 1.81859 18.7152C1.80956 16.2595 3.46174 14.3455 6.03481 13.8038C6.13412 13.7857 9.62808 13.7677 13.8082 13.7586C20.5433 13.7496 21.4461 13.7677 21.8885 13.894Z" fill="black" fill-opacity="0.2"/>
<path d="M4.40972 1.5072C4.24721 1.62457 4.24721 1.66069 4.46389 2.78922C4.64445 3.76428 4.68057 4.23376 4.68057 5.63314V7.30338L4.12081 7.82702C3.49786 8.39581 3.01936 9.1271 2.80268 9.82228C2.72142 10.066 2.45057 11.2488 2.18875 12.4405C1.93596 13.6322 1.5658 15.3566 1.36718 16.2775C0.81645 18.8235 0.870619 19.8888 1.629 21.4237C2.12555 22.4258 3.18187 23.4641 4.19304 23.9516C5.54728 24.6016 5.23129 24.5836 14.6659 24.5836C22.0059 24.5836 23.1615 24.5655 23.5136 24.4481C24.8047 24.0058 25.3825 22.5341 24.7234 21.3514C24.4797 20.9 23.9921 20.4667 23.5588 20.3041C23.3963 20.25 23.4233 20.1958 23.7935 19.8166C24.3442 19.2388 24.5609 18.9048 24.7686 18.3089C25.1297 17.2526 25.1207 17.072 24.3623 13.3433C23.5858 9.49726 23.4414 9.0639 22.6018 8.12496L22.1323 7.60132L22.1413 6.77071C22.1503 6.05747 22.3941 4.26987 22.5566 3.68303C22.5837 3.58372 22.5566 3.42121 22.4844 3.33092C22.367 3.16841 22.3309 3.16841 21.4191 3.31287C19.5141 3.6108 17.2751 3.72817 17.2751 3.52052C17.2751 3.46635 17.3563 3.02396 17.4556 2.55449C17.6272 1.73291 17.6272 1.68777 17.4737 1.53429C17.3292 1.38984 17.248 1.38984 16.8778 1.47109C15.2979 1.8232 11.3796 1.99473 8.54468 1.84125C6.9557 1.76 5.15907 1.56137 4.71668 1.42595C4.64445 1.39886 4.5 1.43498 4.40972 1.5072ZM6.62165 2.47323C8.94193 2.717 14.2235 2.6538 16.0924 2.36489C16.4083 2.31975 16.6792 2.29267 16.6882 2.3017C16.7063 2.31975 16.6702 2.62671 16.616 2.98785L16.5167 3.63789H14.9277C13.2394 3.63789 11.9303 3.5476 10.4226 3.31287C9.14055 3.11424 9.15861 3.09619 9.42946 4.54975C9.58294 5.40743 9.63711 6.02136 9.63711 7.15893L9.64614 8.6486L8.33703 8.72083C7.61477 8.75694 6.61263 8.83819 6.10704 8.90139C5.59243 8.96459 5.17712 8.99168 5.17712 8.96459C5.17712 8.93751 5.24032 8.46803 5.31255 7.92633C5.48409 6.66237 5.48409 4.57683 5.31255 3.41218C5.13198 2.1753 5.12295 2.25656 5.5202 2.32878C5.70077 2.36489 6.19732 2.42809 6.62165 2.47323ZM11.9935 4.26987C14.5666 4.5046 18.53 4.45946 20.8232 4.16153C21.2565 4.10736 21.6357 4.08027 21.6538 4.10736C21.6718 4.12542 21.6267 4.48655 21.5455 4.90185C21.3468 5.94913 21.3468 8.89236 21.5455 9.9577C21.6267 10.373 21.6718 10.7341 21.6538 10.7522C21.6357 10.7703 21.2836 10.7432 20.8683 10.689C18.214 10.3369 13.3658 10.3369 10.9282 10.689C10.5399 10.7432 10.2059 10.7703 10.1788 10.7432C10.1517 10.7161 10.1878 10.2918 10.2691 9.7952C10.4587 8.63957 10.4587 6.23804 10.2781 5.0463C10.2059 4.54975 10.1427 4.13444 10.1427 4.10736C10.1427 4.0893 10.3594 4.09833 10.6212 4.12542C10.874 4.16153 11.4969 4.22473 11.9935 4.26987ZM4.35555 8.98265C4.22915 9.43406 4.25624 9.77714 4.41875 9.84034C4.5 9.86742 5.03267 9.82228 5.61048 9.74103C6.6668 9.58754 8.53566 9.41601 9.17667 9.41601C9.57391 9.41601 9.58294 9.45212 9.35723 10.6077C9.18569 11.5286 9.25792 11.7273 9.72739 11.637C12.6887 11.0411 18.7828 11.0411 22.0149 11.637C22.1774 11.6641 22.349 11.637 22.4483 11.5647C22.6108 11.4474 22.6108 11.4022 22.4212 10.4091C22.3219 9.84034 22.2135 9.28058 22.1865 9.16321C22.1052 8.78402 22.3038 8.96459 22.5927 9.52435C22.7914 9.92159 22.9719 10.5445 23.1886 11.5828C23.3511 12.4044 23.5317 13.244 23.5768 13.4517C23.631 13.6683 23.649 13.8399 23.631 13.8399C23.6129 13.8399 23.3331 13.6954 23.008 13.5149C21.9246 12.919 22.2497 12.937 13.8714 12.937C5.36672 12.937 5.5202 12.928 4.22915 13.569C3.83191 13.7586 3.29021 14.1107 3.03741 14.3364C2.77559 14.5712 2.55891 14.7066 2.55891 14.6434C2.55891 14.4267 3.47077 10.3188 3.6062 9.93965C3.74162 9.5424 4.27429 8.69374 4.38263 8.69374C4.41875 8.69374 4.40069 8.82917 4.35555 8.98265ZM21.8885 13.894C22.9358 14.21 23.6852 14.9323 24.0373 15.9886C24.263 16.6477 24.272 17.1533 24.0824 17.8214C23.7935 18.8235 23.0261 19.627 22.0149 19.9882C21.5455 20.1507 21.1753 20.1597 14.0068 20.1597C7.02793 20.1597 6.45914 20.1507 6.17024 19.9972C5.80911 19.8166 5.47506 19.3652 5.3938 18.9318C5.32158 18.5436 5.62854 17.8846 6.01676 17.6137L6.30566 17.4061L13.7811 17.3609C20.2905 17.3248 21.2656 17.2977 21.3378 17.1804C21.4642 16.9817 21.4461 16.8553 21.2836 16.6838C21.1572 16.5574 20.4079 16.5484 13.6818 16.5664L6.21538 16.5935L5.85425 16.7921C4.13887 17.7221 4.20207 20.0333 5.96259 20.8097C6.15218 20.9 8.20161 20.9361 14.7652 20.9722L23.306 21.0174L23.6581 21.2973C24.0644 21.6223 24.272 22.173 24.1907 22.6515C24.1095 23.0849 23.6581 23.5634 23.2247 23.6807C22.99 23.7439 20.0829 23.771 14.3228 23.753L5.76396 23.7259L5.13198 23.4731C3.0645 22.6425 1.81859 20.8549 1.81859 18.7152C1.80956 16.2595 3.46174 14.3455 6.03481 13.8038C6.13412 13.7857 9.62808 13.7677 13.8082 13.7586C20.5433 13.7496 21.4461 13.7677 21.8885 13.894Z" stroke="#345E40"/>
<path d="M4.40972 1.5072C4.24721 1.62457 4.24721 1.66069 4.46389 2.78922C4.64445 3.76428 4.68057 4.23376 4.68057 5.63314V7.30338L4.12081 7.82702C3.49786 8.39581 3.01936 9.1271 2.80268 9.82228C2.72142 10.066 2.45057 11.2488 2.18875 12.4405C1.93596 13.6322 1.5658 15.3566 1.36718 16.2775C0.81645 18.8235 0.870619 19.8888 1.629 21.4237C2.12555 22.4258 3.18187 23.4641 4.19304 23.9516C5.54728 24.6016 5.23129 24.5836 14.6659 24.5836C22.0059 24.5836 23.1615 24.5655 23.5136 24.4481C24.8047 24.0058 25.3825 22.5341 24.7234 21.3514C24.4797 20.9 23.9921 20.4667 23.5588 20.3041C23.3963 20.25 23.4233 20.1958 23.7935 19.8166C24.3442 19.2388 24.5609 18.9048 24.7686 18.3089C25.1297 17.2526 25.1207 17.072 24.3623 13.3433C23.5858 9.49726 23.4414 9.0639 22.6018 8.12496L22.1323 7.60132L22.1413 6.77071C22.1503 6.05747 22.3941 4.26987 22.5566 3.68303C22.5837 3.58372 22.5566 3.42121 22.4844 3.33092C22.367 3.16841 22.3309 3.16841 21.4191 3.31287C19.5141 3.6108 17.2751 3.72817 17.2751 3.52052C17.2751 3.46635 17.3563 3.02396 17.4556 2.55449C17.6272 1.73291 17.6272 1.68777 17.4737 1.53429C17.3292 1.38984 17.248 1.38984 16.8778 1.47109C15.2979 1.8232 11.3796 1.99473 8.54468 1.84125C6.9557 1.76 5.15907 1.56137 4.71668 1.42595C4.64445 1.39886 4.5 1.43498 4.40972 1.5072ZM6.62165 2.47323C8.94193 2.717 14.2235 2.6538 16.0924 2.36489C16.4083 2.31975 16.6792 2.29267 16.6882 2.3017C16.7063 2.31975 16.6702 2.62671 16.616 2.98785L16.5167 3.63789H14.9277C13.2394 3.63789 11.9303 3.5476 10.4226 3.31287C9.14055 3.11424 9.15861 3.09619 9.42946 4.54975C9.58294 5.40743 9.63711 6.02136 9.63711 7.15893L9.64614 8.6486L8.33703 8.72083C7.61477 8.75694 6.61263 8.83819 6.10704 8.90139C5.59243 8.96459 5.17712 8.99168 5.17712 8.96459C5.17712 8.93751 5.24032 8.46803 5.31255 7.92633C5.48409 6.66237 5.48409 4.57683 5.31255 3.41218C5.13198 2.1753 5.12295 2.25656 5.5202 2.32878C5.70077 2.36489 6.19732 2.42809 6.62165 2.47323ZM11.9935 4.26987C14.5666 4.5046 18.53 4.45946 20.8232 4.16153C21.2565 4.10736 21.6357 4.08027 21.6538 4.10736C21.6718 4.12542 21.6267 4.48655 21.5455 4.90185C21.3468 5.94913 21.3468 8.89236 21.5455 9.9577C21.6267 10.373 21.6718 10.7341 21.6538 10.7522C21.6357 10.7703 21.2836 10.7432 20.8683 10.689C18.214 10.3369 13.3658 10.3369 10.9282 10.689C10.5399 10.7432 10.2059 10.7703 10.1788 10.7432C10.1517 10.7161 10.1878 10.2918 10.2691 9.7952C10.4587 8.63957 10.4587 6.23804 10.2781 5.0463C10.2059 4.54975 10.1427 4.13444 10.1427 4.10736C10.1427 4.0893 10.3594 4.09833 10.6212 4.12542C10.874 4.16153 11.4969 4.22473 11.9935 4.26987ZM4.35555 8.98265C4.22915 9.43406 4.25624 9.77714 4.41875 9.84034C4.5 9.86742 5.03267 9.82228 5.61048 9.74103C6.6668 9.58754 8.53566 9.41601 9.17667 9.41601C9.57391 9.41601 9.58294 9.45212 9.35723 10.6077C9.18569 11.5286 9.25792 11.7273 9.72739 11.637C12.6887 11.0411 18.7828 11.0411 22.0149 11.637C22.1774 11.6641 22.349 11.637 22.4483 11.5647C22.6108 11.4474 22.6108 11.4022 22.4212 10.4091C22.3219 9.84034 22.2135 9.28058 22.1865 9.16321C22.1052 8.78402 22.3038 8.96459 22.5927 9.52435C22.7914 9.92159 22.9719 10.5445 23.1886 11.5828C23.3511 12.4044 23.5317 13.244 23.5768 13.4517C23.631 13.6683 23.649 13.8399 23.631 13.8399C23.6129 13.8399 23.3331 13.6954 23.008 13.5149C21.9246 12.919 22.2497 12.937 13.8714 12.937C5.36672 12.937 5.5202 12.928 4.22915 13.569C3.83191 13.7586 3.29021 14.1107 3.03741 14.3364C2.77559 14.5712 2.55891 14.7066 2.55891 14.6434C2.55891 14.4267 3.47077 10.3188 3.6062 9.93965C3.74162 9.5424 4.27429 8.69374 4.38263 8.69374C4.41875 8.69374 4.40069 8.82917 4.35555 8.98265ZM21.8885 13.894C22.9358 14.21 23.6852 14.9323 24.0373 15.9886C24.263 16.6477 24.272 17.1533 24.0824 17.8214C23.7935 18.8235 23.0261 19.627 22.0149 19.9882C21.5455 20.1507 21.1753 20.1597 14.0068 20.1597C7.02793 20.1597 6.45914 20.1507 6.17024 19.9972C5.80911 19.8166 5.47506 19.3652 5.3938 18.9318C5.32158 18.5436 5.62854 17.8846 6.01676 17.6137L6.30566 17.4061L13.7811 17.3609C20.2905 17.3248 21.2656 17.2977 21.3378 17.1804C21.4642 16.9817 21.4461 16.8553 21.2836 16.6838C21.1572 16.5574 20.4079 16.5484 13.6818 16.5664L6.21538 16.5935L5.85425 16.7921C4.13887 17.7221 4.20207 20.0333 5.96259 20.8097C6.15218 20.9 8.20161 20.9361 14.7652 20.9722L23.306 21.0174L23.6581 21.2973C24.0644 21.6223 24.272 22.173 24.1907 22.6515C24.1095 23.0849 23.6581 23.5634 23.2247 23.6807C22.99 23.7439 20.0829 23.771 14.3228 23.753L5.76396 23.7259L5.13198 23.4731C3.0645 22.6425 1.81859 20.8549 1.81859 18.7152C1.80956 16.2595 3.46174 14.3455 6.03481 13.8038C6.13412 13.7857 9.62808 13.7677 13.8082 13.7586C20.5433 13.7496 21.4461 13.7677 21.8885 13.894Z" stroke="black" stroke-opacity="0.2"/>
<path d="M4.40972 1.5072C4.24721 1.62457 4.24721 1.66069 4.46389 2.78922C4.64445 3.76428 4.68057 4.23376 4.68057 5.63314V7.30338L4.12081 7.82702C3.49786 8.39581 3.01936 9.1271 2.80268 9.82228C2.72142 10.066 2.45057 11.2488 2.18875 12.4405C1.93596 13.6322 1.5658 15.3566 1.36718 16.2775C0.81645 18.8235 0.870619 19.8888 1.629 21.4237C2.12555 22.4258 3.18187 23.4641 4.19304 23.9516C5.54728 24.6016 5.23129 24.5836 14.6659 24.5836C22.0059 24.5836 23.1615 24.5655 23.5136 24.4481C24.8047 24.0058 25.3825 22.5341 24.7234 21.3514C24.4797 20.9 23.9921 20.4667 23.5588 20.3041C23.3963 20.25 23.4233 20.1958 23.7935 19.8166C24.3442 19.2388 24.5609 18.9048 24.7686 18.3089C25.1297 17.2526 25.1207 17.072 24.3623 13.3433C23.5858 9.49726 23.4414 9.0639 22.6018 8.12496L22.1323 7.60132L22.1413 6.77071C22.1503 6.05747 22.3941 4.26987 22.5566 3.68303C22.5837 3.58372 22.5566 3.42121 22.4844 3.33092C22.367 3.16841 22.3309 3.16841 21.4191 3.31287C19.5141 3.6108 17.2751 3.72817 17.2751 3.52052C17.2751 3.46635 17.3563 3.02396 17.4556 2.55449C17.6272 1.73291 17.6272 1.68777 17.4737 1.53429C17.3292 1.38984 17.248 1.38984 16.8778 1.47109C15.2979 1.8232 11.3796 1.99473 8.54468 1.84125C6.9557 1.76 5.15907 1.56137 4.71668 1.42595C4.64445 1.39886 4.5 1.43498 4.40972 1.5072ZM6.62165 2.47323C8.94193 2.717 14.2235 2.6538 16.0924 2.36489C16.4083 2.31975 16.6792 2.29267 16.6882 2.3017C16.7063 2.31975 16.6702 2.62671 16.616 2.98785L16.5167 3.63789H14.9277C13.2394 3.63789 11.9303 3.5476 10.4226 3.31287C9.14055 3.11424 9.15861 3.09619 9.42946 4.54975C9.58294 5.40743 9.63711 6.02136 9.63711 7.15893L9.64614 8.6486L8.33703 8.72083C7.61477 8.75694 6.61263 8.83819 6.10704 8.90139C5.59243 8.96459 5.17712 8.99168 5.17712 8.96459C5.17712 8.93751 5.24032 8.46803 5.31255 7.92633C5.48409 6.66237 5.48409 4.57683 5.31255 3.41218C5.13198 2.1753 5.12295 2.25656 5.5202 2.32878C5.70077 2.36489 6.19732 2.42809 6.62165 2.47323ZM11.9935 4.26987C14.5666 4.5046 18.53 4.45946 20.8232 4.16153C21.2565 4.10736 21.6357 4.08027 21.6538 4.10736C21.6718 4.12542 21.6267 4.48655 21.5455 4.90185C21.3468 5.94913 21.3468 8.89236 21.5455 9.9577C21.6267 10.373 21.6718 10.7341 21.6538 10.7522C21.6357 10.7703 21.2836 10.7432 20.8683 10.689C18.214 10.3369 13.3658 10.3369 10.9282 10.689C10.5399 10.7432 10.2059 10.7703 10.1788 10.7432C10.1517 10.7161 10.1878 10.2918 10.2691 9.7952C10.4587 8.63957 10.4587 6.23804 10.2781 5.0463C10.2059 4.54975 10.1427 4.13444 10.1427 4.10736C10.1427 4.0893 10.3594 4.09833 10.6212 4.12542C10.874 4.16153 11.4969 4.22473 11.9935 4.26987ZM4.35555 8.98265C4.22915 9.43406 4.25624 9.77714 4.41875 9.84034C4.5 9.86742 5.03267 9.82228 5.61048 9.74103C6.6668 9.58754 8.53566 9.41601 9.17667 9.41601C9.57391 9.41601 9.58294 9.45212 9.35723 10.6077C9.18569 11.5286 9.25792 11.7273 9.72739 11.637C12.6887 11.0411 18.7828 11.0411 22.0149 11.637C22.1774 11.6641 22.349 11.637 22.4483 11.5647C22.6108 11.4474 22.6108 11.4022 22.4212 10.4091C22.3219 9.84034 22.2135 9.28058 22.1865 9.16321C22.1052 8.78402 22.3038 8.96459 22.5927 9.52435C22.7914 9.92159 22.9719 10.5445 23.1886 11.5828C23.3511 12.4044 23.5317 13.244 23.5768 13.4517C23.631 13.6683 23.649 13.8399 23.631 13.8399C23.6129 13.8399 23.3331 13.6954 23.008 13.5149C21.9246 12.919 22.2497 12.937 13.8714 12.937C5.36672 12.937 5.5202 12.928 4.22915 13.569C3.83191 13.7586 3.29021 14.1107 3.03741 14.3364C2.77559 14.5712 2.55891 14.7066 2.55891 14.6434C2.55891 14.4267 3.47077 10.3188 3.6062 9.93965C3.74162 9.5424 4.27429 8.69374 4.38263 8.69374C4.41875 8.69374 4.40069 8.82917 4.35555 8.98265ZM21.8885 13.894C22.9358 14.21 23.6852 14.9323 24.0373 15.9886C24.263 16.6477 24.272 17.1533 24.0824 17.8214C23.7935 18.8235 23.0261 19.627 22.0149 19.9882C21.5455 20.1507 21.1753 20.1597 14.0068 20.1597C7.02793 20.1597 6.45914 20.1507 6.17024 19.9972C5.80911 19.8166 5.47506 19.3652 5.3938 18.9318C5.32158 18.5436 5.62854 17.8846 6.01676 17.6137L6.30566 17.4061L13.7811 17.3609C20.2905 17.3248 21.2656 17.2977 21.3378 17.1804C21.4642 16.9817 21.4461 16.8553 21.2836 16.6838C21.1572 16.5574 20.4079 16.5484 13.6818 16.5664L6.21538 16.5935L5.85425 16.7921C4.13887 17.7221 4.20207 20.0333 5.96259 20.8097C6.15218 20.9 8.20161 20.9361 14.7652 20.9722L23.306 21.0174L23.6581 21.2973C24.0644 21.6223 24.272 22.173 24.1907 22.6515C24.1095 23.0849 23.6581 23.5634 23.2247 23.6807C22.99 23.7439 20.0829 23.771 14.3228 23.753L5.76396 23.7259L5.13198 23.4731C3.0645 22.6425 1.81859 20.8549 1.81859 18.7152C1.80956 16.2595 3.46174 14.3455 6.03481 13.8038C6.13412 13.7857 9.62808 13.7677 13.8082 13.7586C20.5433 13.7496 21.4461 13.7677 21.8885 13.894Z" stroke="black" stroke-opacity="0.2"/>
<path d="M4.40972 1.5072C4.24721 1.62457 4.24721 1.66069 4.46389 2.78922C4.64445 3.76428 4.68057 4.23376 4.68057 5.63314V7.30338L4.12081 7.82702C3.49786 8.39581 3.01936 9.1271 2.80268 9.82228C2.72142 10.066 2.45057 11.2488 2.18875 12.4405C1.93596 13.6322 1.5658 15.3566 1.36718 16.2775C0.81645 18.8235 0.870619 19.8888 1.629 21.4237C2.12555 22.4258 3.18187 23.4641 4.19304 23.9516C5.54728 24.6016 5.23129 24.5836 14.6659 24.5836C22.0059 24.5836 23.1615 24.5655 23.5136 24.4481C24.8047 24.0058 25.3825 22.5341 24.7234 21.3514C24.4797 20.9 23.9921 20.4667 23.5588 20.3041C23.3963 20.25 23.4233 20.1958 23.7935 19.8166C24.3442 19.2388 24.5609 18.9048 24.7686 18.3089C25.1297 17.2526 25.1207 17.072 24.3623 13.3433C23.5858 9.49726 23.4414 9.0639 22.6018 8.12496L22.1323 7.60132L22.1413 6.77071C22.1503 6.05747 22.3941 4.26987 22.5566 3.68303C22.5837 3.58372 22.5566 3.42121 22.4844 3.33092C22.367 3.16841 22.3309 3.16841 21.4191 3.31287C19.5141 3.6108 17.2751 3.72817 17.2751 3.52052C17.2751 3.46635 17.3563 3.02396 17.4556 2.55449C17.6272 1.73291 17.6272 1.68777 17.4737 1.53429C17.3292 1.38984 17.248 1.38984 16.8778 1.47109C15.2979 1.8232 11.3796 1.99473 8.54468 1.84125C6.9557 1.76 5.15907 1.56137 4.71668 1.42595C4.64445 1.39886 4.5 1.43498 4.40972 1.5072ZM6.62165 2.47323C8.94193 2.717 14.2235 2.6538 16.0924 2.36489C16.4083 2.31975 16.6792 2.29267 16.6882 2.3017C16.7063 2.31975 16.6702 2.62671 16.616 2.98785L16.5167 3.63789H14.9277C13.2394 3.63789 11.9303 3.5476 10.4226 3.31287C9.14055 3.11424 9.15861 3.09619 9.42946 4.54975C9.58294 5.40743 9.63711 6.02136 9.63711 7.15893L9.64614 8.6486L8.33703 8.72083C7.61477 8.75694 6.61263 8.83819 6.10704 8.90139C5.59243 8.96459 5.17712 8.99168 5.17712 8.96459C5.17712 8.93751 5.24032 8.46803 5.31255 7.92633C5.48409 6.66237 5.48409 4.57683 5.31255 3.41218C5.13198 2.1753 5.12295 2.25656 5.5202 2.32878C5.70077 2.36489 6.19732 2.42809 6.62165 2.47323ZM11.9935 4.26987C14.5666 4.5046 18.53 4.45946 20.8232 4.16153C21.2565 4.10736 21.6357 4.08027 21.6538 4.10736C21.6718 4.12542 21.6267 4.48655 21.5455 4.90185C21.3468 5.94913 21.3468 8.89236 21.5455 9.9577C21.6267 10.373 21.6718 10.7341 21.6538 10.7522C21.6357 10.7703 21.2836 10.7432 20.8683 10.689C18.214 10.3369 13.3658 10.3369 10.9282 10.689C10.5399 10.7432 10.2059 10.7703 10.1788 10.7432C10.1517 10.7161 10.1878 10.2918 10.2691 9.7952C10.4587 8.63957 10.4587 6.23804 10.2781 5.0463C10.2059 4.54975 10.1427 4.13444 10.1427 4.10736C10.1427 4.0893 10.3594 4.09833 10.6212 4.12542C10.874 4.16153 11.4969 4.22473 11.9935 4.26987ZM4.35555 8.98265C4.22915 9.43406 4.25624 9.77714 4.41875 9.84034C4.5 9.86742 5.03267 9.82228 5.61048 9.74103C6.6668 9.58754 8.53566 9.41601 9.17667 9.41601C9.57391 9.41601 9.58294 9.45212 9.35723 10.6077C9.18569 11.5286 9.25792 11.7273 9.72739 11.637C12.6887 11.0411 18.7828 11.0411 22.0149 11.637C22.1774 11.6641 22.349 11.637 22.4483 11.5647C22.6108 11.4474 22.6108 11.4022 22.4212 10.4091C22.3219 9.84034 22.2135 9.28058 22.1865 9.16321C22.1052 8.78402 22.3038 8.96459 22.5927 9.52435C22.7914 9.92159 22.9719 10.5445 23.1886 11.5828C23.3511 12.4044 23.5317 13.244 23.5768 13.4517C23.631 13.6683 23.649 13.8399 23.631 13.8399C23.6129 13.8399 23.3331 13.6954 23.008 13.5149C21.9246 12.919 22.2497 12.937 13.8714 12.937C5.36672 12.937 5.5202 12.928 4.22915 13.569C3.83191 13.7586 3.29021 14.1107 3.03741 14.3364C2.77559 14.5712 2.55891 14.7066 2.55891 14.6434C2.55891 14.4267 3.47077 10.3188 3.6062 9.93965C3.74162 9.5424 4.27429 8.69374 4.38263 8.69374C4.41875 8.69374 4.40069 8.82917 4.35555 8.98265ZM21.8885 13.894C22.9358 14.21 23.6852 14.9323 24.0373 15.9886C24.263 16.6477 24.272 17.1533 24.0824 17.8214C23.7935 18.8235 23.0261 19.627 22.0149 19.9882C21.5455 20.1507 21.1753 20.1597 14.0068 20.1597C7.02793 20.1597 6.45914 20.1507 6.17024 19.9972C5.80911 19.8166 5.47506 19.3652 5.3938 18.9318C5.32158 18.5436 5.62854 17.8846 6.01676 17.6137L6.30566 17.4061L13.7811 17.3609C20.2905 17.3248 21.2656 17.2977 21.3378 17.1804C21.4642 16.9817 21.4461 16.8553 21.2836 16.6838C21.1572 16.5574 20.4079 16.5484 13.6818 16.5664L6.21538 16.5935L5.85425 16.7921C4.13887 17.7221 4.20207 20.0333 5.96259 20.8097C6.15218 20.9 8.20161 20.9361 14.7652 20.9722L23.306 21.0174L23.6581 21.2973C24.0644 21.6223 24.272 22.173 24.1907 22.6515C24.1095 23.0849 23.6581 23.5634 23.2247 23.6807C22.99 23.7439 20.0829 23.771 14.3228 23.753L5.76396 23.7259L5.13198 23.4731C3.0645 22.6425 1.81859 20.8549 1.81859 18.7152C1.80956 16.2595 3.46174 14.3455 6.03481 13.8038C6.13412 13.7857 9.62808 13.7677 13.8082 13.7586C20.5433 13.7496 21.4461 13.7677 21.8885 13.894Z" stroke="black" stroke-opacity="0.2"/>
<path d="M4.40972 1.5072C4.24721 1.62457 4.24721 1.66069 4.46389 2.78922C4.64445 3.76428 4.68057 4.23376 4.68057 5.63314V7.30338L4.12081 7.82702C3.49786 8.39581 3.01936 9.1271 2.80268 9.82228C2.72142 10.066 2.45057 11.2488 2.18875 12.4405C1.93596 13.6322 1.5658 15.3566 1.36718 16.2775C0.81645 18.8235 0.870619 19.8888 1.629 21.4237C2.12555 22.4258 3.18187 23.4641 4.19304 23.9516C5.54728 24.6016 5.23129 24.5836 14.6659 24.5836C22.0059 24.5836 23.1615 24.5655 23.5136 24.4481C24.8047 24.0058 25.3825 22.5341 24.7234 21.3514C24.4797 20.9 23.9921 20.4667 23.5588 20.3041C23.3963 20.25 23.4233 20.1958 23.7935 19.8166C24.3442 19.2388 24.5609 18.9048 24.7686 18.3089C25.1297 17.2526 25.1207 17.072 24.3623 13.3433C23.5858 9.49726 23.4414 9.0639 22.6018 8.12496L22.1323 7.60132L22.1413 6.77071C22.1503 6.05747 22.3941 4.26987 22.5566 3.68303C22.5837 3.58372 22.5566 3.42121 22.4844 3.33092C22.367 3.16841 22.3309 3.16841 21.4191 3.31287C19.5141 3.6108 17.2751 3.72817 17.2751 3.52052C17.2751 3.46635 17.3563 3.02396 17.4556 2.55449C17.6272 1.73291 17.6272 1.68777 17.4737 1.53429C17.3292 1.38984 17.248 1.38984 16.8778 1.47109C15.2979 1.8232 11.3796 1.99473 8.54468 1.84125C6.9557 1.76 5.15907 1.56137 4.71668 1.42595C4.64445 1.39886 4.5 1.43498 4.40972 1.5072ZM6.62165 2.47323C8.94193 2.717 14.2235 2.6538 16.0924 2.36489C16.4083 2.31975 16.6792 2.29267 16.6882 2.3017C16.7063 2.31975 16.6702 2.62671 16.616 2.98785L16.5167 3.63789H14.9277C13.2394 3.63789 11.9303 3.5476 10.4226 3.31287C9.14055 3.11424 9.15861 3.09619 9.42946 4.54975C9.58294 5.40743 9.63711 6.02136 9.63711 7.15893L9.64614 8.6486L8.33703 8.72083C7.61477 8.75694 6.61263 8.83819 6.10704 8.90139C5.59243 8.96459 5.17712 8.99168 5.17712 8.96459C5.17712 8.93751 5.24032 8.46803 5.31255 7.92633C5.48409 6.66237 5.48409 4.57683 5.31255 3.41218C5.13198 2.1753 5.12295 2.25656 5.5202 2.32878C5.70077 2.36489 6.19732 2.42809 6.62165 2.47323ZM11.9935 4.26987C14.5666 4.5046 18.53 4.45946 20.8232 4.16153C21.2565 4.10736 21.6357 4.08027 21.6538 4.10736C21.6718 4.12542 21.6267 4.48655 21.5455 4.90185C21.3468 5.94913 21.3468 8.89236 21.5455 9.9577C21.6267 10.373 21.6718 10.7341 21.6538 10.7522C21.6357 10.7703 21.2836 10.7432 20.8683 10.689C18.214 10.3369 13.3658 10.3369 10.9282 10.689C10.5399 10.7432 10.2059 10.7703 10.1788 10.7432C10.1517 10.7161 10.1878 10.2918 10.2691 9.7952C10.4587 8.63957 10.4587 6.23804 10.2781 5.0463C10.2059 4.54975 10.1427 4.13444 10.1427 4.10736C10.1427 4.0893 10.3594 4.09833 10.6212 4.12542C10.874 4.16153 11.4969 4.22473 11.9935 4.26987ZM4.35555 8.98265C4.22915 9.43406 4.25624 9.77714 4.41875 9.84034C4.5 9.86742 5.03267 9.82228 5.61048 9.74103C6.6668 9.58754 8.53566 9.41601 9.17667 9.41601C9.57391 9.41601 9.58294 9.45212 9.35723 10.6077C9.18569 11.5286 9.25792 11.7273 9.72739 11.637C12.6887 11.0411 18.7828 11.0411 22.0149 11.637C22.1774 11.6641 22.349 11.637 22.4483 11.5647C22.6108 11.4474 22.6108 11.4022 22.4212 10.4091C22.3219 9.84034 22.2135 9.28058 22.1865 9.16321C22.1052 8.78402 22.3038 8.96459 22.5927 9.52435C22.7914 9.92159 22.9719 10.5445 23.1886 11.5828C23.3511 12.4044 23.5317 13.244 23.5768 13.4517C23.631 13.6683 23.649 13.8399 23.631 13.8399C23.6129 13.8399 23.3331 13.6954 23.008 13.5149C21.9246 12.919 22.2497 12.937 13.8714 12.937C5.36672 12.937 5.5202 12.928 4.22915 13.569C3.83191 13.7586 3.29021 14.1107 3.03741 14.3364C2.77559 14.5712 2.55891 14.7066 2.55891 14.6434C2.55891 14.4267 3.47077 10.3188 3.6062 9.93965C3.74162 9.5424 4.27429 8.69374 4.38263 8.69374C4.41875 8.69374 4.40069 8.82917 4.35555 8.98265ZM21.8885 13.894C22.9358 14.21 23.6852 14.9323 24.0373 15.9886C24.263 16.6477 24.272 17.1533 24.0824 17.8214C23.7935 18.8235 23.0261 19.627 22.0149 19.9882C21.5455 20.1507 21.1753 20.1597 14.0068 20.1597C7.02793 20.1597 6.45914 20.1507 6.17024 19.9972C5.80911 19.8166 5.47506 19.3652 5.3938 18.9318C5.32158 18.5436 5.62854 17.8846 6.01676 17.6137L6.30566 17.4061L13.7811 17.3609C20.2905 17.3248 21.2656 17.2977 21.3378 17.1804C21.4642 16.9817 21.4461 16.8553 21.2836 16.6838C21.1572 16.5574 20.4079 16.5484 13.6818 16.5664L6.21538 16.5935L5.85425 16.7921C4.13887 17.7221 4.20207 20.0333 5.96259 20.8097C6.15218 20.9 8.20161 20.9361 14.7652 20.9722L23.306 21.0174L23.6581 21.2973C24.0644 21.6223 24.272 22.173 24.1907 22.6515C24.1095 23.0849 23.6581 23.5634 23.2247 23.6807C22.99 23.7439 20.0829 23.771 14.3228 23.753L5.76396 23.7259L5.13198 23.4731C3.0645 22.6425 1.81859 20.8549 1.81859 18.7152C1.80956 16.2595 3.46174 14.3455 6.03481 13.8038C6.13412 13.7857 9.62808 13.7677 13.8082 13.7586C20.5433 13.7496 21.4461 13.7677 21.8885 13.894Z" stroke="black" stroke-opacity="0.2"/>
</svg>
