<svg width="25" height="24" viewBox="0 0 25 24" fill="none" xmlns="http://www.w3.org/2000/svg">
<path d="M12.5 18C18.5 18 21 13.9706 21 9H4C4 13.9706 6.5 18 12.5 18Z" stroke="#97A483" stroke-width="2" stroke-linecap="round" stroke-linejoin="round"/>
<path d="M12.5 18C18.5 18 21 13.9706 21 9H4C4 13.9706 6.5 18 12.5 18Z" stroke="#97A483" stroke-opacity="0.2" stroke-width="2" stroke-linecap="round" stroke-linejoin="round"/>
<path d="M12.5 18C18.5 18 21 13.9706 21 9H4C4 13.9706 6.5 18 12.5 18Z" stroke="#97A483" stroke-opacity="0.2" stroke-width="2" stroke-linecap="round" stroke-linejoin="round"/>
<path d="M12.5 18C18.5 18 21 13.9706 21 9H4C4 13.9706 6.5 18 12.5 18Z" stroke="#97A483" stroke-opacity="0.2" stroke-width="2" stroke-linecap="round" stroke-linejoin="round"/>
<path d="M12.5 18C18.5 18 21 13.9706 21 9H4C4 13.9706 6.5 18 12.5 18Z" stroke="#97A483" stroke-opacity="0.2" stroke-width="2" stroke-linecap="round" stroke-linejoin="round"/>
<path d="M9 17.5L7.5 22H17.5L16 17.5" stroke="#97A483" stroke-width="2" stroke-linecap="round" stroke-linejoin="round"/>
<path d="M9 17.5L7.5 22H17.5L16 17.5" stroke="#97A483" stroke-opacity="0.2" stroke-width="2" stroke-linecap="round" stroke-linejoin="round"/>
<path d="M9 17.5L7.5 22H17.5L16 17.5" stroke="#97A483" stroke-opacity="0.2" stroke-width="2" stroke-linecap="round" stroke-linejoin="round"/>
<path d="M9 17.5L7.5 22H17.5L16 17.5" stroke="#97A483" stroke-opacity="0.2" stroke-width="2" stroke-linecap="round" stroke-linejoin="round"/>
<path d="M9 17.5L7.5 22H17.5L16 17.5" stroke="#97A483" stroke-opacity="0.2" stroke-width="2" stroke-linecap="round" stroke-linejoin="round"/>
<path d="M15 9L14.4445 2H10.5555L10 9" stroke="#97A483" stroke-width="2" stroke-linecap="round" stroke-linejoin="round"/>
<path d="M15 9L14.4445 2H10.5555L10 9" stroke="#97A483" stroke-opacity="0.2" stroke-width="2" stroke-linecap="round" stroke-linejoin="round"/>
<path d="M15 9L14.4445 2H10.5555L10 9" stroke="#97A483" stroke-opacity="0.2" stroke-width="2" stroke-linecap="round" stroke-linejoin="round"/>
<path d="M15 9L14.4445 2H10.5555L10 9" stroke="#97A483" stroke-opacity="0.2" stroke-width="2" stroke-linecap="round" stroke-linejoin="round"/>
<path d="M15 9L14.4445 2H10.5555L10 9" stroke="#97A483" stroke-opacity="0.2" stroke-width="2" stroke-linecap="round" stroke-linejoin="round"/>
<path d="M8 12.5C8 12.5 8.03515 13.0351 8.5 13.5C8.96485 13.9649 9.5 14 9.5 14" stroke="#97A483" stroke-width="2" stroke-linecap="round"/>
<path d="M8 12.5C8 12.5 8.03515 13.0351 8.5 13.5C8.96485 13.9649 9.5 14 9.5 14" stroke="#97A483" stroke-opacity="0.2" stroke-width="2" stroke-linecap="round"/>
<path d="M8 12.5C8 12.5 8.03515 13.0351 8.5 13.5C8.96485 13.9649 9.5 14 9.5 14" stroke="#97A483" stroke-opacity="0.2" stroke-width="2" stroke-linecap="round"/>
<path d="M8 12.5C8 12.5 8.03515 13.0351 8.5 13.5C8.96485 13.9649 9.5 14 9.5 14" stroke="#97A483" stroke-opacity="0.2" stroke-width="2" stroke-linecap="round"/>
<path d="M8 12.5C8 12.5 8.03515 13.0351 8.5 13.5C8.96485 13.9649 9.5 14 9.5 14" stroke="#97A483" stroke-opacity="0.2" stroke-width="2" stroke-linecap="round"/>
</svg>
