<svg width="26" height="20" viewBox="0 0 26 20" fill="none" xmlns="http://www.w3.org/2000/svg">
<path d="M6.75288 1.04168C4.74335 1.31543 3.15197 2.73835 2.66764 4.69674C2.64357 4.80503 2.52625 5.34652 2.40893 5.90005C2.2916 6.45357 2.17729 6.98904 2.15623 7.08832C2.13217 7.18759 2.09306 7.37711 2.06598 7.50948C2.0359 7.64184 2.00281 7.80429 1.98777 7.87047C1.90955 8.21943 1.84939 8.4992 1.65686 9.41973C1.53953 9.97326 1.43124 10.4817 1.4162 10.5478C1.39815 10.614 1.37408 10.7283 1.35904 10.8035C1.31692 11.0051 1.24172 11.3631 1.19057 11.6007C1.04919 12.2295 1.02211 12.4611 1.00406 13.0297C0.995036 13.3877 1.00105 13.7396 1.02211 13.9291C1.16952 15.2829 1.86744 16.6276 2.90529 17.5481C3.72354 18.2761 4.65611 18.7304 5.7782 18.9469C6.05195 18.9981 6.46108 19.0011 14.6677 19.0011H23.2713L23.497 18.9169C23.879 18.7695 24.0986 18.6311 24.3543 18.3724C24.7725 17.9542 24.962 17.524 24.9921 16.9404C25.0071 16.6456 24.9981 16.5584 24.9439 16.3478C24.8567 16.0109 24.7604 15.7973 24.5769 15.5536C24.3092 15.1926 23.9121 14.8948 23.515 14.7594C23.4218 14.7263 23.3465 14.6932 23.3465 14.6812C23.3465 14.6692 23.4218 14.603 23.512 14.5338C24.1618 14.0314 24.7183 13.153 24.8988 12.3378C25.0492 11.6699 25.0342 11.1284 24.8386 10.1718C24.7634 9.79878 24.6461 9.23021 24.5799 8.90833C24.5168 8.58644 24.3814 7.92161 24.2791 7.43427C24.1798 6.94693 24.0294 6.20689 23.9452 5.79476C23.7888 5.0096 23.7286 4.73283 23.6714 4.53128C23.2082 2.86168 21.8123 1.523 20.1307 1.12892C19.5501 0.996553 19.6193 0.996553 13.1515 0.999561C8.46459 1.00257 6.96346 1.01159 6.75288 1.04168ZM19.9622 1.90806C20.8346 2.14271 21.4634 2.52476 22.0319 3.1595C22.3989 3.56863 22.6456 3.9928 22.8231 4.50421C22.9254 4.81105 22.9735 5.01561 23.2713 6.48666C23.3616 6.93189 23.4849 7.52752 23.5421 7.8103C23.5992 8.09007 23.6444 8.33976 23.6414 8.36383C23.6353 8.3909 23.5752 8.35781 23.4669 8.27057C23.0006 7.89153 22.408 7.62078 21.7221 7.47338C21.4784 7.42224 21.1144 7.41923 13.8554 7.41923C6.67467 7.41923 6.22643 7.42224 5.92861 7.47338C4.614 7.699 3.50996 8.25854 2.66764 9.13094L2.52023 9.28436L2.54129 9.1189C2.55332 9.02866 2.57438 8.90532 2.58942 8.84816C2.60447 8.791 2.63756 8.6436 2.66463 8.52326C2.73984 8.15926 2.80301 7.87649 2.83009 7.75014C2.84513 7.68396 2.87822 7.52151 2.9083 7.38914C2.93538 7.25678 2.97448 7.06726 2.99855 6.96799C3.01961 6.86871 3.13392 6.33926 3.25125 5.79476C3.36556 5.24725 3.49492 4.69373 3.54004 4.56437C4.00933 3.12641 5.29988 2.04644 6.80101 1.83887C6.89126 1.82684 9.82433 1.81781 13.3139 1.82082L19.6614 1.82684L19.9622 1.90806ZM21.5476 8.26155C22.5614 8.43903 23.4097 9.07077 23.87 9.99131C24.0294 10.3132 24.1106 10.5629 24.1738 10.954C24.231 11.3119 24.231 11.4774 24.1738 11.8655C23.9632 13.2703 22.9284 14.3323 21.5175 14.5789C21.2889 14.618 20.3533 14.6241 13.9397 14.6241C5.98878 14.6241 6.48514 14.6361 6.13919 14.4586C5.94365 14.3593 5.67893 14.1157 5.57664 13.9382C5.30289 13.4719 5.32997 12.8973 5.64583 12.437C5.82031 12.1813 6.02187 12.0339 6.42498 11.8655C6.45807 11.8534 9.78222 11.8354 13.8103 11.8264C20.9429 11.8113 21.1385 11.8083 21.2197 11.7542C21.4694 11.5857 21.4423 11.1916 21.1716 11.0653C21.0723 11.0171 20.5579 11.0141 13.7441 11.0201L6.42498 11.0292L6.19033 11.1134C5.89251 11.2187 5.74812 11.2909 5.5225 11.4503C5.03515 11.7963 4.7253 12.2926 4.61099 12.9063C4.57188 13.1259 4.56887 13.2072 4.60196 13.4568C4.71628 14.3684 5.25175 15.0121 6.16927 15.343C6.29261 15.3851 7.07778 15.3912 14.6376 15.4062C21.1776 15.4212 22.9976 15.4303 23.1029 15.4604C23.3465 15.5295 23.5601 15.6529 23.7497 15.8304C23.9602 16.0259 24.0986 16.2606 24.1708 16.5373C24.231 16.772 24.231 16.8983 24.1708 17.133C24.0264 17.6865 23.6714 18.0415 23.1179 18.1859C22.9495 18.228 22.1342 18.234 14.7519 18.234C6.0339 18.234 6.31969 18.237 5.70299 18.0956C4.68319 17.858 3.81379 17.3405 3.06172 16.5223C2.46308 15.8695 2.03289 14.9881 1.84337 14.0224C1.76516 13.6133 1.77418 12.7198 1.86142 12.2926C2.30965 10.1357 3.95217 8.57441 6.1061 8.26155C6.30766 8.23146 8.03742 8.22244 13.8253 8.21943C20.3894 8.21642 21.316 8.22244 21.5476 8.26155Z" fill="#345E40"/>
<path d="M6.75288 1.04168C4.74335 1.31543 3.15197 2.73835 2.66764 4.69674C2.64357 4.80503 2.52625 5.34652 2.40893 5.90005C2.2916 6.45357 2.17729 6.98904 2.15623 7.08832C2.13217 7.18759 2.09306 7.37711 2.06598 7.50948C2.0359 7.64184 2.00281 7.80429 1.98777 7.87047C1.90955 8.21943 1.84939 8.4992 1.65686 9.41973C1.53953 9.97326 1.43124 10.4817 1.4162 10.5478C1.39815 10.614 1.37408 10.7283 1.35904 10.8035C1.31692 11.0051 1.24172 11.3631 1.19057 11.6007C1.04919 12.2295 1.02211 12.4611 1.00406 13.0297C0.995036 13.3877 1.00105 13.7396 1.02211 13.9291C1.16952 15.2829 1.86744 16.6276 2.90529 17.5481C3.72354 18.2761 4.65611 18.7304 5.7782 18.9469C6.05195 18.9981 6.46108 19.0011 14.6677 19.0011H23.2713L23.497 18.9169C23.879 18.7695 24.0986 18.6311 24.3543 18.3724C24.7725 17.9542 24.962 17.524 24.9921 16.9404C25.0071 16.6456 24.9981 16.5584 24.9439 16.3478C24.8567 16.0109 24.7604 15.7973 24.5769 15.5536C24.3092 15.1926 23.9121 14.8948 23.515 14.7594C23.4218 14.7263 23.3465 14.6932 23.3465 14.6812C23.3465 14.6692 23.4218 14.603 23.512 14.5338C24.1618 14.0314 24.7183 13.153 24.8988 12.3378C25.0492 11.6699 25.0342 11.1284 24.8386 10.1718C24.7634 9.79878 24.6461 9.23021 24.5799 8.90833C24.5168 8.58644 24.3814 7.92161 24.2791 7.43427C24.1798 6.94693 24.0294 6.20689 23.9452 5.79476C23.7888 5.0096 23.7286 4.73283 23.6714 4.53128C23.2082 2.86168 21.8123 1.523 20.1307 1.12892C19.5501 0.996553 19.6193 0.996553 13.1515 0.999561C8.46459 1.00257 6.96346 1.01159 6.75288 1.04168ZM19.9622 1.90806C20.8346 2.14271 21.4634 2.52476 22.0319 3.1595C22.3989 3.56863 22.6456 3.9928 22.8231 4.50421C22.9254 4.81105 22.9735 5.01561 23.2713 6.48666C23.3616 6.93189 23.4849 7.52752 23.5421 7.8103C23.5992 8.09007 23.6444 8.33976 23.6414 8.36383C23.6353 8.3909 23.5752 8.35781 23.4669 8.27057C23.0006 7.89153 22.408 7.62078 21.7221 7.47338C21.4784 7.42224 21.1144 7.41923 13.8554 7.41923C6.67467 7.41923 6.22643 7.42224 5.92861 7.47338C4.614 7.699 3.50996 8.25854 2.66764 9.13094L2.52023 9.28436L2.54129 9.1189C2.55332 9.02866 2.57438 8.90532 2.58942 8.84816C2.60447 8.791 2.63756 8.6436 2.66463 8.52326C2.73984 8.15926 2.80301 7.87649 2.83009 7.75014C2.84513 7.68396 2.87822 7.52151 2.9083 7.38914C2.93538 7.25678 2.97448 7.06726 2.99855 6.96799C3.01961 6.86871 3.13392 6.33926 3.25125 5.79476C3.36556 5.24725 3.49492 4.69373 3.54004 4.56437C4.00933 3.12641 5.29988 2.04644 6.80101 1.83887C6.89126 1.82684 9.82433 1.81781 13.3139 1.82082L19.6614 1.82684L19.9622 1.90806ZM21.5476 8.26155C22.5614 8.43903 23.4097 9.07077 23.87 9.99131C24.0294 10.3132 24.1106 10.5629 24.1738 10.954C24.231 11.3119 24.231 11.4774 24.1738 11.8655C23.9632 13.2703 22.9284 14.3323 21.5175 14.5789C21.2889 14.618 20.3533 14.6241 13.9397 14.6241C5.98878 14.6241 6.48514 14.6361 6.13919 14.4586C5.94365 14.3593 5.67893 14.1157 5.57664 13.9382C5.30289 13.4719 5.32997 12.8973 5.64583 12.437C5.82031 12.1813 6.02187 12.0339 6.42498 11.8655C6.45807 11.8534 9.78222 11.8354 13.8103 11.8264C20.9429 11.8113 21.1385 11.8083 21.2197 11.7542C21.4694 11.5857 21.4423 11.1916 21.1716 11.0653C21.0723 11.0171 20.5579 11.0141 13.7441 11.0201L6.42498 11.0292L6.19033 11.1134C5.89251 11.2187 5.74812 11.2909 5.5225 11.4503C5.03515 11.7963 4.7253 12.2926 4.61099 12.9063C4.57188 13.1259 4.56887 13.2072 4.60196 13.4568C4.71628 14.3684 5.25175 15.0121 6.16927 15.343C6.29261 15.3851 7.07778 15.3912 14.6376 15.4062C21.1776 15.4212 22.9976 15.4303 23.1029 15.4604C23.3465 15.5295 23.5601 15.6529 23.7497 15.8304C23.9602 16.0259 24.0986 16.2606 24.1708 16.5373C24.231 16.772 24.231 16.8983 24.1708 17.133C24.0264 17.6865 23.6714 18.0415 23.1179 18.1859C22.9495 18.228 22.1342 18.234 14.7519 18.234C6.0339 18.234 6.31969 18.237 5.70299 18.0956C4.68319 17.858 3.81379 17.3405 3.06172 16.5223C2.46308 15.8695 2.03289 14.9881 1.84337 14.0224C1.76516 13.6133 1.77418 12.7198 1.86142 12.2926C2.30965 10.1357 3.95217 8.57441 6.1061 8.26155C6.30766 8.23146 8.03742 8.22244 13.8253 8.21943C20.3894 8.21642 21.316 8.22244 21.5476 8.26155Z" fill="black" fill-opacity="0.2"/>
<path d="M6.75288 1.04168C4.74335 1.31543 3.15197 2.73835 2.66764 4.69674C2.64357 4.80503 2.52625 5.34652 2.40893 5.90005C2.2916 6.45357 2.17729 6.98904 2.15623 7.08832C2.13217 7.18759 2.09306 7.37711 2.06598 7.50948C2.0359 7.64184 2.00281 7.80429 1.98777 7.87047C1.90955 8.21943 1.84939 8.4992 1.65686 9.41973C1.53953 9.97326 1.43124 10.4817 1.4162 10.5478C1.39815 10.614 1.37408 10.7283 1.35904 10.8035C1.31692 11.0051 1.24172 11.3631 1.19057 11.6007C1.04919 12.2295 1.02211 12.4611 1.00406 13.0297C0.995036 13.3877 1.00105 13.7396 1.02211 13.9291C1.16952 15.2829 1.86744 16.6276 2.90529 17.5481C3.72354 18.2761 4.65611 18.7304 5.7782 18.9469C6.05195 18.9981 6.46108 19.0011 14.6677 19.0011H23.2713L23.497 18.9169C23.879 18.7695 24.0986 18.6311 24.3543 18.3724C24.7725 17.9542 24.962 17.524 24.9921 16.9404C25.0071 16.6456 24.9981 16.5584 24.9439 16.3478C24.8567 16.0109 24.7604 15.7973 24.5769 15.5536C24.3092 15.1926 23.9121 14.8948 23.515 14.7594C23.4218 14.7263 23.3465 14.6932 23.3465 14.6812C23.3465 14.6692 23.4218 14.603 23.512 14.5338C24.1618 14.0314 24.7183 13.153 24.8988 12.3378C25.0492 11.6699 25.0342 11.1284 24.8386 10.1718C24.7634 9.79878 24.6461 9.23021 24.5799 8.90833C24.5168 8.58644 24.3814 7.92161 24.2791 7.43427C24.1798 6.94693 24.0294 6.20689 23.9452 5.79476C23.7888 5.0096 23.7286 4.73283 23.6714 4.53128C23.2082 2.86168 21.8123 1.523 20.1307 1.12892C19.5501 0.996553 19.6193 0.996553 13.1515 0.999561C8.46459 1.00257 6.96346 1.01159 6.75288 1.04168ZM19.9622 1.90806C20.8346 2.14271 21.4634 2.52476 22.0319 3.1595C22.3989 3.56863 22.6456 3.9928 22.8231 4.50421C22.9254 4.81105 22.9735 5.01561 23.2713 6.48666C23.3616 6.93189 23.4849 7.52752 23.5421 7.8103C23.5992 8.09007 23.6444 8.33976 23.6414 8.36383C23.6353 8.3909 23.5752 8.35781 23.4669 8.27057C23.0006 7.89153 22.408 7.62078 21.7221 7.47338C21.4784 7.42224 21.1144 7.41923 13.8554 7.41923C6.67467 7.41923 6.22643 7.42224 5.92861 7.47338C4.614 7.699 3.50996 8.25854 2.66764 9.13094L2.52023 9.28436L2.54129 9.1189C2.55332 9.02866 2.57438 8.90532 2.58942 8.84816C2.60447 8.791 2.63756 8.6436 2.66463 8.52326C2.73984 8.15926 2.80301 7.87649 2.83009 7.75014C2.84513 7.68396 2.87822 7.52151 2.9083 7.38914C2.93538 7.25678 2.97448 7.06726 2.99855 6.96799C3.01961 6.86871 3.13392 6.33926 3.25125 5.79476C3.36556 5.24725 3.49492 4.69373 3.54004 4.56437C4.00933 3.12641 5.29988 2.04644 6.80101 1.83887C6.89126 1.82684 9.82433 1.81781 13.3139 1.82082L19.6614 1.82684L19.9622 1.90806ZM21.5476 8.26155C22.5614 8.43903 23.4097 9.07077 23.87 9.99131C24.0294 10.3132 24.1106 10.5629 24.1738 10.954C24.231 11.3119 24.231 11.4774 24.1738 11.8655C23.9632 13.2703 22.9284 14.3323 21.5175 14.5789C21.2889 14.618 20.3533 14.6241 13.9397 14.6241C5.98878 14.6241 6.48514 14.6361 6.13919 14.4586C5.94365 14.3593 5.67893 14.1157 5.57664 13.9382C5.30289 13.4719 5.32997 12.8973 5.64583 12.437C5.82031 12.1813 6.02187 12.0339 6.42498 11.8655C6.45807 11.8534 9.78222 11.8354 13.8103 11.8264C20.9429 11.8113 21.1385 11.8083 21.2197 11.7542C21.4694 11.5857 21.4423 11.1916 21.1716 11.0653C21.0723 11.0171 20.5579 11.0141 13.7441 11.0201L6.42498 11.0292L6.19033 11.1134C5.89251 11.2187 5.74812 11.2909 5.5225 11.4503C5.03515 11.7963 4.7253 12.2926 4.61099 12.9063C4.57188 13.1259 4.56887 13.2072 4.60196 13.4568C4.71628 14.3684 5.25175 15.0121 6.16927 15.343C6.29261 15.3851 7.07778 15.3912 14.6376 15.4062C21.1776 15.4212 22.9976 15.4303 23.1029 15.4604C23.3465 15.5295 23.5601 15.6529 23.7497 15.8304C23.9602 16.0259 24.0986 16.2606 24.1708 16.5373C24.231 16.772 24.231 16.8983 24.1708 17.133C24.0264 17.6865 23.6714 18.0415 23.1179 18.1859C22.9495 18.228 22.1342 18.234 14.7519 18.234C6.0339 18.234 6.31969 18.237 5.70299 18.0956C4.68319 17.858 3.81379 17.3405 3.06172 16.5223C2.46308 15.8695 2.03289 14.9881 1.84337 14.0224C1.76516 13.6133 1.77418 12.7198 1.86142 12.2926C2.30965 10.1357 3.95217 8.57441 6.1061 8.26155C6.30766 8.23146 8.03742 8.22244 13.8253 8.21943C20.3894 8.21642 21.316 8.22244 21.5476 8.26155Z" fill="black" fill-opacity="0.2"/>
<path d="M6.75288 1.04168C4.74335 1.31543 3.15197 2.73835 2.66764 4.69674C2.64357 4.80503 2.52625 5.34652 2.40893 5.90005C2.2916 6.45357 2.17729 6.98904 2.15623 7.08832C2.13217 7.18759 2.09306 7.37711 2.06598 7.50948C2.0359 7.64184 2.00281 7.80429 1.98777 7.87047C1.90955 8.21943 1.84939 8.4992 1.65686 9.41973C1.53953 9.97326 1.43124 10.4817 1.4162 10.5478C1.39815 10.614 1.37408 10.7283 1.35904 10.8035C1.31692 11.0051 1.24172 11.3631 1.19057 11.6007C1.04919 12.2295 1.02211 12.4611 1.00406 13.0297C0.995036 13.3877 1.00105 13.7396 1.02211 13.9291C1.16952 15.2829 1.86744 16.6276 2.90529 17.5481C3.72354 18.2761 4.65611 18.7304 5.7782 18.9469C6.05195 18.9981 6.46108 19.0011 14.6677 19.0011H23.2713L23.497 18.9169C23.879 18.7695 24.0986 18.6311 24.3543 18.3724C24.7725 17.9542 24.962 17.524 24.9921 16.9404C25.0071 16.6456 24.9981 16.5584 24.9439 16.3478C24.8567 16.0109 24.7604 15.7973 24.5769 15.5536C24.3092 15.1926 23.9121 14.8948 23.515 14.7594C23.4218 14.7263 23.3465 14.6932 23.3465 14.6812C23.3465 14.6692 23.4218 14.603 23.512 14.5338C24.1618 14.0314 24.7183 13.153 24.8988 12.3378C25.0492 11.6699 25.0342 11.1284 24.8386 10.1718C24.7634 9.79878 24.6461 9.23021 24.5799 8.90833C24.5168 8.58644 24.3814 7.92161 24.2791 7.43427C24.1798 6.94693 24.0294 6.20689 23.9452 5.79476C23.7888 5.0096 23.7286 4.73283 23.6714 4.53128C23.2082 2.86168 21.8123 1.523 20.1307 1.12892C19.5501 0.996553 19.6193 0.996553 13.1515 0.999561C8.46459 1.00257 6.96346 1.01159 6.75288 1.04168ZM19.9622 1.90806C20.8346 2.14271 21.4634 2.52476 22.0319 3.1595C22.3989 3.56863 22.6456 3.9928 22.8231 4.50421C22.9254 4.81105 22.9735 5.01561 23.2713 6.48666C23.3616 6.93189 23.4849 7.52752 23.5421 7.8103C23.5992 8.09007 23.6444 8.33976 23.6414 8.36383C23.6353 8.3909 23.5752 8.35781 23.4669 8.27057C23.0006 7.89153 22.408 7.62078 21.7221 7.47338C21.4784 7.42224 21.1144 7.41923 13.8554 7.41923C6.67467 7.41923 6.22643 7.42224 5.92861 7.47338C4.614 7.699 3.50996 8.25854 2.66764 9.13094L2.52023 9.28436L2.54129 9.1189C2.55332 9.02866 2.57438 8.90532 2.58942 8.84816C2.60447 8.791 2.63756 8.6436 2.66463 8.52326C2.73984 8.15926 2.80301 7.87649 2.83009 7.75014C2.84513 7.68396 2.87822 7.52151 2.9083 7.38914C2.93538 7.25678 2.97448 7.06726 2.99855 6.96799C3.01961 6.86871 3.13392 6.33926 3.25125 5.79476C3.36556 5.24725 3.49492 4.69373 3.54004 4.56437C4.00933 3.12641 5.29988 2.04644 6.80101 1.83887C6.89126 1.82684 9.82433 1.81781 13.3139 1.82082L19.6614 1.82684L19.9622 1.90806ZM21.5476 8.26155C22.5614 8.43903 23.4097 9.07077 23.87 9.99131C24.0294 10.3132 24.1106 10.5629 24.1738 10.954C24.231 11.3119 24.231 11.4774 24.1738 11.8655C23.9632 13.2703 22.9284 14.3323 21.5175 14.5789C21.2889 14.618 20.3533 14.6241 13.9397 14.6241C5.98878 14.6241 6.48514 14.6361 6.13919 14.4586C5.94365 14.3593 5.67893 14.1157 5.57664 13.9382C5.30289 13.4719 5.32997 12.8973 5.64583 12.437C5.82031 12.1813 6.02187 12.0339 6.42498 11.8655C6.45807 11.8534 9.78222 11.8354 13.8103 11.8264C20.9429 11.8113 21.1385 11.8083 21.2197 11.7542C21.4694 11.5857 21.4423 11.1916 21.1716 11.0653C21.0723 11.0171 20.5579 11.0141 13.7441 11.0201L6.42498 11.0292L6.19033 11.1134C5.89251 11.2187 5.74812 11.2909 5.5225 11.4503C5.03515 11.7963 4.7253 12.2926 4.61099 12.9063C4.57188 13.1259 4.56887 13.2072 4.60196 13.4568C4.71628 14.3684 5.25175 15.0121 6.16927 15.343C6.29261 15.3851 7.07778 15.3912 14.6376 15.4062C21.1776 15.4212 22.9976 15.4303 23.1029 15.4604C23.3465 15.5295 23.5601 15.6529 23.7497 15.8304C23.9602 16.0259 24.0986 16.2606 24.1708 16.5373C24.231 16.772 24.231 16.8983 24.1708 17.133C24.0264 17.6865 23.6714 18.0415 23.1179 18.1859C22.9495 18.228 22.1342 18.234 14.7519 18.234C6.0339 18.234 6.31969 18.237 5.70299 18.0956C4.68319 17.858 3.81379 17.3405 3.06172 16.5223C2.46308 15.8695 2.03289 14.9881 1.84337 14.0224C1.76516 13.6133 1.77418 12.7198 1.86142 12.2926C2.30965 10.1357 3.95217 8.57441 6.1061 8.26155C6.30766 8.23146 8.03742 8.22244 13.8253 8.21943C20.3894 8.21642 21.316 8.22244 21.5476 8.26155Z" fill="black" fill-opacity="0.2"/>
<path d="M6.75288 1.04168C4.74335 1.31543 3.15197 2.73835 2.66764 4.69674C2.64357 4.80503 2.52625 5.34652 2.40893 5.90005C2.2916 6.45357 2.17729 6.98904 2.15623 7.08832C2.13217 7.18759 2.09306 7.37711 2.06598 7.50948C2.0359 7.64184 2.00281 7.80429 1.98777 7.87047C1.90955 8.21943 1.84939 8.4992 1.65686 9.41973C1.53953 9.97326 1.43124 10.4817 1.4162 10.5478C1.39815 10.614 1.37408 10.7283 1.35904 10.8035C1.31692 11.0051 1.24172 11.3631 1.19057 11.6007C1.04919 12.2295 1.02211 12.4611 1.00406 13.0297C0.995036 13.3877 1.00105 13.7396 1.02211 13.9291C1.16952 15.2829 1.86744 16.6276 2.90529 17.5481C3.72354 18.2761 4.65611 18.7304 5.7782 18.9469C6.05195 18.9981 6.46108 19.0011 14.6677 19.0011H23.2713L23.497 18.9169C23.879 18.7695 24.0986 18.6311 24.3543 18.3724C24.7725 17.9542 24.962 17.524 24.9921 16.9404C25.0071 16.6456 24.9981 16.5584 24.9439 16.3478C24.8567 16.0109 24.7604 15.7973 24.5769 15.5536C24.3092 15.1926 23.9121 14.8948 23.515 14.7594C23.4218 14.7263 23.3465 14.6932 23.3465 14.6812C23.3465 14.6692 23.4218 14.603 23.512 14.5338C24.1618 14.0314 24.7183 13.153 24.8988 12.3378C25.0492 11.6699 25.0342 11.1284 24.8386 10.1718C24.7634 9.79878 24.6461 9.23021 24.5799 8.90833C24.5168 8.58644 24.3814 7.92161 24.2791 7.43427C24.1798 6.94693 24.0294 6.20689 23.9452 5.79476C23.7888 5.0096 23.7286 4.73283 23.6714 4.53128C23.2082 2.86168 21.8123 1.523 20.1307 1.12892C19.5501 0.996553 19.6193 0.996553 13.1515 0.999561C8.46459 1.00257 6.96346 1.01159 6.75288 1.04168ZM19.9622 1.90806C20.8346 2.14271 21.4634 2.52476 22.0319 3.1595C22.3989 3.56863 22.6456 3.9928 22.8231 4.50421C22.9254 4.81105 22.9735 5.01561 23.2713 6.48666C23.3616 6.93189 23.4849 7.52752 23.5421 7.8103C23.5992 8.09007 23.6444 8.33976 23.6414 8.36383C23.6353 8.3909 23.5752 8.35781 23.4669 8.27057C23.0006 7.89153 22.408 7.62078 21.7221 7.47338C21.4784 7.42224 21.1144 7.41923 13.8554 7.41923C6.67467 7.41923 6.22643 7.42224 5.92861 7.47338C4.614 7.699 3.50996 8.25854 2.66764 9.13094L2.52023 9.28436L2.54129 9.1189C2.55332 9.02866 2.57438 8.90532 2.58942 8.84816C2.60447 8.791 2.63756 8.6436 2.66463 8.52326C2.73984 8.15926 2.80301 7.87649 2.83009 7.75014C2.84513 7.68396 2.87822 7.52151 2.9083 7.38914C2.93538 7.25678 2.97448 7.06726 2.99855 6.96799C3.01961 6.86871 3.13392 6.33926 3.25125 5.79476C3.36556 5.24725 3.49492 4.69373 3.54004 4.56437C4.00933 3.12641 5.29988 2.04644 6.80101 1.83887C6.89126 1.82684 9.82433 1.81781 13.3139 1.82082L19.6614 1.82684L19.9622 1.90806ZM21.5476 8.26155C22.5614 8.43903 23.4097 9.07077 23.87 9.99131C24.0294 10.3132 24.1106 10.5629 24.1738 10.954C24.231 11.3119 24.231 11.4774 24.1738 11.8655C23.9632 13.2703 22.9284 14.3323 21.5175 14.5789C21.2889 14.618 20.3533 14.6241 13.9397 14.6241C5.98878 14.6241 6.48514 14.6361 6.13919 14.4586C5.94365 14.3593 5.67893 14.1157 5.57664 13.9382C5.30289 13.4719 5.32997 12.8973 5.64583 12.437C5.82031 12.1813 6.02187 12.0339 6.42498 11.8655C6.45807 11.8534 9.78222 11.8354 13.8103 11.8264C20.9429 11.8113 21.1385 11.8083 21.2197 11.7542C21.4694 11.5857 21.4423 11.1916 21.1716 11.0653C21.0723 11.0171 20.5579 11.0141 13.7441 11.0201L6.42498 11.0292L6.19033 11.1134C5.89251 11.2187 5.74812 11.2909 5.5225 11.4503C5.03515 11.7963 4.7253 12.2926 4.61099 12.9063C4.57188 13.1259 4.56887 13.2072 4.60196 13.4568C4.71628 14.3684 5.25175 15.0121 6.16927 15.343C6.29261 15.3851 7.07778 15.3912 14.6376 15.4062C21.1776 15.4212 22.9976 15.4303 23.1029 15.4604C23.3465 15.5295 23.5601 15.6529 23.7497 15.8304C23.9602 16.0259 24.0986 16.2606 24.1708 16.5373C24.231 16.772 24.231 16.8983 24.1708 17.133C24.0264 17.6865 23.6714 18.0415 23.1179 18.1859C22.9495 18.228 22.1342 18.234 14.7519 18.234C6.0339 18.234 6.31969 18.237 5.70299 18.0956C4.68319 17.858 3.81379 17.3405 3.06172 16.5223C2.46308 15.8695 2.03289 14.9881 1.84337 14.0224C1.76516 13.6133 1.77418 12.7198 1.86142 12.2926C2.30965 10.1357 3.95217 8.57441 6.1061 8.26155C6.30766 8.23146 8.03742 8.22244 13.8253 8.21943C20.3894 8.21642 21.316 8.22244 21.5476 8.26155Z" fill="black" fill-opacity="0.2"/>
<path d="M6.75288 1.04168C4.74335 1.31543 3.15197 2.73835 2.66764 4.69674C2.64357 4.80503 2.52625 5.34652 2.40893 5.90005C2.2916 6.45357 2.17729 6.98904 2.15623 7.08832C2.13217 7.18759 2.09306 7.37711 2.06598 7.50948C2.0359 7.64184 2.00281 7.80429 1.98777 7.87047C1.90955 8.21943 1.84939 8.4992 1.65686 9.41973C1.53953 9.97326 1.43124 10.4817 1.4162 10.5478C1.39815 10.614 1.37408 10.7283 1.35904 10.8035C1.31692 11.0051 1.24172 11.3631 1.19057 11.6007C1.04919 12.2295 1.02211 12.4611 1.00406 13.0297C0.995036 13.3877 1.00105 13.7396 1.02211 13.9291C1.16952 15.2829 1.86744 16.6276 2.90529 17.5481C3.72354 18.2761 4.65611 18.7304 5.7782 18.9469C6.05195 18.9981 6.46108 19.0011 14.6677 19.0011H23.2713L23.497 18.9169C23.879 18.7695 24.0986 18.6311 24.3543 18.3724C24.7725 17.9542 24.962 17.524 24.9921 16.9404C25.0071 16.6456 24.9981 16.5584 24.9439 16.3478C24.8567 16.0109 24.7604 15.7973 24.5769 15.5536C24.3092 15.1926 23.9121 14.8948 23.515 14.7594C23.4218 14.7263 23.3465 14.6932 23.3465 14.6812C23.3465 14.6692 23.4218 14.603 23.512 14.5338C24.1618 14.0314 24.7183 13.153 24.8988 12.3378C25.0492 11.6699 25.0342 11.1284 24.8386 10.1718C24.7634 9.79878 24.6461 9.23021 24.5799 8.90833C24.5168 8.58644 24.3814 7.92161 24.2791 7.43427C24.1798 6.94693 24.0294 6.20689 23.9452 5.79476C23.7888 5.0096 23.7286 4.73283 23.6714 4.53128C23.2082 2.86168 21.8123 1.523 20.1307 1.12892C19.5501 0.996553 19.6193 0.996553 13.1515 0.999561C8.46459 1.00257 6.96346 1.01159 6.75288 1.04168ZM19.9622 1.90806C20.8346 2.14271 21.4634 2.52476 22.0319 3.1595C22.3989 3.56863 22.6456 3.9928 22.8231 4.50421C22.9254 4.81105 22.9735 5.01561 23.2713 6.48666C23.3616 6.93189 23.4849 7.52752 23.5421 7.8103C23.5992 8.09007 23.6444 8.33976 23.6414 8.36383C23.6353 8.3909 23.5752 8.35781 23.4669 8.27057C23.0006 7.89153 22.408 7.62078 21.7221 7.47338C21.4784 7.42224 21.1144 7.41923 13.8554 7.41923C6.67467 7.41923 6.22643 7.42224 5.92861 7.47338C4.614 7.699 3.50996 8.25854 2.66764 9.13094L2.52023 9.28436L2.54129 9.1189C2.55332 9.02866 2.57438 8.90532 2.58942 8.84816C2.60447 8.791 2.63756 8.6436 2.66463 8.52326C2.73984 8.15926 2.80301 7.87649 2.83009 7.75014C2.84513 7.68396 2.87822 7.52151 2.9083 7.38914C2.93538 7.25678 2.97448 7.06726 2.99855 6.96799C3.01961 6.86871 3.13392 6.33926 3.25125 5.79476C3.36556 5.24725 3.49492 4.69373 3.54004 4.56437C4.00933 3.12641 5.29988 2.04644 6.80101 1.83887C6.89126 1.82684 9.82433 1.81781 13.3139 1.82082L19.6614 1.82684L19.9622 1.90806ZM21.5476 8.26155C22.5614 8.43903 23.4097 9.07077 23.87 9.99131C24.0294 10.3132 24.1106 10.5629 24.1738 10.954C24.231 11.3119 24.231 11.4774 24.1738 11.8655C23.9632 13.2703 22.9284 14.3323 21.5175 14.5789C21.2889 14.618 20.3533 14.6241 13.9397 14.6241C5.98878 14.6241 6.48514 14.6361 6.13919 14.4586C5.94365 14.3593 5.67893 14.1157 5.57664 13.9382C5.30289 13.4719 5.32997 12.8973 5.64583 12.437C5.82031 12.1813 6.02187 12.0339 6.42498 11.8655C6.45807 11.8534 9.78222 11.8354 13.8103 11.8264C20.9429 11.8113 21.1385 11.8083 21.2197 11.7542C21.4694 11.5857 21.4423 11.1916 21.1716 11.0653C21.0723 11.0171 20.5579 11.0141 13.7441 11.0201L6.42498 11.0292L6.19033 11.1134C5.89251 11.2187 5.74812 11.2909 5.5225 11.4503C5.03515 11.7963 4.7253 12.2926 4.61099 12.9063C4.57188 13.1259 4.56887 13.2072 4.60196 13.4568C4.71628 14.3684 5.25175 15.0121 6.16927 15.343C6.29261 15.3851 7.07778 15.3912 14.6376 15.4062C21.1776 15.4212 22.9976 15.4303 23.1029 15.4604C23.3465 15.5295 23.5601 15.6529 23.7497 15.8304C23.9602 16.0259 24.0986 16.2606 24.1708 16.5373C24.231 16.772 24.231 16.8983 24.1708 17.133C24.0264 17.6865 23.6714 18.0415 23.1179 18.1859C22.9495 18.228 22.1342 18.234 14.7519 18.234C6.0339 18.234 6.31969 18.237 5.70299 18.0956C4.68319 17.858 3.81379 17.3405 3.06172 16.5223C2.46308 15.8695 2.03289 14.9881 1.84337 14.0224C1.76516 13.6133 1.77418 12.7198 1.86142 12.2926C2.30965 10.1357 3.95217 8.57441 6.1061 8.26155C6.30766 8.23146 8.03742 8.22244 13.8253 8.21943C20.3894 8.21642 21.316 8.22244 21.5476 8.26155Z" stroke="#345E40"/>
<path d="M6.75288 1.04168C4.74335 1.31543 3.15197 2.73835 2.66764 4.69674C2.64357 4.80503 2.52625 5.34652 2.40893 5.90005C2.2916 6.45357 2.17729 6.98904 2.15623 7.08832C2.13217 7.18759 2.09306 7.37711 2.06598 7.50948C2.0359 7.64184 2.00281 7.80429 1.98777 7.87047C1.90955 8.21943 1.84939 8.4992 1.65686 9.41973C1.53953 9.97326 1.43124 10.4817 1.4162 10.5478C1.39815 10.614 1.37408 10.7283 1.35904 10.8035C1.31692 11.0051 1.24172 11.3631 1.19057 11.6007C1.04919 12.2295 1.02211 12.4611 1.00406 13.0297C0.995036 13.3877 1.00105 13.7396 1.02211 13.9291C1.16952 15.2829 1.86744 16.6276 2.90529 17.5481C3.72354 18.2761 4.65611 18.7304 5.7782 18.9469C6.05195 18.9981 6.46108 19.0011 14.6677 19.0011H23.2713L23.497 18.9169C23.879 18.7695 24.0986 18.6311 24.3543 18.3724C24.7725 17.9542 24.962 17.524 24.9921 16.9404C25.0071 16.6456 24.9981 16.5584 24.9439 16.3478C24.8567 16.0109 24.7604 15.7973 24.5769 15.5536C24.3092 15.1926 23.9121 14.8948 23.515 14.7594C23.4218 14.7263 23.3465 14.6932 23.3465 14.6812C23.3465 14.6692 23.4218 14.603 23.512 14.5338C24.1618 14.0314 24.7183 13.153 24.8988 12.3378C25.0492 11.6699 25.0342 11.1284 24.8386 10.1718C24.7634 9.79878 24.6461 9.23021 24.5799 8.90833C24.5168 8.58644 24.3814 7.92161 24.2791 7.43427C24.1798 6.94693 24.0294 6.20689 23.9452 5.79476C23.7888 5.0096 23.7286 4.73283 23.6714 4.53128C23.2082 2.86168 21.8123 1.523 20.1307 1.12892C19.5501 0.996553 19.6193 0.996553 13.1515 0.999561C8.46459 1.00257 6.96346 1.01159 6.75288 1.04168ZM19.9622 1.90806C20.8346 2.14271 21.4634 2.52476 22.0319 3.1595C22.3989 3.56863 22.6456 3.9928 22.8231 4.50421C22.9254 4.81105 22.9735 5.01561 23.2713 6.48666C23.3616 6.93189 23.4849 7.52752 23.5421 7.8103C23.5992 8.09007 23.6444 8.33976 23.6414 8.36383C23.6353 8.3909 23.5752 8.35781 23.4669 8.27057C23.0006 7.89153 22.408 7.62078 21.7221 7.47338C21.4784 7.42224 21.1144 7.41923 13.8554 7.41923C6.67467 7.41923 6.22643 7.42224 5.92861 7.47338C4.614 7.699 3.50996 8.25854 2.66764 9.13094L2.52023 9.28436L2.54129 9.1189C2.55332 9.02866 2.57438 8.90532 2.58942 8.84816C2.60447 8.791 2.63756 8.6436 2.66463 8.52326C2.73984 8.15926 2.80301 7.87649 2.83009 7.75014C2.84513 7.68396 2.87822 7.52151 2.9083 7.38914C2.93538 7.25678 2.97448 7.06726 2.99855 6.96799C3.01961 6.86871 3.13392 6.33926 3.25125 5.79476C3.36556 5.24725 3.49492 4.69373 3.54004 4.56437C4.00933 3.12641 5.29988 2.04644 6.80101 1.83887C6.89126 1.82684 9.82433 1.81781 13.3139 1.82082L19.6614 1.82684L19.9622 1.90806ZM21.5476 8.26155C22.5614 8.43903 23.4097 9.07077 23.87 9.99131C24.0294 10.3132 24.1106 10.5629 24.1738 10.954C24.231 11.3119 24.231 11.4774 24.1738 11.8655C23.9632 13.2703 22.9284 14.3323 21.5175 14.5789C21.2889 14.618 20.3533 14.6241 13.9397 14.6241C5.98878 14.6241 6.48514 14.6361 6.13919 14.4586C5.94365 14.3593 5.67893 14.1157 5.57664 13.9382C5.30289 13.4719 5.32997 12.8973 5.64583 12.437C5.82031 12.1813 6.02187 12.0339 6.42498 11.8655C6.45807 11.8534 9.78222 11.8354 13.8103 11.8264C20.9429 11.8113 21.1385 11.8083 21.2197 11.7542C21.4694 11.5857 21.4423 11.1916 21.1716 11.0653C21.0723 11.0171 20.5579 11.0141 13.7441 11.0201L6.42498 11.0292L6.19033 11.1134C5.89251 11.2187 5.74812 11.2909 5.5225 11.4503C5.03515 11.7963 4.7253 12.2926 4.61099 12.9063C4.57188 13.1259 4.56887 13.2072 4.60196 13.4568C4.71628 14.3684 5.25175 15.0121 6.16927 15.343C6.29261 15.3851 7.07778 15.3912 14.6376 15.4062C21.1776 15.4212 22.9976 15.4303 23.1029 15.4604C23.3465 15.5295 23.5601 15.6529 23.7497 15.8304C23.9602 16.0259 24.0986 16.2606 24.1708 16.5373C24.231 16.772 24.231 16.8983 24.1708 17.133C24.0264 17.6865 23.6714 18.0415 23.1179 18.1859C22.9495 18.228 22.1342 18.234 14.7519 18.234C6.0339 18.234 6.31969 18.237 5.70299 18.0956C4.68319 17.858 3.81379 17.3405 3.06172 16.5223C2.46308 15.8695 2.03289 14.9881 1.84337 14.0224C1.76516 13.6133 1.77418 12.7198 1.86142 12.2926C2.30965 10.1357 3.95217 8.57441 6.1061 8.26155C6.30766 8.23146 8.03742 8.22244 13.8253 8.21943C20.3894 8.21642 21.316 8.22244 21.5476 8.26155Z" stroke="black" stroke-opacity="0.2"/>
<path d="M6.75288 1.04168C4.74335 1.31543 3.15197 2.73835 2.66764 4.69674C2.64357 4.80503 2.52625 5.34652 2.40893 5.90005C2.2916 6.45357 2.17729 6.98904 2.15623 7.08832C2.13217 7.18759 2.09306 7.37711 2.06598 7.50948C2.0359 7.64184 2.00281 7.80429 1.98777 7.87047C1.90955 8.21943 1.84939 8.4992 1.65686 9.41973C1.53953 9.97326 1.43124 10.4817 1.4162 10.5478C1.39815 10.614 1.37408 10.7283 1.35904 10.8035C1.31692 11.0051 1.24172 11.3631 1.19057 11.6007C1.04919 12.2295 1.02211 12.4611 1.00406 13.0297C0.995036 13.3877 1.00105 13.7396 1.02211 13.9291C1.16952 15.2829 1.86744 16.6276 2.90529 17.5481C3.72354 18.2761 4.65611 18.7304 5.7782 18.9469C6.05195 18.9981 6.46108 19.0011 14.6677 19.0011H23.2713L23.497 18.9169C23.879 18.7695 24.0986 18.6311 24.3543 18.3724C24.7725 17.9542 24.962 17.524 24.9921 16.9404C25.0071 16.6456 24.9981 16.5584 24.9439 16.3478C24.8567 16.0109 24.7604 15.7973 24.5769 15.5536C24.3092 15.1926 23.9121 14.8948 23.515 14.7594C23.4218 14.7263 23.3465 14.6932 23.3465 14.6812C23.3465 14.6692 23.4218 14.603 23.512 14.5338C24.1618 14.0314 24.7183 13.153 24.8988 12.3378C25.0492 11.6699 25.0342 11.1284 24.8386 10.1718C24.7634 9.79878 24.6461 9.23021 24.5799 8.90833C24.5168 8.58644 24.3814 7.92161 24.2791 7.43427C24.1798 6.94693 24.0294 6.20689 23.9452 5.79476C23.7888 5.0096 23.7286 4.73283 23.6714 4.53128C23.2082 2.86168 21.8123 1.523 20.1307 1.12892C19.5501 0.996553 19.6193 0.996553 13.1515 0.999561C8.46459 1.00257 6.96346 1.01159 6.75288 1.04168ZM19.9622 1.90806C20.8346 2.14271 21.4634 2.52476 22.0319 3.1595C22.3989 3.56863 22.6456 3.9928 22.8231 4.50421C22.9254 4.81105 22.9735 5.01561 23.2713 6.48666C23.3616 6.93189 23.4849 7.52752 23.5421 7.8103C23.5992 8.09007 23.6444 8.33976 23.6414 8.36383C23.6353 8.3909 23.5752 8.35781 23.4669 8.27057C23.0006 7.89153 22.408 7.62078 21.7221 7.47338C21.4784 7.42224 21.1144 7.41923 13.8554 7.41923C6.67467 7.41923 6.22643 7.42224 5.92861 7.47338C4.614 7.699 3.50996 8.25854 2.66764 9.13094L2.52023 9.28436L2.54129 9.1189C2.55332 9.02866 2.57438 8.90532 2.58942 8.84816C2.60447 8.791 2.63756 8.6436 2.66463 8.52326C2.73984 8.15926 2.80301 7.87649 2.83009 7.75014C2.84513 7.68396 2.87822 7.52151 2.9083 7.38914C2.93538 7.25678 2.97448 7.06726 2.99855 6.96799C3.01961 6.86871 3.13392 6.33926 3.25125 5.79476C3.36556 5.24725 3.49492 4.69373 3.54004 4.56437C4.00933 3.12641 5.29988 2.04644 6.80101 1.83887C6.89126 1.82684 9.82433 1.81781 13.3139 1.82082L19.6614 1.82684L19.9622 1.90806ZM21.5476 8.26155C22.5614 8.43903 23.4097 9.07077 23.87 9.99131C24.0294 10.3132 24.1106 10.5629 24.1738 10.954C24.231 11.3119 24.231 11.4774 24.1738 11.8655C23.9632 13.2703 22.9284 14.3323 21.5175 14.5789C21.2889 14.618 20.3533 14.6241 13.9397 14.6241C5.98878 14.6241 6.48514 14.6361 6.13919 14.4586C5.94365 14.3593 5.67893 14.1157 5.57664 13.9382C5.30289 13.4719 5.32997 12.8973 5.64583 12.437C5.82031 12.1813 6.02187 12.0339 6.42498 11.8655C6.45807 11.8534 9.78222 11.8354 13.8103 11.8264C20.9429 11.8113 21.1385 11.8083 21.2197 11.7542C21.4694 11.5857 21.4423 11.1916 21.1716 11.0653C21.0723 11.0171 20.5579 11.0141 13.7441 11.0201L6.42498 11.0292L6.19033 11.1134C5.89251 11.2187 5.74812 11.2909 5.5225 11.4503C5.03515 11.7963 4.7253 12.2926 4.61099 12.9063C4.57188 13.1259 4.56887 13.2072 4.60196 13.4568C4.71628 14.3684 5.25175 15.0121 6.16927 15.343C6.29261 15.3851 7.07778 15.3912 14.6376 15.4062C21.1776 15.4212 22.9976 15.4303 23.1029 15.4604C23.3465 15.5295 23.5601 15.6529 23.7497 15.8304C23.9602 16.0259 24.0986 16.2606 24.1708 16.5373C24.231 16.772 24.231 16.8983 24.1708 17.133C24.0264 17.6865 23.6714 18.0415 23.1179 18.1859C22.9495 18.228 22.1342 18.234 14.7519 18.234C6.0339 18.234 6.31969 18.237 5.70299 18.0956C4.68319 17.858 3.81379 17.3405 3.06172 16.5223C2.46308 15.8695 2.03289 14.9881 1.84337 14.0224C1.76516 13.6133 1.77418 12.7198 1.86142 12.2926C2.30965 10.1357 3.95217 8.57441 6.1061 8.26155C6.30766 8.23146 8.03742 8.22244 13.8253 8.21943C20.3894 8.21642 21.316 8.22244 21.5476 8.26155Z" stroke="black" stroke-opacity="0.2"/>
<path d="M6.75288 1.04168C4.74335 1.31543 3.15197 2.73835 2.66764 4.69674C2.64357 4.80503 2.52625 5.34652 2.40893 5.90005C2.2916 6.45357 2.17729 6.98904 2.15623 7.08832C2.13217 7.18759 2.09306 7.37711 2.06598 7.50948C2.0359 7.64184 2.00281 7.80429 1.98777 7.87047C1.90955 8.21943 1.84939 8.4992 1.65686 9.41973C1.53953 9.97326 1.43124 10.4817 1.4162 10.5478C1.39815 10.614 1.37408 10.7283 1.35904 10.8035C1.31692 11.0051 1.24172 11.3631 1.19057 11.6007C1.04919 12.2295 1.02211 12.4611 1.00406 13.0297C0.995036 13.3877 1.00105 13.7396 1.02211 13.9291C1.16952 15.2829 1.86744 16.6276 2.90529 17.5481C3.72354 18.2761 4.65611 18.7304 5.7782 18.9469C6.05195 18.9981 6.46108 19.0011 14.6677 19.0011H23.2713L23.497 18.9169C23.879 18.7695 24.0986 18.6311 24.3543 18.3724C24.7725 17.9542 24.962 17.524 24.9921 16.9404C25.0071 16.6456 24.9981 16.5584 24.9439 16.3478C24.8567 16.0109 24.7604 15.7973 24.5769 15.5536C24.3092 15.1926 23.9121 14.8948 23.515 14.7594C23.4218 14.7263 23.3465 14.6932 23.3465 14.6812C23.3465 14.6692 23.4218 14.603 23.512 14.5338C24.1618 14.0314 24.7183 13.153 24.8988 12.3378C25.0492 11.6699 25.0342 11.1284 24.8386 10.1718C24.7634 9.79878 24.6461 9.23021 24.5799 8.90833C24.5168 8.58644 24.3814 7.92161 24.2791 7.43427C24.1798 6.94693 24.0294 6.20689 23.9452 5.79476C23.7888 5.0096 23.7286 4.73283 23.6714 4.53128C23.2082 2.86168 21.8123 1.523 20.1307 1.12892C19.5501 0.996553 19.6193 0.996553 13.1515 0.999561C8.46459 1.00257 6.96346 1.01159 6.75288 1.04168ZM19.9622 1.90806C20.8346 2.14271 21.4634 2.52476 22.0319 3.1595C22.3989 3.56863 22.6456 3.9928 22.8231 4.50421C22.9254 4.81105 22.9735 5.01561 23.2713 6.48666C23.3616 6.93189 23.4849 7.52752 23.5421 7.8103C23.5992 8.09007 23.6444 8.33976 23.6414 8.36383C23.6353 8.3909 23.5752 8.35781 23.4669 8.27057C23.0006 7.89153 22.408 7.62078 21.7221 7.47338C21.4784 7.42224 21.1144 7.41923 13.8554 7.41923C6.67467 7.41923 6.22643 7.42224 5.92861 7.47338C4.614 7.699 3.50996 8.25854 2.66764 9.13094L2.52023 9.28436L2.54129 9.1189C2.55332 9.02866 2.57438 8.90532 2.58942 8.84816C2.60447 8.791 2.63756 8.6436 2.66463 8.52326C2.73984 8.15926 2.80301 7.87649 2.83009 7.75014C2.84513 7.68396 2.87822 7.52151 2.9083 7.38914C2.93538 7.25678 2.97448 7.06726 2.99855 6.96799C3.01961 6.86871 3.13392 6.33926 3.25125 5.79476C3.36556 5.24725 3.49492 4.69373 3.54004 4.56437C4.00933 3.12641 5.29988 2.04644 6.80101 1.83887C6.89126 1.82684 9.82433 1.81781 13.3139 1.82082L19.6614 1.82684L19.9622 1.90806ZM21.5476 8.26155C22.5614 8.43903 23.4097 9.07077 23.87 9.99131C24.0294 10.3132 24.1106 10.5629 24.1738 10.954C24.231 11.3119 24.231 11.4774 24.1738 11.8655C23.9632 13.2703 22.9284 14.3323 21.5175 14.5789C21.2889 14.618 20.3533 14.6241 13.9397 14.6241C5.98878 14.6241 6.48514 14.6361 6.13919 14.4586C5.94365 14.3593 5.67893 14.1157 5.57664 13.9382C5.30289 13.4719 5.32997 12.8973 5.64583 12.437C5.82031 12.1813 6.02187 12.0339 6.42498 11.8655C6.45807 11.8534 9.78222 11.8354 13.8103 11.8264C20.9429 11.8113 21.1385 11.8083 21.2197 11.7542C21.4694 11.5857 21.4423 11.1916 21.1716 11.0653C21.0723 11.0171 20.5579 11.0141 13.7441 11.0201L6.42498 11.0292L6.19033 11.1134C5.89251 11.2187 5.74812 11.2909 5.5225 11.4503C5.03515 11.7963 4.7253 12.2926 4.61099 12.9063C4.57188 13.1259 4.56887 13.2072 4.60196 13.4568C4.71628 14.3684 5.25175 15.0121 6.16927 15.343C6.29261 15.3851 7.07778 15.3912 14.6376 15.4062C21.1776 15.4212 22.9976 15.4303 23.1029 15.4604C23.3465 15.5295 23.5601 15.6529 23.7497 15.8304C23.9602 16.0259 24.0986 16.2606 24.1708 16.5373C24.231 16.772 24.231 16.8983 24.1708 17.133C24.0264 17.6865 23.6714 18.0415 23.1179 18.1859C22.9495 18.228 22.1342 18.234 14.7519 18.234C6.0339 18.234 6.31969 18.237 5.70299 18.0956C4.68319 17.858 3.81379 17.3405 3.06172 16.5223C2.46308 15.8695 2.03289 14.9881 1.84337 14.0224C1.76516 13.6133 1.77418 12.7198 1.86142 12.2926C2.30965 10.1357 3.95217 8.57441 6.1061 8.26155C6.30766 8.23146 8.03742 8.22244 13.8253 8.21943C20.3894 8.21642 21.316 8.22244 21.5476 8.26155Z" stroke="black" stroke-opacity="0.2"/>
<path d="M6.75288 1.04168C4.74335 1.31543 3.15197 2.73835 2.66764 4.69674C2.64357 4.80503 2.52625 5.34652 2.40893 5.90005C2.2916 6.45357 2.17729 6.98904 2.15623 7.08832C2.13217 7.18759 2.09306 7.37711 2.06598 7.50948C2.0359 7.64184 2.00281 7.80429 1.98777 7.87047C1.90955 8.21943 1.84939 8.4992 1.65686 9.41973C1.53953 9.97326 1.43124 10.4817 1.4162 10.5478C1.39815 10.614 1.37408 10.7283 1.35904 10.8035C1.31692 11.0051 1.24172 11.3631 1.19057 11.6007C1.04919 12.2295 1.02211 12.4611 1.00406 13.0297C0.995036 13.3877 1.00105 13.7396 1.02211 13.9291C1.16952 15.2829 1.86744 16.6276 2.90529 17.5481C3.72354 18.2761 4.65611 18.7304 5.7782 18.9469C6.05195 18.9981 6.46108 19.0011 14.6677 19.0011H23.2713L23.497 18.9169C23.879 18.7695 24.0986 18.6311 24.3543 18.3724C24.7725 17.9542 24.962 17.524 24.9921 16.9404C25.0071 16.6456 24.9981 16.5584 24.9439 16.3478C24.8567 16.0109 24.7604 15.7973 24.5769 15.5536C24.3092 15.1926 23.9121 14.8948 23.515 14.7594C23.4218 14.7263 23.3465 14.6932 23.3465 14.6812C23.3465 14.6692 23.4218 14.603 23.512 14.5338C24.1618 14.0314 24.7183 13.153 24.8988 12.3378C25.0492 11.6699 25.0342 11.1284 24.8386 10.1718C24.7634 9.79878 24.6461 9.23021 24.5799 8.90833C24.5168 8.58644 24.3814 7.92161 24.2791 7.43427C24.1798 6.94693 24.0294 6.20689 23.9452 5.79476C23.7888 5.0096 23.7286 4.73283 23.6714 4.53128C23.2082 2.86168 21.8123 1.523 20.1307 1.12892C19.5501 0.996553 19.6193 0.996553 13.1515 0.999561C8.46459 1.00257 6.96346 1.01159 6.75288 1.04168ZM19.9622 1.90806C20.8346 2.14271 21.4634 2.52476 22.0319 3.1595C22.3989 3.56863 22.6456 3.9928 22.8231 4.50421C22.9254 4.81105 22.9735 5.01561 23.2713 6.48666C23.3616 6.93189 23.4849 7.52752 23.5421 7.8103C23.5992 8.09007 23.6444 8.33976 23.6414 8.36383C23.6353 8.3909 23.5752 8.35781 23.4669 8.27057C23.0006 7.89153 22.408 7.62078 21.7221 7.47338C21.4784 7.42224 21.1144 7.41923 13.8554 7.41923C6.67467 7.41923 6.22643 7.42224 5.92861 7.47338C4.614 7.699 3.50996 8.25854 2.66764 9.13094L2.52023 9.28436L2.54129 9.1189C2.55332 9.02866 2.57438 8.90532 2.58942 8.84816C2.60447 8.791 2.63756 8.6436 2.66463 8.52326C2.73984 8.15926 2.80301 7.87649 2.83009 7.75014C2.84513 7.68396 2.87822 7.52151 2.9083 7.38914C2.93538 7.25678 2.97448 7.06726 2.99855 6.96799C3.01961 6.86871 3.13392 6.33926 3.25125 5.79476C3.36556 5.24725 3.49492 4.69373 3.54004 4.56437C4.00933 3.12641 5.29988 2.04644 6.80101 1.83887C6.89126 1.82684 9.82433 1.81781 13.3139 1.82082L19.6614 1.82684L19.9622 1.90806ZM21.5476 8.26155C22.5614 8.43903 23.4097 9.07077 23.87 9.99131C24.0294 10.3132 24.1106 10.5629 24.1738 10.954C24.231 11.3119 24.231 11.4774 24.1738 11.8655C23.9632 13.2703 22.9284 14.3323 21.5175 14.5789C21.2889 14.618 20.3533 14.6241 13.9397 14.6241C5.98878 14.6241 6.48514 14.6361 6.13919 14.4586C5.94365 14.3593 5.67893 14.1157 5.57664 13.9382C5.30289 13.4719 5.32997 12.8973 5.64583 12.437C5.82031 12.1813 6.02187 12.0339 6.42498 11.8655C6.45807 11.8534 9.78222 11.8354 13.8103 11.8264C20.9429 11.8113 21.1385 11.8083 21.2197 11.7542C21.4694 11.5857 21.4423 11.1916 21.1716 11.0653C21.0723 11.0171 20.5579 11.0141 13.7441 11.0201L6.42498 11.0292L6.19033 11.1134C5.89251 11.2187 5.74812 11.2909 5.5225 11.4503C5.03515 11.7963 4.7253 12.2926 4.61099 12.9063C4.57188 13.1259 4.56887 13.2072 4.60196 13.4568C4.71628 14.3684 5.25175 15.0121 6.16927 15.343C6.29261 15.3851 7.07778 15.3912 14.6376 15.4062C21.1776 15.4212 22.9976 15.4303 23.1029 15.4604C23.3465 15.5295 23.5601 15.6529 23.7497 15.8304C23.9602 16.0259 24.0986 16.2606 24.1708 16.5373C24.231 16.772 24.231 16.8983 24.1708 17.133C24.0264 17.6865 23.6714 18.0415 23.1179 18.1859C22.9495 18.228 22.1342 18.234 14.7519 18.234C6.0339 18.234 6.31969 18.237 5.70299 18.0956C4.68319 17.858 3.81379 17.3405 3.06172 16.5223C2.46308 15.8695 2.03289 14.9881 1.84337 14.0224C1.76516 13.6133 1.77418 12.7198 1.86142 12.2926C2.30965 10.1357 3.95217 8.57441 6.1061 8.26155C6.30766 8.23146 8.03742 8.22244 13.8253 8.21943C20.3894 8.21642 21.316 8.22244 21.5476 8.26155Z" stroke="black" stroke-opacity="0.2"/>
<path d="M7.04165 2.62401C5.96469 2.74434 5.04114 3.35502 4.52974 4.28458C4.38233 4.54931 4.21387 5.04267 4.21387 5.20211C4.21387 5.4909 4.43949 5.6714 4.71023 5.59619C4.86666 5.55107 4.9509 5.44277 5.02309 5.18706C5.26676 4.35377 5.85037 3.75813 6.68066 3.49942L6.93636 3.4212L8.83157 3.40316C10.3177 3.39112 10.7418 3.37909 10.796 3.34901C10.8983 3.28884 10.9825 3.13241 10.9825 2.99704C10.9825 2.84061 10.8471 2.66613 10.6877 2.621C10.5523 2.5849 7.37858 2.5849 7.04165 2.62401Z" fill="#345E40"/>
<path d="M7.04165 2.62401C5.96469 2.74434 5.04114 3.35502 4.52974 4.28458C4.38233 4.54931 4.21387 5.04267 4.21387 5.20211C4.21387 5.4909 4.43949 5.6714 4.71023 5.59619C4.86666 5.55107 4.9509 5.44277 5.02309 5.18706C5.26676 4.35377 5.85037 3.75813 6.68066 3.49942L6.93636 3.4212L8.83157 3.40316C10.3177 3.39112 10.7418 3.37909 10.796 3.34901C10.8983 3.28884 10.9825 3.13241 10.9825 2.99704C10.9825 2.84061 10.8471 2.66613 10.6877 2.621C10.5523 2.5849 7.37858 2.5849 7.04165 2.62401Z" fill="black" fill-opacity="0.2"/>
<path d="M7.04165 2.62401C5.96469 2.74434 5.04114 3.35502 4.52974 4.28458C4.38233 4.54931 4.21387 5.04267 4.21387 5.20211C4.21387 5.4909 4.43949 5.6714 4.71023 5.59619C4.86666 5.55107 4.9509 5.44277 5.02309 5.18706C5.26676 4.35377 5.85037 3.75813 6.68066 3.49942L6.93636 3.4212L8.83157 3.40316C10.3177 3.39112 10.7418 3.37909 10.796 3.34901C10.8983 3.28884 10.9825 3.13241 10.9825 2.99704C10.9825 2.84061 10.8471 2.66613 10.6877 2.621C10.5523 2.5849 7.37858 2.5849 7.04165 2.62401Z" fill="black" fill-opacity="0.2"/>
<path d="M7.04165 2.62401C5.96469 2.74434 5.04114 3.35502 4.52974 4.28458C4.38233 4.54931 4.21387 5.04267 4.21387 5.20211C4.21387 5.4909 4.43949 5.6714 4.71023 5.59619C4.86666 5.55107 4.9509 5.44277 5.02309 5.18706C5.26676 4.35377 5.85037 3.75813 6.68066 3.49942L6.93636 3.4212L8.83157 3.40316C10.3177 3.39112 10.7418 3.37909 10.796 3.34901C10.8983 3.28884 10.9825 3.13241 10.9825 2.99704C10.9825 2.84061 10.8471 2.66613 10.6877 2.621C10.5523 2.5849 7.37858 2.5849 7.04165 2.62401Z" fill="black" fill-opacity="0.2"/>
<path d="M7.04165 2.62401C5.96469 2.74434 5.04114 3.35502 4.52974 4.28458C4.38233 4.54931 4.21387 5.04267 4.21387 5.20211C4.21387 5.4909 4.43949 5.6714 4.71023 5.59619C4.86666 5.55107 4.9509 5.44277 5.02309 5.18706C5.26676 4.35377 5.85037 3.75813 6.68066 3.49942L6.93636 3.4212L8.83157 3.40316C10.3177 3.39112 10.7418 3.37909 10.796 3.34901C10.8983 3.28884 10.9825 3.13241 10.9825 2.99704C10.9825 2.84061 10.8471 2.66613 10.6877 2.621C10.5523 2.5849 7.37858 2.5849 7.04165 2.62401Z" fill="black" fill-opacity="0.2"/>
<path d="M12.0743 2.62699C11.7615 2.72927 11.7013 3.17149 11.9811 3.34296C12.2428 3.5024 12.5767 3.31588 12.5767 3.01205C12.5767 2.83456 12.5045 2.71724 12.3571 2.64805C12.2157 2.58487 12.2097 2.58487 12.0743 2.62699Z" fill="#345E40"/>
<path d="M12.0743 2.62699C11.7615 2.72927 11.7013 3.17149 11.9811 3.34296C12.2428 3.5024 12.5767 3.31588 12.5767 3.01205C12.5767 2.83456 12.5045 2.71724 12.3571 2.64805C12.2157 2.58487 12.2097 2.58487 12.0743 2.62699Z" fill="black" fill-opacity="0.2"/>
<path d="M12.0743 2.62699C11.7615 2.72927 11.7013 3.17149 11.9811 3.34296C12.2428 3.5024 12.5767 3.31588 12.5767 3.01205C12.5767 2.83456 12.5045 2.71724 12.3571 2.64805C12.2157 2.58487 12.2097 2.58487 12.0743 2.62699Z" fill="black" fill-opacity="0.2"/>
<path d="M12.0743 2.62699C11.7615 2.72927 11.7013 3.17149 11.9811 3.34296C12.2428 3.5024 12.5767 3.31588 12.5767 3.01205C12.5767 2.83456 12.5045 2.71724 12.3571 2.64805C12.2157 2.58487 12.2097 2.58487 12.0743 2.62699Z" fill="black" fill-opacity="0.2"/>
<path d="M12.0743 2.62699C11.7615 2.72927 11.7013 3.17149 11.9811 3.34296C12.2428 3.5024 12.5767 3.31588 12.5767 3.01205C12.5767 2.83456 12.5045 2.71724 12.3571 2.64805C12.2157 2.58487 12.2097 2.58487 12.0743 2.62699Z" fill="black" fill-opacity="0.2"/>
</svg>
