<svg width="16" height="26" viewBox="0 0 16 26" fill="none" xmlns="http://www.w3.org/2000/svg">
<path d="M6.21163 1.02899C5.9114 1.12406 5.61617 1.36424 5.49107 1.61193C5.45354 1.68199 5.09327 2.62522 4.68545 3.70856C4.07248 5.34732 3.94738 5.70259 3.94738 5.80768C3.94738 5.95279 4.00743 6.07038 4.11501 6.14043C4.18006 6.18297 4.36771 6.18547 7.77284 6.19798L11.3631 6.21049L12.4339 9.06269C13.0244 10.6314 13.5723 12.1125 13.6549 12.3552C13.9676 13.286 14.1753 14.2317 14.3104 15.33C14.3604 15.7429 14.3654 15.908 14.3654 16.8687C14.3654 17.832 14.3604 17.9921 14.3104 18.4074C14.1603 19.6309 13.9051 20.7217 13.5298 21.75C13.3572 22.2179 12.6316 23.9567 12.574 24.0443C12.5465 24.0818 12.489 24.1318 12.4464 24.1568C12.3714 24.1969 12.0962 24.1994 8.00051 24.1994C3.90485 24.1994 3.62964 24.1969 3.55458 24.1568C3.51205 24.1318 3.4545 24.0818 3.42698 24.0443C3.36944 23.9592 2.63887 22.2053 2.46874 21.74C2.09595 20.7242 1.83575 19.6108 1.69314 18.4199C1.62559 17.8495 1.59807 16.4909 1.6431 15.873C1.72567 14.7571 1.93833 13.6412 2.27609 12.5654C2.33113 12.3853 2.82652 11.0417 3.37444 9.57809C3.92486 8.11196 4.37271 6.90102 4.37271 6.88351C4.37271 6.85849 3.62463 6.55826 3.60962 6.57827C3.58961 6.6108 1.62309 11.8924 1.54302 12.1326C1.15272 13.321 0.905032 14.582 0.817464 15.8379C0.779935 16.3959 0.802452 17.8645 0.854993 18.3699C1.03513 20.0187 1.36289 21.2746 2.05342 22.9484C2.69892 24.5096 2.70893 24.5296 2.91909 24.7173C2.98164 24.7723 3.11924 24.8599 3.22182 24.9099L3.40947 25H8.00051H12.5916L12.7792 24.9099C12.9994 24.8048 13.167 24.6622 13.2771 24.4896C13.3521 24.3745 13.765 23.4113 14.1302 22.4981C14.6582 21.1795 14.9834 19.851 15.1435 18.3699C15.2086 17.7819 15.2211 16.3458 15.1711 15.7003C15.0785 14.5469 14.8608 13.4236 14.518 12.3152C14.3854 11.8949 10.6125 1.81209 10.51 1.61193C10.4124 1.41678 10.1897 1.20912 9.95953 1.09904L9.76437 1.00647L8.03804 1.00146C6.6895 0.99646 6.28919 1.00397 6.21163 1.02899ZM8.80113 2.57518C8.80113 3.00551 8.78862 3.40332 8.77611 3.45586C8.74859 3.57845 8.68354 3.66852 8.57345 3.73357C8.49589 3.77861 8.44335 3.78361 8.00051 3.78361C7.55767 3.78361 7.50513 3.77861 7.42757 3.73357C7.31748 3.66852 7.25243 3.57845 7.22491 3.45586C7.2124 3.40332 7.19989 3.00551 7.19989 2.57518V1.79458H8.00051H8.80113V2.57518ZM6.46933 3.84366C6.61694 4.19393 6.90467 4.45663 7.24743 4.55671C7.35501 4.58924 7.51264 4.59674 8.00552 4.59674C8.56845 4.59674 8.64351 4.59174 8.78362 4.5442C9.12888 4.42911 9.4091 4.16141 9.5442 3.81864C9.58173 3.72357 9.58924 3.58096 9.60175 2.77033L9.61426 1.83461L9.69682 1.90716C9.76938 1.97472 9.85194 2.17987 10.4149 3.68103C10.7651 4.61676 11.0529 5.38485 11.0529 5.38985C11.0529 5.39235 9.67931 5.39736 8.00051 5.39736C6.32172 5.39736 4.94815 5.39235 4.94815 5.38985C4.94815 5.38485 5.23588 4.61676 5.58615 3.68103C6.14908 2.17987 6.23165 1.97472 6.3042 1.90716L6.38677 1.83461L6.39928 2.77033C6.41179 3.67603 6.41429 3.71356 6.46933 3.84366Z" fill="#345E40"/>
<path d="M6.21163 1.02899C5.9114 1.12406 5.61617 1.36424 5.49107 1.61193C5.45354 1.68199 5.09327 2.62522 4.68545 3.70856C4.07248 5.34732 3.94738 5.70259 3.94738 5.80768C3.94738 5.95279 4.00743 6.07038 4.11501 6.14043C4.18006 6.18297 4.36771 6.18547 7.77284 6.19798L11.3631 6.21049L12.4339 9.06269C13.0244 10.6314 13.5723 12.1125 13.6549 12.3552C13.9676 13.286 14.1753 14.2317 14.3104 15.33C14.3604 15.7429 14.3654 15.908 14.3654 16.8687C14.3654 17.832 14.3604 17.9921 14.3104 18.4074C14.1603 19.6309 13.9051 20.7217 13.5298 21.75C13.3572 22.2179 12.6316 23.9567 12.574 24.0443C12.5465 24.0818 12.489 24.1318 12.4464 24.1568C12.3714 24.1969 12.0962 24.1994 8.00051 24.1994C3.90485 24.1994 3.62964 24.1969 3.55458 24.1568C3.51205 24.1318 3.4545 24.0818 3.42698 24.0443C3.36944 23.9592 2.63887 22.2053 2.46874 21.74C2.09595 20.7242 1.83575 19.6108 1.69314 18.4199C1.62559 17.8495 1.59807 16.4909 1.6431 15.873C1.72567 14.7571 1.93833 13.6412 2.27609 12.5654C2.33113 12.3853 2.82652 11.0417 3.37444 9.57809C3.92486 8.11196 4.37271 6.90102 4.37271 6.88351C4.37271 6.85849 3.62463 6.55826 3.60962 6.57827C3.58961 6.6108 1.62309 11.8924 1.54302 12.1326C1.15272 13.321 0.905032 14.582 0.817464 15.8379C0.779935 16.3959 0.802452 17.8645 0.854993 18.3699C1.03513 20.0187 1.36289 21.2746 2.05342 22.9484C2.69892 24.5096 2.70893 24.5296 2.91909 24.7173C2.98164 24.7723 3.11924 24.8599 3.22182 24.9099L3.40947 25H8.00051H12.5916L12.7792 24.9099C12.9994 24.8048 13.167 24.6622 13.2771 24.4896C13.3521 24.3745 13.765 23.4113 14.1302 22.4981C14.6582 21.1795 14.9834 19.851 15.1435 18.3699C15.2086 17.7819 15.2211 16.3458 15.1711 15.7003C15.0785 14.5469 14.8608 13.4236 14.518 12.3152C14.3854 11.8949 10.6125 1.81209 10.51 1.61193C10.4124 1.41678 10.1897 1.20912 9.95953 1.09904L9.76437 1.00647L8.03804 1.00146C6.6895 0.99646 6.28919 1.00397 6.21163 1.02899ZM8.80113 2.57518C8.80113 3.00551 8.78862 3.40332 8.77611 3.45586C8.74859 3.57845 8.68354 3.66852 8.57345 3.73357C8.49589 3.77861 8.44335 3.78361 8.00051 3.78361C7.55767 3.78361 7.50513 3.77861 7.42757 3.73357C7.31748 3.66852 7.25243 3.57845 7.22491 3.45586C7.2124 3.40332 7.19989 3.00551 7.19989 2.57518V1.79458H8.00051H8.80113V2.57518ZM6.46933 3.84366C6.61694 4.19393 6.90467 4.45663 7.24743 4.55671C7.35501 4.58924 7.51264 4.59674 8.00552 4.59674C8.56845 4.59674 8.64351 4.59174 8.78362 4.5442C9.12888 4.42911 9.4091 4.16141 9.5442 3.81864C9.58173 3.72357 9.58924 3.58096 9.60175 2.77033L9.61426 1.83461L9.69682 1.90716C9.76938 1.97472 9.85194 2.17987 10.4149 3.68103C10.7651 4.61676 11.0529 5.38485 11.0529 5.38985C11.0529 5.39235 9.67931 5.39736 8.00051 5.39736C6.32172 5.39736 4.94815 5.39235 4.94815 5.38985C4.94815 5.38485 5.23588 4.61676 5.58615 3.68103C6.14908 2.17987 6.23165 1.97472 6.3042 1.90716L6.38677 1.83461L6.39928 2.77033C6.41179 3.67603 6.41429 3.71356 6.46933 3.84366Z" fill="black" fill-opacity="0.2"/>
<path d="M6.21163 1.02899C5.9114 1.12406 5.61617 1.36424 5.49107 1.61193C5.45354 1.68199 5.09327 2.62522 4.68545 3.70856C4.07248 5.34732 3.94738 5.70259 3.94738 5.80768C3.94738 5.95279 4.00743 6.07038 4.11501 6.14043C4.18006 6.18297 4.36771 6.18547 7.77284 6.19798L11.3631 6.21049L12.4339 9.06269C13.0244 10.6314 13.5723 12.1125 13.6549 12.3552C13.9676 13.286 14.1753 14.2317 14.3104 15.33C14.3604 15.7429 14.3654 15.908 14.3654 16.8687C14.3654 17.832 14.3604 17.9921 14.3104 18.4074C14.1603 19.6309 13.9051 20.7217 13.5298 21.75C13.3572 22.2179 12.6316 23.9567 12.574 24.0443C12.5465 24.0818 12.489 24.1318 12.4464 24.1568C12.3714 24.1969 12.0962 24.1994 8.00051 24.1994C3.90485 24.1994 3.62964 24.1969 3.55458 24.1568C3.51205 24.1318 3.4545 24.0818 3.42698 24.0443C3.36944 23.9592 2.63887 22.2053 2.46874 21.74C2.09595 20.7242 1.83575 19.6108 1.69314 18.4199C1.62559 17.8495 1.59807 16.4909 1.6431 15.873C1.72567 14.7571 1.93833 13.6412 2.27609 12.5654C2.33113 12.3853 2.82652 11.0417 3.37444 9.57809C3.92486 8.11196 4.37271 6.90102 4.37271 6.88351C4.37271 6.85849 3.62463 6.55826 3.60962 6.57827C3.58961 6.6108 1.62309 11.8924 1.54302 12.1326C1.15272 13.321 0.905032 14.582 0.817464 15.8379C0.779935 16.3959 0.802452 17.8645 0.854993 18.3699C1.03513 20.0187 1.36289 21.2746 2.05342 22.9484C2.69892 24.5096 2.70893 24.5296 2.91909 24.7173C2.98164 24.7723 3.11924 24.8599 3.22182 24.9099L3.40947 25H8.00051H12.5916L12.7792 24.9099C12.9994 24.8048 13.167 24.6622 13.2771 24.4896C13.3521 24.3745 13.765 23.4113 14.1302 22.4981C14.6582 21.1795 14.9834 19.851 15.1435 18.3699C15.2086 17.7819 15.2211 16.3458 15.1711 15.7003C15.0785 14.5469 14.8608 13.4236 14.518 12.3152C14.3854 11.8949 10.6125 1.81209 10.51 1.61193C10.4124 1.41678 10.1897 1.20912 9.95953 1.09904L9.76437 1.00647L8.03804 1.00146C6.6895 0.99646 6.28919 1.00397 6.21163 1.02899ZM8.80113 2.57518C8.80113 3.00551 8.78862 3.40332 8.77611 3.45586C8.74859 3.57845 8.68354 3.66852 8.57345 3.73357C8.49589 3.77861 8.44335 3.78361 8.00051 3.78361C7.55767 3.78361 7.50513 3.77861 7.42757 3.73357C7.31748 3.66852 7.25243 3.57845 7.22491 3.45586C7.2124 3.40332 7.19989 3.00551 7.19989 2.57518V1.79458H8.00051H8.80113V2.57518ZM6.46933 3.84366C6.61694 4.19393 6.90467 4.45663 7.24743 4.55671C7.35501 4.58924 7.51264 4.59674 8.00552 4.59674C8.56845 4.59674 8.64351 4.59174 8.78362 4.5442C9.12888 4.42911 9.4091 4.16141 9.5442 3.81864C9.58173 3.72357 9.58924 3.58096 9.60175 2.77033L9.61426 1.83461L9.69682 1.90716C9.76938 1.97472 9.85194 2.17987 10.4149 3.68103C10.7651 4.61676 11.0529 5.38485 11.0529 5.38985C11.0529 5.39235 9.67931 5.39736 8.00051 5.39736C6.32172 5.39736 4.94815 5.39235 4.94815 5.38985C4.94815 5.38485 5.23588 4.61676 5.58615 3.68103C6.14908 2.17987 6.23165 1.97472 6.3042 1.90716L6.38677 1.83461L6.39928 2.77033C6.41179 3.67603 6.41429 3.71356 6.46933 3.84366Z" fill="black" fill-opacity="0.2"/>
<path d="M6.21163 1.02899C5.9114 1.12406 5.61617 1.36424 5.49107 1.61193C5.45354 1.68199 5.09327 2.62522 4.68545 3.70856C4.07248 5.34732 3.94738 5.70259 3.94738 5.80768C3.94738 5.95279 4.00743 6.07038 4.11501 6.14043C4.18006 6.18297 4.36771 6.18547 7.77284 6.19798L11.3631 6.21049L12.4339 9.06269C13.0244 10.6314 13.5723 12.1125 13.6549 12.3552C13.9676 13.286 14.1753 14.2317 14.3104 15.33C14.3604 15.7429 14.3654 15.908 14.3654 16.8687C14.3654 17.832 14.3604 17.9921 14.3104 18.4074C14.1603 19.6309 13.9051 20.7217 13.5298 21.75C13.3572 22.2179 12.6316 23.9567 12.574 24.0443C12.5465 24.0818 12.489 24.1318 12.4464 24.1568C12.3714 24.1969 12.0962 24.1994 8.00051 24.1994C3.90485 24.1994 3.62964 24.1969 3.55458 24.1568C3.51205 24.1318 3.4545 24.0818 3.42698 24.0443C3.36944 23.9592 2.63887 22.2053 2.46874 21.74C2.09595 20.7242 1.83575 19.6108 1.69314 18.4199C1.62559 17.8495 1.59807 16.4909 1.6431 15.873C1.72567 14.7571 1.93833 13.6412 2.27609 12.5654C2.33113 12.3853 2.82652 11.0417 3.37444 9.57809C3.92486 8.11196 4.37271 6.90102 4.37271 6.88351C4.37271 6.85849 3.62463 6.55826 3.60962 6.57827C3.58961 6.6108 1.62309 11.8924 1.54302 12.1326C1.15272 13.321 0.905032 14.582 0.817464 15.8379C0.779935 16.3959 0.802452 17.8645 0.854993 18.3699C1.03513 20.0187 1.36289 21.2746 2.05342 22.9484C2.69892 24.5096 2.70893 24.5296 2.91909 24.7173C2.98164 24.7723 3.11924 24.8599 3.22182 24.9099L3.40947 25H8.00051H12.5916L12.7792 24.9099C12.9994 24.8048 13.167 24.6622 13.2771 24.4896C13.3521 24.3745 13.765 23.4113 14.1302 22.4981C14.6582 21.1795 14.9834 19.851 15.1435 18.3699C15.2086 17.7819 15.2211 16.3458 15.1711 15.7003C15.0785 14.5469 14.8608 13.4236 14.518 12.3152C14.3854 11.8949 10.6125 1.81209 10.51 1.61193C10.4124 1.41678 10.1897 1.20912 9.95953 1.09904L9.76437 1.00647L8.03804 1.00146C6.6895 0.99646 6.28919 1.00397 6.21163 1.02899ZM8.80113 2.57518C8.80113 3.00551 8.78862 3.40332 8.77611 3.45586C8.74859 3.57845 8.68354 3.66852 8.57345 3.73357C8.49589 3.77861 8.44335 3.78361 8.00051 3.78361C7.55767 3.78361 7.50513 3.77861 7.42757 3.73357C7.31748 3.66852 7.25243 3.57845 7.22491 3.45586C7.2124 3.40332 7.19989 3.00551 7.19989 2.57518V1.79458H8.00051H8.80113V2.57518ZM6.46933 3.84366C6.61694 4.19393 6.90467 4.45663 7.24743 4.55671C7.35501 4.58924 7.51264 4.59674 8.00552 4.59674C8.56845 4.59674 8.64351 4.59174 8.78362 4.5442C9.12888 4.42911 9.4091 4.16141 9.5442 3.81864C9.58173 3.72357 9.58924 3.58096 9.60175 2.77033L9.61426 1.83461L9.69682 1.90716C9.76938 1.97472 9.85194 2.17987 10.4149 3.68103C10.7651 4.61676 11.0529 5.38485 11.0529 5.38985C11.0529 5.39235 9.67931 5.39736 8.00051 5.39736C6.32172 5.39736 4.94815 5.39235 4.94815 5.38985C4.94815 5.38485 5.23588 4.61676 5.58615 3.68103C6.14908 2.17987 6.23165 1.97472 6.3042 1.90716L6.38677 1.83461L6.39928 2.77033C6.41179 3.67603 6.41429 3.71356 6.46933 3.84366Z" fill="black" fill-opacity="0.2"/>
<path d="M6.21163 1.02899C5.9114 1.12406 5.61617 1.36424 5.49107 1.61193C5.45354 1.68199 5.09327 2.62522 4.68545 3.70856C4.07248 5.34732 3.94738 5.70259 3.94738 5.80768C3.94738 5.95279 4.00743 6.07038 4.11501 6.14043C4.18006 6.18297 4.36771 6.18547 7.77284 6.19798L11.3631 6.21049L12.4339 9.06269C13.0244 10.6314 13.5723 12.1125 13.6549 12.3552C13.9676 13.286 14.1753 14.2317 14.3104 15.33C14.3604 15.7429 14.3654 15.908 14.3654 16.8687C14.3654 17.832 14.3604 17.9921 14.3104 18.4074C14.1603 19.6309 13.9051 20.7217 13.5298 21.75C13.3572 22.2179 12.6316 23.9567 12.574 24.0443C12.5465 24.0818 12.489 24.1318 12.4464 24.1568C12.3714 24.1969 12.0962 24.1994 8.00051 24.1994C3.90485 24.1994 3.62964 24.1969 3.55458 24.1568C3.51205 24.1318 3.4545 24.0818 3.42698 24.0443C3.36944 23.9592 2.63887 22.2053 2.46874 21.74C2.09595 20.7242 1.83575 19.6108 1.69314 18.4199C1.62559 17.8495 1.59807 16.4909 1.6431 15.873C1.72567 14.7571 1.93833 13.6412 2.27609 12.5654C2.33113 12.3853 2.82652 11.0417 3.37444 9.57809C3.92486 8.11196 4.37271 6.90102 4.37271 6.88351C4.37271 6.85849 3.62463 6.55826 3.60962 6.57827C3.58961 6.6108 1.62309 11.8924 1.54302 12.1326C1.15272 13.321 0.905032 14.582 0.817464 15.8379C0.779935 16.3959 0.802452 17.8645 0.854993 18.3699C1.03513 20.0187 1.36289 21.2746 2.05342 22.9484C2.69892 24.5096 2.70893 24.5296 2.91909 24.7173C2.98164 24.7723 3.11924 24.8599 3.22182 24.9099L3.40947 25H8.00051H12.5916L12.7792 24.9099C12.9994 24.8048 13.167 24.6622 13.2771 24.4896C13.3521 24.3745 13.765 23.4113 14.1302 22.4981C14.6582 21.1795 14.9834 19.851 15.1435 18.3699C15.2086 17.7819 15.2211 16.3458 15.1711 15.7003C15.0785 14.5469 14.8608 13.4236 14.518 12.3152C14.3854 11.8949 10.6125 1.81209 10.51 1.61193C10.4124 1.41678 10.1897 1.20912 9.95953 1.09904L9.76437 1.00647L8.03804 1.00146C6.6895 0.99646 6.28919 1.00397 6.21163 1.02899ZM8.80113 2.57518C8.80113 3.00551 8.78862 3.40332 8.77611 3.45586C8.74859 3.57845 8.68354 3.66852 8.57345 3.73357C8.49589 3.77861 8.44335 3.78361 8.00051 3.78361C7.55767 3.78361 7.50513 3.77861 7.42757 3.73357C7.31748 3.66852 7.25243 3.57845 7.22491 3.45586C7.2124 3.40332 7.19989 3.00551 7.19989 2.57518V1.79458H8.00051H8.80113V2.57518ZM6.46933 3.84366C6.61694 4.19393 6.90467 4.45663 7.24743 4.55671C7.35501 4.58924 7.51264 4.59674 8.00552 4.59674C8.56845 4.59674 8.64351 4.59174 8.78362 4.5442C9.12888 4.42911 9.4091 4.16141 9.5442 3.81864C9.58173 3.72357 9.58924 3.58096 9.60175 2.77033L9.61426 1.83461L9.69682 1.90716C9.76938 1.97472 9.85194 2.17987 10.4149 3.68103C10.7651 4.61676 11.0529 5.38485 11.0529 5.38985C11.0529 5.39235 9.67931 5.39736 8.00051 5.39736C6.32172 5.39736 4.94815 5.39235 4.94815 5.38985C4.94815 5.38485 5.23588 4.61676 5.58615 3.68103C6.14908 2.17987 6.23165 1.97472 6.3042 1.90716L6.38677 1.83461L6.39928 2.77033C6.41179 3.67603 6.41429 3.71356 6.46933 3.84366Z" fill="black" fill-opacity="0.2"/>
<path d="M6.21163 1.02899C5.9114 1.12406 5.61617 1.36424 5.49107 1.61193C5.45354 1.68199 5.09327 2.62522 4.68545 3.70856C4.07248 5.34732 3.94738 5.70259 3.94738 5.80768C3.94738 5.95279 4.00743 6.07038 4.11501 6.14043C4.18006 6.18297 4.36771 6.18547 7.77284 6.19798L11.3631 6.21049L12.4339 9.06269C13.0244 10.6314 13.5723 12.1125 13.6549 12.3552C13.9676 13.286 14.1753 14.2317 14.3104 15.33C14.3604 15.7429 14.3654 15.908 14.3654 16.8687C14.3654 17.832 14.3604 17.9921 14.3104 18.4074C14.1603 19.6309 13.9051 20.7217 13.5298 21.75C13.3572 22.2179 12.6316 23.9567 12.574 24.0443C12.5465 24.0818 12.489 24.1318 12.4464 24.1568C12.3714 24.1969 12.0962 24.1994 8.00051 24.1994C3.90485 24.1994 3.62964 24.1969 3.55458 24.1568C3.51205 24.1318 3.4545 24.0818 3.42698 24.0443C3.36944 23.9592 2.63887 22.2053 2.46874 21.74C2.09595 20.7242 1.83575 19.6108 1.69314 18.4199C1.62559 17.8495 1.59807 16.4909 1.6431 15.873C1.72567 14.7571 1.93833 13.6412 2.27609 12.5654C2.33113 12.3853 2.82652 11.0417 3.37444 9.57809C3.92486 8.11196 4.37271 6.90102 4.37271 6.88351C4.37271 6.85849 3.62463 6.55826 3.60962 6.57827C3.58961 6.6108 1.62309 11.8924 1.54302 12.1326C1.15272 13.321 0.905032 14.582 0.817464 15.8379C0.779935 16.3959 0.802452 17.8645 0.854993 18.3699C1.03513 20.0187 1.36289 21.2746 2.05342 22.9484C2.69892 24.5096 2.70893 24.5296 2.91909 24.7173C2.98164 24.7723 3.11924 24.8599 3.22182 24.9099L3.40947 25H8.00051H12.5916L12.7792 24.9099C12.9994 24.8048 13.167 24.6622 13.2771 24.4896C13.3521 24.3745 13.765 23.4113 14.1302 22.4981C14.6582 21.1795 14.9834 19.851 15.1435 18.3699C15.2086 17.7819 15.2211 16.3458 15.1711 15.7003C15.0785 14.5469 14.8608 13.4236 14.518 12.3152C14.3854 11.8949 10.6125 1.81209 10.51 1.61193C10.4124 1.41678 10.1897 1.20912 9.95953 1.09904L9.76437 1.00647L8.03804 1.00146C6.6895 0.99646 6.28919 1.00397 6.21163 1.02899ZM8.80113 2.57518C8.80113 3.00551 8.78862 3.40332 8.77611 3.45586C8.74859 3.57845 8.68354 3.66852 8.57345 3.73357C8.49589 3.77861 8.44335 3.78361 8.00051 3.78361C7.55767 3.78361 7.50513 3.77861 7.42757 3.73357C7.31748 3.66852 7.25243 3.57845 7.22491 3.45586C7.2124 3.40332 7.19989 3.00551 7.19989 2.57518V1.79458H8.00051H8.80113V2.57518ZM6.46933 3.84366C6.61694 4.19393 6.90467 4.45663 7.24743 4.55671C7.35501 4.58924 7.51264 4.59674 8.00552 4.59674C8.56845 4.59674 8.64351 4.59174 8.78362 4.5442C9.12888 4.42911 9.4091 4.16141 9.5442 3.81864C9.58173 3.72357 9.58924 3.58096 9.60175 2.77033L9.61426 1.83461L9.69682 1.90716C9.76938 1.97472 9.85194 2.17987 10.4149 3.68103C10.7651 4.61676 11.0529 5.38485 11.0529 5.38985C11.0529 5.39235 9.67931 5.39736 8.00051 5.39736C6.32172 5.39736 4.94815 5.39235 4.94815 5.38985C4.94815 5.38485 5.23588 4.61676 5.58615 3.68103C6.14908 2.17987 6.23165 1.97472 6.3042 1.90716L6.38677 1.83461L6.39928 2.77033C6.41179 3.67603 6.41429 3.71356 6.46933 3.84366Z" stroke="#345E40" stroke-width="0.6"/>
<path d="M6.21163 1.02899C5.9114 1.12406 5.61617 1.36424 5.49107 1.61193C5.45354 1.68199 5.09327 2.62522 4.68545 3.70856C4.07248 5.34732 3.94738 5.70259 3.94738 5.80768C3.94738 5.95279 4.00743 6.07038 4.11501 6.14043C4.18006 6.18297 4.36771 6.18547 7.77284 6.19798L11.3631 6.21049L12.4339 9.06269C13.0244 10.6314 13.5723 12.1125 13.6549 12.3552C13.9676 13.286 14.1753 14.2317 14.3104 15.33C14.3604 15.7429 14.3654 15.908 14.3654 16.8687C14.3654 17.832 14.3604 17.9921 14.3104 18.4074C14.1603 19.6309 13.9051 20.7217 13.5298 21.75C13.3572 22.2179 12.6316 23.9567 12.574 24.0443C12.5465 24.0818 12.489 24.1318 12.4464 24.1568C12.3714 24.1969 12.0962 24.1994 8.00051 24.1994C3.90485 24.1994 3.62964 24.1969 3.55458 24.1568C3.51205 24.1318 3.4545 24.0818 3.42698 24.0443C3.36944 23.9592 2.63887 22.2053 2.46874 21.74C2.09595 20.7242 1.83575 19.6108 1.69314 18.4199C1.62559 17.8495 1.59807 16.4909 1.6431 15.873C1.72567 14.7571 1.93833 13.6412 2.27609 12.5654C2.33113 12.3853 2.82652 11.0417 3.37444 9.57809C3.92486 8.11196 4.37271 6.90102 4.37271 6.88351C4.37271 6.85849 3.62463 6.55826 3.60962 6.57827C3.58961 6.6108 1.62309 11.8924 1.54302 12.1326C1.15272 13.321 0.905032 14.582 0.817464 15.8379C0.779935 16.3959 0.802452 17.8645 0.854993 18.3699C1.03513 20.0187 1.36289 21.2746 2.05342 22.9484C2.69892 24.5096 2.70893 24.5296 2.91909 24.7173C2.98164 24.7723 3.11924 24.8599 3.22182 24.9099L3.40947 25H8.00051H12.5916L12.7792 24.9099C12.9994 24.8048 13.167 24.6622 13.2771 24.4896C13.3521 24.3745 13.765 23.4113 14.1302 22.4981C14.6582 21.1795 14.9834 19.851 15.1435 18.3699C15.2086 17.7819 15.2211 16.3458 15.1711 15.7003C15.0785 14.5469 14.8608 13.4236 14.518 12.3152C14.3854 11.8949 10.6125 1.81209 10.51 1.61193C10.4124 1.41678 10.1897 1.20912 9.95953 1.09904L9.76437 1.00647L8.03804 1.00146C6.6895 0.99646 6.28919 1.00397 6.21163 1.02899ZM8.80113 2.57518C8.80113 3.00551 8.78862 3.40332 8.77611 3.45586C8.74859 3.57845 8.68354 3.66852 8.57345 3.73357C8.49589 3.77861 8.44335 3.78361 8.00051 3.78361C7.55767 3.78361 7.50513 3.77861 7.42757 3.73357C7.31748 3.66852 7.25243 3.57845 7.22491 3.45586C7.2124 3.40332 7.19989 3.00551 7.19989 2.57518V1.79458H8.00051H8.80113V2.57518ZM6.46933 3.84366C6.61694 4.19393 6.90467 4.45663 7.24743 4.55671C7.35501 4.58924 7.51264 4.59674 8.00552 4.59674C8.56845 4.59674 8.64351 4.59174 8.78362 4.5442C9.12888 4.42911 9.4091 4.16141 9.5442 3.81864C9.58173 3.72357 9.58924 3.58096 9.60175 2.77033L9.61426 1.83461L9.69682 1.90716C9.76938 1.97472 9.85194 2.17987 10.4149 3.68103C10.7651 4.61676 11.0529 5.38485 11.0529 5.38985C11.0529 5.39235 9.67931 5.39736 8.00051 5.39736C6.32172 5.39736 4.94815 5.39235 4.94815 5.38985C4.94815 5.38485 5.23588 4.61676 5.58615 3.68103C6.14908 2.17987 6.23165 1.97472 6.3042 1.90716L6.38677 1.83461L6.39928 2.77033C6.41179 3.67603 6.41429 3.71356 6.46933 3.84366Z" stroke="black" stroke-opacity="0.2" stroke-width="0.6"/>
<path d="M6.21163 1.02899C5.9114 1.12406 5.61617 1.36424 5.49107 1.61193C5.45354 1.68199 5.09327 2.62522 4.68545 3.70856C4.07248 5.34732 3.94738 5.70259 3.94738 5.80768C3.94738 5.95279 4.00743 6.07038 4.11501 6.14043C4.18006 6.18297 4.36771 6.18547 7.77284 6.19798L11.3631 6.21049L12.4339 9.06269C13.0244 10.6314 13.5723 12.1125 13.6549 12.3552C13.9676 13.286 14.1753 14.2317 14.3104 15.33C14.3604 15.7429 14.3654 15.908 14.3654 16.8687C14.3654 17.832 14.3604 17.9921 14.3104 18.4074C14.1603 19.6309 13.9051 20.7217 13.5298 21.75C13.3572 22.2179 12.6316 23.9567 12.574 24.0443C12.5465 24.0818 12.489 24.1318 12.4464 24.1568C12.3714 24.1969 12.0962 24.1994 8.00051 24.1994C3.90485 24.1994 3.62964 24.1969 3.55458 24.1568C3.51205 24.1318 3.4545 24.0818 3.42698 24.0443C3.36944 23.9592 2.63887 22.2053 2.46874 21.74C2.09595 20.7242 1.83575 19.6108 1.69314 18.4199C1.62559 17.8495 1.59807 16.4909 1.6431 15.873C1.72567 14.7571 1.93833 13.6412 2.27609 12.5654C2.33113 12.3853 2.82652 11.0417 3.37444 9.57809C3.92486 8.11196 4.37271 6.90102 4.37271 6.88351C4.37271 6.85849 3.62463 6.55826 3.60962 6.57827C3.58961 6.6108 1.62309 11.8924 1.54302 12.1326C1.15272 13.321 0.905032 14.582 0.817464 15.8379C0.779935 16.3959 0.802452 17.8645 0.854993 18.3699C1.03513 20.0187 1.36289 21.2746 2.05342 22.9484C2.69892 24.5096 2.70893 24.5296 2.91909 24.7173C2.98164 24.7723 3.11924 24.8599 3.22182 24.9099L3.40947 25H8.00051H12.5916L12.7792 24.9099C12.9994 24.8048 13.167 24.6622 13.2771 24.4896C13.3521 24.3745 13.765 23.4113 14.1302 22.4981C14.6582 21.1795 14.9834 19.851 15.1435 18.3699C15.2086 17.7819 15.2211 16.3458 15.1711 15.7003C15.0785 14.5469 14.8608 13.4236 14.518 12.3152C14.3854 11.8949 10.6125 1.81209 10.51 1.61193C10.4124 1.41678 10.1897 1.20912 9.95953 1.09904L9.76437 1.00647L8.03804 1.00146C6.6895 0.99646 6.28919 1.00397 6.21163 1.02899ZM8.80113 2.57518C8.80113 3.00551 8.78862 3.40332 8.77611 3.45586C8.74859 3.57845 8.68354 3.66852 8.57345 3.73357C8.49589 3.77861 8.44335 3.78361 8.00051 3.78361C7.55767 3.78361 7.50513 3.77861 7.42757 3.73357C7.31748 3.66852 7.25243 3.57845 7.22491 3.45586C7.2124 3.40332 7.19989 3.00551 7.19989 2.57518V1.79458H8.00051H8.80113V2.57518ZM6.46933 3.84366C6.61694 4.19393 6.90467 4.45663 7.24743 4.55671C7.35501 4.58924 7.51264 4.59674 8.00552 4.59674C8.56845 4.59674 8.64351 4.59174 8.78362 4.5442C9.12888 4.42911 9.4091 4.16141 9.5442 3.81864C9.58173 3.72357 9.58924 3.58096 9.60175 2.77033L9.61426 1.83461L9.69682 1.90716C9.76938 1.97472 9.85194 2.17987 10.4149 3.68103C10.7651 4.61676 11.0529 5.38485 11.0529 5.38985C11.0529 5.39235 9.67931 5.39736 8.00051 5.39736C6.32172 5.39736 4.94815 5.39235 4.94815 5.38985C4.94815 5.38485 5.23588 4.61676 5.58615 3.68103C6.14908 2.17987 6.23165 1.97472 6.3042 1.90716L6.38677 1.83461L6.39928 2.77033C6.41179 3.67603 6.41429 3.71356 6.46933 3.84366Z" stroke="black" stroke-opacity="0.2" stroke-width="0.6"/>
<path d="M6.21163 1.02899C5.9114 1.12406 5.61617 1.36424 5.49107 1.61193C5.45354 1.68199 5.09327 2.62522 4.68545 3.70856C4.07248 5.34732 3.94738 5.70259 3.94738 5.80768C3.94738 5.95279 4.00743 6.07038 4.11501 6.14043C4.18006 6.18297 4.36771 6.18547 7.77284 6.19798L11.3631 6.21049L12.4339 9.06269C13.0244 10.6314 13.5723 12.1125 13.6549 12.3552C13.9676 13.286 14.1753 14.2317 14.3104 15.33C14.3604 15.7429 14.3654 15.908 14.3654 16.8687C14.3654 17.832 14.3604 17.9921 14.3104 18.4074C14.1603 19.6309 13.9051 20.7217 13.5298 21.75C13.3572 22.2179 12.6316 23.9567 12.574 24.0443C12.5465 24.0818 12.489 24.1318 12.4464 24.1568C12.3714 24.1969 12.0962 24.1994 8.00051 24.1994C3.90485 24.1994 3.62964 24.1969 3.55458 24.1568C3.51205 24.1318 3.4545 24.0818 3.42698 24.0443C3.36944 23.9592 2.63887 22.2053 2.46874 21.74C2.09595 20.7242 1.83575 19.6108 1.69314 18.4199C1.62559 17.8495 1.59807 16.4909 1.6431 15.873C1.72567 14.7571 1.93833 13.6412 2.27609 12.5654C2.33113 12.3853 2.82652 11.0417 3.37444 9.57809C3.92486 8.11196 4.37271 6.90102 4.37271 6.88351C4.37271 6.85849 3.62463 6.55826 3.60962 6.57827C3.58961 6.6108 1.62309 11.8924 1.54302 12.1326C1.15272 13.321 0.905032 14.582 0.817464 15.8379C0.779935 16.3959 0.802452 17.8645 0.854993 18.3699C1.03513 20.0187 1.36289 21.2746 2.05342 22.9484C2.69892 24.5096 2.70893 24.5296 2.91909 24.7173C2.98164 24.7723 3.11924 24.8599 3.22182 24.9099L3.40947 25H8.00051H12.5916L12.7792 24.9099C12.9994 24.8048 13.167 24.6622 13.2771 24.4896C13.3521 24.3745 13.765 23.4113 14.1302 22.4981C14.6582 21.1795 14.9834 19.851 15.1435 18.3699C15.2086 17.7819 15.2211 16.3458 15.1711 15.7003C15.0785 14.5469 14.8608 13.4236 14.518 12.3152C14.3854 11.8949 10.6125 1.81209 10.51 1.61193C10.4124 1.41678 10.1897 1.20912 9.95953 1.09904L9.76437 1.00647L8.03804 1.00146C6.6895 0.99646 6.28919 1.00397 6.21163 1.02899ZM8.80113 2.57518C8.80113 3.00551 8.78862 3.40332 8.77611 3.45586C8.74859 3.57845 8.68354 3.66852 8.57345 3.73357C8.49589 3.77861 8.44335 3.78361 8.00051 3.78361C7.55767 3.78361 7.50513 3.77861 7.42757 3.73357C7.31748 3.66852 7.25243 3.57845 7.22491 3.45586C7.2124 3.40332 7.19989 3.00551 7.19989 2.57518V1.79458H8.00051H8.80113V2.57518ZM6.46933 3.84366C6.61694 4.19393 6.90467 4.45663 7.24743 4.55671C7.35501 4.58924 7.51264 4.59674 8.00552 4.59674C8.56845 4.59674 8.64351 4.59174 8.78362 4.5442C9.12888 4.42911 9.4091 4.16141 9.5442 3.81864C9.58173 3.72357 9.58924 3.58096 9.60175 2.77033L9.61426 1.83461L9.69682 1.90716C9.76938 1.97472 9.85194 2.17987 10.4149 3.68103C10.7651 4.61676 11.0529 5.38485 11.0529 5.38985C11.0529 5.39235 9.67931 5.39736 8.00051 5.39736C6.32172 5.39736 4.94815 5.39235 4.94815 5.38985C4.94815 5.38485 5.23588 4.61676 5.58615 3.68103C6.14908 2.17987 6.23165 1.97472 6.3042 1.90716L6.38677 1.83461L6.39928 2.77033C6.41179 3.67603 6.41429 3.71356 6.46933 3.84366Z" stroke="black" stroke-opacity="0.2" stroke-width="0.6"/>
<path d="M6.21163 1.02899C5.9114 1.12406 5.61617 1.36424 5.49107 1.61193C5.45354 1.68199 5.09327 2.62522 4.68545 3.70856C4.07248 5.34732 3.94738 5.70259 3.94738 5.80768C3.94738 5.95279 4.00743 6.07038 4.11501 6.14043C4.18006 6.18297 4.36771 6.18547 7.77284 6.19798L11.3631 6.21049L12.4339 9.06269C13.0244 10.6314 13.5723 12.1125 13.6549 12.3552C13.9676 13.286 14.1753 14.2317 14.3104 15.33C14.3604 15.7429 14.3654 15.908 14.3654 16.8687C14.3654 17.832 14.3604 17.9921 14.3104 18.4074C14.1603 19.6309 13.9051 20.7217 13.5298 21.75C13.3572 22.2179 12.6316 23.9567 12.574 24.0443C12.5465 24.0818 12.489 24.1318 12.4464 24.1568C12.3714 24.1969 12.0962 24.1994 8.00051 24.1994C3.90485 24.1994 3.62964 24.1969 3.55458 24.1568C3.51205 24.1318 3.4545 24.0818 3.42698 24.0443C3.36944 23.9592 2.63887 22.2053 2.46874 21.74C2.09595 20.7242 1.83575 19.6108 1.69314 18.4199C1.62559 17.8495 1.59807 16.4909 1.6431 15.873C1.72567 14.7571 1.93833 13.6412 2.27609 12.5654C2.33113 12.3853 2.82652 11.0417 3.37444 9.57809C3.92486 8.11196 4.37271 6.90102 4.37271 6.88351C4.37271 6.85849 3.62463 6.55826 3.60962 6.57827C3.58961 6.6108 1.62309 11.8924 1.54302 12.1326C1.15272 13.321 0.905032 14.582 0.817464 15.8379C0.779935 16.3959 0.802452 17.8645 0.854993 18.3699C1.03513 20.0187 1.36289 21.2746 2.05342 22.9484C2.69892 24.5096 2.70893 24.5296 2.91909 24.7173C2.98164 24.7723 3.11924 24.8599 3.22182 24.9099L3.40947 25H8.00051H12.5916L12.7792 24.9099C12.9994 24.8048 13.167 24.6622 13.2771 24.4896C13.3521 24.3745 13.765 23.4113 14.1302 22.4981C14.6582 21.1795 14.9834 19.851 15.1435 18.3699C15.2086 17.7819 15.2211 16.3458 15.1711 15.7003C15.0785 14.5469 14.8608 13.4236 14.518 12.3152C14.3854 11.8949 10.6125 1.81209 10.51 1.61193C10.4124 1.41678 10.1897 1.20912 9.95953 1.09904L9.76437 1.00647L8.03804 1.00146C6.6895 0.99646 6.28919 1.00397 6.21163 1.02899ZM8.80113 2.57518C8.80113 3.00551 8.78862 3.40332 8.77611 3.45586C8.74859 3.57845 8.68354 3.66852 8.57345 3.73357C8.49589 3.77861 8.44335 3.78361 8.00051 3.78361C7.55767 3.78361 7.50513 3.77861 7.42757 3.73357C7.31748 3.66852 7.25243 3.57845 7.22491 3.45586C7.2124 3.40332 7.19989 3.00551 7.19989 2.57518V1.79458H8.00051H8.80113V2.57518ZM6.46933 3.84366C6.61694 4.19393 6.90467 4.45663 7.24743 4.55671C7.35501 4.58924 7.51264 4.59674 8.00552 4.59674C8.56845 4.59674 8.64351 4.59174 8.78362 4.5442C9.12888 4.42911 9.4091 4.16141 9.5442 3.81864C9.58173 3.72357 9.58924 3.58096 9.60175 2.77033L9.61426 1.83461L9.69682 1.90716C9.76938 1.97472 9.85194 2.17987 10.4149 3.68103C10.7651 4.61676 11.0529 5.38485 11.0529 5.38985C11.0529 5.39235 9.67931 5.39736 8.00051 5.39736C6.32172 5.39736 4.94815 5.39235 4.94815 5.38985C4.94815 5.38485 5.23588 4.61676 5.58615 3.68103C6.14908 2.17987 6.23165 1.97472 6.3042 1.90716L6.38677 1.83461L6.39928 2.77033C6.41179 3.67603 6.41429 3.71356 6.46933 3.84366Z" stroke="black" stroke-opacity="0.2" stroke-width="0.6"/>
<path d="M5.04591 7.31629C4.91081 7.66405 4.82324 7.91175 4.82324 7.93676C4.82324 7.96178 5.57382 8.26202 5.58633 8.2445C5.58883 8.2395 5.77147 7.74662 5.84153 7.55897C5.84653 7.54146 5.69391 7.47141 5.47374 7.38884C5.26608 7.31128 5.09095 7.24873 5.08344 7.24873C5.07844 7.24873 5.06093 7.27876 5.04591 7.31629Z" fill="#345E40"/>
<path d="M5.04591 7.31629C4.91081 7.66405 4.82324 7.91175 4.82324 7.93676C4.82324 7.96178 5.57382 8.26202 5.58633 8.2445C5.58883 8.2395 5.77147 7.74662 5.84153 7.55897C5.84653 7.54146 5.69391 7.47141 5.47374 7.38884C5.26608 7.31128 5.09095 7.24873 5.08344 7.24873C5.07844 7.24873 5.06093 7.27876 5.04591 7.31629Z" fill="black" fill-opacity="0.2"/>
<path d="M5.04591 7.31629C4.91081 7.66405 4.82324 7.91175 4.82324 7.93676C4.82324 7.96178 5.57382 8.26202 5.58633 8.2445C5.58883 8.2395 5.77147 7.74662 5.84153 7.55897C5.84653 7.54146 5.69391 7.47141 5.47374 7.38884C5.26608 7.31128 5.09095 7.24873 5.08344 7.24873C5.07844 7.24873 5.06093 7.27876 5.04591 7.31629Z" fill="black" fill-opacity="0.2"/>
<path d="M5.04591 7.31629C4.91081 7.66405 4.82324 7.91175 4.82324 7.93676C4.82324 7.96178 5.57382 8.26202 5.58633 8.2445C5.58883 8.2395 5.77147 7.74662 5.84153 7.55897C5.84653 7.54146 5.69391 7.47141 5.47374 7.38884C5.26608 7.31128 5.09095 7.24873 5.08344 7.24873C5.07844 7.24873 5.06093 7.27876 5.04591 7.31629Z" fill="black" fill-opacity="0.2"/>
<path d="M5.04591 7.31629C4.91081 7.66405 4.82324 7.91175 4.82324 7.93676C4.82324 7.96178 5.57382 8.26202 5.58633 8.2445C5.58883 8.2395 5.77147 7.74662 5.84153 7.55897C5.84653 7.54146 5.69391 7.47141 5.47374 7.38884C5.26608 7.31128 5.09095 7.24873 5.08344 7.24873C5.07844 7.24873 5.06093 7.27876 5.04591 7.31629Z" fill="black" fill-opacity="0.2"/>
<path d="M4.44499 8.91754C3.96462 10.166 3.57182 11.2619 3.59684 11.2769C3.66189 11.3169 4.3274 11.5571 4.33991 11.5446C4.35993 11.5246 5.24811 9.14272 5.24061 9.13521C5.2306 9.1227 4.50254 8.84999 4.48502 8.84999C4.47752 8.84999 4.46 8.88001 4.44499 8.91754Z" fill="#345E40"/>
<path d="M4.44499 8.91754C3.96462 10.166 3.57182 11.2619 3.59684 11.2769C3.66189 11.3169 4.3274 11.5571 4.33991 11.5446C4.35993 11.5246 5.24811 9.14272 5.24061 9.13521C5.2306 9.1227 4.50254 8.84999 4.48502 8.84999C4.47752 8.84999 4.46 8.88001 4.44499 8.91754Z" fill="black" fill-opacity="0.2"/>
<path d="M4.44499 8.91754C3.96462 10.166 3.57182 11.2619 3.59684 11.2769C3.66189 11.3169 4.3274 11.5571 4.33991 11.5446C4.35993 11.5246 5.24811 9.14272 5.24061 9.13521C5.2306 9.1227 4.50254 8.84999 4.48502 8.84999C4.47752 8.84999 4.46 8.88001 4.44499 8.91754Z" fill="black" fill-opacity="0.2"/>
<path d="M4.44499 8.91754C3.96462 10.166 3.57182 11.2619 3.59684 11.2769C3.66189 11.3169 4.3274 11.5571 4.33991 11.5446C4.35993 11.5246 5.24811 9.14272 5.24061 9.13521C5.2306 9.1227 4.50254 8.84999 4.48502 8.84999C4.47752 8.84999 4.46 8.88001 4.44499 8.91754Z" fill="black" fill-opacity="0.2"/>
<path d="M4.44499 8.91754C3.96462 10.166 3.57182 11.2619 3.59684 11.2769C3.66189 11.3169 4.3274 11.5571 4.33991 11.5446C4.35993 11.5246 5.24811 9.14272 5.24061 9.13521C5.2306 9.1227 4.50254 8.84999 4.48502 8.84999C4.47752 8.84999 4.46 8.88001 4.44499 8.91754Z" fill="black" fill-opacity="0.2"/>
<path d="M7.38719 10.6164C6.17625 10.7891 5.35812 11.1443 4.72013 11.7773C4.21974 12.2727 3.99707 12.7706 3.99707 13.4036C3.99707 14.0491 4.25477 14.607 4.78268 15.0999C5.34561 15.6228 6.08869 15.963 7.07445 16.1482C7.41721 16.2107 8.58061 16.2132 8.92588 16.1482C9.89412 15.9706 10.6572 15.6203 11.2176 15.0999C11.7456 14.607 12.0033 14.0491 12.0033 13.4036C12.0033 12.7706 11.7806 12.2727 11.2802 11.7773C10.7148 11.2169 9.95167 10.8516 8.9509 10.6615C8.74574 10.6239 7.57734 10.5889 7.38719 10.6164ZM8.67318 11.4671C9.90163 11.6372 10.8899 12.2752 11.1276 13.0508C11.3352 13.7213 10.9124 14.4519 10.0568 14.8997C9.41626 15.235 8.78327 15.3826 8.00016 15.3826C6.89431 15.3826 5.89854 15.0298 5.29808 14.4269C4.77517 13.9015 4.6776 13.291 5.02286 12.718C5.44569 12.0225 6.52402 11.4971 7.67491 11.4295C8.03519 11.4095 8.34043 11.4195 8.67318 11.4671Z" fill="#345E40"/>
<path d="M7.38719 10.6164C6.17625 10.7891 5.35812 11.1443 4.72013 11.7773C4.21974 12.2727 3.99707 12.7706 3.99707 13.4036C3.99707 14.0491 4.25477 14.607 4.78268 15.0999C5.34561 15.6228 6.08869 15.963 7.07445 16.1482C7.41721 16.2107 8.58061 16.2132 8.92588 16.1482C9.89412 15.9706 10.6572 15.6203 11.2176 15.0999C11.7456 14.607 12.0033 14.0491 12.0033 13.4036C12.0033 12.7706 11.7806 12.2727 11.2802 11.7773C10.7148 11.2169 9.95167 10.8516 8.9509 10.6615C8.74574 10.6239 7.57734 10.5889 7.38719 10.6164ZM8.67318 11.4671C9.90163 11.6372 10.8899 12.2752 11.1276 13.0508C11.3352 13.7213 10.9124 14.4519 10.0568 14.8997C9.41626 15.235 8.78327 15.3826 8.00016 15.3826C6.89431 15.3826 5.89854 15.0298 5.29808 14.4269C4.77517 13.9015 4.6776 13.291 5.02286 12.718C5.44569 12.0225 6.52402 11.4971 7.67491 11.4295C8.03519 11.4095 8.34043 11.4195 8.67318 11.4671Z" fill="black" fill-opacity="0.2"/>
<path d="M7.38719 10.6164C6.17625 10.7891 5.35812 11.1443 4.72013 11.7773C4.21974 12.2727 3.99707 12.7706 3.99707 13.4036C3.99707 14.0491 4.25477 14.607 4.78268 15.0999C5.34561 15.6228 6.08869 15.963 7.07445 16.1482C7.41721 16.2107 8.58061 16.2132 8.92588 16.1482C9.89412 15.9706 10.6572 15.6203 11.2176 15.0999C11.7456 14.607 12.0033 14.0491 12.0033 13.4036C12.0033 12.7706 11.7806 12.2727 11.2802 11.7773C10.7148 11.2169 9.95167 10.8516 8.9509 10.6615C8.74574 10.6239 7.57734 10.5889 7.38719 10.6164ZM8.67318 11.4671C9.90163 11.6372 10.8899 12.2752 11.1276 13.0508C11.3352 13.7213 10.9124 14.4519 10.0568 14.8997C9.41626 15.235 8.78327 15.3826 8.00016 15.3826C6.89431 15.3826 5.89854 15.0298 5.29808 14.4269C4.77517 13.9015 4.6776 13.291 5.02286 12.718C5.44569 12.0225 6.52402 11.4971 7.67491 11.4295C8.03519 11.4095 8.34043 11.4195 8.67318 11.4671Z" fill="black" fill-opacity="0.2"/>
<path d="M7.38719 10.6164C6.17625 10.7891 5.35812 11.1443 4.72013 11.7773C4.21974 12.2727 3.99707 12.7706 3.99707 13.4036C3.99707 14.0491 4.25477 14.607 4.78268 15.0999C5.34561 15.6228 6.08869 15.963 7.07445 16.1482C7.41721 16.2107 8.58061 16.2132 8.92588 16.1482C9.89412 15.9706 10.6572 15.6203 11.2176 15.0999C11.7456 14.607 12.0033 14.0491 12.0033 13.4036C12.0033 12.7706 11.7806 12.2727 11.2802 11.7773C10.7148 11.2169 9.95167 10.8516 8.9509 10.6615C8.74574 10.6239 7.57734 10.5889 7.38719 10.6164ZM8.67318 11.4671C9.90163 11.6372 10.8899 12.2752 11.1276 13.0508C11.3352 13.7213 10.9124 14.4519 10.0568 14.8997C9.41626 15.235 8.78327 15.3826 8.00016 15.3826C6.89431 15.3826 5.89854 15.0298 5.29808 14.4269C4.77517 13.9015 4.6776 13.291 5.02286 12.718C5.44569 12.0225 6.52402 11.4971 7.67491 11.4295C8.03519 11.4095 8.34043 11.4195 8.67318 11.4671Z" fill="black" fill-opacity="0.2"/>
<path d="M7.38719 10.6164C6.17625 10.7891 5.35812 11.1443 4.72013 11.7773C4.21974 12.2727 3.99707 12.7706 3.99707 13.4036C3.99707 14.0491 4.25477 14.607 4.78268 15.0999C5.34561 15.6228 6.08869 15.963 7.07445 16.1482C7.41721 16.2107 8.58061 16.2132 8.92588 16.1482C9.89412 15.9706 10.6572 15.6203 11.2176 15.0999C11.7456 14.607 12.0033 14.0491 12.0033 13.4036C12.0033 12.7706 11.7806 12.2727 11.2802 11.7773C10.7148 11.2169 9.95167 10.8516 8.9509 10.6615C8.74574 10.6239 7.57734 10.5889 7.38719 10.6164ZM8.67318 11.4671C9.90163 11.6372 10.8899 12.2752 11.1276 13.0508C11.3352 13.7213 10.9124 14.4519 10.0568 14.8997C9.41626 15.235 8.78327 15.3826 8.00016 15.3826C6.89431 15.3826 5.89854 15.0298 5.29808 14.4269C4.77517 13.9015 4.6776 13.291 5.02286 12.718C5.44569 12.0225 6.52402 11.4971 7.67491 11.4295C8.03519 11.4095 8.34043 11.4195 8.67318 11.4671Z" fill="black" fill-opacity="0.2"/>
<path d="M5.19824 17.807V18.2073H8.00041H10.8026V17.807V17.4067H8.00041H5.19824V17.807Z" fill="#345E40"/>
<path d="M5.19824 17.807V18.2073H8.00041H10.8026V17.807V17.4067H8.00041H5.19824V17.807Z" fill="black" fill-opacity="0.2"/>
<path d="M5.19824 17.807V18.2073H8.00041H10.8026V17.807V17.4067H8.00041H5.19824V17.807Z" fill="black" fill-opacity="0.2"/>
<path d="M5.19824 17.807V18.2073H8.00041H10.8026V17.807V17.4067H8.00041H5.19824V17.807Z" fill="black" fill-opacity="0.2"/>
<path d="M5.19824 17.807V18.2073H8.00041H10.8026V17.807V17.4067H8.00041H5.19824V17.807Z" fill="black" fill-opacity="0.2"/>
<path d="M5.99902 19.4082V19.8085H8.00057H10.0021V19.4082V19.0079H8.00057H5.99902V19.4082Z" fill="#345E40"/>
<path d="M5.99902 19.4082V19.8085H8.00057H10.0021V19.4082V19.0079H8.00057H5.99902V19.4082Z" fill="black" fill-opacity="0.2"/>
<path d="M5.99902 19.4082V19.8085H8.00057H10.0021V19.4082V19.0079H8.00057H5.99902V19.4082Z" fill="black" fill-opacity="0.2"/>
<path d="M5.99902 19.4082V19.8085H8.00057H10.0021V19.4082V19.0079H8.00057H5.99902V19.4082Z" fill="black" fill-opacity="0.2"/>
<path d="M5.99902 19.4082V19.8085H8.00057H10.0021V19.4082V19.0079H8.00057H5.99902V19.4082Z" fill="black" fill-opacity="0.2"/>
</svg>
