<svg width="18" height="26" viewBox="0 0 18 26" fill="none" xmlns="http://www.w3.org/2000/svg">
<path d="M8.62788 1.0475C7.00573 1.20222 5.51486 1.57728 4.50687 2.08362C3.76144 2.45399 3.60672 2.69309 3.60672 3.43853C3.60672 3.90736 3.69111 4.10896 3.9349 4.24023C4.15994 4.35744 4.31465 4.34806 4.62877 4.18866C5.13511 3.93549 5.10698 3.92143 5.10698 4.46058V4.9341H4.2162C3.2129 4.9341 3.10976 4.95754 2.87066 5.22946C2.67844 5.44981 2.65969 5.55764 2.67844 6.48592C2.6925 7.2548 2.6925 7.26418 2.82378 7.43296C3.00193 7.66738 3.18009 7.75176 3.58797 7.77989L3.9349 7.80802V8.15027V8.49252L3.66767 8.56753C3.29729 8.67067 2.72532 8.95666 2.64562 9.07855C2.54248 9.22389 2.56123 9.42549 2.6925 9.55207C2.84253 9.70678 2.98787 9.69741 3.36293 9.50987C3.5364 9.42549 3.82707 9.30828 4.00523 9.25671C4.54907 9.09262 4.68503 8.88633 4.68503 8.21122V7.79396H6.77132H8.85761V8.23935C8.85761 8.92853 8.97951 9.0973 9.5843 9.27077C10.5876 9.55676 11.4596 10.4569 11.6893 11.4461L11.755 11.7321H6.76663H1.77829L1.80642 11.6009C1.86268 11.343 1.97988 11.0008 2.08771 10.7851C2.22367 10.5132 2.22836 10.3725 2.10647 10.2412C1.98457 10.11 1.82986 10.0725 1.67046 10.1334C1.50637 10.1991 1.25789 10.7007 1.11724 11.2586C1.02816 11.6055 1.01878 11.7462 1.04222 12.3838C1.07035 13.2371 1.16412 13.6684 1.54387 14.7092C1.86268 15.5718 2.07834 16.4345 2.17679 17.2174C2.28462 18.0566 2.2518 19.8616 2.10647 21.0853C2.0549 21.5494 2.00332 22.2433 1.99864 22.6324C1.98926 23.3028 1.99395 23.3497 2.11116 23.5982C2.28462 23.9686 2.5331 24.2217 2.8941 24.3999L3.20822 24.5546L5.99775 24.5781L8.78729 24.6015L8.99826 24.7281C9.31706 24.9156 9.66869 25 10.1188 25C10.8501 25 11.3752 24.7843 11.8722 24.2921L12.191 23.9733L12.5051 24.2874C13.0021 24.7843 13.5318 25 14.2538 25C14.9993 25 15.5197 24.7562 16.1526 24.0998C16.7621 23.4763 16.9684 23.0122 16.9684 22.2855C16.9684 21.8354 16.8933 21.5119 16.6871 21.1087C16.5417 20.818 16.1995 20.4148 16.0213 20.3164L15.9041 20.2554L16.237 19.9226C16.7574 19.3975 16.9684 18.8865 16.9684 18.1504C16.9684 17.4518 16.7761 17.0018 16.2135 16.4017C15.8572 16.0219 15.5103 15.7641 15.3509 15.7641C15.1681 15.7641 14.9993 15.9375 14.9993 16.1251C14.9993 16.2798 15.0462 16.3407 15.4634 16.7439C16.087 17.3487 16.1948 17.555 16.1948 18.1551C16.1948 18.5395 16.176 18.638 16.0729 18.863C15.8994 19.2334 15.651 19.4866 15.29 19.6647C15.004 19.8054 14.9336 19.8194 14.4601 19.8382L13.9397 19.8523L13.8788 19.6507C13.7991 19.3834 13.5459 19.0084 13.3349 18.8443C13.1568 18.7036 12.7208 18.4833 12.6129 18.4833C12.5614 18.4833 12.552 18.3801 12.5707 17.9535C12.5942 17.3862 12.6645 17.1471 12.9224 16.8095C13.0865 16.5939 13.5225 16.3079 13.7991 16.2376C14.0335 16.1813 14.1554 16.0454 14.1554 15.8438C14.1554 15.6656 13.9679 15.4828 13.785 15.4828C13.4146 15.4828 12.6879 15.8953 12.3879 16.2751L12.2097 16.5001L11.9191 16.1954C11.755 16.0266 11.6237 15.8719 11.6237 15.8438C11.6237 15.8156 11.7925 15.2999 11.9988 14.6904C12.416 13.4527 12.5145 12.9839 12.5145 12.2478C12.5145 10.9351 12.041 9.9412 11.0564 9.17232C10.7376 8.92853 10.2453 8.67536 9.87966 8.56753L9.60774 8.49252V8.14089V7.79396H9.83278C10.3344 7.78927 10.597 7.658 10.7704 7.32513C10.8642 7.13291 10.8736 7.05321 10.8736 6.35465C10.8736 5.51545 10.8408 5.37949 10.611 5.15914C10.3907 4.95754 10.2688 4.9341 9.29831 4.9341H8.38878V4.11834C8.38878 3.51355 8.40285 3.28851 8.44504 3.26038C8.47786 3.24162 9.19048 3.22287 10.0297 3.22287C11.6612 3.21818 11.6471 3.22287 11.8347 2.97439C11.9144 2.86187 11.9284 2.75873 11.9425 2.168C11.9566 1.52102 11.9519 1.47883 11.8487 1.32411C11.6378 1.01 11.5581 0.995932 10.2172 1.00062C9.56085 1.00531 8.84355 1.02406 8.62788 1.0475ZM10.8783 1.74606H11.2018V2.10706V2.47274L9.87497 2.47743C8.39347 2.48212 8.06529 2.52431 7.86369 2.71654C7.67147 2.90407 7.63865 3.08222 7.63865 4.0527V4.9341H6.74788H5.8571V4.23085V3.52761L5.70239 3.35883C5.47266 3.10566 5.23356 3.0916 4.7366 3.30726L4.35685 3.47135V3.30726C4.35685 3.05409 4.42717 2.97908 4.83037 2.77279C5.9368 2.21958 7.62928 1.83982 9.39676 1.74606C9.80933 1.72731 10.2407 1.71793 10.3532 1.72731C10.4657 1.73668 10.7048 1.74606 10.8783 1.74606ZM10.1 6.36403V7.02039H6.77132H3.44263L3.42857 6.4156C3.42388 6.07804 3.42857 5.77799 3.43794 5.74517C3.4567 5.6936 4.08024 5.68423 6.7807 5.6936L10.1 5.70767V6.36403ZM11.7644 12.562C11.7644 12.862 11.5581 13.645 11.244 14.5592C10.9298 15.464 10.897 15.5343 10.8079 15.5062C10.7517 15.4875 10.5079 15.464 10.2594 15.4499C9.47178 15.4031 8.94669 15.6328 8.27157 16.3032C7.59646 16.9736 7.37142 17.5034 7.41362 18.3379L7.43237 18.7646H5.21481H2.99724V18.2582C2.99724 17.6628 2.8941 16.7439 2.75814 16.1063C2.70657 15.8531 2.4956 15.1499 2.28931 14.5451C1.93769 13.509 1.77829 12.8854 1.77829 12.5713V12.4354H6.77132H11.7644V12.562ZM10.8548 16.3501C11.2018 16.5189 11.5065 16.8236 11.6612 17.1612C11.7644 17.3862 11.7878 17.5081 11.8019 17.9535C11.8159 18.3754 11.8065 18.4833 11.7597 18.4833C11.6096 18.4833 11.1596 18.7411 10.9486 18.9427C10.7423 19.1443 10.4516 19.6366 10.4516 19.7913C10.4516 19.8382 10.3438 19.8476 9.92185 19.8382C9.43896 19.8194 9.36864 19.8054 9.08265 19.6647C8.52474 19.3928 8.20125 18.8865 8.16374 18.2489C8.14968 17.9722 8.16374 17.841 8.24344 17.6347C8.43566 17.1284 9.12016 16.4486 9.6218 16.2704C9.9828 16.1438 10.4985 16.1766 10.8548 16.3501ZM12.5848 19.2756C13.3818 19.6366 13.424 20.7196 12.6598 21.1181C12.3269 21.2916 12.0457 21.2916 11.7128 21.1181C11.2768 20.8931 11.0517 20.3633 11.2018 19.9132C11.2768 19.6788 11.5534 19.3787 11.7878 19.2756C12.0269 19.1631 12.3457 19.1631 12.5848 19.2756ZM8.09811 19.8804L8.45911 20.2461L8.24344 20.4148C7.99028 20.6118 7.68554 21.0478 7.5402 21.4275C7.41362 21.751 7.36673 22.4308 7.44643 22.7918C7.50738 23.0872 7.6996 23.4997 7.859 23.6873L7.97621 23.8279H5.70708C3.18946 23.8279 3.2129 23.8279 2.9363 23.5044C2.68313 23.1997 2.67375 22.9793 2.85659 21.0853C2.90817 20.5696 2.95974 20.007 2.97849 19.8288L3.00662 19.5147H5.36952H7.73242L8.09811 19.8804ZM10.4938 20.7899C10.6298 21.2634 11.1361 21.7745 11.605 21.9104L11.8206 21.976L11.8065 22.4918C11.7878 22.9653 11.7737 23.0356 11.6331 23.3216C11.4549 23.6826 11.2018 23.9311 10.8314 24.1045C10.6063 24.2077 10.5079 24.2264 10.1235 24.2264C9.72495 24.2264 9.64993 24.2124 9.42021 24.0905C9.08265 23.9123 8.48724 23.3122 8.31846 22.984C8.16374 22.6746 8.11217 22.2198 8.20125 21.8635C8.28564 21.5025 8.57163 21.0993 8.88105 20.8931C9.21392 20.668 9.48115 20.6024 10.0109 20.5977L10.4376 20.593L10.4938 20.7899ZM15.2431 20.743C15.5806 20.8977 15.9088 21.2259 16.0682 21.5682C16.176 21.7979 16.1948 21.8963 16.1948 22.2808C16.1948 22.698 16.1854 22.7449 16.0354 23.0215C15.8432 23.3779 15.2618 23.9498 14.929 24.1045C14.582 24.2733 14.0335 24.2921 13.6725 24.1561C13.2646 24.0014 12.9458 23.7201 12.7536 23.345C12.6036 23.0497 12.5895 22.9887 12.5707 22.5011L12.552 21.976L12.7536 21.9198C13.2177 21.7932 13.7381 21.2775 13.8788 20.7993L13.9444 20.5836L14.4601 20.6024C14.8914 20.6164 15.018 20.6446 15.2431 20.743Z" fill="#345E40"/>
<path d="M8.62788 1.0475C7.00573 1.20222 5.51486 1.57728 4.50687 2.08362C3.76144 2.45399 3.60672 2.69309 3.60672 3.43853C3.60672 3.90736 3.69111 4.10896 3.9349 4.24023C4.15994 4.35744 4.31465 4.34806 4.62877 4.18866C5.13511 3.93549 5.10698 3.92143 5.10698 4.46058V4.9341H4.2162C3.2129 4.9341 3.10976 4.95754 2.87066 5.22946C2.67844 5.44981 2.65969 5.55764 2.67844 6.48592C2.6925 7.2548 2.6925 7.26418 2.82378 7.43296C3.00193 7.66738 3.18009 7.75176 3.58797 7.77989L3.9349 7.80802V8.15027V8.49252L3.66767 8.56753C3.29729 8.67067 2.72532 8.95666 2.64562 9.07855C2.54248 9.22389 2.56123 9.42549 2.6925 9.55207C2.84253 9.70678 2.98787 9.69741 3.36293 9.50987C3.5364 9.42549 3.82707 9.30828 4.00523 9.25671C4.54907 9.09262 4.68503 8.88633 4.68503 8.21122V7.79396H6.77132H8.85761V8.23935C8.85761 8.92853 8.97951 9.0973 9.5843 9.27077C10.5876 9.55676 11.4596 10.4569 11.6893 11.4461L11.755 11.7321H6.76663H1.77829L1.80642 11.6009C1.86268 11.343 1.97988 11.0008 2.08771 10.7851C2.22367 10.5132 2.22836 10.3725 2.10647 10.2412C1.98457 10.11 1.82986 10.0725 1.67046 10.1334C1.50637 10.1991 1.25789 10.7007 1.11724 11.2586C1.02816 11.6055 1.01878 11.7462 1.04222 12.3838C1.07035 13.2371 1.16412 13.6684 1.54387 14.7092C1.86268 15.5718 2.07834 16.4345 2.17679 17.2174C2.28462 18.0566 2.2518 19.8616 2.10647 21.0853C2.0549 21.5494 2.00332 22.2433 1.99864 22.6324C1.98926 23.3028 1.99395 23.3497 2.11116 23.5982C2.28462 23.9686 2.5331 24.2217 2.8941 24.3999L3.20822 24.5546L5.99775 24.5781L8.78729 24.6015L8.99826 24.7281C9.31706 24.9156 9.66869 25 10.1188 25C10.8501 25 11.3752 24.7843 11.8722 24.2921L12.191 23.9733L12.5051 24.2874C13.0021 24.7843 13.5318 25 14.2538 25C14.9993 25 15.5197 24.7562 16.1526 24.0998C16.7621 23.4763 16.9684 23.0122 16.9684 22.2855C16.9684 21.8354 16.8933 21.5119 16.6871 21.1087C16.5417 20.818 16.1995 20.4148 16.0213 20.3164L15.9041 20.2554L16.237 19.9226C16.7574 19.3975 16.9684 18.8865 16.9684 18.1504C16.9684 17.4518 16.7761 17.0018 16.2135 16.4017C15.8572 16.0219 15.5103 15.7641 15.3509 15.7641C15.1681 15.7641 14.9993 15.9375 14.9993 16.1251C14.9993 16.2798 15.0462 16.3407 15.4634 16.7439C16.087 17.3487 16.1948 17.555 16.1948 18.1551C16.1948 18.5395 16.176 18.638 16.0729 18.863C15.8994 19.2334 15.651 19.4866 15.29 19.6647C15.004 19.8054 14.9336 19.8194 14.4601 19.8382L13.9397 19.8523L13.8788 19.6507C13.7991 19.3834 13.5459 19.0084 13.3349 18.8443C13.1568 18.7036 12.7208 18.4833 12.6129 18.4833C12.5614 18.4833 12.552 18.3801 12.5707 17.9535C12.5942 17.3862 12.6645 17.1471 12.9224 16.8095C13.0865 16.5939 13.5225 16.3079 13.7991 16.2376C14.0335 16.1813 14.1554 16.0454 14.1554 15.8438C14.1554 15.6656 13.9679 15.4828 13.785 15.4828C13.4146 15.4828 12.6879 15.8953 12.3879 16.2751L12.2097 16.5001L11.9191 16.1954C11.755 16.0266 11.6237 15.8719 11.6237 15.8438C11.6237 15.8156 11.7925 15.2999 11.9988 14.6904C12.416 13.4527 12.5145 12.9839 12.5145 12.2478C12.5145 10.9351 12.041 9.9412 11.0564 9.17232C10.7376 8.92853 10.2453 8.67536 9.87966 8.56753L9.60774 8.49252V8.14089V7.79396H9.83278C10.3344 7.78927 10.597 7.658 10.7704 7.32513C10.8642 7.13291 10.8736 7.05321 10.8736 6.35465C10.8736 5.51545 10.8408 5.37949 10.611 5.15914C10.3907 4.95754 10.2688 4.9341 9.29831 4.9341H8.38878V4.11834C8.38878 3.51355 8.40285 3.28851 8.44504 3.26038C8.47786 3.24162 9.19048 3.22287 10.0297 3.22287C11.6612 3.21818 11.6471 3.22287 11.8347 2.97439C11.9144 2.86187 11.9284 2.75873 11.9425 2.168C11.9566 1.52102 11.9519 1.47883 11.8487 1.32411C11.6378 1.01 11.5581 0.995932 10.2172 1.00062C9.56085 1.00531 8.84355 1.02406 8.62788 1.0475ZM10.8783 1.74606H11.2018V2.10706V2.47274L9.87497 2.47743C8.39347 2.48212 8.06529 2.52431 7.86369 2.71654C7.67147 2.90407 7.63865 3.08222 7.63865 4.0527V4.9341H6.74788H5.8571V4.23085V3.52761L5.70239 3.35883C5.47266 3.10566 5.23356 3.0916 4.7366 3.30726L4.35685 3.47135V3.30726C4.35685 3.05409 4.42717 2.97908 4.83037 2.77279C5.9368 2.21958 7.62928 1.83982 9.39676 1.74606C9.80933 1.72731 10.2407 1.71793 10.3532 1.72731C10.4657 1.73668 10.7048 1.74606 10.8783 1.74606ZM10.1 6.36403V7.02039H6.77132H3.44263L3.42857 6.4156C3.42388 6.07804 3.42857 5.77799 3.43794 5.74517C3.4567 5.6936 4.08024 5.68423 6.7807 5.6936L10.1 5.70767V6.36403ZM11.7644 12.562C11.7644 12.862 11.5581 13.645 11.244 14.5592C10.9298 15.464 10.897 15.5343 10.8079 15.5062C10.7517 15.4875 10.5079 15.464 10.2594 15.4499C9.47178 15.4031 8.94669 15.6328 8.27157 16.3032C7.59646 16.9736 7.37142 17.5034 7.41362 18.3379L7.43237 18.7646H5.21481H2.99724V18.2582C2.99724 17.6628 2.8941 16.7439 2.75814 16.1063C2.70657 15.8531 2.4956 15.1499 2.28931 14.5451C1.93769 13.509 1.77829 12.8854 1.77829 12.5713V12.4354H6.77132H11.7644V12.562ZM10.8548 16.3501C11.2018 16.5189 11.5065 16.8236 11.6612 17.1612C11.7644 17.3862 11.7878 17.5081 11.8019 17.9535C11.8159 18.3754 11.8065 18.4833 11.7597 18.4833C11.6096 18.4833 11.1596 18.7411 10.9486 18.9427C10.7423 19.1443 10.4516 19.6366 10.4516 19.7913C10.4516 19.8382 10.3438 19.8476 9.92185 19.8382C9.43896 19.8194 9.36864 19.8054 9.08265 19.6647C8.52474 19.3928 8.20125 18.8865 8.16374 18.2489C8.14968 17.9722 8.16374 17.841 8.24344 17.6347C8.43566 17.1284 9.12016 16.4486 9.6218 16.2704C9.9828 16.1438 10.4985 16.1766 10.8548 16.3501ZM12.5848 19.2756C13.3818 19.6366 13.424 20.7196 12.6598 21.1181C12.3269 21.2916 12.0457 21.2916 11.7128 21.1181C11.2768 20.8931 11.0517 20.3633 11.2018 19.9132C11.2768 19.6788 11.5534 19.3787 11.7878 19.2756C12.0269 19.1631 12.3457 19.1631 12.5848 19.2756ZM8.09811 19.8804L8.45911 20.2461L8.24344 20.4148C7.99028 20.6118 7.68554 21.0478 7.5402 21.4275C7.41362 21.751 7.36673 22.4308 7.44643 22.7918C7.50738 23.0872 7.6996 23.4997 7.859 23.6873L7.97621 23.8279H5.70708C3.18946 23.8279 3.2129 23.8279 2.9363 23.5044C2.68313 23.1997 2.67375 22.9793 2.85659 21.0853C2.90817 20.5696 2.95974 20.007 2.97849 19.8288L3.00662 19.5147H5.36952H7.73242L8.09811 19.8804ZM10.4938 20.7899C10.6298 21.2634 11.1361 21.7745 11.605 21.9104L11.8206 21.976L11.8065 22.4918C11.7878 22.9653 11.7737 23.0356 11.6331 23.3216C11.4549 23.6826 11.2018 23.9311 10.8314 24.1045C10.6063 24.2077 10.5079 24.2264 10.1235 24.2264C9.72495 24.2264 9.64993 24.2124 9.42021 24.0905C9.08265 23.9123 8.48724 23.3122 8.31846 22.984C8.16374 22.6746 8.11217 22.2198 8.20125 21.8635C8.28564 21.5025 8.57163 21.0993 8.88105 20.8931C9.21392 20.668 9.48115 20.6024 10.0109 20.5977L10.4376 20.593L10.4938 20.7899ZM15.2431 20.743C15.5806 20.8977 15.9088 21.2259 16.0682 21.5682C16.176 21.7979 16.1948 21.8963 16.1948 22.2808C16.1948 22.698 16.1854 22.7449 16.0354 23.0215C15.8432 23.3779 15.2618 23.9498 14.929 24.1045C14.582 24.2733 14.0335 24.2921 13.6725 24.1561C13.2646 24.0014 12.9458 23.7201 12.7536 23.345C12.6036 23.0497 12.5895 22.9887 12.5707 22.5011L12.552 21.976L12.7536 21.9198C13.2177 21.7932 13.7381 21.2775 13.8788 20.7993L13.9444 20.5836L14.4601 20.6024C14.8914 20.6164 15.018 20.6446 15.2431 20.743Z" fill="black" fill-opacity="0.2"/>
<path d="M8.62788 1.0475C7.00573 1.20222 5.51486 1.57728 4.50687 2.08362C3.76144 2.45399 3.60672 2.69309 3.60672 3.43853C3.60672 3.90736 3.69111 4.10896 3.9349 4.24023C4.15994 4.35744 4.31465 4.34806 4.62877 4.18866C5.13511 3.93549 5.10698 3.92143 5.10698 4.46058V4.9341H4.2162C3.2129 4.9341 3.10976 4.95754 2.87066 5.22946C2.67844 5.44981 2.65969 5.55764 2.67844 6.48592C2.6925 7.2548 2.6925 7.26418 2.82378 7.43296C3.00193 7.66738 3.18009 7.75176 3.58797 7.77989L3.9349 7.80802V8.15027V8.49252L3.66767 8.56753C3.29729 8.67067 2.72532 8.95666 2.64562 9.07855C2.54248 9.22389 2.56123 9.42549 2.6925 9.55207C2.84253 9.70678 2.98787 9.69741 3.36293 9.50987C3.5364 9.42549 3.82707 9.30828 4.00523 9.25671C4.54907 9.09262 4.68503 8.88633 4.68503 8.21122V7.79396H6.77132H8.85761V8.23935C8.85761 8.92853 8.97951 9.0973 9.5843 9.27077C10.5876 9.55676 11.4596 10.4569 11.6893 11.4461L11.755 11.7321H6.76663H1.77829L1.80642 11.6009C1.86268 11.343 1.97988 11.0008 2.08771 10.7851C2.22367 10.5132 2.22836 10.3725 2.10647 10.2412C1.98457 10.11 1.82986 10.0725 1.67046 10.1334C1.50637 10.1991 1.25789 10.7007 1.11724 11.2586C1.02816 11.6055 1.01878 11.7462 1.04222 12.3838C1.07035 13.2371 1.16412 13.6684 1.54387 14.7092C1.86268 15.5718 2.07834 16.4345 2.17679 17.2174C2.28462 18.0566 2.2518 19.8616 2.10647 21.0853C2.0549 21.5494 2.00332 22.2433 1.99864 22.6324C1.98926 23.3028 1.99395 23.3497 2.11116 23.5982C2.28462 23.9686 2.5331 24.2217 2.8941 24.3999L3.20822 24.5546L5.99775 24.5781L8.78729 24.6015L8.99826 24.7281C9.31706 24.9156 9.66869 25 10.1188 25C10.8501 25 11.3752 24.7843 11.8722 24.2921L12.191 23.9733L12.5051 24.2874C13.0021 24.7843 13.5318 25 14.2538 25C14.9993 25 15.5197 24.7562 16.1526 24.0998C16.7621 23.4763 16.9684 23.0122 16.9684 22.2855C16.9684 21.8354 16.8933 21.5119 16.6871 21.1087C16.5417 20.818 16.1995 20.4148 16.0213 20.3164L15.9041 20.2554L16.237 19.9226C16.7574 19.3975 16.9684 18.8865 16.9684 18.1504C16.9684 17.4518 16.7761 17.0018 16.2135 16.4017C15.8572 16.0219 15.5103 15.7641 15.3509 15.7641C15.1681 15.7641 14.9993 15.9375 14.9993 16.1251C14.9993 16.2798 15.0462 16.3407 15.4634 16.7439C16.087 17.3487 16.1948 17.555 16.1948 18.1551C16.1948 18.5395 16.176 18.638 16.0729 18.863C15.8994 19.2334 15.651 19.4866 15.29 19.6647C15.004 19.8054 14.9336 19.8194 14.4601 19.8382L13.9397 19.8523L13.8788 19.6507C13.7991 19.3834 13.5459 19.0084 13.3349 18.8443C13.1568 18.7036 12.7208 18.4833 12.6129 18.4833C12.5614 18.4833 12.552 18.3801 12.5707 17.9535C12.5942 17.3862 12.6645 17.1471 12.9224 16.8095C13.0865 16.5939 13.5225 16.3079 13.7991 16.2376C14.0335 16.1813 14.1554 16.0454 14.1554 15.8438C14.1554 15.6656 13.9679 15.4828 13.785 15.4828C13.4146 15.4828 12.6879 15.8953 12.3879 16.2751L12.2097 16.5001L11.9191 16.1954C11.755 16.0266 11.6237 15.8719 11.6237 15.8438C11.6237 15.8156 11.7925 15.2999 11.9988 14.6904C12.416 13.4527 12.5145 12.9839 12.5145 12.2478C12.5145 10.9351 12.041 9.9412 11.0564 9.17232C10.7376 8.92853 10.2453 8.67536 9.87966 8.56753L9.60774 8.49252V8.14089V7.79396H9.83278C10.3344 7.78927 10.597 7.658 10.7704 7.32513C10.8642 7.13291 10.8736 7.05321 10.8736 6.35465C10.8736 5.51545 10.8408 5.37949 10.611 5.15914C10.3907 4.95754 10.2688 4.9341 9.29831 4.9341H8.38878V4.11834C8.38878 3.51355 8.40285 3.28851 8.44504 3.26038C8.47786 3.24162 9.19048 3.22287 10.0297 3.22287C11.6612 3.21818 11.6471 3.22287 11.8347 2.97439C11.9144 2.86187 11.9284 2.75873 11.9425 2.168C11.9566 1.52102 11.9519 1.47883 11.8487 1.32411C11.6378 1.01 11.5581 0.995932 10.2172 1.00062C9.56085 1.00531 8.84355 1.02406 8.62788 1.0475ZM10.8783 1.74606H11.2018V2.10706V2.47274L9.87497 2.47743C8.39347 2.48212 8.06529 2.52431 7.86369 2.71654C7.67147 2.90407 7.63865 3.08222 7.63865 4.0527V4.9341H6.74788H5.8571V4.23085V3.52761L5.70239 3.35883C5.47266 3.10566 5.23356 3.0916 4.7366 3.30726L4.35685 3.47135V3.30726C4.35685 3.05409 4.42717 2.97908 4.83037 2.77279C5.9368 2.21958 7.62928 1.83982 9.39676 1.74606C9.80933 1.72731 10.2407 1.71793 10.3532 1.72731C10.4657 1.73668 10.7048 1.74606 10.8783 1.74606ZM10.1 6.36403V7.02039H6.77132H3.44263L3.42857 6.4156C3.42388 6.07804 3.42857 5.77799 3.43794 5.74517C3.4567 5.6936 4.08024 5.68423 6.7807 5.6936L10.1 5.70767V6.36403ZM11.7644 12.562C11.7644 12.862 11.5581 13.645 11.244 14.5592C10.9298 15.464 10.897 15.5343 10.8079 15.5062C10.7517 15.4875 10.5079 15.464 10.2594 15.4499C9.47178 15.4031 8.94669 15.6328 8.27157 16.3032C7.59646 16.9736 7.37142 17.5034 7.41362 18.3379L7.43237 18.7646H5.21481H2.99724V18.2582C2.99724 17.6628 2.8941 16.7439 2.75814 16.1063C2.70657 15.8531 2.4956 15.1499 2.28931 14.5451C1.93769 13.509 1.77829 12.8854 1.77829 12.5713V12.4354H6.77132H11.7644V12.562ZM10.8548 16.3501C11.2018 16.5189 11.5065 16.8236 11.6612 17.1612C11.7644 17.3862 11.7878 17.5081 11.8019 17.9535C11.8159 18.3754 11.8065 18.4833 11.7597 18.4833C11.6096 18.4833 11.1596 18.7411 10.9486 18.9427C10.7423 19.1443 10.4516 19.6366 10.4516 19.7913C10.4516 19.8382 10.3438 19.8476 9.92185 19.8382C9.43896 19.8194 9.36864 19.8054 9.08265 19.6647C8.52474 19.3928 8.20125 18.8865 8.16374 18.2489C8.14968 17.9722 8.16374 17.841 8.24344 17.6347C8.43566 17.1284 9.12016 16.4486 9.6218 16.2704C9.9828 16.1438 10.4985 16.1766 10.8548 16.3501ZM12.5848 19.2756C13.3818 19.6366 13.424 20.7196 12.6598 21.1181C12.3269 21.2916 12.0457 21.2916 11.7128 21.1181C11.2768 20.8931 11.0517 20.3633 11.2018 19.9132C11.2768 19.6788 11.5534 19.3787 11.7878 19.2756C12.0269 19.1631 12.3457 19.1631 12.5848 19.2756ZM8.09811 19.8804L8.45911 20.2461L8.24344 20.4148C7.99028 20.6118 7.68554 21.0478 7.5402 21.4275C7.41362 21.751 7.36673 22.4308 7.44643 22.7918C7.50738 23.0872 7.6996 23.4997 7.859 23.6873L7.97621 23.8279H5.70708C3.18946 23.8279 3.2129 23.8279 2.9363 23.5044C2.68313 23.1997 2.67375 22.9793 2.85659 21.0853C2.90817 20.5696 2.95974 20.007 2.97849 19.8288L3.00662 19.5147H5.36952H7.73242L8.09811 19.8804ZM10.4938 20.7899C10.6298 21.2634 11.1361 21.7745 11.605 21.9104L11.8206 21.976L11.8065 22.4918C11.7878 22.9653 11.7737 23.0356 11.6331 23.3216C11.4549 23.6826 11.2018 23.9311 10.8314 24.1045C10.6063 24.2077 10.5079 24.2264 10.1235 24.2264C9.72495 24.2264 9.64993 24.2124 9.42021 24.0905C9.08265 23.9123 8.48724 23.3122 8.31846 22.984C8.16374 22.6746 8.11217 22.2198 8.20125 21.8635C8.28564 21.5025 8.57163 21.0993 8.88105 20.8931C9.21392 20.668 9.48115 20.6024 10.0109 20.5977L10.4376 20.593L10.4938 20.7899ZM15.2431 20.743C15.5806 20.8977 15.9088 21.2259 16.0682 21.5682C16.176 21.7979 16.1948 21.8963 16.1948 22.2808C16.1948 22.698 16.1854 22.7449 16.0354 23.0215C15.8432 23.3779 15.2618 23.9498 14.929 24.1045C14.582 24.2733 14.0335 24.2921 13.6725 24.1561C13.2646 24.0014 12.9458 23.7201 12.7536 23.345C12.6036 23.0497 12.5895 22.9887 12.5707 22.5011L12.552 21.976L12.7536 21.9198C13.2177 21.7932 13.7381 21.2775 13.8788 20.7993L13.9444 20.5836L14.4601 20.6024C14.8914 20.6164 15.018 20.6446 15.2431 20.743Z" fill="black" fill-opacity="0.2"/>
<path d="M8.62788 1.0475C7.00573 1.20222 5.51486 1.57728 4.50687 2.08362C3.76144 2.45399 3.60672 2.69309 3.60672 3.43853C3.60672 3.90736 3.69111 4.10896 3.9349 4.24023C4.15994 4.35744 4.31465 4.34806 4.62877 4.18866C5.13511 3.93549 5.10698 3.92143 5.10698 4.46058V4.9341H4.2162C3.2129 4.9341 3.10976 4.95754 2.87066 5.22946C2.67844 5.44981 2.65969 5.55764 2.67844 6.48592C2.6925 7.2548 2.6925 7.26418 2.82378 7.43296C3.00193 7.66738 3.18009 7.75176 3.58797 7.77989L3.9349 7.80802V8.15027V8.49252L3.66767 8.56753C3.29729 8.67067 2.72532 8.95666 2.64562 9.07855C2.54248 9.22389 2.56123 9.42549 2.6925 9.55207C2.84253 9.70678 2.98787 9.69741 3.36293 9.50987C3.5364 9.42549 3.82707 9.30828 4.00523 9.25671C4.54907 9.09262 4.68503 8.88633 4.68503 8.21122V7.79396H6.77132H8.85761V8.23935C8.85761 8.92853 8.97951 9.0973 9.5843 9.27077C10.5876 9.55676 11.4596 10.4569 11.6893 11.4461L11.755 11.7321H6.76663H1.77829L1.80642 11.6009C1.86268 11.343 1.97988 11.0008 2.08771 10.7851C2.22367 10.5132 2.22836 10.3725 2.10647 10.2412C1.98457 10.11 1.82986 10.0725 1.67046 10.1334C1.50637 10.1991 1.25789 10.7007 1.11724 11.2586C1.02816 11.6055 1.01878 11.7462 1.04222 12.3838C1.07035 13.2371 1.16412 13.6684 1.54387 14.7092C1.86268 15.5718 2.07834 16.4345 2.17679 17.2174C2.28462 18.0566 2.2518 19.8616 2.10647 21.0853C2.0549 21.5494 2.00332 22.2433 1.99864 22.6324C1.98926 23.3028 1.99395 23.3497 2.11116 23.5982C2.28462 23.9686 2.5331 24.2217 2.8941 24.3999L3.20822 24.5546L5.99775 24.5781L8.78729 24.6015L8.99826 24.7281C9.31706 24.9156 9.66869 25 10.1188 25C10.8501 25 11.3752 24.7843 11.8722 24.2921L12.191 23.9733L12.5051 24.2874C13.0021 24.7843 13.5318 25 14.2538 25C14.9993 25 15.5197 24.7562 16.1526 24.0998C16.7621 23.4763 16.9684 23.0122 16.9684 22.2855C16.9684 21.8354 16.8933 21.5119 16.6871 21.1087C16.5417 20.818 16.1995 20.4148 16.0213 20.3164L15.9041 20.2554L16.237 19.9226C16.7574 19.3975 16.9684 18.8865 16.9684 18.1504C16.9684 17.4518 16.7761 17.0018 16.2135 16.4017C15.8572 16.0219 15.5103 15.7641 15.3509 15.7641C15.1681 15.7641 14.9993 15.9375 14.9993 16.1251C14.9993 16.2798 15.0462 16.3407 15.4634 16.7439C16.087 17.3487 16.1948 17.555 16.1948 18.1551C16.1948 18.5395 16.176 18.638 16.0729 18.863C15.8994 19.2334 15.651 19.4866 15.29 19.6647C15.004 19.8054 14.9336 19.8194 14.4601 19.8382L13.9397 19.8523L13.8788 19.6507C13.7991 19.3834 13.5459 19.0084 13.3349 18.8443C13.1568 18.7036 12.7208 18.4833 12.6129 18.4833C12.5614 18.4833 12.552 18.3801 12.5707 17.9535C12.5942 17.3862 12.6645 17.1471 12.9224 16.8095C13.0865 16.5939 13.5225 16.3079 13.7991 16.2376C14.0335 16.1813 14.1554 16.0454 14.1554 15.8438C14.1554 15.6656 13.9679 15.4828 13.785 15.4828C13.4146 15.4828 12.6879 15.8953 12.3879 16.2751L12.2097 16.5001L11.9191 16.1954C11.755 16.0266 11.6237 15.8719 11.6237 15.8438C11.6237 15.8156 11.7925 15.2999 11.9988 14.6904C12.416 13.4527 12.5145 12.9839 12.5145 12.2478C12.5145 10.9351 12.041 9.9412 11.0564 9.17232C10.7376 8.92853 10.2453 8.67536 9.87966 8.56753L9.60774 8.49252V8.14089V7.79396H9.83278C10.3344 7.78927 10.597 7.658 10.7704 7.32513C10.8642 7.13291 10.8736 7.05321 10.8736 6.35465C10.8736 5.51545 10.8408 5.37949 10.611 5.15914C10.3907 4.95754 10.2688 4.9341 9.29831 4.9341H8.38878V4.11834C8.38878 3.51355 8.40285 3.28851 8.44504 3.26038C8.47786 3.24162 9.19048 3.22287 10.0297 3.22287C11.6612 3.21818 11.6471 3.22287 11.8347 2.97439C11.9144 2.86187 11.9284 2.75873 11.9425 2.168C11.9566 1.52102 11.9519 1.47883 11.8487 1.32411C11.6378 1.01 11.5581 0.995932 10.2172 1.00062C9.56085 1.00531 8.84355 1.02406 8.62788 1.0475ZM10.8783 1.74606H11.2018V2.10706V2.47274L9.87497 2.47743C8.39347 2.48212 8.06529 2.52431 7.86369 2.71654C7.67147 2.90407 7.63865 3.08222 7.63865 4.0527V4.9341H6.74788H5.8571V4.23085V3.52761L5.70239 3.35883C5.47266 3.10566 5.23356 3.0916 4.7366 3.30726L4.35685 3.47135V3.30726C4.35685 3.05409 4.42717 2.97908 4.83037 2.77279C5.9368 2.21958 7.62928 1.83982 9.39676 1.74606C9.80933 1.72731 10.2407 1.71793 10.3532 1.72731C10.4657 1.73668 10.7048 1.74606 10.8783 1.74606ZM10.1 6.36403V7.02039H6.77132H3.44263L3.42857 6.4156C3.42388 6.07804 3.42857 5.77799 3.43794 5.74517C3.4567 5.6936 4.08024 5.68423 6.7807 5.6936L10.1 5.70767V6.36403ZM11.7644 12.562C11.7644 12.862 11.5581 13.645 11.244 14.5592C10.9298 15.464 10.897 15.5343 10.8079 15.5062C10.7517 15.4875 10.5079 15.464 10.2594 15.4499C9.47178 15.4031 8.94669 15.6328 8.27157 16.3032C7.59646 16.9736 7.37142 17.5034 7.41362 18.3379L7.43237 18.7646H5.21481H2.99724V18.2582C2.99724 17.6628 2.8941 16.7439 2.75814 16.1063C2.70657 15.8531 2.4956 15.1499 2.28931 14.5451C1.93769 13.509 1.77829 12.8854 1.77829 12.5713V12.4354H6.77132H11.7644V12.562ZM10.8548 16.3501C11.2018 16.5189 11.5065 16.8236 11.6612 17.1612C11.7644 17.3862 11.7878 17.5081 11.8019 17.9535C11.8159 18.3754 11.8065 18.4833 11.7597 18.4833C11.6096 18.4833 11.1596 18.7411 10.9486 18.9427C10.7423 19.1443 10.4516 19.6366 10.4516 19.7913C10.4516 19.8382 10.3438 19.8476 9.92185 19.8382C9.43896 19.8194 9.36864 19.8054 9.08265 19.6647C8.52474 19.3928 8.20125 18.8865 8.16374 18.2489C8.14968 17.9722 8.16374 17.841 8.24344 17.6347C8.43566 17.1284 9.12016 16.4486 9.6218 16.2704C9.9828 16.1438 10.4985 16.1766 10.8548 16.3501ZM12.5848 19.2756C13.3818 19.6366 13.424 20.7196 12.6598 21.1181C12.3269 21.2916 12.0457 21.2916 11.7128 21.1181C11.2768 20.8931 11.0517 20.3633 11.2018 19.9132C11.2768 19.6788 11.5534 19.3787 11.7878 19.2756C12.0269 19.1631 12.3457 19.1631 12.5848 19.2756ZM8.09811 19.8804L8.45911 20.2461L8.24344 20.4148C7.99028 20.6118 7.68554 21.0478 7.5402 21.4275C7.41362 21.751 7.36673 22.4308 7.44643 22.7918C7.50738 23.0872 7.6996 23.4997 7.859 23.6873L7.97621 23.8279H5.70708C3.18946 23.8279 3.2129 23.8279 2.9363 23.5044C2.68313 23.1997 2.67375 22.9793 2.85659 21.0853C2.90817 20.5696 2.95974 20.007 2.97849 19.8288L3.00662 19.5147H5.36952H7.73242L8.09811 19.8804ZM10.4938 20.7899C10.6298 21.2634 11.1361 21.7745 11.605 21.9104L11.8206 21.976L11.8065 22.4918C11.7878 22.9653 11.7737 23.0356 11.6331 23.3216C11.4549 23.6826 11.2018 23.9311 10.8314 24.1045C10.6063 24.2077 10.5079 24.2264 10.1235 24.2264C9.72495 24.2264 9.64993 24.2124 9.42021 24.0905C9.08265 23.9123 8.48724 23.3122 8.31846 22.984C8.16374 22.6746 8.11217 22.2198 8.20125 21.8635C8.28564 21.5025 8.57163 21.0993 8.88105 20.8931C9.21392 20.668 9.48115 20.6024 10.0109 20.5977L10.4376 20.593L10.4938 20.7899ZM15.2431 20.743C15.5806 20.8977 15.9088 21.2259 16.0682 21.5682C16.176 21.7979 16.1948 21.8963 16.1948 22.2808C16.1948 22.698 16.1854 22.7449 16.0354 23.0215C15.8432 23.3779 15.2618 23.9498 14.929 24.1045C14.582 24.2733 14.0335 24.2921 13.6725 24.1561C13.2646 24.0014 12.9458 23.7201 12.7536 23.345C12.6036 23.0497 12.5895 22.9887 12.5707 22.5011L12.552 21.976L12.7536 21.9198C13.2177 21.7932 13.7381 21.2775 13.8788 20.7993L13.9444 20.5836L14.4601 20.6024C14.8914 20.6164 15.018 20.6446 15.2431 20.743Z" fill="black" fill-opacity="0.2"/>
<path d="M8.62788 1.0475C7.00573 1.20222 5.51486 1.57728 4.50687 2.08362C3.76144 2.45399 3.60672 2.69309 3.60672 3.43853C3.60672 3.90736 3.69111 4.10896 3.9349 4.24023C4.15994 4.35744 4.31465 4.34806 4.62877 4.18866C5.13511 3.93549 5.10698 3.92143 5.10698 4.46058V4.9341H4.2162C3.2129 4.9341 3.10976 4.95754 2.87066 5.22946C2.67844 5.44981 2.65969 5.55764 2.67844 6.48592C2.6925 7.2548 2.6925 7.26418 2.82378 7.43296C3.00193 7.66738 3.18009 7.75176 3.58797 7.77989L3.9349 7.80802V8.15027V8.49252L3.66767 8.56753C3.29729 8.67067 2.72532 8.95666 2.64562 9.07855C2.54248 9.22389 2.56123 9.42549 2.6925 9.55207C2.84253 9.70678 2.98787 9.69741 3.36293 9.50987C3.5364 9.42549 3.82707 9.30828 4.00523 9.25671C4.54907 9.09262 4.68503 8.88633 4.68503 8.21122V7.79396H6.77132H8.85761V8.23935C8.85761 8.92853 8.97951 9.0973 9.5843 9.27077C10.5876 9.55676 11.4596 10.4569 11.6893 11.4461L11.755 11.7321H6.76663H1.77829L1.80642 11.6009C1.86268 11.343 1.97988 11.0008 2.08771 10.7851C2.22367 10.5132 2.22836 10.3725 2.10647 10.2412C1.98457 10.11 1.82986 10.0725 1.67046 10.1334C1.50637 10.1991 1.25789 10.7007 1.11724 11.2586C1.02816 11.6055 1.01878 11.7462 1.04222 12.3838C1.07035 13.2371 1.16412 13.6684 1.54387 14.7092C1.86268 15.5718 2.07834 16.4345 2.17679 17.2174C2.28462 18.0566 2.2518 19.8616 2.10647 21.0853C2.0549 21.5494 2.00332 22.2433 1.99864 22.6324C1.98926 23.3028 1.99395 23.3497 2.11116 23.5982C2.28462 23.9686 2.5331 24.2217 2.8941 24.3999L3.20822 24.5546L5.99775 24.5781L8.78729 24.6015L8.99826 24.7281C9.31706 24.9156 9.66869 25 10.1188 25C10.8501 25 11.3752 24.7843 11.8722 24.2921L12.191 23.9733L12.5051 24.2874C13.0021 24.7843 13.5318 25 14.2538 25C14.9993 25 15.5197 24.7562 16.1526 24.0998C16.7621 23.4763 16.9684 23.0122 16.9684 22.2855C16.9684 21.8354 16.8933 21.5119 16.6871 21.1087C16.5417 20.818 16.1995 20.4148 16.0213 20.3164L15.9041 20.2554L16.237 19.9226C16.7574 19.3975 16.9684 18.8865 16.9684 18.1504C16.9684 17.4518 16.7761 17.0018 16.2135 16.4017C15.8572 16.0219 15.5103 15.7641 15.3509 15.7641C15.1681 15.7641 14.9993 15.9375 14.9993 16.1251C14.9993 16.2798 15.0462 16.3407 15.4634 16.7439C16.087 17.3487 16.1948 17.555 16.1948 18.1551C16.1948 18.5395 16.176 18.638 16.0729 18.863C15.8994 19.2334 15.651 19.4866 15.29 19.6647C15.004 19.8054 14.9336 19.8194 14.4601 19.8382L13.9397 19.8523L13.8788 19.6507C13.7991 19.3834 13.5459 19.0084 13.3349 18.8443C13.1568 18.7036 12.7208 18.4833 12.6129 18.4833C12.5614 18.4833 12.552 18.3801 12.5707 17.9535C12.5942 17.3862 12.6645 17.1471 12.9224 16.8095C13.0865 16.5939 13.5225 16.3079 13.7991 16.2376C14.0335 16.1813 14.1554 16.0454 14.1554 15.8438C14.1554 15.6656 13.9679 15.4828 13.785 15.4828C13.4146 15.4828 12.6879 15.8953 12.3879 16.2751L12.2097 16.5001L11.9191 16.1954C11.755 16.0266 11.6237 15.8719 11.6237 15.8438C11.6237 15.8156 11.7925 15.2999 11.9988 14.6904C12.416 13.4527 12.5145 12.9839 12.5145 12.2478C12.5145 10.9351 12.041 9.9412 11.0564 9.17232C10.7376 8.92853 10.2453 8.67536 9.87966 8.56753L9.60774 8.49252V8.14089V7.79396H9.83278C10.3344 7.78927 10.597 7.658 10.7704 7.32513C10.8642 7.13291 10.8736 7.05321 10.8736 6.35465C10.8736 5.51545 10.8408 5.37949 10.611 5.15914C10.3907 4.95754 10.2688 4.9341 9.29831 4.9341H8.38878V4.11834C8.38878 3.51355 8.40285 3.28851 8.44504 3.26038C8.47786 3.24162 9.19048 3.22287 10.0297 3.22287C11.6612 3.21818 11.6471 3.22287 11.8347 2.97439C11.9144 2.86187 11.9284 2.75873 11.9425 2.168C11.9566 1.52102 11.9519 1.47883 11.8487 1.32411C11.6378 1.01 11.5581 0.995932 10.2172 1.00062C9.56085 1.00531 8.84355 1.02406 8.62788 1.0475ZM10.8783 1.74606H11.2018V2.10706V2.47274L9.87497 2.47743C8.39347 2.48212 8.06529 2.52431 7.86369 2.71654C7.67147 2.90407 7.63865 3.08222 7.63865 4.0527V4.9341H6.74788H5.8571V4.23085V3.52761L5.70239 3.35883C5.47266 3.10566 5.23356 3.0916 4.7366 3.30726L4.35685 3.47135V3.30726C4.35685 3.05409 4.42717 2.97908 4.83037 2.77279C5.9368 2.21958 7.62928 1.83982 9.39676 1.74606C9.80933 1.72731 10.2407 1.71793 10.3532 1.72731C10.4657 1.73668 10.7048 1.74606 10.8783 1.74606ZM10.1 6.36403V7.02039H6.77132H3.44263L3.42857 6.4156C3.42388 6.07804 3.42857 5.77799 3.43794 5.74517C3.4567 5.6936 4.08024 5.68423 6.7807 5.6936L10.1 5.70767V6.36403ZM11.7644 12.562C11.7644 12.862 11.5581 13.645 11.244 14.5592C10.9298 15.464 10.897 15.5343 10.8079 15.5062C10.7517 15.4875 10.5079 15.464 10.2594 15.4499C9.47178 15.4031 8.94669 15.6328 8.27157 16.3032C7.59646 16.9736 7.37142 17.5034 7.41362 18.3379L7.43237 18.7646H5.21481H2.99724V18.2582C2.99724 17.6628 2.8941 16.7439 2.75814 16.1063C2.70657 15.8531 2.4956 15.1499 2.28931 14.5451C1.93769 13.509 1.77829 12.8854 1.77829 12.5713V12.4354H6.77132H11.7644V12.562ZM10.8548 16.3501C11.2018 16.5189 11.5065 16.8236 11.6612 17.1612C11.7644 17.3862 11.7878 17.5081 11.8019 17.9535C11.8159 18.3754 11.8065 18.4833 11.7597 18.4833C11.6096 18.4833 11.1596 18.7411 10.9486 18.9427C10.7423 19.1443 10.4516 19.6366 10.4516 19.7913C10.4516 19.8382 10.3438 19.8476 9.92185 19.8382C9.43896 19.8194 9.36864 19.8054 9.08265 19.6647C8.52474 19.3928 8.20125 18.8865 8.16374 18.2489C8.14968 17.9722 8.16374 17.841 8.24344 17.6347C8.43566 17.1284 9.12016 16.4486 9.6218 16.2704C9.9828 16.1438 10.4985 16.1766 10.8548 16.3501ZM12.5848 19.2756C13.3818 19.6366 13.424 20.7196 12.6598 21.1181C12.3269 21.2916 12.0457 21.2916 11.7128 21.1181C11.2768 20.8931 11.0517 20.3633 11.2018 19.9132C11.2768 19.6788 11.5534 19.3787 11.7878 19.2756C12.0269 19.1631 12.3457 19.1631 12.5848 19.2756ZM8.09811 19.8804L8.45911 20.2461L8.24344 20.4148C7.99028 20.6118 7.68554 21.0478 7.5402 21.4275C7.41362 21.751 7.36673 22.4308 7.44643 22.7918C7.50738 23.0872 7.6996 23.4997 7.859 23.6873L7.97621 23.8279H5.70708C3.18946 23.8279 3.2129 23.8279 2.9363 23.5044C2.68313 23.1997 2.67375 22.9793 2.85659 21.0853C2.90817 20.5696 2.95974 20.007 2.97849 19.8288L3.00662 19.5147H5.36952H7.73242L8.09811 19.8804ZM10.4938 20.7899C10.6298 21.2634 11.1361 21.7745 11.605 21.9104L11.8206 21.976L11.8065 22.4918C11.7878 22.9653 11.7737 23.0356 11.6331 23.3216C11.4549 23.6826 11.2018 23.9311 10.8314 24.1045C10.6063 24.2077 10.5079 24.2264 10.1235 24.2264C9.72495 24.2264 9.64993 24.2124 9.42021 24.0905C9.08265 23.9123 8.48724 23.3122 8.31846 22.984C8.16374 22.6746 8.11217 22.2198 8.20125 21.8635C8.28564 21.5025 8.57163 21.0993 8.88105 20.8931C9.21392 20.668 9.48115 20.6024 10.0109 20.5977L10.4376 20.593L10.4938 20.7899ZM15.2431 20.743C15.5806 20.8977 15.9088 21.2259 16.0682 21.5682C16.176 21.7979 16.1948 21.8963 16.1948 22.2808C16.1948 22.698 16.1854 22.7449 16.0354 23.0215C15.8432 23.3779 15.2618 23.9498 14.929 24.1045C14.582 24.2733 14.0335 24.2921 13.6725 24.1561C13.2646 24.0014 12.9458 23.7201 12.7536 23.345C12.6036 23.0497 12.5895 22.9887 12.5707 22.5011L12.552 21.976L12.7536 21.9198C13.2177 21.7932 13.7381 21.2775 13.8788 20.7993L13.9444 20.5836L14.4601 20.6024C14.8914 20.6164 15.018 20.6446 15.2431 20.743Z" fill="black" fill-opacity="0.2"/>
<path d="M8.62788 1.0475C7.00573 1.20222 5.51486 1.57728 4.50687 2.08362C3.76144 2.45399 3.60672 2.69309 3.60672 3.43853C3.60672 3.90736 3.69111 4.10896 3.9349 4.24023C4.15994 4.35744 4.31465 4.34806 4.62877 4.18866C5.13511 3.93549 5.10698 3.92143 5.10698 4.46058V4.9341H4.2162C3.2129 4.9341 3.10976 4.95754 2.87066 5.22946C2.67844 5.44981 2.65969 5.55764 2.67844 6.48592C2.6925 7.2548 2.6925 7.26418 2.82378 7.43296C3.00193 7.66738 3.18009 7.75176 3.58797 7.77989L3.9349 7.80802V8.15027V8.49252L3.66767 8.56753C3.29729 8.67067 2.72532 8.95666 2.64562 9.07855C2.54248 9.22389 2.56123 9.42549 2.6925 9.55207C2.84253 9.70678 2.98787 9.69741 3.36293 9.50987C3.5364 9.42549 3.82707 9.30828 4.00523 9.25671C4.54907 9.09262 4.68503 8.88633 4.68503 8.21122V7.79396H6.77132H8.85761V8.23935C8.85761 8.92853 8.97951 9.0973 9.5843 9.27077C10.5876 9.55676 11.4596 10.4569 11.6893 11.4461L11.755 11.7321H6.76663H1.77829L1.80642 11.6009C1.86268 11.343 1.97988 11.0008 2.08771 10.7851C2.22367 10.5132 2.22836 10.3725 2.10647 10.2412C1.98457 10.11 1.82986 10.0725 1.67046 10.1334C1.50637 10.1991 1.25789 10.7007 1.11724 11.2586C1.02816 11.6055 1.01878 11.7462 1.04222 12.3838C1.07035 13.2371 1.16412 13.6684 1.54387 14.7092C1.86268 15.5718 2.07834 16.4345 2.17679 17.2174C2.28462 18.0566 2.2518 19.8616 2.10647 21.0853C2.0549 21.5494 2.00332 22.2433 1.99864 22.6324C1.98926 23.3028 1.99395 23.3497 2.11116 23.5982C2.28462 23.9686 2.5331 24.2217 2.8941 24.3999L3.20822 24.5546L5.99775 24.5781L8.78729 24.6015L8.99826 24.7281C9.31706 24.9156 9.66869 25 10.1188 25C10.8501 25 11.3752 24.7843 11.8722 24.2921L12.191 23.9733L12.5051 24.2874C13.0021 24.7843 13.5318 25 14.2538 25C14.9993 25 15.5197 24.7562 16.1526 24.0998C16.7621 23.4763 16.9684 23.0122 16.9684 22.2855C16.9684 21.8354 16.8933 21.5119 16.6871 21.1087C16.5417 20.818 16.1995 20.4148 16.0213 20.3164L15.9041 20.2554L16.237 19.9226C16.7574 19.3975 16.9684 18.8865 16.9684 18.1504C16.9684 17.4518 16.7761 17.0018 16.2135 16.4017C15.8572 16.0219 15.5103 15.7641 15.3509 15.7641C15.1681 15.7641 14.9993 15.9375 14.9993 16.1251C14.9993 16.2798 15.0462 16.3407 15.4634 16.7439C16.087 17.3487 16.1948 17.555 16.1948 18.1551C16.1948 18.5395 16.176 18.638 16.0729 18.863C15.8994 19.2334 15.651 19.4866 15.29 19.6647C15.004 19.8054 14.9336 19.8194 14.4601 19.8382L13.9397 19.8523L13.8788 19.6507C13.7991 19.3834 13.5459 19.0084 13.3349 18.8443C13.1568 18.7036 12.7208 18.4833 12.6129 18.4833C12.5614 18.4833 12.552 18.3801 12.5707 17.9535C12.5942 17.3862 12.6645 17.1471 12.9224 16.8095C13.0865 16.5939 13.5225 16.3079 13.7991 16.2376C14.0335 16.1813 14.1554 16.0454 14.1554 15.8438C14.1554 15.6656 13.9679 15.4828 13.785 15.4828C13.4146 15.4828 12.6879 15.8953 12.3879 16.2751L12.2097 16.5001L11.9191 16.1954C11.755 16.0266 11.6237 15.8719 11.6237 15.8438C11.6237 15.8156 11.7925 15.2999 11.9988 14.6904C12.416 13.4527 12.5145 12.9839 12.5145 12.2478C12.5145 10.9351 12.041 9.9412 11.0564 9.17232C10.7376 8.92853 10.2453 8.67536 9.87966 8.56753L9.60774 8.49252V8.14089V7.79396H9.83278C10.3344 7.78927 10.597 7.658 10.7704 7.32513C10.8642 7.13291 10.8736 7.05321 10.8736 6.35465C10.8736 5.51545 10.8408 5.37949 10.611 5.15914C10.3907 4.95754 10.2688 4.9341 9.29831 4.9341H8.38878V4.11834C8.38878 3.51355 8.40285 3.28851 8.44504 3.26038C8.47786 3.24162 9.19048 3.22287 10.0297 3.22287C11.6612 3.21818 11.6471 3.22287 11.8347 2.97439C11.9144 2.86187 11.9284 2.75873 11.9425 2.168C11.9566 1.52102 11.9519 1.47883 11.8487 1.32411C11.6378 1.01 11.5581 0.995932 10.2172 1.00062C9.56085 1.00531 8.84355 1.02406 8.62788 1.0475ZM10.8783 1.74606H11.2018V2.10706V2.47274L9.87497 2.47743C8.39347 2.48212 8.06529 2.52431 7.86369 2.71654C7.67147 2.90407 7.63865 3.08222 7.63865 4.0527V4.9341H6.74788H5.8571V4.23085V3.52761L5.70239 3.35883C5.47266 3.10566 5.23356 3.0916 4.7366 3.30726L4.35685 3.47135V3.30726C4.35685 3.05409 4.42717 2.97908 4.83037 2.77279C5.9368 2.21958 7.62928 1.83982 9.39676 1.74606C9.80933 1.72731 10.2407 1.71793 10.3532 1.72731C10.4657 1.73668 10.7048 1.74606 10.8783 1.74606ZM10.1 6.36403V7.02039H6.77132H3.44263L3.42857 6.4156C3.42388 6.07804 3.42857 5.77799 3.43794 5.74517C3.4567 5.6936 4.08024 5.68423 6.7807 5.6936L10.1 5.70767V6.36403ZM11.7644 12.562C11.7644 12.862 11.5581 13.645 11.244 14.5592C10.9298 15.464 10.897 15.5343 10.8079 15.5062C10.7517 15.4875 10.5079 15.464 10.2594 15.4499C9.47178 15.4031 8.94669 15.6328 8.27157 16.3032C7.59646 16.9736 7.37142 17.5034 7.41362 18.3379L7.43237 18.7646H5.21481H2.99724V18.2582C2.99724 17.6628 2.8941 16.7439 2.75814 16.1063C2.70657 15.8531 2.4956 15.1499 2.28931 14.5451C1.93769 13.509 1.77829 12.8854 1.77829 12.5713V12.4354H6.77132H11.7644V12.562ZM10.8548 16.3501C11.2018 16.5189 11.5065 16.8236 11.6612 17.1612C11.7644 17.3862 11.7878 17.5081 11.8019 17.9535C11.8159 18.3754 11.8065 18.4833 11.7597 18.4833C11.6096 18.4833 11.1596 18.7411 10.9486 18.9427C10.7423 19.1443 10.4516 19.6366 10.4516 19.7913C10.4516 19.8382 10.3438 19.8476 9.92185 19.8382C9.43896 19.8194 9.36864 19.8054 9.08265 19.6647C8.52474 19.3928 8.20125 18.8865 8.16374 18.2489C8.14968 17.9722 8.16374 17.841 8.24344 17.6347C8.43566 17.1284 9.12016 16.4486 9.6218 16.2704C9.9828 16.1438 10.4985 16.1766 10.8548 16.3501ZM12.5848 19.2756C13.3818 19.6366 13.424 20.7196 12.6598 21.1181C12.3269 21.2916 12.0457 21.2916 11.7128 21.1181C11.2768 20.8931 11.0517 20.3633 11.2018 19.9132C11.2768 19.6788 11.5534 19.3787 11.7878 19.2756C12.0269 19.1631 12.3457 19.1631 12.5848 19.2756ZM8.09811 19.8804L8.45911 20.2461L8.24344 20.4148C7.99028 20.6118 7.68554 21.0478 7.5402 21.4275C7.41362 21.751 7.36673 22.4308 7.44643 22.7918C7.50738 23.0872 7.6996 23.4997 7.859 23.6873L7.97621 23.8279H5.70708C3.18946 23.8279 3.2129 23.8279 2.9363 23.5044C2.68313 23.1997 2.67375 22.9793 2.85659 21.0853C2.90817 20.5696 2.95974 20.007 2.97849 19.8288L3.00662 19.5147H5.36952H7.73242L8.09811 19.8804ZM10.4938 20.7899C10.6298 21.2634 11.1361 21.7745 11.605 21.9104L11.8206 21.976L11.8065 22.4918C11.7878 22.9653 11.7737 23.0356 11.6331 23.3216C11.4549 23.6826 11.2018 23.9311 10.8314 24.1045C10.6063 24.2077 10.5079 24.2264 10.1235 24.2264C9.72495 24.2264 9.64993 24.2124 9.42021 24.0905C9.08265 23.9123 8.48724 23.3122 8.31846 22.984C8.16374 22.6746 8.11217 22.2198 8.20125 21.8635C8.28564 21.5025 8.57163 21.0993 8.88105 20.8931C9.21392 20.668 9.48115 20.6024 10.0109 20.5977L10.4376 20.593L10.4938 20.7899ZM15.2431 20.743C15.5806 20.8977 15.9088 21.2259 16.0682 21.5682C16.176 21.7979 16.1948 21.8963 16.1948 22.2808C16.1948 22.698 16.1854 22.7449 16.0354 23.0215C15.8432 23.3779 15.2618 23.9498 14.929 24.1045C14.582 24.2733 14.0335 24.2921 13.6725 24.1561C13.2646 24.0014 12.9458 23.7201 12.7536 23.345C12.6036 23.0497 12.5895 22.9887 12.5707 22.5011L12.552 21.976L12.7536 21.9198C13.2177 21.7932 13.7381 21.2775 13.8788 20.7993L13.9444 20.5836L14.4601 20.6024C14.8914 20.6164 15.018 20.6446 15.2431 20.743Z" stroke="#345E40" stroke-width="0.6"/>
<path d="M8.62788 1.0475C7.00573 1.20222 5.51486 1.57728 4.50687 2.08362C3.76144 2.45399 3.60672 2.69309 3.60672 3.43853C3.60672 3.90736 3.69111 4.10896 3.9349 4.24023C4.15994 4.35744 4.31465 4.34806 4.62877 4.18866C5.13511 3.93549 5.10698 3.92143 5.10698 4.46058V4.9341H4.2162C3.2129 4.9341 3.10976 4.95754 2.87066 5.22946C2.67844 5.44981 2.65969 5.55764 2.67844 6.48592C2.6925 7.2548 2.6925 7.26418 2.82378 7.43296C3.00193 7.66738 3.18009 7.75176 3.58797 7.77989L3.9349 7.80802V8.15027V8.49252L3.66767 8.56753C3.29729 8.67067 2.72532 8.95666 2.64562 9.07855C2.54248 9.22389 2.56123 9.42549 2.6925 9.55207C2.84253 9.70678 2.98787 9.69741 3.36293 9.50987C3.5364 9.42549 3.82707 9.30828 4.00523 9.25671C4.54907 9.09262 4.68503 8.88633 4.68503 8.21122V7.79396H6.77132H8.85761V8.23935C8.85761 8.92853 8.97951 9.0973 9.5843 9.27077C10.5876 9.55676 11.4596 10.4569 11.6893 11.4461L11.755 11.7321H6.76663H1.77829L1.80642 11.6009C1.86268 11.343 1.97988 11.0008 2.08771 10.7851C2.22367 10.5132 2.22836 10.3725 2.10647 10.2412C1.98457 10.11 1.82986 10.0725 1.67046 10.1334C1.50637 10.1991 1.25789 10.7007 1.11724 11.2586C1.02816 11.6055 1.01878 11.7462 1.04222 12.3838C1.07035 13.2371 1.16412 13.6684 1.54387 14.7092C1.86268 15.5718 2.07834 16.4345 2.17679 17.2174C2.28462 18.0566 2.2518 19.8616 2.10647 21.0853C2.0549 21.5494 2.00332 22.2433 1.99864 22.6324C1.98926 23.3028 1.99395 23.3497 2.11116 23.5982C2.28462 23.9686 2.5331 24.2217 2.8941 24.3999L3.20822 24.5546L5.99775 24.5781L8.78729 24.6015L8.99826 24.7281C9.31706 24.9156 9.66869 25 10.1188 25C10.8501 25 11.3752 24.7843 11.8722 24.2921L12.191 23.9733L12.5051 24.2874C13.0021 24.7843 13.5318 25 14.2538 25C14.9993 25 15.5197 24.7562 16.1526 24.0998C16.7621 23.4763 16.9684 23.0122 16.9684 22.2855C16.9684 21.8354 16.8933 21.5119 16.6871 21.1087C16.5417 20.818 16.1995 20.4148 16.0213 20.3164L15.9041 20.2554L16.237 19.9226C16.7574 19.3975 16.9684 18.8865 16.9684 18.1504C16.9684 17.4518 16.7761 17.0018 16.2135 16.4017C15.8572 16.0219 15.5103 15.7641 15.3509 15.7641C15.1681 15.7641 14.9993 15.9375 14.9993 16.1251C14.9993 16.2798 15.0462 16.3407 15.4634 16.7439C16.087 17.3487 16.1948 17.555 16.1948 18.1551C16.1948 18.5395 16.176 18.638 16.0729 18.863C15.8994 19.2334 15.651 19.4866 15.29 19.6647C15.004 19.8054 14.9336 19.8194 14.4601 19.8382L13.9397 19.8523L13.8788 19.6507C13.7991 19.3834 13.5459 19.0084 13.3349 18.8443C13.1568 18.7036 12.7208 18.4833 12.6129 18.4833C12.5614 18.4833 12.552 18.3801 12.5707 17.9535C12.5942 17.3862 12.6645 17.1471 12.9224 16.8095C13.0865 16.5939 13.5225 16.3079 13.7991 16.2376C14.0335 16.1813 14.1554 16.0454 14.1554 15.8438C14.1554 15.6656 13.9679 15.4828 13.785 15.4828C13.4146 15.4828 12.6879 15.8953 12.3879 16.2751L12.2097 16.5001L11.9191 16.1954C11.755 16.0266 11.6237 15.8719 11.6237 15.8438C11.6237 15.8156 11.7925 15.2999 11.9988 14.6904C12.416 13.4527 12.5145 12.9839 12.5145 12.2478C12.5145 10.9351 12.041 9.9412 11.0564 9.17232C10.7376 8.92853 10.2453 8.67536 9.87966 8.56753L9.60774 8.49252V8.14089V7.79396H9.83278C10.3344 7.78927 10.597 7.658 10.7704 7.32513C10.8642 7.13291 10.8736 7.05321 10.8736 6.35465C10.8736 5.51545 10.8408 5.37949 10.611 5.15914C10.3907 4.95754 10.2688 4.9341 9.29831 4.9341H8.38878V4.11834C8.38878 3.51355 8.40285 3.28851 8.44504 3.26038C8.47786 3.24162 9.19048 3.22287 10.0297 3.22287C11.6612 3.21818 11.6471 3.22287 11.8347 2.97439C11.9144 2.86187 11.9284 2.75873 11.9425 2.168C11.9566 1.52102 11.9519 1.47883 11.8487 1.32411C11.6378 1.01 11.5581 0.995932 10.2172 1.00062C9.56085 1.00531 8.84355 1.02406 8.62788 1.0475ZM10.8783 1.74606H11.2018V2.10706V2.47274L9.87497 2.47743C8.39347 2.48212 8.06529 2.52431 7.86369 2.71654C7.67147 2.90407 7.63865 3.08222 7.63865 4.0527V4.9341H6.74788H5.8571V4.23085V3.52761L5.70239 3.35883C5.47266 3.10566 5.23356 3.0916 4.7366 3.30726L4.35685 3.47135V3.30726C4.35685 3.05409 4.42717 2.97908 4.83037 2.77279C5.9368 2.21958 7.62928 1.83982 9.39676 1.74606C9.80933 1.72731 10.2407 1.71793 10.3532 1.72731C10.4657 1.73668 10.7048 1.74606 10.8783 1.74606ZM10.1 6.36403V7.02039H6.77132H3.44263L3.42857 6.4156C3.42388 6.07804 3.42857 5.77799 3.43794 5.74517C3.4567 5.6936 4.08024 5.68423 6.7807 5.6936L10.1 5.70767V6.36403ZM11.7644 12.562C11.7644 12.862 11.5581 13.645 11.244 14.5592C10.9298 15.464 10.897 15.5343 10.8079 15.5062C10.7517 15.4875 10.5079 15.464 10.2594 15.4499C9.47178 15.4031 8.94669 15.6328 8.27157 16.3032C7.59646 16.9736 7.37142 17.5034 7.41362 18.3379L7.43237 18.7646H5.21481H2.99724V18.2582C2.99724 17.6628 2.8941 16.7439 2.75814 16.1063C2.70657 15.8531 2.4956 15.1499 2.28931 14.5451C1.93769 13.509 1.77829 12.8854 1.77829 12.5713V12.4354H6.77132H11.7644V12.562ZM10.8548 16.3501C11.2018 16.5189 11.5065 16.8236 11.6612 17.1612C11.7644 17.3862 11.7878 17.5081 11.8019 17.9535C11.8159 18.3754 11.8065 18.4833 11.7597 18.4833C11.6096 18.4833 11.1596 18.7411 10.9486 18.9427C10.7423 19.1443 10.4516 19.6366 10.4516 19.7913C10.4516 19.8382 10.3438 19.8476 9.92185 19.8382C9.43896 19.8194 9.36864 19.8054 9.08265 19.6647C8.52474 19.3928 8.20125 18.8865 8.16374 18.2489C8.14968 17.9722 8.16374 17.841 8.24344 17.6347C8.43566 17.1284 9.12016 16.4486 9.6218 16.2704C9.9828 16.1438 10.4985 16.1766 10.8548 16.3501ZM12.5848 19.2756C13.3818 19.6366 13.424 20.7196 12.6598 21.1181C12.3269 21.2916 12.0457 21.2916 11.7128 21.1181C11.2768 20.8931 11.0517 20.3633 11.2018 19.9132C11.2768 19.6788 11.5534 19.3787 11.7878 19.2756C12.0269 19.1631 12.3457 19.1631 12.5848 19.2756ZM8.09811 19.8804L8.45911 20.2461L8.24344 20.4148C7.99028 20.6118 7.68554 21.0478 7.5402 21.4275C7.41362 21.751 7.36673 22.4308 7.44643 22.7918C7.50738 23.0872 7.6996 23.4997 7.859 23.6873L7.97621 23.8279H5.70708C3.18946 23.8279 3.2129 23.8279 2.9363 23.5044C2.68313 23.1997 2.67375 22.9793 2.85659 21.0853C2.90817 20.5696 2.95974 20.007 2.97849 19.8288L3.00662 19.5147H5.36952H7.73242L8.09811 19.8804ZM10.4938 20.7899C10.6298 21.2634 11.1361 21.7745 11.605 21.9104L11.8206 21.976L11.8065 22.4918C11.7878 22.9653 11.7737 23.0356 11.6331 23.3216C11.4549 23.6826 11.2018 23.9311 10.8314 24.1045C10.6063 24.2077 10.5079 24.2264 10.1235 24.2264C9.72495 24.2264 9.64993 24.2124 9.42021 24.0905C9.08265 23.9123 8.48724 23.3122 8.31846 22.984C8.16374 22.6746 8.11217 22.2198 8.20125 21.8635C8.28564 21.5025 8.57163 21.0993 8.88105 20.8931C9.21392 20.668 9.48115 20.6024 10.0109 20.5977L10.4376 20.593L10.4938 20.7899ZM15.2431 20.743C15.5806 20.8977 15.9088 21.2259 16.0682 21.5682C16.176 21.7979 16.1948 21.8963 16.1948 22.2808C16.1948 22.698 16.1854 22.7449 16.0354 23.0215C15.8432 23.3779 15.2618 23.9498 14.929 24.1045C14.582 24.2733 14.0335 24.2921 13.6725 24.1561C13.2646 24.0014 12.9458 23.7201 12.7536 23.345C12.6036 23.0497 12.5895 22.9887 12.5707 22.5011L12.552 21.976L12.7536 21.9198C13.2177 21.7932 13.7381 21.2775 13.8788 20.7993L13.9444 20.5836L14.4601 20.6024C14.8914 20.6164 15.018 20.6446 15.2431 20.743Z" stroke="black" stroke-opacity="0.2" stroke-width="0.6"/>
<path d="M8.62788 1.0475C7.00573 1.20222 5.51486 1.57728 4.50687 2.08362C3.76144 2.45399 3.60672 2.69309 3.60672 3.43853C3.60672 3.90736 3.69111 4.10896 3.9349 4.24023C4.15994 4.35744 4.31465 4.34806 4.62877 4.18866C5.13511 3.93549 5.10698 3.92143 5.10698 4.46058V4.9341H4.2162C3.2129 4.9341 3.10976 4.95754 2.87066 5.22946C2.67844 5.44981 2.65969 5.55764 2.67844 6.48592C2.6925 7.2548 2.6925 7.26418 2.82378 7.43296C3.00193 7.66738 3.18009 7.75176 3.58797 7.77989L3.9349 7.80802V8.15027V8.49252L3.66767 8.56753C3.29729 8.67067 2.72532 8.95666 2.64562 9.07855C2.54248 9.22389 2.56123 9.42549 2.6925 9.55207C2.84253 9.70678 2.98787 9.69741 3.36293 9.50987C3.5364 9.42549 3.82707 9.30828 4.00523 9.25671C4.54907 9.09262 4.68503 8.88633 4.68503 8.21122V7.79396H6.77132H8.85761V8.23935C8.85761 8.92853 8.97951 9.0973 9.5843 9.27077C10.5876 9.55676 11.4596 10.4569 11.6893 11.4461L11.755 11.7321H6.76663H1.77829L1.80642 11.6009C1.86268 11.343 1.97988 11.0008 2.08771 10.7851C2.22367 10.5132 2.22836 10.3725 2.10647 10.2412C1.98457 10.11 1.82986 10.0725 1.67046 10.1334C1.50637 10.1991 1.25789 10.7007 1.11724 11.2586C1.02816 11.6055 1.01878 11.7462 1.04222 12.3838C1.07035 13.2371 1.16412 13.6684 1.54387 14.7092C1.86268 15.5718 2.07834 16.4345 2.17679 17.2174C2.28462 18.0566 2.2518 19.8616 2.10647 21.0853C2.0549 21.5494 2.00332 22.2433 1.99864 22.6324C1.98926 23.3028 1.99395 23.3497 2.11116 23.5982C2.28462 23.9686 2.5331 24.2217 2.8941 24.3999L3.20822 24.5546L5.99775 24.5781L8.78729 24.6015L8.99826 24.7281C9.31706 24.9156 9.66869 25 10.1188 25C10.8501 25 11.3752 24.7843 11.8722 24.2921L12.191 23.9733L12.5051 24.2874C13.0021 24.7843 13.5318 25 14.2538 25C14.9993 25 15.5197 24.7562 16.1526 24.0998C16.7621 23.4763 16.9684 23.0122 16.9684 22.2855C16.9684 21.8354 16.8933 21.5119 16.6871 21.1087C16.5417 20.818 16.1995 20.4148 16.0213 20.3164L15.9041 20.2554L16.237 19.9226C16.7574 19.3975 16.9684 18.8865 16.9684 18.1504C16.9684 17.4518 16.7761 17.0018 16.2135 16.4017C15.8572 16.0219 15.5103 15.7641 15.3509 15.7641C15.1681 15.7641 14.9993 15.9375 14.9993 16.1251C14.9993 16.2798 15.0462 16.3407 15.4634 16.7439C16.087 17.3487 16.1948 17.555 16.1948 18.1551C16.1948 18.5395 16.176 18.638 16.0729 18.863C15.8994 19.2334 15.651 19.4866 15.29 19.6647C15.004 19.8054 14.9336 19.8194 14.4601 19.8382L13.9397 19.8523L13.8788 19.6507C13.7991 19.3834 13.5459 19.0084 13.3349 18.8443C13.1568 18.7036 12.7208 18.4833 12.6129 18.4833C12.5614 18.4833 12.552 18.3801 12.5707 17.9535C12.5942 17.3862 12.6645 17.1471 12.9224 16.8095C13.0865 16.5939 13.5225 16.3079 13.7991 16.2376C14.0335 16.1813 14.1554 16.0454 14.1554 15.8438C14.1554 15.6656 13.9679 15.4828 13.785 15.4828C13.4146 15.4828 12.6879 15.8953 12.3879 16.2751L12.2097 16.5001L11.9191 16.1954C11.755 16.0266 11.6237 15.8719 11.6237 15.8438C11.6237 15.8156 11.7925 15.2999 11.9988 14.6904C12.416 13.4527 12.5145 12.9839 12.5145 12.2478C12.5145 10.9351 12.041 9.9412 11.0564 9.17232C10.7376 8.92853 10.2453 8.67536 9.87966 8.56753L9.60774 8.49252V8.14089V7.79396H9.83278C10.3344 7.78927 10.597 7.658 10.7704 7.32513C10.8642 7.13291 10.8736 7.05321 10.8736 6.35465C10.8736 5.51545 10.8408 5.37949 10.611 5.15914C10.3907 4.95754 10.2688 4.9341 9.29831 4.9341H8.38878V4.11834C8.38878 3.51355 8.40285 3.28851 8.44504 3.26038C8.47786 3.24162 9.19048 3.22287 10.0297 3.22287C11.6612 3.21818 11.6471 3.22287 11.8347 2.97439C11.9144 2.86187 11.9284 2.75873 11.9425 2.168C11.9566 1.52102 11.9519 1.47883 11.8487 1.32411C11.6378 1.01 11.5581 0.995932 10.2172 1.00062C9.56085 1.00531 8.84355 1.02406 8.62788 1.0475ZM10.8783 1.74606H11.2018V2.10706V2.47274L9.87497 2.47743C8.39347 2.48212 8.06529 2.52431 7.86369 2.71654C7.67147 2.90407 7.63865 3.08222 7.63865 4.0527V4.9341H6.74788H5.8571V4.23085V3.52761L5.70239 3.35883C5.47266 3.10566 5.23356 3.0916 4.7366 3.30726L4.35685 3.47135V3.30726C4.35685 3.05409 4.42717 2.97908 4.83037 2.77279C5.9368 2.21958 7.62928 1.83982 9.39676 1.74606C9.80933 1.72731 10.2407 1.71793 10.3532 1.72731C10.4657 1.73668 10.7048 1.74606 10.8783 1.74606ZM10.1 6.36403V7.02039H6.77132H3.44263L3.42857 6.4156C3.42388 6.07804 3.42857 5.77799 3.43794 5.74517C3.4567 5.6936 4.08024 5.68423 6.7807 5.6936L10.1 5.70767V6.36403ZM11.7644 12.562C11.7644 12.862 11.5581 13.645 11.244 14.5592C10.9298 15.464 10.897 15.5343 10.8079 15.5062C10.7517 15.4875 10.5079 15.464 10.2594 15.4499C9.47178 15.4031 8.94669 15.6328 8.27157 16.3032C7.59646 16.9736 7.37142 17.5034 7.41362 18.3379L7.43237 18.7646H5.21481H2.99724V18.2582C2.99724 17.6628 2.8941 16.7439 2.75814 16.1063C2.70657 15.8531 2.4956 15.1499 2.28931 14.5451C1.93769 13.509 1.77829 12.8854 1.77829 12.5713V12.4354H6.77132H11.7644V12.562ZM10.8548 16.3501C11.2018 16.5189 11.5065 16.8236 11.6612 17.1612C11.7644 17.3862 11.7878 17.5081 11.8019 17.9535C11.8159 18.3754 11.8065 18.4833 11.7597 18.4833C11.6096 18.4833 11.1596 18.7411 10.9486 18.9427C10.7423 19.1443 10.4516 19.6366 10.4516 19.7913C10.4516 19.8382 10.3438 19.8476 9.92185 19.8382C9.43896 19.8194 9.36864 19.8054 9.08265 19.6647C8.52474 19.3928 8.20125 18.8865 8.16374 18.2489C8.14968 17.9722 8.16374 17.841 8.24344 17.6347C8.43566 17.1284 9.12016 16.4486 9.6218 16.2704C9.9828 16.1438 10.4985 16.1766 10.8548 16.3501ZM12.5848 19.2756C13.3818 19.6366 13.424 20.7196 12.6598 21.1181C12.3269 21.2916 12.0457 21.2916 11.7128 21.1181C11.2768 20.8931 11.0517 20.3633 11.2018 19.9132C11.2768 19.6788 11.5534 19.3787 11.7878 19.2756C12.0269 19.1631 12.3457 19.1631 12.5848 19.2756ZM8.09811 19.8804L8.45911 20.2461L8.24344 20.4148C7.99028 20.6118 7.68554 21.0478 7.5402 21.4275C7.41362 21.751 7.36673 22.4308 7.44643 22.7918C7.50738 23.0872 7.6996 23.4997 7.859 23.6873L7.97621 23.8279H5.70708C3.18946 23.8279 3.2129 23.8279 2.9363 23.5044C2.68313 23.1997 2.67375 22.9793 2.85659 21.0853C2.90817 20.5696 2.95974 20.007 2.97849 19.8288L3.00662 19.5147H5.36952H7.73242L8.09811 19.8804ZM10.4938 20.7899C10.6298 21.2634 11.1361 21.7745 11.605 21.9104L11.8206 21.976L11.8065 22.4918C11.7878 22.9653 11.7737 23.0356 11.6331 23.3216C11.4549 23.6826 11.2018 23.9311 10.8314 24.1045C10.6063 24.2077 10.5079 24.2264 10.1235 24.2264C9.72495 24.2264 9.64993 24.2124 9.42021 24.0905C9.08265 23.9123 8.48724 23.3122 8.31846 22.984C8.16374 22.6746 8.11217 22.2198 8.20125 21.8635C8.28564 21.5025 8.57163 21.0993 8.88105 20.8931C9.21392 20.668 9.48115 20.6024 10.0109 20.5977L10.4376 20.593L10.4938 20.7899ZM15.2431 20.743C15.5806 20.8977 15.9088 21.2259 16.0682 21.5682C16.176 21.7979 16.1948 21.8963 16.1948 22.2808C16.1948 22.698 16.1854 22.7449 16.0354 23.0215C15.8432 23.3779 15.2618 23.9498 14.929 24.1045C14.582 24.2733 14.0335 24.2921 13.6725 24.1561C13.2646 24.0014 12.9458 23.7201 12.7536 23.345C12.6036 23.0497 12.5895 22.9887 12.5707 22.5011L12.552 21.976L12.7536 21.9198C13.2177 21.7932 13.7381 21.2775 13.8788 20.7993L13.9444 20.5836L14.4601 20.6024C14.8914 20.6164 15.018 20.6446 15.2431 20.743Z" stroke="black" stroke-opacity="0.2" stroke-width="0.6"/>
<path d="M8.62788 1.0475C7.00573 1.20222 5.51486 1.57728 4.50687 2.08362C3.76144 2.45399 3.60672 2.69309 3.60672 3.43853C3.60672 3.90736 3.69111 4.10896 3.9349 4.24023C4.15994 4.35744 4.31465 4.34806 4.62877 4.18866C5.13511 3.93549 5.10698 3.92143 5.10698 4.46058V4.9341H4.2162C3.2129 4.9341 3.10976 4.95754 2.87066 5.22946C2.67844 5.44981 2.65969 5.55764 2.67844 6.48592C2.6925 7.2548 2.6925 7.26418 2.82378 7.43296C3.00193 7.66738 3.18009 7.75176 3.58797 7.77989L3.9349 7.80802V8.15027V8.49252L3.66767 8.56753C3.29729 8.67067 2.72532 8.95666 2.64562 9.07855C2.54248 9.22389 2.56123 9.42549 2.6925 9.55207C2.84253 9.70678 2.98787 9.69741 3.36293 9.50987C3.5364 9.42549 3.82707 9.30828 4.00523 9.25671C4.54907 9.09262 4.68503 8.88633 4.68503 8.21122V7.79396H6.77132H8.85761V8.23935C8.85761 8.92853 8.97951 9.0973 9.5843 9.27077C10.5876 9.55676 11.4596 10.4569 11.6893 11.4461L11.755 11.7321H6.76663H1.77829L1.80642 11.6009C1.86268 11.343 1.97988 11.0008 2.08771 10.7851C2.22367 10.5132 2.22836 10.3725 2.10647 10.2412C1.98457 10.11 1.82986 10.0725 1.67046 10.1334C1.50637 10.1991 1.25789 10.7007 1.11724 11.2586C1.02816 11.6055 1.01878 11.7462 1.04222 12.3838C1.07035 13.2371 1.16412 13.6684 1.54387 14.7092C1.86268 15.5718 2.07834 16.4345 2.17679 17.2174C2.28462 18.0566 2.2518 19.8616 2.10647 21.0853C2.0549 21.5494 2.00332 22.2433 1.99864 22.6324C1.98926 23.3028 1.99395 23.3497 2.11116 23.5982C2.28462 23.9686 2.5331 24.2217 2.8941 24.3999L3.20822 24.5546L5.99775 24.5781L8.78729 24.6015L8.99826 24.7281C9.31706 24.9156 9.66869 25 10.1188 25C10.8501 25 11.3752 24.7843 11.8722 24.2921L12.191 23.9733L12.5051 24.2874C13.0021 24.7843 13.5318 25 14.2538 25C14.9993 25 15.5197 24.7562 16.1526 24.0998C16.7621 23.4763 16.9684 23.0122 16.9684 22.2855C16.9684 21.8354 16.8933 21.5119 16.6871 21.1087C16.5417 20.818 16.1995 20.4148 16.0213 20.3164L15.9041 20.2554L16.237 19.9226C16.7574 19.3975 16.9684 18.8865 16.9684 18.1504C16.9684 17.4518 16.7761 17.0018 16.2135 16.4017C15.8572 16.0219 15.5103 15.7641 15.3509 15.7641C15.1681 15.7641 14.9993 15.9375 14.9993 16.1251C14.9993 16.2798 15.0462 16.3407 15.4634 16.7439C16.087 17.3487 16.1948 17.555 16.1948 18.1551C16.1948 18.5395 16.176 18.638 16.0729 18.863C15.8994 19.2334 15.651 19.4866 15.29 19.6647C15.004 19.8054 14.9336 19.8194 14.4601 19.8382L13.9397 19.8523L13.8788 19.6507C13.7991 19.3834 13.5459 19.0084 13.3349 18.8443C13.1568 18.7036 12.7208 18.4833 12.6129 18.4833C12.5614 18.4833 12.552 18.3801 12.5707 17.9535C12.5942 17.3862 12.6645 17.1471 12.9224 16.8095C13.0865 16.5939 13.5225 16.3079 13.7991 16.2376C14.0335 16.1813 14.1554 16.0454 14.1554 15.8438C14.1554 15.6656 13.9679 15.4828 13.785 15.4828C13.4146 15.4828 12.6879 15.8953 12.3879 16.2751L12.2097 16.5001L11.9191 16.1954C11.755 16.0266 11.6237 15.8719 11.6237 15.8438C11.6237 15.8156 11.7925 15.2999 11.9988 14.6904C12.416 13.4527 12.5145 12.9839 12.5145 12.2478C12.5145 10.9351 12.041 9.9412 11.0564 9.17232C10.7376 8.92853 10.2453 8.67536 9.87966 8.56753L9.60774 8.49252V8.14089V7.79396H9.83278C10.3344 7.78927 10.597 7.658 10.7704 7.32513C10.8642 7.13291 10.8736 7.05321 10.8736 6.35465C10.8736 5.51545 10.8408 5.37949 10.611 5.15914C10.3907 4.95754 10.2688 4.9341 9.29831 4.9341H8.38878V4.11834C8.38878 3.51355 8.40285 3.28851 8.44504 3.26038C8.47786 3.24162 9.19048 3.22287 10.0297 3.22287C11.6612 3.21818 11.6471 3.22287 11.8347 2.97439C11.9144 2.86187 11.9284 2.75873 11.9425 2.168C11.9566 1.52102 11.9519 1.47883 11.8487 1.32411C11.6378 1.01 11.5581 0.995932 10.2172 1.00062C9.56085 1.00531 8.84355 1.02406 8.62788 1.0475ZM10.8783 1.74606H11.2018V2.10706V2.47274L9.87497 2.47743C8.39347 2.48212 8.06529 2.52431 7.86369 2.71654C7.67147 2.90407 7.63865 3.08222 7.63865 4.0527V4.9341H6.74788H5.8571V4.23085V3.52761L5.70239 3.35883C5.47266 3.10566 5.23356 3.0916 4.7366 3.30726L4.35685 3.47135V3.30726C4.35685 3.05409 4.42717 2.97908 4.83037 2.77279C5.9368 2.21958 7.62928 1.83982 9.39676 1.74606C9.80933 1.72731 10.2407 1.71793 10.3532 1.72731C10.4657 1.73668 10.7048 1.74606 10.8783 1.74606ZM10.1 6.36403V7.02039H6.77132H3.44263L3.42857 6.4156C3.42388 6.07804 3.42857 5.77799 3.43794 5.74517C3.4567 5.6936 4.08024 5.68423 6.7807 5.6936L10.1 5.70767V6.36403ZM11.7644 12.562C11.7644 12.862 11.5581 13.645 11.244 14.5592C10.9298 15.464 10.897 15.5343 10.8079 15.5062C10.7517 15.4875 10.5079 15.464 10.2594 15.4499C9.47178 15.4031 8.94669 15.6328 8.27157 16.3032C7.59646 16.9736 7.37142 17.5034 7.41362 18.3379L7.43237 18.7646H5.21481H2.99724V18.2582C2.99724 17.6628 2.8941 16.7439 2.75814 16.1063C2.70657 15.8531 2.4956 15.1499 2.28931 14.5451C1.93769 13.509 1.77829 12.8854 1.77829 12.5713V12.4354H6.77132H11.7644V12.562ZM10.8548 16.3501C11.2018 16.5189 11.5065 16.8236 11.6612 17.1612C11.7644 17.3862 11.7878 17.5081 11.8019 17.9535C11.8159 18.3754 11.8065 18.4833 11.7597 18.4833C11.6096 18.4833 11.1596 18.7411 10.9486 18.9427C10.7423 19.1443 10.4516 19.6366 10.4516 19.7913C10.4516 19.8382 10.3438 19.8476 9.92185 19.8382C9.43896 19.8194 9.36864 19.8054 9.08265 19.6647C8.52474 19.3928 8.20125 18.8865 8.16374 18.2489C8.14968 17.9722 8.16374 17.841 8.24344 17.6347C8.43566 17.1284 9.12016 16.4486 9.6218 16.2704C9.9828 16.1438 10.4985 16.1766 10.8548 16.3501ZM12.5848 19.2756C13.3818 19.6366 13.424 20.7196 12.6598 21.1181C12.3269 21.2916 12.0457 21.2916 11.7128 21.1181C11.2768 20.8931 11.0517 20.3633 11.2018 19.9132C11.2768 19.6788 11.5534 19.3787 11.7878 19.2756C12.0269 19.1631 12.3457 19.1631 12.5848 19.2756ZM8.09811 19.8804L8.45911 20.2461L8.24344 20.4148C7.99028 20.6118 7.68554 21.0478 7.5402 21.4275C7.41362 21.751 7.36673 22.4308 7.44643 22.7918C7.50738 23.0872 7.6996 23.4997 7.859 23.6873L7.97621 23.8279H5.70708C3.18946 23.8279 3.2129 23.8279 2.9363 23.5044C2.68313 23.1997 2.67375 22.9793 2.85659 21.0853C2.90817 20.5696 2.95974 20.007 2.97849 19.8288L3.00662 19.5147H5.36952H7.73242L8.09811 19.8804ZM10.4938 20.7899C10.6298 21.2634 11.1361 21.7745 11.605 21.9104L11.8206 21.976L11.8065 22.4918C11.7878 22.9653 11.7737 23.0356 11.6331 23.3216C11.4549 23.6826 11.2018 23.9311 10.8314 24.1045C10.6063 24.2077 10.5079 24.2264 10.1235 24.2264C9.72495 24.2264 9.64993 24.2124 9.42021 24.0905C9.08265 23.9123 8.48724 23.3122 8.31846 22.984C8.16374 22.6746 8.11217 22.2198 8.20125 21.8635C8.28564 21.5025 8.57163 21.0993 8.88105 20.8931C9.21392 20.668 9.48115 20.6024 10.0109 20.5977L10.4376 20.593L10.4938 20.7899ZM15.2431 20.743C15.5806 20.8977 15.9088 21.2259 16.0682 21.5682C16.176 21.7979 16.1948 21.8963 16.1948 22.2808C16.1948 22.698 16.1854 22.7449 16.0354 23.0215C15.8432 23.3779 15.2618 23.9498 14.929 24.1045C14.582 24.2733 14.0335 24.2921 13.6725 24.1561C13.2646 24.0014 12.9458 23.7201 12.7536 23.345C12.6036 23.0497 12.5895 22.9887 12.5707 22.5011L12.552 21.976L12.7536 21.9198C13.2177 21.7932 13.7381 21.2775 13.8788 20.7993L13.9444 20.5836L14.4601 20.6024C14.8914 20.6164 15.018 20.6446 15.2431 20.743Z" stroke="black" stroke-opacity="0.2" stroke-width="0.6"/>
<path d="M8.62788 1.0475C7.00573 1.20222 5.51486 1.57728 4.50687 2.08362C3.76144 2.45399 3.60672 2.69309 3.60672 3.43853C3.60672 3.90736 3.69111 4.10896 3.9349 4.24023C4.15994 4.35744 4.31465 4.34806 4.62877 4.18866C5.13511 3.93549 5.10698 3.92143 5.10698 4.46058V4.9341H4.2162C3.2129 4.9341 3.10976 4.95754 2.87066 5.22946C2.67844 5.44981 2.65969 5.55764 2.67844 6.48592C2.6925 7.2548 2.6925 7.26418 2.82378 7.43296C3.00193 7.66738 3.18009 7.75176 3.58797 7.77989L3.9349 7.80802V8.15027V8.49252L3.66767 8.56753C3.29729 8.67067 2.72532 8.95666 2.64562 9.07855C2.54248 9.22389 2.56123 9.42549 2.6925 9.55207C2.84253 9.70678 2.98787 9.69741 3.36293 9.50987C3.5364 9.42549 3.82707 9.30828 4.00523 9.25671C4.54907 9.09262 4.68503 8.88633 4.68503 8.21122V7.79396H6.77132H8.85761V8.23935C8.85761 8.92853 8.97951 9.0973 9.5843 9.27077C10.5876 9.55676 11.4596 10.4569 11.6893 11.4461L11.755 11.7321H6.76663H1.77829L1.80642 11.6009C1.86268 11.343 1.97988 11.0008 2.08771 10.7851C2.22367 10.5132 2.22836 10.3725 2.10647 10.2412C1.98457 10.11 1.82986 10.0725 1.67046 10.1334C1.50637 10.1991 1.25789 10.7007 1.11724 11.2586C1.02816 11.6055 1.01878 11.7462 1.04222 12.3838C1.07035 13.2371 1.16412 13.6684 1.54387 14.7092C1.86268 15.5718 2.07834 16.4345 2.17679 17.2174C2.28462 18.0566 2.2518 19.8616 2.10647 21.0853C2.0549 21.5494 2.00332 22.2433 1.99864 22.6324C1.98926 23.3028 1.99395 23.3497 2.11116 23.5982C2.28462 23.9686 2.5331 24.2217 2.8941 24.3999L3.20822 24.5546L5.99775 24.5781L8.78729 24.6015L8.99826 24.7281C9.31706 24.9156 9.66869 25 10.1188 25C10.8501 25 11.3752 24.7843 11.8722 24.2921L12.191 23.9733L12.5051 24.2874C13.0021 24.7843 13.5318 25 14.2538 25C14.9993 25 15.5197 24.7562 16.1526 24.0998C16.7621 23.4763 16.9684 23.0122 16.9684 22.2855C16.9684 21.8354 16.8933 21.5119 16.6871 21.1087C16.5417 20.818 16.1995 20.4148 16.0213 20.3164L15.9041 20.2554L16.237 19.9226C16.7574 19.3975 16.9684 18.8865 16.9684 18.1504C16.9684 17.4518 16.7761 17.0018 16.2135 16.4017C15.8572 16.0219 15.5103 15.7641 15.3509 15.7641C15.1681 15.7641 14.9993 15.9375 14.9993 16.1251C14.9993 16.2798 15.0462 16.3407 15.4634 16.7439C16.087 17.3487 16.1948 17.555 16.1948 18.1551C16.1948 18.5395 16.176 18.638 16.0729 18.863C15.8994 19.2334 15.651 19.4866 15.29 19.6647C15.004 19.8054 14.9336 19.8194 14.4601 19.8382L13.9397 19.8523L13.8788 19.6507C13.7991 19.3834 13.5459 19.0084 13.3349 18.8443C13.1568 18.7036 12.7208 18.4833 12.6129 18.4833C12.5614 18.4833 12.552 18.3801 12.5707 17.9535C12.5942 17.3862 12.6645 17.1471 12.9224 16.8095C13.0865 16.5939 13.5225 16.3079 13.7991 16.2376C14.0335 16.1813 14.1554 16.0454 14.1554 15.8438C14.1554 15.6656 13.9679 15.4828 13.785 15.4828C13.4146 15.4828 12.6879 15.8953 12.3879 16.2751L12.2097 16.5001L11.9191 16.1954C11.755 16.0266 11.6237 15.8719 11.6237 15.8438C11.6237 15.8156 11.7925 15.2999 11.9988 14.6904C12.416 13.4527 12.5145 12.9839 12.5145 12.2478C12.5145 10.9351 12.041 9.9412 11.0564 9.17232C10.7376 8.92853 10.2453 8.67536 9.87966 8.56753L9.60774 8.49252V8.14089V7.79396H9.83278C10.3344 7.78927 10.597 7.658 10.7704 7.32513C10.8642 7.13291 10.8736 7.05321 10.8736 6.35465C10.8736 5.51545 10.8408 5.37949 10.611 5.15914C10.3907 4.95754 10.2688 4.9341 9.29831 4.9341H8.38878V4.11834C8.38878 3.51355 8.40285 3.28851 8.44504 3.26038C8.47786 3.24162 9.19048 3.22287 10.0297 3.22287C11.6612 3.21818 11.6471 3.22287 11.8347 2.97439C11.9144 2.86187 11.9284 2.75873 11.9425 2.168C11.9566 1.52102 11.9519 1.47883 11.8487 1.32411C11.6378 1.01 11.5581 0.995932 10.2172 1.00062C9.56085 1.00531 8.84355 1.02406 8.62788 1.0475ZM10.8783 1.74606H11.2018V2.10706V2.47274L9.87497 2.47743C8.39347 2.48212 8.06529 2.52431 7.86369 2.71654C7.67147 2.90407 7.63865 3.08222 7.63865 4.0527V4.9341H6.74788H5.8571V4.23085V3.52761L5.70239 3.35883C5.47266 3.10566 5.23356 3.0916 4.7366 3.30726L4.35685 3.47135V3.30726C4.35685 3.05409 4.42717 2.97908 4.83037 2.77279C5.9368 2.21958 7.62928 1.83982 9.39676 1.74606C9.80933 1.72731 10.2407 1.71793 10.3532 1.72731C10.4657 1.73668 10.7048 1.74606 10.8783 1.74606ZM10.1 6.36403V7.02039H6.77132H3.44263L3.42857 6.4156C3.42388 6.07804 3.42857 5.77799 3.43794 5.74517C3.4567 5.6936 4.08024 5.68423 6.7807 5.6936L10.1 5.70767V6.36403ZM11.7644 12.562C11.7644 12.862 11.5581 13.645 11.244 14.5592C10.9298 15.464 10.897 15.5343 10.8079 15.5062C10.7517 15.4875 10.5079 15.464 10.2594 15.4499C9.47178 15.4031 8.94669 15.6328 8.27157 16.3032C7.59646 16.9736 7.37142 17.5034 7.41362 18.3379L7.43237 18.7646H5.21481H2.99724V18.2582C2.99724 17.6628 2.8941 16.7439 2.75814 16.1063C2.70657 15.8531 2.4956 15.1499 2.28931 14.5451C1.93769 13.509 1.77829 12.8854 1.77829 12.5713V12.4354H6.77132H11.7644V12.562ZM10.8548 16.3501C11.2018 16.5189 11.5065 16.8236 11.6612 17.1612C11.7644 17.3862 11.7878 17.5081 11.8019 17.9535C11.8159 18.3754 11.8065 18.4833 11.7597 18.4833C11.6096 18.4833 11.1596 18.7411 10.9486 18.9427C10.7423 19.1443 10.4516 19.6366 10.4516 19.7913C10.4516 19.8382 10.3438 19.8476 9.92185 19.8382C9.43896 19.8194 9.36864 19.8054 9.08265 19.6647C8.52474 19.3928 8.20125 18.8865 8.16374 18.2489C8.14968 17.9722 8.16374 17.841 8.24344 17.6347C8.43566 17.1284 9.12016 16.4486 9.6218 16.2704C9.9828 16.1438 10.4985 16.1766 10.8548 16.3501ZM12.5848 19.2756C13.3818 19.6366 13.424 20.7196 12.6598 21.1181C12.3269 21.2916 12.0457 21.2916 11.7128 21.1181C11.2768 20.8931 11.0517 20.3633 11.2018 19.9132C11.2768 19.6788 11.5534 19.3787 11.7878 19.2756C12.0269 19.1631 12.3457 19.1631 12.5848 19.2756ZM8.09811 19.8804L8.45911 20.2461L8.24344 20.4148C7.99028 20.6118 7.68554 21.0478 7.5402 21.4275C7.41362 21.751 7.36673 22.4308 7.44643 22.7918C7.50738 23.0872 7.6996 23.4997 7.859 23.6873L7.97621 23.8279H5.70708C3.18946 23.8279 3.2129 23.8279 2.9363 23.5044C2.68313 23.1997 2.67375 22.9793 2.85659 21.0853C2.90817 20.5696 2.95974 20.007 2.97849 19.8288L3.00662 19.5147H5.36952H7.73242L8.09811 19.8804ZM10.4938 20.7899C10.6298 21.2634 11.1361 21.7745 11.605 21.9104L11.8206 21.976L11.8065 22.4918C11.7878 22.9653 11.7737 23.0356 11.6331 23.3216C11.4549 23.6826 11.2018 23.9311 10.8314 24.1045C10.6063 24.2077 10.5079 24.2264 10.1235 24.2264C9.72495 24.2264 9.64993 24.2124 9.42021 24.0905C9.08265 23.9123 8.48724 23.3122 8.31846 22.984C8.16374 22.6746 8.11217 22.2198 8.20125 21.8635C8.28564 21.5025 8.57163 21.0993 8.88105 20.8931C9.21392 20.668 9.48115 20.6024 10.0109 20.5977L10.4376 20.593L10.4938 20.7899ZM15.2431 20.743C15.5806 20.8977 15.9088 21.2259 16.0682 21.5682C16.176 21.7979 16.1948 21.8963 16.1948 22.2808C16.1948 22.698 16.1854 22.7449 16.0354 23.0215C15.8432 23.3779 15.2618 23.9498 14.929 24.1045C14.582 24.2733 14.0335 24.2921 13.6725 24.1561C13.2646 24.0014 12.9458 23.7201 12.7536 23.345C12.6036 23.0497 12.5895 22.9887 12.5707 22.5011L12.552 21.976L12.7536 21.9198C13.2177 21.7932 13.7381 21.2775 13.8788 20.7993L13.9444 20.5836L14.4601 20.6024C14.8914 20.6164 15.018 20.6446 15.2431 20.743Z" stroke="black" stroke-opacity="0.2" stroke-width="0.6"/>
</svg>
