<svg width="12" height="26" viewBox="0 0 12 26" fill="none" xmlns="http://www.w3.org/2000/svg">
<path d="M3.95178 1.03654C3.88576 1.06055 3.80173 1.11157 3.75971 1.15059C3.60365 1.29164 3.60065 1.33065 3.60065 2.50109C3.60065 3.50946 3.60666 3.59949 3.66068 3.71654C3.7207 3.84859 3.85275 3.95362 3.9998 3.98664C4.07783 4.00164 4.08083 4.00764 4.08083 4.20872V4.41579H3.91577C3.60365 4.41579 3.41158 4.58086 3.36957 4.88397C3.36056 4.965 3.28854 5.64325 3.21351 6.39053L3.07546 7.75003L2.74534 7.88208C1.94404 8.1972 1.42185 8.59034 1.18776 9.05851C1.00769 9.41565 1.0197 8.92346 1.0197 16.5613C1.0197 21.5221 1.0287 23.6049 1.05271 23.7189C1.16075 24.2381 1.53289 24.6763 2.07009 24.9164L2.23515 24.9884L5.59639 24.9974C8.87361 25.0034 8.96364 25.0034 9.15271 24.9464C9.65089 24.7933 10.035 24.4332 10.2271 23.935L10.3081 23.7279L10.3171 16.6633C10.3261 8.89045 10.3381 9.44866 10.1431 9.04951C10.0951 8.95047 9.99602 8.80042 9.927 8.72239C9.6599 8.41928 9.11069 8.07715 8.53148 7.85507C8.29439 7.76204 8.26738 7.74403 8.25838 7.666C8.25238 7.62098 8.18335 6.95173 8.10532 6.18345C7.94626 4.62887 7.94026 4.60787 7.72418 4.48482C7.64015 4.4368 7.55612 4.41579 7.43607 4.41579H7.26201V4.20572C7.26201 4.00764 7.26501 3.99564 7.33104 3.99564C7.36705 3.99564 7.53811 3.94762 7.71218 3.8906C8.3274 3.68352 9.06268 3.57849 10.3982 3.50646C10.6443 3.49145 10.7703 3.43743 10.8844 3.28438C10.9684 3.17634 10.9684 3.17033 10.9774 2.66915C10.9894 2.05392 10.9594 1.92787 10.7463 1.71479C10.4042 1.37567 9.71092 1.1956 8.25238 1.06655C7.45708 0.997528 4.11985 0.97352 3.95178 1.03654ZM6.45171 2.01491C7.52011 2.06592 8.73556 2.17997 9.46783 2.30301C9.83996 2.36604 9.96301 2.40205 9.96301 2.44707C9.96301 2.47408 9.88198 2.49208 9.6719 2.50709C8.81959 2.56711 7.92225 2.71716 7.42707 2.88223L7.15697 2.97526H5.90551H4.65104V2.49508V2.01791L4.85512 2.0059C5.30228 1.98489 5.83948 1.9879 6.45171 2.01491ZM6.24163 4.20572V4.41579H5.67142H5.10121V4.20572V3.99564H5.67142H6.24163V4.20572ZM6.99191 5.48719C6.99191 5.5172 7.03993 5.97937 7.09395 6.51657C7.14797 7.05377 7.19298 7.49494 7.18998 7.49794C7.18698 7.50094 7.05193 7.47993 6.88687 7.45292C6.46671 7.3869 4.88813 7.38389 4.45597 7.45292C4.29091 7.47693 4.15286 7.49794 4.14986 7.49494C4.14686 7.49494 4.19187 7.04477 4.24889 6.50157C4.30291 5.95536 4.35093 5.49319 4.35093 5.47219C4.35093 5.44518 4.63604 5.43617 5.67142 5.43617C6.90788 5.43617 6.99191 5.43917 6.99191 5.48719ZM6.24763 8.44029C7.08794 8.49731 7.82022 8.67137 8.34541 8.93247C8.72655 9.12454 9.05367 9.38564 9.20073 9.61372L9.27275 9.72776V16.6303C9.27275 23.4669 9.27275 23.5359 9.21273 23.6529C9.14671 23.785 9.00866 23.899 8.8556 23.95C8.78057 23.974 7.88924 23.983 5.65041 23.983C2.9194 23.983 2.53526 23.977 2.43622 23.938C2.29517 23.878 2.20214 23.788 2.12111 23.6379L2.05508 23.5179L2.04608 16.6213L2.04008 9.72776L2.1121 9.58071C2.21714 9.37663 2.53226 9.09753 2.84437 8.93847C3.61866 8.53932 4.93315 8.34725 6.24763 8.44029Z" fill="#345E40"/>
<path d="M3.95178 1.03654C3.88576 1.06055 3.80173 1.11157 3.75971 1.15059C3.60365 1.29164 3.60065 1.33065 3.60065 2.50109C3.60065 3.50946 3.60666 3.59949 3.66068 3.71654C3.7207 3.84859 3.85275 3.95362 3.9998 3.98664C4.07783 4.00164 4.08083 4.00764 4.08083 4.20872V4.41579H3.91577C3.60365 4.41579 3.41158 4.58086 3.36957 4.88397C3.36056 4.965 3.28854 5.64325 3.21351 6.39053L3.07546 7.75003L2.74534 7.88208C1.94404 8.1972 1.42185 8.59034 1.18776 9.05851C1.00769 9.41565 1.0197 8.92346 1.0197 16.5613C1.0197 21.5221 1.0287 23.6049 1.05271 23.7189C1.16075 24.2381 1.53289 24.6763 2.07009 24.9164L2.23515 24.9884L5.59639 24.9974C8.87361 25.0034 8.96364 25.0034 9.15271 24.9464C9.65089 24.7933 10.035 24.4332 10.2271 23.935L10.3081 23.7279L10.3171 16.6633C10.3261 8.89045 10.3381 9.44866 10.1431 9.04951C10.0951 8.95047 9.99602 8.80042 9.927 8.72239C9.6599 8.41928 9.11069 8.07715 8.53148 7.85507C8.29439 7.76204 8.26738 7.74403 8.25838 7.666C8.25238 7.62098 8.18335 6.95173 8.10532 6.18345C7.94626 4.62887 7.94026 4.60787 7.72418 4.48482C7.64015 4.4368 7.55612 4.41579 7.43607 4.41579H7.26201V4.20572C7.26201 4.00764 7.26501 3.99564 7.33104 3.99564C7.36705 3.99564 7.53811 3.94762 7.71218 3.8906C8.3274 3.68352 9.06268 3.57849 10.3982 3.50646C10.6443 3.49145 10.7703 3.43743 10.8844 3.28438C10.9684 3.17634 10.9684 3.17033 10.9774 2.66915C10.9894 2.05392 10.9594 1.92787 10.7463 1.71479C10.4042 1.37567 9.71092 1.1956 8.25238 1.06655C7.45708 0.997528 4.11985 0.97352 3.95178 1.03654ZM6.45171 2.01491C7.52011 2.06592 8.73556 2.17997 9.46783 2.30301C9.83996 2.36604 9.96301 2.40205 9.96301 2.44707C9.96301 2.47408 9.88198 2.49208 9.6719 2.50709C8.81959 2.56711 7.92225 2.71716 7.42707 2.88223L7.15697 2.97526H5.90551H4.65104V2.49508V2.01791L4.85512 2.0059C5.30228 1.98489 5.83948 1.9879 6.45171 2.01491ZM6.24163 4.20572V4.41579H5.67142H5.10121V4.20572V3.99564H5.67142H6.24163V4.20572ZM6.99191 5.48719C6.99191 5.5172 7.03993 5.97937 7.09395 6.51657C7.14797 7.05377 7.19298 7.49494 7.18998 7.49794C7.18698 7.50094 7.05193 7.47993 6.88687 7.45292C6.46671 7.3869 4.88813 7.38389 4.45597 7.45292C4.29091 7.47693 4.15286 7.49794 4.14986 7.49494C4.14686 7.49494 4.19187 7.04477 4.24889 6.50157C4.30291 5.95536 4.35093 5.49319 4.35093 5.47219C4.35093 5.44518 4.63604 5.43617 5.67142 5.43617C6.90788 5.43617 6.99191 5.43917 6.99191 5.48719ZM6.24763 8.44029C7.08794 8.49731 7.82022 8.67137 8.34541 8.93247C8.72655 9.12454 9.05367 9.38564 9.20073 9.61372L9.27275 9.72776V16.6303C9.27275 23.4669 9.27275 23.5359 9.21273 23.6529C9.14671 23.785 9.00866 23.899 8.8556 23.95C8.78057 23.974 7.88924 23.983 5.65041 23.983C2.9194 23.983 2.53526 23.977 2.43622 23.938C2.29517 23.878 2.20214 23.788 2.12111 23.6379L2.05508 23.5179L2.04608 16.6213L2.04008 9.72776L2.1121 9.58071C2.21714 9.37663 2.53226 9.09753 2.84437 8.93847C3.61866 8.53932 4.93315 8.34725 6.24763 8.44029Z" fill="black" fill-opacity="0.2"/>
<path d="M3.95178 1.03654C3.88576 1.06055 3.80173 1.11157 3.75971 1.15059C3.60365 1.29164 3.60065 1.33065 3.60065 2.50109C3.60065 3.50946 3.60666 3.59949 3.66068 3.71654C3.7207 3.84859 3.85275 3.95362 3.9998 3.98664C4.07783 4.00164 4.08083 4.00764 4.08083 4.20872V4.41579H3.91577C3.60365 4.41579 3.41158 4.58086 3.36957 4.88397C3.36056 4.965 3.28854 5.64325 3.21351 6.39053L3.07546 7.75003L2.74534 7.88208C1.94404 8.1972 1.42185 8.59034 1.18776 9.05851C1.00769 9.41565 1.0197 8.92346 1.0197 16.5613C1.0197 21.5221 1.0287 23.6049 1.05271 23.7189C1.16075 24.2381 1.53289 24.6763 2.07009 24.9164L2.23515 24.9884L5.59639 24.9974C8.87361 25.0034 8.96364 25.0034 9.15271 24.9464C9.65089 24.7933 10.035 24.4332 10.2271 23.935L10.3081 23.7279L10.3171 16.6633C10.3261 8.89045 10.3381 9.44866 10.1431 9.04951C10.0951 8.95047 9.99602 8.80042 9.927 8.72239C9.6599 8.41928 9.11069 8.07715 8.53148 7.85507C8.29439 7.76204 8.26738 7.74403 8.25838 7.666C8.25238 7.62098 8.18335 6.95173 8.10532 6.18345C7.94626 4.62887 7.94026 4.60787 7.72418 4.48482C7.64015 4.4368 7.55612 4.41579 7.43607 4.41579H7.26201V4.20572C7.26201 4.00764 7.26501 3.99564 7.33104 3.99564C7.36705 3.99564 7.53811 3.94762 7.71218 3.8906C8.3274 3.68352 9.06268 3.57849 10.3982 3.50646C10.6443 3.49145 10.7703 3.43743 10.8844 3.28438C10.9684 3.17634 10.9684 3.17033 10.9774 2.66915C10.9894 2.05392 10.9594 1.92787 10.7463 1.71479C10.4042 1.37567 9.71092 1.1956 8.25238 1.06655C7.45708 0.997528 4.11985 0.97352 3.95178 1.03654ZM6.45171 2.01491C7.52011 2.06592 8.73556 2.17997 9.46783 2.30301C9.83996 2.36604 9.96301 2.40205 9.96301 2.44707C9.96301 2.47408 9.88198 2.49208 9.6719 2.50709C8.81959 2.56711 7.92225 2.71716 7.42707 2.88223L7.15697 2.97526H5.90551H4.65104V2.49508V2.01791L4.85512 2.0059C5.30228 1.98489 5.83948 1.9879 6.45171 2.01491ZM6.24163 4.20572V4.41579H5.67142H5.10121V4.20572V3.99564H5.67142H6.24163V4.20572ZM6.99191 5.48719C6.99191 5.5172 7.03993 5.97937 7.09395 6.51657C7.14797 7.05377 7.19298 7.49494 7.18998 7.49794C7.18698 7.50094 7.05193 7.47993 6.88687 7.45292C6.46671 7.3869 4.88813 7.38389 4.45597 7.45292C4.29091 7.47693 4.15286 7.49794 4.14986 7.49494C4.14686 7.49494 4.19187 7.04477 4.24889 6.50157C4.30291 5.95536 4.35093 5.49319 4.35093 5.47219C4.35093 5.44518 4.63604 5.43617 5.67142 5.43617C6.90788 5.43617 6.99191 5.43917 6.99191 5.48719ZM6.24763 8.44029C7.08794 8.49731 7.82022 8.67137 8.34541 8.93247C8.72655 9.12454 9.05367 9.38564 9.20073 9.61372L9.27275 9.72776V16.6303C9.27275 23.4669 9.27275 23.5359 9.21273 23.6529C9.14671 23.785 9.00866 23.899 8.8556 23.95C8.78057 23.974 7.88924 23.983 5.65041 23.983C2.9194 23.983 2.53526 23.977 2.43622 23.938C2.29517 23.878 2.20214 23.788 2.12111 23.6379L2.05508 23.5179L2.04608 16.6213L2.04008 9.72776L2.1121 9.58071C2.21714 9.37663 2.53226 9.09753 2.84437 8.93847C3.61866 8.53932 4.93315 8.34725 6.24763 8.44029Z" fill="black" fill-opacity="0.2"/>
<path d="M3.95178 1.03654C3.88576 1.06055 3.80173 1.11157 3.75971 1.15059C3.60365 1.29164 3.60065 1.33065 3.60065 2.50109C3.60065 3.50946 3.60666 3.59949 3.66068 3.71654C3.7207 3.84859 3.85275 3.95362 3.9998 3.98664C4.07783 4.00164 4.08083 4.00764 4.08083 4.20872V4.41579H3.91577C3.60365 4.41579 3.41158 4.58086 3.36957 4.88397C3.36056 4.965 3.28854 5.64325 3.21351 6.39053L3.07546 7.75003L2.74534 7.88208C1.94404 8.1972 1.42185 8.59034 1.18776 9.05851C1.00769 9.41565 1.0197 8.92346 1.0197 16.5613C1.0197 21.5221 1.0287 23.6049 1.05271 23.7189C1.16075 24.2381 1.53289 24.6763 2.07009 24.9164L2.23515 24.9884L5.59639 24.9974C8.87361 25.0034 8.96364 25.0034 9.15271 24.9464C9.65089 24.7933 10.035 24.4332 10.2271 23.935L10.3081 23.7279L10.3171 16.6633C10.3261 8.89045 10.3381 9.44866 10.1431 9.04951C10.0951 8.95047 9.99602 8.80042 9.927 8.72239C9.6599 8.41928 9.11069 8.07715 8.53148 7.85507C8.29439 7.76204 8.26738 7.74403 8.25838 7.666C8.25238 7.62098 8.18335 6.95173 8.10532 6.18345C7.94626 4.62887 7.94026 4.60787 7.72418 4.48482C7.64015 4.4368 7.55612 4.41579 7.43607 4.41579H7.26201V4.20572C7.26201 4.00764 7.26501 3.99564 7.33104 3.99564C7.36705 3.99564 7.53811 3.94762 7.71218 3.8906C8.3274 3.68352 9.06268 3.57849 10.3982 3.50646C10.6443 3.49145 10.7703 3.43743 10.8844 3.28438C10.9684 3.17634 10.9684 3.17033 10.9774 2.66915C10.9894 2.05392 10.9594 1.92787 10.7463 1.71479C10.4042 1.37567 9.71092 1.1956 8.25238 1.06655C7.45708 0.997528 4.11985 0.97352 3.95178 1.03654ZM6.45171 2.01491C7.52011 2.06592 8.73556 2.17997 9.46783 2.30301C9.83996 2.36604 9.96301 2.40205 9.96301 2.44707C9.96301 2.47408 9.88198 2.49208 9.6719 2.50709C8.81959 2.56711 7.92225 2.71716 7.42707 2.88223L7.15697 2.97526H5.90551H4.65104V2.49508V2.01791L4.85512 2.0059C5.30228 1.98489 5.83948 1.9879 6.45171 2.01491ZM6.24163 4.20572V4.41579H5.67142H5.10121V4.20572V3.99564H5.67142H6.24163V4.20572ZM6.99191 5.48719C6.99191 5.5172 7.03993 5.97937 7.09395 6.51657C7.14797 7.05377 7.19298 7.49494 7.18998 7.49794C7.18698 7.50094 7.05193 7.47993 6.88687 7.45292C6.46671 7.3869 4.88813 7.38389 4.45597 7.45292C4.29091 7.47693 4.15286 7.49794 4.14986 7.49494C4.14686 7.49494 4.19187 7.04477 4.24889 6.50157C4.30291 5.95536 4.35093 5.49319 4.35093 5.47219C4.35093 5.44518 4.63604 5.43617 5.67142 5.43617C6.90788 5.43617 6.99191 5.43917 6.99191 5.48719ZM6.24763 8.44029C7.08794 8.49731 7.82022 8.67137 8.34541 8.93247C8.72655 9.12454 9.05367 9.38564 9.20073 9.61372L9.27275 9.72776V16.6303C9.27275 23.4669 9.27275 23.5359 9.21273 23.6529C9.14671 23.785 9.00866 23.899 8.8556 23.95C8.78057 23.974 7.88924 23.983 5.65041 23.983C2.9194 23.983 2.53526 23.977 2.43622 23.938C2.29517 23.878 2.20214 23.788 2.12111 23.6379L2.05508 23.5179L2.04608 16.6213L2.04008 9.72776L2.1121 9.58071C2.21714 9.37663 2.53226 9.09753 2.84437 8.93847C3.61866 8.53932 4.93315 8.34725 6.24763 8.44029Z" fill="black" fill-opacity="0.2"/>
<path d="M3.95178 1.03654C3.88576 1.06055 3.80173 1.11157 3.75971 1.15059C3.60365 1.29164 3.60065 1.33065 3.60065 2.50109C3.60065 3.50946 3.60666 3.59949 3.66068 3.71654C3.7207 3.84859 3.85275 3.95362 3.9998 3.98664C4.07783 4.00164 4.08083 4.00764 4.08083 4.20872V4.41579H3.91577C3.60365 4.41579 3.41158 4.58086 3.36957 4.88397C3.36056 4.965 3.28854 5.64325 3.21351 6.39053L3.07546 7.75003L2.74534 7.88208C1.94404 8.1972 1.42185 8.59034 1.18776 9.05851C1.00769 9.41565 1.0197 8.92346 1.0197 16.5613C1.0197 21.5221 1.0287 23.6049 1.05271 23.7189C1.16075 24.2381 1.53289 24.6763 2.07009 24.9164L2.23515 24.9884L5.59639 24.9974C8.87361 25.0034 8.96364 25.0034 9.15271 24.9464C9.65089 24.7933 10.035 24.4332 10.2271 23.935L10.3081 23.7279L10.3171 16.6633C10.3261 8.89045 10.3381 9.44866 10.1431 9.04951C10.0951 8.95047 9.99602 8.80042 9.927 8.72239C9.6599 8.41928 9.11069 8.07715 8.53148 7.85507C8.29439 7.76204 8.26738 7.74403 8.25838 7.666C8.25238 7.62098 8.18335 6.95173 8.10532 6.18345C7.94626 4.62887 7.94026 4.60787 7.72418 4.48482C7.64015 4.4368 7.55612 4.41579 7.43607 4.41579H7.26201V4.20572C7.26201 4.00764 7.26501 3.99564 7.33104 3.99564C7.36705 3.99564 7.53811 3.94762 7.71218 3.8906C8.3274 3.68352 9.06268 3.57849 10.3982 3.50646C10.6443 3.49145 10.7703 3.43743 10.8844 3.28438C10.9684 3.17634 10.9684 3.17033 10.9774 2.66915C10.9894 2.05392 10.9594 1.92787 10.7463 1.71479C10.4042 1.37567 9.71092 1.1956 8.25238 1.06655C7.45708 0.997528 4.11985 0.97352 3.95178 1.03654ZM6.45171 2.01491C7.52011 2.06592 8.73556 2.17997 9.46783 2.30301C9.83996 2.36604 9.96301 2.40205 9.96301 2.44707C9.96301 2.47408 9.88198 2.49208 9.6719 2.50709C8.81959 2.56711 7.92225 2.71716 7.42707 2.88223L7.15697 2.97526H5.90551H4.65104V2.49508V2.01791L4.85512 2.0059C5.30228 1.98489 5.83948 1.9879 6.45171 2.01491ZM6.24163 4.20572V4.41579H5.67142H5.10121V4.20572V3.99564H5.67142H6.24163V4.20572ZM6.99191 5.48719C6.99191 5.5172 7.03993 5.97937 7.09395 6.51657C7.14797 7.05377 7.19298 7.49494 7.18998 7.49794C7.18698 7.50094 7.05193 7.47993 6.88687 7.45292C6.46671 7.3869 4.88813 7.38389 4.45597 7.45292C4.29091 7.47693 4.15286 7.49794 4.14986 7.49494C4.14686 7.49494 4.19187 7.04477 4.24889 6.50157C4.30291 5.95536 4.35093 5.49319 4.35093 5.47219C4.35093 5.44518 4.63604 5.43617 5.67142 5.43617C6.90788 5.43617 6.99191 5.43917 6.99191 5.48719ZM6.24763 8.44029C7.08794 8.49731 7.82022 8.67137 8.34541 8.93247C8.72655 9.12454 9.05367 9.38564 9.20073 9.61372L9.27275 9.72776V16.6303C9.27275 23.4669 9.27275 23.5359 9.21273 23.6529C9.14671 23.785 9.00866 23.899 8.8556 23.95C8.78057 23.974 7.88924 23.983 5.65041 23.983C2.9194 23.983 2.53526 23.977 2.43622 23.938C2.29517 23.878 2.20214 23.788 2.12111 23.6379L2.05508 23.5179L2.04608 16.6213L2.04008 9.72776L2.1121 9.58071C2.21714 9.37663 2.53226 9.09753 2.84437 8.93847C3.61866 8.53932 4.93315 8.34725 6.24763 8.44029Z" fill="black" fill-opacity="0.2"/>
<path d="M3.95178 1.03654C3.88576 1.06055 3.80173 1.11157 3.75971 1.15059C3.60365 1.29164 3.60065 1.33065 3.60065 2.50109C3.60065 3.50946 3.60666 3.59949 3.66068 3.71654C3.7207 3.84859 3.85275 3.95362 3.9998 3.98664C4.07783 4.00164 4.08083 4.00764 4.08083 4.20872V4.41579H3.91577C3.60365 4.41579 3.41158 4.58086 3.36957 4.88397C3.36056 4.965 3.28854 5.64325 3.21351 6.39053L3.07546 7.75003L2.74534 7.88208C1.94404 8.1972 1.42185 8.59034 1.18776 9.05851C1.00769 9.41565 1.0197 8.92346 1.0197 16.5613C1.0197 21.5221 1.0287 23.6049 1.05271 23.7189C1.16075 24.2381 1.53289 24.6763 2.07009 24.9164L2.23515 24.9884L5.59639 24.9974C8.87361 25.0034 8.96364 25.0034 9.15271 24.9464C9.65089 24.7933 10.035 24.4332 10.2271 23.935L10.3081 23.7279L10.3171 16.6633C10.3261 8.89045 10.3381 9.44866 10.1431 9.04951C10.0951 8.95047 9.99602 8.80042 9.927 8.72239C9.6599 8.41928 9.11069 8.07715 8.53148 7.85507C8.29439 7.76204 8.26738 7.74403 8.25838 7.666C8.25238 7.62098 8.18335 6.95173 8.10532 6.18345C7.94626 4.62887 7.94026 4.60787 7.72418 4.48482C7.64015 4.4368 7.55612 4.41579 7.43607 4.41579H7.26201V4.20572C7.26201 4.00764 7.26501 3.99564 7.33104 3.99564C7.36705 3.99564 7.53811 3.94762 7.71218 3.8906C8.3274 3.68352 9.06268 3.57849 10.3982 3.50646C10.6443 3.49145 10.7703 3.43743 10.8844 3.28438C10.9684 3.17634 10.9684 3.17033 10.9774 2.66915C10.9894 2.05392 10.9594 1.92787 10.7463 1.71479C10.4042 1.37567 9.71092 1.1956 8.25238 1.06655C7.45708 0.997528 4.11985 0.97352 3.95178 1.03654ZM6.45171 2.01491C7.52011 2.06592 8.73556 2.17997 9.46783 2.30301C9.83996 2.36604 9.96301 2.40205 9.96301 2.44707C9.96301 2.47408 9.88198 2.49208 9.6719 2.50709C8.81959 2.56711 7.92225 2.71716 7.42707 2.88223L7.15697 2.97526H5.90551H4.65104V2.49508V2.01791L4.85512 2.0059C5.30228 1.98489 5.83948 1.9879 6.45171 2.01491ZM6.24163 4.20572V4.41579H5.67142H5.10121V4.20572V3.99564H5.67142H6.24163V4.20572ZM6.99191 5.48719C6.99191 5.5172 7.03993 5.97937 7.09395 6.51657C7.14797 7.05377 7.19298 7.49494 7.18998 7.49794C7.18698 7.50094 7.05193 7.47993 6.88687 7.45292C6.46671 7.3869 4.88813 7.38389 4.45597 7.45292C4.29091 7.47693 4.15286 7.49794 4.14986 7.49494C4.14686 7.49494 4.19187 7.04477 4.24889 6.50157C4.30291 5.95536 4.35093 5.49319 4.35093 5.47219C4.35093 5.44518 4.63604 5.43617 5.67142 5.43617C6.90788 5.43617 6.99191 5.43917 6.99191 5.48719ZM6.24763 8.44029C7.08794 8.49731 7.82022 8.67137 8.34541 8.93247C8.72655 9.12454 9.05367 9.38564 9.20073 9.61372L9.27275 9.72776V16.6303C9.27275 23.4669 9.27275 23.5359 9.21273 23.6529C9.14671 23.785 9.00866 23.899 8.8556 23.95C8.78057 23.974 7.88924 23.983 5.65041 23.983C2.9194 23.983 2.53526 23.977 2.43622 23.938C2.29517 23.878 2.20214 23.788 2.12111 23.6379L2.05508 23.5179L2.04608 16.6213L2.04008 9.72776L2.1121 9.58071C2.21714 9.37663 2.53226 9.09753 2.84437 8.93847C3.61866 8.53932 4.93315 8.34725 6.24763 8.44029Z" stroke="#345E40" stroke-width="0.6"/>
<path d="M3.95178 1.03654C3.88576 1.06055 3.80173 1.11157 3.75971 1.15059C3.60365 1.29164 3.60065 1.33065 3.60065 2.50109C3.60065 3.50946 3.60666 3.59949 3.66068 3.71654C3.7207 3.84859 3.85275 3.95362 3.9998 3.98664C4.07783 4.00164 4.08083 4.00764 4.08083 4.20872V4.41579H3.91577C3.60365 4.41579 3.41158 4.58086 3.36957 4.88397C3.36056 4.965 3.28854 5.64325 3.21351 6.39053L3.07546 7.75003L2.74534 7.88208C1.94404 8.1972 1.42185 8.59034 1.18776 9.05851C1.00769 9.41565 1.0197 8.92346 1.0197 16.5613C1.0197 21.5221 1.0287 23.6049 1.05271 23.7189C1.16075 24.2381 1.53289 24.6763 2.07009 24.9164L2.23515 24.9884L5.59639 24.9974C8.87361 25.0034 8.96364 25.0034 9.15271 24.9464C9.65089 24.7933 10.035 24.4332 10.2271 23.935L10.3081 23.7279L10.3171 16.6633C10.3261 8.89045 10.3381 9.44866 10.1431 9.04951C10.0951 8.95047 9.99602 8.80042 9.927 8.72239C9.6599 8.41928 9.11069 8.07715 8.53148 7.85507C8.29439 7.76204 8.26738 7.74403 8.25838 7.666C8.25238 7.62098 8.18335 6.95173 8.10532 6.18345C7.94626 4.62887 7.94026 4.60787 7.72418 4.48482C7.64015 4.4368 7.55612 4.41579 7.43607 4.41579H7.26201V4.20572C7.26201 4.00764 7.26501 3.99564 7.33104 3.99564C7.36705 3.99564 7.53811 3.94762 7.71218 3.8906C8.3274 3.68352 9.06268 3.57849 10.3982 3.50646C10.6443 3.49145 10.7703 3.43743 10.8844 3.28438C10.9684 3.17634 10.9684 3.17033 10.9774 2.66915C10.9894 2.05392 10.9594 1.92787 10.7463 1.71479C10.4042 1.37567 9.71092 1.1956 8.25238 1.06655C7.45708 0.997528 4.11985 0.97352 3.95178 1.03654ZM6.45171 2.01491C7.52011 2.06592 8.73556 2.17997 9.46783 2.30301C9.83996 2.36604 9.96301 2.40205 9.96301 2.44707C9.96301 2.47408 9.88198 2.49208 9.6719 2.50709C8.81959 2.56711 7.92225 2.71716 7.42707 2.88223L7.15697 2.97526H5.90551H4.65104V2.49508V2.01791L4.85512 2.0059C5.30228 1.98489 5.83948 1.9879 6.45171 2.01491ZM6.24163 4.20572V4.41579H5.67142H5.10121V4.20572V3.99564H5.67142H6.24163V4.20572ZM6.99191 5.48719C6.99191 5.5172 7.03993 5.97937 7.09395 6.51657C7.14797 7.05377 7.19298 7.49494 7.18998 7.49794C7.18698 7.50094 7.05193 7.47993 6.88687 7.45292C6.46671 7.3869 4.88813 7.38389 4.45597 7.45292C4.29091 7.47693 4.15286 7.49794 4.14986 7.49494C4.14686 7.49494 4.19187 7.04477 4.24889 6.50157C4.30291 5.95536 4.35093 5.49319 4.35093 5.47219C4.35093 5.44518 4.63604 5.43617 5.67142 5.43617C6.90788 5.43617 6.99191 5.43917 6.99191 5.48719ZM6.24763 8.44029C7.08794 8.49731 7.82022 8.67137 8.34541 8.93247C8.72655 9.12454 9.05367 9.38564 9.20073 9.61372L9.27275 9.72776V16.6303C9.27275 23.4669 9.27275 23.5359 9.21273 23.6529C9.14671 23.785 9.00866 23.899 8.8556 23.95C8.78057 23.974 7.88924 23.983 5.65041 23.983C2.9194 23.983 2.53526 23.977 2.43622 23.938C2.29517 23.878 2.20214 23.788 2.12111 23.6379L2.05508 23.5179L2.04608 16.6213L2.04008 9.72776L2.1121 9.58071C2.21714 9.37663 2.53226 9.09753 2.84437 8.93847C3.61866 8.53932 4.93315 8.34725 6.24763 8.44029Z" stroke="black" stroke-opacity="0.2" stroke-width="0.6"/>
<path d="M3.95178 1.03654C3.88576 1.06055 3.80173 1.11157 3.75971 1.15059C3.60365 1.29164 3.60065 1.33065 3.60065 2.50109C3.60065 3.50946 3.60666 3.59949 3.66068 3.71654C3.7207 3.84859 3.85275 3.95362 3.9998 3.98664C4.07783 4.00164 4.08083 4.00764 4.08083 4.20872V4.41579H3.91577C3.60365 4.41579 3.41158 4.58086 3.36957 4.88397C3.36056 4.965 3.28854 5.64325 3.21351 6.39053L3.07546 7.75003L2.74534 7.88208C1.94404 8.1972 1.42185 8.59034 1.18776 9.05851C1.00769 9.41565 1.0197 8.92346 1.0197 16.5613C1.0197 21.5221 1.0287 23.6049 1.05271 23.7189C1.16075 24.2381 1.53289 24.6763 2.07009 24.9164L2.23515 24.9884L5.59639 24.9974C8.87361 25.0034 8.96364 25.0034 9.15271 24.9464C9.65089 24.7933 10.035 24.4332 10.2271 23.935L10.3081 23.7279L10.3171 16.6633C10.3261 8.89045 10.3381 9.44866 10.1431 9.04951C10.0951 8.95047 9.99602 8.80042 9.927 8.72239C9.6599 8.41928 9.11069 8.07715 8.53148 7.85507C8.29439 7.76204 8.26738 7.74403 8.25838 7.666C8.25238 7.62098 8.18335 6.95173 8.10532 6.18345C7.94626 4.62887 7.94026 4.60787 7.72418 4.48482C7.64015 4.4368 7.55612 4.41579 7.43607 4.41579H7.26201V4.20572C7.26201 4.00764 7.26501 3.99564 7.33104 3.99564C7.36705 3.99564 7.53811 3.94762 7.71218 3.8906C8.3274 3.68352 9.06268 3.57849 10.3982 3.50646C10.6443 3.49145 10.7703 3.43743 10.8844 3.28438C10.9684 3.17634 10.9684 3.17033 10.9774 2.66915C10.9894 2.05392 10.9594 1.92787 10.7463 1.71479C10.4042 1.37567 9.71092 1.1956 8.25238 1.06655C7.45708 0.997528 4.11985 0.97352 3.95178 1.03654ZM6.45171 2.01491C7.52011 2.06592 8.73556 2.17997 9.46783 2.30301C9.83996 2.36604 9.96301 2.40205 9.96301 2.44707C9.96301 2.47408 9.88198 2.49208 9.6719 2.50709C8.81959 2.56711 7.92225 2.71716 7.42707 2.88223L7.15697 2.97526H5.90551H4.65104V2.49508V2.01791L4.85512 2.0059C5.30228 1.98489 5.83948 1.9879 6.45171 2.01491ZM6.24163 4.20572V4.41579H5.67142H5.10121V4.20572V3.99564H5.67142H6.24163V4.20572ZM6.99191 5.48719C6.99191 5.5172 7.03993 5.97937 7.09395 6.51657C7.14797 7.05377 7.19298 7.49494 7.18998 7.49794C7.18698 7.50094 7.05193 7.47993 6.88687 7.45292C6.46671 7.3869 4.88813 7.38389 4.45597 7.45292C4.29091 7.47693 4.15286 7.49794 4.14986 7.49494C4.14686 7.49494 4.19187 7.04477 4.24889 6.50157C4.30291 5.95536 4.35093 5.49319 4.35093 5.47219C4.35093 5.44518 4.63604 5.43617 5.67142 5.43617C6.90788 5.43617 6.99191 5.43917 6.99191 5.48719ZM6.24763 8.44029C7.08794 8.49731 7.82022 8.67137 8.34541 8.93247C8.72655 9.12454 9.05367 9.38564 9.20073 9.61372L9.27275 9.72776V16.6303C9.27275 23.4669 9.27275 23.5359 9.21273 23.6529C9.14671 23.785 9.00866 23.899 8.8556 23.95C8.78057 23.974 7.88924 23.983 5.65041 23.983C2.9194 23.983 2.53526 23.977 2.43622 23.938C2.29517 23.878 2.20214 23.788 2.12111 23.6379L2.05508 23.5179L2.04608 16.6213L2.04008 9.72776L2.1121 9.58071C2.21714 9.37663 2.53226 9.09753 2.84437 8.93847C3.61866 8.53932 4.93315 8.34725 6.24763 8.44029Z" stroke="black" stroke-opacity="0.2" stroke-width="0.6"/>
<path d="M3.95178 1.03654C3.88576 1.06055 3.80173 1.11157 3.75971 1.15059C3.60365 1.29164 3.60065 1.33065 3.60065 2.50109C3.60065 3.50946 3.60666 3.59949 3.66068 3.71654C3.7207 3.84859 3.85275 3.95362 3.9998 3.98664C4.07783 4.00164 4.08083 4.00764 4.08083 4.20872V4.41579H3.91577C3.60365 4.41579 3.41158 4.58086 3.36957 4.88397C3.36056 4.965 3.28854 5.64325 3.21351 6.39053L3.07546 7.75003L2.74534 7.88208C1.94404 8.1972 1.42185 8.59034 1.18776 9.05851C1.00769 9.41565 1.0197 8.92346 1.0197 16.5613C1.0197 21.5221 1.0287 23.6049 1.05271 23.7189C1.16075 24.2381 1.53289 24.6763 2.07009 24.9164L2.23515 24.9884L5.59639 24.9974C8.87361 25.0034 8.96364 25.0034 9.15271 24.9464C9.65089 24.7933 10.035 24.4332 10.2271 23.935L10.3081 23.7279L10.3171 16.6633C10.3261 8.89045 10.3381 9.44866 10.1431 9.04951C10.0951 8.95047 9.99602 8.80042 9.927 8.72239C9.6599 8.41928 9.11069 8.07715 8.53148 7.85507C8.29439 7.76204 8.26738 7.74403 8.25838 7.666C8.25238 7.62098 8.18335 6.95173 8.10532 6.18345C7.94626 4.62887 7.94026 4.60787 7.72418 4.48482C7.64015 4.4368 7.55612 4.41579 7.43607 4.41579H7.26201V4.20572C7.26201 4.00764 7.26501 3.99564 7.33104 3.99564C7.36705 3.99564 7.53811 3.94762 7.71218 3.8906C8.3274 3.68352 9.06268 3.57849 10.3982 3.50646C10.6443 3.49145 10.7703 3.43743 10.8844 3.28438C10.9684 3.17634 10.9684 3.17033 10.9774 2.66915C10.9894 2.05392 10.9594 1.92787 10.7463 1.71479C10.4042 1.37567 9.71092 1.1956 8.25238 1.06655C7.45708 0.997528 4.11985 0.97352 3.95178 1.03654ZM6.45171 2.01491C7.52011 2.06592 8.73556 2.17997 9.46783 2.30301C9.83996 2.36604 9.96301 2.40205 9.96301 2.44707C9.96301 2.47408 9.88198 2.49208 9.6719 2.50709C8.81959 2.56711 7.92225 2.71716 7.42707 2.88223L7.15697 2.97526H5.90551H4.65104V2.49508V2.01791L4.85512 2.0059C5.30228 1.98489 5.83948 1.9879 6.45171 2.01491ZM6.24163 4.20572V4.41579H5.67142H5.10121V4.20572V3.99564H5.67142H6.24163V4.20572ZM6.99191 5.48719C6.99191 5.5172 7.03993 5.97937 7.09395 6.51657C7.14797 7.05377 7.19298 7.49494 7.18998 7.49794C7.18698 7.50094 7.05193 7.47993 6.88687 7.45292C6.46671 7.3869 4.88813 7.38389 4.45597 7.45292C4.29091 7.47693 4.15286 7.49794 4.14986 7.49494C4.14686 7.49494 4.19187 7.04477 4.24889 6.50157C4.30291 5.95536 4.35093 5.49319 4.35093 5.47219C4.35093 5.44518 4.63604 5.43617 5.67142 5.43617C6.90788 5.43617 6.99191 5.43917 6.99191 5.48719ZM6.24763 8.44029C7.08794 8.49731 7.82022 8.67137 8.34541 8.93247C8.72655 9.12454 9.05367 9.38564 9.20073 9.61372L9.27275 9.72776V16.6303C9.27275 23.4669 9.27275 23.5359 9.21273 23.6529C9.14671 23.785 9.00866 23.899 8.8556 23.95C8.78057 23.974 7.88924 23.983 5.65041 23.983C2.9194 23.983 2.53526 23.977 2.43622 23.938C2.29517 23.878 2.20214 23.788 2.12111 23.6379L2.05508 23.5179L2.04608 16.6213L2.04008 9.72776L2.1121 9.58071C2.21714 9.37663 2.53226 9.09753 2.84437 8.93847C3.61866 8.53932 4.93315 8.34725 6.24763 8.44029Z" stroke="black" stroke-opacity="0.2" stroke-width="0.6"/>
<path d="M3.95178 1.03654C3.88576 1.06055 3.80173 1.11157 3.75971 1.15059C3.60365 1.29164 3.60065 1.33065 3.60065 2.50109C3.60065 3.50946 3.60666 3.59949 3.66068 3.71654C3.7207 3.84859 3.85275 3.95362 3.9998 3.98664C4.07783 4.00164 4.08083 4.00764 4.08083 4.20872V4.41579H3.91577C3.60365 4.41579 3.41158 4.58086 3.36957 4.88397C3.36056 4.965 3.28854 5.64325 3.21351 6.39053L3.07546 7.75003L2.74534 7.88208C1.94404 8.1972 1.42185 8.59034 1.18776 9.05851C1.00769 9.41565 1.0197 8.92346 1.0197 16.5613C1.0197 21.5221 1.0287 23.6049 1.05271 23.7189C1.16075 24.2381 1.53289 24.6763 2.07009 24.9164L2.23515 24.9884L5.59639 24.9974C8.87361 25.0034 8.96364 25.0034 9.15271 24.9464C9.65089 24.7933 10.035 24.4332 10.2271 23.935L10.3081 23.7279L10.3171 16.6633C10.3261 8.89045 10.3381 9.44866 10.1431 9.04951C10.0951 8.95047 9.99602 8.80042 9.927 8.72239C9.6599 8.41928 9.11069 8.07715 8.53148 7.85507C8.29439 7.76204 8.26738 7.74403 8.25838 7.666C8.25238 7.62098 8.18335 6.95173 8.10532 6.18345C7.94626 4.62887 7.94026 4.60787 7.72418 4.48482C7.64015 4.4368 7.55612 4.41579 7.43607 4.41579H7.26201V4.20572C7.26201 4.00764 7.26501 3.99564 7.33104 3.99564C7.36705 3.99564 7.53811 3.94762 7.71218 3.8906C8.3274 3.68352 9.06268 3.57849 10.3982 3.50646C10.6443 3.49145 10.7703 3.43743 10.8844 3.28438C10.9684 3.17634 10.9684 3.17033 10.9774 2.66915C10.9894 2.05392 10.9594 1.92787 10.7463 1.71479C10.4042 1.37567 9.71092 1.1956 8.25238 1.06655C7.45708 0.997528 4.11985 0.97352 3.95178 1.03654ZM6.45171 2.01491C7.52011 2.06592 8.73556 2.17997 9.46783 2.30301C9.83996 2.36604 9.96301 2.40205 9.96301 2.44707C9.96301 2.47408 9.88198 2.49208 9.6719 2.50709C8.81959 2.56711 7.92225 2.71716 7.42707 2.88223L7.15697 2.97526H5.90551H4.65104V2.49508V2.01791L4.85512 2.0059C5.30228 1.98489 5.83948 1.9879 6.45171 2.01491ZM6.24163 4.20572V4.41579H5.67142H5.10121V4.20572V3.99564H5.67142H6.24163V4.20572ZM6.99191 5.48719C6.99191 5.5172 7.03993 5.97937 7.09395 6.51657C7.14797 7.05377 7.19298 7.49494 7.18998 7.49794C7.18698 7.50094 7.05193 7.47993 6.88687 7.45292C6.46671 7.3869 4.88813 7.38389 4.45597 7.45292C4.29091 7.47693 4.15286 7.49794 4.14986 7.49494C4.14686 7.49494 4.19187 7.04477 4.24889 6.50157C4.30291 5.95536 4.35093 5.49319 4.35093 5.47219C4.35093 5.44518 4.63604 5.43617 5.67142 5.43617C6.90788 5.43617 6.99191 5.43917 6.99191 5.48719ZM6.24763 8.44029C7.08794 8.49731 7.82022 8.67137 8.34541 8.93247C8.72655 9.12454 9.05367 9.38564 9.20073 9.61372L9.27275 9.72776V16.6303C9.27275 23.4669 9.27275 23.5359 9.21273 23.6529C9.14671 23.785 9.00866 23.899 8.8556 23.95C8.78057 23.974 7.88924 23.983 5.65041 23.983C2.9194 23.983 2.53526 23.977 2.43622 23.938C2.29517 23.878 2.20214 23.788 2.12111 23.6379L2.05508 23.5179L2.04608 16.6213L2.04008 9.72776L2.1121 9.58071C2.21714 9.37663 2.53226 9.09753 2.84437 8.93847C3.61866 8.53932 4.93315 8.34725 6.24763 8.44029Z" stroke="black" stroke-opacity="0.2" stroke-width="0.6"/>
<path d="M3.0752 10.8232C2.92515 10.8772 2.8021 11.0093 2.76009 11.1653C2.73908 11.2464 2.73308 12.5639 2.73608 15.3729C2.74508 19.4514 2.74508 19.4664 2.8081 19.5865C2.84712 19.6615 2.91614 19.7275 3.00017 19.7725L3.12922 19.8416H5.66516C8.14108 19.8416 8.2071 19.8416 8.32715 19.7815C8.40818 19.7425 8.4772 19.6795 8.52522 19.5925L8.59725 19.4664V15.3099V11.1533L8.52822 11.0423C8.48921 10.9823 8.40818 10.9012 8.34816 10.8622L8.23711 10.7932L5.71618 10.7872C3.5974 10.7812 3.17724 10.7872 3.0752 10.8232ZM7.56186 15.3249V18.8212H5.67116H3.78046V15.3249V11.8286H5.67116H7.56186V15.3249Z" fill="#345E40"/>
<path d="M3.0752 10.8232C2.92515 10.8772 2.8021 11.0093 2.76009 11.1653C2.73908 11.2464 2.73308 12.5639 2.73608 15.3729C2.74508 19.4514 2.74508 19.4664 2.8081 19.5865C2.84712 19.6615 2.91614 19.7275 3.00017 19.7725L3.12922 19.8416H5.66516C8.14108 19.8416 8.2071 19.8416 8.32715 19.7815C8.40818 19.7425 8.4772 19.6795 8.52522 19.5925L8.59725 19.4664V15.3099V11.1533L8.52822 11.0423C8.48921 10.9823 8.40818 10.9012 8.34816 10.8622L8.23711 10.7932L5.71618 10.7872C3.5974 10.7812 3.17724 10.7872 3.0752 10.8232ZM7.56186 15.3249V18.8212H5.67116H3.78046V15.3249V11.8286H5.67116H7.56186V15.3249Z" fill="black" fill-opacity="0.2"/>
<path d="M3.0752 10.8232C2.92515 10.8772 2.8021 11.0093 2.76009 11.1653C2.73908 11.2464 2.73308 12.5639 2.73608 15.3729C2.74508 19.4514 2.74508 19.4664 2.8081 19.5865C2.84712 19.6615 2.91614 19.7275 3.00017 19.7725L3.12922 19.8416H5.66516C8.14108 19.8416 8.2071 19.8416 8.32715 19.7815C8.40818 19.7425 8.4772 19.6795 8.52522 19.5925L8.59725 19.4664V15.3099V11.1533L8.52822 11.0423C8.48921 10.9823 8.40818 10.9012 8.34816 10.8622L8.23711 10.7932L5.71618 10.7872C3.5974 10.7812 3.17724 10.7872 3.0752 10.8232ZM7.56186 15.3249V18.8212H5.67116H3.78046V15.3249V11.8286H5.67116H7.56186V15.3249Z" fill="black" fill-opacity="0.2"/>
<path d="M3.0752 10.8232C2.92515 10.8772 2.8021 11.0093 2.76009 11.1653C2.73908 11.2464 2.73308 12.5639 2.73608 15.3729C2.74508 19.4514 2.74508 19.4664 2.8081 19.5865C2.84712 19.6615 2.91614 19.7275 3.00017 19.7725L3.12922 19.8416H5.66516C8.14108 19.8416 8.2071 19.8416 8.32715 19.7815C8.40818 19.7425 8.4772 19.6795 8.52522 19.5925L8.59725 19.4664V15.3099V11.1533L8.52822 11.0423C8.48921 10.9823 8.40818 10.9012 8.34816 10.8622L8.23711 10.7932L5.71618 10.7872C3.5974 10.7812 3.17724 10.7872 3.0752 10.8232ZM7.56186 15.3249V18.8212H5.67116H3.78046V15.3249V11.8286H5.67116H7.56186V15.3249Z" fill="black" fill-opacity="0.2"/>
<path d="M3.0752 10.8232C2.92515 10.8772 2.8021 11.0093 2.76009 11.1653C2.73908 11.2464 2.73308 12.5639 2.73608 15.3729C2.74508 19.4514 2.74508 19.4664 2.8081 19.5865C2.84712 19.6615 2.91614 19.7275 3.00017 19.7725L3.12922 19.8416H5.66516C8.14108 19.8416 8.2071 19.8416 8.32715 19.7815C8.40818 19.7425 8.4772 19.6795 8.52522 19.5925L8.59725 19.4664V15.3099V11.1533L8.52822 11.0423C8.48921 10.9823 8.40818 10.9012 8.34816 10.8622L8.23711 10.7932L5.71618 10.7872C3.5974 10.7812 3.17724 10.7872 3.0752 10.8232ZM7.56186 15.3249V18.8212H5.67116H3.78046V15.3249V11.8286H5.67116H7.56186V15.3249Z" fill="black" fill-opacity="0.2"/>
<path d="M3.0752 10.8232C2.92515 10.8772 2.8021 11.0093 2.76009 11.1653C2.73908 11.2464 2.73308 12.5639 2.73608 15.3729C2.74508 19.4514 2.74508 19.4664 2.8081 19.5865C2.84712 19.6615 2.91614 19.7275 3.00017 19.7725L3.12922 19.8416H5.66516C8.14108 19.8416 8.2071 19.8416 8.32715 19.7815C8.40818 19.7425 8.4772 19.6795 8.52522 19.5925L8.59725 19.4664V15.3099V11.1533L8.52822 11.0423C8.48921 10.9823 8.40818 10.9012 8.34816 10.8622L8.23711 10.7932L5.71618 10.7872C3.5974 10.7812 3.17724 10.7872 3.0752 10.8232ZM7.56186 15.3249V18.8212H5.67116H3.78046V15.3249V11.8286H5.67116H7.56186V15.3249Z" stroke="#345E40" stroke-width="0.6"/>
<path d="M3.0752 10.8232C2.92515 10.8772 2.8021 11.0093 2.76009 11.1653C2.73908 11.2464 2.73308 12.5639 2.73608 15.3729C2.74508 19.4514 2.74508 19.4664 2.8081 19.5865C2.84712 19.6615 2.91614 19.7275 3.00017 19.7725L3.12922 19.8416H5.66516C8.14108 19.8416 8.2071 19.8416 8.32715 19.7815C8.40818 19.7425 8.4772 19.6795 8.52522 19.5925L8.59725 19.4664V15.3099V11.1533L8.52822 11.0423C8.48921 10.9823 8.40818 10.9012 8.34816 10.8622L8.23711 10.7932L5.71618 10.7872C3.5974 10.7812 3.17724 10.7872 3.0752 10.8232ZM7.56186 15.3249V18.8212H5.67116H3.78046V15.3249V11.8286H5.67116H7.56186V15.3249Z" stroke="black" stroke-opacity="0.2" stroke-width="0.6"/>
<path d="M3.0752 10.8232C2.92515 10.8772 2.8021 11.0093 2.76009 11.1653C2.73908 11.2464 2.73308 12.5639 2.73608 15.3729C2.74508 19.4514 2.74508 19.4664 2.8081 19.5865C2.84712 19.6615 2.91614 19.7275 3.00017 19.7725L3.12922 19.8416H5.66516C8.14108 19.8416 8.2071 19.8416 8.32715 19.7815C8.40818 19.7425 8.4772 19.6795 8.52522 19.5925L8.59725 19.4664V15.3099V11.1533L8.52822 11.0423C8.48921 10.9823 8.40818 10.9012 8.34816 10.8622L8.23711 10.7932L5.71618 10.7872C3.5974 10.7812 3.17724 10.7872 3.0752 10.8232ZM7.56186 15.3249V18.8212H5.67116H3.78046V15.3249V11.8286H5.67116H7.56186V15.3249Z" stroke="black" stroke-opacity="0.2" stroke-width="0.6"/>
<path d="M3.0752 10.8232C2.92515 10.8772 2.8021 11.0093 2.76009 11.1653C2.73908 11.2464 2.73308 12.5639 2.73608 15.3729C2.74508 19.4514 2.74508 19.4664 2.8081 19.5865C2.84712 19.6615 2.91614 19.7275 3.00017 19.7725L3.12922 19.8416H5.66516C8.14108 19.8416 8.2071 19.8416 8.32715 19.7815C8.40818 19.7425 8.4772 19.6795 8.52522 19.5925L8.59725 19.4664V15.3099V11.1533L8.52822 11.0423C8.48921 10.9823 8.40818 10.9012 8.34816 10.8622L8.23711 10.7932L5.71618 10.7872C3.5974 10.7812 3.17724 10.7872 3.0752 10.8232ZM7.56186 15.3249V18.8212H5.67116H3.78046V15.3249V11.8286H5.67116H7.56186V15.3249Z" stroke="black" stroke-opacity="0.2" stroke-width="0.6"/>
<path d="M3.0752 10.8232C2.92515 10.8772 2.8021 11.0093 2.76009 11.1653C2.73908 11.2464 2.73308 12.5639 2.73608 15.3729C2.74508 19.4514 2.74508 19.4664 2.8081 19.5865C2.84712 19.6615 2.91614 19.7275 3.00017 19.7725L3.12922 19.8416H5.66516C8.14108 19.8416 8.2071 19.8416 8.32715 19.7815C8.40818 19.7425 8.4772 19.6795 8.52522 19.5925L8.59725 19.4664V15.3099V11.1533L8.52822 11.0423C8.48921 10.9823 8.40818 10.9012 8.34816 10.8622L8.23711 10.7932L5.71618 10.7872C3.5974 10.7812 3.17724 10.7872 3.0752 10.8232ZM7.56186 15.3249V18.8212H5.67116H3.78046V15.3249V11.8286H5.67116H7.56186V15.3249Z" stroke="black" stroke-opacity="0.2" stroke-width="0.6"/>
</svg>
