<svg width="26" height="22" viewBox="0 0 26 22" fill="none" xmlns="http://www.w3.org/2000/svg">
<path d="M6.13078 0.792526C4.77964 1.04117 3.79444 1.54316 2.85614 2.4533C1.82402 3.45259 1.21413 4.68644 1.04524 6.09388C0.932644 7.04624 1.02647 7.85317 1.36895 8.8853C1.5613 9.45296 1.97884 10.912 2.77639 13.7879C2.84676 14.0459 3.05318 14.7825 3.23615 15.4299C3.41443 16.0726 3.82258 17.5223 4.13222 18.6435C4.78902 20.9986 4.80779 21.0503 4.9673 21.1769C5.08459 21.2661 5.15496 21.2708 7.35994 21.2708C9.84642 21.2708 9.83704 21.2708 9.95432 20.994C10.0012 20.8767 9.94963 20.2386 9.60715 16.8279C9.38666 14.6136 9.20369 12.7698 9.20369 12.7323C9.20369 12.676 9.40073 12.6244 10.0622 12.5071C12.8067 12.0051 16.2972 11.1231 18.2394 10.4382C19.3982 10.03 19.858 9.83297 20.0175 9.67815L20.1582 9.5421L20.1676 6.99464C20.1723 4.41903 20.1582 4.05309 20.0316 3.93111C19.8674 3.76691 18.4506 3.22739 17.0337 2.79109C14.3127 1.9607 10.5032 1.11155 8.05428 0.792526C7.39279 0.70808 6.59055 0.70808 6.13078 0.792526ZM8.21848 1.78242C10.5173 2.09675 14.2939 2.9506 16.8179 3.72938L17.273 3.87012V6.81636V9.7626L16.3722 10.0253C13.0132 11.0105 8.5375 11.9301 7.08784 11.9347C4.43247 11.9394 2.23218 9.9268 1.98822 7.28082C1.75365 4.75681 3.35813 2.49084 5.84929 1.82465C6.48733 1.65575 7.19574 1.64168 8.21848 1.78242ZM18.7086 4.3768L19.173 4.55508L19.1871 6.80698L19.1965 9.05888L18.9525 9.1574C18.8165 9.20901 18.5913 9.29345 18.4599 9.34975L18.2113 9.44827V6.82105C18.2113 5.37608 18.216 4.19383 18.2254 4.19383C18.2348 4.19383 18.4506 4.27359 18.7086 4.3768ZM3.49418 11.7236C3.67715 11.8691 4.08531 12.1083 4.39494 12.2631C5.49274 12.8027 6.49202 12.9762 7.81971 12.859L8.24194 12.8214L8.60787 16.4948C8.80961 18.5169 8.97381 20.2058 8.96912 20.248C8.96912 20.3278 8.85652 20.3325 7.28488 20.3325H5.60065L5.5725 20.2152C5.55842 20.1542 5.23471 19.0095 4.86409 17.6724C4.48877 16.3353 4.04308 14.7543 3.87888 14.1632C3.70999 13.5674 3.47542 12.7182 3.34875 12.2725C3.22208 11.8315 3.12825 11.4656 3.13763 11.4656C3.14701 11.4656 3.30652 11.5829 3.49418 11.7236Z" fill="#345E40"/>
<path d="M6.13078 0.792526C4.77964 1.04117 3.79444 1.54316 2.85614 2.4533C1.82402 3.45259 1.21413 4.68644 1.04524 6.09388C0.932644 7.04624 1.02647 7.85317 1.36895 8.8853C1.5613 9.45296 1.97884 10.912 2.77639 13.7879C2.84676 14.0459 3.05318 14.7825 3.23615 15.4299C3.41443 16.0726 3.82258 17.5223 4.13222 18.6435C4.78902 20.9986 4.80779 21.0503 4.9673 21.1769C5.08459 21.2661 5.15496 21.2708 7.35994 21.2708C9.84642 21.2708 9.83704 21.2708 9.95432 20.994C10.0012 20.8767 9.94963 20.2386 9.60715 16.8279C9.38666 14.6136 9.20369 12.7698 9.20369 12.7323C9.20369 12.676 9.40073 12.6244 10.0622 12.5071C12.8067 12.0051 16.2972 11.1231 18.2394 10.4382C19.3982 10.03 19.858 9.83297 20.0175 9.67815L20.1582 9.5421L20.1676 6.99464C20.1723 4.41903 20.1582 4.05309 20.0316 3.93111C19.8674 3.76691 18.4506 3.22739 17.0337 2.79109C14.3127 1.9607 10.5032 1.11155 8.05428 0.792526C7.39279 0.70808 6.59055 0.70808 6.13078 0.792526ZM8.21848 1.78242C10.5173 2.09675 14.2939 2.9506 16.8179 3.72938L17.273 3.87012V6.81636V9.7626L16.3722 10.0253C13.0132 11.0105 8.5375 11.9301 7.08784 11.9347C4.43247 11.9394 2.23218 9.9268 1.98822 7.28082C1.75365 4.75681 3.35813 2.49084 5.84929 1.82465C6.48733 1.65575 7.19574 1.64168 8.21848 1.78242ZM18.7086 4.3768L19.173 4.55508L19.1871 6.80698L19.1965 9.05888L18.9525 9.1574C18.8165 9.20901 18.5913 9.29345 18.4599 9.34975L18.2113 9.44827V6.82105C18.2113 5.37608 18.216 4.19383 18.2254 4.19383C18.2348 4.19383 18.4506 4.27359 18.7086 4.3768ZM3.49418 11.7236C3.67715 11.8691 4.08531 12.1083 4.39494 12.2631C5.49274 12.8027 6.49202 12.9762 7.81971 12.859L8.24194 12.8214L8.60787 16.4948C8.80961 18.5169 8.97381 20.2058 8.96912 20.248C8.96912 20.3278 8.85652 20.3325 7.28488 20.3325H5.60065L5.5725 20.2152C5.55842 20.1542 5.23471 19.0095 4.86409 17.6724C4.48877 16.3353 4.04308 14.7543 3.87888 14.1632C3.70999 13.5674 3.47542 12.7182 3.34875 12.2725C3.22208 11.8315 3.12825 11.4656 3.13763 11.4656C3.14701 11.4656 3.30652 11.5829 3.49418 11.7236Z" fill="black" fill-opacity="0.2"/>
<path d="M6.13078 0.792526C4.77964 1.04117 3.79444 1.54316 2.85614 2.4533C1.82402 3.45259 1.21413 4.68644 1.04524 6.09388C0.932644 7.04624 1.02647 7.85317 1.36895 8.8853C1.5613 9.45296 1.97884 10.912 2.77639 13.7879C2.84676 14.0459 3.05318 14.7825 3.23615 15.4299C3.41443 16.0726 3.82258 17.5223 4.13222 18.6435C4.78902 20.9986 4.80779 21.0503 4.9673 21.1769C5.08459 21.2661 5.15496 21.2708 7.35994 21.2708C9.84642 21.2708 9.83704 21.2708 9.95432 20.994C10.0012 20.8767 9.94963 20.2386 9.60715 16.8279C9.38666 14.6136 9.20369 12.7698 9.20369 12.7323C9.20369 12.676 9.40073 12.6244 10.0622 12.5071C12.8067 12.0051 16.2972 11.1231 18.2394 10.4382C19.3982 10.03 19.858 9.83297 20.0175 9.67815L20.1582 9.5421L20.1676 6.99464C20.1723 4.41903 20.1582 4.05309 20.0316 3.93111C19.8674 3.76691 18.4506 3.22739 17.0337 2.79109C14.3127 1.9607 10.5032 1.11155 8.05428 0.792526C7.39279 0.70808 6.59055 0.70808 6.13078 0.792526ZM8.21848 1.78242C10.5173 2.09675 14.2939 2.9506 16.8179 3.72938L17.273 3.87012V6.81636V9.7626L16.3722 10.0253C13.0132 11.0105 8.5375 11.9301 7.08784 11.9347C4.43247 11.9394 2.23218 9.9268 1.98822 7.28082C1.75365 4.75681 3.35813 2.49084 5.84929 1.82465C6.48733 1.65575 7.19574 1.64168 8.21848 1.78242ZM18.7086 4.3768L19.173 4.55508L19.1871 6.80698L19.1965 9.05888L18.9525 9.1574C18.8165 9.20901 18.5913 9.29345 18.4599 9.34975L18.2113 9.44827V6.82105C18.2113 5.37608 18.216 4.19383 18.2254 4.19383C18.2348 4.19383 18.4506 4.27359 18.7086 4.3768ZM3.49418 11.7236C3.67715 11.8691 4.08531 12.1083 4.39494 12.2631C5.49274 12.8027 6.49202 12.9762 7.81971 12.859L8.24194 12.8214L8.60787 16.4948C8.80961 18.5169 8.97381 20.2058 8.96912 20.248C8.96912 20.3278 8.85652 20.3325 7.28488 20.3325H5.60065L5.5725 20.2152C5.55842 20.1542 5.23471 19.0095 4.86409 17.6724C4.48877 16.3353 4.04308 14.7543 3.87888 14.1632C3.70999 13.5674 3.47542 12.7182 3.34875 12.2725C3.22208 11.8315 3.12825 11.4656 3.13763 11.4656C3.14701 11.4656 3.30652 11.5829 3.49418 11.7236Z" fill="black" fill-opacity="0.2"/>
<path d="M6.13078 0.792526C4.77964 1.04117 3.79444 1.54316 2.85614 2.4533C1.82402 3.45259 1.21413 4.68644 1.04524 6.09388C0.932644 7.04624 1.02647 7.85317 1.36895 8.8853C1.5613 9.45296 1.97884 10.912 2.77639 13.7879C2.84676 14.0459 3.05318 14.7825 3.23615 15.4299C3.41443 16.0726 3.82258 17.5223 4.13222 18.6435C4.78902 20.9986 4.80779 21.0503 4.9673 21.1769C5.08459 21.2661 5.15496 21.2708 7.35994 21.2708C9.84642 21.2708 9.83704 21.2708 9.95432 20.994C10.0012 20.8767 9.94963 20.2386 9.60715 16.8279C9.38666 14.6136 9.20369 12.7698 9.20369 12.7323C9.20369 12.676 9.40073 12.6244 10.0622 12.5071C12.8067 12.0051 16.2972 11.1231 18.2394 10.4382C19.3982 10.03 19.858 9.83297 20.0175 9.67815L20.1582 9.5421L20.1676 6.99464C20.1723 4.41903 20.1582 4.05309 20.0316 3.93111C19.8674 3.76691 18.4506 3.22739 17.0337 2.79109C14.3127 1.9607 10.5032 1.11155 8.05428 0.792526C7.39279 0.70808 6.59055 0.70808 6.13078 0.792526ZM8.21848 1.78242C10.5173 2.09675 14.2939 2.9506 16.8179 3.72938L17.273 3.87012V6.81636V9.7626L16.3722 10.0253C13.0132 11.0105 8.5375 11.9301 7.08784 11.9347C4.43247 11.9394 2.23218 9.9268 1.98822 7.28082C1.75365 4.75681 3.35813 2.49084 5.84929 1.82465C6.48733 1.65575 7.19574 1.64168 8.21848 1.78242ZM18.7086 4.3768L19.173 4.55508L19.1871 6.80698L19.1965 9.05888L18.9525 9.1574C18.8165 9.20901 18.5913 9.29345 18.4599 9.34975L18.2113 9.44827V6.82105C18.2113 5.37608 18.216 4.19383 18.2254 4.19383C18.2348 4.19383 18.4506 4.27359 18.7086 4.3768ZM3.49418 11.7236C3.67715 11.8691 4.08531 12.1083 4.39494 12.2631C5.49274 12.8027 6.49202 12.9762 7.81971 12.859L8.24194 12.8214L8.60787 16.4948C8.80961 18.5169 8.97381 20.2058 8.96912 20.248C8.96912 20.3278 8.85652 20.3325 7.28488 20.3325H5.60065L5.5725 20.2152C5.55842 20.1542 5.23471 19.0095 4.86409 17.6724C4.48877 16.3353 4.04308 14.7543 3.87888 14.1632C3.70999 13.5674 3.47542 12.7182 3.34875 12.2725C3.22208 11.8315 3.12825 11.4656 3.13763 11.4656C3.14701 11.4656 3.30652 11.5829 3.49418 11.7236Z" fill="black" fill-opacity="0.2"/>
<path d="M6.13078 0.792526C4.77964 1.04117 3.79444 1.54316 2.85614 2.4533C1.82402 3.45259 1.21413 4.68644 1.04524 6.09388C0.932644 7.04624 1.02647 7.85317 1.36895 8.8853C1.5613 9.45296 1.97884 10.912 2.77639 13.7879C2.84676 14.0459 3.05318 14.7825 3.23615 15.4299C3.41443 16.0726 3.82258 17.5223 4.13222 18.6435C4.78902 20.9986 4.80779 21.0503 4.9673 21.1769C5.08459 21.2661 5.15496 21.2708 7.35994 21.2708C9.84642 21.2708 9.83704 21.2708 9.95432 20.994C10.0012 20.8767 9.94963 20.2386 9.60715 16.8279C9.38666 14.6136 9.20369 12.7698 9.20369 12.7323C9.20369 12.676 9.40073 12.6244 10.0622 12.5071C12.8067 12.0051 16.2972 11.1231 18.2394 10.4382C19.3982 10.03 19.858 9.83297 20.0175 9.67815L20.1582 9.5421L20.1676 6.99464C20.1723 4.41903 20.1582 4.05309 20.0316 3.93111C19.8674 3.76691 18.4506 3.22739 17.0337 2.79109C14.3127 1.9607 10.5032 1.11155 8.05428 0.792526C7.39279 0.70808 6.59055 0.70808 6.13078 0.792526ZM8.21848 1.78242C10.5173 2.09675 14.2939 2.9506 16.8179 3.72938L17.273 3.87012V6.81636V9.7626L16.3722 10.0253C13.0132 11.0105 8.5375 11.9301 7.08784 11.9347C4.43247 11.9394 2.23218 9.9268 1.98822 7.28082C1.75365 4.75681 3.35813 2.49084 5.84929 1.82465C6.48733 1.65575 7.19574 1.64168 8.21848 1.78242ZM18.7086 4.3768L19.173 4.55508L19.1871 6.80698L19.1965 9.05888L18.9525 9.1574C18.8165 9.20901 18.5913 9.29345 18.4599 9.34975L18.2113 9.44827V6.82105C18.2113 5.37608 18.216 4.19383 18.2254 4.19383C18.2348 4.19383 18.4506 4.27359 18.7086 4.3768ZM3.49418 11.7236C3.67715 11.8691 4.08531 12.1083 4.39494 12.2631C5.49274 12.8027 6.49202 12.9762 7.81971 12.859L8.24194 12.8214L8.60787 16.4948C8.80961 18.5169 8.97381 20.2058 8.96912 20.248C8.96912 20.3278 8.85652 20.3325 7.28488 20.3325H5.60065L5.5725 20.2152C5.55842 20.1542 5.23471 19.0095 4.86409 17.6724C4.48877 16.3353 4.04308 14.7543 3.87888 14.1632C3.70999 13.5674 3.47542 12.7182 3.34875 12.2725C3.22208 11.8315 3.12825 11.4656 3.13763 11.4656C3.14701 11.4656 3.30652 11.5829 3.49418 11.7236Z" fill="black" fill-opacity="0.2"/>
<path d="M6.13078 0.792526C4.77964 1.04117 3.79444 1.54316 2.85614 2.4533C1.82402 3.45259 1.21413 4.68644 1.04524 6.09388C0.932644 7.04624 1.02647 7.85317 1.36895 8.8853C1.5613 9.45296 1.97884 10.912 2.77639 13.7879C2.84676 14.0459 3.05318 14.7825 3.23615 15.4299C3.41443 16.0726 3.82258 17.5223 4.13222 18.6435C4.78902 20.9986 4.80779 21.0503 4.9673 21.1769C5.08459 21.2661 5.15496 21.2708 7.35994 21.2708C9.84642 21.2708 9.83704 21.2708 9.95432 20.994C10.0012 20.8767 9.94963 20.2386 9.60715 16.8279C9.38666 14.6136 9.20369 12.7698 9.20369 12.7323C9.20369 12.676 9.40073 12.6244 10.0622 12.5071C12.8067 12.0051 16.2972 11.1231 18.2394 10.4382C19.3982 10.03 19.858 9.83297 20.0175 9.67815L20.1582 9.5421L20.1676 6.99464C20.1723 4.41903 20.1582 4.05309 20.0316 3.93111C19.8674 3.76691 18.4506 3.22739 17.0337 2.79109C14.3127 1.9607 10.5032 1.11155 8.05428 0.792526C7.39279 0.70808 6.59055 0.70808 6.13078 0.792526ZM8.21848 1.78242C10.5173 2.09675 14.2939 2.9506 16.8179 3.72938L17.273 3.87012V6.81636V9.7626L16.3722 10.0253C13.0132 11.0105 8.5375 11.9301 7.08784 11.9347C4.43247 11.9394 2.23218 9.9268 1.98822 7.28082C1.75365 4.75681 3.35813 2.49084 5.84929 1.82465C6.48733 1.65575 7.19574 1.64168 8.21848 1.78242ZM18.7086 4.3768L19.173 4.55508L19.1871 6.80698L19.1965 9.05888L18.9525 9.1574C18.8165 9.20901 18.5913 9.29345 18.4599 9.34975L18.2113 9.44827V6.82105C18.2113 5.37608 18.216 4.19383 18.2254 4.19383C18.2348 4.19383 18.4506 4.27359 18.7086 4.3768ZM3.49418 11.7236C3.67715 11.8691 4.08531 12.1083 4.39494 12.2631C5.49274 12.8027 6.49202 12.9762 7.81971 12.859L8.24194 12.8214L8.60787 16.4948C8.80961 18.5169 8.97381 20.2058 8.96912 20.248C8.96912 20.3278 8.85652 20.3325 7.28488 20.3325H5.60065L5.5725 20.2152C5.55842 20.1542 5.23471 19.0095 4.86409 17.6724C4.48877 16.3353 4.04308 14.7543 3.87888 14.1632C3.70999 13.5674 3.47542 12.7182 3.34875 12.2725C3.22208 11.8315 3.12825 11.4656 3.13763 11.4656C3.14701 11.4656 3.30652 11.5829 3.49418 11.7236Z" stroke="#345E40" stroke-width="0.6"/>
<path d="M6.13078 0.792526C4.77964 1.04117 3.79444 1.54316 2.85614 2.4533C1.82402 3.45259 1.21413 4.68644 1.04524 6.09388C0.932644 7.04624 1.02647 7.85317 1.36895 8.8853C1.5613 9.45296 1.97884 10.912 2.77639 13.7879C2.84676 14.0459 3.05318 14.7825 3.23615 15.4299C3.41443 16.0726 3.82258 17.5223 4.13222 18.6435C4.78902 20.9986 4.80779 21.0503 4.9673 21.1769C5.08459 21.2661 5.15496 21.2708 7.35994 21.2708C9.84642 21.2708 9.83704 21.2708 9.95432 20.994C10.0012 20.8767 9.94963 20.2386 9.60715 16.8279C9.38666 14.6136 9.20369 12.7698 9.20369 12.7323C9.20369 12.676 9.40073 12.6244 10.0622 12.5071C12.8067 12.0051 16.2972 11.1231 18.2394 10.4382C19.3982 10.03 19.858 9.83297 20.0175 9.67815L20.1582 9.5421L20.1676 6.99464C20.1723 4.41903 20.1582 4.05309 20.0316 3.93111C19.8674 3.76691 18.4506 3.22739 17.0337 2.79109C14.3127 1.9607 10.5032 1.11155 8.05428 0.792526C7.39279 0.70808 6.59055 0.70808 6.13078 0.792526ZM8.21848 1.78242C10.5173 2.09675 14.2939 2.9506 16.8179 3.72938L17.273 3.87012V6.81636V9.7626L16.3722 10.0253C13.0132 11.0105 8.5375 11.9301 7.08784 11.9347C4.43247 11.9394 2.23218 9.9268 1.98822 7.28082C1.75365 4.75681 3.35813 2.49084 5.84929 1.82465C6.48733 1.65575 7.19574 1.64168 8.21848 1.78242ZM18.7086 4.3768L19.173 4.55508L19.1871 6.80698L19.1965 9.05888L18.9525 9.1574C18.8165 9.20901 18.5913 9.29345 18.4599 9.34975L18.2113 9.44827V6.82105C18.2113 5.37608 18.216 4.19383 18.2254 4.19383C18.2348 4.19383 18.4506 4.27359 18.7086 4.3768ZM3.49418 11.7236C3.67715 11.8691 4.08531 12.1083 4.39494 12.2631C5.49274 12.8027 6.49202 12.9762 7.81971 12.859L8.24194 12.8214L8.60787 16.4948C8.80961 18.5169 8.97381 20.2058 8.96912 20.248C8.96912 20.3278 8.85652 20.3325 7.28488 20.3325H5.60065L5.5725 20.2152C5.55842 20.1542 5.23471 19.0095 4.86409 17.6724C4.48877 16.3353 4.04308 14.7543 3.87888 14.1632C3.70999 13.5674 3.47542 12.7182 3.34875 12.2725C3.22208 11.8315 3.12825 11.4656 3.13763 11.4656C3.14701 11.4656 3.30652 11.5829 3.49418 11.7236Z" stroke="black" stroke-opacity="0.2" stroke-width="0.6"/>
<path d="M6.13078 0.792526C4.77964 1.04117 3.79444 1.54316 2.85614 2.4533C1.82402 3.45259 1.21413 4.68644 1.04524 6.09388C0.932644 7.04624 1.02647 7.85317 1.36895 8.8853C1.5613 9.45296 1.97884 10.912 2.77639 13.7879C2.84676 14.0459 3.05318 14.7825 3.23615 15.4299C3.41443 16.0726 3.82258 17.5223 4.13222 18.6435C4.78902 20.9986 4.80779 21.0503 4.9673 21.1769C5.08459 21.2661 5.15496 21.2708 7.35994 21.2708C9.84642 21.2708 9.83704 21.2708 9.95432 20.994C10.0012 20.8767 9.94963 20.2386 9.60715 16.8279C9.38666 14.6136 9.20369 12.7698 9.20369 12.7323C9.20369 12.676 9.40073 12.6244 10.0622 12.5071C12.8067 12.0051 16.2972 11.1231 18.2394 10.4382C19.3982 10.03 19.858 9.83297 20.0175 9.67815L20.1582 9.5421L20.1676 6.99464C20.1723 4.41903 20.1582 4.05309 20.0316 3.93111C19.8674 3.76691 18.4506 3.22739 17.0337 2.79109C14.3127 1.9607 10.5032 1.11155 8.05428 0.792526C7.39279 0.70808 6.59055 0.70808 6.13078 0.792526ZM8.21848 1.78242C10.5173 2.09675 14.2939 2.9506 16.8179 3.72938L17.273 3.87012V6.81636V9.7626L16.3722 10.0253C13.0132 11.0105 8.5375 11.9301 7.08784 11.9347C4.43247 11.9394 2.23218 9.9268 1.98822 7.28082C1.75365 4.75681 3.35813 2.49084 5.84929 1.82465C6.48733 1.65575 7.19574 1.64168 8.21848 1.78242ZM18.7086 4.3768L19.173 4.55508L19.1871 6.80698L19.1965 9.05888L18.9525 9.1574C18.8165 9.20901 18.5913 9.29345 18.4599 9.34975L18.2113 9.44827V6.82105C18.2113 5.37608 18.216 4.19383 18.2254 4.19383C18.2348 4.19383 18.4506 4.27359 18.7086 4.3768ZM3.49418 11.7236C3.67715 11.8691 4.08531 12.1083 4.39494 12.2631C5.49274 12.8027 6.49202 12.9762 7.81971 12.859L8.24194 12.8214L8.60787 16.4948C8.80961 18.5169 8.97381 20.2058 8.96912 20.248C8.96912 20.3278 8.85652 20.3325 7.28488 20.3325H5.60065L5.5725 20.2152C5.55842 20.1542 5.23471 19.0095 4.86409 17.6724C4.48877 16.3353 4.04308 14.7543 3.87888 14.1632C3.70999 13.5674 3.47542 12.7182 3.34875 12.2725C3.22208 11.8315 3.12825 11.4656 3.13763 11.4656C3.14701 11.4656 3.30652 11.5829 3.49418 11.7236Z" stroke="black" stroke-opacity="0.2" stroke-width="0.6"/>
<path d="M6.13078 0.792526C4.77964 1.04117 3.79444 1.54316 2.85614 2.4533C1.82402 3.45259 1.21413 4.68644 1.04524 6.09388C0.932644 7.04624 1.02647 7.85317 1.36895 8.8853C1.5613 9.45296 1.97884 10.912 2.77639 13.7879C2.84676 14.0459 3.05318 14.7825 3.23615 15.4299C3.41443 16.0726 3.82258 17.5223 4.13222 18.6435C4.78902 20.9986 4.80779 21.0503 4.9673 21.1769C5.08459 21.2661 5.15496 21.2708 7.35994 21.2708C9.84642 21.2708 9.83704 21.2708 9.95432 20.994C10.0012 20.8767 9.94963 20.2386 9.60715 16.8279C9.38666 14.6136 9.20369 12.7698 9.20369 12.7323C9.20369 12.676 9.40073 12.6244 10.0622 12.5071C12.8067 12.0051 16.2972 11.1231 18.2394 10.4382C19.3982 10.03 19.858 9.83297 20.0175 9.67815L20.1582 9.5421L20.1676 6.99464C20.1723 4.41903 20.1582 4.05309 20.0316 3.93111C19.8674 3.76691 18.4506 3.22739 17.0337 2.79109C14.3127 1.9607 10.5032 1.11155 8.05428 0.792526C7.39279 0.70808 6.59055 0.70808 6.13078 0.792526ZM8.21848 1.78242C10.5173 2.09675 14.2939 2.9506 16.8179 3.72938L17.273 3.87012V6.81636V9.7626L16.3722 10.0253C13.0132 11.0105 8.5375 11.9301 7.08784 11.9347C4.43247 11.9394 2.23218 9.9268 1.98822 7.28082C1.75365 4.75681 3.35813 2.49084 5.84929 1.82465C6.48733 1.65575 7.19574 1.64168 8.21848 1.78242ZM18.7086 4.3768L19.173 4.55508L19.1871 6.80698L19.1965 9.05888L18.9525 9.1574C18.8165 9.20901 18.5913 9.29345 18.4599 9.34975L18.2113 9.44827V6.82105C18.2113 5.37608 18.216 4.19383 18.2254 4.19383C18.2348 4.19383 18.4506 4.27359 18.7086 4.3768ZM3.49418 11.7236C3.67715 11.8691 4.08531 12.1083 4.39494 12.2631C5.49274 12.8027 6.49202 12.9762 7.81971 12.859L8.24194 12.8214L8.60787 16.4948C8.80961 18.5169 8.97381 20.2058 8.96912 20.248C8.96912 20.3278 8.85652 20.3325 7.28488 20.3325H5.60065L5.5725 20.2152C5.55842 20.1542 5.23471 19.0095 4.86409 17.6724C4.48877 16.3353 4.04308 14.7543 3.87888 14.1632C3.70999 13.5674 3.47542 12.7182 3.34875 12.2725C3.22208 11.8315 3.12825 11.4656 3.13763 11.4656C3.14701 11.4656 3.30652 11.5829 3.49418 11.7236Z" stroke="black" stroke-opacity="0.2" stroke-width="0.6"/>
<path d="M6.13078 0.792526C4.77964 1.04117 3.79444 1.54316 2.85614 2.4533C1.82402 3.45259 1.21413 4.68644 1.04524 6.09388C0.932644 7.04624 1.02647 7.85317 1.36895 8.8853C1.5613 9.45296 1.97884 10.912 2.77639 13.7879C2.84676 14.0459 3.05318 14.7825 3.23615 15.4299C3.41443 16.0726 3.82258 17.5223 4.13222 18.6435C4.78902 20.9986 4.80779 21.0503 4.9673 21.1769C5.08459 21.2661 5.15496 21.2708 7.35994 21.2708C9.84642 21.2708 9.83704 21.2708 9.95432 20.994C10.0012 20.8767 9.94963 20.2386 9.60715 16.8279C9.38666 14.6136 9.20369 12.7698 9.20369 12.7323C9.20369 12.676 9.40073 12.6244 10.0622 12.5071C12.8067 12.0051 16.2972 11.1231 18.2394 10.4382C19.3982 10.03 19.858 9.83297 20.0175 9.67815L20.1582 9.5421L20.1676 6.99464C20.1723 4.41903 20.1582 4.05309 20.0316 3.93111C19.8674 3.76691 18.4506 3.22739 17.0337 2.79109C14.3127 1.9607 10.5032 1.11155 8.05428 0.792526C7.39279 0.70808 6.59055 0.70808 6.13078 0.792526ZM8.21848 1.78242C10.5173 2.09675 14.2939 2.9506 16.8179 3.72938L17.273 3.87012V6.81636V9.7626L16.3722 10.0253C13.0132 11.0105 8.5375 11.9301 7.08784 11.9347C4.43247 11.9394 2.23218 9.9268 1.98822 7.28082C1.75365 4.75681 3.35813 2.49084 5.84929 1.82465C6.48733 1.65575 7.19574 1.64168 8.21848 1.78242ZM18.7086 4.3768L19.173 4.55508L19.1871 6.80698L19.1965 9.05888L18.9525 9.1574C18.8165 9.20901 18.5913 9.29345 18.4599 9.34975L18.2113 9.44827V6.82105C18.2113 5.37608 18.216 4.19383 18.2254 4.19383C18.2348 4.19383 18.4506 4.27359 18.7086 4.3768ZM3.49418 11.7236C3.67715 11.8691 4.08531 12.1083 4.39494 12.2631C5.49274 12.8027 6.49202 12.9762 7.81971 12.859L8.24194 12.8214L8.60787 16.4948C8.80961 18.5169 8.97381 20.2058 8.96912 20.248C8.96912 20.3278 8.85652 20.3325 7.28488 20.3325H5.60065L5.5725 20.2152C5.55842 20.1542 5.23471 19.0095 4.86409 17.6724C4.48877 16.3353 4.04308 14.7543 3.87888 14.1632C3.70999 13.5674 3.47542 12.7182 3.34875 12.2725C3.22208 11.8315 3.12825 11.4656 3.13763 11.4656C3.14701 11.4656 3.30652 11.5829 3.49418 11.7236Z" stroke="black" stroke-opacity="0.2" stroke-width="0.6"/>
<path d="M6.55315 3.15704C6.07462 3.26963 5.83066 3.35877 5.47411 3.5605C4.60619 4.04841 3.94469 4.94448 3.71481 5.94845C3.62567 6.32846 3.6116 6.48797 3.63506 6.90551C3.6679 7.53417 3.75234 7.85788 4.01976 8.39271C4.58273 9.51866 5.60547 10.2271 6.89093 10.3866C8.46726 10.5836 10.0483 9.65002 10.6722 8.15344C10.8834 7.65146 10.9537 7.20108 10.9256 6.56773C10.8881 5.69981 10.6629 5.10399 10.1093 4.41435C9.65889 3.85137 8.87542 3.35408 8.16232 3.18518C7.6744 3.0679 6.98945 3.05382 6.55315 3.15704ZM7.98873 4.12817C9.38679 4.54571 10.2266 5.90623 9.93569 7.29021C9.57914 8.99321 7.74947 9.92212 6.15906 9.20902C5.38497 8.85716 4.80323 8.10653 4.62026 7.21984C4.4889 6.55365 4.64841 5.8124 5.06126 5.2119C5.40843 4.70053 5.99017 4.28768 6.59068 4.12348C6.93315 4.03434 7.66971 4.03434 7.98873 4.12817Z" fill="#345E40"/>
<path d="M6.55315 3.15704C6.07462 3.26963 5.83066 3.35877 5.47411 3.5605C4.60619 4.04841 3.94469 4.94448 3.71481 5.94845C3.62567 6.32846 3.6116 6.48797 3.63506 6.90551C3.6679 7.53417 3.75234 7.85788 4.01976 8.39271C4.58273 9.51866 5.60547 10.2271 6.89093 10.3866C8.46726 10.5836 10.0483 9.65002 10.6722 8.15344C10.8834 7.65146 10.9537 7.20108 10.9256 6.56773C10.8881 5.69981 10.6629 5.10399 10.1093 4.41435C9.65889 3.85137 8.87542 3.35408 8.16232 3.18518C7.6744 3.0679 6.98945 3.05382 6.55315 3.15704ZM7.98873 4.12817C9.38679 4.54571 10.2266 5.90623 9.93569 7.29021C9.57914 8.99321 7.74947 9.92212 6.15906 9.20902C5.38497 8.85716 4.80323 8.10653 4.62026 7.21984C4.4889 6.55365 4.64841 5.8124 5.06126 5.2119C5.40843 4.70053 5.99017 4.28768 6.59068 4.12348C6.93315 4.03434 7.66971 4.03434 7.98873 4.12817Z" fill="black" fill-opacity="0.2"/>
<path d="M6.55315 3.15704C6.07462 3.26963 5.83066 3.35877 5.47411 3.5605C4.60619 4.04841 3.94469 4.94448 3.71481 5.94845C3.62567 6.32846 3.6116 6.48797 3.63506 6.90551C3.6679 7.53417 3.75234 7.85788 4.01976 8.39271C4.58273 9.51866 5.60547 10.2271 6.89093 10.3866C8.46726 10.5836 10.0483 9.65002 10.6722 8.15344C10.8834 7.65146 10.9537 7.20108 10.9256 6.56773C10.8881 5.69981 10.6629 5.10399 10.1093 4.41435C9.65889 3.85137 8.87542 3.35408 8.16232 3.18518C7.6744 3.0679 6.98945 3.05382 6.55315 3.15704ZM7.98873 4.12817C9.38679 4.54571 10.2266 5.90623 9.93569 7.29021C9.57914 8.99321 7.74947 9.92212 6.15906 9.20902C5.38497 8.85716 4.80323 8.10653 4.62026 7.21984C4.4889 6.55365 4.64841 5.8124 5.06126 5.2119C5.40843 4.70053 5.99017 4.28768 6.59068 4.12348C6.93315 4.03434 7.66971 4.03434 7.98873 4.12817Z" fill="black" fill-opacity="0.2"/>
<path d="M6.55315 3.15704C6.07462 3.26963 5.83066 3.35877 5.47411 3.5605C4.60619 4.04841 3.94469 4.94448 3.71481 5.94845C3.62567 6.32846 3.6116 6.48797 3.63506 6.90551C3.6679 7.53417 3.75234 7.85788 4.01976 8.39271C4.58273 9.51866 5.60547 10.2271 6.89093 10.3866C8.46726 10.5836 10.0483 9.65002 10.6722 8.15344C10.8834 7.65146 10.9537 7.20108 10.9256 6.56773C10.8881 5.69981 10.6629 5.10399 10.1093 4.41435C9.65889 3.85137 8.87542 3.35408 8.16232 3.18518C7.6744 3.0679 6.98945 3.05382 6.55315 3.15704ZM7.98873 4.12817C9.38679 4.54571 10.2266 5.90623 9.93569 7.29021C9.57914 8.99321 7.74947 9.92212 6.15906 9.20902C5.38497 8.85716 4.80323 8.10653 4.62026 7.21984C4.4889 6.55365 4.64841 5.8124 5.06126 5.2119C5.40843 4.70053 5.99017 4.28768 6.59068 4.12348C6.93315 4.03434 7.66971 4.03434 7.98873 4.12817Z" fill="black" fill-opacity="0.2"/>
<path d="M6.55315 3.15704C6.07462 3.26963 5.83066 3.35877 5.47411 3.5605C4.60619 4.04841 3.94469 4.94448 3.71481 5.94845C3.62567 6.32846 3.6116 6.48797 3.63506 6.90551C3.6679 7.53417 3.75234 7.85788 4.01976 8.39271C4.58273 9.51866 5.60547 10.2271 6.89093 10.3866C8.46726 10.5836 10.0483 9.65002 10.6722 8.15344C10.8834 7.65146 10.9537 7.20108 10.9256 6.56773C10.8881 5.69981 10.6629 5.10399 10.1093 4.41435C9.65889 3.85137 8.87542 3.35408 8.16232 3.18518C7.6744 3.0679 6.98945 3.05382 6.55315 3.15704ZM7.98873 4.12817C9.38679 4.54571 10.2266 5.90623 9.93569 7.29021C9.57914 8.99321 7.74947 9.92212 6.15906 9.20902C5.38497 8.85716 4.80323 8.10653 4.62026 7.21984C4.4889 6.55365 4.64841 5.8124 5.06126 5.2119C5.40843 4.70053 5.99017 4.28768 6.59068 4.12348C6.93315 4.03434 7.66971 4.03434 7.98873 4.12817Z" fill="black" fill-opacity="0.2"/>
<path d="M6.55315 3.15704C6.07462 3.26963 5.83066 3.35877 5.47411 3.5605C4.60619 4.04841 3.94469 4.94448 3.71481 5.94845C3.62567 6.32846 3.6116 6.48797 3.63506 6.90551C3.6679 7.53417 3.75234 7.85788 4.01976 8.39271C4.58273 9.51866 5.60547 10.2271 6.89093 10.3866C8.46726 10.5836 10.0483 9.65002 10.6722 8.15344C10.8834 7.65146 10.9537 7.20108 10.9256 6.56773C10.8881 5.69981 10.6629 5.10399 10.1093 4.41435C9.65889 3.85137 8.87542 3.35408 8.16232 3.18518C7.6744 3.0679 6.98945 3.05382 6.55315 3.15704ZM7.98873 4.12817C9.38679 4.54571 10.2266 5.90623 9.93569 7.29021C9.57914 8.99321 7.74947 9.92212 6.15906 9.20902C5.38497 8.85716 4.80323 8.10653 4.62026 7.21984C4.4889 6.55365 4.64841 5.8124 5.06126 5.2119C5.40843 4.70053 5.99017 4.28768 6.59068 4.12348C6.93315 4.03434 7.66971 4.03434 7.98873 4.12817Z" stroke="#345E40" stroke-width="0.6"/>
<path d="M6.55315 3.15704C6.07462 3.26963 5.83066 3.35877 5.47411 3.5605C4.60619 4.04841 3.94469 4.94448 3.71481 5.94845C3.62567 6.32846 3.6116 6.48797 3.63506 6.90551C3.6679 7.53417 3.75234 7.85788 4.01976 8.39271C4.58273 9.51866 5.60547 10.2271 6.89093 10.3866C8.46726 10.5836 10.0483 9.65002 10.6722 8.15344C10.8834 7.65146 10.9537 7.20108 10.9256 6.56773C10.8881 5.69981 10.6629 5.10399 10.1093 4.41435C9.65889 3.85137 8.87542 3.35408 8.16232 3.18518C7.6744 3.0679 6.98945 3.05382 6.55315 3.15704ZM7.98873 4.12817C9.38679 4.54571 10.2266 5.90623 9.93569 7.29021C9.57914 8.99321 7.74947 9.92212 6.15906 9.20902C5.38497 8.85716 4.80323 8.10653 4.62026 7.21984C4.4889 6.55365 4.64841 5.8124 5.06126 5.2119C5.40843 4.70053 5.99017 4.28768 6.59068 4.12348C6.93315 4.03434 7.66971 4.03434 7.98873 4.12817Z" stroke="black" stroke-opacity="0.2" stroke-width="0.6"/>
<path d="M6.55315 3.15704C6.07462 3.26963 5.83066 3.35877 5.47411 3.5605C4.60619 4.04841 3.94469 4.94448 3.71481 5.94845C3.62567 6.32846 3.6116 6.48797 3.63506 6.90551C3.6679 7.53417 3.75234 7.85788 4.01976 8.39271C4.58273 9.51866 5.60547 10.2271 6.89093 10.3866C8.46726 10.5836 10.0483 9.65002 10.6722 8.15344C10.8834 7.65146 10.9537 7.20108 10.9256 6.56773C10.8881 5.69981 10.6629 5.10399 10.1093 4.41435C9.65889 3.85137 8.87542 3.35408 8.16232 3.18518C7.6744 3.0679 6.98945 3.05382 6.55315 3.15704ZM7.98873 4.12817C9.38679 4.54571 10.2266 5.90623 9.93569 7.29021C9.57914 8.99321 7.74947 9.92212 6.15906 9.20902C5.38497 8.85716 4.80323 8.10653 4.62026 7.21984C4.4889 6.55365 4.64841 5.8124 5.06126 5.2119C5.40843 4.70053 5.99017 4.28768 6.59068 4.12348C6.93315 4.03434 7.66971 4.03434 7.98873 4.12817Z" stroke="black" stroke-opacity="0.2" stroke-width="0.6"/>
<path d="M6.55315 3.15704C6.07462 3.26963 5.83066 3.35877 5.47411 3.5605C4.60619 4.04841 3.94469 4.94448 3.71481 5.94845C3.62567 6.32846 3.6116 6.48797 3.63506 6.90551C3.6679 7.53417 3.75234 7.85788 4.01976 8.39271C4.58273 9.51866 5.60547 10.2271 6.89093 10.3866C8.46726 10.5836 10.0483 9.65002 10.6722 8.15344C10.8834 7.65146 10.9537 7.20108 10.9256 6.56773C10.8881 5.69981 10.6629 5.10399 10.1093 4.41435C9.65889 3.85137 8.87542 3.35408 8.16232 3.18518C7.6744 3.0679 6.98945 3.05382 6.55315 3.15704ZM7.98873 4.12817C9.38679 4.54571 10.2266 5.90623 9.93569 7.29021C9.57914 8.99321 7.74947 9.92212 6.15906 9.20902C5.38497 8.85716 4.80323 8.10653 4.62026 7.21984C4.4889 6.55365 4.64841 5.8124 5.06126 5.2119C5.40843 4.70053 5.99017 4.28768 6.59068 4.12348C6.93315 4.03434 7.66971 4.03434 7.98873 4.12817Z" stroke="black" stroke-opacity="0.2" stroke-width="0.6"/>
<path d="M6.55315 3.15704C6.07462 3.26963 5.83066 3.35877 5.47411 3.5605C4.60619 4.04841 3.94469 4.94448 3.71481 5.94845C3.62567 6.32846 3.6116 6.48797 3.63506 6.90551C3.6679 7.53417 3.75234 7.85788 4.01976 8.39271C4.58273 9.51866 5.60547 10.2271 6.89093 10.3866C8.46726 10.5836 10.0483 9.65002 10.6722 8.15344C10.8834 7.65146 10.9537 7.20108 10.9256 6.56773C10.8881 5.69981 10.6629 5.10399 10.1093 4.41435C9.65889 3.85137 8.87542 3.35408 8.16232 3.18518C7.6744 3.0679 6.98945 3.05382 6.55315 3.15704ZM7.98873 4.12817C9.38679 4.54571 10.2266 5.90623 9.93569 7.29021C9.57914 8.99321 7.74947 9.92212 6.15906 9.20902C5.38497 8.85716 4.80323 8.10653 4.62026 7.21984C4.4889 6.55365 4.64841 5.8124 5.06126 5.2119C5.40843 4.70053 5.99017 4.28768 6.59068 4.12348C6.93315 4.03434 7.66971 4.03434 7.98873 4.12817Z" stroke="black" stroke-opacity="0.2" stroke-width="0.6"/>
<path d="M6.78709 5.07114C6.08807 5.28226 5.60015 5.89215 5.55324 6.60994C5.53447 6.91488 5.53917 6.94772 5.65645 7.06032C5.80658 7.21514 5.98955 7.25267 6.1772 7.17761C6.37425 7.09316 6.42585 7.0134 6.48215 6.72723C6.57129 6.25339 6.80586 6.00943 7.24217 5.95313C7.55649 5.90622 7.74884 5.73264 7.74884 5.48399C7.74884 5.26349 7.68785 5.1509 7.51427 5.06176C7.34538 4.97262 7.09204 4.97731 6.78709 5.07114Z" fill="#345E40"/>
<path d="M6.78709 5.07114C6.08807 5.28226 5.60015 5.89215 5.55324 6.60994C5.53447 6.91488 5.53917 6.94772 5.65645 7.06032C5.80658 7.21514 5.98955 7.25267 6.1772 7.17761C6.37425 7.09316 6.42585 7.0134 6.48215 6.72723C6.57129 6.25339 6.80586 6.00943 7.24217 5.95313C7.55649 5.90622 7.74884 5.73264 7.74884 5.48399C7.74884 5.26349 7.68785 5.1509 7.51427 5.06176C7.34538 4.97262 7.09204 4.97731 6.78709 5.07114Z" fill="black" fill-opacity="0.2"/>
<path d="M6.78709 5.07114C6.08807 5.28226 5.60015 5.89215 5.55324 6.60994C5.53447 6.91488 5.53917 6.94772 5.65645 7.06032C5.80658 7.21514 5.98955 7.25267 6.1772 7.17761C6.37425 7.09316 6.42585 7.0134 6.48215 6.72723C6.57129 6.25339 6.80586 6.00943 7.24217 5.95313C7.55649 5.90622 7.74884 5.73264 7.74884 5.48399C7.74884 5.26349 7.68785 5.1509 7.51427 5.06176C7.34538 4.97262 7.09204 4.97731 6.78709 5.07114Z" fill="black" fill-opacity="0.2"/>
<path d="M6.78709 5.07114C6.08807 5.28226 5.60015 5.89215 5.55324 6.60994C5.53447 6.91488 5.53917 6.94772 5.65645 7.06032C5.80658 7.21514 5.98955 7.25267 6.1772 7.17761C6.37425 7.09316 6.42585 7.0134 6.48215 6.72723C6.57129 6.25339 6.80586 6.00943 7.24217 5.95313C7.55649 5.90622 7.74884 5.73264 7.74884 5.48399C7.74884 5.26349 7.68785 5.1509 7.51427 5.06176C7.34538 4.97262 7.09204 4.97731 6.78709 5.07114Z" fill="black" fill-opacity="0.2"/>
<path d="M6.78709 5.07114C6.08807 5.28226 5.60015 5.89215 5.55324 6.60994C5.53447 6.91488 5.53917 6.94772 5.65645 7.06032C5.80658 7.21514 5.98955 7.25267 6.1772 7.17761C6.37425 7.09316 6.42585 7.0134 6.48215 6.72723C6.57129 6.25339 6.80586 6.00943 7.24217 5.95313C7.55649 5.90622 7.74884 5.73264 7.74884 5.48399C7.74884 5.26349 7.68785 5.1509 7.51427 5.06176C7.34538 4.97262 7.09204 4.97731 6.78709 5.07114Z" fill="black" fill-opacity="0.2"/>
<path d="M6.78709 5.07114C6.08807 5.28226 5.60015 5.89215 5.55324 6.60994C5.53447 6.91488 5.53917 6.94772 5.65645 7.06032C5.80658 7.21514 5.98955 7.25267 6.1772 7.17761C6.37425 7.09316 6.42585 7.0134 6.48215 6.72723C6.57129 6.25339 6.80586 6.00943 7.24217 5.95313C7.55649 5.90622 7.74884 5.73264 7.74884 5.48399C7.74884 5.26349 7.68785 5.1509 7.51427 5.06176C7.34538 4.97262 7.09204 4.97731 6.78709 5.07114Z" stroke="#345E40" stroke-width="0.6"/>
<path d="M6.78709 5.07114C6.08807 5.28226 5.60015 5.89215 5.55324 6.60994C5.53447 6.91488 5.53917 6.94772 5.65645 7.06032C5.80658 7.21514 5.98955 7.25267 6.1772 7.17761C6.37425 7.09316 6.42585 7.0134 6.48215 6.72723C6.57129 6.25339 6.80586 6.00943 7.24217 5.95313C7.55649 5.90622 7.74884 5.73264 7.74884 5.48399C7.74884 5.26349 7.68785 5.1509 7.51427 5.06176C7.34538 4.97262 7.09204 4.97731 6.78709 5.07114Z" stroke="black" stroke-opacity="0.2" stroke-width="0.6"/>
<path d="M6.78709 5.07114C6.08807 5.28226 5.60015 5.89215 5.55324 6.60994C5.53447 6.91488 5.53917 6.94772 5.65645 7.06032C5.80658 7.21514 5.98955 7.25267 6.1772 7.17761C6.37425 7.09316 6.42585 7.0134 6.48215 6.72723C6.57129 6.25339 6.80586 6.00943 7.24217 5.95313C7.55649 5.90622 7.74884 5.73264 7.74884 5.48399C7.74884 5.26349 7.68785 5.1509 7.51427 5.06176C7.34538 4.97262 7.09204 4.97731 6.78709 5.07114Z" stroke="black" stroke-opacity="0.2" stroke-width="0.6"/>
<path d="M6.78709 5.07114C6.08807 5.28226 5.60015 5.89215 5.55324 6.60994C5.53447 6.91488 5.53917 6.94772 5.65645 7.06032C5.80658 7.21514 5.98955 7.25267 6.1772 7.17761C6.37425 7.09316 6.42585 7.0134 6.48215 6.72723C6.57129 6.25339 6.80586 6.00943 7.24217 5.95313C7.55649 5.90622 7.74884 5.73264 7.74884 5.48399C7.74884 5.26349 7.68785 5.1509 7.51427 5.06176C7.34538 4.97262 7.09204 4.97731 6.78709 5.07114Z" stroke="black" stroke-opacity="0.2" stroke-width="0.6"/>
<path d="M6.78709 5.07114C6.08807 5.28226 5.60015 5.89215 5.55324 6.60994C5.53447 6.91488 5.53917 6.94772 5.65645 7.06032C5.80658 7.21514 5.98955 7.25267 6.1772 7.17761C6.37425 7.09316 6.42585 7.0134 6.48215 6.72723C6.57129 6.25339 6.80586 6.00943 7.24217 5.95313C7.55649 5.90622 7.74884 5.73264 7.74884 5.48399C7.74884 5.26349 7.68785 5.1509 7.51427 5.06176C7.34538 4.97262 7.09204 4.97731 6.78709 5.07114Z" stroke="black" stroke-opacity="0.2" stroke-width="0.6"/>
<path d="M6.96076 13.9287C6.73088 14.0272 6.65112 14.2524 6.71211 14.6464C6.78248 15.1015 7.00767 15.2845 7.35015 15.1719C7.57534 15.0968 7.65509 14.9467 7.65509 14.6042C7.65509 14.2993 7.55657 14.0225 7.42521 13.9568C7.2657 13.877 7.11088 13.8677 6.96076 13.9287Z" fill="#345E40"/>
<path d="M6.96076 13.9287C6.73088 14.0272 6.65112 14.2524 6.71211 14.6464C6.78248 15.1015 7.00767 15.2845 7.35015 15.1719C7.57534 15.0968 7.65509 14.9467 7.65509 14.6042C7.65509 14.2993 7.55657 14.0225 7.42521 13.9568C7.2657 13.877 7.11088 13.8677 6.96076 13.9287Z" fill="black" fill-opacity="0.2"/>
<path d="M6.96076 13.9287C6.73088 14.0272 6.65112 14.2524 6.71211 14.6464C6.78248 15.1015 7.00767 15.2845 7.35015 15.1719C7.57534 15.0968 7.65509 14.9467 7.65509 14.6042C7.65509 14.2993 7.55657 14.0225 7.42521 13.9568C7.2657 13.877 7.11088 13.8677 6.96076 13.9287Z" fill="black" fill-opacity="0.2"/>
<path d="M6.96076 13.9287C6.73088 14.0272 6.65112 14.2524 6.71211 14.6464C6.78248 15.1015 7.00767 15.2845 7.35015 15.1719C7.57534 15.0968 7.65509 14.9467 7.65509 14.6042C7.65509 14.2993 7.55657 14.0225 7.42521 13.9568C7.2657 13.877 7.11088 13.8677 6.96076 13.9287Z" fill="black" fill-opacity="0.2"/>
<path d="M6.96076 13.9287C6.73088 14.0272 6.65112 14.2524 6.71211 14.6464C6.78248 15.1015 7.00767 15.2845 7.35015 15.1719C7.57534 15.0968 7.65509 14.9467 7.65509 14.6042C7.65509 14.2993 7.55657 14.0225 7.42521 13.9568C7.2657 13.877 7.11088 13.8677 6.96076 13.9287Z" fill="black" fill-opacity="0.2"/>
<path d="M6.96076 13.9287C6.73088 14.0272 6.65112 14.2524 6.71211 14.6464C6.78248 15.1015 7.00767 15.2845 7.35015 15.1719C7.57534 15.0968 7.65509 14.9467 7.65509 14.6042C7.65509 14.2993 7.55657 14.0225 7.42521 13.9568C7.2657 13.877 7.11088 13.8677 6.96076 13.9287Z" stroke="#345E40" stroke-width="0.6"/>
<path d="M6.96076 13.9287C6.73088 14.0272 6.65112 14.2524 6.71211 14.6464C6.78248 15.1015 7.00767 15.2845 7.35015 15.1719C7.57534 15.0968 7.65509 14.9467 7.65509 14.6042C7.65509 14.2993 7.55657 14.0225 7.42521 13.9568C7.2657 13.877 7.11088 13.8677 6.96076 13.9287Z" stroke="black" stroke-opacity="0.2" stroke-width="0.6"/>
<path d="M6.96076 13.9287C6.73088 14.0272 6.65112 14.2524 6.71211 14.6464C6.78248 15.1015 7.00767 15.2845 7.35015 15.1719C7.57534 15.0968 7.65509 14.9467 7.65509 14.6042C7.65509 14.2993 7.55657 14.0225 7.42521 13.9568C7.2657 13.877 7.11088 13.8677 6.96076 13.9287Z" stroke="black" stroke-opacity="0.2" stroke-width="0.6"/>
<path d="M6.96076 13.9287C6.73088 14.0272 6.65112 14.2524 6.71211 14.6464C6.78248 15.1015 7.00767 15.2845 7.35015 15.1719C7.57534 15.0968 7.65509 14.9467 7.65509 14.6042C7.65509 14.2993 7.55657 14.0225 7.42521 13.9568C7.2657 13.877 7.11088 13.8677 6.96076 13.9287Z" stroke="black" stroke-opacity="0.2" stroke-width="0.6"/>
<path d="M6.96076 13.9287C6.73088 14.0272 6.65112 14.2524 6.71211 14.6464C6.78248 15.1015 7.00767 15.2845 7.35015 15.1719C7.57534 15.0968 7.65509 14.9467 7.65509 14.6042C7.65509 14.2993 7.55657 14.0225 7.42521 13.9568C7.2657 13.877 7.11088 13.8677 6.96076 13.9287Z" stroke="black" stroke-opacity="0.2" stroke-width="0.6"/>
<path d="M7.13054 16.1899C6.89127 16.34 6.88189 16.4291 6.99449 17.602C7.13992 19.0986 7.13523 19.0704 7.28536 19.2159C7.47302 19.4082 7.7545 19.3988 7.94216 19.2018C8.03599 19.1033 8.07821 19.0047 8.07821 18.9062C8.07821 18.5497 7.84364 16.4901 7.79203 16.3728C7.67944 16.1289 7.36511 16.0444 7.13054 16.1899Z" fill="#345E40"/>
<path d="M7.13054 16.1899C6.89127 16.34 6.88189 16.4291 6.99449 17.602C7.13992 19.0986 7.13523 19.0704 7.28536 19.2159C7.47302 19.4082 7.7545 19.3988 7.94216 19.2018C8.03599 19.1033 8.07821 19.0047 8.07821 18.9062C8.07821 18.5497 7.84364 16.4901 7.79203 16.3728C7.67944 16.1289 7.36511 16.0444 7.13054 16.1899Z" fill="black" fill-opacity="0.2"/>
<path d="M7.13054 16.1899C6.89127 16.34 6.88189 16.4291 6.99449 17.602C7.13992 19.0986 7.13523 19.0704 7.28536 19.2159C7.47302 19.4082 7.7545 19.3988 7.94216 19.2018C8.03599 19.1033 8.07821 19.0047 8.07821 18.9062C8.07821 18.5497 7.84364 16.4901 7.79203 16.3728C7.67944 16.1289 7.36511 16.0444 7.13054 16.1899Z" fill="black" fill-opacity="0.2"/>
<path d="M7.13054 16.1899C6.89127 16.34 6.88189 16.4291 6.99449 17.602C7.13992 19.0986 7.13523 19.0704 7.28536 19.2159C7.47302 19.4082 7.7545 19.3988 7.94216 19.2018C8.03599 19.1033 8.07821 19.0047 8.07821 18.9062C8.07821 18.5497 7.84364 16.4901 7.79203 16.3728C7.67944 16.1289 7.36511 16.0444 7.13054 16.1899Z" fill="black" fill-opacity="0.2"/>
<path d="M7.13054 16.1899C6.89127 16.34 6.88189 16.4291 6.99449 17.602C7.13992 19.0986 7.13523 19.0704 7.28536 19.2159C7.47302 19.4082 7.7545 19.3988 7.94216 19.2018C8.03599 19.1033 8.07821 19.0047 8.07821 18.9062C8.07821 18.5497 7.84364 16.4901 7.79203 16.3728C7.67944 16.1289 7.36511 16.0444 7.13054 16.1899Z" fill="black" fill-opacity="0.2"/>
<path d="M7.13054 16.1899C6.89127 16.34 6.88189 16.4291 6.99449 17.602C7.13992 19.0986 7.13523 19.0704 7.28536 19.2159C7.47302 19.4082 7.7545 19.3988 7.94216 19.2018C8.03599 19.1033 8.07821 19.0047 8.07821 18.9062C8.07821 18.5497 7.84364 16.4901 7.79203 16.3728C7.67944 16.1289 7.36511 16.0444 7.13054 16.1899Z" stroke="#345E40" stroke-width="0.6"/>
<path d="M7.13054 16.1899C6.89127 16.34 6.88189 16.4291 6.99449 17.602C7.13992 19.0986 7.13523 19.0704 7.28536 19.2159C7.47302 19.4082 7.7545 19.3988 7.94216 19.2018C8.03599 19.1033 8.07821 19.0047 8.07821 18.9062C8.07821 18.5497 7.84364 16.4901 7.79203 16.3728C7.67944 16.1289 7.36511 16.0444 7.13054 16.1899Z" stroke="black" stroke-opacity="0.2" stroke-width="0.6"/>
<path d="M7.13054 16.1899C6.89127 16.34 6.88189 16.4291 6.99449 17.602C7.13992 19.0986 7.13523 19.0704 7.28536 19.2159C7.47302 19.4082 7.7545 19.3988 7.94216 19.2018C8.03599 19.1033 8.07821 19.0047 8.07821 18.9062C8.07821 18.5497 7.84364 16.4901 7.79203 16.3728C7.67944 16.1289 7.36511 16.0444 7.13054 16.1899Z" stroke="black" stroke-opacity="0.2" stroke-width="0.6"/>
<path d="M7.13054 16.1899C6.89127 16.34 6.88189 16.4291 6.99449 17.602C7.13992 19.0986 7.13523 19.0704 7.28536 19.2159C7.47302 19.4082 7.7545 19.3988 7.94216 19.2018C8.03599 19.1033 8.07821 19.0047 8.07821 18.9062C8.07821 18.5497 7.84364 16.4901 7.79203 16.3728C7.67944 16.1289 7.36511 16.0444 7.13054 16.1899Z" stroke="black" stroke-opacity="0.2" stroke-width="0.6"/>
<path d="M7.13054 16.1899C6.89127 16.34 6.88189 16.4291 6.99449 17.602C7.13992 19.0986 7.13523 19.0704 7.28536 19.2159C7.47302 19.4082 7.7545 19.3988 7.94216 19.2018C8.03599 19.1033 8.07821 19.0047 8.07821 18.9062C8.07821 18.5497 7.84364 16.4901 7.79203 16.3728C7.67944 16.1289 7.36511 16.0444 7.13054 16.1899Z" stroke="black" stroke-opacity="0.2" stroke-width="0.6"/>
<path d="M21.932 5.07112C21.8757 5.08051 21.7772 5.14619 21.7115 5.21187C21.4534 5.4699 21.613 5.93435 21.9836 6.00003C22.0633 6.0188 22.7014 6.02349 23.4051 6.01411C24.6155 6.00003 24.6859 5.99534 24.8125 5.90151C24.9955 5.76077 25.0518 5.54496 24.9486 5.33854C24.8172 5.05705 24.714 5.03828 23.2925 5.04298C22.6028 5.04767 21.9883 5.06174 21.932 5.07112Z" fill="#345E40"/>
<path d="M21.932 5.07112C21.8757 5.08051 21.7772 5.14619 21.7115 5.21187C21.4534 5.4699 21.613 5.93435 21.9836 6.00003C22.0633 6.0188 22.7014 6.02349 23.4051 6.01411C24.6155 6.00003 24.6859 5.99534 24.8125 5.90151C24.9955 5.76077 25.0518 5.54496 24.9486 5.33854C24.8172 5.05705 24.714 5.03828 23.2925 5.04298C22.6028 5.04767 21.9883 5.06174 21.932 5.07112Z" fill="black" fill-opacity="0.2"/>
<path d="M21.932 5.07112C21.8757 5.08051 21.7772 5.14619 21.7115 5.21187C21.4534 5.4699 21.613 5.93435 21.9836 6.00003C22.0633 6.0188 22.7014 6.02349 23.4051 6.01411C24.6155 6.00003 24.6859 5.99534 24.8125 5.90151C24.9955 5.76077 25.0518 5.54496 24.9486 5.33854C24.8172 5.05705 24.714 5.03828 23.2925 5.04298C22.6028 5.04767 21.9883 5.06174 21.932 5.07112Z" fill="black" fill-opacity="0.2"/>
<path d="M21.932 5.07112C21.8757 5.08051 21.7772 5.14619 21.7115 5.21187C21.4534 5.4699 21.613 5.93435 21.9836 6.00003C22.0633 6.0188 22.7014 6.02349 23.4051 6.01411C24.6155 6.00003 24.6859 5.99534 24.8125 5.90151C24.9955 5.76077 25.0518 5.54496 24.9486 5.33854C24.8172 5.05705 24.714 5.03828 23.2925 5.04298C22.6028 5.04767 21.9883 5.06174 21.932 5.07112Z" fill="black" fill-opacity="0.2"/>
<path d="M21.932 5.07112C21.8757 5.08051 21.7772 5.14619 21.7115 5.21187C21.4534 5.4699 21.613 5.93435 21.9836 6.00003C22.0633 6.0188 22.7014 6.02349 23.4051 6.01411C24.6155 6.00003 24.6859 5.99534 24.8125 5.90151C24.9955 5.76077 25.0518 5.54496 24.9486 5.33854C24.8172 5.05705 24.714 5.03828 23.2925 5.04298C22.6028 5.04767 21.9883 5.06174 21.932 5.07112Z" fill="black" fill-opacity="0.2"/>
<path d="M21.932 5.07112C21.8757 5.08051 21.7772 5.14619 21.7115 5.21187C21.4534 5.4699 21.613 5.93435 21.9836 6.00003C22.0633 6.0188 22.7014 6.02349 23.4051 6.01411C24.6155 6.00003 24.6859 5.99534 24.8125 5.90151C24.9955 5.76077 25.0518 5.54496 24.9486 5.33854C24.8172 5.05705 24.714 5.03828 23.2925 5.04298C22.6028 5.04767 21.9883 5.06174 21.932 5.07112Z" stroke="#345E40" stroke-width="0.6"/>
<path d="M21.932 5.07112C21.8757 5.08051 21.7772 5.14619 21.7115 5.21187C21.4534 5.4699 21.613 5.93435 21.9836 6.00003C22.0633 6.0188 22.7014 6.02349 23.4051 6.01411C24.6155 6.00003 24.6859 5.99534 24.8125 5.90151C24.9955 5.76077 25.0518 5.54496 24.9486 5.33854C24.8172 5.05705 24.714 5.03828 23.2925 5.04298C22.6028 5.04767 21.9883 5.06174 21.932 5.07112Z" stroke="black" stroke-opacity="0.2" stroke-width="0.6"/>
<path d="M21.932 5.07112C21.8757 5.08051 21.7772 5.14619 21.7115 5.21187C21.4534 5.4699 21.613 5.93435 21.9836 6.00003C22.0633 6.0188 22.7014 6.02349 23.4051 6.01411C24.6155 6.00003 24.6859 5.99534 24.8125 5.90151C24.9955 5.76077 25.0518 5.54496 24.9486 5.33854C24.8172 5.05705 24.714 5.03828 23.2925 5.04298C22.6028 5.04767 21.9883 5.06174 21.932 5.07112Z" stroke="black" stroke-opacity="0.2" stroke-width="0.6"/>
<path d="M21.932 5.07112C21.8757 5.08051 21.7772 5.14619 21.7115 5.21187C21.4534 5.4699 21.613 5.93435 21.9836 6.00003C22.0633 6.0188 22.7014 6.02349 23.4051 6.01411C24.6155 6.00003 24.6859 5.99534 24.8125 5.90151C24.9955 5.76077 25.0518 5.54496 24.9486 5.33854C24.8172 5.05705 24.714 5.03828 23.2925 5.04298C22.6028 5.04767 21.9883 5.06174 21.932 5.07112Z" stroke="black" stroke-opacity="0.2" stroke-width="0.6"/>
<path d="M21.932 5.07112C21.8757 5.08051 21.7772 5.14619 21.7115 5.21187C21.4534 5.4699 21.613 5.93435 21.9836 6.00003C22.0633 6.0188 22.7014 6.02349 23.4051 6.01411C24.6155 6.00003 24.6859 5.99534 24.8125 5.90151C24.9955 5.76077 25.0518 5.54496 24.9486 5.33854C24.8172 5.05705 24.714 5.03828 23.2925 5.04298C22.6028 5.04767 21.9883 5.06174 21.932 5.07112Z" stroke="black" stroke-opacity="0.2" stroke-width="0.6"/>
<path d="M21.9314 7.36999C21.6264 7.43098 21.481 7.83445 21.6686 8.12062C21.7906 8.30828 21.997 8.32705 23.381 8.31297C24.6149 8.2989 24.6852 8.29421 24.8119 8.20038C24.9996 8.05964 25.0559 7.81568 24.9386 7.61395C24.7885 7.36061 24.6665 7.34184 23.2778 7.34653C22.5929 7.34653 21.9877 7.36061 21.9314 7.36999Z" fill="#345E40"/>
<path d="M21.9314 7.36999C21.6264 7.43098 21.481 7.83445 21.6686 8.12062C21.7906 8.30828 21.997 8.32705 23.381 8.31297C24.6149 8.2989 24.6852 8.29421 24.8119 8.20038C24.9996 8.05964 25.0559 7.81568 24.9386 7.61395C24.7885 7.36061 24.6665 7.34184 23.2778 7.34653C22.5929 7.34653 21.9877 7.36061 21.9314 7.36999Z" fill="black" fill-opacity="0.2"/>
<path d="M21.9314 7.36999C21.6264 7.43098 21.481 7.83445 21.6686 8.12062C21.7906 8.30828 21.997 8.32705 23.381 8.31297C24.6149 8.2989 24.6852 8.29421 24.8119 8.20038C24.9996 8.05964 25.0559 7.81568 24.9386 7.61395C24.7885 7.36061 24.6665 7.34184 23.2778 7.34653C22.5929 7.34653 21.9877 7.36061 21.9314 7.36999Z" fill="black" fill-opacity="0.2"/>
<path d="M21.9314 7.36999C21.6264 7.43098 21.481 7.83445 21.6686 8.12062C21.7906 8.30828 21.997 8.32705 23.381 8.31297C24.6149 8.2989 24.6852 8.29421 24.8119 8.20038C24.9996 8.05964 25.0559 7.81568 24.9386 7.61395C24.7885 7.36061 24.6665 7.34184 23.2778 7.34653C22.5929 7.34653 21.9877 7.36061 21.9314 7.36999Z" fill="black" fill-opacity="0.2"/>
<path d="M21.9314 7.36999C21.6264 7.43098 21.481 7.83445 21.6686 8.12062C21.7906 8.30828 21.997 8.32705 23.381 8.31297C24.6149 8.2989 24.6852 8.29421 24.8119 8.20038C24.9996 8.05964 25.0559 7.81568 24.9386 7.61395C24.7885 7.36061 24.6665 7.34184 23.2778 7.34653C22.5929 7.34653 21.9877 7.36061 21.9314 7.36999Z" fill="black" fill-opacity="0.2"/>
<path d="M21.9314 7.36999C21.6264 7.43098 21.481 7.83445 21.6686 8.12062C21.7906 8.30828 21.997 8.32705 23.381 8.31297C24.6149 8.2989 24.6852 8.29421 24.8119 8.20038C24.9996 8.05964 25.0559 7.81568 24.9386 7.61395C24.7885 7.36061 24.6665 7.34184 23.2778 7.34653C22.5929 7.34653 21.9877 7.36061 21.9314 7.36999Z" stroke="#345E40" stroke-width="0.6"/>
<path d="M21.9314 7.36999C21.6264 7.43098 21.481 7.83445 21.6686 8.12062C21.7906 8.30828 21.997 8.32705 23.381 8.31297C24.6149 8.2989 24.6852 8.29421 24.8119 8.20038C24.9996 8.05964 25.0559 7.81568 24.9386 7.61395C24.7885 7.36061 24.6665 7.34184 23.2778 7.34653C22.5929 7.34653 21.9877 7.36061 21.9314 7.36999Z" stroke="black" stroke-opacity="0.2" stroke-width="0.6"/>
<path d="M21.9314 7.36999C21.6264 7.43098 21.481 7.83445 21.6686 8.12062C21.7906 8.30828 21.997 8.32705 23.381 8.31297C24.6149 8.2989 24.6852 8.29421 24.8119 8.20038C24.9996 8.05964 25.0559 7.81568 24.9386 7.61395C24.7885 7.36061 24.6665 7.34184 23.2778 7.34653C22.5929 7.34653 21.9877 7.36061 21.9314 7.36999Z" stroke="black" stroke-opacity="0.2" stroke-width="0.6"/>
<path d="M21.9314 7.36999C21.6264 7.43098 21.481 7.83445 21.6686 8.12062C21.7906 8.30828 21.997 8.32705 23.381 8.31297C24.6149 8.2989 24.6852 8.29421 24.8119 8.20038C24.9996 8.05964 25.0559 7.81568 24.9386 7.61395C24.7885 7.36061 24.6665 7.34184 23.2778 7.34653C22.5929 7.34653 21.9877 7.36061 21.9314 7.36999Z" stroke="black" stroke-opacity="0.2" stroke-width="0.6"/>
<path d="M21.9314 7.36999C21.6264 7.43098 21.481 7.83445 21.6686 8.12062C21.7906 8.30828 21.997 8.32705 23.381 8.31297C24.6149 8.2989 24.6852 8.29421 24.8119 8.20038C24.9996 8.05964 25.0559 7.81568 24.9386 7.61395C24.7885 7.36061 24.6665 7.34184 23.2778 7.34653C22.5929 7.34653 21.9877 7.36061 21.9314 7.36999Z" stroke="black" stroke-opacity="0.2" stroke-width="0.6"/>
</svg>
