<svg width="26" height="21" viewBox="0 0 26 21" fill="none" xmlns="http://www.w3.org/2000/svg">
<circle cx="1.48351" cy="1.48351" r="1.48351" transform="matrix(1 0 0 -1 11.3643 20.6428)" fill="#345E40"/>
<circle cx="1.48351" cy="1.48351" r="1.48351" transform="matrix(1 0 0 -1 11.3643 20.6428)" fill="black" fill-opacity="0.2"/>
<circle cx="1.48351" cy="1.48351" r="1.48351" transform="matrix(1 0 0 -1 11.3643 20.6428)" fill="black" fill-opacity="0.2"/>
<circle cx="1.48351" cy="1.48351" r="1.48351" transform="matrix(1 0 0 -1 11.3643 20.6428)" fill="black" fill-opacity="0.2"/>
<circle cx="1.48351" cy="1.48351" r="1.48351" transform="matrix(1 0 0 -1 11.3643 20.6428)" fill="black" fill-opacity="0.2"/>
<path d="M25 7.68321C23.6572 5.76547 21.8796 4.19275 19.8125 3.09366C17.7454 1.99457 15.4475 1.4003 13.1067 1.35944C10.766 1.31858 8.44874 1.83229 6.34455 2.85858C4.24036 3.88486 2.40893 5.39457 1 7.26428M21.3543 11.7194C20.4144 10.377 19.17 9.27611 17.7231 8.50675C16.2761 7.73738 14.6676 7.32139 13.0291 7.29279C11.3905 7.26419 9.76846 7.62379 8.29553 8.34219C6.82259 9.06058 5.54059 10.1174 4.55434 11.4262M16.4935 15.123C16.0906 14.5477 15.5573 14.0759 14.9372 13.7462C14.3171 13.4165 13.6277 13.2382 12.9255 13.2259C12.2233 13.2137 11.5281 13.3678 10.8968 13.6757C10.2656 13.9835 9.71615 14.4365 9.29347 14.9974" stroke="#345E40" stroke-width="2" stroke-linecap="round" stroke-linejoin="round"/>
<path d="M25 7.68321C23.6572 5.76547 21.8796 4.19275 19.8125 3.09366C17.7454 1.99457 15.4475 1.4003 13.1067 1.35944C10.766 1.31858 8.44874 1.83229 6.34455 2.85858C4.24036 3.88486 2.40893 5.39457 1 7.26428M21.3543 11.7194C20.4144 10.377 19.17 9.27611 17.7231 8.50675C16.2761 7.73738 14.6676 7.32139 13.0291 7.29279C11.3905 7.26419 9.76846 7.62379 8.29553 8.34219C6.82259 9.06058 5.54059 10.1174 4.55434 11.4262M16.4935 15.123C16.0906 14.5477 15.5573 14.0759 14.9372 13.7462C14.3171 13.4165 13.6277 13.2382 12.9255 13.2259C12.2233 13.2137 11.5281 13.3678 10.8968 13.6757C10.2656 13.9835 9.71615 14.4365 9.29347 14.9974" stroke="black" stroke-opacity="0.2" stroke-width="2" stroke-linecap="round" stroke-linejoin="round"/>
<path d="M25 7.68321C23.6572 5.76547 21.8796 4.19275 19.8125 3.09366C17.7454 1.99457 15.4475 1.4003 13.1067 1.35944C10.766 1.31858 8.44874 1.83229 6.34455 2.85858C4.24036 3.88486 2.40893 5.39457 1 7.26428M21.3543 11.7194C20.4144 10.377 19.17 9.27611 17.7231 8.50675C16.2761 7.73738 14.6676 7.32139 13.0291 7.29279C11.3905 7.26419 9.76846 7.62379 8.29553 8.34219C6.82259 9.06058 5.54059 10.1174 4.55434 11.4262M16.4935 15.123C16.0906 14.5477 15.5573 14.0759 14.9372 13.7462C14.3171 13.4165 13.6277 13.2382 12.9255 13.2259C12.2233 13.2137 11.5281 13.3678 10.8968 13.6757C10.2656 13.9835 9.71615 14.4365 9.29347 14.9974" stroke="black" stroke-opacity="0.2" stroke-width="2" stroke-linecap="round" stroke-linejoin="round"/>
<path d="M25 7.68321C23.6572 5.76547 21.8796 4.19275 19.8125 3.09366C17.7454 1.99457 15.4475 1.4003 13.1067 1.35944C10.766 1.31858 8.44874 1.83229 6.34455 2.85858C4.24036 3.88486 2.40893 5.39457 1 7.26428M21.3543 11.7194C20.4144 10.377 19.17 9.27611 17.7231 8.50675C16.2761 7.73738 14.6676 7.32139 13.0291 7.29279C11.3905 7.26419 9.76846 7.62379 8.29553 8.34219C6.82259 9.06058 5.54059 10.1174 4.55434 11.4262M16.4935 15.123C16.0906 14.5477 15.5573 14.0759 14.9372 13.7462C14.3171 13.4165 13.6277 13.2382 12.9255 13.2259C12.2233 13.2137 11.5281 13.3678 10.8968 13.6757C10.2656 13.9835 9.71615 14.4365 9.29347 14.9974" stroke="black" stroke-opacity="0.2" stroke-width="2" stroke-linecap="round" stroke-linejoin="round"/>
<path d="M25 7.68321C23.6572 5.76547 21.8796 4.19275 19.8125 3.09366C17.7454 1.99457 15.4475 1.4003 13.1067 1.35944C10.766 1.31858 8.44874 1.83229 6.34455 2.85858C4.24036 3.88486 2.40893 5.39457 1 7.26428M21.3543 11.7194C20.4144 10.377 19.17 9.27611 17.7231 8.50675C16.2761 7.73738 14.6676 7.32139 13.0291 7.29279C11.3905 7.26419 9.76846 7.62379 8.29553 8.34219C6.82259 9.06058 5.54059 10.1174 4.55434 11.4262M16.4935 15.123C16.0906 14.5477 15.5573 14.0759 14.9372 13.7462C14.3171 13.4165 13.6277 13.2382 12.9255 13.2259C12.2233 13.2137 11.5281 13.3678 10.8968 13.6757C10.2656 13.9835 9.71615 14.4365 9.29347 14.9974" stroke="black" stroke-opacity="0.2" stroke-width="2" stroke-linecap="round" stroke-linejoin="round"/>
</svg>
