<svg width="22" height="24" viewBox="0 0 22 24" fill="none" xmlns="http://www.w3.org/2000/svg">
<path d="M0.0908203 0V24H21.909V0H0.0908203ZM2.27264 2.18182H19.7272V21.8182H2.27264V2.18182ZM6.63628 5.45455V18.5455H8.81809V15.2727H12.0908C13.8849 15.2727 15.3635 13.794 15.3635 12V8.72727C15.3635 6.93324 13.8849 5.45455 12.0908 5.45455H6.63628ZM8.81809 7.63636H12.0908C12.7087 7.63636 13.1817 8.10938 13.1817 8.72727V12C13.1817 12.6179 12.7087 13.0909 12.0908 13.0909H8.81809V7.63636Z" fill="#345E40"/>
<path d="M0.0908203 0V24H21.909V0H0.0908203ZM2.27264 2.18182H19.7272V21.8182H2.27264V2.18182ZM6.63628 5.45455V18.5455H8.81809V15.2727H12.0908C13.8849 15.2727 15.3635 13.794 15.3635 12V8.72727C15.3635 6.93324 13.8849 5.45455 12.0908 5.45455H6.63628ZM8.81809 7.63636H12.0908C12.7087 7.63636 13.1817 8.10938 13.1817 8.72727V12C13.1817 12.6179 12.7087 13.0909 12.0908 13.0909H8.81809V7.63636Z" fill="black" fill-opacity="0.2"/>
<path d="M0.0908203 0V24H21.909V0H0.0908203ZM2.27264 2.18182H19.7272V21.8182H2.27264V2.18182ZM6.63628 5.45455V18.5455H8.81809V15.2727H12.0908C13.8849 15.2727 15.3635 13.794 15.3635 12V8.72727C15.3635 6.93324 13.8849 5.45455 12.0908 5.45455H6.63628ZM8.81809 7.63636H12.0908C12.7087 7.63636 13.1817 8.10938 13.1817 8.72727V12C13.1817 12.6179 12.7087 13.0909 12.0908 13.0909H8.81809V7.63636Z" fill="black" fill-opacity="0.2"/>
<path d="M0.0908203 0V24H21.909V0H0.0908203ZM2.27264 2.18182H19.7272V21.8182H2.27264V2.18182ZM6.63628 5.45455V18.5455H8.81809V15.2727H12.0908C13.8849 15.2727 15.3635 13.794 15.3635 12V8.72727C15.3635 6.93324 13.8849 5.45455 12.0908 5.45455H6.63628ZM8.81809 7.63636H12.0908C12.7087 7.63636 13.1817 8.10938 13.1817 8.72727V12C13.1817 12.6179 12.7087 13.0909 12.0908 13.0909H8.81809V7.63636Z" fill="black" fill-opacity="0.2"/>
<path d="M0.0908203 0V24H21.909V0H0.0908203ZM2.27264 2.18182H19.7272V21.8182H2.27264V2.18182ZM6.63628 5.45455V18.5455H8.81809V15.2727H12.0908C13.8849 15.2727 15.3635 13.794 15.3635 12V8.72727C15.3635 6.93324 13.8849 5.45455 12.0908 5.45455H6.63628ZM8.81809 7.63636H12.0908C12.7087 7.63636 13.1817 8.10938 13.1817 8.72727V12C13.1817 12.6179 12.7087 13.0909 12.0908 13.0909H8.81809V7.63636Z" fill="black" fill-opacity="0.2"/>
</svg>
