<svg width="24" height="22" viewBox="0 0 24 22" fill="none" xmlns="http://www.w3.org/2000/svg">
<path d="M8.5 0C7.42969 0 6.5 0.609375 5.90625 1.4375C5.3125 2.26562 5 3.33984 5 4.5C5 5.66016 5.3125 6.73438 5.90625 7.5625C6.5 8.39062 7.42969 9 8.5 9C9.57031 9 10.5 8.39062 11.0938 7.5625C11.6875 6.73438 12 5.66016 12 4.5C12 3.33984 11.6875 2.26562 11.0938 1.4375C10.5 0.609375 9.57031 0 8.5 0ZM12 4.5C12 5.66016 12.3125 6.73438 12.9062 7.5625C13.5 8.39062 14.4297 9 15.5 9C16.5703 9 17.5 8.39062 18.0938 7.5625C18.6875 6.73438 19 5.66016 19 4.5C19 3.33984 18.6875 2.26562 18.0938 1.4375C17.5 0.609375 16.5703 0 15.5 0C14.4297 0 13.5 0.609375 12.9062 1.4375C12.3125 2.26562 12 3.33984 12 4.5ZM8.5 2C8.8125 2 9.15625 2.15625 9.46875 2.59375C9.78125 3.03125 10 3.72656 10 4.5C10 5.27344 9.78125 5.96875 9.46875 6.40625C9.15625 6.84375 8.8125 7 8.5 7C8.1875 7 7.84375 6.84375 7.53125 6.40625C7.21875 5.96875 7 5.27344 7 4.5C7 3.72656 7.21875 3.03125 7.53125 2.59375C7.84375 2.15625 8.1875 2 8.5 2ZM15.5 2C15.8125 2 16.1562 2.15625 16.4688 2.59375C16.7812 3.03125 17 3.72656 17 4.5C17 5.27344 16.7812 5.96875 16.4688 6.40625C16.1562 6.84375 15.8125 7 15.5 7C15.1875 7 14.8438 6.84375 14.5312 6.40625C14.2188 5.96875 14 5.27344 14 4.5C14 3.72656 14.2188 3.03125 14.5312 2.59375C14.8438 2.15625 15.1875 2 15.5 2ZM3.5 7C2.42969 7 1.5 7.60938 0.90625 8.4375C0.3125 9.26562 0 10.3398 0 11.5C0 12.6602 0.3125 13.7344 0.90625 14.5625C1.5 15.3906 2.42969 16 3.5 16C4.57031 16 5.5 15.3906 6.09375 14.5625C6.6875 13.7344 7 12.6602 7 11.5C7 10.3398 6.6875 9.26562 6.09375 8.4375C5.5 7.60938 4.57031 7 3.5 7ZM20.5 7C19.4297 7 18.5 7.60938 17.9062 8.4375C17.3125 9.26562 17 10.3398 17 11.5C17 12.6602 17.3125 13.7344 17.9062 14.5625C18.5 15.3906 19.4297 16 20.5 16C21.5703 16 22.5 15.3906 23.0938 14.5625C23.6875 13.7344 24 12.6602 24 11.5C24 10.3398 23.6875 9.26562 23.0938 8.4375C22.5 7.60938 21.5703 7 20.5 7ZM3.5 9C3.8125 9 4.15625 9.15625 4.46875 9.59375C4.78125 10.0312 5 10.7266 5 11.5C5 12.2734 4.78125 12.9688 4.46875 13.4062C4.15625 13.8438 3.8125 14 3.5 14C3.1875 14 2.84375 13.8438 2.53125 13.4062C2.21875 12.9688 2 12.2734 2 11.5C2 10.7266 2.21875 10.0312 2.53125 9.59375C2.84375 9.15625 3.1875 9 3.5 9ZM20.5 9C20.8125 9 21.1562 9.15625 21.4688 9.59375C21.7812 10.0312 22 10.7266 22 11.5C22 12.2734 21.7812 12.9688 21.4688 13.4062C21.1562 13.8438 20.8125 14 20.5 14C20.1875 14 19.8438 13.8438 19.5312 13.4062C19.2188 12.9688 19 12.2734 19 11.5C19 10.7266 19.2188 10.0312 19.5312 9.59375C19.8438 9.15625 20.1875 9 20.5 9ZM12 11C10.668 11 9.73828 11.8672 9.28125 12.625C8.82422 13.3828 8.54688 14.0156 8.28125 14.2812C8.125 14.4375 7.16016 14.8008 6.15625 15.3125C5.65234 15.5703 5.14453 15.9141 4.71875 16.4375C4.29297 16.9609 4 17.6875 4 18.5C4 20.4219 5.57812 22 7.5 22C8.36719 22 9.26953 21.7227 10.1562 21.4688C11.043 21.2148 12 21 12 21C12 21 12.957 21.2148 13.8438 21.4688C14.7305 21.7227 15.6328 22 16.5 22C18.4219 22 20 20.4219 20 18.5C20 17.707 19.707 16.9805 19.2812 16.4688C18.8555 15.957 18.3438 15.6406 17.8438 15.375C16.8438 14.8438 15.8594 14.4219 15.7188 14.2812C15.4805 14.043 15.2109 13.3906 14.75 12.625C14.2891 11.8594 13.3398 11 12 11ZM12 13C12.6602 13 12.7344 13.1602 13.0312 13.6562C13.3281 14.1523 13.5547 14.9922 14.2812 15.7188C15.1055 16.543 16.1484 16.7227 16.9062 17.125C17.2852 17.3281 17.5781 17.543 17.75 17.75C17.9219 17.957 18 18.1484 18 18.5C18 19.3398 17.3398 20 16.5 20C16.2109 20 15.2773 19.7773 14.4062 19.5312C13.5352 19.2852 12.8164 19 12 19C11.1836 19 10.4648 19.2852 9.59375 19.5312C8.72266 19.7773 7.78906 20 7.5 20C6.66016 20 6 19.3398 6 18.5C6 18.0977 6.08203 17.8906 6.25 17.6875C6.41797 17.4844 6.72266 17.2852 7.09375 17.0938C7.83984 16.7148 8.875 16.5625 9.71875 15.7188C10.4531 14.9844 10.6758 14.1172 10.9688 13.625C11.2617 13.1328 11.332 13 12 13Z" fill="#345E40"/>
<path d="M8.5 0C7.42969 0 6.5 0.609375 5.90625 1.4375C5.3125 2.26562 5 3.33984 5 4.5C5 5.66016 5.3125 6.73438 5.90625 7.5625C6.5 8.39062 7.42969 9 8.5 9C9.57031 9 10.5 8.39062 11.0938 7.5625C11.6875 6.73438 12 5.66016 12 4.5C12 3.33984 11.6875 2.26562 11.0938 1.4375C10.5 0.609375 9.57031 0 8.5 0ZM12 4.5C12 5.66016 12.3125 6.73438 12.9062 7.5625C13.5 8.39062 14.4297 9 15.5 9C16.5703 9 17.5 8.39062 18.0938 7.5625C18.6875 6.73438 19 5.66016 19 4.5C19 3.33984 18.6875 2.26562 18.0938 1.4375C17.5 0.609375 16.5703 0 15.5 0C14.4297 0 13.5 0.609375 12.9062 1.4375C12.3125 2.26562 12 3.33984 12 4.5ZM8.5 2C8.8125 2 9.15625 2.15625 9.46875 2.59375C9.78125 3.03125 10 3.72656 10 4.5C10 5.27344 9.78125 5.96875 9.46875 6.40625C9.15625 6.84375 8.8125 7 8.5 7C8.1875 7 7.84375 6.84375 7.53125 6.40625C7.21875 5.96875 7 5.27344 7 4.5C7 3.72656 7.21875 3.03125 7.53125 2.59375C7.84375 2.15625 8.1875 2 8.5 2ZM15.5 2C15.8125 2 16.1562 2.15625 16.4688 2.59375C16.7812 3.03125 17 3.72656 17 4.5C17 5.27344 16.7812 5.96875 16.4688 6.40625C16.1562 6.84375 15.8125 7 15.5 7C15.1875 7 14.8438 6.84375 14.5312 6.40625C14.2188 5.96875 14 5.27344 14 4.5C14 3.72656 14.2188 3.03125 14.5312 2.59375C14.8438 2.15625 15.1875 2 15.5 2ZM3.5 7C2.42969 7 1.5 7.60938 0.90625 8.4375C0.3125 9.26562 0 10.3398 0 11.5C0 12.6602 0.3125 13.7344 0.90625 14.5625C1.5 15.3906 2.42969 16 3.5 16C4.57031 16 5.5 15.3906 6.09375 14.5625C6.6875 13.7344 7 12.6602 7 11.5C7 10.3398 6.6875 9.26562 6.09375 8.4375C5.5 7.60938 4.57031 7 3.5 7ZM20.5 7C19.4297 7 18.5 7.60938 17.9062 8.4375C17.3125 9.26562 17 10.3398 17 11.5C17 12.6602 17.3125 13.7344 17.9062 14.5625C18.5 15.3906 19.4297 16 20.5 16C21.5703 16 22.5 15.3906 23.0938 14.5625C23.6875 13.7344 24 12.6602 24 11.5C24 10.3398 23.6875 9.26562 23.0938 8.4375C22.5 7.60938 21.5703 7 20.5 7ZM3.5 9C3.8125 9 4.15625 9.15625 4.46875 9.59375C4.78125 10.0312 5 10.7266 5 11.5C5 12.2734 4.78125 12.9688 4.46875 13.4062C4.15625 13.8438 3.8125 14 3.5 14C3.1875 14 2.84375 13.8438 2.53125 13.4062C2.21875 12.9688 2 12.2734 2 11.5C2 10.7266 2.21875 10.0312 2.53125 9.59375C2.84375 9.15625 3.1875 9 3.5 9ZM20.5 9C20.8125 9 21.1562 9.15625 21.4688 9.59375C21.7812 10.0312 22 10.7266 22 11.5C22 12.2734 21.7812 12.9688 21.4688 13.4062C21.1562 13.8438 20.8125 14 20.5 14C20.1875 14 19.8438 13.8438 19.5312 13.4062C19.2188 12.9688 19 12.2734 19 11.5C19 10.7266 19.2188 10.0312 19.5312 9.59375C19.8438 9.15625 20.1875 9 20.5 9ZM12 11C10.668 11 9.73828 11.8672 9.28125 12.625C8.82422 13.3828 8.54688 14.0156 8.28125 14.2812C8.125 14.4375 7.16016 14.8008 6.15625 15.3125C5.65234 15.5703 5.14453 15.9141 4.71875 16.4375C4.29297 16.9609 4 17.6875 4 18.5C4 20.4219 5.57812 22 7.5 22C8.36719 22 9.26953 21.7227 10.1562 21.4688C11.043 21.2148 12 21 12 21C12 21 12.957 21.2148 13.8438 21.4688C14.7305 21.7227 15.6328 22 16.5 22C18.4219 22 20 20.4219 20 18.5C20 17.707 19.707 16.9805 19.2812 16.4688C18.8555 15.957 18.3438 15.6406 17.8438 15.375C16.8438 14.8438 15.8594 14.4219 15.7188 14.2812C15.4805 14.043 15.2109 13.3906 14.75 12.625C14.2891 11.8594 13.3398 11 12 11ZM12 13C12.6602 13 12.7344 13.1602 13.0312 13.6562C13.3281 14.1523 13.5547 14.9922 14.2812 15.7188C15.1055 16.543 16.1484 16.7227 16.9062 17.125C17.2852 17.3281 17.5781 17.543 17.75 17.75C17.9219 17.957 18 18.1484 18 18.5C18 19.3398 17.3398 20 16.5 20C16.2109 20 15.2773 19.7773 14.4062 19.5312C13.5352 19.2852 12.8164 19 12 19C11.1836 19 10.4648 19.2852 9.59375 19.5312C8.72266 19.7773 7.78906 20 7.5 20C6.66016 20 6 19.3398 6 18.5C6 18.0977 6.08203 17.8906 6.25 17.6875C6.41797 17.4844 6.72266 17.2852 7.09375 17.0938C7.83984 16.7148 8.875 16.5625 9.71875 15.7188C10.4531 14.9844 10.6758 14.1172 10.9688 13.625C11.2617 13.1328 11.332 13 12 13Z" fill="black" fill-opacity="0.2"/>
<path d="M8.5 0C7.42969 0 6.5 0.609375 5.90625 1.4375C5.3125 2.26562 5 3.33984 5 4.5C5 5.66016 5.3125 6.73438 5.90625 7.5625C6.5 8.39062 7.42969 9 8.5 9C9.57031 9 10.5 8.39062 11.0938 7.5625C11.6875 6.73438 12 5.66016 12 4.5C12 3.33984 11.6875 2.26562 11.0938 1.4375C10.5 0.609375 9.57031 0 8.5 0ZM12 4.5C12 5.66016 12.3125 6.73438 12.9062 7.5625C13.5 8.39062 14.4297 9 15.5 9C16.5703 9 17.5 8.39062 18.0938 7.5625C18.6875 6.73438 19 5.66016 19 4.5C19 3.33984 18.6875 2.26562 18.0938 1.4375C17.5 0.609375 16.5703 0 15.5 0C14.4297 0 13.5 0.609375 12.9062 1.4375C12.3125 2.26562 12 3.33984 12 4.5ZM8.5 2C8.8125 2 9.15625 2.15625 9.46875 2.59375C9.78125 3.03125 10 3.72656 10 4.5C10 5.27344 9.78125 5.96875 9.46875 6.40625C9.15625 6.84375 8.8125 7 8.5 7C8.1875 7 7.84375 6.84375 7.53125 6.40625C7.21875 5.96875 7 5.27344 7 4.5C7 3.72656 7.21875 3.03125 7.53125 2.59375C7.84375 2.15625 8.1875 2 8.5 2ZM15.5 2C15.8125 2 16.1562 2.15625 16.4688 2.59375C16.7812 3.03125 17 3.72656 17 4.5C17 5.27344 16.7812 5.96875 16.4688 6.40625C16.1562 6.84375 15.8125 7 15.5 7C15.1875 7 14.8438 6.84375 14.5312 6.40625C14.2188 5.96875 14 5.27344 14 4.5C14 3.72656 14.2188 3.03125 14.5312 2.59375C14.8438 2.15625 15.1875 2 15.5 2ZM3.5 7C2.42969 7 1.5 7.60938 0.90625 8.4375C0.3125 9.26562 0 10.3398 0 11.5C0 12.6602 0.3125 13.7344 0.90625 14.5625C1.5 15.3906 2.42969 16 3.5 16C4.57031 16 5.5 15.3906 6.09375 14.5625C6.6875 13.7344 7 12.6602 7 11.5C7 10.3398 6.6875 9.26562 6.09375 8.4375C5.5 7.60938 4.57031 7 3.5 7ZM20.5 7C19.4297 7 18.5 7.60938 17.9062 8.4375C17.3125 9.26562 17 10.3398 17 11.5C17 12.6602 17.3125 13.7344 17.9062 14.5625C18.5 15.3906 19.4297 16 20.5 16C21.5703 16 22.5 15.3906 23.0938 14.5625C23.6875 13.7344 24 12.6602 24 11.5C24 10.3398 23.6875 9.26562 23.0938 8.4375C22.5 7.60938 21.5703 7 20.5 7ZM3.5 9C3.8125 9 4.15625 9.15625 4.46875 9.59375C4.78125 10.0312 5 10.7266 5 11.5C5 12.2734 4.78125 12.9688 4.46875 13.4062C4.15625 13.8438 3.8125 14 3.5 14C3.1875 14 2.84375 13.8438 2.53125 13.4062C2.21875 12.9688 2 12.2734 2 11.5C2 10.7266 2.21875 10.0312 2.53125 9.59375C2.84375 9.15625 3.1875 9 3.5 9ZM20.5 9C20.8125 9 21.1562 9.15625 21.4688 9.59375C21.7812 10.0312 22 10.7266 22 11.5C22 12.2734 21.7812 12.9688 21.4688 13.4062C21.1562 13.8438 20.8125 14 20.5 14C20.1875 14 19.8438 13.8438 19.5312 13.4062C19.2188 12.9688 19 12.2734 19 11.5C19 10.7266 19.2188 10.0312 19.5312 9.59375C19.8438 9.15625 20.1875 9 20.5 9ZM12 11C10.668 11 9.73828 11.8672 9.28125 12.625C8.82422 13.3828 8.54688 14.0156 8.28125 14.2812C8.125 14.4375 7.16016 14.8008 6.15625 15.3125C5.65234 15.5703 5.14453 15.9141 4.71875 16.4375C4.29297 16.9609 4 17.6875 4 18.5C4 20.4219 5.57812 22 7.5 22C8.36719 22 9.26953 21.7227 10.1562 21.4688C11.043 21.2148 12 21 12 21C12 21 12.957 21.2148 13.8438 21.4688C14.7305 21.7227 15.6328 22 16.5 22C18.4219 22 20 20.4219 20 18.5C20 17.707 19.707 16.9805 19.2812 16.4688C18.8555 15.957 18.3438 15.6406 17.8438 15.375C16.8438 14.8438 15.8594 14.4219 15.7188 14.2812C15.4805 14.043 15.2109 13.3906 14.75 12.625C14.2891 11.8594 13.3398 11 12 11ZM12 13C12.6602 13 12.7344 13.1602 13.0312 13.6562C13.3281 14.1523 13.5547 14.9922 14.2812 15.7188C15.1055 16.543 16.1484 16.7227 16.9062 17.125C17.2852 17.3281 17.5781 17.543 17.75 17.75C17.9219 17.957 18 18.1484 18 18.5C18 19.3398 17.3398 20 16.5 20C16.2109 20 15.2773 19.7773 14.4062 19.5312C13.5352 19.2852 12.8164 19 12 19C11.1836 19 10.4648 19.2852 9.59375 19.5312C8.72266 19.7773 7.78906 20 7.5 20C6.66016 20 6 19.3398 6 18.5C6 18.0977 6.08203 17.8906 6.25 17.6875C6.41797 17.4844 6.72266 17.2852 7.09375 17.0938C7.83984 16.7148 8.875 16.5625 9.71875 15.7188C10.4531 14.9844 10.6758 14.1172 10.9688 13.625C11.2617 13.1328 11.332 13 12 13Z" fill="black" fill-opacity="0.2"/>
<path d="M8.5 0C7.42969 0 6.5 0.609375 5.90625 1.4375C5.3125 2.26562 5 3.33984 5 4.5C5 5.66016 5.3125 6.73438 5.90625 7.5625C6.5 8.39062 7.42969 9 8.5 9C9.57031 9 10.5 8.39062 11.0938 7.5625C11.6875 6.73438 12 5.66016 12 4.5C12 3.33984 11.6875 2.26562 11.0938 1.4375C10.5 0.609375 9.57031 0 8.5 0ZM12 4.5C12 5.66016 12.3125 6.73438 12.9062 7.5625C13.5 8.39062 14.4297 9 15.5 9C16.5703 9 17.5 8.39062 18.0938 7.5625C18.6875 6.73438 19 5.66016 19 4.5C19 3.33984 18.6875 2.26562 18.0938 1.4375C17.5 0.609375 16.5703 0 15.5 0C14.4297 0 13.5 0.609375 12.9062 1.4375C12.3125 2.26562 12 3.33984 12 4.5ZM8.5 2C8.8125 2 9.15625 2.15625 9.46875 2.59375C9.78125 3.03125 10 3.72656 10 4.5C10 5.27344 9.78125 5.96875 9.46875 6.40625C9.15625 6.84375 8.8125 7 8.5 7C8.1875 7 7.84375 6.84375 7.53125 6.40625C7.21875 5.96875 7 5.27344 7 4.5C7 3.72656 7.21875 3.03125 7.53125 2.59375C7.84375 2.15625 8.1875 2 8.5 2ZM15.5 2C15.8125 2 16.1562 2.15625 16.4688 2.59375C16.7812 3.03125 17 3.72656 17 4.5C17 5.27344 16.7812 5.96875 16.4688 6.40625C16.1562 6.84375 15.8125 7 15.5 7C15.1875 7 14.8438 6.84375 14.5312 6.40625C14.2188 5.96875 14 5.27344 14 4.5C14 3.72656 14.2188 3.03125 14.5312 2.59375C14.8438 2.15625 15.1875 2 15.5 2ZM3.5 7C2.42969 7 1.5 7.60938 0.90625 8.4375C0.3125 9.26562 0 10.3398 0 11.5C0 12.6602 0.3125 13.7344 0.90625 14.5625C1.5 15.3906 2.42969 16 3.5 16C4.57031 16 5.5 15.3906 6.09375 14.5625C6.6875 13.7344 7 12.6602 7 11.5C7 10.3398 6.6875 9.26562 6.09375 8.4375C5.5 7.60938 4.57031 7 3.5 7ZM20.5 7C19.4297 7 18.5 7.60938 17.9062 8.4375C17.3125 9.26562 17 10.3398 17 11.5C17 12.6602 17.3125 13.7344 17.9062 14.5625C18.5 15.3906 19.4297 16 20.5 16C21.5703 16 22.5 15.3906 23.0938 14.5625C23.6875 13.7344 24 12.6602 24 11.5C24 10.3398 23.6875 9.26562 23.0938 8.4375C22.5 7.60938 21.5703 7 20.5 7ZM3.5 9C3.8125 9 4.15625 9.15625 4.46875 9.59375C4.78125 10.0312 5 10.7266 5 11.5C5 12.2734 4.78125 12.9688 4.46875 13.4062C4.15625 13.8438 3.8125 14 3.5 14C3.1875 14 2.84375 13.8438 2.53125 13.4062C2.21875 12.9688 2 12.2734 2 11.5C2 10.7266 2.21875 10.0312 2.53125 9.59375C2.84375 9.15625 3.1875 9 3.5 9ZM20.5 9C20.8125 9 21.1562 9.15625 21.4688 9.59375C21.7812 10.0312 22 10.7266 22 11.5C22 12.2734 21.7812 12.9688 21.4688 13.4062C21.1562 13.8438 20.8125 14 20.5 14C20.1875 14 19.8438 13.8438 19.5312 13.4062C19.2188 12.9688 19 12.2734 19 11.5C19 10.7266 19.2188 10.0312 19.5312 9.59375C19.8438 9.15625 20.1875 9 20.5 9ZM12 11C10.668 11 9.73828 11.8672 9.28125 12.625C8.82422 13.3828 8.54688 14.0156 8.28125 14.2812C8.125 14.4375 7.16016 14.8008 6.15625 15.3125C5.65234 15.5703 5.14453 15.9141 4.71875 16.4375C4.29297 16.9609 4 17.6875 4 18.5C4 20.4219 5.57812 22 7.5 22C8.36719 22 9.26953 21.7227 10.1562 21.4688C11.043 21.2148 12 21 12 21C12 21 12.957 21.2148 13.8438 21.4688C14.7305 21.7227 15.6328 22 16.5 22C18.4219 22 20 20.4219 20 18.5C20 17.707 19.707 16.9805 19.2812 16.4688C18.8555 15.957 18.3438 15.6406 17.8438 15.375C16.8438 14.8438 15.8594 14.4219 15.7188 14.2812C15.4805 14.043 15.2109 13.3906 14.75 12.625C14.2891 11.8594 13.3398 11 12 11ZM12 13C12.6602 13 12.7344 13.1602 13.0312 13.6562C13.3281 14.1523 13.5547 14.9922 14.2812 15.7188C15.1055 16.543 16.1484 16.7227 16.9062 17.125C17.2852 17.3281 17.5781 17.543 17.75 17.75C17.9219 17.957 18 18.1484 18 18.5C18 19.3398 17.3398 20 16.5 20C16.2109 20 15.2773 19.7773 14.4062 19.5312C13.5352 19.2852 12.8164 19 12 19C11.1836 19 10.4648 19.2852 9.59375 19.5312C8.72266 19.7773 7.78906 20 7.5 20C6.66016 20 6 19.3398 6 18.5C6 18.0977 6.08203 17.8906 6.25 17.6875C6.41797 17.4844 6.72266 17.2852 7.09375 17.0938C7.83984 16.7148 8.875 16.5625 9.71875 15.7188C10.4531 14.9844 10.6758 14.1172 10.9688 13.625C11.2617 13.1328 11.332 13 12 13Z" fill="black" fill-opacity="0.2"/>
<path d="M8.5 0C7.42969 0 6.5 0.609375 5.90625 1.4375C5.3125 2.26562 5 3.33984 5 4.5C5 5.66016 5.3125 6.73438 5.90625 7.5625C6.5 8.39062 7.42969 9 8.5 9C9.57031 9 10.5 8.39062 11.0938 7.5625C11.6875 6.73438 12 5.66016 12 4.5C12 3.33984 11.6875 2.26562 11.0938 1.4375C10.5 0.609375 9.57031 0 8.5 0ZM12 4.5C12 5.66016 12.3125 6.73438 12.9062 7.5625C13.5 8.39062 14.4297 9 15.5 9C16.5703 9 17.5 8.39062 18.0938 7.5625C18.6875 6.73438 19 5.66016 19 4.5C19 3.33984 18.6875 2.26562 18.0938 1.4375C17.5 0.609375 16.5703 0 15.5 0C14.4297 0 13.5 0.609375 12.9062 1.4375C12.3125 2.26562 12 3.33984 12 4.5ZM8.5 2C8.8125 2 9.15625 2.15625 9.46875 2.59375C9.78125 3.03125 10 3.72656 10 4.5C10 5.27344 9.78125 5.96875 9.46875 6.40625C9.15625 6.84375 8.8125 7 8.5 7C8.1875 7 7.84375 6.84375 7.53125 6.40625C7.21875 5.96875 7 5.27344 7 4.5C7 3.72656 7.21875 3.03125 7.53125 2.59375C7.84375 2.15625 8.1875 2 8.5 2ZM15.5 2C15.8125 2 16.1562 2.15625 16.4688 2.59375C16.7812 3.03125 17 3.72656 17 4.5C17 5.27344 16.7812 5.96875 16.4688 6.40625C16.1562 6.84375 15.8125 7 15.5 7C15.1875 7 14.8438 6.84375 14.5312 6.40625C14.2188 5.96875 14 5.27344 14 4.5C14 3.72656 14.2188 3.03125 14.5312 2.59375C14.8438 2.15625 15.1875 2 15.5 2ZM3.5 7C2.42969 7 1.5 7.60938 0.90625 8.4375C0.3125 9.26562 0 10.3398 0 11.5C0 12.6602 0.3125 13.7344 0.90625 14.5625C1.5 15.3906 2.42969 16 3.5 16C4.57031 16 5.5 15.3906 6.09375 14.5625C6.6875 13.7344 7 12.6602 7 11.5C7 10.3398 6.6875 9.26562 6.09375 8.4375C5.5 7.60938 4.57031 7 3.5 7ZM20.5 7C19.4297 7 18.5 7.60938 17.9062 8.4375C17.3125 9.26562 17 10.3398 17 11.5C17 12.6602 17.3125 13.7344 17.9062 14.5625C18.5 15.3906 19.4297 16 20.5 16C21.5703 16 22.5 15.3906 23.0938 14.5625C23.6875 13.7344 24 12.6602 24 11.5C24 10.3398 23.6875 9.26562 23.0938 8.4375C22.5 7.60938 21.5703 7 20.5 7ZM3.5 9C3.8125 9 4.15625 9.15625 4.46875 9.59375C4.78125 10.0312 5 10.7266 5 11.5C5 12.2734 4.78125 12.9688 4.46875 13.4062C4.15625 13.8438 3.8125 14 3.5 14C3.1875 14 2.84375 13.8438 2.53125 13.4062C2.21875 12.9688 2 12.2734 2 11.5C2 10.7266 2.21875 10.0312 2.53125 9.59375C2.84375 9.15625 3.1875 9 3.5 9ZM20.5 9C20.8125 9 21.1562 9.15625 21.4688 9.59375C21.7812 10.0312 22 10.7266 22 11.5C22 12.2734 21.7812 12.9688 21.4688 13.4062C21.1562 13.8438 20.8125 14 20.5 14C20.1875 14 19.8438 13.8438 19.5312 13.4062C19.2188 12.9688 19 12.2734 19 11.5C19 10.7266 19.2188 10.0312 19.5312 9.59375C19.8438 9.15625 20.1875 9 20.5 9ZM12 11C10.668 11 9.73828 11.8672 9.28125 12.625C8.82422 13.3828 8.54688 14.0156 8.28125 14.2812C8.125 14.4375 7.16016 14.8008 6.15625 15.3125C5.65234 15.5703 5.14453 15.9141 4.71875 16.4375C4.29297 16.9609 4 17.6875 4 18.5C4 20.4219 5.57812 22 7.5 22C8.36719 22 9.26953 21.7227 10.1562 21.4688C11.043 21.2148 12 21 12 21C12 21 12.957 21.2148 13.8438 21.4688C14.7305 21.7227 15.6328 22 16.5 22C18.4219 22 20 20.4219 20 18.5C20 17.707 19.707 16.9805 19.2812 16.4688C18.8555 15.957 18.3438 15.6406 17.8438 15.375C16.8438 14.8438 15.8594 14.4219 15.7188 14.2812C15.4805 14.043 15.2109 13.3906 14.75 12.625C14.2891 11.8594 13.3398 11 12 11ZM12 13C12.6602 13 12.7344 13.1602 13.0312 13.6562C13.3281 14.1523 13.5547 14.9922 14.2812 15.7188C15.1055 16.543 16.1484 16.7227 16.9062 17.125C17.2852 17.3281 17.5781 17.543 17.75 17.75C17.9219 17.957 18 18.1484 18 18.5C18 19.3398 17.3398 20 16.5 20C16.2109 20 15.2773 19.7773 14.4062 19.5312C13.5352 19.2852 12.8164 19 12 19C11.1836 19 10.4648 19.2852 9.59375 19.5312C8.72266 19.7773 7.78906 20 7.5 20C6.66016 20 6 19.3398 6 18.5C6 18.0977 6.08203 17.8906 6.25 17.6875C6.41797 17.4844 6.72266 17.2852 7.09375 17.0938C7.83984 16.7148 8.875 16.5625 9.71875 15.7188C10.4531 14.9844 10.6758 14.1172 10.9688 13.625C11.2617 13.1328 11.332 13 12 13Z" fill="black" fill-opacity="0.2"/>
</svg>
