<svg width="16" height="24" viewBox="0 0 16 24" fill="none" xmlns="http://www.w3.org/2000/svg">
<path d="M7.74824 0C7.76504 0.16 7.77324 0.319688 7.77324 0.479688C7.77324 4.94209 0.799805 7.93718 0.799805 13.4844C0.799805 15.8932 2.78834 17.5051 4.41074 18.9188C7.50034 21.1763 8.11387 22.1874 8.11387 22.925C8.11387 23.4138 7.9998 23.7424 7.9998 24C8.6142 23.1912 8.68555 22.4594 8.69355 21.7578C8.69355 20.3266 7.68732 19.0305 6.62012 17.5641C5.86092 16.4881 4.61543 15.5023 4.61543 14.2047C4.61543 10.6311 9.5998 8.27584 9.5998 4.37344C9.5998 2.09744 7.98664 0.1152 7.74824 0ZM10.6998 6.4L10.892 6.74688C11.0048 6.99568 11.0561 7.27028 11.0561 7.57188C11.0561 9.72628 8.26984 12.936 8.14824 13.2016C8.04344 13.4496 7.9998 13.7161 7.9998 13.9641C7.9998 14.9393 8.72878 16.0031 8.85918 16.0031C8.97278 16.0031 11.587 13.3249 11.6654 11.7641C11.9694 12.3313 12.0998 12.8549 12.0998 13.3781C12.0998 15.3645 10.0842 18.0594 10.0842 18.0594C10.0842 18.6178 11.6215 20.6219 11.7951 20.6219C11.8471 20.6219 11.9082 20.5606 11.9514 20.5078C13.7834 18.6102 15.1998 16.4024 15.1998 13.9016C15.1998 13.52 15.1647 13.1205 15.0951 12.7125C14.5127 9.4941 11.499 6.7104 10.6998 6.4Z" fill="#345E40"/>
<path d="M7.74824 0C7.76504 0.16 7.77324 0.319688 7.77324 0.479688C7.77324 4.94209 0.799805 7.93718 0.799805 13.4844C0.799805 15.8932 2.78834 17.5051 4.41074 18.9188C7.50034 21.1763 8.11387 22.1874 8.11387 22.925C8.11387 23.4138 7.9998 23.7424 7.9998 24C8.6142 23.1912 8.68555 22.4594 8.69355 21.7578C8.69355 20.3266 7.68732 19.0305 6.62012 17.5641C5.86092 16.4881 4.61543 15.5023 4.61543 14.2047C4.61543 10.6311 9.5998 8.27584 9.5998 4.37344C9.5998 2.09744 7.98664 0.1152 7.74824 0ZM10.6998 6.4L10.892 6.74688C11.0048 6.99568 11.0561 7.27028 11.0561 7.57188C11.0561 9.72628 8.26984 12.936 8.14824 13.2016C8.04344 13.4496 7.9998 13.7161 7.9998 13.9641C7.9998 14.9393 8.72878 16.0031 8.85918 16.0031C8.97278 16.0031 11.587 13.3249 11.6654 11.7641C11.9694 12.3313 12.0998 12.8549 12.0998 13.3781C12.0998 15.3645 10.0842 18.0594 10.0842 18.0594C10.0842 18.6178 11.6215 20.6219 11.7951 20.6219C11.8471 20.6219 11.9082 20.5606 11.9514 20.5078C13.7834 18.6102 15.1998 16.4024 15.1998 13.9016C15.1998 13.52 15.1647 13.1205 15.0951 12.7125C14.5127 9.4941 11.499 6.7104 10.6998 6.4Z" fill="black" fill-opacity="0.2"/>
<path d="M7.74824 0C7.76504 0.16 7.77324 0.319688 7.77324 0.479688C7.77324 4.94209 0.799805 7.93718 0.799805 13.4844C0.799805 15.8932 2.78834 17.5051 4.41074 18.9188C7.50034 21.1763 8.11387 22.1874 8.11387 22.925C8.11387 23.4138 7.9998 23.7424 7.9998 24C8.6142 23.1912 8.68555 22.4594 8.69355 21.7578C8.69355 20.3266 7.68732 19.0305 6.62012 17.5641C5.86092 16.4881 4.61543 15.5023 4.61543 14.2047C4.61543 10.6311 9.5998 8.27584 9.5998 4.37344C9.5998 2.09744 7.98664 0.1152 7.74824 0ZM10.6998 6.4L10.892 6.74688C11.0048 6.99568 11.0561 7.27028 11.0561 7.57188C11.0561 9.72628 8.26984 12.936 8.14824 13.2016C8.04344 13.4496 7.9998 13.7161 7.9998 13.9641C7.9998 14.9393 8.72878 16.0031 8.85918 16.0031C8.97278 16.0031 11.587 13.3249 11.6654 11.7641C11.9694 12.3313 12.0998 12.8549 12.0998 13.3781C12.0998 15.3645 10.0842 18.0594 10.0842 18.0594C10.0842 18.6178 11.6215 20.6219 11.7951 20.6219C11.8471 20.6219 11.9082 20.5606 11.9514 20.5078C13.7834 18.6102 15.1998 16.4024 15.1998 13.9016C15.1998 13.52 15.1647 13.1205 15.0951 12.7125C14.5127 9.4941 11.499 6.7104 10.6998 6.4Z" fill="black" fill-opacity="0.2"/>
<path d="M7.74824 0C7.76504 0.16 7.77324 0.319688 7.77324 0.479688C7.77324 4.94209 0.799805 7.93718 0.799805 13.4844C0.799805 15.8932 2.78834 17.5051 4.41074 18.9188C7.50034 21.1763 8.11387 22.1874 8.11387 22.925C8.11387 23.4138 7.9998 23.7424 7.9998 24C8.6142 23.1912 8.68555 22.4594 8.69355 21.7578C8.69355 20.3266 7.68732 19.0305 6.62012 17.5641C5.86092 16.4881 4.61543 15.5023 4.61543 14.2047C4.61543 10.6311 9.5998 8.27584 9.5998 4.37344C9.5998 2.09744 7.98664 0.1152 7.74824 0ZM10.6998 6.4L10.892 6.74688C11.0048 6.99568 11.0561 7.27028 11.0561 7.57188C11.0561 9.72628 8.26984 12.936 8.14824 13.2016C8.04344 13.4496 7.9998 13.7161 7.9998 13.9641C7.9998 14.9393 8.72878 16.0031 8.85918 16.0031C8.97278 16.0031 11.587 13.3249 11.6654 11.7641C11.9694 12.3313 12.0998 12.8549 12.0998 13.3781C12.0998 15.3645 10.0842 18.0594 10.0842 18.0594C10.0842 18.6178 11.6215 20.6219 11.7951 20.6219C11.8471 20.6219 11.9082 20.5606 11.9514 20.5078C13.7834 18.6102 15.1998 16.4024 15.1998 13.9016C15.1998 13.52 15.1647 13.1205 15.0951 12.7125C14.5127 9.4941 11.499 6.7104 10.6998 6.4Z" fill="black" fill-opacity="0.2"/>
<path d="M7.74824 0C7.76504 0.16 7.77324 0.319688 7.77324 0.479688C7.77324 4.94209 0.799805 7.93718 0.799805 13.4844C0.799805 15.8932 2.78834 17.5051 4.41074 18.9188C7.50034 21.1763 8.11387 22.1874 8.11387 22.925C8.11387 23.4138 7.9998 23.7424 7.9998 24C8.6142 23.1912 8.68555 22.4594 8.69355 21.7578C8.69355 20.3266 7.68732 19.0305 6.62012 17.5641C5.86092 16.4881 4.61543 15.5023 4.61543 14.2047C4.61543 10.6311 9.5998 8.27584 9.5998 4.37344C9.5998 2.09744 7.98664 0.1152 7.74824 0ZM10.6998 6.4L10.892 6.74688C11.0048 6.99568 11.0561 7.27028 11.0561 7.57188C11.0561 9.72628 8.26984 12.936 8.14824 13.2016C8.04344 13.4496 7.9998 13.7161 7.9998 13.9641C7.9998 14.9393 8.72878 16.0031 8.85918 16.0031C8.97278 16.0031 11.587 13.3249 11.6654 11.7641C11.9694 12.3313 12.0998 12.8549 12.0998 13.3781C12.0998 15.3645 10.0842 18.0594 10.0842 18.0594C10.0842 18.6178 11.6215 20.6219 11.7951 20.6219C11.8471 20.6219 11.9082 20.5606 11.9514 20.5078C13.7834 18.6102 15.1998 16.4024 15.1998 13.9016C15.1998 13.52 15.1647 13.1205 15.0951 12.7125C14.5127 9.4941 11.499 6.7104 10.6998 6.4Z" fill="black" fill-opacity="0.2"/>
</svg>
