<svg width="25" height="24" viewBox="0 0 25 24" fill="none" xmlns="http://www.w3.org/2000/svg">
<path d="M7 7H15.5C15.5 7 19.5 9.07405 19.5 13.8996C19.5 18.7252 15.5 21 15.5 21H7C7 21 3.5 17.9892 3.5 14C3.5 10.0108 7 7 7 7Z" stroke="#97A483" stroke-width="2" stroke-linecap="round" stroke-linejoin="round"/>
<path d="M7 7H15.5C15.5 7 19.5 9.07405 19.5 13.8996C19.5 18.7252 15.5 21 15.5 21H7C7 21 3.5 17.9892 3.5 14C3.5 10.0108 7 7 7 7Z" stroke="#97A483" stroke-opacity="0.2" stroke-width="2" stroke-linecap="round" stroke-linejoin="round"/>
<path d="M7 7H15.5C15.5 7 19.5 9.07405 19.5 13.8996C19.5 18.7252 15.5 21 15.5 21H7C7 21 3.5 17.9892 3.5 14C3.5 10.0108 7 7 7 7Z" stroke="#97A483" stroke-opacity="0.2" stroke-width="2" stroke-linecap="round" stroke-linejoin="round"/>
<path d="M7 7H15.5C15.5 7 19.5 9.07405 19.5 13.8996C19.5 18.7252 15.5 21 15.5 21H7C7 21 3.5 17.9892 3.5 14C3.5 10.0108 7 7 7 7Z" stroke="#97A483" stroke-opacity="0.2" stroke-width="2" stroke-linecap="round" stroke-linejoin="round"/>
<path d="M7 7H15.5C15.5 7 19.5 9.07405 19.5 13.8996C19.5 18.7252 15.5 21 15.5 21H7C7 21 3.5 17.9892 3.5 14C3.5 10.0108 7 7 7 7Z" stroke="#97A483" stroke-opacity="0.2" stroke-width="2" stroke-linecap="round" stroke-linejoin="round"/>
<path d="M19.5 13.9999C13 12.4999 10 16.9999 3.5 13.9999" stroke="#97A483" stroke-width="2" stroke-linecap="round" stroke-linejoin="round"/>
<path d="M19.5 13.9999C13 12.4999 10 16.9999 3.5 13.9999" stroke="#97A483" stroke-opacity="0.2" stroke-width="2" stroke-linecap="round" stroke-linejoin="round"/>
<path d="M19.5 13.9999C13 12.4999 10 16.9999 3.5 13.9999" stroke="#97A483" stroke-opacity="0.2" stroke-width="2" stroke-linecap="round" stroke-linejoin="round"/>
<path d="M19.5 13.9999C13 12.4999 10 16.9999 3.5 13.9999" stroke="#97A483" stroke-opacity="0.2" stroke-width="2" stroke-linecap="round" stroke-linejoin="round"/>
<path d="M19.5 13.9999C13 12.4999 10 16.9999 3.5 13.9999" stroke="#97A483" stroke-opacity="0.2" stroke-width="2" stroke-linecap="round" stroke-linejoin="round"/>
<path d="M16 7H20.5C20.5 7 22.5 9 22.5 15" stroke="#97A483" stroke-width="2" stroke-linecap="round" stroke-linejoin="round"/>
<path d="M16 7H20.5C20.5 7 22.5 9 22.5 15" stroke="#97A483" stroke-opacity="0.2" stroke-width="2" stroke-linecap="round" stroke-linejoin="round"/>
<path d="M16 7H20.5C20.5 7 22.5 9 22.5 15" stroke="#97A483" stroke-opacity="0.2" stroke-width="2" stroke-linecap="round" stroke-linejoin="round"/>
<path d="M16 7H20.5C20.5 7 22.5 9 22.5 15" stroke="#97A483" stroke-opacity="0.2" stroke-width="2" stroke-linecap="round" stroke-linejoin="round"/>
<path d="M16 7H20.5C20.5 7 22.5 9 22.5 15" stroke="#97A483" stroke-opacity="0.2" stroke-width="2" stroke-linecap="round" stroke-linejoin="round"/>
<path d="M5 3L16.5 4.33333L16 7H7L5 3Z" stroke="#97A483" stroke-width="2" stroke-linecap="round" stroke-linejoin="round"/>
<path d="M5 3L16.5 4.33333L16 7H7L5 3Z" stroke="#97A483" stroke-opacity="0.2" stroke-width="2" stroke-linecap="round" stroke-linejoin="round"/>
<path d="M5 3L16.5 4.33333L16 7H7L5 3Z" stroke="#97A483" stroke-opacity="0.2" stroke-width="2" stroke-linecap="round" stroke-linejoin="round"/>
<path d="M5 3L16.5 4.33333L16 7H7L5 3Z" stroke="#97A483" stroke-opacity="0.2" stroke-width="2" stroke-linecap="round" stroke-linejoin="round"/>
<path d="M5 3L16.5 4.33333L16 7H7L5 3Z" stroke="#97A483" stroke-opacity="0.2" stroke-width="2" stroke-linecap="round" stroke-linejoin="round"/>
</svg>
