<svg width="25" height="24" viewBox="0 0 25 24" fill="none" xmlns="http://www.w3.org/2000/svg">
<path d="M21.4525 18.3674H3.81982V21.796H21.4525V18.3674Z" stroke="#97A483" stroke-width="1.95918" stroke-linecap="round" stroke-linejoin="round"/>
<path d="M21.4525 18.3674H3.81982V21.796H21.4525V18.3674Z" stroke="#97A483" stroke-opacity="0.2" stroke-width="1.95918" stroke-linecap="round" stroke-linejoin="round"/>
<path d="M21.4525 18.3674H3.81982V21.796H21.4525V18.3674Z" stroke="#97A483" stroke-opacity="0.2" stroke-width="1.95918" stroke-linecap="round" stroke-linejoin="round"/>
<path d="M21.4525 18.3674H3.81982V21.796H21.4525V18.3674Z" stroke="#97A483" stroke-opacity="0.2" stroke-width="1.95918" stroke-linecap="round" stroke-linejoin="round"/>
<path d="M21.4525 18.3674H3.81982V21.796H21.4525V18.3674Z" stroke="#97A483" stroke-opacity="0.2" stroke-width="1.95918" stroke-linecap="round" stroke-linejoin="round"/>
<path d="M19.4931 17.8775L18.5135 5.14282H2.84009L6.05607 8.84044C6.31513 9.13828 6.44345 9.52782 6.41211 9.92132L5.77885 17.8775" stroke="#97A483" stroke-width="1.95918" stroke-linecap="round" stroke-linejoin="round"/>
<path d="M19.4931 17.8775L18.5135 5.14282H2.84009L6.05607 8.84044C6.31513 9.13828 6.44345 9.52782 6.41211 9.92132L5.77885 17.8775" stroke="#97A483" stroke-opacity="0.2" stroke-width="1.95918" stroke-linecap="round" stroke-linejoin="round"/>
<path d="M19.4931 17.8775L18.5135 5.14282H2.84009L6.05607 8.84044C6.31513 9.13828 6.44345 9.52782 6.41211 9.92132L5.77885 17.8775" stroke="#97A483" stroke-opacity="0.2" stroke-width="1.95918" stroke-linecap="round" stroke-linejoin="round"/>
<path d="M19.4931 17.8775L18.5135 5.14282H2.84009L6.05607 8.84044C6.31513 9.13828 6.44345 9.52782 6.41211 9.92132L5.77885 17.8775" stroke="#97A483" stroke-opacity="0.2" stroke-width="1.95918" stroke-linecap="round" stroke-linejoin="round"/>
<path d="M19.4931 17.8775L18.5135 5.14282H2.84009L6.05607 8.84044C6.31513 9.13828 6.44345 9.52782 6.41211 9.92132L5.77885 17.8775" stroke="#97A483" stroke-opacity="0.2" stroke-width="1.95918" stroke-linecap="round" stroke-linejoin="round"/>
<path d="M13.6157 9.06128H11.1667" stroke="#97A483" stroke-width="1.95918" stroke-linecap="round" stroke-linejoin="round"/>
<path d="M13.6157 9.06128H11.1667" stroke="#97A483" stroke-opacity="0.2" stroke-width="1.95918" stroke-linecap="round" stroke-linejoin="round"/>
<path d="M13.6157 9.06128H11.1667" stroke="#97A483" stroke-opacity="0.2" stroke-width="1.95918" stroke-linecap="round" stroke-linejoin="round"/>
<path d="M13.6157 9.06128H11.1667" stroke="#97A483" stroke-opacity="0.2" stroke-width="1.95918" stroke-linecap="round" stroke-linejoin="round"/>
<path d="M13.6157 9.06128H11.1667" stroke="#97A483" stroke-opacity="0.2" stroke-width="1.95918" stroke-linecap="round" stroke-linejoin="round"/>
<path d="M13.6157 12H11.1667" stroke="#97A483" stroke-width="1.95918" stroke-linecap="round" stroke-linejoin="round"/>
<path d="M13.6157 12H11.1667" stroke="#97A483" stroke-opacity="0.2" stroke-width="1.95918" stroke-linecap="round" stroke-linejoin="round"/>
<path d="M13.6157 12H11.1667" stroke="#97A483" stroke-opacity="0.2" stroke-width="1.95918" stroke-linecap="round" stroke-linejoin="round"/>
<path d="M13.6157 12H11.1667" stroke="#97A483" stroke-opacity="0.2" stroke-width="1.95918" stroke-linecap="round" stroke-linejoin="round"/>
<path d="M13.6157 12H11.1667" stroke="#97A483" stroke-opacity="0.2" stroke-width="1.95918" stroke-linecap="round" stroke-linejoin="round"/>
<path d="M13.6157 14.9387H11.1667" stroke="#97A483" stroke-width="1.95918" stroke-linecap="round" stroke-linejoin="round"/>
<path d="M13.6157 14.9387H11.1667" stroke="#97A483" stroke-opacity="0.2" stroke-width="1.95918" stroke-linecap="round" stroke-linejoin="round"/>
<path d="M13.6157 14.9387H11.1667" stroke="#97A483" stroke-opacity="0.2" stroke-width="1.95918" stroke-linecap="round" stroke-linejoin="round"/>
<path d="M13.6157 14.9387H11.1667" stroke="#97A483" stroke-opacity="0.2" stroke-width="1.95918" stroke-linecap="round" stroke-linejoin="round"/>
<path d="M13.6157 14.9387H11.1667" stroke="#97A483" stroke-opacity="0.2" stroke-width="1.95918" stroke-linecap="round" stroke-linejoin="round"/>
<path d="M18.5137 5.14282H22.432V12.9796H19.4933" stroke="#97A483" stroke-width="1.95918" stroke-linecap="round" stroke-linejoin="round"/>
<path d="M18.5137 5.14282H22.432V12.9796H19.4933" stroke="#97A483" stroke-opacity="0.2" stroke-width="1.95918" stroke-linecap="round" stroke-linejoin="round"/>
<path d="M18.5137 5.14282H22.432V12.9796H19.4933" stroke="#97A483" stroke-opacity="0.2" stroke-width="1.95918" stroke-linecap="round" stroke-linejoin="round"/>
<path d="M18.5137 5.14282H22.432V12.9796H19.4933" stroke="#97A483" stroke-opacity="0.2" stroke-width="1.95918" stroke-linecap="round" stroke-linejoin="round"/>
<path d="M18.5137 5.14282H22.432V12.9796H19.4933" stroke="#97A483" stroke-opacity="0.2" stroke-width="1.95918" stroke-linecap="round" stroke-linejoin="round"/>
<path d="M10.187 4.65308V2.2041H14.5952V4.65308" stroke="#97A483" stroke-width="1.95918" stroke-linecap="round" stroke-linejoin="round"/>
<path d="M10.187 4.65308V2.2041H14.5952V4.65308" stroke="#97A483" stroke-opacity="0.2" stroke-width="1.95918" stroke-linecap="round" stroke-linejoin="round"/>
<path d="M10.187 4.65308V2.2041H14.5952V4.65308" stroke="#97A483" stroke-opacity="0.2" stroke-width="1.95918" stroke-linecap="round" stroke-linejoin="round"/>
<path d="M10.187 4.65308V2.2041H14.5952V4.65308" stroke="#97A483" stroke-opacity="0.2" stroke-width="1.95918" stroke-linecap="round" stroke-linejoin="round"/>
<path d="M10.187 4.65308V2.2041H14.5952V4.65308" stroke="#97A483" stroke-opacity="0.2" stroke-width="1.95918" stroke-linecap="round" stroke-linejoin="round"/>
</svg>
