<svg width="25" height="24" viewBox="0 0 25 24" fill="none" xmlns="http://www.w3.org/2000/svg">
<path d="M21.5 6H3.5C2.94771 6 2.5 6.4477 2.5 7V20C2.5 20.5523 2.94771 21 3.5 21H21.5C22.0523 21 22.5 20.5523 22.5 20V7C22.5 6.4477 22.0523 6 21.5 6Z" stroke="#97A483" stroke-width="2" stroke-linejoin="round"/>
<path d="M21.5 6H3.5C2.94771 6 2.5 6.4477 2.5 7V20C2.5 20.5523 2.94771 21 3.5 21H21.5C22.0523 21 22.5 20.5523 22.5 20V7C22.5 6.4477 22.0523 6 21.5 6Z" stroke="#97A483" stroke-opacity="0.2" stroke-width="2" stroke-linejoin="round"/>
<path d="M21.5 6H3.5C2.94771 6 2.5 6.4477 2.5 7V20C2.5 20.5523 2.94771 21 3.5 21H21.5C22.0523 21 22.5 20.5523 22.5 20V7C22.5 6.4477 22.0523 6 21.5 6Z" stroke="#97A483" stroke-opacity="0.2" stroke-width="2" stroke-linejoin="round"/>
<path d="M21.5 6H3.5C2.94771 6 2.5 6.4477 2.5 7V20C2.5 20.5523 2.94771 21 3.5 21H21.5C22.0523 21 22.5 20.5523 22.5 20V7C22.5 6.4477 22.0523 6 21.5 6Z" stroke="#97A483" stroke-opacity="0.2" stroke-width="2" stroke-linejoin="round"/>
<path d="M21.5 6H3.5C2.94771 6 2.5 6.4477 2.5 7V20C2.5 20.5523 2.94771 21 3.5 21H21.5C22.0523 21 22.5 20.5523 22.5 20V7C22.5 6.4477 22.0523 6 21.5 6Z" stroke="#97A483" stroke-opacity="0.2" stroke-width="2" stroke-linejoin="round"/>
<path d="M16 9.5H6V17.5H16V9.5Z" stroke="#97A483" stroke-width="2" stroke-linejoin="round"/>
<path d="M16 9.5H6V17.5H16V9.5Z" stroke="#97A483" stroke-opacity="0.2" stroke-width="2" stroke-linejoin="round"/>
<path d="M16 9.5H6V17.5H16V9.5Z" stroke="#97A483" stroke-opacity="0.2" stroke-width="2" stroke-linejoin="round"/>
<path d="M16 9.5H6V17.5H16V9.5Z" stroke="#97A483" stroke-opacity="0.2" stroke-width="2" stroke-linejoin="round"/>
<path d="M16 9.5H6V17.5H16V9.5Z" stroke="#97A483" stroke-opacity="0.2" stroke-width="2" stroke-linejoin="round"/>
<path d="M19.5 9V9.5" stroke="#97A483" stroke-width="2" stroke-linecap="round" stroke-linejoin="round"/>
<path d="M19.5 9V9.5" stroke="#97A483" stroke-opacity="0.2" stroke-width="2" stroke-linecap="round" stroke-linejoin="round"/>
<path d="M19.5 9V9.5" stroke="#97A483" stroke-opacity="0.2" stroke-width="2" stroke-linecap="round" stroke-linejoin="round"/>
<path d="M19.5 9V9.5" stroke="#97A483" stroke-opacity="0.2" stroke-width="2" stroke-linecap="round" stroke-linejoin="round"/>
<path d="M19.5 9V9.5" stroke="#97A483" stroke-opacity="0.2" stroke-width="2" stroke-linecap="round" stroke-linejoin="round"/>
<path d="M19.5 12.5V13" stroke="#97A483" stroke-width="2" stroke-linecap="round" stroke-linejoin="round"/>
<path d="M19.5 12.5V13" stroke="#97A483" stroke-opacity="0.2" stroke-width="2" stroke-linecap="round" stroke-linejoin="round"/>
<path d="M19.5 12.5V13" stroke="#97A483" stroke-opacity="0.2" stroke-width="2" stroke-linecap="round" stroke-linejoin="round"/>
<path d="M19.5 12.5V13" stroke="#97A483" stroke-opacity="0.2" stroke-width="2" stroke-linecap="round" stroke-linejoin="round"/>
<path d="M19.5 12.5V13" stroke="#97A483" stroke-opacity="0.2" stroke-width="2" stroke-linecap="round" stroke-linejoin="round"/>
</svg>
