<svg width="25" height="24" viewBox="0 0 25 24" fill="none" xmlns="http://www.w3.org/2000/svg">
<path d="M18 2H6C5.44772 2 5 2.44772 5 3V19C5 19.5523 5.44772 20 6 20H18C18.5523 20 19 19.5523 19 19V3C19 2.44772 18.5523 2 18 2Z" stroke="#97A483" stroke-width="2" stroke-linejoin="round"/>
<path d="M18 2H6C5.44772 2 5 2.44772 5 3V19C5 19.5523 5.44772 20 6 20H18C18.5523 20 19 19.5523 19 19V3C19 2.44772 18.5523 2 18 2Z" stroke="#97A483" stroke-opacity="0.2" stroke-width="2" stroke-linejoin="round"/>
<path d="M18 2H6C5.44772 2 5 2.44772 5 3V19C5 19.5523 5.44772 20 6 20H18C18.5523 20 19 19.5523 19 19V3C19 2.44772 18.5523 2 18 2Z" stroke="#97A483" stroke-opacity="0.2" stroke-width="2" stroke-linejoin="round"/>
<path d="M18 2H6C5.44772 2 5 2.44772 5 3V19C5 19.5523 5.44772 20 6 20H18C18.5523 20 19 19.5523 19 19V3C19 2.44772 18.5523 2 18 2Z" stroke="#97A483" stroke-opacity="0.2" stroke-width="2" stroke-linejoin="round"/>
<path d="M18 2H6C5.44772 2 5 2.44772 5 3V19C5 19.5523 5.44772 20 6 20H18C18.5523 20 19 19.5523 19 19V3C19 2.44772 18.5523 2 18 2Z" stroke="#97A483" stroke-opacity="0.2" stroke-width="2" stroke-linejoin="round"/>
<path d="M5 11H19" stroke="#97A483" stroke-width="2" stroke-linecap="round" stroke-linejoin="round"/>
<path d="M5 11H19" stroke="#97A483" stroke-opacity="0.2" stroke-width="2" stroke-linecap="round" stroke-linejoin="round"/>
<path d="M5 11H19" stroke="#97A483" stroke-opacity="0.2" stroke-width="2" stroke-linecap="round" stroke-linejoin="round"/>
<path d="M5 11H19" stroke="#97A483" stroke-opacity="0.2" stroke-width="2" stroke-linecap="round" stroke-linejoin="round"/>
<path d="M5 11H19" stroke="#97A483" stroke-opacity="0.2" stroke-width="2" stroke-linecap="round" stroke-linejoin="round"/>
<path d="M5 10V12" stroke="#97A483" stroke-width="2" stroke-linecap="round" stroke-linejoin="round"/>
<path d="M5 10V12" stroke="#97A483" stroke-opacity="0.2" stroke-width="2" stroke-linecap="round" stroke-linejoin="round"/>
<path d="M5 10V12" stroke="#97A483" stroke-opacity="0.2" stroke-width="2" stroke-linecap="round" stroke-linejoin="round"/>
<path d="M5 10V12" stroke="#97A483" stroke-opacity="0.2" stroke-width="2" stroke-linecap="round" stroke-linejoin="round"/>
<path d="M5 10V12" stroke="#97A483" stroke-opacity="0.2" stroke-width="2" stroke-linecap="round" stroke-linejoin="round"/>
<path d="M19 10V12" stroke="#97A483" stroke-width="2" stroke-linecap="round" stroke-linejoin="round"/>
<path d="M19 10V12" stroke="#97A483" stroke-opacity="0.2" stroke-width="2" stroke-linecap="round" stroke-linejoin="round"/>
<path d="M19 10V12" stroke="#97A483" stroke-opacity="0.2" stroke-width="2" stroke-linecap="round" stroke-linejoin="round"/>
<path d="M19 10V12" stroke="#97A483" stroke-opacity="0.2" stroke-width="2" stroke-linecap="round" stroke-linejoin="round"/>
<path d="M19 10V12" stroke="#97A483" stroke-opacity="0.2" stroke-width="2" stroke-linecap="round" stroke-linejoin="round"/>
<path d="M8 14.5V16.5" stroke="#97A483" stroke-width="2" stroke-linecap="round" stroke-linejoin="round"/>
<path d="M8 14.5V16.5" stroke="#97A483" stroke-opacity="0.2" stroke-width="2" stroke-linecap="round" stroke-linejoin="round"/>
<path d="M8 14.5V16.5" stroke="#97A483" stroke-opacity="0.2" stroke-width="2" stroke-linecap="round" stroke-linejoin="round"/>
<path d="M8 14.5V16.5" stroke="#97A483" stroke-opacity="0.2" stroke-width="2" stroke-linecap="round" stroke-linejoin="round"/>
<path d="M8 14.5V16.5" stroke="#97A483" stroke-opacity="0.2" stroke-width="2" stroke-linecap="round" stroke-linejoin="round"/>
<path d="M8 5.5V7.5" stroke="#97A483" stroke-width="2" stroke-linecap="round" stroke-linejoin="round"/>
<path d="M8 5.5V7.5" stroke="#97A483" stroke-opacity="0.2" stroke-width="2" stroke-linecap="round" stroke-linejoin="round"/>
<path d="M8 5.5V7.5" stroke="#97A483" stroke-opacity="0.2" stroke-width="2" stroke-linecap="round" stroke-linejoin="round"/>
<path d="M8 5.5V7.5" stroke="#97A483" stroke-opacity="0.2" stroke-width="2" stroke-linecap="round" stroke-linejoin="round"/>
<path d="M8 5.5V7.5" stroke="#97A483" stroke-opacity="0.2" stroke-width="2" stroke-linecap="round" stroke-linejoin="round"/>
<path d="M17 20V22" stroke="#97A483" stroke-width="2" stroke-linecap="round" stroke-linejoin="round"/>
<path d="M17 20V22" stroke="#97A483" stroke-opacity="0.2" stroke-width="2" stroke-linecap="round" stroke-linejoin="round"/>
<path d="M17 20V22" stroke="#97A483" stroke-opacity="0.2" stroke-width="2" stroke-linecap="round" stroke-linejoin="round"/>
<path d="M17 20V22" stroke="#97A483" stroke-opacity="0.2" stroke-width="2" stroke-linecap="round" stroke-linejoin="round"/>
<path d="M17 20V22" stroke="#97A483" stroke-opacity="0.2" stroke-width="2" stroke-linecap="round" stroke-linejoin="round"/>
<path d="M7 20V22" stroke="#97A483" stroke-width="2" stroke-linecap="round" stroke-linejoin="round"/>
<path d="M7 20V22" stroke="#97A483" stroke-opacity="0.2" stroke-width="2" stroke-linecap="round" stroke-linejoin="round"/>
<path d="M7 20V22" stroke="#97A483" stroke-opacity="0.2" stroke-width="2" stroke-linecap="round" stroke-linejoin="round"/>
<path d="M7 20V22" stroke="#97A483" stroke-opacity="0.2" stroke-width="2" stroke-linecap="round" stroke-linejoin="round"/>
<path d="M7 20V22" stroke="#97A483" stroke-opacity="0.2" stroke-width="2" stroke-linecap="round" stroke-linejoin="round"/>
</svg>
