<svg width="25" height="24" viewBox="0 0 25 24" fill="none" xmlns="http://www.w3.org/2000/svg">
<path d="M14 10V11H5V10C5 8.34315 7.0147 7 9.5 7C11.9853 7 14 8.34315 14 10Z" stroke="#97A483" stroke-width="2" stroke-linecap="round" stroke-linejoin="round"/>
<path d="M14 10V11H5V10C5 8.34315 7.0147 7 9.5 7C11.9853 7 14 8.34315 14 10Z" stroke="#97A483" stroke-opacity="0.2" stroke-width="2" stroke-linecap="round" stroke-linejoin="round"/>
<path d="M14 10V11H5V10C5 8.34315 7.0147 7 9.5 7C11.9853 7 14 8.34315 14 10Z" stroke="#97A483" stroke-opacity="0.2" stroke-width="2" stroke-linecap="round" stroke-linejoin="round"/>
<path d="M14 10V11H5V10C5 8.34315 7.0147 7 9.5 7C11.9853 7 14 8.34315 14 10Z" stroke="#97A483" stroke-opacity="0.2" stroke-width="2" stroke-linecap="round" stroke-linejoin="round"/>
<path d="M14 10V11H5V10C5 8.34315 7.0147 7 9.5 7C11.9853 7 14 8.34315 14 10Z" stroke="#97A483" stroke-opacity="0.2" stroke-width="2" stroke-linecap="round" stroke-linejoin="round"/>
<path d="M21.5 22V6.25C21.5 3.90279 18.8137 2 15.5 2C12.1863 2 9.5 3.90279 9.5 6.25V7" stroke="#97A483" stroke-width="2" stroke-linecap="round" stroke-linejoin="round"/>
<path d="M21.5 22V6.25C21.5 3.90279 18.8137 2 15.5 2C12.1863 2 9.5 3.90279 9.5 6.25V7" stroke="#97A483" stroke-opacity="0.2" stroke-width="2" stroke-linecap="round" stroke-linejoin="round"/>
<path d="M21.5 22V6.25C21.5 3.90279 18.8137 2 15.5 2C12.1863 2 9.5 3.90279 9.5 6.25V7" stroke="#97A483" stroke-opacity="0.2" stroke-width="2" stroke-linecap="round" stroke-linejoin="round"/>
<path d="M21.5 22V6.25C21.5 3.90279 18.8137 2 15.5 2C12.1863 2 9.5 3.90279 9.5 6.25V7" stroke="#97A483" stroke-opacity="0.2" stroke-width="2" stroke-linecap="round" stroke-linejoin="round"/>
<path d="M21.5 22V6.25C21.5 3.90279 18.8137 2 15.5 2C12.1863 2 9.5 3.90279 9.5 6.25V7" stroke="#97A483" stroke-opacity="0.2" stroke-width="2" stroke-linecap="round" stroke-linejoin="round"/>
<path d="M9.5 14.5V14" stroke="#97A483" stroke-width="2" stroke-linecap="round" stroke-linejoin="round"/>
<path d="M9.5 14.5V14" stroke="#97A483" stroke-opacity="0.2" stroke-width="2" stroke-linecap="round" stroke-linejoin="round"/>
<path d="M9.5 14.5V14" stroke="#97A483" stroke-opacity="0.2" stroke-width="2" stroke-linecap="round" stroke-linejoin="round"/>
<path d="M9.5 14.5V14" stroke="#97A483" stroke-opacity="0.2" stroke-width="2" stroke-linecap="round" stroke-linejoin="round"/>
<path d="M9.5 14.5V14" stroke="#97A483" stroke-opacity="0.2" stroke-width="2" stroke-linecap="round" stroke-linejoin="round"/>
<path d="M5.58555 14.0151L5.41455 14.485" stroke="#97A483" stroke-width="2" stroke-linecap="round" stroke-linejoin="round"/>
<path d="M5.58555 14.0151L5.41455 14.485" stroke="#97A483" stroke-opacity="0.2" stroke-width="2" stroke-linecap="round" stroke-linejoin="round"/>
<path d="M5.58555 14.0151L5.41455 14.485" stroke="#97A483" stroke-opacity="0.2" stroke-width="2" stroke-linecap="round" stroke-linejoin="round"/>
<path d="M5.58555 14.0151L5.41455 14.485" stroke="#97A483" stroke-opacity="0.2" stroke-width="2" stroke-linecap="round" stroke-linejoin="round"/>
<path d="M5.58555 14.0151L5.41455 14.485" stroke="#97A483" stroke-opacity="0.2" stroke-width="2" stroke-linecap="round" stroke-linejoin="round"/>
<path d="M2.58556 21.5151L2.41455 21.985" stroke="#97A483" stroke-width="2" stroke-linecap="round" stroke-linejoin="round"/>
<path d="M2.58556 21.5151L2.41455 21.985" stroke="#97A483" stroke-opacity="0.2" stroke-width="2" stroke-linecap="round" stroke-linejoin="round"/>
<path d="M2.58556 21.5151L2.41455 21.985" stroke="#97A483" stroke-opacity="0.2" stroke-width="2" stroke-linecap="round" stroke-linejoin="round"/>
<path d="M2.58556 21.5151L2.41455 21.985" stroke="#97A483" stroke-opacity="0.2" stroke-width="2" stroke-linecap="round" stroke-linejoin="round"/>
<path d="M2.58556 21.5151L2.41455 21.985" stroke="#97A483" stroke-opacity="0.2" stroke-width="2" stroke-linecap="round" stroke-linejoin="round"/>
<path d="M9.5 22V21.5" stroke="#97A483" stroke-width="2" stroke-linecap="round" stroke-linejoin="round"/>
<path d="M9.5 22V21.5" stroke="#97A483" stroke-opacity="0.2" stroke-width="2" stroke-linecap="round" stroke-linejoin="round"/>
<path d="M9.5 22V21.5" stroke="#97A483" stroke-opacity="0.2" stroke-width="2" stroke-linecap="round" stroke-linejoin="round"/>
<path d="M9.5 22V21.5" stroke="#97A483" stroke-opacity="0.2" stroke-width="2" stroke-linecap="round" stroke-linejoin="round"/>
<path d="M9.5 22V21.5" stroke="#97A483" stroke-opacity="0.2" stroke-width="2" stroke-linecap="round" stroke-linejoin="round"/>
<path d="M9.5 18.5V17.5" stroke="#97A483" stroke-width="2" stroke-linecap="round" stroke-linejoin="round"/>
<path d="M9.5 18.5V17.5" stroke="#97A483" stroke-opacity="0.2" stroke-width="2" stroke-linecap="round" stroke-linejoin="round"/>
<path d="M9.5 18.5V17.5" stroke="#97A483" stroke-opacity="0.2" stroke-width="2" stroke-linecap="round" stroke-linejoin="round"/>
<path d="M9.5 18.5V17.5" stroke="#97A483" stroke-opacity="0.2" stroke-width="2" stroke-linecap="round" stroke-linejoin="round"/>
<path d="M9.5 18.5V17.5" stroke="#97A483" stroke-opacity="0.2" stroke-width="2" stroke-linecap="round" stroke-linejoin="round"/>
<path d="M4.17112 17.53L3.8291 18.4697" stroke="#97A483" stroke-width="2" stroke-linecap="round" stroke-linejoin="round"/>
<path d="M4.17112 17.53L3.8291 18.4697" stroke="#97A483" stroke-opacity="0.2" stroke-width="2" stroke-linecap="round" stroke-linejoin="round"/>
<path d="M4.17112 17.53L3.8291 18.4697" stroke="#97A483" stroke-opacity="0.2" stroke-width="2" stroke-linecap="round" stroke-linejoin="round"/>
<path d="M4.17112 17.53L3.8291 18.4697" stroke="#97A483" stroke-opacity="0.2" stroke-width="2" stroke-linecap="round" stroke-linejoin="round"/>
<path d="M4.17112 17.53L3.8291 18.4697" stroke="#97A483" stroke-opacity="0.2" stroke-width="2" stroke-linecap="round" stroke-linejoin="round"/>
</svg>
