<svg width="25" height="24" viewBox="0 0 25 24" fill="none" xmlns="http://www.w3.org/2000/svg">
<path d="M4.5 21H19C19.8285 21 20.5 20.3285 20.5 19.5V4.5C20.5 3.67158 19.8285 3 19 3H9" stroke="#97A483" stroke-width="2" stroke-linecap="round" stroke-linejoin="round"/>
<path d="M4.5 21H19C19.8285 21 20.5 20.3285 20.5 19.5V4.5C20.5 3.67158 19.8285 3 19 3H9" stroke="#97A483" stroke-opacity="0.2" stroke-width="2" stroke-linecap="round" stroke-linejoin="round"/>
<path d="M4.5 21H19C19.8285 21 20.5 20.3285 20.5 19.5V4.5C20.5 3.67158 19.8285 3 19 3H9" stroke="#97A483" stroke-opacity="0.2" stroke-width="2" stroke-linecap="round" stroke-linejoin="round"/>
<path d="M4.5 21H19C19.8285 21 20.5 20.3285 20.5 19.5V4.5C20.5 3.67158 19.8285 3 19 3H9" stroke="#97A483" stroke-opacity="0.2" stroke-width="2" stroke-linecap="round" stroke-linejoin="round"/>
<path d="M4.5 21H19C19.8285 21 20.5 20.3285 20.5 19.5V4.5C20.5 3.67158 19.8285 3 19 3H9" stroke="#97A483" stroke-opacity="0.2" stroke-width="2" stroke-linecap="round" stroke-linejoin="round"/>
<path d="M11.5 18C14.2614 18 16.5 15.7614 16.5 13H6.5C6.5 15.7614 8.7386 18 11.5 18Z" stroke="#97A483" stroke-width="2" stroke-linejoin="round"/>
<path d="M11.5 18C14.2614 18 16.5 15.7614 16.5 13H6.5C6.5 15.7614 8.7386 18 11.5 18Z" stroke="#97A483" stroke-opacity="0.2" stroke-width="2" stroke-linejoin="round"/>
<path d="M11.5 18C14.2614 18 16.5 15.7614 16.5 13H6.5C6.5 15.7614 8.7386 18 11.5 18Z" stroke="#97A483" stroke-opacity="0.2" stroke-width="2" stroke-linejoin="round"/>
<path d="M11.5 18C14.2614 18 16.5 15.7614 16.5 13H6.5C6.5 15.7614 8.7386 18 11.5 18Z" stroke="#97A483" stroke-opacity="0.2" stroke-width="2" stroke-linejoin="round"/>
<path d="M11.5 18C14.2614 18 16.5 15.7614 16.5 13H6.5C6.5 15.7614 8.7386 18 11.5 18Z" stroke="#97A483" stroke-opacity="0.2" stroke-width="2" stroke-linejoin="round"/>
<path d="M8.5 9V10" stroke="#97A483" stroke-width="2" stroke-linecap="round" stroke-linejoin="round"/>
<path d="M8.5 9V10" stroke="#97A483" stroke-opacity="0.2" stroke-width="2" stroke-linecap="round" stroke-linejoin="round"/>
<path d="M8.5 9V10" stroke="#97A483" stroke-opacity="0.2" stroke-width="2" stroke-linecap="round" stroke-linejoin="round"/>
<path d="M8.5 9V10" stroke="#97A483" stroke-opacity="0.2" stroke-width="2" stroke-linecap="round" stroke-linejoin="round"/>
<path d="M8.5 9V10" stroke="#97A483" stroke-opacity="0.2" stroke-width="2" stroke-linecap="round" stroke-linejoin="round"/>
<path d="M11.5 9V10" stroke="#97A483" stroke-width="2" stroke-linecap="round" stroke-linejoin="round"/>
<path d="M11.5 9V10" stroke="#97A483" stroke-opacity="0.2" stroke-width="2" stroke-linecap="round" stroke-linejoin="round"/>
<path d="M11.5 9V10" stroke="#97A483" stroke-opacity="0.2" stroke-width="2" stroke-linecap="round" stroke-linejoin="round"/>
<path d="M11.5 9V10" stroke="#97A483" stroke-opacity="0.2" stroke-width="2" stroke-linecap="round" stroke-linejoin="round"/>
<path d="M11.5 9V10" stroke="#97A483" stroke-opacity="0.2" stroke-width="2" stroke-linecap="round" stroke-linejoin="round"/>
<path d="M14.5 9V10" stroke="#97A483" stroke-width="2" stroke-linecap="round" stroke-linejoin="round"/>
<path d="M14.5 9V10" stroke="#97A483" stroke-opacity="0.2" stroke-width="2" stroke-linecap="round" stroke-linejoin="round"/>
<path d="M14.5 9V10" stroke="#97A483" stroke-opacity="0.2" stroke-width="2" stroke-linecap="round" stroke-linejoin="round"/>
<path d="M14.5 9V10" stroke="#97A483" stroke-opacity="0.2" stroke-width="2" stroke-linecap="round" stroke-linejoin="round"/>
<path d="M14.5 9V10" stroke="#97A483" stroke-opacity="0.2" stroke-width="2" stroke-linecap="round" stroke-linejoin="round"/>
</svg>
