<svg width="25" height="24" viewBox="0 0 25 24" fill="none" xmlns="http://www.w3.org/2000/svg">
<path d="M22.5 14.5H2.5V21H22.5V14.5Z" stroke="#97A483" stroke-width="2" stroke-linejoin="round"/>
<path d="M22.5 14.5H2.5V21H22.5V14.5Z" stroke="#97A483" stroke-opacity="0.2" stroke-width="2" stroke-linejoin="round"/>
<path d="M22.5 14.5H2.5V21H22.5V14.5Z" stroke="#97A483" stroke-opacity="0.2" stroke-width="2" stroke-linejoin="round"/>
<path d="M22.5 14.5H2.5V21H22.5V14.5Z" stroke="#97A483" stroke-opacity="0.2" stroke-width="2" stroke-linejoin="round"/>
<path d="M22.5 14.5H2.5V21H22.5V14.5Z" stroke="#97A483" stroke-opacity="0.2" stroke-width="2" stroke-linejoin="round"/>
<path d="M2.5 14.4999L5.01919 2.49951H20.0103L22.5 14.4999" stroke="#97A483" stroke-width="2" stroke-linejoin="round"/>
<path d="M2.5 14.4999L5.01919 2.49951H20.0103L22.5 14.4999" stroke="#97A483" stroke-opacity="0.2" stroke-width="2" stroke-linejoin="round"/>
<path d="M2.5 14.4999L5.01919 2.49951H20.0103L22.5 14.4999" stroke="#97A483" stroke-opacity="0.2" stroke-width="2" stroke-linejoin="round"/>
<path d="M2.5 14.4999L5.01919 2.49951H20.0103L22.5 14.4999" stroke="#97A483" stroke-opacity="0.2" stroke-width="2" stroke-linejoin="round"/>
<path d="M2.5 14.4999L5.01919 2.49951H20.0103L22.5 14.4999" stroke="#97A483" stroke-opacity="0.2" stroke-width="2" stroke-linejoin="round"/>
<path d="M10 6C8.6193 6 7.5 7.1193 7.5 8.5C7.5 9.8807 8.6193 11 10 11" stroke="#97A483" stroke-width="2" stroke-linecap="round"/>
<path d="M10 6C8.6193 6 7.5 7.1193 7.5 8.5C7.5 9.8807 8.6193 11 10 11" stroke="#97A483" stroke-opacity="0.2" stroke-width="2" stroke-linecap="round"/>
<path d="M10 6C8.6193 6 7.5 7.1193 7.5 8.5C7.5 9.8807 8.6193 11 10 11" stroke="#97A483" stroke-opacity="0.2" stroke-width="2" stroke-linecap="round"/>
<path d="M10 6C8.6193 6 7.5 7.1193 7.5 8.5C7.5 9.8807 8.6193 11 10 11" stroke="#97A483" stroke-opacity="0.2" stroke-width="2" stroke-linecap="round"/>
<path d="M10 6C8.6193 6 7.5 7.1193 7.5 8.5C7.5 9.8807 8.6193 11 10 11" stroke="#97A483" stroke-opacity="0.2" stroke-width="2" stroke-linecap="round"/>
<path d="M15 11C16.3807 11 17.5 9.8807 17.5 8.5C17.5 7.1193 16.3807 6 15 6" stroke="#97A483" stroke-width="2" stroke-linecap="round"/>
<path d="M15 11C16.3807 11 17.5 9.8807 17.5 8.5C17.5 7.1193 16.3807 6 15 6" stroke="#97A483" stroke-opacity="0.2" stroke-width="2" stroke-linecap="round"/>
<path d="M15 11C16.3807 11 17.5 9.8807 17.5 8.5C17.5 7.1193 16.3807 6 15 6" stroke="#97A483" stroke-opacity="0.2" stroke-width="2" stroke-linecap="round"/>
<path d="M15 11C16.3807 11 17.5 9.8807 17.5 8.5C17.5 7.1193 16.3807 6 15 6" stroke="#97A483" stroke-opacity="0.2" stroke-width="2" stroke-linecap="round"/>
<path d="M15 11C16.3807 11 17.5 9.8807 17.5 8.5C17.5 7.1193 16.3807 6 15 6" stroke="#97A483" stroke-opacity="0.2" stroke-width="2" stroke-linecap="round"/>
<path d="M10.5 8.5H14.5" stroke="#97A483" stroke-width="2" stroke-linecap="round"/>
<path d="M10.5 8.5H14.5" stroke="#97A483" stroke-opacity="0.2" stroke-width="2" stroke-linecap="round"/>
<path d="M10.5 8.5H14.5" stroke="#97A483" stroke-opacity="0.2" stroke-width="2" stroke-linecap="round"/>
<path d="M10.5 8.5H14.5" stroke="#97A483" stroke-opacity="0.2" stroke-width="2" stroke-linecap="round"/>
<path d="M10.5 8.5H14.5" stroke="#97A483" stroke-opacity="0.2" stroke-width="2" stroke-linecap="round"/>
</svg>
