<svg width="24" height="20" viewBox="-2.5 0 24 20" fill="none" xmlns="http://www.w3.org/2000/svg">
<path d="M12.6426 18.177H6.30924C3.60174 18.177 2.54883 17.1241 2.54883 14.4166V8.08325C2.54883 7.75867 2.81799 7.4895 3.14258 7.4895H15.8092C16.1338 7.4895 16.403 7.75867 16.403 8.08325V14.4166C16.403 17.1241 15.3501 18.177 12.6426 18.177ZM3.73633 8.677V14.4166C3.73633 16.4591 4.26674 16.9895 6.30924 16.9895H12.6426C14.6851 16.9895 15.2155 16.4591 15.2155 14.4166V8.677H3.73633Z" fill="#97A483"/>
<path d="M12.6426 18.177H6.30924C3.60174 18.177 2.54883 17.1241 2.54883 14.4166V8.08325C2.54883 7.75867 2.81799 7.4895 3.14258 7.4895H15.8092C16.1338 7.4895 16.403 7.75867 16.403 8.08325V14.4166C16.403 17.1241 15.3501 18.177 12.6426 18.177ZM3.73633 8.677V14.4166C3.73633 16.4591 4.26674 16.9895 6.30924 16.9895H12.6426C14.6851 16.9895 15.2155 16.4591 15.2155 14.4166V8.677H3.73633Z" fill="#97A483" fill-opacity="0.2"/>
<path d="M12.6426 18.177H6.30924C3.60174 18.177 2.54883 17.1241 2.54883 14.4166V8.08325C2.54883 7.75867 2.81799 7.4895 3.14258 7.4895H15.8092C16.1338 7.4895 16.403 7.75867 16.403 8.08325V14.4166C16.403 17.1241 15.3501 18.177 12.6426 18.177ZM3.73633 8.677V14.4166C3.73633 16.4591 4.26674 16.9895 6.30924 16.9895H12.6426C14.6851 16.9895 15.2155 16.4591 15.2155 14.4166V8.677H3.73633Z" fill="#97A483" fill-opacity="0.2"/>
<path d="M12.6426 18.177H6.30924C3.60174 18.177 2.54883 17.1241 2.54883 14.4166V8.08325C2.54883 7.75867 2.81799 7.4895 3.14258 7.4895H15.8092C16.1338 7.4895 16.403 7.75867 16.403 8.08325V14.4166C16.403 17.1241 15.3501 18.177 12.6426 18.177ZM3.73633 8.677V14.4166C3.73633 16.4591 4.26674 16.9895 6.30924 16.9895H12.6426C14.6851 16.9895 15.2155 16.4591 15.2155 14.4166V8.677H3.73633Z" fill="#97A483" fill-opacity="0.2"/>
<path d="M12.6426 18.177H6.30924C3.60174 18.177 2.54883 17.1241 2.54883 14.4166V8.08325C2.54883 7.75867 2.81799 7.4895 3.14258 7.4895H15.8092C16.1338 7.4895 16.403 7.75867 16.403 8.08325V14.4166C16.403 17.1241 15.3501 18.177 12.6426 18.177ZM3.73633 8.677V14.4166C3.73633 16.4591 4.26674 16.9895 6.30924 16.9895H12.6426C14.6851 16.9895 15.2155 16.4591 15.2155 14.4166V8.677H3.73633Z" fill="#97A483" fill-opacity="0.2"/>
<path d="M15.4378 8.67684H3.56283C2.17741 8.67684 1.38574 7.88517 1.38574 6.49976V5.70809C1.38574 4.32267 2.17741 3.53101 3.56283 3.53101H15.4378C16.7837 3.53101 17.6149 4.36226 17.6149 5.70809V6.49976C17.6149 7.84559 16.7837 8.67684 15.4378 8.67684ZM3.56283 4.71851C2.84241 4.71851 2.57324 4.98767 2.57324 5.70809V6.49976C2.57324 7.22017 2.84241 7.48934 3.56283 7.48934H15.4378C16.1345 7.48934 16.4274 7.19642 16.4274 6.49976V5.70809C16.4274 5.01142 16.1345 4.71851 15.4378 4.71851H3.56283Z" fill="#97A483"/>
<path d="M15.4378 8.67684H3.56283C2.17741 8.67684 1.38574 7.88517 1.38574 6.49976V5.70809C1.38574 4.32267 2.17741 3.53101 3.56283 3.53101H15.4378C16.7837 3.53101 17.6149 4.36226 17.6149 5.70809V6.49976C17.6149 7.84559 16.7837 8.67684 15.4378 8.67684ZM3.56283 4.71851C2.84241 4.71851 2.57324 4.98767 2.57324 5.70809V6.49976C2.57324 7.22017 2.84241 7.48934 3.56283 7.48934H15.4378C16.1345 7.48934 16.4274 7.19642 16.4274 6.49976V5.70809C16.4274 5.01142 16.1345 4.71851 15.4378 4.71851H3.56283Z" fill="#97A483" fill-opacity="0.2"/>
<path d="M15.4378 8.67684H3.56283C2.17741 8.67684 1.38574 7.88517 1.38574 6.49976V5.70809C1.38574 4.32267 2.17741 3.53101 3.56283 3.53101H15.4378C16.7837 3.53101 17.6149 4.36226 17.6149 5.70809V6.49976C17.6149 7.84559 16.7837 8.67684 15.4378 8.67684ZM3.56283 4.71851C2.84241 4.71851 2.57324 4.98767 2.57324 5.70809V6.49976C2.57324 7.22017 2.84241 7.48934 3.56283 7.48934H15.4378C16.1345 7.48934 16.4274 7.19642 16.4274 6.49976V5.70809C16.4274 5.01142 16.1345 4.71851 15.4378 4.71851H3.56283Z" fill="#97A483" fill-opacity="0.2"/>
<path d="M15.4378 8.67684H3.56283C2.17741 8.67684 1.38574 7.88517 1.38574 6.49976V5.70809C1.38574 4.32267 2.17741 3.53101 3.56283 3.53101H15.4378C16.7837 3.53101 17.6149 4.36226 17.6149 5.70809V6.49976C17.6149 7.84559 16.7837 8.67684 15.4378 8.67684ZM3.56283 4.71851C2.84241 4.71851 2.57324 4.98767 2.57324 5.70809V6.49976C2.57324 7.22017 2.84241 7.48934 3.56283 7.48934H15.4378C16.1345 7.48934 16.4274 7.19642 16.4274 6.49976V5.70809C16.4274 5.01142 16.1345 4.71851 15.4378 4.71851H3.56283Z" fill="#97A483" fill-opacity="0.2"/>
<path d="M15.4378 8.67684H3.56283C2.17741 8.67684 1.38574 7.88517 1.38574 6.49976V5.70809C1.38574 4.32267 2.17741 3.53101 3.56283 3.53101H15.4378C16.7837 3.53101 17.6149 4.36226 17.6149 5.70809V6.49976C17.6149 7.84559 16.7837 8.67684 15.4378 8.67684ZM3.56283 4.71851C2.84241 4.71851 2.57324 4.98767 2.57324 5.70809V6.49976C2.57324 7.22017 2.84241 7.48934 3.56283 7.48934H15.4378C16.1345 7.48934 16.4274 7.19642 16.4274 6.49976V5.70809C16.4274 5.01142 16.1345 4.71851 15.4378 4.71851H3.56283Z" fill="#97A483" fill-opacity="0.2"/>
<path d="M9.21463 4.7187H4.84463C4.67838 4.7187 4.52004 4.64745 4.40921 4.5287C3.92629 3.99828 3.94213 3.18286 4.44879 2.6762L5.57296 1.55203C6.09546 1.02953 6.95838 1.02953 7.48088 1.55203L9.63421 3.70536C9.80046 3.87161 9.85588 4.13286 9.76088 4.35453C9.67379 4.5762 9.46004 4.7187 9.21463 4.7187ZM5.28004 3.5312H7.78963L6.64171 2.3912C6.57838 2.32786 6.47546 2.32786 6.41213 2.3912L5.28796 3.51536C5.28796 3.52328 5.28004 3.52328 5.28004 3.5312Z" fill="#97A483"/>
<path d="M9.21463 4.7187H4.84463C4.67838 4.7187 4.52004 4.64745 4.40921 4.5287C3.92629 3.99828 3.94213 3.18286 4.44879 2.6762L5.57296 1.55203C6.09546 1.02953 6.95838 1.02953 7.48088 1.55203L9.63421 3.70536C9.80046 3.87161 9.85588 4.13286 9.76088 4.35453C9.67379 4.5762 9.46004 4.7187 9.21463 4.7187ZM5.28004 3.5312H7.78963L6.64171 2.3912C6.57838 2.32786 6.47546 2.32786 6.41213 2.3912L5.28796 3.51536C5.28796 3.52328 5.28004 3.52328 5.28004 3.5312Z" fill="#97A483" fill-opacity="0.2"/>
<path d="M9.21463 4.7187H4.84463C4.67838 4.7187 4.52004 4.64745 4.40921 4.5287C3.92629 3.99828 3.94213 3.18286 4.44879 2.6762L5.57296 1.55203C6.09546 1.02953 6.95838 1.02953 7.48088 1.55203L9.63421 3.70536C9.80046 3.87161 9.85588 4.13286 9.76088 4.35453C9.67379 4.5762 9.46004 4.7187 9.21463 4.7187ZM5.28004 3.5312H7.78963L6.64171 2.3912C6.57838 2.32786 6.47546 2.32786 6.41213 2.3912L5.28796 3.51536C5.28796 3.52328 5.28004 3.52328 5.28004 3.5312Z" fill="#97A483" fill-opacity="0.2"/>
<path d="M9.21463 4.7187H4.84463C4.67838 4.7187 4.52004 4.64745 4.40921 4.5287C3.92629 3.99828 3.94213 3.18286 4.44879 2.6762L5.57296 1.55203C6.09546 1.02953 6.95838 1.02953 7.48088 1.55203L9.63421 3.70536C9.80046 3.87161 9.85588 4.13286 9.76088 4.35453C9.67379 4.5762 9.46004 4.7187 9.21463 4.7187ZM5.28004 3.5312H7.78963L6.64171 2.3912C6.57838 2.32786 6.47546 2.32786 6.41213 2.3912L5.28796 3.51536C5.28796 3.52328 5.28004 3.52328 5.28004 3.5312Z" fill="#97A483" fill-opacity="0.2"/>
<path d="M9.21463 4.7187H4.84463C4.67838 4.7187 4.52004 4.64745 4.40921 4.5287C3.92629 3.99828 3.94213 3.18286 4.44879 2.6762L5.57296 1.55203C6.09546 1.02953 6.95838 1.02953 7.48088 1.55203L9.63421 3.70536C9.80046 3.87161 9.85588 4.13286 9.76088 4.35453C9.67379 4.5762 9.46004 4.7187 9.21463 4.7187ZM5.28004 3.5312H7.78963L6.64171 2.3912C6.57838 2.32786 6.47546 2.32786 6.41213 2.3912L5.28796 3.51536C5.28796 3.52328 5.28004 3.52328 5.28004 3.5312Z" fill="#97A483" fill-opacity="0.2"/>
<path d="M14.1472 4.7187H9.77715C9.53965 4.7187 9.31799 4.5762 9.2309 4.35453C9.1359 4.13286 9.19132 3.87953 9.35757 3.70536L11.5109 1.55203C12.0334 1.02953 12.8963 1.02953 13.4188 1.55203L14.543 2.6762C15.0497 3.18286 15.0734 3.99828 14.5826 4.5287C14.4717 4.64745 14.3134 4.7187 14.1472 4.7187ZM11.218 3.5312H13.7276C13.7197 3.52328 13.7197 3.52328 13.7117 3.51536L12.5876 2.3912C12.5242 2.32786 12.4213 2.32786 12.358 2.3912L11.218 3.5312Z" fill="#97A483"/>
<path d="M14.1472 4.7187H9.77715C9.53965 4.7187 9.31799 4.5762 9.2309 4.35453C9.1359 4.13286 9.19132 3.87953 9.35757 3.70536L11.5109 1.55203C12.0334 1.02953 12.8963 1.02953 13.4188 1.55203L14.543 2.6762C15.0497 3.18286 15.0734 3.99828 14.5826 4.5287C14.4717 4.64745 14.3134 4.7187 14.1472 4.7187ZM11.218 3.5312H13.7276C13.7197 3.52328 13.7197 3.52328 13.7117 3.51536L12.5876 2.3912C12.5242 2.32786 12.4213 2.32786 12.358 2.3912L11.218 3.5312Z" fill="#97A483" fill-opacity="0.2"/>
<path d="M14.1472 4.7187H9.77715C9.53965 4.7187 9.31799 4.5762 9.2309 4.35453C9.1359 4.13286 9.19132 3.87953 9.35757 3.70536L11.5109 1.55203C12.0334 1.02953 12.8963 1.02953 13.4188 1.55203L14.543 2.6762C15.0497 3.18286 15.0734 3.99828 14.5826 4.5287C14.4717 4.64745 14.3134 4.7187 14.1472 4.7187ZM11.218 3.5312H13.7276C13.7197 3.52328 13.7197 3.52328 13.7117 3.51536L12.5876 2.3912C12.5242 2.32786 12.4213 2.32786 12.358 2.3912L11.218 3.5312Z" fill="#97A483" fill-opacity="0.2"/>
<path d="M14.1472 4.7187H9.77715C9.53965 4.7187 9.31799 4.5762 9.2309 4.35453C9.1359 4.13286 9.19132 3.87953 9.35757 3.70536L11.5109 1.55203C12.0334 1.02953 12.8963 1.02953 13.4188 1.55203L14.543 2.6762C15.0497 3.18286 15.0734 3.99828 14.5826 4.5287C14.4717 4.64745 14.3134 4.7187 14.1472 4.7187ZM11.218 3.5312H13.7276C13.7197 3.52328 13.7197 3.52328 13.7117 3.51536L12.5876 2.3912C12.5242 2.32786 12.4213 2.32786 12.358 2.3912L11.218 3.5312Z" fill="#97A483" fill-opacity="0.2"/>
<path d="M14.1472 4.7187H9.77715C9.53965 4.7187 9.31799 4.5762 9.2309 4.35453C9.1359 4.13286 9.19132 3.87953 9.35757 3.70536L11.5109 1.55203C12.0334 1.02953 12.8963 1.02953 13.4188 1.55203L14.543 2.6762C15.0497 3.18286 15.0734 3.99828 14.5826 4.5287C14.4717 4.64745 14.3134 4.7187 14.1472 4.7187ZM11.218 3.5312H13.7276C13.7197 3.52328 13.7197 3.52328 13.7117 3.51536L12.5876 2.3912C12.5242 2.32786 12.4213 2.32786 12.358 2.3912L11.218 3.5312Z" fill="#97A483" fill-opacity="0.2"/>
<path d="M7.86882 13.5458C7.64715 13.5458 7.41757 13.4903 7.21173 13.3795C6.76048 13.1341 6.4834 12.667 6.4834 12.1603V8.08325C6.4834 7.75867 6.75257 7.4895 7.07715 7.4895H11.8588C12.1834 7.4895 12.4526 7.75867 12.4526 8.08325V12.1445C12.4526 12.6591 12.1755 13.1262 11.7242 13.3637C11.273 13.6091 10.7267 13.5774 10.2992 13.2924L9.59465 12.8174C9.53132 12.7699 9.44423 12.7699 9.37298 12.8174L8.62882 13.3083C8.39923 13.4666 8.13007 13.5458 7.86882 13.5458ZM7.6709 8.677V12.1524C7.6709 12.2553 7.73423 12.3028 7.77382 12.3266C7.8134 12.3503 7.89257 12.3741 7.97965 12.3187L8.72382 11.8278C9.1909 11.5191 9.79257 11.5191 10.2517 11.8278L10.9563 12.3028C11.0434 12.3583 11.1226 12.3345 11.1621 12.3108C11.2017 12.287 11.2651 12.2395 11.2651 12.1366V8.66909H7.6709V8.677Z" fill="#97A483"/>
<path d="M7.86882 13.5458C7.64715 13.5458 7.41757 13.4903 7.21173 13.3795C6.76048 13.1341 6.4834 12.667 6.4834 12.1603V8.08325C6.4834 7.75867 6.75257 7.4895 7.07715 7.4895H11.8588C12.1834 7.4895 12.4526 7.75867 12.4526 8.08325V12.1445C12.4526 12.6591 12.1755 13.1262 11.7242 13.3637C11.273 13.6091 10.7267 13.5774 10.2992 13.2924L9.59465 12.8174C9.53132 12.7699 9.44423 12.7699 9.37298 12.8174L8.62882 13.3083C8.39923 13.4666 8.13007 13.5458 7.86882 13.5458ZM7.6709 8.677V12.1524C7.6709 12.2553 7.73423 12.3028 7.77382 12.3266C7.8134 12.3503 7.89257 12.3741 7.97965 12.3187L8.72382 11.8278C9.1909 11.5191 9.79257 11.5191 10.2517 11.8278L10.9563 12.3028C11.0434 12.3583 11.1226 12.3345 11.1621 12.3108C11.2017 12.287 11.2651 12.2395 11.2651 12.1366V8.66909H7.6709V8.677Z" fill="#97A483" fill-opacity="0.2"/>
<path d="M7.86882 13.5458C7.64715 13.5458 7.41757 13.4903 7.21173 13.3795C6.76048 13.1341 6.4834 12.667 6.4834 12.1603V8.08325C6.4834 7.75867 6.75257 7.4895 7.07715 7.4895H11.8588C12.1834 7.4895 12.4526 7.75867 12.4526 8.08325V12.1445C12.4526 12.6591 12.1755 13.1262 11.7242 13.3637C11.273 13.6091 10.7267 13.5774 10.2992 13.2924L9.59465 12.8174C9.53132 12.7699 9.44423 12.7699 9.37298 12.8174L8.62882 13.3083C8.39923 13.4666 8.13007 13.5458 7.86882 13.5458ZM7.6709 8.677V12.1524C7.6709 12.2553 7.73423 12.3028 7.77382 12.3266C7.8134 12.3503 7.89257 12.3741 7.97965 12.3187L8.72382 11.8278C9.1909 11.5191 9.79257 11.5191 10.2517 11.8278L10.9563 12.3028C11.0434 12.3583 11.1226 12.3345 11.1621 12.3108C11.2017 12.287 11.2651 12.2395 11.2651 12.1366V8.66909H7.6709V8.677Z" fill="#97A483" fill-opacity="0.2"/>
<path d="M7.86882 13.5458C7.64715 13.5458 7.41757 13.4903 7.21173 13.3795C6.76048 13.1341 6.4834 12.667 6.4834 12.1603V8.08325C6.4834 7.75867 6.75257 7.4895 7.07715 7.4895H11.8588C12.1834 7.4895 12.4526 7.75867 12.4526 8.08325V12.1445C12.4526 12.6591 12.1755 13.1262 11.7242 13.3637C11.273 13.6091 10.7267 13.5774 10.2992 13.2924L9.59465 12.8174C9.53132 12.7699 9.44423 12.7699 9.37298 12.8174L8.62882 13.3083C8.39923 13.4666 8.13007 13.5458 7.86882 13.5458ZM7.6709 8.677V12.1524C7.6709 12.2553 7.73423 12.3028 7.77382 12.3266C7.8134 12.3503 7.89257 12.3741 7.97965 12.3187L8.72382 11.8278C9.1909 11.5191 9.79257 11.5191 10.2517 11.8278L10.9563 12.3028C11.0434 12.3583 11.1226 12.3345 11.1621 12.3108C11.2017 12.287 11.2651 12.2395 11.2651 12.1366V8.66909H7.6709V8.677Z" fill="#97A483" fill-opacity="0.2"/>
<path d="M7.86882 13.5458C7.64715 13.5458 7.41757 13.4903 7.21173 13.3795C6.76048 13.1341 6.4834 12.667 6.4834 12.1603V8.08325C6.4834 7.75867 6.75257 7.4895 7.07715 7.4895H11.8588C12.1834 7.4895 12.4526 7.75867 12.4526 8.08325V12.1445C12.4526 12.6591 12.1755 13.1262 11.7242 13.3637C11.273 13.6091 10.7267 13.5774 10.2992 13.2924L9.59465 12.8174C9.53132 12.7699 9.44423 12.7699 9.37298 12.8174L8.62882 13.3083C8.39923 13.4666 8.13007 13.5458 7.86882 13.5458ZM7.6709 8.677V12.1524C7.6709 12.2553 7.73423 12.3028 7.77382 12.3266C7.8134 12.3503 7.89257 12.3741 7.97965 12.3187L8.72382 11.8278C9.1909 11.5191 9.79257 11.5191 10.2517 11.8278L10.9563 12.3028C11.0434 12.3583 11.1226 12.3345 11.1621 12.3108C11.2017 12.287 11.2651 12.2395 11.2651 12.1366V8.66909H7.6709V8.677Z" fill="#97A483" fill-opacity="0.2"/>
</svg>
