<svg width="24" height="24" viewBox="-4.5 -4.5 24 24" fill="none" xmlns="http://www.w3.org/2000/svg">
<path d="M7.5 8.854C13.4375 8.854 14.625 12.4165 14.625 13.604C14.625 14.7915 13.4375 14.7915 13.4375 14.7915H1.5625C1.5625 14.7915 0.375 14.7915 0.375 13.604C0.375 12.4165 1.5625 8.854 7.5 8.854ZM7.5 10.0415C4.78169 10.0415 3.32534 10.849 2.55078 11.6235C1.74525 12.4291 1.56419 13.307 1.5625 13.6001H13.4375C13.4358 13.307 13.2547 12.4291 12.4492 11.6235C11.6747 10.849 10.2183 10.0415 7.5 10.0415ZM7.5 0.541504C9.46751 0.541504 11.0625 2.13649 11.0625 4.104C11.0625 6.07152 9.46751 7.6665 7.5 7.6665C5.53249 7.6665 3.9375 6.07152 3.9375 4.104C3.9375 2.13649 5.53249 0.541504 7.5 0.541504ZM7.5 1.729C6.18832 1.729 5.125 2.79233 5.125 4.104C5.125 5.41568 6.18832 6.479 7.5 6.479C8.81168 6.479 9.875 5.41568 9.875 4.104C9.875 2.79233 8.81168 1.729 7.5 1.729Z" fill="#97A483"/>
<path d="M7.5 8.854C13.4375 8.854 14.625 12.4165 14.625 13.604C14.625 14.7915 13.4375 14.7915 13.4375 14.7915H1.5625C1.5625 14.7915 0.375 14.7915 0.375 13.604C0.375 12.4165 1.5625 8.854 7.5 8.854ZM7.5 10.0415C4.78169 10.0415 3.32534 10.849 2.55078 11.6235C1.74525 12.4291 1.56419 13.307 1.5625 13.6001H13.4375C13.4358 13.307 13.2547 12.4291 12.4492 11.6235C11.6747 10.849 10.2183 10.0415 7.5 10.0415ZM7.5 0.541504C9.46751 0.541504 11.0625 2.13649 11.0625 4.104C11.0625 6.07152 9.46751 7.6665 7.5 7.6665C5.53249 7.6665 3.9375 6.07152 3.9375 4.104C3.9375 2.13649 5.53249 0.541504 7.5 0.541504ZM7.5 1.729C6.18832 1.729 5.125 2.79233 5.125 4.104C5.125 5.41568 6.18832 6.479 7.5 6.479C8.81168 6.479 9.875 5.41568 9.875 4.104C9.875 2.79233 8.81168 1.729 7.5 1.729Z" fill="#97A483" fill-opacity="0.2"/>
<path d="M7.5 8.854C13.4375 8.854 14.625 12.4165 14.625 13.604C14.625 14.7915 13.4375 14.7915 13.4375 14.7915H1.5625C1.5625 14.7915 0.375 14.7915 0.375 13.604C0.375 12.4165 1.5625 8.854 7.5 8.854ZM7.5 10.0415C4.78169 10.0415 3.32534 10.849 2.55078 11.6235C1.74525 12.4291 1.56419 13.307 1.5625 13.6001H13.4375C13.4358 13.307 13.2547 12.4291 12.4492 11.6235C11.6747 10.849 10.2183 10.0415 7.5 10.0415ZM7.5 0.541504C9.46751 0.541504 11.0625 2.13649 11.0625 4.104C11.0625 6.07152 9.46751 7.6665 7.5 7.6665C5.53249 7.6665 3.9375 6.07152 3.9375 4.104C3.9375 2.13649 5.53249 0.541504 7.5 0.541504ZM7.5 1.729C6.18832 1.729 5.125 2.79233 5.125 4.104C5.125 5.41568 6.18832 6.479 7.5 6.479C8.81168 6.479 9.875 5.41568 9.875 4.104C9.875 2.79233 8.81168 1.729 7.5 1.729Z" fill="#97A483" fill-opacity="0.2"/>
<path d="M7.5 8.854C13.4375 8.854 14.625 12.4165 14.625 13.604C14.625 14.7915 13.4375 14.7915 13.4375 14.7915H1.5625C1.5625 14.7915 0.375 14.7915 0.375 13.604C0.375 12.4165 1.5625 8.854 7.5 8.854ZM7.5 10.0415C4.78169 10.0415 3.32534 10.849 2.55078 11.6235C1.74525 12.4291 1.56419 13.307 1.5625 13.6001H13.4375C13.4358 13.307 13.2547 12.4291 12.4492 11.6235C11.6747 10.849 10.2183 10.0415 7.5 10.0415ZM7.5 0.541504C9.46751 0.541504 11.0625 2.13649 11.0625 4.104C11.0625 6.07152 9.46751 7.6665 7.5 7.6665C5.53249 7.6665 3.9375 6.07152 3.9375 4.104C3.9375 2.13649 5.53249 0.541504 7.5 0.541504ZM7.5 1.729C6.18832 1.729 5.125 2.79233 5.125 4.104C5.125 5.41568 6.18832 6.479 7.5 6.479C8.81168 6.479 9.875 5.41568 9.875 4.104C9.875 2.79233 8.81168 1.729 7.5 1.729Z" fill="#97A483" fill-opacity="0.2"/>
<path d="M7.5 8.854C13.4375 8.854 14.625 12.4165 14.625 13.604C14.625 14.7915 13.4375 14.7915 13.4375 14.7915H1.5625C1.5625 14.7915 0.375 14.7915 0.375 13.604C0.375 12.4165 1.5625 8.854 7.5 8.854ZM7.5 10.0415C4.78169 10.0415 3.32534 10.849 2.55078 11.6235C1.74525 12.4291 1.56419 13.307 1.5625 13.6001H13.4375C13.4358 13.307 13.2547 12.4291 12.4492 11.6235C11.6747 10.849 10.2183 10.0415 7.5 10.0415ZM7.5 0.541504C9.46751 0.541504 11.0625 2.13649 11.0625 4.104C11.0625 6.07152 9.46751 7.6665 7.5 7.6665C5.53249 7.6665 3.9375 6.07152 3.9375 4.104C3.9375 2.13649 5.53249 0.541504 7.5 0.541504ZM7.5 1.729C6.18832 1.729 5.125 2.79233 5.125 4.104C5.125 5.41568 6.18832 6.479 7.5 6.479C8.81168 6.479 9.875 5.41568 9.875 4.104C9.875 2.79233 8.81168 1.729 7.5 1.729Z" fill="#97A483" fill-opacity="0.2"/>
</svg>
