<svg width="24" height="15" viewBox="-5 0 24 15" fill="none" xmlns="http://www.w3.org/2000/svg">
<path fill-rule="evenodd" clip-rule="evenodd" d="M3.0625 0.666504C3.30412 0.666504 3.5 0.862379 3.5 1.104V1.5415H10.5V1.104C10.5 0.862379 10.6959 0.666504 10.9375 0.666504C11.1791 0.666504 11.375 0.862379 11.375 1.104V1.5415H12.25C13.2165 1.5415 14 2.32501 14 3.2915V12.9165C14 13.883 13.2165 14.6665 12.25 14.6665H1.75C0.783502 14.6665 0 13.883 0 12.9165V3.2915C0 2.32501 0.783502 1.5415 1.75 1.5415H2.625V1.104C2.625 0.862379 2.82088 0.666504 3.0625 0.666504ZM1.75 2.4165C1.26675 2.4165 0.875 2.80825 0.875 3.2915V4.1665H13.125V3.2915C13.125 2.80825 12.7332 2.4165 12.25 2.4165H1.75ZM13.125 5.0415H0.875V12.9165C0.875 13.3998 1.26675 13.7915 1.75 13.7915H12.25C12.7332 13.7915 13.125 13.3998 13.125 12.9165V5.0415Z" fill="#97A483"/>
</svg>
