<svg width="31" height="33" viewBox="0 0 31 33" fill="none" xmlns="http://www.w3.org/2000/svg">
<path fill-rule="evenodd" clip-rule="evenodd" d="M5.52454 17.2615V29.4565C5.52454 30.4143 6.30102 31.1908 7.25885 31.1908H23.4903C24.4481 31.1908 25.2246 30.4143 25.2246 29.4565V17.2615H26.9088V29.4565C26.9088 31.3445 25.3782 32.875 23.4903 32.875H7.25885C5.37086 32.875 3.84033 31.3445 3.84033 29.4565V17.2615H5.52454Z" fill="#97A483"/>
<path fill-rule="evenodd" clip-rule="evenodd" d="M19.4476 17.0205V17.6909C19.4476 18.074 19.5796 18.4263 19.8007 18.7047H10.8499C11.071 18.4263 11.203 18.074 11.203 17.6909V17.0205H19.4476ZM22.711 17.0205H23.5438C25.5624 17.0205 27.1503 15.296 26.984 13.2843L26.7047 9.90466C26.6304 9.00528 25.8787 8.3132 24.9763 8.3132H22.711V6.62899H24.9763H25.9745C26.7426 6.62899 27.3653 6.00631 27.3653 5.2382C27.3653 4.47009 26.7426 3.84742 25.9745 3.84742H22.711V3.34884C22.711 2.88183 22.5148 2.46065 22.2004 2.16321H25.9745C27.6727 2.16321 29.0495 3.53993 29.0495 5.2382C29.0495 6.34127 28.4687 7.30868 27.5962 7.8513C28.0364 8.37588 28.3229 9.0363 28.3832 9.76595L28.6625 13.1456C28.9099 16.1388 26.5473 18.7047 23.5438 18.7047H22.3579C22.579 18.4263 22.711 18.074 22.711 17.6909V17.0205ZM19.9582 2.16321H10.6924C11.0069 2.46065 11.203 2.88183 11.203 3.34884V3.84742H19.4476V3.34883C19.4476 2.88183 19.6437 2.46065 19.9582 2.16321ZM19.4476 6.62899H11.203V8.3132H19.4476V6.62899ZM7.93958 17.6909V17.0205H7.19266C5.17408 17.0205 3.58621 15.296 3.75247 13.2843L4.03178 9.90466C4.10611 9.00528 4.85774 8.3132 5.76019 8.3132H7.93958V6.62899H5.76019H4.76201C3.9939 6.62899 3.37122 6.00631 3.37122 5.2382C3.37122 4.47009 3.9939 3.84742 4.76201 3.84742H7.93958V3.34883C7.93958 2.88183 8.13577 2.46065 8.45022 2.16321H4.76201C3.06373 2.16321 1.68701 3.53993 1.68701 5.2382C1.68701 6.34127 2.26782 7.30868 3.1403 7.8513C2.70005 8.37588 2.41359 9.0363 2.35329 9.76594L2.07398 13.1456C1.8266 16.1388 4.18921 18.7047 7.19266 18.7047H8.29271C8.07164 18.4263 7.93958 18.074 7.93958 17.6909Z" fill="#97A483"/>
<path d="M22.711 6.62899H24.9763H25.9745C26.7426 6.62899 27.3653 6.00631 27.3653 5.2382C27.3653 4.47009 26.7426 3.84742 25.9745 3.84742H22.711V6.62899Z" fill="#97A483"/>
<path d="M19.4476 3.84742H11.203V6.62899H19.4476V3.84742Z" fill="#97A483"/>
<path d="M5.76019 6.62899H7.93958V3.84742H4.76201C3.9939 3.84742 3.37122 4.47009 3.37122 5.2382C3.37122 6.00631 3.9939 6.62899 4.76201 6.62899H5.76019Z" fill="#97A483"/>
<path fill-rule="evenodd" clip-rule="evenodd" d="M9.61543 2.55921C9.17934 2.55921 8.82581 2.91274 8.82581 3.34883V17.6909C8.82581 18.127 9.17934 18.4805 9.61543 18.4805C10.0515 18.4805 10.4051 18.127 10.4051 17.6909V3.34883C10.4051 2.91274 10.0515 2.55921 9.61543 2.55921ZM7.1416 3.34883C7.1416 1.98257 8.24917 0.875 9.61543 0.875C10.9817 0.875 12.0893 1.98258 12.0893 3.34883V17.6909C12.0893 19.0571 10.9817 20.1647 9.61543 20.1647C8.24917 20.1647 7.1416 19.0571 7.1416 17.6909V3.34883Z" fill="#97A483"/>
<path fill-rule="evenodd" clip-rule="evenodd" d="M21.1234 2.55921C20.6873 2.55921 20.3338 2.91274 20.3338 3.34883V17.6909C20.3338 18.127 20.6873 18.4805 21.1234 18.4805C21.5595 18.4805 21.913 18.127 21.913 17.6909V3.34883C21.913 2.91274 21.5595 2.55921 21.1234 2.55921ZM18.6496 3.34883C18.6496 1.98257 19.7572 0.875 21.1234 0.875C22.4897 0.875 23.5972 1.98258 23.5972 3.34883V17.6909C23.5972 19.0571 22.4897 20.1647 21.1234 20.1647C19.7572 20.1647 18.6496 19.0571 18.6496 17.6909V3.34883Z" fill="#97A483"/>
<path fill-rule="evenodd" clip-rule="evenodd" d="M0.405762 21.8989C0.405762 20.4853 1.55178 19.3392 2.96548 19.3392C4.37917 19.3392 5.52519 20.4853 5.52519 21.8989V28.7694C5.52519 30.1831 4.37917 31.3291 2.96548 31.3291C1.55178 31.3291 0.405762 30.1831 0.405762 28.7694V21.8989ZM2.96548 21.0234C2.48195 21.0234 2.08997 21.4154 2.08997 21.8989V28.7694C2.08997 29.2529 2.48195 29.6449 2.96548 29.6449C3.449 29.6449 3.84098 29.2529 3.84098 28.7694V21.8989C3.84098 21.4154 3.449 21.0234 2.96548 21.0234Z" fill="#97A483"/>
<path d="M2.08997 21.8989C2.08997 21.4154 2.48195 21.0234 2.96548 21.0234C3.449 21.0234 3.84098 21.4154 3.84098 21.8989V28.7694C3.84098 29.2529 3.449 29.6449 2.96548 29.6449C2.48195 29.6449 2.08997 29.2529 2.08997 28.7694V21.8989Z" fill="#97A483"/>
<path fill-rule="evenodd" clip-rule="evenodd" d="M25.2252 21.8989C25.2252 20.4853 26.3712 19.3392 27.7849 19.3392C29.1986 19.3392 30.3446 20.4853 30.3446 21.8989V28.7694C30.3446 30.1831 29.1986 31.3291 27.7849 31.3291C26.3712 31.3291 25.2252 30.1831 25.2252 28.7694V21.8989ZM27.7849 21.0234C27.3014 21.0234 26.9094 21.4154 26.9094 21.8989V28.7694C26.9094 29.2529 27.3014 29.6449 27.7849 29.6449C28.2684 29.6449 28.6604 29.2529 28.6604 28.7694V21.8989C28.6604 21.4154 28.2684 21.0234 27.7849 21.0234Z" fill="#97A483"/>
<path d="M26.9094 21.8989C26.9094 21.4154 27.3014 21.0234 27.7849 21.0234C28.2684 21.0234 28.6604 21.4154 28.6604 21.8989V28.7694C28.6604 29.2529 28.2684 29.6449 27.7849 29.6449C27.3014 29.6449 26.9094 29.2529 26.9094 28.7694V21.8989Z" fill="#97A483"/>
<path fill-rule="evenodd" clip-rule="evenodd" d="M9.70132 20.6276C8.28762 20.6276 7.1416 21.7736 7.1416 23.1873V27.3954C7.1416 28.8091 8.28763 29.9551 9.70132 29.9551H21.0375C22.4512 29.9551 23.5972 28.8091 23.5972 27.3954V23.1873C23.5972 21.7736 22.4512 20.6276 21.0375 20.6276H9.70132ZM10.5601 23.2469C10.095 23.2469 9.71802 23.6239 9.71802 24.089C9.71802 24.5541 10.095 24.9311 10.5601 24.9311H18.4349V25.2055C18.4349 25.6706 18.8119 26.0476 19.277 26.0476C19.7421 26.0476 20.1191 25.6706 20.1191 25.2055V24.9283C20.5518 24.8931 20.892 24.5308 20.892 24.089C20.892 23.6239 20.515 23.2469 20.0499 23.2469H10.5601Z" fill="#97A483"/>
</svg>
