<svg width="23" height="33" viewBox="0 0 23 33" fill="none" xmlns="http://www.w3.org/2000/svg">
<path fill-rule="evenodd" clip-rule="evenodd" d="M5.6044 6.74602C5.60411 6.74599 5.60569 6.74342 5.61004 6.73839C5.60688 6.74354 5.6047 6.74605 5.6044 6.74602ZM5.79575 6.59913C5.9908 6.48169 6.29738 6.35118 6.72432 6.2292C7.66787 5.95962 9.01886 5.78194 10.5448 5.78194V4.14754C8.91136 4.14754 7.40215 4.33573 6.27532 4.65769C5.71746 4.81707 5.20661 5.02223 4.81645 5.28578C4.45482 5.53006 4.00715 5.95875 4.00715 6.59914C4.00715 6.66976 4.01293 6.73962 4.02414 6.80827C4.11814 7.38399 4.56011 7.75747 4.92278 7.98109C5.31714 8.22426 5.82135 8.41706 6.37457 8.56834C7.4889 8.87304 8.95751 9.05074 10.5448 9.05074C12.132 9.05074 13.6006 8.87304 14.7149 8.56834C15.2682 8.41706 15.7724 8.22426 16.1667 7.98109C16.5294 7.75747 16.9714 7.38399 17.0654 6.80827C17.0766 6.73963 17.0824 6.66978 17.0824 6.59914L15.4545 6.53294C15.4649 6.48004 15.482 6.45578 15.482 6.45575C15.482 6.45571 15.4472 6.50465 15.3089 6.5899C15.0981 6.71991 14.7579 6.86218 14.2839 6.99181C13.3436 7.24891 12.0259 7.41634 10.5448 7.41634C9.06358 7.41634 7.74588 7.24891 6.80566 6.99181C6.34279 6.86524 6.00759 6.72662 5.79575 6.59913Z" fill="#97A483"/>
<path fill-rule="evenodd" clip-rule="evenodd" d="M8.31471 14.1156C8.35175 14.1081 8.39165 14.1006 8.4345 14.0931C8.90944 14.0099 9.59804 13.9539 10.3809 13.9539C11.1638 13.9539 11.8524 14.0099 12.3273 14.0931C12.3702 14.1006 12.4101 14.1081 12.4471 14.1156L12.1067 16.6765C11.9917 17.5417 11.2538 18.1881 10.3809 18.1881C9.50806 18.1881 8.77011 17.5417 8.6551 16.6765L8.31471 14.1156ZM8.15259 12.4832C8.74606 12.3793 9.53346 12.3195 10.3809 12.3195C11.2284 12.3195 12.0158 12.3793 12.6093 12.4832C12.8993 12.534 13.1832 12.602 13.4135 12.6974C13.5251 12.7436 13.6719 12.8153 13.8043 12.9286C13.9307 13.0368 14.1501 13.278 14.1501 13.6537V13.7077L13.7269 16.8918C13.5039 18.5694 12.0732 19.8225 10.3809 19.8225C8.68864 19.8225 7.25792 18.5694 7.03495 16.8918L6.61172 13.7077V13.6537C6.61172 13.278 6.83117 13.0368 6.95758 12.9286C7.08995 12.8153 7.23671 12.7436 7.34831 12.6974C7.57865 12.602 7.8625 12.534 8.15259 12.4832Z" fill="#97A483"/>
<path d="M8.31471 14.1156C8.35175 14.1081 8.39165 14.1006 8.4345 14.0931C8.90944 14.0099 9.59804 13.9539 10.3809 13.9539C11.1638 13.9539 11.8524 14.0099 12.3273 14.0931C12.3702 14.1006 12.4101 14.1081 12.4471 14.1156L12.1067 16.6765C11.9917 17.5417 11.2538 18.1881 10.3809 18.1881C9.50806 18.1881 8.77011 17.5417 8.6551 16.6765L8.31471 14.1156Z" fill="#97A483"/>
<path fill-rule="evenodd" clip-rule="evenodd" d="M17.9105 2.06868L16.4025 5.01887L14.5004 2.30622C15.1108 2.01954 15.7923 1.85938 16.5126 1.85938C16.9999 1.85938 17.4692 1.93268 17.9105 2.06868ZM13.1629 3.24562L15.1787 6.12034L11.7725 7.06296C11.7719 7.00466 11.7721 6.93201 11.7724 6.83509C11.7726 6.76884 11.7728 6.69125 11.7728 6.59914C11.7728 5.28975 12.3032 4.1042 13.1629 3.24562ZM18.2334 7.21821L21.2452 6.86143C21.1933 7.81376 20.8607 8.69077 20.3279 9.41208L18.2334 7.21821ZM19.1458 10.5408C18.608 10.901 17.9926 11.1537 17.3298 11.2688V8.63857L19.1458 10.5408ZM17.9372 5.60746L19.3653 2.81358C20.1616 3.41467 20.7617 4.26067 21.0542 5.23823L17.9372 5.60746ZM15.6954 7.6732V12.9733H16.5126C18.2192 12.9733 19.7707 12.3015 20.9142 11.2095C22.1286 10.0499 22.8867 8.41235 22.8867 6.59914C22.8867 6.34611 22.8719 6.09619 22.8431 5.85026C22.5904 3.69392 21.2633 1.86948 19.4148 0.922711C18.5434 0.476404 17.5562 0.224976 16.5126 0.224976C15.1517 0.224976 13.8882 0.652369 12.8521 1.38021C11.2126 2.53196 10.1384 4.44005 10.1384 6.59914C10.1384 6.65702 10.1381 6.71383 10.1378 6.76962C10.1364 7.02851 10.1351 7.26526 10.1652 7.48322C10.207 7.78552 10.3031 8.04695 10.4421 8.38277L10.7186 9.05044L15.6954 7.6732Z" fill="#97A483"/>
<path fill-rule="evenodd" clip-rule="evenodd" d="M11.4695 4.26207C11.1023 4.2436 10.7247 4.23411 10.3409 4.23411C8.91233 4.23411 7.56785 4.36564 6.53587 4.60247C6.033 4.71787 5.51333 4.87836 5.07958 5.11371C4.86365 5.23086 4.59149 5.40767 4.35572 5.67208C4.11104 5.94648 3.84237 6.39256 3.84237 6.98478C3.84237 7.06723 3.84775 7.14866 3.85811 7.22863L4.70497 17.1037C4.89068 19.2693 6.27926 21.062 8.17908 21.8484V26.8301C7.49454 26.9008 6.86528 27.0057 6.32842 27.1421C5.8743 27.2574 5.39297 27.418 4.98667 27.6556C4.69822 27.8242 3.84237 28.383 3.84237 29.4743C3.84237 30.0665 4.11104 30.5126 4.35572 30.787C4.59149 31.0514 4.86365 31.2282 5.07958 31.3454C5.51333 31.5807 6.033 31.7412 6.53587 31.8566C7.56785 32.0934 8.91233 32.225 10.3409 32.225C11.7695 32.225 13.114 32.0934 14.1459 31.8566C14.6488 31.7412 15.1685 31.5807 15.6022 31.3454C15.8182 31.2282 16.0903 31.0514 16.3261 30.787C16.5708 30.5126 16.8394 30.0665 16.8394 29.4743C16.8394 28.3728 15.9686 27.8135 15.6812 27.6474C15.2708 27.4103 14.7839 27.2497 14.3227 27.1343C13.7727 26.9968 13.127 26.8916 12.4246 26.8222V21.8801C14.3645 21.1109 15.7886 19.2988 15.9768 17.1037L16.5126 10.8567V7.4164L15.1372 7.76653L14.3484 16.9641C14.2027 18.6629 13.0154 20.0399 11.4479 20.4881C11.2598 20.5419 11.0662 20.5823 10.8683 20.6083C10.8424 20.6117 10.8163 20.6148 10.7902 20.6177V28.3627C10.8163 28.3633 10.8424 28.3639 10.8684 28.3645C11.0653 28.3694 11.2587 28.377 11.4479 28.3871C12.243 28.4295 12.9633 28.5168 13.5556 28.6366C13.6468 28.655 13.7349 28.6742 13.8198 28.6941C14.6768 28.8954 15.205 29.1707 15.205 29.4743C15.205 29.7779 14.6768 30.0533 13.8197 30.2545C13.7348 30.2744 13.6467 30.2936 13.5556 30.3121C12.6985 30.4854 11.5732 30.5906 10.3409 30.5906C9.1086 30.5906 7.98333 30.4854 7.1262 30.3121C7.03508 30.2936 6.94698 30.2744 6.86211 30.2545C6.00502 30.0533 5.47677 29.7779 5.47677 29.4743C5.47677 29.1707 6.00497 28.8954 6.86198 28.6941C6.9469 28.6742 7.03505 28.655 7.12623 28.6366C7.69904 28.5207 8.39159 28.4353 9.15582 28.3914C9.36977 28.3791 9.58935 28.3701 9.81348 28.3645V20.6083C9.58808 20.5787 9.36829 20.5304 9.15582 20.4649C7.62709 19.9939 6.47664 18.6345 6.33339 16.9641L5.48214 7.03767C5.47857 7.02014 5.47677 7.00251 5.47677 6.98478C5.47677 6.36828 7.65452 5.86851 10.3409 5.86851C10.5651 5.86851 10.7857 5.87199 11.0019 5.87873C11.0758 5.30817 11.2362 4.76475 11.4695 4.26207ZM6.63349 28.4693C6.6326 28.4688 6.63212 28.4685 6.63208 28.4685C6.632 28.4686 6.63392 28.4698 6.6381 28.472C6.63606 28.4708 6.63451 28.4699 6.63349 28.4693Z" fill="#97A483"/>
<path fill-rule="evenodd" clip-rule="evenodd" d="M3.92494 2.00682C3.9435 2.018 3.96659 2.03774 3.98619 2.08414L10.8147 18.2501C10.9903 18.6659 11.4697 18.8605 11.8855 18.6849C12.3012 18.5093 12.4959 18.0299 12.3203 17.6141L5.49178 1.44818C4.85023 -0.0706452 2.67323 0.00310223 2.13593 1.56185L0.408104 6.57443C0.261024 7.00112 0.487696 7.46625 0.914385 7.61333C1.34107 7.76041 1.80621 7.53374 1.95329 7.10705L3.68111 2.09447C3.69752 2.04686 3.71922 2.0256 3.73698 2.01319C3.75891 1.99787 3.79116 1.98571 3.83009 1.98439C3.86902 1.98307 3.90202 1.99302 3.92494 2.00682Z" fill="#97A483"/>
</svg>
