<svg width="31" height="33" viewBox="0 0 31 33" fill="none" xmlns="http://www.w3.org/2000/svg">
<path d="M18.316 29.8469L21.4103 26.151C21.4801 26.0677 21.609 26.0704 21.6752 26.1566L24.4799 29.8113C24.5162 29.8586 24.5202 29.891 24.52 29.9118C24.5196 29.9396 24.5096 29.9767 24.4835 30.0132C24.4575 30.0497 24.4258 30.0713 24.3996 30.0808C24.38 30.0878 24.3481 30.0946 24.2915 30.0758L22.1522 29.3627C21.7841 29.2399 21.3869 29.2349 21.0158 29.3483L18.4959 30.1183C18.4379 30.136 18.4061 30.1281 18.387 30.1206C18.3612 30.1103 18.3298 30.0876 18.3047 30.0497C18.2796 30.0118 18.2709 29.9741 18.2715 29.9463C18.272 29.9257 18.2771 29.8934 18.316 29.8469Z" fill="#97A483"/>
<path d="M28.1992 16.5966H27.5563C27.4392 16.5966 27.3573 16.4809 27.3945 16.3699C27.4905 16.0833 27.5782 15.7945 27.6557 15.5049C27.6985 15.3446 27.926 15.3261 27.9896 15.4793L28.356 16.3617C28.4024 16.4735 28.3202 16.5966 28.1992 16.5966Z" fill="#97A483"/>
<path fill-rule="evenodd" clip-rule="evenodd" d="M20.315 24.4851C20.3304 24.5031 20.3455 24.5208 20.3604 24.5383C20.4145 24.6015 20.4152 24.6946 20.3618 24.7584L17.0141 28.7569C15.8211 30.1819 17.2147 32.2852 18.992 31.7422L21.512 30.9722C21.5457 30.9619 21.5818 30.9623 21.6153 30.9735L23.7546 31.6866C25.5018 32.269 26.9482 30.2386 25.827 28.7775L22.7173 24.7255C22.6805 24.6777 22.6809 24.611 22.718 24.5634C23.0197 24.1759 23.438 23.6205 23.9082 22.9446C24.7472 21.7385 25.7646 20.1295 26.5769 18.393C26.605 18.3331 26.6651 18.2945 26.7313 18.2945H28.1992C29.531 18.2945 30.4349 16.9405 29.9241 15.7105L27.5897 10.0887C27.3923 9.40047 27.1387 8.71569 26.8518 8.04991C25.688 5.3486 23.9333 2.86327 22.9632 1.58692C22.2656 0.668948 20.9146 0.631072 20.1702 1.51778C19.1116 2.77876 17.1626 5.28043 15.8815 8.02698C15.156 9.58256 14.6134 11.2819 14.6134 12.9157C14.6134 14.8946 15.4104 16.9831 16.3885 18.8178C16.4135 18.8648 16.4153 18.9208 16.393 18.9692L15.8315 20.1892C15.2781 21.3914 16.1162 22.7719 17.4381 22.8357L18.9726 22.9097C19.0228 22.9121 19.0692 22.9366 19.0997 22.9765C19.5695 23.5915 19.9926 24.106 20.315 24.4851ZM21.5081 2.57948C21.4988 2.58363 21.4856 2.59166 21.4706 2.60952C20.5925 3.65552 19.1232 5.53709 17.9738 7.6508C17.9212 7.74741 17.9743 7.86728 18.0811 7.89354C19.2913 8.19118 20.3065 8.33584 21.3159 8.3381C22.3454 8.34041 23.4 8.19462 24.6796 7.88085C24.7842 7.8552 24.838 7.73936 24.7899 7.64301C23.7448 5.54982 22.4159 3.67292 21.6114 2.61436C21.597 2.5954 21.5838 2.58632 21.5741 2.58142C21.5636 2.57608 21.5523 2.5733 21.5409 2.57301C21.5295 2.57272 21.5184 2.57492 21.5081 2.57948ZM25.6246 9.54865C25.5944 9.46727 25.5071 9.42269 25.4231 9.44446C23.9069 9.83723 22.6129 10.039 21.3121 10.0361C20.0126 10.0332 18.7425 9.82604 17.2745 9.44033C17.1921 9.41867 17.1061 9.46097 17.0742 9.54001C16.6005 10.7158 16.3114 11.8682 16.3114 12.9157C16.3114 14.6197 17.075 16.5827 18.1189 18.4432C18.7676 19.5993 19.5027 20.678 20.172 21.5782C20.6349 22.2007 21.0638 22.7345 21.4069 23.1457C21.4764 23.229 21.6049 23.2258 21.6703 23.1393C21.9133 22.8177 22.2017 22.4244 22.5143 21.975C23.418 20.676 24.5074 18.9317 25.2925 17.1096C25.9217 15.6492 26.3294 14.1976 26.3294 12.9157C26.3294 12.1943 26.2001 11.4136 25.9698 10.5999C25.8714 10.252 25.7553 9.90075 25.6246 9.54865ZM21.6752 26.1566C21.609 26.0704 21.4801 26.0677 21.4103 26.151L18.316 29.8469C18.2771 29.8934 18.272 29.9257 18.2715 29.9463C18.2709 29.9741 18.2796 30.0118 18.3047 30.0497C18.3298 30.0876 18.3612 30.1103 18.387 30.1206C18.4061 30.1281 18.4379 30.136 18.4959 30.1183L21.0158 29.3483C21.3869 29.2349 21.7841 29.2399 22.1522 29.3627L24.2915 30.0758C24.3481 30.0946 24.38 30.0878 24.3996 30.0808C24.4258 30.0713 24.4575 30.0497 24.4835 30.0132C24.5096 29.9767 24.5196 29.9396 24.52 29.9118C24.5202 29.891 24.5162 29.8586 24.4799 29.8113L21.6752 26.1566ZM27.3945 16.3699C27.3573 16.4809 27.4392 16.5966 27.5563 16.5966H28.1992C28.3202 16.5966 28.4024 16.4735 28.356 16.3617L27.9896 15.4793C27.926 15.3261 27.6985 15.3446 27.6557 15.5049C27.5782 15.7945 27.4905 16.0833 27.3945 16.3699ZM17.6153 20.8818C17.5559 20.7909 17.4193 20.8004 17.3739 20.8991C17.3236 21.0084 17.3998 21.1339 17.52 21.1397C17.6335 21.1451 17.7051 21.0189 17.6428 20.9238C17.6336 20.9098 17.6244 20.8958 17.6153 20.8818Z" fill="#97A483"/>
<path d="M17.3739 20.8991C17.4193 20.8004 17.5559 20.7909 17.6153 20.8818C17.6244 20.8958 17.6336 20.9098 17.6428 20.9238C17.7051 21.0189 17.6335 21.1451 17.52 21.1397C17.3998 21.1339 17.3236 21.0084 17.3739 20.8991Z" fill="#97A483"/>
<path d="M23.6126 6.46344C23.6126 6.93232 23.2325 7.31242 22.7636 7.31242C22.2948 7.31242 21.9147 6.93232 21.9147 6.46344C21.9147 5.99455 22.2948 5.61445 22.7636 5.61445C23.2325 5.61445 23.6126 5.99455 23.6126 6.46344Z" fill="#97A483"/>
<path fill-rule="evenodd" clip-rule="evenodd" d="M5.49513 3.1496C5.36083 2.98546 5.11252 2.97968 4.9711 3.13524C4.84695 3.2718 4.85195 3.48179 4.98245 3.61229L5.11559 3.74543C5.18438 3.81422 5.29679 3.81126 5.36186 3.73895L5.48493 3.60222C5.59918 3.47527 5.60406 3.28273 5.49513 3.1496ZM4.00939 5.26099C4.06617 5.19323 4.06212 5.09325 3.99961 5.03074L3.78181 4.81294C3.01041 4.04154 2.98088 2.80027 3.71471 1.99306C4.5549 1.06885 6.01952 1.10911 6.80928 2.07438C7.44829 2.85539 7.4229 3.98712 6.74702 4.7381L6.48409 5.03024C6.42911 5.09133 6.42582 5.18299 6.47585 5.2482C6.50353 5.28427 6.532 5.32159 6.56121 5.3601C6.93899 5.8582 7.44349 6.56088 7.94931 7.37889C8.93445 8.97203 10.0289 11.1648 10.0289 13.1704C10.0289 14.624 9.4548 16.2515 8.79185 17.6687C8.11843 19.1082 7.30334 20.4334 6.72502 21.3103C6.03475 22.3569 4.53706 22.3953 3.79874 21.3758C3.17159 20.5098 2.27985 19.1884 1.54148 17.7417C0.815282 16.3188 0.180664 14.6675 0.180664 13.1704C0.180664 11.1147 1.37844 8.91238 2.44854 7.32783C2.99904 6.51268 3.54794 5.81513 3.95881 5.32156C3.97591 5.30102 3.99277 5.28083 4.00939 5.26099ZM5.37175 6.60414C5.30654 6.51615 5.1764 6.51311 5.1072 6.59799C4.74535 7.04185 4.29991 7.62032 3.85568 8.27812C2.80332 9.83641 1.87863 11.6667 1.87863 13.1704C1.87863 14.2526 2.35859 15.6075 3.05386 16.9698C3.73695 18.3082 4.57355 19.5508 5.17395 20.3798C5.1897 20.4016 5.20315 20.4101 5.211 20.4139C5.22013 20.4184 5.23016 20.4206 5.24062 20.4203C5.2511 20.4201 5.26137 20.4174 5.27082 20.4122C5.27906 20.4077 5.29254 20.3982 5.30755 20.3755C5.86192 19.5349 6.62864 18.2857 7.25385 16.9492C7.88953 15.5904 8.33091 14.2405 8.33091 13.1704C8.33091 11.6765 7.47268 9.83657 6.50515 8.27191C6.10375 7.62278 5.70138 7.0489 5.37175 6.60414Z" fill="#97A483"/>
<path fill-rule="evenodd" clip-rule="evenodd" d="M9.34969 12.2365H0.859851V10.7084C0.859851 10.6146 0.935872 10.5386 1.02965 10.5386H9.17989C9.27367 10.5386 9.34969 10.6146 9.34969 10.7084V12.2365ZM0.859851 13.9345H9.34969V15.4627C9.34969 15.5564 9.27367 15.6325 9.17989 15.6325H1.02965C0.935872 15.6325 0.859851 15.5564 0.859851 15.4627V13.9345Z" fill="#97A483"/>
<path d="M9.34969 12.2365H0.859851V13.9345H9.34969V12.2365Z" fill="#97A483"/>
<path fill-rule="evenodd" clip-rule="evenodd" d="M5.27456 21.066C5.74344 21.066 6.12354 21.4461 6.12354 21.9149V22.6879C6.12354 23.6399 6.45192 24.5628 7.05328 25.3008L8.08606 26.5683C9.26152 28.011 9.24227 30.0863 8.04026 31.5069C6.57916 33.2337 3.95388 33.3411 2.35516 31.7424C0.8651 30.2523 0.840869 27.8422 2.30318 26.3236L2.45566 26.1653C2.7809 25.8275 3.31835 25.8174 3.65609 26.1426C3.99384 26.4678 4.00398 27.0053 3.67874 27.343L3.52626 27.5014C2.70638 28.3528 2.71938 29.7053 3.55581 30.5417C4.45283 31.4387 5.92529 31.3777 6.74405 30.4101C7.41806 29.6136 7.42885 28.4498 6.76973 27.6409L5.73696 26.3734C4.88875 25.3324 4.42558 24.0307 4.42558 22.6879V21.9149C4.42558 21.4461 4.80568 21.066 5.27456 21.066Z" fill="#97A483"/>
</svg>
