<svg width="34" height="33" viewBox="0 0 34 33" fill="none" xmlns="http://www.w3.org/2000/svg">
<path fill-rule="evenodd" clip-rule="evenodd" d="M6.09257 17.5184C6.05249 17.5184 6.02 17.5509 6.02 17.591V23.4677H11.7409V25.1967H6.02V31.0735C6.02 31.1136 6.05249 31.1461 6.09257 31.1461H27.645C27.6851 31.1461 27.7176 31.1136 27.7176 31.0735V25.1967H22.4606V23.4677H27.7176V17.591C27.7176 17.5509 27.6851 17.5184 27.645 17.5184H22.4606V15.7894H27.645C28.64 15.7894 29.4466 16.596 29.4466 17.591V31.0735C29.4466 32.0685 28.64 32.8751 27.645 32.8751H6.09257C5.0976 32.8751 4.29102 32.0685 4.29102 31.0735V17.591C4.29102 16.596 5.0976 15.7894 6.09257 15.7894H11.7409V17.5184H6.09257Z" fill="#97A483"/>
<path fill-rule="evenodd" clip-rule="evenodd" d="M11.0005 15.0757C11.0005 14.0808 11.8071 13.2742 12.802 13.2742H20.9545C21.9495 13.2742 22.7561 14.0808 22.7561 15.0757V26.6953C22.7561 27.6903 21.9495 28.4969 20.9545 28.4969H12.802C11.8071 28.4969 11.0005 27.6903 11.0005 26.6953V15.0757ZM12.802 15.0032C12.762 15.0032 12.7295 15.0356 12.7295 15.0757V20.021H16.0138V15.0032H12.802ZM17.7428 15.0032V20.021H21.0271V15.0757C21.0271 15.0356 20.9946 15.0032 20.9545 15.0032H17.7428ZM21.0271 21.75H17.7428V26.7679H20.9545C20.9946 26.7679 21.0271 26.7354 21.0271 26.6953V21.75ZM16.0138 26.7679V21.75H12.7295V26.6953C12.7295 26.7354 12.762 26.7679 12.802 26.7679H16.0138Z" fill="#97A483"/>
<path d="M31.8246 16.8248C32.0599 17.0601 32.0599 17.4417 31.8246 17.677C31.5893 17.9123 31.2077 17.9123 30.9724 17.677L28.0324 14.737C26.7762 13.4809 26.3874 13.092 24.9714 11.676C23.2709 9.97553 22.4535 9.1581 20.8674 7.57203L19.3416 6.04625C17.9794 4.68399 15.7707 4.68399 14.4085 6.04625L2.7777 17.677C2.54237 17.9123 2.16083 17.9123 1.9255 17.677C1.69017 17.4417 1.69017 17.0601 1.9255 16.8248L15.631 3.11927C16.3181 2.43222 17.432 2.43222 18.1191 3.11927L31.8246 16.8248Z" fill="#97A483"/>
<path fill-rule="evenodd" clip-rule="evenodd" d="M33.0472 18.8996C33.9577 17.9891 33.9577 16.5128 33.0472 15.6022L19.3416 1.89669C17.9794 0.534437 15.7707 0.534436 14.4085 1.89669L0.702923 15.6022C-0.207615 16.5128 -0.207615 17.9891 0.702923 18.8996C1.61346 19.8101 3.08974 19.8101 4.00028 18.8996L12.5649 10.335L21.1852 10.335L19.4562 8.60601L14.2939 8.60601L15.631 7.26882C16.3181 6.58178 17.432 6.58178 18.1191 7.26882L19.4562 8.60601L21.1852 10.335L29.7498 18.8996C30.6604 19.8101 32.1366 19.8101 33.0472 18.8996ZM31.8246 17.677C32.0599 17.4417 32.0599 17.0601 31.8246 16.8248L18.1191 3.11927C17.432 2.43222 16.3181 2.43222 15.631 3.11927L1.9255 16.8248C1.69017 17.0601 1.69017 17.4417 1.9255 17.677C2.16083 17.9123 2.54237 17.9123 2.7777 17.677L14.4085 6.04625C15.7707 4.68399 17.9794 4.68399 19.3416 6.04625L20.8674 7.57203L24.9714 11.676L28.0324 14.737L30.9724 17.677C31.2077 17.9123 31.5893 17.9123 31.8246 17.677Z" fill="#97A483"/>
<path fill-rule="evenodd" clip-rule="evenodd" d="M31.8246 16.8248C32.0599 17.0601 32.0599 17.4417 31.8246 17.677C31.5893 17.9123 31.2077 17.9123 30.9724 17.677L28.0324 14.737L24.9714 11.676L20.8674 7.57203L19.3416 6.04625C17.9794 4.68399 15.7707 4.68399 14.4085 6.04625L2.7777 17.677C2.54237 17.9123 2.16083 17.9123 1.9255 17.677C1.69017 17.4417 1.69017 17.0601 1.9255 16.8248L15.631 3.11927C16.3181 2.43222 17.432 2.43222 18.1191 3.11927L31.8246 16.8248Z" fill="#97A483"/>
</svg>
