<svg width="35" height="33" viewBox="0 0 35 33" fill="none" xmlns="http://www.w3.org/2000/svg">
<path fill-rule="evenodd" clip-rule="evenodd" d="M11.0729 14.5177C11.5542 14.6608 11.8283 15.167 11.6851 15.6482L10.0634 21.1009C9.96342 21.437 10.1594 21.7895 10.4976 21.882L16.4169 23.5003C16.8146 23.609 17.2067 23.3097 17.2067 22.8974V17.8486C17.2067 17.3466 17.6137 16.9395 18.1158 16.9395C18.6179 16.9395 19.0249 17.3466 19.0249 17.8486V22.8353C19.0249 23.2552 19.4307 23.5556 19.8323 23.4331L24.7908 21.9202C25.1193 21.82 25.3054 21.4735 25.2075 21.1442L23.5729 15.6482C23.4297 15.167 23.7038 14.6608 24.1851 14.5177C24.6663 14.3746 25.1725 14.6487 25.3156 15.1299L29.4534 29.0422C29.5966 29.5234 29.3225 30.0296 28.8412 30.1727C28.36 30.3158 27.8538 30.0417 27.7107 29.5605L26.0822 24.0852C25.9833 23.7527 25.6326 23.5643 25.3008 23.6656L19.4675 25.4453C19.2045 25.5256 19.0249 25.7682 19.0249 26.0431V31.9659C19.0249 32.468 18.6179 32.875 18.1158 32.875C17.6137 32.875 17.2067 32.468 17.2067 31.9659V26.0782C17.2067 25.7965 17.0183 25.5497 16.7465 25.4754L9.95237 23.6178C9.62463 23.5282 9.28534 23.7168 9.18847 24.0425L7.54729 29.5605C7.40416 30.0417 6.89801 30.3158 6.41677 30.1727C5.93552 30.0296 5.66143 29.5234 5.80456 29.0422L9.94239 15.1299C10.0855 14.6487 10.5917 14.3746 11.0729 14.5177Z" fill="#97A483"/>
<path fill-rule="evenodd" clip-rule="evenodd" d="M0.89502 5.80027C0.89502 4.29 2.11934 3.06567 3.62962 3.06567H4.35983C5.8701 3.06567 7.09442 4.29 7.09442 5.80027V6.16538C7.09442 7.67565 5.8701 8.89998 4.35982 8.89998H3.62962C2.11934 8.89998 0.89502 7.67565 0.89502 6.16538V5.80027ZM3.62962 4.88385C3.12349 4.88385 2.7132 5.29415 2.7132 5.80027V6.16538C2.7132 6.6715 3.12349 7.0818 3.62962 7.0818H4.35982C4.86595 7.0818 5.27624 6.6715 5.27624 6.16538V5.80027C5.27624 5.29415 4.86595 4.88385 4.35983 4.88385H3.62962Z" fill="#97A483"/>
<path fill-rule="evenodd" clip-rule="evenodd" d="M28.156 5.80027C28.156 4.29 29.3803 3.06567 30.8906 3.06567H31.6208C33.1311 3.06567 34.3554 4.29 34.3554 5.80027V6.16538C34.3554 7.67565 33.1311 8.89998 31.6208 8.89998H30.8906C29.3803 8.89998 28.156 7.67565 28.156 6.16538V5.80027ZM30.8906 4.88385C30.3844 4.88385 29.9741 5.29415 29.9741 5.80027V6.16538C29.9741 6.6715 30.3844 7.0818 30.8906 7.0818H31.6208C32.1269 7.0818 32.5372 6.6715 32.5372 6.16538V5.80027C32.5372 5.29415 32.1269 4.88385 31.6208 4.88385H30.8906Z" fill="#97A483"/>
<path fill-rule="evenodd" clip-rule="evenodd" d="M7.71955 2.69318C7.37437 2.69318 7.09455 2.973 7.09455 3.31818V4.14442C7.09455 4.4896 7.37437 4.76942 7.71955 4.76942H10.3713C10.7165 4.76942 10.9963 4.4896 10.9963 4.14442V3.31818C10.9963 2.973 10.7165 2.69318 10.3713 2.69318H7.71955ZM13.4395 2.69318C13.0943 2.69318 12.8145 2.973 12.8145 3.31818V4.14442C12.8145 4.4896 13.0943 4.76942 13.4395 4.76942H16.0912C16.4364 4.76942 16.7162 4.4896 16.7162 4.14442V3.31818C16.7162 2.973 16.4364 2.69318 16.0912 2.69318H13.4395ZM19.1594 2.69318C18.8142 2.69318 18.5344 2.973 18.5344 3.31818V4.14442C18.5344 4.4896 18.8142 4.76942 19.1594 4.76942H21.8112C22.1563 4.76942 22.4362 4.4896 22.4362 4.14442V3.31818C22.4362 2.973 22.1563 2.69318 21.8112 2.69318H19.1594ZM24.8793 2.69318C24.5342 2.69318 24.2543 2.973 24.2543 3.31818V4.14442C24.2543 4.4896 24.5342 4.76942 24.8793 4.76942H27.5311C27.8763 4.76942 28.1561 4.4896 28.1561 4.14442V3.31818C28.1561 2.973 27.8763 2.69318 27.5311 2.69318H24.8793ZM28.0375 7.26402C28.0922 6.90194 27.8029 6.5876 27.4367 6.5876H7.81396C7.44777 6.5876 7.15844 6.90194 7.21312 7.26402C7.97776 12.3278 12.3483 16.2093 17.6253 16.2093C22.9024 16.2093 27.2729 12.3278 28.0375 7.26402ZM5.27637 2.27089C5.27637 1.49996 5.90133 0.875 6.67226 0.875H28.5784C29.3493 0.875 29.9743 1.49996 29.9743 2.27089V5.67851C29.9743 12.4987 24.4455 18.0275 17.6253 18.0275C10.8052 18.0275 5.27637 12.4987 5.27637 5.67851V2.27089Z" fill="#97A483"/>
<path d="M17.6253 16.2093C12.3483 16.2093 7.97776 12.3278 7.21312 7.26402C7.15844 6.90194 7.44777 6.5876 7.81396 6.5876H27.4367C27.8029 6.5876 28.0922 6.90194 28.0375 7.26402C27.2729 12.3278 22.9024 16.2093 17.6253 16.2093Z" fill="#97A483"/>
</svg>
