<svg width="33" height="33" viewBox="0 -4.5 33 33" fill="none" xmlns="http://www.w3.org/2000/svg">
<path fill-rule="evenodd" clip-rule="evenodd" d="M8.59542 3.59885C8.59542 1.95745 9.92604 0.626831 11.5674 0.626831H22.2432C23.8846 0.626831 25.2152 1.95745 25.2152 3.59885V4.28923H29.903C31.5444 4.28923 32.875 5.61985 32.875 7.26125V20.8512C32.875 22.4926 31.5444 23.8232 29.903 23.8232H3.84702C2.20562 23.8232 0.875 22.4926 0.875 20.8512V7.26125C0.875 5.61984 2.20562 4.28923 3.84702 4.28923H8.59542V3.59885ZM11.5674 2.31104C10.8562 2.31104 10.2796 2.88761 10.2796 3.59885V4.42136C10.2796 5.27855 9.58474 5.97344 8.72755 5.97344H3.84702C3.13578 5.97344 2.55921 6.55001 2.55921 7.26125V9.58726H4.5994C6.2408 9.58726 7.57142 10.9179 7.57142 12.5593V17.1888C7.57142 18.8302 6.2408 20.1608 4.5994 20.1608H2.55921V20.8512C2.55921 21.5624 3.13578 22.139 3.84702 22.139H29.903C30.6142 22.139 31.1908 21.5624 31.1908 20.8512V7.26125C31.1908 6.55001 30.6142 5.97344 29.903 5.97344H25.0831C24.2259 5.97344 23.531 5.27855 23.531 4.42136V3.59885C23.531 2.88761 22.9544 2.31104 22.2432 2.31104H11.5674ZM2.55921 18.4766H4.5994C5.31064 18.4766 5.88721 17.9 5.88721 17.1888V12.5593C5.88721 11.848 5.31064 11.2715 4.5994 11.2715H2.55921V18.4766ZM13.8431 5.26039C13.4824 5.26039 13.1899 5.55284 13.1899 5.91359C13.1899 6.37868 12.8129 6.7557 12.3478 6.7557C11.8828 6.7557 11.5057 6.37868 11.5057 5.91359C11.5057 4.62268 12.5522 3.57618 13.8431 3.57618H19.9068C21.1978 3.57618 22.2443 4.62268 22.2443 5.91359C22.2443 6.37868 21.8672 6.7557 21.4022 6.7557C20.9371 6.7557 20.5601 6.37868 20.5601 5.91359C20.5601 5.55284 20.2676 5.26039 19.9068 5.26039H13.8431Z" fill="#97A483"/>
<path d="M4.5994 18.4766H2.55921V11.2715H4.5994C5.31064 11.2715 5.88721 11.848 5.88721 12.5593V17.1888C5.88721 17.9 5.31064 18.4766 4.5994 18.4766Z" fill="#97A483"/>
<path fill-rule="evenodd" clip-rule="evenodd" d="M16.9105 8.34572C13.7682 8.34572 11.2209 10.8931 11.2209 14.0354C11.2209 17.1777 13.7682 19.725 16.9105 19.725C20.0528 19.725 22.6001 17.1777 22.6001 14.0354C22.6001 10.8931 20.0528 8.34572 16.9105 8.34572ZM9.53666 14.0354C9.53666 9.9629 12.838 6.66151 16.9105 6.66151C20.983 6.66151 24.2843 9.9629 24.2843 14.0354C24.2843 18.1078 20.983 21.4092 16.9105 21.4092C12.838 21.4092 9.53666 18.1078 9.53666 14.0354Z" fill="#97A483"/>
<path fill-rule="evenodd" clip-rule="evenodd" d="M16.929 11.0689C15.3179 11.0689 14.0118 12.3749 14.0118 13.986C14.0118 15.5972 15.3179 16.9032 16.929 16.9032C18.5401 16.9032 19.8462 15.5972 19.8462 13.986C19.8462 12.3749 18.5401 11.0689 16.929 11.0689ZM12.3276 13.986C12.3276 11.4448 14.3878 9.38465 16.929 9.38465C19.4703 9.38465 21.5304 11.4448 21.5304 13.986C21.5304 16.5273 19.4703 18.5874 16.929 18.5874C14.3878 18.5874 12.3276 16.5273 12.3276 13.986Z" fill="#97A483"/>
<path fill-rule="evenodd" clip-rule="evenodd" d="M11.2209 14.0354C11.2209 10.8931 13.7682 8.34572 16.9105 8.34572C20.0528 8.34572 22.6001 10.8931 22.6001 14.0354C22.6001 17.1777 20.0528 19.725 16.9105 19.725C13.7682 19.725 11.2209 17.1777 11.2209 14.0354ZM12.3276 13.986C12.3276 11.4448 14.3878 9.38465 16.929 9.38465C19.4703 9.38465 21.5304 11.4448 21.5304 13.986C21.5304 16.5273 19.4703 18.5874 16.929 18.5874C14.3878 18.5874 12.3276 16.5273 12.3276 13.986Z" fill="#97A483"/>
<path fill-rule="evenodd" clip-rule="evenodd" d="M16.875 13.7637C16.596 13.7637 16.3697 13.9899 16.3697 14.2689C16.3697 14.734 15.9927 15.111 15.5276 15.111C15.0625 15.111 14.6855 14.734 14.6855 14.2689C14.6855 13.0597 15.6658 12.0795 16.875 12.0795C17.3401 12.0795 17.7171 12.4565 17.7171 12.9216C17.7171 13.3866 17.3401 13.7637 16.875 13.7637Z" fill="#97A483"/>
<path fill-rule="evenodd" clip-rule="evenodd" d="M27.5601 8.29454C28.0251 8.29454 28.4022 8.67156 28.4022 9.13665V18.8633C28.4022 19.3283 28.0251 19.7054 27.5601 19.7054C27.095 19.7054 26.718 19.3283 26.718 18.8633V9.13665C26.718 8.67156 27.095 8.29454 27.5601 8.29454Z" fill="#97A483"/>
</svg>
