<svg width="25" height="33" viewBox="0 0 25 33" fill="none" xmlns="http://www.w3.org/2000/svg">
<path fill-rule="evenodd" clip-rule="evenodd" d="M2.25225 11.0815C2.84998 7.85373 5.76654 5.58254 9.04236 5.79389L9.18795 5.80328C9.64591 5.83283 9.9932 6.22802 9.96366 6.68598C9.93411 7.14393 9.53891 7.49122 9.08096 7.46168L8.93537 7.45229C6.4995 7.29513 4.33078 8.98396 3.88631 11.3841L2.2262 20.3487C1.84495 22.4074 2.83661 24.4769 4.68013 25.4695L7.53418 27.0063C7.93824 27.2239 8.08941 27.7278 7.87185 28.1319C7.65428 28.5359 7.15035 28.6871 6.7463 28.4695L3.89225 26.9327C1.41304 25.5978 0.0794156 22.8148 0.592138 20.0461L2.25225 11.0815Z" fill="#97A483"/>
<path fill-rule="evenodd" clip-rule="evenodd" d="M22.4979 11.0815C21.9001 7.85373 18.9836 5.58254 15.7077 5.79389L15.5622 5.80328C15.1042 5.83283 14.7569 6.22802 14.7865 6.68598C14.816 7.14393 15.2112 7.49122 15.6692 7.46168L15.8147 7.45229C18.2506 7.29513 20.4193 8.98396 20.8638 11.3841L22.5239 20.3487C22.9052 22.4074 21.9135 24.4769 20.07 25.4695L17.2159 27.0063C16.8119 27.2239 16.6607 27.7278 16.8783 28.1319C17.0958 28.5359 17.5998 28.6871 18.0038 28.4695L20.8579 26.9327C23.3371 25.5978 24.6707 22.8148 24.158 20.0461L22.4979 11.0815Z" fill="#97A483"/>
<path fill-rule="evenodd" clip-rule="evenodd" d="M8.19571 8.48014C8.35607 7.53803 9.17244 6.84888 10.1281 6.84888H14.6206C15.5763 6.84888 16.3927 7.53803 16.553 8.48014L18.3622 19.1092C18.9935 22.8177 16.1362 26.2024 12.3744 26.2024C8.61253 26.2024 5.75528 22.8177 6.38651 19.1092L8.19571 8.48014ZM10.1281 8.51072C9.98265 8.51072 9.8584 8.61561 9.83399 8.75899L8.02479 19.388C7.61406 21.8011 9.23664 24.0254 11.5434 24.4629V22.1144C9.65183 21.5497 8.61353 19.3662 9.55248 17.4883L11.1762 14.2409C11.6699 13.2535 13.0789 13.2535 13.5726 14.2409L15.1963 17.4883C16.1352 19.3662 15.0969 21.5497 13.2053 22.1144V24.4629C15.5121 24.0254 17.1347 21.8011 16.7239 19.388L14.9147 8.75899C14.8903 8.61561 14.7661 8.51072 14.6206 8.51072H10.1281ZM13.2053 20.285C13.8198 19.8401 14.0871 18.986 13.7099 18.2315L12.3744 15.5605L11.0389 18.2315C10.6616 18.986 10.9289 19.8401 11.5434 20.285V19.2627C11.5434 18.8038 11.9155 18.4317 12.3744 18.4317C12.8333 18.4317 13.2053 18.8038 13.2053 19.2627V20.285Z" fill="#97A483"/>
<path fill-rule="evenodd" clip-rule="evenodd" d="M8.78797 27.6451H15.9717C15.0385 26.7508 13.773 26.2023 12.3798 26.2023C10.9867 26.2023 9.72109 26.7508 8.78797 27.6451ZM17.1353 29.3069H12.3798H7.62437C7.45061 29.7022 7.32473 30.1233 7.25407 30.5631H17.5056C17.4349 30.1233 17.309 29.7022 17.1353 29.3069ZM6.38341 28.0729C7.55138 25.968 9.79831 24.5404 12.3798 24.5404C14.9613 24.5404 17.2083 25.968 18.3762 28.0729C18.865 28.9536 19.1654 29.9535 19.2232 31.0167C19.2607 31.7057 18.7 32.2249 18.0701 32.2249H6.6895C6.05968 32.2249 5.49898 31.7057 5.53644 31.0167C5.59425 29.9535 5.89468 28.9536 6.38341 28.0729Z" fill="#97A483"/>
<path d="M7.25407 30.5631C7.32473 30.1233 7.45061 29.7022 7.62437 29.3069H12.3798H17.1353C17.309 29.7022 17.4349 30.1233 17.5056 30.5631H7.25407Z" fill="#97A483"/>
<path d="M14.6167 6.84877H10.1328C10.4574 5.824 11.3652 5.12285 12.3747 5.12285C13.3842 5.12285 14.292 5.824 14.6167 6.84877Z" fill="#97A483"/>
<path fill-rule="evenodd" clip-rule="evenodd" d="M10.7545 3.29357L11.0163 3.70494C9.43952 4.29369 8.34424 5.87769 8.34424 7.67969V8.51061H16.4052V7.67969C16.4052 5.90637 15.3445 4.34416 13.8081 3.7338L14.0537 3.39599C14.5629 2.69587 14.5629 1.74738 14.0537 1.04726C13.2255 -0.0915095 11.5105 -0.0382675 10.7545 1.14968C10.3383 1.80371 10.3383 2.63954 10.7545 3.29357ZM12.7097 2.02471C12.5709 1.83377 12.2833 1.84269 12.1565 2.04189C12.0867 2.15155 12.0867 2.2917 12.1565 2.40137L12.4205 2.81621L12.7097 2.41854C12.7951 2.30115 12.7951 2.14211 12.7097 2.02471ZM10.1328 6.84877H14.6167C14.292 5.824 13.3842 5.12285 12.3747 5.12285C11.3652 5.12285 10.4574 5.824 10.1328 6.84877Z" fill="#97A483"/>
<path d="M12.1565 2.04189C12.2833 1.84269 12.5709 1.83377 12.7097 2.02471C12.7951 2.14211 12.7951 2.30115 12.7097 2.41854L12.4205 2.81621L12.1565 2.40137C12.0867 2.2917 12.0867 2.15155 12.1565 2.04189Z" fill="#97A483"/>
</svg>
