<svg width="43" height="33" viewBox="0 0 43 33" fill="none" xmlns="http://www.w3.org/2000/svg">
<path fill-rule="evenodd" clip-rule="evenodd" d="M6.96013 23.2943C5.60327 24.4525 3.92575 25.8844 1.33065 25.8844C0.723305 25.8844 0.230957 25.392 0.230957 24.7847C0.230957 24.1773 0.723305 23.685 1.33065 23.685C3.0566 23.685 4.17267 22.7815 5.59212 21.5704C5.62253 21.5444 5.6531 21.5183 5.68383 21.4921C7.0268 20.3451 8.68423 18.9296 11.2279 18.9296C13.7775 18.9296 15.4535 20.3515 16.8092 21.5017C16.8355 21.5239 16.8616 21.5461 16.8876 21.5682C18.3226 22.7848 19.436 23.685 21.1251 23.685C22.8141 23.685 23.9275 22.7848 25.3625 21.5682C25.3885 21.5461 25.4147 21.5239 25.4409 21.5017C26.7966 20.3515 28.4726 18.9296 31.0223 18.9296C33.5659 18.9296 35.2233 20.3451 36.5663 21.4921C36.597 21.5183 36.6276 21.5444 36.658 21.5704C38.0775 22.7815 39.1935 23.685 40.9195 23.685C41.5268 23.685 42.0192 24.1773 42.0192 24.7847C42.0192 25.392 41.5268 25.8844 40.9195 25.8844C38.3244 25.8844 36.6469 24.4525 35.29 23.2943L35.2305 23.2435C33.803 22.0256 32.7085 21.1289 31.0223 21.1289C29.3332 21.1289 28.2198 22.0292 26.7848 23.2458C26.7588 23.2678 26.7327 23.29 26.7064 23.3123C25.3507 24.4625 23.6747 25.8844 21.1251 25.8844C18.5754 25.8844 16.8994 24.4625 15.5437 23.3123C15.5175 23.29 15.4913 23.2678 15.4653 23.2458C14.0303 22.0292 12.9169 21.1289 11.2279 21.1289C9.54159 21.1289 8.44716 22.0256 7.01965 23.2435C6.99988 23.2604 6.98004 23.2773 6.96013 23.2943Z" fill="#97A483"/>
<path fill-rule="evenodd" clip-rule="evenodd" d="M6.96013 29.6349C5.60327 30.7931 3.92575 32.2249 1.33065 32.2249C0.723305 32.2249 0.230957 31.7326 0.230957 31.1252C0.230957 30.5179 0.723305 30.0256 1.33065 30.0256C3.0566 30.0256 4.17267 29.122 5.59212 27.911C5.62253 27.885 5.6531 27.8589 5.68383 27.8327C7.0268 26.6857 8.68423 25.2701 11.2279 25.2701C13.7775 25.2701 15.4535 26.692 16.8092 27.8422C16.8355 27.8645 16.8616 27.8867 16.8876 27.9087C18.3226 29.1253 19.436 30.0256 21.1251 30.0256C22.8141 30.0256 23.9275 29.1253 25.3625 27.9087C25.3885 27.8867 25.4147 27.8645 25.4409 27.8422C26.7966 26.692 28.4726 25.2701 31.0223 25.2701C33.5659 25.2701 35.2233 26.6857 36.5663 27.8327C36.597 27.8589 36.6276 27.885 36.658 27.911C38.0775 29.122 39.1935 30.0256 40.9195 30.0256C41.5268 30.0256 42.0192 30.5179 42.0192 31.1252C42.0192 31.7326 41.5268 32.2249 40.9195 32.2249C38.3244 32.2249 36.6469 30.7931 35.29 29.6349L35.2305 29.5841C33.803 28.3662 32.7085 27.4695 31.0223 27.4695C29.3332 27.4695 28.2198 28.3697 26.7848 29.5863C26.7588 29.6084 26.7327 29.6306 26.7064 29.6528C25.3507 30.803 23.6747 32.2249 21.1251 32.2249C18.5754 32.2249 16.8994 30.803 15.5437 29.6528C15.5175 29.6306 15.4913 29.6084 15.4653 29.5863C14.0303 28.3697 12.9169 27.4695 11.2279 27.4695C9.54159 27.4695 8.44716 28.3662 7.01965 29.5841C6.99988 29.601 6.98004 29.6179 6.96013 29.6349Z" fill="#97A483"/>
<path fill-rule="evenodd" clip-rule="evenodd" d="M12.989 12.8296C13.7396 9.01051 17.1058 6.12964 21.1449 6.12964C25.1803 6.12964 28.5439 9.00522 29.2986 12.8192C29.8277 12.6734 30.3992 12.5891 31.0223 12.5891C33.5659 12.5891 35.2233 14.0046 36.5663 15.1516C36.597 15.1778 36.6276 15.204 36.658 15.2299C37.7913 16.1969 39.4323 16.9677 40.9262 17.2392C41.5238 17.3478 42.0192 17.8368 42.0192 18.4442C42.0192 19.0515 41.5247 19.5489 40.9233 19.4644C38.6745 19.1485 36.457 17.9499 35.29 16.9538L35.2305 16.903C33.803 15.6851 32.7085 14.7885 31.0223 14.7885C30.2016 14.7885 29.5198 15.0036 28.8818 15.35C28.3665 15.6298 27.8779 15.9961 27.3579 16.4241C27.1879 16.5641 27.0054 16.7186 26.816 16.8791C26.4636 17.1776 26.0874 17.4963 25.7235 17.7783C24.5417 18.6939 23.1049 19.5439 21.1251 19.5439C19.1561 19.5439 17.7242 18.7032 16.5458 17.7931C16.1735 17.5055 15.7924 17.1826 15.4356 16.8803C15.2552 16.7275 15.081 16.5799 14.9174 16.4448C14.3996 16.0175 13.9136 15.6506 13.4016 15.3682C12.7534 15.0108 12.0621 14.7885 11.2279 14.7885C9.54158 14.7885 8.44716 15.6851 7.01965 16.903C6.99988 16.9199 6.98004 16.9369 6.96013 16.9538C5.60327 18.112 3.92575 19.5439 1.33065 19.5439C0.723305 19.5439 0.230957 19.0515 0.230957 18.4442C0.230957 17.8368 0.723305 17.3445 1.33065 17.3445C3.0566 17.3445 4.17267 16.441 5.59212 15.2299C5.62253 15.204 5.6531 15.1779 5.68383 15.1516C7.0268 14.0046 8.68423 12.5891 11.2279 12.5891C11.8658 12.5891 12.4497 12.6775 12.989 12.8296ZM15.0648 13.8066C15.5166 14.1044 15.9316 14.4302 16.3173 14.7485C16.53 14.924 16.7265 15.0907 16.9161 15.2517C17.2448 15.5305 17.5531 15.7921 17.8903 16.0525C18.8966 16.8298 19.8566 17.3445 21.1251 17.3445C22.4004 17.3445 23.3638 16.8243 24.3764 16.0397C24.7094 15.7817 25.0114 15.5254 25.333 15.2525C25.5308 15.0846 25.7359 14.9106 25.9602 14.726C26.3485 14.4064 26.7666 14.0798 27.2224 13.7822C26.8936 10.7165 24.298 8.32902 21.1449 8.32902C17.9834 8.32902 15.3825 10.7291 15.0648 13.8066Z" fill="#97A483"/>
<path d="M16.3173 14.7485C15.9316 14.4302 15.5166 14.1044 15.0648 13.8066C15.3825 10.7291 17.9834 8.32902 21.1449 8.32902C24.298 8.32902 26.8936 10.7165 27.2224 13.7822C26.7666 14.0798 26.3485 14.4064 25.9602 14.726C25.7359 14.9106 25.5308 15.0846 25.333 15.2525C25.0114 15.5254 24.7094 15.7817 24.3764 16.0397C23.3638 16.8243 22.4004 17.3445 21.1251 17.3445C19.8566 17.3445 18.8966 16.8298 17.8903 16.0525C17.5531 15.7921 17.2448 15.5305 16.9161 15.2517C16.7265 15.0907 16.53 14.924 16.3173 14.7485Z" fill="#97A483"/>
<path fill-rule="evenodd" clip-rule="evenodd" d="M21.0283 0.224976C21.6356 0.224976 22.128 0.717324 22.128 1.32467V4.81197C22.128 5.41931 21.6356 5.91166 21.0283 5.91166C20.4209 5.91166 19.9286 5.41931 19.9286 4.81197V1.32467C19.9286 0.717324 20.4209 0.224976 21.0283 0.224976Z" fill="#97A483"/>
<path fill-rule="evenodd" clip-rule="evenodd" d="M12.5524 3.0156C13.0387 2.65167 13.7279 2.75081 14.0918 3.23704L16.1815 6.02891C16.5454 6.51513 16.4463 7.20432 15.96 7.56826C15.4738 7.93219 14.7846 7.83305 14.4207 7.34683L12.331 4.55496C11.9671 4.06873 12.0662 3.37954 12.5524 3.0156Z" fill="#97A483"/>
<path fill-rule="evenodd" clip-rule="evenodd" d="M29.4834 3.0156C28.9972 2.65167 28.308 2.75081 27.944 3.23704L25.8544 6.02891C25.4904 6.51513 25.5896 7.20432 26.0758 7.56826C26.562 7.93219 27.2512 7.83305 27.6151 7.34683L29.7048 4.55496C30.0687 4.06873 29.9696 3.37954 29.4834 3.0156Z" fill="#97A483"/>
<path fill-rule="evenodd" clip-rule="evenodd" d="M13.2628 11.1843C13.3667 10.5859 12.9658 10.0166 12.3674 9.9127L8.93155 9.31611C8.33316 9.21221 7.76385 9.61308 7.65995 10.2115C7.55605 10.8099 7.95691 11.3792 8.5553 11.4831L11.9912 12.0797C12.5896 12.1836 13.1589 11.7827 13.2628 11.1843Z" fill="#97A483"/>
<path fill-rule="evenodd" clip-rule="evenodd" d="M28.9801 11.1843C28.8762 10.5859 29.277 10.0166 29.8754 9.9127L33.3113 9.31611C33.9097 9.21221 34.479 9.61308 34.5829 10.2115C34.6868 10.8099 34.286 11.3792 33.6876 11.4831L30.2517 12.0797C29.6533 12.1836 29.084 11.7827 28.9801 11.1843Z" fill="#97A483"/>
</svg>
