<svg width="49" height="49" viewBox="0 0 49 49" fill="none" xmlns="http://www.w3.org/2000/svg">
<path fill-rule="evenodd" clip-rule="evenodd" d="M39.7658 17.0602C39.9884 16.3186 39.7658 15.7734 38.7071 15.7734H35.2062C34.316 15.7734 33.9059 16.2443 33.6834 16.7637C33.6834 16.7637 31.903 21.1029 29.3809 23.9216C28.5649 24.7375 28.1941 24.9968 27.749 24.9968C27.5264 24.9968 27.2044 24.7375 27.2044 23.9959V17.0602C27.2044 16.17 26.9461 15.7734 26.2041 15.7734H20.7028C20.1467 15.7734 19.8121 16.1865 19.8121 16.5781C19.8121 17.4221 21.0729 17.6166 21.203 19.9902V25.1456C21.203 26.2759 20.9989 26.4809 20.5538 26.4809C19.367 26.4809 16.4804 22.1219 14.768 17.1345C14.4324 16.165 14.0958 15.7734 13.2011 15.7734H9.70028C8.70005 15.7734 8.5 16.2443 8.5 16.7637C8.5 17.6909 9.68703 22.29 14.0263 28.3724C16.9195 32.5259 20.9949 34.7779 24.7038 34.7779C26.9293 34.7779 27.2044 34.2778 27.2044 33.4163V30.2768C27.2044 29.2766 27.4152 29.077 28.1196 29.077C28.6392 29.077 29.5292 29.3366 31.6064 31.3393C33.9799 33.7126 34.371 34.7779 35.7064 34.7779H39.2072C40.2074 34.7779 40.7075 34.2778 40.419 33.2908C40.1034 32.307 38.9701 30.8802 37.4663 29.1883C36.6503 28.2238 35.4263 27.1854 35.0557 26.6662C34.5363 25.9986 34.6846 25.702 35.0557 25.1089C35.0557 25.1089 39.3207 19.1005 39.7658 17.0605V17.0602Z" fill="#97A483"/>
</svg>
