<svg width="48" height="48" viewBox="0 0 48 48" fill="none" xmlns="http://www.w3.org/2000/svg">
<rect width="48" height="48" rx="24" fill="url(#paint0_linear_884_252)"/>
<path fill-rule="evenodd" clip-rule="evenodd" d="M24.2578 35.8799C21.9025 35.8799 20.808 35.5361 18.9054 34.1607C17.702 35.708 13.8911 36.9172 13.7249 34.8484C13.7249 33.2954 13.3811 31.9831 12.9914 30.5504C12.5272 28.7854 12 26.8198 12 23.9716C12 17.1694 17.5816 12.0519 24.1948 12.0519C30.8137 12.0519 35.9999 17.4215 35.9999 24.0347C36.0106 27.1616 34.7802 30.1651 32.5788 32.3859C30.3774 34.6066 27.3848 35.8632 24.2578 35.8799ZM24.3553 17.9315C21.1346 17.7653 18.6246 19.9946 18.0688 23.4903C17.6103 26.3842 18.4241 29.9086 19.1175 30.092C19.4498 30.1722 20.2865 29.496 20.808 28.9745C21.6703 29.5702 22.6745 29.928 23.7192 30.0117C25.3233 30.0889 26.8937 29.5336 28.0928 28.4652C29.292 27.3969 30.024 25.9007 30.1318 24.2983C30.1945 22.6926 29.6243 21.1264 28.544 19.9368C27.4637 18.7472 25.9596 18.0292 24.3553 17.9373V17.9315Z" fill="white"/>
<defs>
<linearGradient id="paint0_linear_884_252" x1="-24" y1="-15" x2="56" y2="41" gradientUnits="userSpaceOnUse">
<stop stop-color="#5A8CFF"/>
<stop offset="0.538462" stop-color="#43D6FF"/>
<stop offset="1" stop-color="#8F3FFF"/>
</linearGradient>
</defs>
</svg>
