<svg width="49" height="49" viewBox="0 0 49 49" fill="none" xmlns="http://www.w3.org/2000/svg">
<path fill-rule="evenodd" clip-rule="evenodd" d="M24.7578 36.4052C22.4025 36.4052 21.308 36.0613 19.4054 34.686C18.202 36.2332 14.3911 37.4424 14.2249 35.3736C14.2249 33.8206 13.8811 32.5083 13.4914 31.0757C13.0272 29.3106 12.5 27.345 12.5 24.4969C12.5 17.6946 18.0816 12.5771 24.6948 12.5771C31.3137 12.5771 36.4999 17.9468 36.4999 24.5599C36.5106 27.6869 35.2802 30.6903 33.0788 32.9111C30.8774 35.1319 27.8848 36.3885 24.7578 36.4052ZM24.8553 18.4568C21.6346 18.2906 19.1246 20.5198 18.5688 24.0155C18.1103 26.9095 18.9241 30.4338 19.6175 30.6172C19.9498 30.6974 20.7865 30.0212 21.308 29.4997C22.1703 30.0954 23.1745 30.4532 24.2192 30.537C25.8233 30.6141 27.3937 30.0589 28.5928 28.9905C29.792 27.9221 30.524 26.4259 30.6318 24.8235C30.6945 23.2178 30.1243 21.6517 29.044 20.462C27.9637 19.2724 26.4596 18.5544 24.8553 18.4625V18.4568Z" fill="#97A483"/>
</svg>
