<svg width="49" height="49" viewBox="0 0 49 49" fill="none" xmlns="http://www.w3.org/2000/svg">
<path d="M35.2504 13.7369C32.6775 11.0882 29.1207 9.65039 25.4883 9.65039C17.7694 9.65039 11.564 15.9315 11.6396 23.5747C11.6396 25.9963 12.3207 28.3423 13.4558 30.4612L11.4883 37.6504L18.8288 35.7585C20.8721 36.8936 23.1423 37.4234 25.4126 37.4234C33.0558 37.4234 39.2613 31.1423 39.2613 23.499C39.2613 19.7909 37.8234 16.3099 35.2504 13.7369ZM25.4883 35.0774C23.445 35.0774 21.4018 34.5477 19.6613 33.4882L19.2072 33.2612L14.818 34.3963L15.9531 30.0828L15.6504 29.6288C12.3207 24.2558 13.9099 17.1423 19.3586 13.8126C24.8072 10.4828 31.845 12.072 35.1748 17.5207C38.5045 22.9693 36.9153 30.0071 31.4667 33.3369C29.7261 34.472 27.6072 35.0774 25.4883 35.0774ZM32.1477 26.6774L31.3153 26.299C31.3153 26.299 30.1045 25.7693 29.3477 25.3909C29.2721 25.3909 29.1964 25.3153 29.1207 25.3153C28.8937 25.3153 28.7423 25.3909 28.591 25.4666C28.591 25.4666 28.5153 25.5423 27.4558 26.7531C27.3802 26.9044 27.2288 26.9801 27.0775 26.9801H27.0018C26.9261 26.9801 26.7748 26.9044 26.6991 26.8288L26.3207 26.6774C25.4883 26.299 24.7315 25.845 24.1261 25.2396C23.9748 25.0882 23.7477 24.9369 23.5964 24.7855C23.0667 24.2558 22.5369 23.6504 22.1586 22.9693L22.0829 22.818C22.0072 22.7423 22.0072 22.6666 21.9315 22.5153C21.9315 22.3639 21.9315 22.2126 22.0072 22.1369C22.0072 22.1369 22.3099 21.7585 22.5369 21.5315C22.6883 21.3801 22.764 21.1531 22.9153 21.0017C23.0667 20.7747 23.1423 20.472 23.0667 20.245C22.991 19.8666 22.0829 17.8234 21.8558 17.3693C21.7045 17.1423 21.5531 17.0666 21.3261 16.9909H21.0991C20.9477 16.9909 20.7207 16.9909 20.4937 16.9909C20.3423 16.9909 20.191 17.0666 20.0396 17.0666L19.964 17.1423C19.8126 17.218 19.6613 17.3693 19.5099 17.445C19.3586 17.5963 19.2829 17.7477 19.1315 17.899C18.6018 18.5801 18.2991 19.4126 18.2991 20.245C18.2991 20.8504 18.4504 21.4558 18.6775 21.9855L18.7531 22.2126C19.4342 23.6504 20.3423 24.9369 21.5531 26.072L21.8558 26.3747C22.0829 26.6017 22.3099 26.7531 22.4613 26.9801C24.0504 28.3423 25.8667 29.3261 27.9099 29.8558C28.1369 29.9315 28.4396 29.9315 28.6667 30.0071C28.8937 30.0071 29.1964 30.0071 29.4234 30.0071C29.8018 30.0071 30.2558 29.8558 30.5586 29.7044C30.7856 29.5531 30.9369 29.5531 31.0883 29.4017L31.2396 29.2504C31.391 29.099 31.5423 29.0234 31.6937 28.872C31.845 28.7207 31.9964 28.5693 32.0721 28.418C32.2234 28.1153 32.2991 27.7369 32.3748 27.3585C32.3748 27.2071 32.3748 26.9801 32.3748 26.8288C32.3748 26.8288 32.2991 26.7531 32.1477 26.6774Z" fill="#97A483"/>
</svg>
