<svg width="49" height="49" viewBox="0 0 49 49" fill="none" xmlns="http://www.w3.org/2000/svg">
<path d="M34.5186 12.7153C34.5186 12.7153 36.5461 11.8063 36.5811 13.3091L32.1426 35.606C32.1426 35.606 31.5134 37.1435 29.8359 36.4097L23.5449 31.5864L19.4912 35.2563C19.4912 35.2563 19.1766 35.5006 18.8271 35.3608C18.822 35.3602 18.5096 35.3167 18.1631 34.1733C17.7802 32.99 15.907 26.8496 15.8916 26.7993L9.63574 24.7017C9.62006 24.6958 8.69087 24.3464 8.58691 23.6187C8.48223 22.8848 9.6709 22.4653 9.6709 22.4653L34.5186 12.7153ZM31.7578 17.2583C31.7928 16.7341 30.9189 17.2583 30.9189 17.2583L17.1846 25.9956C16.9751 26.1354 16.9047 26.3797 16.9746 26.5894L18.6172 31.9712C18.722 32.2856 19.1758 32.2508 19.2461 31.9019L19.6309 28.6167C19.6309 28.4769 19.7008 28.3712 19.8057 28.3013C21.1345 27.1123 31.024 18.2363 31.4434 17.8169C31.8975 17.3278 31.7578 17.2583 31.7578 17.2583Z" fill="#97A483"/>
</svg>
