<svg width="48" height="48" viewBox="0 0 48 48" fill="none" xmlns="http://www.w3.org/2000/svg">
<rect width="48" height="48" rx="24" fill="#419FD9"/>
<path d="M34.0187 12.1899C34.0398 12.1805 36.0455 11.2887 36.0803 12.7836L31.6418 35.0805C31.6388 35.0877 31.0087 36.6164 29.3352 35.8842L23.0451 31.0619L18.9904 34.7309C18.9843 34.7356 18.6724 34.9748 18.3264 34.8363C18.3167 34.835 18.0063 34.7829 17.6623 33.6479C17.2791 32.4634 15.4029 26.3133 15.3908 26.2738L9.13496 24.1772C9.12127 24.172 8.19118 23.8217 8.08711 23.0932C7.98286 22.3629 9.15876 21.9439 9.17012 21.9399L34.0187 12.1899ZM31.257 16.7328C31.2916 16.2136 30.4356 16.723 30.4191 16.7328L16.6838 25.4701C16.4744 25.61 16.405 25.8543 16.4748 26.0639L18.1174 31.4457C18.2222 31.7601 18.6761 31.7255 18.7463 31.3764L19.1301 28.0912C19.1301 27.9516 19.2003 27.8467 19.3049 27.7768C20.6329 26.5885 30.5232 17.7108 30.9426 17.2914C31.3968 16.8022 31.257 16.7328 31.257 16.7328Z" fill="white"/>
</svg>
