<svg width="66" height="51" viewBox="0 0 66 51" fill="none" xmlns="http://www.w3.org/2000/svg">
<path d="M19.7563 44.3897L19.7059 41.8702L19.6555 32.447C19.7495 32.1205 19.7381 31.8013 19.6212 31.4896C19.5742 31.3324 19.4707 31.2484 19.3108 31.2376C18.2237 31.1597 17.0754 31.1637 15.8661 31.2497C15.5798 31.2685 15.3722 31.3445 15.2432 31.4775C15.1021 31.6226 14.9758 31.8242 14.8643 32.0822C13.5649 35.0842 12.2453 38.0774 10.9055 41.0619C9.57253 44.0289 8.24288 47.0538 6.91658 50.1364C6.88094 50.2199 6.82393 50.2929 6.75115 50.348C6.67836 50.4031 6.59228 50.4385 6.50136 50.4508C4.56096 50.7155 2.58159 50.7317 0.563255 50.4992C0.535498 50.4961 0.509976 50.4827 0.491968 50.4617C0.473959 50.4406 0.46484 50.4137 0.466501 50.3863C0.481283 50.1323 0.55452 49.9012 0.68621 49.6929C0.9254 49.3113 1.04835 49.1124 1.05507 49.0963C3.16613 44.6095 5.24426 40.1072 7.28947 35.5894C8.11186 33.7727 8.95507 31.9821 9.81911 30.2177C9.86073 30.1326 9.8678 30.0348 9.83883 29.9449C9.80987 29.855 9.74714 29.7801 9.66391 29.736C8.08498 28.8975 6.75398 27.8258 5.67091 26.521C4.87137 25.5575 4.20553 24.3985 3.6734 23.044C3.13321 21.6667 2.78584 20.2826 2.63131 18.8918C2.39615 16.766 2.39212 14.9142 2.61922 13.3367C2.73881 12.5076 2.97464 11.5199 3.32671 10.3737C3.67206 9.24893 4.04294 8.30627 4.43935 7.5457C5.74683 5.03555 7.64221 3.13009 10.1255 1.82932C11.218 1.25688 12.4885 0.842997 13.9371 0.587682C15.4085 0.328335 16.8974 0.197989 18.4038 0.196645C20.3495 0.196645 22.296 0.196645 24.2431 0.196645C24.2592 0.196645 24.3627 0.190599 24.5535 0.178505C25.0238 0.147598 25.2583 0.405601 25.257 0.952514C25.2395 5.92445 25.2227 10.8964 25.2066 15.8683C25.2052 16.4649 25.2167 16.9816 25.2408 17.4184C25.2838 18.1856 25.3047 18.6996 25.3033 18.9603C25.2697 25.4037 25.2724 31.8477 25.3114 38.2924C25.3168 39.2115 25.3033 40.1307 25.2711 41.0498C25.2361 42.0039 25.2267 42.921 25.2429 43.8012C25.2711 45.4204 25.2516 47.0397 25.1844 48.6589C25.1683 49.0674 25.1797 49.531 25.2187 50.0497C25.2455 50.3964 25.0856 50.5785 24.7389 50.5959C23.2541 50.6725 21.7121 50.6698 20.113 50.5879C20.0492 50.5846 19.9885 50.5596 19.9408 50.5171C19.8932 50.4746 19.8615 50.4171 19.851 50.3541C19.7905 49.9926 19.763 49.6002 19.7684 49.1769C19.7872 47.5805 19.7831 45.9848 19.7563 44.3897ZM19.5789 4.82054C19.1086 4.65795 18.6275 4.59479 18.1357 4.63107C17.449 4.68079 16.7671 4.76478 16.0898 4.88303C15.1209 5.051 14.4477 5.19075 14.0701 5.30228C13.3472 5.51326 12.682 5.83778 12.0746 6.27584C11.5425 6.65882 11.0406 7.18692 10.5689 7.86014C9.16336 9.86639 8.42294 12.1326 8.34769 14.6589C8.30469 16.0806 8.34769 17.4076 8.47669 18.6398C8.61644 19.9715 8.99539 21.277 9.61352 22.5562C10.7235 24.8541 12.5449 26.2025 15.0779 26.6016C16.4298 26.8153 17.8683 26.8966 19.3934 26.8455C19.4657 26.8435 19.5343 26.8136 19.585 26.7621C19.6357 26.7107 19.6645 26.6416 19.6656 26.5694C19.722 21.6687 19.7388 16.7256 19.7159 11.7403C19.7146 11.618 19.6971 11.4157 19.6635 11.1336C19.6394 10.9293 19.6346 10.7251 19.6494 10.5208C19.6817 10.0921 19.6931 9.79181 19.6837 9.6198C19.6326 8.71142 19.6521 7.80371 19.7422 6.89666C19.8026 6.2745 19.8107 5.66376 19.7663 5.06444C19.762 5.0098 19.742 4.95764 19.7087 4.91432C19.6754 4.87101 19.6303 4.83842 19.5789 4.82054Z" fill="#FE3534"/>
<path d="M32.705 45.6214C32.1716 45.8687 31.6334 46.1448 31.0905 46.4499C31.0689 46.4619 31.0447 46.4684 31.02 46.4691C30.9953 46.4697 30.9708 46.4643 30.9487 46.4534C30.9265 46.4425 30.9073 46.4264 30.8927 46.4065C30.8781 46.3866 30.8685 46.3634 30.8648 46.339C30.8419 46.1966 30.8177 46.0655 30.7922 45.946C30.764 45.8049 30.7485 45.6725 30.7458 45.5489C30.5832 36.9071 30.5443 28.2654 30.6289 19.6236C30.6491 17.6536 30.6901 16.4624 30.7519 16.0498C30.9239 14.913 31.2968 13.7648 31.8706 12.6051C33.3232 9.67569 34.7933 6.75435 36.2808 3.84106C36.2848 3.83434 36.5234 3.29751 36.9964 2.23056C37.2853 1.57749 37.6609 0.969434 38.1231 0.406396C38.1864 0.328617 38.27 0.26939 38.365 0.235067C38.9845 0.0106576 39.3822 0.114128 39.5583 0.545477C39.7034 0.901575 39.8787 1.23953 40.0843 1.55935C40.3558 1.98263 40.5446 2.30917 40.6507 2.53895C42.0456 5.54361 43.478 8.52946 44.9481 11.4965C45.7382 13.0929 46.4 14.3406 46.9335 15.2396C47.2009 15.6911 47.4798 16.0001 47.77 16.1668C48.0616 16.3334 48.3834 16.4321 48.7355 16.4631C49.1333 16.498 49.3368 16.5161 49.3462 16.5175C51.8712 16.8884 54.3975 17.2498 56.9251 17.6019C57.0783 17.6234 57.4686 17.6509 58.0962 17.6845C58.4496 17.7034 58.8413 17.7531 59.2713 17.8337C60.9403 18.1455 62.6072 18.4686 64.2721 18.8032C64.6242 18.8731 64.8795 19.0068 65.0381 19.2043C65.4197 19.6827 65.3377 20.192 64.7922 20.7322C64.3339 21.1864 63.8576 21.6198 63.3631 22.0323C62.7369 22.555 62.2551 22.9796 61.9178 23.3062C60.0366 25.135 58.1425 26.9511 56.2357 28.7545C55.2978 29.6414 54.3652 30.7083 53.438 31.9553C52.9126 32.6635 52.7144 33.4274 52.8434 34.2471C53.3943 37.757 54.0084 41.2555 54.6857 44.7426C54.9195 45.9439 55.0814 47.5316 55.1715 49.5056C55.1889 49.8859 55.156 50.1647 55.0727 50.3421C54.9168 50.6726 54.6481 50.7533 54.2664 50.584C53.9399 50.4402 53.7679 50.3649 53.7504 50.3582C53.092 50.1257 52.4611 49.8328 51.8577 49.4794C50.6255 48.7591 49.3657 48.0919 48.0784 47.4778C46.6271 46.7858 45.2074 46.0353 43.8193 45.2264C41.9972 44.1661 40.8026 43.4969 40.2355 43.2188C39.1807 42.6987 38.1009 42.7525 36.9964 43.38C36.1162 43.8799 35.2293 44.3664 34.3357 44.8394C34.0643 44.9831 33.5207 45.2438 32.705 45.6214Z" fill="#FFDD52"/>
</svg>
