<svg width="27" height="27" viewBox="0 0 27 27" fill="none" xmlns="http://www.w3.org/2000/svg">
<g clip-path="url(#clip0_875_6924)">
<path fill-rule="evenodd" clip-rule="evenodd" d="M13.3614 2.26489C13.0943 2.26489 12.8669 2.36944 12.6907 2.56753C11.173 4.32281 9.74062 9.20348 8.63221 9.29703C6.00613 9.52813 1.56681 9.65469 0.213976 9.72622C0.134398 10.1499 0.128713 11.3604 0.225344 11.8832C0.242397 11.9877 0.28787 12.0868 0.350396 12.1858C1.60659 14.1282 5.36382 16.9784 5.71056 18.0019C5.42066 19.405 4.95456 22.2498 4.89772 23.4163C4.89772 24.1812 4.85793 24.9955 4.90909 25.7604C4.92614 26.019 5.05119 26.2336 5.26719 26.3821C5.48319 26.5362 5.73329 26.5802 5.98908 26.5197C8.28548 25.964 12.2473 23.3833 13.3614 23.3833C14.4755 23.3833 18.4374 25.964 20.7338 26.5197C20.9953 26.5802 21.2397 26.5362 21.4557 26.3821C21.6717 26.2281 21.7967 26.0135 21.8138 25.7604C21.8706 24.9955 21.8251 24.1812 21.8251 23.4163C21.7683 22.2498 21.2965 19.4105 21.0123 18.0019C21.359 16.9729 25.1163 14.1282 26.3725 12.1858C26.435 12.0923 26.4748 11.9877 26.4975 11.8832C26.5942 11.3549 26.5942 10.1444 26.5089 9.72622C25.1561 9.66019 20.7224 9.52813 18.0907 9.29703C16.9822 9.19798 15.5498 4.32281 14.0322 2.56753C13.8616 2.36944 13.6286 2.26489 13.3614 2.26489Z" fill="url(#paint0_radial_875_6924)"/>
<path fill-rule="evenodd" clip-rule="evenodd" d="M20.7338 24.5007C20.9953 24.5612 21.2397 24.5172 21.4557 24.3631C21.6717 24.209 21.7967 23.9944 21.8138 23.7413C21.9786 21.4578 20.6656 17.0118 21.0123 15.9884C21.359 14.9594 25.1163 12.1146 26.3725 10.1723C26.5146 9.95218 26.543 9.71007 26.4634 9.46246C26.3781 9.21485 26.2076 9.03877 25.9632 8.93972C23.7691 8.08134 19.0001 7.91627 18.0963 7.28349C17.1926 6.6507 15.5555 2.30927 14.0378 0.553987C13.856 0.350396 13.6286 0.24585 13.3614 0.24585C13.0943 0.24585 12.8669 0.350396 12.6907 0.548485C11.173 2.30377 9.53599 6.6452 8.63221 7.27798C7.72843 7.91077 2.95942 8.08134 0.765339 8.93422C0.515236 9.03327 0.344711 9.20934 0.265133 9.45696C0.185555 9.70457 0.213975 9.94667 0.356079 10.1668C1.61228 12.1091 5.36951 14.9594 5.71624 15.9829C6.06297 17.0118 4.74993 21.4523 4.91477 23.7358C4.93183 23.9944 5.05688 24.209 5.27287 24.3576C5.48887 24.5117 5.73898 24.5557 5.99476 24.4952C8.29116 23.9394 12.253 21.3588 13.3671 21.3588C14.4812 21.3588 18.4431 23.9394 20.7395 24.4952L20.7338 24.5007Z" fill="url(#paint1_radial_875_6924)"/>
<path style="mix-blend-mode:multiply" fill-rule="evenodd" clip-rule="evenodd" d="M25.4747 10.0565C22.8202 11.8998 21.331 13.0003 19.0119 14.4804C18.6992 14.6785 18.398 15.1077 18.5116 15.4489C19.1937 17.5838 21.132 21.0008 21.2685 23.1358C21.348 24.3903 20.2453 24.0107 19.5916 23.7411C17.3464 22.8056 15.8344 21.485 13.6858 20.4231C12.8786 20.0214 12.2761 20.1425 11.5656 20.5937C10.2696 21.4135 7.95617 23.4219 6.02924 24.0052C5.48356 24.1702 5.14251 24.1317 4.92651 23.8896C4.97199 24.0822 5.08567 24.2473 5.26188 24.3683C5.47788 24.5224 5.72798 24.5664 5.98377 24.5059C8.28017 23.9501 12.242 21.3695 13.3561 21.3695C14.4702 21.3695 18.4321 23.9501 20.7285 24.5059C20.9899 24.5664 21.2344 24.5224 21.4504 24.3683C21.6664 24.2143 21.7914 23.9997 21.8085 23.7466C21.9733 21.463 20.6603 17.0171 21.007 15.9936C21.3537 14.9646 25.111 12.1199 26.3672 10.1775C26.5093 9.95741 26.5377 9.71531 26.4581 9.4677C26.3728 9.22009 26.2023 9.04401 25.9579 8.94496C23.7638 8.08658 18.9948 7.92151 18.091 7.28872C17.1872 6.65594 15.5502 2.31451 14.0325 0.559227C13.862 0.361138 13.629 0.256592 13.3618 0.256592C13.0946 0.256592 12.8673 0.361138 12.6911 0.559227C12.4523 0.834349 12.2136 1.17 11.9749 1.54417C12.6399 0.872866 13.3277 0.45468 13.9416 1.38459C15.0841 3.11236 15.5786 4.96119 16.1925 6.70546C16.579 7.79495 16.8064 8.24065 19.0232 8.38922C21.5584 8.55979 23.6672 8.72486 25.1792 8.97248C26.0091 9.11004 26.0318 9.67679 25.4691 10.062L25.4747 10.0565Z" fill="url(#paint2_radial_875_6924)"/>
<path style="mix-blend-mode:screen" fill-rule="evenodd" clip-rule="evenodd" d="M11.8949 2.03409C11.173 3.32717 10.5477 4.7358 9.87699 6.05088C9.30289 7.17338 9.09258 7.83368 7.66017 8.07578C5.89239 8.36741 4.08483 8.41694 2.31137 8.69756C0.39013 8.99469 -0.0589188 9.41838 1.3337 10.9095C2.1579 11.7954 5.93787 15.1024 6.18229 15.9168C6.40397 16.6321 5.98903 17.9472 5.95492 18.7725C5.93787 19.1632 6.09134 19.7465 6.76207 19.0312C11.9744 13.4572 13.3045 12.4172 20.8872 9.96863C21.7057 9.70451 22.5413 9.51192 23.3655 9.26982C23.5929 9.20379 23.9055 8.98369 23.2234 8.89015C20.8531 8.57651 18.9546 8.82962 16.9026 8.64804C15.9875 8.5655 15.402 7.50353 15.1178 6.7607C14.5209 5.1925 14.2083 3.53626 13.6399 1.96256C13.1909 0.724509 12.3666 1.17571 11.8835 2.0451L11.8949 2.03409Z" fill="url(#paint3_radial_875_6924)"/>
<path style="mix-blend-mode:screen" fill-rule="evenodd" clip-rule="evenodd" d="M5.82994 9.29727C5.3411 9.20373 5.46615 8.71401 5.9152 8.60946C6.64277 8.44439 7.40445 8.41138 8.13202 8.2463C8.87096 8.07573 9.32569 7.83912 9.76337 6.96423C10.5421 5.40704 11.3322 3.40965 12.1564 2.02853C12.4577 1.53331 12.793 1.60484 12.7135 2.16609C12.4633 3.93238 12.0314 5.61613 11.5141 7.37141C11.2526 8.25731 10.9627 9.20923 9.70085 9.35229C8.78001 9.46234 6.79056 9.48435 5.82994 9.29727ZM4.03943 8.73052C3.46533 8.76904 2.32281 8.9066 1.61798 9.1432C0.856298 9.40182 1.01545 9.56139 1.70892 9.59991C2.44786 9.63842 3.19249 9.63292 3.93143 9.5834C4.97163 9.50636 4.82952 8.681 4.04511 8.73602L4.03943 8.73052Z" fill="url(#paint4_radial_875_6924)"/>
<path style="mix-blend-mode:screen" fill-rule="evenodd" clip-rule="evenodd" d="M18.9717 22.4265C18.6306 22.564 17.8007 22.7401 18.8068 23.2738C19.2331 23.4994 19.6935 23.67 20.1596 23.8021C21.1657 24.0772 21.1771 23.3784 21.0236 22.6686C20.7337 21.2929 20.0801 19.6752 19.4775 18.3381C19.199 17.7274 18.858 17.4082 18.966 18.3821C19.091 19.4826 19.29 20.5721 19.4093 21.6726C19.4605 22.1733 19.4434 22.2449 18.9773 22.4265H18.9717Z" fill="url(#paint5_radial_875_6924)"/>
<path fill-rule="evenodd" clip-rule="evenodd" d="M5.63666 17.8372C5.76171 16.9898 5.82424 16.313 5.71056 15.9829C5.36382 14.9539 1.60659 12.1091 0.350396 10.1668C0.259449 10.0292 0.213976 9.87513 0.213976 9.72656C0.134398 10.1503 0.128713 11.3608 0.225344 11.8835C0.242397 11.9881 0.28787 12.0871 0.350396 12.1862C1.54407 14.0295 5.00004 16.6982 5.63666 17.8372Z" fill="url(#paint6_radial_875_6924)"/>
<path fill-rule="evenodd" clip-rule="evenodd" d="M26.3669 10.1668C25.1107 12.1091 21.3535 14.9594 21.0068 15.9829C20.8988 16.313 20.9556 16.9898 21.0807 17.8372C21.7116 16.6982 25.1733 14.0295 26.3669 12.1862C26.4295 12.0926 26.4693 11.9881 26.492 11.8835C26.5886 11.3553 26.5886 10.1447 26.5034 9.72656C26.5034 9.88063 26.4579 10.0292 26.3669 10.1668Z" fill="url(#paint7_radial_875_6924)"/>
<path fill-rule="evenodd" clip-rule="evenodd" d="M20.7337 24.5007C18.4373 23.9449 14.4754 21.3643 13.3613 21.3643C13.7137 21.5678 13.7081 23.1195 13.3613 23.3837C14.4754 23.3837 18.4373 25.9643 20.7337 26.5201C20.9952 26.5806 21.2396 26.5366 21.4556 26.3825C21.6716 26.2284 21.7966 26.0138 21.8137 25.7607C21.8648 25.0179 21.825 24.2255 21.825 23.4772C21.825 23.5707 21.8194 23.6588 21.8137 23.7413C21.7966 23.9999 21.6716 24.2145 21.4556 24.3631C21.2396 24.5172 20.9895 24.5612 20.7337 24.5007Z" fill="url(#paint8_radial_875_6924)"/>
<path style="mix-blend-mode:screen" opacity="0.5" fill-rule="evenodd" clip-rule="evenodd" d="M6.3475 26.4154C6.2054 26.1072 6.18835 24.6436 6.32477 24.407C6.21108 24.44 6.0974 24.473 5.9894 24.5005C5.72793 24.561 5.48351 24.517 5.26751 24.3629C5.0913 24.2419 4.97762 24.0768 4.93215 23.8842C4.92078 23.8402 4.9151 23.7907 4.90941 23.7412C4.90373 23.6586 4.89804 23.5651 4.89804 23.4771C4.89804 24.2254 4.85825 25.0177 4.90941 25.7606C4.92646 26.0192 5.05152 26.2338 5.26751 26.3823C5.48351 26.5364 5.73361 26.5804 5.9894 26.5199C6.10308 26.4924 6.22245 26.4594 6.3475 26.4209V26.4154Z" fill="url(#paint9_radial_875_6924)"/>
<path style="mix-blend-mode:screen" opacity="0.5" fill-rule="evenodd" clip-rule="evenodd" d="M20.3699 26.4154C20.512 26.1072 20.529 24.6436 20.3926 24.407C20.5063 24.44 20.62 24.473 20.728 24.5005C20.9894 24.561 21.2339 24.517 21.4499 24.3629C21.6261 24.2419 21.7398 24.0768 21.7852 23.8842C21.7966 23.8402 21.8023 23.7907 21.808 23.7412C21.8136 23.6586 21.8193 23.5651 21.8193 23.4771C21.8193 24.2254 21.8591 25.0177 21.808 25.7606C21.7909 26.0192 21.6659 26.2338 21.4499 26.3823C21.2339 26.5364 20.9838 26.5804 20.728 26.5199C20.6143 26.4924 20.4949 26.4594 20.3699 26.4209V26.4154Z" fill="url(#paint10_radial_875_6924)"/>
<path style="mix-blend-mode:screen" opacity="0.5" fill-rule="evenodd" clip-rule="evenodd" d="M1.18597 13.2423C0.907443 12.5875 0.884706 11.2284 1.20302 11.2449C0.86197 10.8652 0.572078 10.5021 0.350396 10.1609C0.259449 10.0233 0.213976 9.86927 0.213976 9.7207C0.134398 10.1444 0.128713 11.3549 0.225344 11.8777C0.242397 11.9822 0.28787 12.0813 0.350396 12.1803C0.566394 12.5104 0.850601 12.8681 1.18597 13.2423Z" fill="url(#paint11_radial_875_6924)"/>
<path style="mix-blend-mode:screen" opacity="0.5" fill-rule="evenodd" clip-rule="evenodd" d="M25.5371 13.2423C25.8156 12.5875 25.8383 11.2284 25.52 11.2449C25.8611 10.8652 26.151 10.5021 26.3726 10.1609C26.4636 10.0233 26.5091 9.86927 26.5091 9.7207C26.5886 10.1444 26.5943 11.3549 26.4977 11.8777C26.4806 11.9822 26.4352 12.0813 26.3726 12.1803C26.1566 12.5104 25.8724 12.8681 25.5371 13.2423Z" fill="url(#paint12_radial_875_6924)"/>
</g>
<defs>
<radialGradient id="paint0_radial_875_6924" cx="0" cy="0" r="1" gradientUnits="userSpaceOnUse" gradientTransform="translate(5.13077 26.7618) scale(11.0671 10.7133)">
<stop stop-color="#FC8200"/>
<stop offset="1" stop-color="#E34F00"/>
</radialGradient>
<radialGradient id="paint1_radial_875_6924" cx="0" cy="0" r="1" gradientUnits="userSpaceOnUse" gradientTransform="translate(7.93875 5.69328) scale(24.4646 23.6826)">
<stop stop-color="#FCF800"/>
<stop offset="1" stop-color="#FC9700"/>
</radialGradient>
<radialGradient id="paint2_radial_875_6924" cx="0" cy="0" r="1" gradientUnits="userSpaceOnUse" gradientTransform="translate(8.53595 4.64205) scale(25.4707 24.6565)">
<stop stop-color="white"/>
<stop offset="0.1" stop-color="#FFFCF9"/>
<stop offset="0.22" stop-color="#FFF6E9"/>
<stop offset="0.36" stop-color="#FFECCE"/>
<stop offset="0.51" stop-color="#FFDEA9"/>
<stop offset="0.67" stop-color="#FFCB7A"/>
<stop offset="0.84" stop-color="#FFB540"/>
<stop offset="1" stop-color="#FF9D00"/>
</radialGradient>
<radialGradient id="paint3_radial_875_6924" cx="0" cy="0" r="1" gradientUnits="userSpaceOnUse" gradientTransform="translate(5.03977 1.22523) scale(21.6623 20.9698)">
<stop stop-color="#FFF261"/>
<stop offset="0.11" stop-color="#FAED5F"/>
<stop offset="0.23" stop-color="#ECE05A"/>
<stop offset="0.36" stop-color="#D6CB51"/>
<stop offset="0.5" stop-color="#B6AD45"/>
<stop offset="0.64" stop-color="#8E8636"/>
<stop offset="0.78" stop-color="#5C5723"/>
<stop offset="0.92" stop-color="#22210D"/>
<stop offset="1"/>
</radialGradient>
<radialGradient id="paint4_radial_875_6924" cx="0" cy="0" r="1" gradientUnits="userSpaceOnUse" gradientTransform="translate(8.54696 3.69027) scale(12.8632 12.452)">
<stop stop-color="#FFFACF"/>
<stop offset="1"/>
</radialGradient>
<radialGradient id="paint5_radial_875_6924" cx="0" cy="0" r="1" gradientUnits="userSpaceOnUse" gradientTransform="translate(12.793 19.8953) scale(15.4041 14.9116)">
<stop/>
<stop offset="0.17" stop-color="#251B00"/>
<stop offset="0.54" stop-color="#846100"/>
<stop offset="1" stop-color="#FFBB00"/>
</radialGradient>
<radialGradient id="paint6_radial_875_6924" cx="0" cy="0" r="1" gradientUnits="userSpaceOnUse" gradientTransform="translate(1.22007 10.8986) scale(7.63951 7.3953)">
<stop stop-color="#FCAC00"/>
<stop offset="1" stop-color="#E36600"/>
</radialGradient>
<radialGradient id="paint7_radial_875_6924" cx="0" cy="0" r="1" gradientUnits="userSpaceOnUse" gradientTransform="translate(39.0426 17.6501) scale(18.303 17.7179)">
<stop stop-color="#FCAC00"/>
<stop offset="1" stop-color="#E36600"/>
</radialGradient>
<radialGradient id="paint8_radial_875_6924" cx="0" cy="0" r="1" gradientUnits="userSpaceOnUse" gradientTransform="translate(23.2177 23.5047) scale(9.73128 9.4202)">
<stop stop-color="#FCAC00"/>
<stop offset="1" stop-color="#FF6600"/>
</radialGradient>
<radialGradient id="paint9_radial_875_6924" cx="0" cy="0" r="1" gradientUnits="userSpaceOnUse" gradientTransform="translate(3.84647 22.25) scale(5.45111 5.27685)">
<stop stop-color="#FFF261"/>
<stop offset="0.11" stop-color="#FAED5F"/>
<stop offset="0.23" stop-color="#ECE05A"/>
<stop offset="0.36" stop-color="#D6CB51"/>
<stop offset="0.5" stop-color="#B6AD45"/>
<stop offset="0.64" stop-color="#8E8636"/>
<stop offset="0.78" stop-color="#5C5723"/>
<stop offset="0.92" stop-color="#22210D"/>
<stop offset="1"/>
</radialGradient>
<radialGradient id="paint10_radial_875_6924" cx="0" cy="0" r="1" gradientUnits="userSpaceOnUse" gradientTransform="translate(23.5701 22.6242) scale(5.68415 5.50245)">
<stop stop-color="#FFF261"/>
<stop offset="0.11" stop-color="#FAED5F"/>
<stop offset="0.23" stop-color="#ECE05A"/>
<stop offset="0.36" stop-color="#D6CB51"/>
<stop offset="0.5" stop-color="#B6AD45"/>
<stop offset="0.64" stop-color="#8E8636"/>
<stop offset="0.78" stop-color="#5C5723"/>
<stop offset="0.92" stop-color="#22210D"/>
<stop offset="1"/>
</radialGradient>
<radialGradient id="paint11_radial_875_6924" cx="0" cy="0" r="1" gradientUnits="userSpaceOnUse" gradientTransform="translate(0.333343 9.39056) scale(3.82544 3.70315)">
<stop stop-color="#FFF261"/>
<stop offset="0.11" stop-color="#FAED5F"/>
<stop offset="0.23" stop-color="#ECE05A"/>
<stop offset="0.36" stop-color="#D6CB51"/>
<stop offset="0.5" stop-color="#B6AD45"/>
<stop offset="0.64" stop-color="#8E8636"/>
<stop offset="0.78" stop-color="#5C5723"/>
<stop offset="0.92" stop-color="#22210D"/>
<stop offset="1"/>
</radialGradient>
<radialGradient id="paint12_radial_875_6924" cx="0" cy="0" r="1" gradientUnits="userSpaceOnUse" gradientTransform="translate(27.6971 9.20347) scale(5.01912 4.85867)">
<stop stop-color="#FFF261"/>
<stop offset="0.11" stop-color="#FAED5F"/>
<stop offset="0.23" stop-color="#ECE05A"/>
<stop offset="0.36" stop-color="#D6CB51"/>
<stop offset="0.5" stop-color="#B6AD45"/>
<stop offset="0.64" stop-color="#8E8636"/>
<stop offset="0.78" stop-color="#5C5723"/>
<stop offset="0.92" stop-color="#22210D"/>
<stop offset="1"/>
</radialGradient>
<clipPath id="clip0_875_6924">
<rect width="26.4086" height="26.2962" fill="white" transform="translate(0.157471 0.246826)"/>
</clipPath>
</defs>
</svg>
