<svg xmlns="http://www.w3.org/2000/svg" version="1.1" xmlns:xlink="http://www.w3.org/1999/xlink" width="33" height="25"><svg width="33" height="25" viewBox="0 0 33 25" fill="none" xmlns="http://www.w3.org/2000/svg">
<path d="M17.0098 0.200592C18.1247 0.200592 18.76 0.208821 18.7881 0.2211C18.8271 0.241604 18.8291 0.262397 18.8291 0.729889C18.8291 1.08439 18.8232 1.22209 18.8047 1.24258C18.7879 1.25888 18.7171 1.267 18.4385 1.267V2.76407H18.5205C18.5781 2.76407 18.6174 2.77823 18.6523 2.80899C18.6826 2.84091 19.893 5.48083 21.7686 9.61172C23.4561 13.3267 24.8976 16.5005 25.1055 16.9623L25.3164 16.102C25.4315 15.6283 25.6212 14.875 25.7363 14.4301C25.8515 13.9851 26.0614 13.1876 26.2012 12.6566C26.343 12.1256 26.565 11.3132 26.6924 10.852C26.8219 10.3906 27.0234 9.67967 27.1426 9.27383C27.2597 8.86798 27.4366 8.28176 27.5332 7.97208C27.6298 7.66247 27.7687 7.22301 27.8447 6.99747C27.9187 6.77192 28.0367 6.43961 28.1045 6.25919C28.1723 6.07881 28.2661 5.84893 28.3154 5.74649C28.3648 5.64402 28.4328 5.53133 28.4678 5.49649C28.517 5.44531 28.5481 5.42914 28.6035 5.42911C28.6611 5.42911 28.688 5.44367 28.7373 5.50723C28.7702 5.54832 28.832 5.65274 28.873 5.73672C28.9141 5.82074 28.9979 6.01939 29.0596 6.17715C29.1212 6.33504 29.2548 6.70885 29.3535 7.00821C29.4542 7.30756 29.6209 7.82813 29.7236 8.16641C29.8264 8.50473 30.0262 9.17959 30.166 9.66348C30.3058 10.1474 30.5441 11.0024 30.6982 11.56C30.8503 12.1175 31.0823 12.9843 31.2139 13.4867C31.3454 13.989 31.5902 14.9491 31.7588 15.6195C31.9253 16.29 32.1287 17.1208 32.2109 17.4652C32.2911 17.8097 32.4173 18.3533 32.4893 18.6752C32.5612 18.997 32.6635 19.4659 32.7148 19.7201C32.7662 19.9744 32.8363 20.3482 32.8691 20.5512C32.9041 20.7541 32.9371 21.0081 32.9453 21.1147C32.9556 21.2725 32.9516 21.322 32.9229 21.3773C32.9043 21.4143 32.8383 21.4758 32.7705 21.5209C32.7068 21.5619 32.5521 21.6313 32.4268 21.6723C32.3013 21.7133 32.061 21.7772 31.8926 21.81C31.722 21.8448 31.4403 21.89 31.2656 21.9125C31.0909 21.9351 30.7842 21.9673 30.5869 21.9857C30.3895 22.0021 30.0526 22.0252 29.8369 22.0375C29.6211 22.0478 29.4031 22.058 29.251 22.058L29.2412 24.0307L29.1729 24.0902C29.1378 24.123 29.0677 24.162 29.0186 24.1742C28.9647 24.1905 28.8007 24.2006 28.5938 24.2006C28.3246 24.2006 28.2318 24.1922 28.1455 24.1635C28.0797 24.143 28.0217 24.1064 27.9971 24.0736C27.956 24.0183 27.954 23.989 27.9561 22.0678L27.4688 22.0395C27.1996 22.0251 26.8133 22.0091 26.2402 21.9906L26.2539 22.3363C26.2621 22.527 26.2724 22.9886 26.2744 23.3617C26.2806 23.942 26.2767 24.0448 26.25 24.0756C26.2203 24.1083 25.5748 24.1107 15.9209 24.1107C7.64626 24.1087 5.62284 24.1038 5.5957 24.0834C5.57515 24.0629 5.57031 23.8253 5.57031 21.935H5.44336C5.37142 21.935 5.24176 21.9406 4.99512 21.9652V23.9037L4.94336 23.9652C4.90843 24.006 4.85308 24.0385 4.77539 24.0609C4.68495 24.0896 4.58195 24.0981 4.34766 24.0981C4.11948 24.0981 4.01006 24.0875 3.92578 24.0629C3.86421 24.0444 3.78637 24.0034 3.69824 23.9135L3.7002 22.9359C3.7002 22.3967 3.69377 21.9555 3.68555 21.9555C3.67365 21.9554 3.47266 21.9452 3.2373 21.935C3.00096 21.9227 2.6354 21.8997 2.42578 21.8813C2.21626 21.8649 1.89776 21.8325 1.7168 21.81C1.5359 21.7874 1.24972 21.7402 1.0791 21.7074C0.91055 21.6746 0.692305 21.6228 0.595703 21.5941C0.499273 21.5634 0.362051 21.5127 0.288086 21.4779C0.214122 21.4431 0.11904 21.3816 0.00195312 21.269L0 21.0844C0 20.9819 0.0148228 20.8075 0.03125 20.6947C0.0476857 20.582 0.090065 20.3317 0.125 20.141C0.157886 19.9504 0.246418 19.5155 0.318359 19.1772C0.390305 18.8388 0.509983 18.3035 0.583984 17.9877C0.65797 17.672 0.764711 17.215 0.822266 16.9731C0.879822 16.7311 1.05003 16.0378 1.20215 15.435C1.35221 14.8322 1.56391 14.0014 1.67285 13.5893C1.77975 13.1771 1.95291 12.5273 2.05566 12.144C2.15845 11.7605 2.32703 11.1476 2.42773 10.7807C2.53051 10.4136 2.69255 9.84134 2.78711 9.50919C2.88373 9.177 3.05035 8.61288 3.15723 8.25821C3.26616 7.90354 3.43729 7.35876 3.54004 7.04922C3.64282 6.73961 3.77982 6.33708 3.84766 6.15665C3.91549 5.97624 4.01221 5.74644 4.06152 5.64395C4.10879 5.5415 4.17514 5.43083 4.20801 5.39395C4.23878 5.35724 4.28767 5.32217 4.31641 5.31387C4.35546 5.30567 4.38698 5.31652 4.44043 5.36368C4.47952 5.39668 4.54482 5.48712 4.58789 5.56485C4.629 5.64281 4.71106 5.82672 4.76855 5.97208C4.82816 6.11763 4.98086 6.55256 5.11035 6.93594C5.23776 7.31924 5.43117 7.92395 5.53809 8.27872C5.64498 8.63344 5.80049 9.1652 5.88477 9.4584C5.97111 9.75164 6.1238 10.2906 6.22656 10.6576C6.32727 11.0246 6.50413 11.6641 6.61719 12.0824C6.7302 12.5005 6.86994 13.0274 6.93164 13.2572C6.99125 13.4848 7.04461 13.6713 7.05078 13.6713C7.06897 13.6381 7.9544 11.2176 9.03223 8.26309C10.5017 4.22875 11.0141 2.84457 11.1006 2.76407H15.5195V1.267H15.3857C15.2956 1.26697 15.2422 1.25622 15.2217 1.23575C15.1972 1.21092 15.1904 1.12608 15.1904 0.743561C15.1904 0.309246 15.1934 0.280554 15.2324 0.241608C15.2734 0.200805 15.3027 0.200592 17.0098 0.200592ZM11.7021 5.11954C11.6538 5.2517 10.2955 9.00289 8.68457 13.4545L5.75586 21.5531V23.9213H10.71C10.71 18.6317 10.7099 18.6107 10.751 18.5902C10.7807 18.578 11.3192 18.5697 12.2373 18.5697C13.3738 18.5697 13.6865 18.5746 13.707 18.5951C13.7273 18.6203 13.7314 19.1706 13.7314 21.2729V23.9213H18.459V20.2416C13.3714 8.5297 11.8707 5.07392 11.8398 5.00626L11.7871 4.88419L11.7021 5.11954ZM18.665 20.7231C18.6548 20.7046 18.6465 21.3792 18.6465 22.308L18.6445 23.9213H26.0957C26.0772 22.5622 26.0693 22.1296 26.0693 22.0824L26.0654 21.9945C20.4454 21.9945 19.2877 21.9884 19.2568 21.974C19.2322 21.9617 19.1934 21.9184 19.1729 21.8754C19.1502 21.8344 19.0326 21.5638 18.9072 21.2768C18.784 20.9899 18.6754 20.7397 18.665 20.7231ZM11.624 2.94766C11.3869 2.94767 11.1859 2.95426 11.1768 2.96426V2.96231C11.1706 2.97256 9.64722 7.14557 7.79102 12.2367C5.93278 17.3278 4.41134 21.5066 4.40723 21.5209C4.40183 21.5392 4.49705 21.5453 4.83496 21.5453H5.27246C10.1442 7.91834 11.5651 3.95684 11.5713 3.94864C11.5894 3.96605 13.3383 7.97255 15.4688 12.8725L19.3535 21.8119C20.1279 21.8119 20.2242 21.8058 20.2188 21.7875C20.2146 21.7732 18.3809 17.539 16.1465 12.3803C13.9141 7.22617 12.0817 2.995 12.0742 2.97501C12.0681 2.9545 11.9591 2.94766 11.624 2.94766ZM9.38379 19.7309L9.47266 19.7816C9.51981 19.8103 9.57704 19.8555 9.59766 19.8842C9.61821 19.9129 9.64685 19.9729 9.65918 20.018C9.67763 20.0756 9.68214 20.2775 9.67188 21.3139L9.61621 21.394C9.58534 21.437 9.52118 21.4958 9.38379 21.5756H8.21191C7.56653 21.5756 7.01531 21.5701 6.98242 21.5619C6.95158 21.5515 6.89456 21.5146 6.85156 21.4799C6.81056 21.4431 6.76089 21.3756 6.74023 21.3305C6.7053 21.2567 6.70117 21.1845 6.70117 20.6537C6.70117 20.1231 6.70537 20.0507 6.74023 19.977C6.76079 19.9319 6.81046 19.8644 6.85156 19.8295C6.89452 19.7928 6.95148 19.7558 6.98242 19.7494C7.01495 19.7433 7.0479 19.735 7.06055 19.7309C7.07083 19.7268 7.59953 19.7247 9.38379 19.7309ZM17.4414 19.7309L17.5303 19.7816C17.5796 19.8104 17.6432 19.8705 17.7295 19.9936V21.3139L17.6738 21.394C17.6429 21.437 17.5788 21.4958 17.4414 21.5756H16.2705C15.6287 21.5756 15.0764 21.5701 15.041 21.5619C15.0102 21.5517 14.9523 21.5147 14.9092 21.4799C14.8681 21.443 14.8185 21.3756 14.7979 21.3305C14.7629 21.2567 14.7588 21.1845 14.7588 20.6537C14.7588 20.1234 14.763 20.0507 14.7979 19.977C14.8184 19.9319 14.8681 19.8644 14.9092 19.8295C14.9523 19.7926 15.0102 19.7556 15.041 19.7494C15.0739 19.7433 15.1068 19.735 15.1191 19.7309C15.1339 19.7268 15.6653 19.7247 17.4414 19.7309ZM11.6553 16.8705H10.2266C8.81949 16.8705 8.79789 16.8704 8.77734 16.8295C8.7609 16.7967 9.045 15.954 10.2002 12.6059C10.9937 10.3053 11.6474 8.42227 11.6494 8.42227C11.6535 8.42547 11.6553 10.3291 11.6553 16.8705ZM12.0195 8.52481C12.036 8.56377 12.7944 10.3648 13.7051 12.5238C14.6156 14.6827 15.3906 16.5262 15.4297 16.6205C15.483 16.7494 15.4949 16.7988 15.4785 16.8295C15.458 16.8704 15.4332 16.8705 11.9844 16.8705L11.9863 12.6625C11.9884 8.87929 11.9908 8.46219 12.0195 8.52481ZM16.8145 4.91641H18.2539V1.267H16.8145V4.91641Z" fill="#555555"></path>
</svg><style>@media (prefers-color-scheme: light) { :root { filter: none; } }
@media (prefers-color-scheme: dark) { :root { filter: none; } }
</style></svg>