<svg width="110" height="81" viewBox="0 0 110 81" fill="none" xmlns="http://www.w3.org/2000/svg">
<path d="M56.7002 0.5C60.4195 0.500001 62.5365 0.527375 62.627 0.568359C62.7571 0.636706 62.7637 0.705365 62.7637 2.26367C62.7637 3.44547 62.7433 3.90312 62.6816 3.97168C62.6268 4.02636 62.3938 4.05371 61.4619 4.05371V9.04297H61.7363C61.9281 9.04297 62.0584 9.09096 62.1748 9.19336C62.2707 9.28905 66.3066 18.0924 72.5625 31.8711C78.1877 44.2548 82.9911 54.8343 83.6836 56.373L84.3887 53.5029C84.7724 51.9241 85.4034 49.4157 85.7871 47.9326C86.1708 46.4495 86.869 43.7906 87.335 42.0205C87.8077 40.2503 88.5478 37.5437 88.9727 36.0059C89.4043 34.4681 90.0762 32.0964 90.4736 30.7432C90.8642 29.3899 91.4534 27.4353 91.7754 26.4033C92.0974 25.3713 92.5639 23.9091 92.8174 23.1572C93.0641 22.4054 93.4545 21.2977 93.6807 20.6963C93.9067 20.0952 94.2213 19.3302 94.3857 18.9883C94.5502 18.6465 94.7771 18.2705 94.8936 18.1543C95.058 17.9835 95.1607 17.9287 95.3457 17.9287C95.5373 17.9288 95.6267 17.9767 95.791 18.1885C95.9007 18.3254 96.1062 18.6741 96.2432 18.9541C96.3803 19.2345 96.6608 19.8969 96.8662 20.4229C97.0718 20.9491 97.5178 22.1935 97.8467 23.1914C98.1824 24.1893 98.7375 25.9251 99.0801 27.0527C99.4227 28.1805 100.087 30.4291 100.553 32.042C101.019 33.655 101.813 36.5052 102.327 38.3643C102.834 40.2233 103.609 43.1146 104.048 44.7891C104.486 46.4636 105.301 49.6617 105.863 51.8965C106.418 54.1314 107.097 56.8996 107.371 58.0479C107.638 59.196 108.056 61.007 108.296 62.0801C108.536 63.1531 108.879 64.7189 109.05 65.5664C109.221 66.4138 109.454 67.6574 109.563 68.334C109.68 69.0106 109.789 69.8585 109.816 70.2139C109.851 70.74 109.837 70.9043 109.741 71.0889C109.679 71.2119 109.46 71.4172 109.234 71.5674C109.022 71.7041 108.508 71.9356 108.09 72.0723C107.672 72.209 106.87 72.4209 106.309 72.5303C105.74 72.6465 104.801 72.7969 104.219 72.8721C103.636 72.9472 102.616 73.0566 101.958 73.1182C101.3 73.1728 100.177 73.248 99.457 73.2891C98.7376 73.3232 98.0109 73.3574 97.5039 73.3574L97.4697 79.9326L97.2432 80.1309C97.1266 80.2402 96.8939 80.3701 96.7295 80.4111C96.5513 80.4658 96.0034 80.5 95.3115 80.5C94.4139 80.5 94.1052 80.4726 93.8174 80.377C93.5982 80.3086 93.4065 80.1855 93.3242 80.0762C93.1872 79.8916 93.1806 79.7957 93.1875 73.3916L91.5635 73.2959C90.6659 73.2481 89.3774 73.1933 87.4658 73.1318L87.5137 74.2871C87.5411 74.9227 87.5752 76.4603 87.582 77.7041C87.6026 79.6379 87.589 79.9804 87.5 80.083C87.4041 80.1924 85.2728 80.1992 53.0684 80.1992C25.4869 80.1924 18.7421 80.1785 18.6514 80.1104C18.5828 80.042 18.5684 79.2488 18.5684 72.9473H18.1436C17.9037 72.9473 17.4721 72.9678 16.6504 73.0498V79.5088L16.4785 79.7139C16.362 79.8505 16.1773 79.96 15.917 80.0352C15.6156 80.1308 15.273 80.1582 14.4922 80.1582C13.7316 80.1582 13.3678 80.124 13.0869 80.042C12.8814 79.9805 12.6207 79.8436 12.3262 79.543L12.333 76.2832C12.333 74.4857 12.3126 73.0156 12.2852 73.0156C12.2481 73.0155 11.578 72.9814 10.792 72.9473C10.004 72.9063 8.78387 72.831 8.08496 72.7695C7.38605 72.7148 6.32363 72.6054 5.7207 72.5303C5.1177 72.4551 4.16523 72.2978 3.59668 72.1885C3.0352 72.0792 2.30954 71.9092 1.9873 71.8135C1.6653 71.711 1.20568 71.54 0.958984 71.4238C0.712363 71.3077 0.397289 71.1023 0.00683594 70.7266L0 70.1113C0 69.7696 0.047723 69.1884 0.102539 68.8125C0.157367 68.4365 0.301496 67.6024 0.417969 66.9668C0.527666 66.3309 0.821763 64.8823 1.06152 63.7549C1.30132 62.6273 1.69864 60.8436 1.94531 59.791C2.19198 58.7385 2.54838 57.2137 2.74023 56.4072C2.93217 55.6004 3.50084 53.2904 4.00781 51.2812C4.50795 49.2721 5.21398 46.5047 5.57715 45.1309C5.93345 43.7571 6.50896 41.5896 6.85156 40.3115C7.19417 39.0334 7.75608 36.9899 8.0918 35.7666C8.4344 34.5432 8.97585 32.6364 9.29102 31.5293C9.61306 30.4221 10.1681 28.5427 10.5244 27.3604C10.8875 26.1781 11.4562 24.3602 11.7988 23.3281C12.1414 22.2961 12.601 20.9559 12.8271 20.3545C13.0532 19.7534 13.3746 18.9884 13.5391 18.6465C13.6965 18.3051 13.9157 17.9359 14.0254 17.8125C14.1281 17.6896 14.2927 17.5734 14.3887 17.5459C14.5189 17.5186 14.6217 17.5528 14.7998 17.71C14.93 17.8193 15.1491 18.1202 15.293 18.3799C15.43 18.6396 15.7047 19.2541 15.8965 19.7393C16.0952 20.2245 16.6025 21.6741 17.0342 22.9521C17.459 24.2302 18.1027 26.2464 18.459 27.4287C18.8153 28.6111 19.3363 30.381 19.6172 31.3584C19.905 32.3357 20.4123 34.133 20.7549 35.3564C21.0906 36.5799 21.6798 38.7132 22.0566 40.1074C22.4335 41.5016 22.899 43.258 23.1045 44.0234C23.3028 44.7805 23.4808 45.4019 23.502 45.4043C23.5225 45.4043 26.4896 37.2911 30.1074 27.374C35.0066 13.9234 36.7132 9.30952 37.001 9.04297H51.7324V4.05371H51.2871C50.9857 4.05371 50.8078 4.01949 50.7393 3.95117C50.657 3.86916 50.6357 3.58932 50.6357 2.31152C50.6357 0.862572 50.6432 0.766578 50.7734 0.636719C50.9104 0.500179 51.0015 0.5 56.7002 0.5ZM39.0088 16.8965C38.8512 17.3271 34.3222 29.8348 28.9502 44.6797L19.1855 71.6768V79.5703H35.6992C35.6992 61.9369 35.6989 61.8681 35.8359 61.7998C35.9266 61.7588 37.7218 61.7314 40.79 61.7314C44.578 61.7314 45.6204 61.7452 45.6895 61.8135C45.758 61.8818 45.7715 63.7005 45.7715 70.7402V79.5703H61.5312V67.3018C44.5753 28.2683 39.5721 16.7495 39.4678 16.5205L39.2891 16.1104L39.0088 16.8965ZM62.2158 68.9082C62.1816 68.8531 62.1543 71.0996 62.1543 74.1914L62.1475 79.5703H86.9863C86.9247 75.039 86.8975 73.5966 86.8975 73.4395L86.8838 73.1455C68.1504 73.1455 64.2922 73.125 64.1895 73.0771C64.1072 73.036 63.9767 72.8924 63.9082 72.749C63.8322 72.6108 63.4419 71.7097 63.0244 70.7539C62.6133 69.7971 62.2501 68.9629 62.2158 68.9082ZM38.748 9.6582C37.9469 9.6582 37.2684 9.67875 37.2539 9.71289V9.70605C37.2332 9.74074 32.156 23.6491 25.9688 40.6191C19.7745 57.5896 14.7041 71.5195 14.6904 71.5674C14.6715 71.6286 14.9883 71.6494 16.1162 71.6494H17.5752C33.8015 26.2624 38.5422 13.0425 38.5703 12.9941C38.6367 13.0659 44.4637 26.4136 51.5615 42.7383L64.5117 72.5371C67.1017 72.5371 67.417 72.5166 67.3965 72.4551C67.3644 72.3649 61.2591 58.2677 53.8223 41.0977C46.3742 23.9018 40.2627 9.78808 40.249 9.74707C40.2281 9.67883 39.8642 9.6582 38.748 9.6582ZM31.2793 65.6006L31.5742 65.7715C31.7318 65.8672 31.9237 66.0177 31.9922 66.1133C32.0607 66.2091 32.1562 66.4074 32.1973 66.5576C32.2588 66.7494 32.2725 67.4205 32.2383 70.877L32.0537 71.1436C31.9509 71.2871 31.7382 71.4855 31.2793 71.752H27.374C25.2239 71.752 23.3882 71.7314 23.2764 71.7041C23.1737 71.67 22.9818 71.5468 22.8379 71.4307C22.7009 71.3077 22.5364 71.082 22.4678 70.9316C22.3513 70.6856 22.3379 70.446 22.3379 68.6758C22.3379 66.9065 22.3514 66.6668 22.4678 66.4209C22.5363 66.2706 22.7009 66.0449 22.8379 65.9287C22.9818 65.8057 23.1736 65.6826 23.2764 65.6621C23.3855 65.6417 23.4946 65.6143 23.5361 65.6006C23.5704 65.5869 25.3318 65.5801 31.2793 65.6006ZM58.1396 65.6006L58.4336 65.7715C58.598 65.8672 58.8108 66.0655 59.0986 66.4756V70.877L58.9131 71.1436C58.8102 71.287 58.5982 71.4857 58.1396 71.752H54.2334C52.0888 71.752 50.2454 71.7314 50.1357 71.7041C50.0329 71.6698 49.8411 71.5468 49.6973 71.4307C49.5602 71.3077 49.3957 71.082 49.3271 70.9316C49.2107 70.6856 49.1973 70.446 49.1973 68.6758C49.1973 66.9069 49.2109 66.6668 49.3271 66.4209C49.3956 66.2707 49.5603 66.045 49.6973 65.9287C49.841 65.8058 50.0329 65.6828 50.1357 65.6621C50.2453 65.6416 50.3553 65.6143 50.3965 65.6006C50.4307 65.5869 52.1921 65.5801 58.1396 65.6006ZM38.8301 27.9072C38.8438 27.9072 38.8506 34.2433 38.8506 56.0664H34.0889C29.3982 56.0664 29.3263 56.0661 29.2578 55.9297C29.203 55.8203 30.1492 53.0106 34 41.8496C36.6363 34.206 38.8093 27.9475 38.8301 27.9072ZM40.0635 28.249C40.1199 28.3827 42.6482 34.3817 45.6826 41.5762C48.7181 48.7731 51.3005 54.918 51.4307 55.2324C51.6088 55.6629 51.6505 55.8272 51.5957 55.9297C51.5272 56.0661 51.4503 56.0664 39.9473 56.0664L39.9541 42.041C39.961 29.4175 39.9675 28.0371 40.0635 28.249ZM56.0498 16.2197H60.8457V4.05371H56.0498V16.2197Z" fill="#2D2D2D"/>
</svg>
