<svg width="162" height="47" viewBox="0 0 162 47" fill="none" xmlns="http://www.w3.org/2000/svg">
<path d="M127.221 10.796C127.221 11.3195 127.221 11.8474 127.221 12.3709C127.226 17.9594 127.239 23.5434 127.23 29.1319C127.23 29.7136 127.41 30.1521 127.885 30.4966C128.477 30.9306 128.652 31.6062 128.827 32.2729C128.89 32.5011 128.782 32.6398 128.553 32.6711C128.329 32.7025 128.1 32.7338 127.872 32.7338C126.687 32.7383 125.503 32.7383 124.314 32.7383C124.121 32.7383 123.933 32.7248 123.74 32.7293C123.224 32.7517 122.677 32.5503 122.498 32.1745C122.309 31.7807 122.695 31.302 123.058 31.0201C123.933 30.3489 124.045 29.4451 124.041 28.425C124.014 21.521 124.018 14.6216 124.041 7.71761C124.045 6.9167 123.861 6.25896 123.224 5.75336C123.179 5.71757 123.135 5.6773 123.108 5.62808C122.91 5.27908 122.525 4.97035 122.753 4.51396C122.982 4.05758 123.431 4.02178 123.884 4.02626C125.391 4.04415 126.903 3.98599 128.41 4.12022C129.253 4.19628 129.908 4.68846 130.164 5.50727C131.16 8.74224 132.16 11.9772 133.165 15.2122C134.048 18.0534 134.744 20.9394 135.376 23.8432C135.399 23.9551 135.425 24.0625 135.461 24.1699C135.502 24.2951 135.538 24.4473 135.717 24.407C135.87 24.3712 135.914 24.2325 135.914 24.0938C135.91 23.8074 135.879 23.5255 135.874 23.2392C135.829 17.9013 135.766 12.5633 135.632 7.2299C135.623 6.88985 135.547 6.65718 135.264 6.41109C134.757 5.96813 134.457 5.36857 134.317 4.69294C134.228 4.24997 134.403 4.02178 134.838 4.02626C136.004 4.03521 137.17 4.05758 138.332 4.07995C138.772 4.0889 139.211 4.10232 139.647 4.13364C140.221 4.16944 140.409 4.46027 140.243 5.01957C140.158 5.30145 140.019 5.55202 139.79 5.73099C139.005 6.35293 138.781 7.14936 138.785 8.14267C138.812 15.7133 138.799 23.2795 138.794 30.8501C138.794 30.868 138.794 30.8903 138.794 30.9082C138.722 32.9172 139.027 32.5459 136.973 32.7204C136.152 32.792 135.331 32.689 134.515 32.6219C134.003 32.5817 133.739 32.2506 133.555 31.8389C133.053 30.689 132.747 29.4764 132.407 28.2728C130.94 23.105 129.495 17.9371 128.029 12.7692C127.84 12.098 127.661 11.4045 127.221 10.796Z" fill="#2D2D2D"/>
<path d="M94.1703 24.4787C94.1299 25.4989 94.2914 27.1186 94.0895 28.7338C94.0043 29.4229 94.251 30.0001 94.7175 30.5012C95.0674 30.8771 95.4263 31.2529 95.6595 31.7182C95.9152 32.2283 95.7627 32.5684 95.2065 32.5997C92.9546 32.725 90.7028 32.8323 88.451 32.6221C88.1594 32.5952 88.1056 32.4565 88.1191 32.2149C88.137 31.8167 88.285 31.4811 88.5811 31.2082C89.4558 30.4072 89.8595 29.4408 89.855 28.2282C89.8236 21.4988 89.8371 14.7693 89.8281 8.03543C89.8281 7.25242 89.7922 6.50072 89.0969 5.91458C88.7291 5.60585 88.4869 5.14052 88.4645 4.61254C88.451 4.31723 88.5273 4.13826 88.8637 4.12484C90.9047 4.04877 92.9502 3.91454 94.9912 4.13379C95.3814 4.17405 95.5564 4.39777 95.5115 4.79599C95.4577 5.25685 95.2693 5.65954 94.8745 5.89668C94.3856 6.18752 94.2062 6.62601 94.2062 7.13161C94.1927 9.97283 94.1972 12.8141 94.1972 15.6553C94.1972 16.1519 94.4663 16.2504 94.87 16.0938C95.8748 15.7134 96.606 15.0289 97.0815 14.0669C97.9293 12.3442 98.3824 10.4784 99.0193 8.67974C99.3692 7.69538 99.7326 6.72444 100.329 5.85194C101.155 4.64386 102.388 4.20985 103.743 4.03535C104.281 3.96823 104.842 3.96823 105.394 4.11141C106.075 4.29039 106.282 4.9168 105.802 5.44478C105.402 5.88326 104.851 6.1383 104.46 6.59916C103.756 7.43139 103.613 8.49182 103.285 9.4717C102.523 11.7492 101.796 14.04 100.8 16.2325C100.396 17.1229 100.486 17.266 101.361 17.7448C102.029 18.1117 102.388 18.7381 102.702 19.3958C103.415 20.8992 103.689 22.5279 104.061 24.1297C104.42 25.6599 104.783 27.1902 105.093 28.7294C105.259 29.5661 105.743 30.1209 106.434 30.5415C106.905 30.8323 107.233 31.1992 107.17 31.7853C107.107 32.376 106.645 32.6221 106.17 32.7563C104.667 33.1679 103.182 33.2082 101.917 32.1254C101.19 31.499 100.867 30.6041 100.639 29.6913C99.9882 27.1052 99.5217 24.4742 98.7906 21.9104C98.4721 20.8053 98.0773 19.7225 96.938 19.1676C96.3145 18.8634 95.655 18.6978 94.9508 18.8186C94.4484 18.9037 94.1792 19.1721 94.1837 19.7046C94.1792 21.0961 94.1703 22.4876 94.1703 24.4787Z" fill="#2D2D2D"/>
<path d="M38.2201 16.6709C38.2201 13.7358 38.2021 10.7961 38.2335 7.86092C38.2425 7.13607 38.0541 6.56335 37.4934 6.09802C37.1076 5.77139 36.8295 5.35975 36.7622 4.84072C36.7129 4.42461 36.8475 4.09798 37.314 4.08456C38.9737 4.03086 40.6379 3.94585 42.2976 4.1293C42.6923 4.17404 42.8404 4.84072 42.5937 5.3687C42.477 5.61479 42.2886 5.81166 42.0823 5.97721C41.5889 6.37543 41.378 6.87656 41.3601 7.51639C41.2614 10.8364 41.4318 14.1519 41.3825 17.4719C41.3421 20.0446 41.3691 22.6218 41.2838 25.1946C41.2255 26.8904 40.9788 28.5683 40.0054 30.0359C38.7225 31.9733 36.8519 32.9039 34.5822 33.065C33.075 33.1724 31.5812 33.074 30.1413 32.5102C27.9658 31.6601 25.9472 28.9486 25.8978 26.5056C25.7722 20.3668 25.8485 14.2235 25.8126 8.08464C25.8081 7.16292 25.7005 6.35753 24.7181 5.91457C24.2381 5.6998 24.1439 5.18525 24.1529 4.6886C24.1574 4.28143 24.3772 4.03534 24.7899 4.03981C26.9475 4.07561 29.1096 3.93243 31.2672 4.10693C31.5723 4.1293 31.8952 4.16062 32.0074 4.51857C32.1195 4.87652 32.0343 5.1942 31.7652 5.45819C31.644 5.57899 31.5274 5.70875 31.3928 5.81166C30.6841 6.35306 30.4015 7.08686 30.4015 7.95041C30.4015 13.861 30.4015 19.7762 30.4194 25.6868C30.4239 26.9128 30.7783 28.0582 31.5812 29.0068C32.429 30.009 33.7747 30.3088 35.1249 30.0269C37.0807 29.6153 38.2156 27.6734 38.2156 25.7629C38.2111 22.7292 38.2156 19.6956 38.2156 16.6665H38.2201V16.6709Z" fill="#2D2D2D"/>
<path d="M77.1921 15.2614C77.6317 14.5142 77.8918 13.682 78.2148 12.8855C78.9953 10.975 79.713 9.04206 80.4666 7.12256C80.7268 6.46035 80.6461 6.12477 80.0584 5.70418C79.6637 5.42677 79.408 5.06882 79.5381 4.59454C79.6816 4.08446 80.1437 4.02182 80.6057 4.03525C81.9245 4.06657 83.2388 4.09789 84.5576 4.13368C84.8716 4.14263 85.1811 4.20527 85.2888 4.55875C85.4368 5.0375 85.1228 5.34623 84.7909 5.54758C84.0238 6.01292 83.6201 6.71539 83.324 7.5163C82.9248 8.5991 82.5256 9.68637 82.1084 10.7602C81.3817 12.6305 80.6371 14.4918 79.9059 16.3621C79.1523 18.2995 78.5826 20.2548 78.6813 22.3891C78.7845 24.5592 78.7082 26.7337 78.6858 28.9082C78.6768 29.6376 78.8966 30.1879 79.5874 30.5414C80.1033 30.8054 80.4128 31.9061 80.184 32.4161C80.1033 32.5951 79.9508 32.5862 79.8028 32.6085C79.2555 32.7025 78.7082 32.7472 78.152 32.7294C76.5506 32.6757 74.9447 32.7965 73.3389 32.6354C72.518 32.5504 72.2309 32.0627 72.6301 31.302C72.7961 30.9799 73.0024 30.6846 73.303 30.4608C73.8906 30.0224 74.1508 29.4675 74.1283 28.7024C74.079 26.8545 74.0566 25.0021 74.1283 23.1542C74.1956 21.3018 73.922 19.5613 73.2088 17.8297C71.7375 14.2592 70.4052 10.626 68.7679 7.12256C68.5661 6.68855 68.3059 6.2948 67.9829 5.94132C67.8439 5.7892 67.7093 5.62365 67.5927 5.45362C67.0275 4.61244 67.2518 4.10236 68.2521 4.06657C69.2972 4.0263 70.3424 3.95918 71.3965 4.10683C72.4058 4.25001 72.9845 4.80931 73.3344 5.71313C74.5096 8.74675 75.6938 11.7759 76.8826 14.805C76.9364 14.9661 76.9543 15.1585 77.1921 15.2614Z" fill="#2D2D2D"/>
<path d="M113.531 32.743C112.984 32.7161 112.127 32.6669 111.266 32.6266C110.934 32.6087 110.476 32.6937 110.377 32.3313C110.261 31.8973 110.373 31.4051 110.822 31.1232C111.418 30.7429 111.768 30.197 111.921 29.5259C111.974 29.2887 112.01 29.0382 112.01 28.7921C112.01 21.7181 112.001 14.6397 112.01 7.56571C112.01 6.96615 111.831 6.49634 111.423 6.08022C111.127 5.78044 110.889 5.43592 110.732 5.04217C110.516 4.50525 110.691 4.16967 111.275 4.1473C112.858 4.08466 114.441 3.95043 116.029 4.05334C116.352 4.07571 116.675 4.1115 116.998 4.13388C117.797 4.18309 118.003 4.55894 117.595 5.25694C117.451 5.49856 117.29 5.74912 117.079 5.93257C116.509 6.42922 116.357 7.06458 116.366 7.78048C116.393 10.6978 116.429 13.6151 116.429 16.5323C116.429 20.6532 116.397 24.7696 116.37 28.8905C116.366 29.6019 116.572 30.1881 117.137 30.649C117.608 31.0337 117.878 31.5259 117.999 32.1389C118.075 32.5371 117.958 32.5819 117.626 32.6266C116.366 32.8011 115.101 32.6982 113.531 32.743Z" fill="#2D2D2D"/>
<path d="M19.5149 17.5792C19.4879 13.8252 19.5956 10.7334 19.3848 7.65057C19.2098 5.04649 18.0166 3.06435 15.6661 1.84732C14.4909 1.23881 13.181 1.1359 11.8936 1.06879C8.49347 0.894286 5.09331 0.925605 1.68866 0.903233C1.38363 0.903233 0.993371 0.840592 0.8588 1.24776C0.728714 1.6415 0.858799 2.0084 1.11448 2.30819C1.37466 2.61244 1.66623 2.88985 1.96677 3.15384C2.40188 3.53416 2.55888 3.98607 2.5544 4.56326C2.54543 12.456 2.49608 20.3488 2.6172 28.2461C2.63514 29.3289 2.25834 30.2148 1.33877 30.8323C1.24457 30.8949 1.15486 30.971 1.07411 31.0515C0.791515 31.3334 0.47303 31.5884 0.656944 32.0717C0.840858 32.5549 1.20869 32.6354 1.66174 32.6399C5.23685 32.6712 8.81196 32.707 12.3826 32.5057C14.9125 32.3625 16.8593 31.1678 18.2678 29.0828C19.2816 27.5794 19.4565 25.8568 19.4924 24.1207C19.5507 21.718 19.5911 19.3152 19.5149 17.5792ZM14.6748 25.3691C14.6523 26.5234 14.2307 27.5883 13.5085 28.5235C12.737 29.5168 11.6469 29.7137 10.4986 29.745C9.48481 29.7718 8.47104 29.745 7.46176 29.7674C7.08496 29.7763 7.05805 29.5571 7.07599 29.2976C7.7309 21.6509 7.25093 13.9863 7.42139 6.33511C7.43933 5.62816 7.4483 4.92569 7.4483 4.21874C7.4483 3.93685 7.54699 3.78472 7.84304 3.7892C8.96896 3.80262 10.0994 3.72208 11.2208 3.84737C13.1362 4.06661 14.0827 5.31048 14.5581 7.03311C14.6703 7.43581 14.6972 7.85192 14.6972 8.27251C14.6882 11.0556 14.6927 13.8386 14.6927 16.6217C14.6927 19.539 14.7286 22.4518 14.6748 25.3691Z" fill="#2D2D2D"/>
<path d="M64.7531 30.5056C64.1341 30.0985 63.6407 29.5794 63.3357 28.9038C63.0889 28.3534 62.8781 27.7807 62.6404 27.2259C61.7612 25.1588 61.1691 22.9663 59.931 21.0513C59.4645 20.3309 59.5183 20.313 60.2809 19.9282C61.8419 19.1407 62.905 17.9774 63.2415 16.1966C63.551 14.55 63.4523 12.8945 63.4433 11.2435C63.4388 10.022 63.2998 8.81837 62.7929 7.68635C61.99 5.89661 60.6756 4.75565 58.684 4.47824C56.5622 4.17845 54.4271 4.12923 52.8481 4.13371C50.7398 4.12923 49.1922 4.15161 47.6447 4.0308C47.1064 3.99053 46.9808 4.23662 47.0346 4.7109C47.0929 5.20308 47.3665 5.58788 47.7164 5.86081C48.3713 6.36642 48.4835 7.01968 48.4835 7.77137C48.4925 14.7469 48.5104 21.7269 48.5328 28.7024C48.5328 29.1499 48.4297 29.5571 48.2188 29.9553C47.9811 30.3982 47.6805 30.783 47.2948 31.1007C46.8911 31.4318 46.7879 31.8703 46.9494 32.3312C47.0929 32.7518 47.5191 32.6175 47.842 32.6444C48.1829 32.6712 48.5283 32.6802 48.8737 32.6846C50.5738 32.716 52.2739 32.8278 53.9695 32.6265C54.6648 32.5415 54.7949 32.3133 54.4764 31.6913C54.2252 31.1991 53.9067 30.7472 53.4402 30.4206C53.0589 30.1521 52.884 29.7808 52.884 29.302C52.8974 26.7651 52.9064 24.2326 52.8885 21.6956C52.884 21.2795 53.041 21.1676 53.4178 21.1587C55.0416 21.1229 55.5395 21.4764 56.1585 22.7918C57.0018 24.5771 57.5581 26.4697 58.2758 28.3042C58.7154 29.4318 59.0608 30.5996 59.6708 31.6555C59.9714 32.1746 60.3661 32.6533 61.0076 32.707C62.2456 32.8099 63.4882 32.7562 64.7218 32.5862C64.8249 32.5728 64.946 32.5057 65.0178 32.4296C65.3453 32.0582 65.1838 30.792 64.7531 30.5056ZM58.7333 15.7581C58.684 17.5613 57.4953 18.2727 55.7728 18.5277C55.0461 18.6351 54.288 18.5367 53.5434 18.4875C52.9692 18.4517 52.8615 18.1832 52.8705 17.6866C52.8929 16.0087 52.8795 14.3353 52.8795 12.6574H52.8929C52.8929 10.9616 52.8885 9.26581 52.8974 7.57002C52.9019 6.8407 52.9916 6.77358 53.7318 6.76016C54.593 6.74674 55.4453 6.77806 56.3021 6.8765C57.733 7.03757 58.518 7.82059 58.6391 9.25238C58.8275 11.4225 58.7916 13.588 58.7333 15.7581Z" fill="#2D2D2D"/>
<path d="M161.537 9.37765C160.927 6.84963 159.527 5.06436 156.975 4.22765C154.866 3.5386 152.772 3.50281 150.623 4.00394C147.528 4.72878 145.581 7.1002 145.366 10.1651C145.191 12.6574 145.231 15.1585 145.249 18.5277C145.307 20.5636 145.146 23.4808 145.348 26.3981C145.532 29.0962 146.873 30.9754 149.246 32.1924C151.202 33.1902 153.274 33.3021 155.378 32.9352C157.957 32.4877 160.016 31.2394 161.119 28.7561C161.613 27.6465 161.73 26.4339 161.747 25.2437C161.81 21.2213 161.837 17.1988 161.833 13.1809C161.828 11.9101 161.842 10.6305 161.537 9.37765ZM157.293 17.87C157.293 20.8454 157.311 23.19 157.289 25.5346C157.275 26.7292 157.006 27.8612 156.302 28.8635C155.804 29.5704 155.149 29.9955 154.292 30.1253C151.749 30.5101 150.085 29.1856 149.829 26.6397C149.721 25.5525 149.748 24.4697 149.744 23.3869C149.735 19.4987 149.739 15.6104 149.744 11.7222C149.744 10.9616 149.833 10.2054 149.941 9.45371C150.327 6.77804 152.816 6.25007 154.579 6.70645C156.01 7.07783 157.055 8.52752 157.194 10.1607C157.419 12.9392 157.203 15.7223 157.293 17.87Z" fill="#2D2D2D"/>
<path d="M6.90047 43.3083V44.57C6.90047 44.7356 6.88253 44.8698 6.85113 44.9727C6.81973 45.0712 6.75693 45.1651 6.66722 45.2457C6.5775 45.3262 6.46536 45.4023 6.3263 45.4783C5.92707 45.6931 5.54579 45.8497 5.17347 45.9481C4.80565 46.0466 4.40193 46.0958 3.96682 46.0958C3.45993 46.0958 2.99791 46.0197 2.58074 45.8631C2.16357 45.7065 1.80919 45.4828 1.51762 45.1875C1.22605 44.8922 0.997281 44.5342 0.840281 44.1092C0.683281 43.6886 0.602539 43.2188 0.602539 42.6953C0.602539 42.1852 0.678797 41.7154 0.831311 41.2903C0.983825 40.8653 1.20811 40.5073 1.50417 40.2075C1.80022 39.9122 2.16356 39.684 2.58971 39.5274C3.01585 39.3708 3.49582 39.2903 4.03859 39.2903C4.48268 39.2903 4.87293 39.3485 5.21833 39.4693C5.55924 39.5856 5.83736 39.7377 6.04819 39.9167C6.25901 40.0957 6.4205 40.2881 6.52816 40.4849C6.63581 40.6863 6.68964 40.8653 6.68964 41.0174C6.68964 41.1829 6.62684 41.3261 6.50124 41.4469C6.37564 41.5633 6.22762 41.6259 6.05267 41.6259C5.95847 41.6259 5.86427 41.6035 5.77456 41.5588C5.68484 41.514 5.61307 41.4514 5.55027 41.3709C5.3843 41.1114 5.24524 40.919 5.1331 40.7892C5.02096 40.6594 4.86396 40.5476 4.67107 40.4581C4.47819 40.3686 4.23147 40.3239 3.93093 40.3239C3.62142 40.3239 3.34779 40.3776 3.10556 40.4849C2.86334 40.5923 2.65699 40.7445 2.48205 40.9458C2.31159 41.1472 2.17702 41.3932 2.08731 41.6885C1.9976 41.9794 1.94825 42.306 1.94825 42.6595C1.94825 43.4291 2.12768 44.0242 2.48205 44.4403C2.83642 44.8564 3.33433 45.0622 3.96682 45.0622C4.27633 45.0622 4.56342 45.022 4.83705 44.9414C5.10619 44.8609 5.3843 44.7445 5.66242 44.5969V43.5275H4.62622C4.3795 43.5275 4.1911 43.4917 4.06102 43.4157C3.93542 43.3396 3.86813 43.2143 3.86813 43.0353C3.86813 42.8877 3.92196 42.7669 4.02962 42.6729C4.13728 42.5789 4.28082 42.5297 4.46473 42.5297H5.9809C6.16482 42.5297 6.3263 42.5476 6.4519 42.5789C6.58199 42.6103 6.68516 42.6863 6.7659 42.7982C6.8601 42.9101 6.90047 43.0801 6.90047 43.3083Z" fill="#2D2D2D"/>
<path d="M9.4842 40.1046V44.8876H12.1891C12.4044 44.8876 12.5704 44.9413 12.687 45.0442C12.8036 45.1472 12.8619 45.2814 12.8619 45.438C12.8619 45.5991 12.8036 45.7288 12.6915 45.8317C12.5793 45.9302 12.4089 45.9839 12.1936 45.9839H8.96835C8.67678 45.9839 8.47043 45.9212 8.34035 45.7915C8.21475 45.6617 8.14746 45.4559 8.14746 45.1695V40.109C8.14746 39.8406 8.21026 39.6392 8.33138 39.505C8.45249 39.3708 8.61398 39.3036 8.81135 39.3036C9.0132 39.3036 9.17469 39.3708 9.30029 39.505C9.4214 39.6303 9.4842 39.8316 9.4842 40.1046Z" fill="#2D2D2D"/>
<path d="M17.832 45.2366L17.518 44.4133H14.84L14.526 45.2545C14.4049 45.5811 14.2973 45.8048 14.212 45.9212C14.1268 46.0375 13.9833 46.0957 13.7859 46.0957C13.6199 46.0957 13.4719 46.033 13.3418 45.9122C13.2117 45.7914 13.1489 45.6527 13.1489 45.4961C13.1489 45.4066 13.1624 45.3126 13.1938 45.2187C13.2252 45.1247 13.2745 44.9905 13.3418 44.8205L15.0284 40.5519C15.0778 40.4311 15.1361 40.2835 15.2034 40.109C15.2707 39.9389 15.3424 39.7958 15.4187 39.6794C15.4949 39.5676 15.5936 39.4736 15.7192 39.402C15.8448 39.3304 15.9973 39.2946 16.1813 39.2946C16.3652 39.2946 16.5222 39.3304 16.6478 39.402C16.7734 39.4736 16.8721 39.5631 16.9483 39.675C17.0246 39.7868 17.0874 39.9031 17.1412 40.0329C17.195 40.1582 17.2623 40.3282 17.3431 40.543L19.0656 44.7847C19.2001 45.1068 19.2674 45.344 19.2674 45.4872C19.2674 45.6393 19.2046 45.778 19.0745 45.9077C18.9489 46.033 18.7919 46.1001 18.6125 46.1001C18.5093 46.1001 18.4196 46.0822 18.3434 46.0464C18.2671 46.0107 18.2043 45.957 18.155 45.8943C18.1056 45.8317 18.0473 45.7332 17.989 45.599C17.9217 45.4558 17.8724 45.3395 17.832 45.2366ZM15.1854 43.411H17.1547L16.1633 40.6996L15.1854 43.411Z" fill="#2D2D2D"/>
<path d="M22.4614 44.9905L21.4073 40.8025V45.3395C21.4073 45.59 21.349 45.778 21.2368 45.9032C21.1247 46.0285 20.9767 46.0912 20.7883 46.0912C20.6089 46.0912 20.4608 46.0285 20.3487 45.9032C20.2365 45.778 20.1782 45.59 20.1782 45.335V40.1313C20.1782 39.845 20.2545 39.6526 20.4025 39.5497C20.5505 39.4512 20.7524 39.3975 21.0081 39.3975H21.4208C21.6675 39.3975 21.8514 39.4199 21.9635 39.4646C22.0757 39.5094 22.1609 39.5899 22.2147 39.7063C22.2686 39.8226 22.3314 40.0105 22.3986 40.2745L23.3586 43.8764L24.314 40.2745C24.3813 40.0105 24.4441 39.8226 24.498 39.7063C24.5518 39.5899 24.637 39.5094 24.7492 39.4646C24.8613 39.4199 25.0407 39.3975 25.2919 39.3975H25.7046C25.9603 39.3975 26.1622 39.4467 26.3102 39.5497C26.4582 39.6481 26.5345 39.845 26.5345 40.1313V45.335C26.5345 45.5856 26.4762 45.7735 26.364 45.8988C26.2519 46.0241 26.0994 46.0867 25.911 46.0867C25.736 46.0867 25.588 46.0241 25.4758 45.8988C25.3637 45.7735 25.3054 45.5856 25.3054 45.335V40.798L24.2512 44.986C24.184 45.2589 24.1256 45.4558 24.0808 45.5856C24.0359 45.7108 23.9552 45.8272 23.8386 45.9346C23.7219 46.0375 23.5604 46.0912 23.3541 46.0912C23.1971 46.0912 23.067 46.0599 22.9594 45.9927C22.8517 45.9256 22.7665 45.8406 22.7082 45.7332C22.6498 45.6303 22.6005 45.514 22.5646 45.3842C22.5332 45.2589 22.4973 45.1292 22.4614 44.9905Z" fill="#2D2D2D"/>
<path d="M30.4641 43.4202H29.2395V45.2815C29.2395 45.55 29.1767 45.7513 29.0511 45.8856C28.9255 46.0243 28.7685 46.0914 28.5756 46.0914C28.3737 46.0914 28.2123 46.0243 28.0911 45.8856C27.97 45.7513 27.9072 45.55 27.9072 45.286V40.2255C27.9072 39.9347 27.9745 39.7244 28.1091 39.5991C28.2437 39.4738 28.459 39.4112 28.7505 39.4112H30.4641C30.971 39.4112 31.3612 39.4515 31.6349 39.5275C31.904 39.6036 32.1373 39.7289 32.3346 39.8989C32.532 40.0734 32.68 40.2837 32.7832 40.5342C32.8864 40.7848 32.9357 41.0667 32.9357 41.3799C32.9357 42.0511 32.7294 42.5567 32.3167 42.9012C31.895 43.2502 31.2805 43.4202 30.4641 43.4202ZM30.1411 40.409H29.244V42.418H30.1411C30.4551 42.418 30.7198 42.3866 30.9306 42.3195C31.1414 42.2524 31.3029 42.145 31.4151 41.9974C31.5272 41.8497 31.581 41.6528 31.581 41.4112C31.581 41.1204 31.4958 40.8832 31.3253 40.7043C31.128 40.5074 30.7332 40.409 30.1411 40.409Z" fill="#2D2D2D"/>
<path d="M34.0972 45.2813V40.1C34.0972 39.8316 34.16 39.6302 34.2811 39.496C34.4022 39.3618 34.5637 39.2946 34.7566 39.2946C34.9584 39.2946 35.1199 39.3618 35.2455 39.496C35.3711 39.6302 35.4339 39.8316 35.4339 40.1045V45.2858C35.4339 45.5587 35.3711 45.7601 35.2455 45.8943C35.1199 46.0286 34.9584 46.0957 34.7566 46.0957C34.5637 46.0957 34.4067 46.0285 34.2811 45.8898C34.1555 45.7511 34.0972 45.5498 34.0972 45.2813Z" fill="#2D2D2D"/>
<path d="M38.6681 40.0956L41.2339 43.9704V40.0598C41.2339 39.8048 41.2878 39.6169 41.3999 39.4871C41.5076 39.3618 41.6556 39.2947 41.844 39.2947C42.0369 39.2947 42.1849 39.3573 42.2971 39.4871C42.4092 39.6124 42.463 39.8048 42.463 40.0598V45.2322C42.463 45.8094 42.2253 46.0957 41.7453 46.0957C41.6242 46.0957 41.5165 46.0778 41.4223 46.0421C41.3281 46.0063 41.2384 45.9526 41.1532 45.8765C41.068 45.8004 40.9917 45.7154 40.92 45.6125C40.8482 45.5096 40.7764 45.4112 40.7046 45.3038L38.2016 41.4737V45.3262C38.2016 45.5767 38.1433 45.7691 38.0267 45.8944C37.91 46.0242 37.762 46.0868 37.5781 46.0868C37.3897 46.0868 37.2372 46.0242 37.125 45.8899C37.0129 45.7602 36.9546 45.5722 36.9546 45.3217V40.2477C36.9546 40.033 36.977 39.863 37.0264 39.7421C37.0847 39.6079 37.1789 39.4961 37.309 39.411C37.439 39.326 37.5826 39.2813 37.7351 39.2813C37.8562 39.2813 37.9594 39.2992 38.0446 39.3395C38.1298 39.3797 38.2061 39.4289 38.2689 39.4961C38.3317 39.5632 38.399 39.6482 38.4663 39.7511C38.5246 39.8719 38.5964 39.9793 38.6681 40.0956Z" fill="#2D2D2D"/>
<path d="M49.941 43.3083V44.57C49.941 44.7356 49.9231 44.8698 49.8917 44.9727C49.8603 45.0712 49.7975 45.1651 49.7077 45.2457C49.618 45.3262 49.5059 45.4023 49.3668 45.4783C48.9676 45.6931 48.5863 45.8497 48.214 45.9481C47.8462 46.0466 47.4425 46.0958 47.0073 46.0958C46.5005 46.0958 46.0384 46.0197 45.6213 45.8631C45.2041 45.7065 44.8497 45.4828 44.5582 45.1875C44.2666 44.8922 44.0378 44.5342 43.8808 44.1092C43.7238 43.6886 43.6431 43.2188 43.6431 42.6953C43.6431 42.1852 43.7193 41.7154 43.8718 41.2903C44.0244 40.8653 44.2486 40.5073 44.5447 40.2075C44.8408 39.9122 45.2041 39.684 45.6302 39.5274C46.0564 39.3708 46.5363 39.2903 47.0791 39.2903C47.5232 39.2903 47.9135 39.3485 48.2589 39.4693C48.5998 39.5856 48.8779 39.7377 49.0887 39.9167C49.2995 40.0957 49.461 40.2881 49.5687 40.4849C49.6763 40.6863 49.7302 40.8653 49.7302 41.0174C49.7302 41.1829 49.6674 41.3261 49.5418 41.4469C49.4162 41.5633 49.2681 41.6259 49.0932 41.6259C48.999 41.6259 48.9048 41.6035 48.8151 41.5588C48.7254 41.514 48.6536 41.4514 48.5908 41.3709C48.4248 41.1114 48.2858 40.919 48.1736 40.7892C48.0615 40.6594 47.9045 40.5476 47.7116 40.4581C47.5187 40.3686 47.272 40.3239 46.9715 40.3239C46.6619 40.3239 46.3883 40.3776 46.1461 40.4849C45.9039 40.5923 45.6975 40.7445 45.5226 40.9458C45.3521 41.1472 45.2175 41.3932 45.1278 41.6885C45.0381 41.9839 44.9888 42.306 44.9888 42.6595C44.9888 43.4291 45.1682 44.0242 45.5226 44.4403C45.8769 44.8564 46.3749 45.0622 47.0073 45.0622C47.3169 45.0622 47.6039 45.022 47.8776 44.9414C48.1467 44.8609 48.4248 44.7445 48.7029 44.5969V43.5275H47.6667C47.42 43.5275 47.2316 43.4917 47.1015 43.4157C46.9759 43.3396 46.9087 43.2143 46.9087 43.0353C46.9087 42.8877 46.9625 42.7669 47.0701 42.6729C47.1778 42.5789 47.3213 42.5297 47.5053 42.5297H49.0214C49.2053 42.5297 49.3668 42.5476 49.4924 42.5789C49.6225 42.6103 49.7257 42.6863 49.8064 42.7982C49.9006 42.9101 49.941 43.0801 49.941 43.3083Z" fill="#2D2D2D"/>
<path d="M54.2202 40.8025C54.2202 40.5251 54.292 40.27 54.44 40.0419C54.5881 39.8137 54.7989 39.6302 55.0815 39.496C55.3641 39.3618 55.696 39.2946 56.0728 39.2946C56.4496 39.2946 56.7771 39.3662 57.0552 39.5049C57.3288 39.6436 57.5352 39.8316 57.6742 40.0553C57.8133 40.279 57.8806 40.5206 57.8806 40.7622C57.8806 41.0978 57.7684 41.3886 57.5486 41.6392C57.3288 41.8898 57.0014 42.1403 56.5663 42.3954C56.7143 42.5699 56.8578 42.7354 56.9834 42.892C57.1135 43.0486 57.2346 43.1918 57.3557 43.326C57.4769 43.4603 57.5845 43.5766 57.6832 43.6706C57.7281 43.5855 57.7998 43.4289 57.894 43.2008C57.9882 42.9726 58.0779 42.8025 58.1587 42.7041C58.2394 42.6012 58.3561 42.552 58.5086 42.552C58.6476 42.552 58.7732 42.6012 58.8809 42.7041C58.9885 42.8025 59.0424 42.9278 59.0424 43.071C59.0424 43.2008 58.9975 43.3887 58.9033 43.6303C58.8091 43.8719 58.6745 44.1359 58.4996 44.4312C58.6117 44.5252 58.7867 44.6728 59.0289 44.8652C59.2711 45.0576 59.4192 45.1918 59.473 45.2634C59.5268 45.335 59.5582 45.429 59.5582 45.5453C59.5582 45.7019 59.4999 45.8317 59.3878 45.9391C59.2756 46.0464 59.15 46.1001 59.011 46.1001C58.8719 46.1001 58.7329 46.0554 58.6028 45.9659C58.4727 45.8764 58.1901 45.6572 57.7639 45.3082C57.5711 45.4916 57.3692 45.6393 57.1584 45.7556C56.952 45.8719 56.7277 45.957 56.49 46.0151C56.2523 46.0733 55.9876 46.1001 55.6915 46.1001C55.3192 46.1001 54.9828 46.0464 54.6823 45.9346C54.3862 45.8272 54.135 45.6795 53.9376 45.4916C53.7403 45.3082 53.5922 45.1024 53.498 44.8742C53.4038 44.6504 53.3545 44.4178 53.3545 44.1851C53.3545 43.9614 53.3904 43.7556 53.4621 43.5677C53.5339 43.3797 53.6371 43.2097 53.7672 43.062C53.8973 42.9099 54.0587 42.7667 54.2471 42.6325C54.4355 42.4983 54.6598 42.364 54.911 42.2343C54.6867 41.9524 54.5163 41.7018 54.3997 41.4826C54.2785 41.2634 54.2202 41.0352 54.2202 40.8025ZM55.4942 42.9502C55.1891 43.1247 54.9604 43.3037 54.8079 43.4782C54.6553 43.6527 54.5791 43.863 54.5791 44.1046C54.5791 44.2433 54.606 44.373 54.6643 44.4983C54.7181 44.6236 54.7989 44.7399 54.9065 44.8473C55.0142 44.9547 55.1353 45.0352 55.2789 45.0934C55.4179 45.1516 55.5704 45.1784 55.7229 45.1784C55.8755 45.1784 56.0235 45.156 56.167 45.1068C56.3106 45.0576 56.4451 44.9905 56.5752 44.901C56.7053 44.8115 56.8354 44.7041 56.9745 44.5699C56.7098 44.3238 56.4676 44.0822 56.2567 43.8406C56.0459 43.6079 55.7902 43.3081 55.4942 42.9502ZM55.9517 41.7197C56.2567 41.5273 56.4765 41.3618 56.6156 41.2276C56.7502 41.0933 56.8219 40.9323 56.8219 40.7443C56.8219 40.5609 56.7547 40.4043 56.6156 40.279C56.481 40.1537 56.3061 40.0911 56.0997 40.0911C55.8934 40.0911 55.7185 40.1537 55.5794 40.2835C55.4403 40.4132 55.3686 40.5654 55.3686 40.7354C55.3686 40.8249 55.3955 40.9233 55.4493 41.0262C55.5031 41.1291 55.5659 41.232 55.6467 41.3349C55.7229 41.4379 55.8261 41.5676 55.9517 41.7197Z" fill="#2D2D2D"/>
<path d="M66.7486 40.4357H64.1199V42.118H66.318C66.5198 42.118 66.6723 42.1628 66.7755 42.2568C66.8742 42.3462 66.928 42.4715 66.928 42.6237C66.928 42.7758 66.8787 42.8966 66.7755 42.9861C66.6723 43.0756 66.5198 43.1203 66.3224 43.1203H64.1244V45.2859C64.1244 45.5588 64.0616 45.7647 63.936 45.8989C63.8104 46.0331 63.6534 46.1002 63.4561 46.1002C63.2587 46.1002 63.0972 46.0331 62.9716 45.8989C62.846 45.7647 62.7832 45.5633 62.7832 45.2904V40.2343C62.7832 40.0419 62.8101 39.8853 62.8684 39.7645C62.9267 39.6437 63.0165 39.5542 63.1376 39.5005C63.2587 39.4468 63.4157 39.4155 63.6041 39.4155H66.7531C66.9639 39.4155 67.1254 39.4603 67.2286 39.5587C67.3317 39.6527 67.3855 39.778 67.3855 39.9301C67.3855 40.0867 67.3317 40.212 67.2286 40.3059C67.1209 40.3865 66.9639 40.4357 66.7486 40.4357Z" fill="#2D2D2D"/>
<path d="M68.4263 45.2813V40.1C68.4263 39.8316 68.4891 39.6302 68.6102 39.496C68.7313 39.3618 68.8928 39.2946 69.0857 39.2946C69.2875 39.2946 69.449 39.3618 69.5746 39.496C69.7002 39.6302 69.763 39.8316 69.763 40.1045V45.2858C69.763 45.5587 69.7002 45.7601 69.5746 45.8943C69.449 46.0286 69.2875 46.0957 69.0857 46.0957C68.8928 46.0957 68.7358 46.0285 68.6102 45.8898C68.4891 45.7556 68.4263 45.5498 68.4263 45.2813Z" fill="#2D2D2D"/>
<path d="M72.5982 40.1045V41.9882H75.478V40.1045C75.478 39.836 75.5408 39.6347 75.6619 39.5005C75.783 39.3662 75.9445 39.2991 76.1419 39.2991C76.3438 39.2991 76.5052 39.3662 76.6308 39.5005C76.7564 39.6347 76.8192 39.836 76.8192 40.109V45.2903C76.8192 45.5632 76.7564 45.7646 76.6308 45.8988C76.5052 46.033 76.3437 46.1001 76.1464 46.1001C75.9445 46.1001 75.783 46.033 75.6664 45.8943C75.5453 45.7601 75.487 45.5543 75.487 45.2858V43.0755H72.6072V45.2858C72.6072 45.5587 72.5444 45.7601 72.4188 45.8943C72.2932 46.0286 72.1317 46.0957 71.9343 46.0957C71.7324 46.0957 71.571 46.0285 71.4543 45.8898C71.3332 45.7556 71.2749 45.5498 71.2749 45.2813V40.1C71.2749 39.8316 71.3332 39.6302 71.4543 39.496C71.571 39.3618 71.7324 39.2946 71.9388 39.2946C72.1406 39.2946 72.3021 39.3618 72.4277 39.496C72.5354 39.6302 72.5982 39.8316 72.5982 40.1045Z" fill="#2D2D2D"/>
<path d="M78.3037 45.2813V40.1C78.3037 39.8316 78.3665 39.6302 78.4876 39.496C78.6087 39.3618 78.7702 39.2946 78.9631 39.2946C79.165 39.2946 79.3264 39.3618 79.452 39.496C79.5776 39.6302 79.6404 39.8316 79.6404 40.1045V45.2858C79.6404 45.5587 79.5776 45.7601 79.452 45.8943C79.3264 46.0286 79.165 46.0957 78.9631 46.0957C78.7702 46.0957 78.6132 46.0285 78.4876 45.8898C78.3665 45.7556 78.3037 45.5498 78.3037 45.2813Z" fill="#2D2D2D"/>
<path d="M82.8703 40.0956L85.4361 43.9704V40.0598C85.4361 39.8048 85.4899 39.6169 85.6021 39.4871C85.7097 39.3618 85.8578 39.2947 86.0462 39.2947C86.239 39.2947 86.3871 39.3573 86.4992 39.4871C86.6114 39.6124 86.6652 39.8048 86.6652 40.0598V45.2322C86.6652 45.8094 86.4274 46.0957 85.9475 46.0957C85.8264 46.0957 85.7187 46.0778 85.6245 46.0421C85.5303 46.0063 85.4406 45.9526 85.3554 45.8765C85.2701 45.8004 85.1939 45.7154 85.1221 45.6125C85.0503 45.5141 84.9786 45.4112 84.9068 45.3038L82.4038 41.4737V45.3262C82.4038 45.5767 82.3455 45.7691 82.2288 45.8944C82.1122 46.0242 81.9642 46.0868 81.7803 46.0868C81.5919 46.0868 81.4393 46.0242 81.3272 45.8899C81.2151 45.7602 81.1567 45.5722 81.1567 45.3217V40.2477C81.1567 40.033 81.1792 39.863 81.2285 39.7421C81.2868 39.6079 81.381 39.4961 81.5111 39.411C81.6412 39.326 81.7847 39.2813 81.9372 39.2813C82.0584 39.2813 82.1615 39.2992 82.2468 39.3395C82.332 39.3797 82.4082 39.4289 82.471 39.4961C82.5338 39.5632 82.6011 39.6482 82.6684 39.7511C82.7312 39.8719 82.7985 39.9793 82.8703 40.0956Z" fill="#2D2D2D"/>
<path d="M94.1475 43.3083V44.57C94.1475 44.7356 94.1296 44.8698 94.0982 44.9727C94.0668 45.0712 94.004 45.1651 93.9143 45.2457C93.8246 45.3262 93.7124 45.4023 93.5734 45.4783C93.1741 45.6931 92.7928 45.8497 92.4205 45.9481C92.0527 46.0466 91.649 46.0958 91.2139 46.0958C90.707 46.0958 90.245 46.0197 89.8278 45.8631C89.4106 45.7065 89.0563 45.4828 88.7647 45.1875C88.4731 44.8922 88.2444 44.5342 88.0874 44.1092C87.9304 43.6886 87.8496 43.2188 87.8496 42.6953C87.8496 42.1852 87.9259 41.7154 88.0784 41.2903C88.2309 40.8653 88.4552 40.5073 88.7512 40.2075C89.0473 39.9122 89.4106 39.684 89.8368 39.5274C90.2629 39.3708 90.7429 39.2903 91.2856 39.2903C91.7297 39.2903 92.12 39.3485 92.4654 39.4693C92.8063 39.5856 93.0844 39.7377 93.2952 39.9167C93.5061 40.0957 93.6676 40.2881 93.7752 40.4849C93.8829 40.6863 93.9367 40.8653 93.9367 41.0174C93.9367 41.1829 93.8739 41.3261 93.7483 41.4469C93.6227 41.5633 93.4747 41.6259 93.2997 41.6259C93.2055 41.6259 93.1113 41.6035 93.0216 41.5588C92.9319 41.514 92.8601 41.4514 92.7973 41.3709C92.6314 41.1114 92.4923 40.919 92.3802 40.7892C92.268 40.6594 92.111 40.5476 91.9181 40.4581C91.7252 40.3686 91.4785 40.3239 91.178 40.3239C90.8685 40.3239 90.5949 40.3776 90.3526 40.4849C90.1104 40.5923 89.904 40.7445 89.7291 40.9458C89.5586 41.1472 89.4241 41.3932 89.3344 41.6885C89.2447 41.9839 89.1953 42.306 89.1953 42.6595C89.1953 43.4291 89.3747 44.0242 89.7291 44.4403C90.0835 44.8564 90.5814 45.0622 91.2139 45.0622C91.5234 45.0622 91.8105 45.022 92.0841 44.9414C92.3532 44.8609 92.6314 44.7445 92.9095 44.5969V43.5275H91.8733C91.6266 43.5275 91.4382 43.4917 91.3081 43.4157C91.1825 43.3396 91.1152 43.2143 91.1152 43.0353C91.1152 42.8877 91.169 42.7669 91.2767 42.6729C91.3843 42.5789 91.5279 42.5297 91.7118 42.5297H93.228C93.4119 42.5297 93.5734 42.5476 93.699 42.5789C93.829 42.6103 93.9322 42.6863 94.013 42.7982C94.1072 42.9101 94.1475 43.0801 94.1475 43.3083Z" fill="#2D2D2D"/>
<path d="M103.334 43.9077C103.334 44.118 103.281 44.3417 103.177 44.5878C103.074 44.8294 102.913 45.071 102.688 45.3037C102.469 45.5364 102.182 45.7288 101.841 45.8764C101.495 46.0241 101.096 46.0957 100.634 46.0957C100.284 46.0957 99.9701 46.0643 99.6875 45.9972C99.4004 45.9301 99.1447 45.8272 98.9115 45.6885C98.6782 45.5498 98.4674 45.3663 98.27 45.1382C98.0951 44.9323 97.947 44.6997 97.8259 44.4446C97.7048 44.1896 97.6106 43.9167 97.5478 43.6258C97.485 43.335 97.4536 43.0263 97.4536 42.7041C97.4536 42.1761 97.5299 41.7018 97.6869 41.2813C97.8394 40.8651 98.0637 40.5072 98.3508 40.2074C98.6378 39.9121 98.9743 39.6839 99.3645 39.5273C99.7503 39.3707 100.163 39.2946 100.603 39.2946C101.136 39.2946 101.612 39.402 102.029 39.6123C102.446 39.8226 102.765 40.0866 102.984 40.3998C103.204 40.713 103.316 41.0083 103.316 41.2857C103.316 41.4379 103.263 41.5721 103.155 41.6884C103.047 41.8048 102.917 41.8629 102.765 41.8629C102.594 41.8629 102.464 41.8227 102.379 41.7421C102.294 41.6616 102.2 41.5229 102.092 41.326C101.917 40.9994 101.715 40.7578 101.477 40.5967C101.244 40.4356 100.952 40.3551 100.607 40.3551C100.06 40.3551 99.6202 40.5609 99.2972 40.977C98.9698 41.3931 98.8083 41.9837 98.8083 42.7488C98.8083 43.2589 98.8801 43.684 99.0236 44.024C99.1672 44.3641 99.3735 44.6146 99.6337 44.7847C99.8983 44.9502 100.208 45.0352 100.558 45.0352C100.943 45.0352 101.266 44.9413 101.531 44.7489C101.796 44.561 101.998 44.2791 102.132 43.9122C102.191 43.7377 102.258 43.599 102.343 43.4871C102.428 43.3797 102.563 43.3216 102.747 43.3216C102.904 43.3216 103.043 43.3753 103.155 43.4871C103.276 43.6034 103.334 43.7422 103.334 43.9077Z" fill="#2D2D2D"/>
<path d="M105.842 40.1046V44.8876H108.547C108.762 44.8876 108.928 44.9413 109.044 45.0442C109.161 45.1472 109.219 45.2814 109.219 45.438C109.219 45.5991 109.161 45.7288 109.049 45.8317C108.937 45.9302 108.766 45.9839 108.551 45.9839H105.326C105.034 45.9839 104.828 45.9212 104.698 45.7915C104.572 45.6617 104.505 45.4559 104.505 45.1695V40.109C104.505 39.8406 104.568 39.6392 104.689 39.505C104.81 39.3708 104.971 39.3036 105.169 39.3036C105.371 39.3036 105.532 39.3708 105.658 39.505C105.779 39.6303 105.842 39.8316 105.842 40.1046Z" fill="#2D2D2D"/>
<path d="M109.646 43.2635V40.1001C109.646 39.8317 109.708 39.6303 109.829 39.4961C109.951 39.3619 110.112 39.2948 110.309 39.2948C110.516 39.2948 110.682 39.3619 110.803 39.4961C110.924 39.6303 110.987 39.8317 110.987 40.1001V43.3351C110.987 43.702 111.027 44.0107 111.112 44.2568C111.193 44.5029 111.341 44.6953 111.552 44.8296C111.763 44.9638 112.054 45.0354 112.431 45.0354C112.951 45.0354 113.319 44.8967 113.539 44.6193C113.754 44.3418 113.862 43.9257 113.862 43.362V40.1001C113.862 39.8272 113.92 39.6259 114.041 39.4916C114.163 39.3574 114.32 39.2903 114.521 39.2903C114.723 39.2903 114.885 39.3574 115.01 39.4916C115.136 39.6259 115.199 39.8272 115.199 40.1001V43.2635C115.199 43.7781 115.149 44.2076 115.046 44.5521C114.948 44.8967 114.755 45.1964 114.477 45.456C114.239 45.6797 113.956 45.8408 113.642 45.9392C113.324 46.0421 112.951 46.0913 112.525 46.0913C112.018 46.0913 111.583 46.0376 111.216 45.9258C110.848 45.8184 110.552 45.6484 110.323 45.4202C110.094 45.192 109.924 44.8967 109.816 44.5432C109.699 44.1852 109.646 43.7602 109.646 43.2635Z" fill="#2D2D2D"/>
<path d="M119.447 45.9838H117.433C117.141 45.9838 116.935 45.9167 116.809 45.787C116.684 45.6572 116.621 45.4514 116.621 45.165V40.2253C116.621 39.9345 116.684 39.7287 116.814 39.5989C116.94 39.4736 117.146 39.4065 117.433 39.4065H119.568C119.882 39.4065 120.156 39.4244 120.385 39.4647C120.613 39.505 120.824 39.5765 121.004 39.6884C121.161 39.7824 121.295 39.8987 121.416 40.0419C121.537 40.1851 121.627 40.3417 121.69 40.5117C121.753 40.6817 121.784 40.8652 121.784 41.0576C121.784 41.7153 121.457 42.1985 120.797 42.5028C121.663 42.7757 122.098 43.3126 122.098 44.1091C122.098 44.476 122.004 44.8071 121.816 45.1024C121.627 45.3977 121.371 45.6125 121.053 45.7557C120.851 45.8407 120.622 45.8988 120.362 45.9346C120.098 45.9659 119.792 45.9838 119.447 45.9838ZM117.958 40.4088V42.109H119.182C119.514 42.109 119.77 42.0777 119.954 42.0151C120.133 41.9524 120.272 41.8316 120.371 41.6571C120.447 41.5318 120.483 41.3931 120.483 41.2365C120.483 40.9054 120.367 40.6862 120.129 40.5743C119.891 40.4625 119.532 40.4088 119.043 40.4088H117.958ZM119.348 43.0621H117.958V44.9816H119.393C120.295 44.9816 120.748 44.6594 120.748 44.0106C120.748 43.6795 120.631 43.4379 120.398 43.2903C120.16 43.1381 119.81 43.0621 119.348 43.0621Z" fill="#2D2D2D"/>
</svg>
