<svg width="286" height="81" viewBox="0 0 286 81" fill="none" xmlns="http://www.w3.org/2000/svg">
<path d="M56.7002 0.5C60.4195 0.500001 62.5365 0.527375 62.627 0.568359C62.7571 0.636706 62.7637 0.705365 62.7637 2.26367C62.7637 3.44547 62.7433 3.90312 62.6816 3.97168C62.6268 4.02636 62.3938 4.05371 61.4619 4.05371V9.04297H61.7363C61.9281 9.04297 62.0584 9.09096 62.1748 9.19336C62.2707 9.28905 66.3066 18.0924 72.5625 31.8711C78.1877 44.2548 82.9911 54.8343 83.6836 56.373L84.3887 53.5029C84.7724 51.9241 85.4034 49.4157 85.7871 47.9326C86.1708 46.4495 86.869 43.7906 87.335 42.0205C87.8077 40.2503 88.5478 37.5437 88.9727 36.0059C89.4043 34.4681 90.0762 32.0964 90.4736 30.7432C90.8642 29.3899 91.4534 27.4353 91.7754 26.4033C92.0974 25.3713 92.5639 23.9091 92.8174 23.1572C93.0641 22.4054 93.4545 21.2977 93.6807 20.6963C93.9067 20.0952 94.2213 19.3302 94.3857 18.9883C94.5502 18.6465 94.7771 18.2705 94.8936 18.1543C95.058 17.9835 95.1607 17.9287 95.3457 17.9287C95.5373 17.9288 95.6267 17.9767 95.791 18.1885C95.9007 18.3254 96.1062 18.6741 96.2432 18.9541C96.3803 19.2345 96.6608 19.8969 96.8662 20.4229C97.0718 20.9491 97.5178 22.1935 97.8467 23.1914C98.1824 24.1893 98.7375 25.9251 99.0801 27.0527C99.4227 28.1805 100.087 30.4291 100.553 32.042C101.019 33.655 101.813 36.5052 102.327 38.3643C102.834 40.2233 103.609 43.1146 104.048 44.7891C104.486 46.4636 105.301 49.6617 105.863 51.8965C106.418 54.1314 107.097 56.8996 107.371 58.0479C107.638 59.196 108.056 61.007 108.296 62.0801C108.536 63.1531 108.879 64.7189 109.05 65.5664C109.221 66.4138 109.454 67.6574 109.563 68.334C109.68 69.0106 109.789 69.8585 109.816 70.2139C109.851 70.74 109.837 70.9043 109.741 71.0889C109.679 71.2119 109.46 71.4172 109.234 71.5674C109.022 71.7041 108.508 71.9356 108.09 72.0723C107.672 72.209 106.87 72.4209 106.309 72.5303C105.74 72.6465 104.801 72.7969 104.219 72.8721C103.636 72.9472 102.616 73.0566 101.958 73.1182C101.3 73.1728 100.177 73.248 99.457 73.2891C98.7376 73.3232 98.0109 73.3574 97.5039 73.3574L97.4697 79.9326L97.2432 80.1309C97.1266 80.2402 96.8939 80.3701 96.7295 80.4111C96.5513 80.4658 96.0034 80.5 95.3115 80.5C94.4139 80.5 94.1052 80.4726 93.8174 80.377C93.5982 80.3086 93.4065 80.1855 93.3242 80.0762C93.1872 79.8916 93.1806 79.7957 93.1875 73.3916L91.5635 73.2959C90.6659 73.2481 89.3774 73.1933 87.4658 73.1318L87.5137 74.2871C87.5411 74.9227 87.5752 76.4603 87.582 77.7041C87.6026 79.6379 87.589 79.9804 87.5 80.083C87.4041 80.1924 85.2728 80.1992 53.0684 80.1992C25.4869 80.1924 18.7421 80.1785 18.6514 80.1104C18.5828 80.042 18.5684 79.2488 18.5684 72.9473H18.1436C17.9037 72.9473 17.4721 72.9678 16.6504 73.0498V79.5088L16.4785 79.7139C16.362 79.8505 16.1773 79.96 15.917 80.0352C15.6156 80.1308 15.273 80.1582 14.4922 80.1582C13.7316 80.1582 13.3678 80.124 13.0869 80.042C12.8814 79.9805 12.6207 79.8436 12.3262 79.543L12.333 76.2832C12.333 74.4857 12.3126 73.0156 12.2852 73.0156C12.2481 73.0155 11.578 72.9814 10.792 72.9473C10.004 72.9063 8.78387 72.831 8.08496 72.7695C7.38605 72.7148 6.32363 72.6054 5.7207 72.5303C5.1177 72.4551 4.16523 72.2978 3.59668 72.1885C3.0352 72.0792 2.30954 71.9092 1.9873 71.8135C1.6653 71.711 1.20568 71.54 0.958984 71.4238C0.712363 71.3077 0.397289 71.1023 0.00683594 70.7266L0 70.1113C0 69.7696 0.047723 69.1884 0.102539 68.8125C0.157367 68.4365 0.301496 67.6024 0.417969 66.9668C0.527666 66.3309 0.821763 64.8823 1.06152 63.7549C1.30132 62.6273 1.69864 60.8436 1.94531 59.791C2.19198 58.7385 2.54838 57.2137 2.74023 56.4072C2.93217 55.6004 3.50084 53.2904 4.00781 51.2812C4.50795 49.2721 5.21398 46.5047 5.57715 45.1309C5.93345 43.7571 6.50896 41.5896 6.85156 40.3115C7.19417 39.0334 7.75608 36.9899 8.0918 35.7666C8.4344 34.5432 8.97585 32.6364 9.29102 31.5293C9.61306 30.4221 10.1681 28.5427 10.5244 27.3604C10.8875 26.1781 11.4562 24.3602 11.7988 23.3281C12.1414 22.2961 12.601 20.9559 12.8271 20.3545C13.0532 19.7534 13.3746 18.9884 13.5391 18.6465C13.6965 18.3051 13.9157 17.9359 14.0254 17.8125C14.1281 17.6896 14.2927 17.5734 14.3887 17.5459C14.5189 17.5186 14.6217 17.5528 14.7998 17.71C14.93 17.8193 15.1491 18.1202 15.293 18.3799C15.43 18.6396 15.7047 19.2541 15.8965 19.7393C16.0952 20.2245 16.6025 21.6741 17.0342 22.9521C17.459 24.2302 18.1027 26.2464 18.459 27.4287C18.8153 28.6111 19.3363 30.381 19.6172 31.3584C19.905 32.3357 20.4123 34.133 20.7549 35.3564C21.0906 36.5799 21.6798 38.7132 22.0566 40.1074C22.4335 41.5016 22.899 43.258 23.1045 44.0234C23.3028 44.7805 23.4808 45.4019 23.502 45.4043C23.5225 45.4043 26.4896 37.2911 30.1074 27.374C35.0066 13.9234 36.7132 9.30952 37.001 9.04297H51.7324V4.05371H51.2871C50.9857 4.05371 50.8078 4.01949 50.7393 3.95117C50.657 3.86916 50.6357 3.58932 50.6357 2.31152C50.6357 0.862572 50.6432 0.766578 50.7734 0.636719C50.9104 0.500179 51.0015 0.5 56.7002 0.5ZM39.0088 16.8965C38.8512 17.3271 34.3222 29.8348 28.9502 44.6797L19.1855 71.6768V79.5703H35.6992C35.6992 61.9369 35.6989 61.8681 35.8359 61.7998C35.9266 61.7588 37.7218 61.7314 40.79 61.7314C44.578 61.7314 45.6204 61.7452 45.6895 61.8135C45.758 61.8818 45.7715 63.7005 45.7715 70.7402V79.5703H61.5312V67.3018C44.5753 28.2683 39.5721 16.7495 39.4678 16.5205L39.2891 16.1104L39.0088 16.8965ZM62.2158 68.9082C62.1816 68.8531 62.1543 71.0996 62.1543 74.1914L62.1475 79.5703H86.9863C86.9247 75.039 86.8975 73.5966 86.8975 73.4395L86.8838 73.1455C68.1504 73.1455 64.2922 73.125 64.1895 73.0771C64.1072 73.036 63.9767 72.8924 63.9082 72.749C63.8322 72.6108 63.4419 71.7097 63.0244 70.7539C62.6133 69.7971 62.2501 68.9629 62.2158 68.9082ZM38.748 9.6582C37.9469 9.6582 37.2684 9.67875 37.2539 9.71289V9.70605C37.2332 9.74074 32.156 23.6491 25.9688 40.6191C19.7745 57.5896 14.7041 71.5195 14.6904 71.5674C14.6715 71.6286 14.9883 71.6494 16.1162 71.6494H17.5752C33.8015 26.2624 38.5422 13.0425 38.5703 12.9941C38.6367 13.0659 44.4637 26.4136 51.5615 42.7383L64.5117 72.5371C67.1017 72.5371 67.417 72.5166 67.3965 72.4551C67.3644 72.3649 61.2591 58.2677 53.8223 41.0977C46.3742 23.9018 40.2627 9.78808 40.249 9.74707C40.2281 9.67883 39.8642 9.6582 38.748 9.6582ZM31.2793 65.6006L31.5742 65.7715C31.7318 65.8672 31.9237 66.0177 31.9922 66.1133C32.0607 66.2091 32.1562 66.4074 32.1973 66.5576C32.2588 66.7494 32.2725 67.4205 32.2383 70.877L32.0537 71.1436C31.9509 71.2871 31.7382 71.4855 31.2793 71.752H27.374C25.2239 71.752 23.3882 71.7314 23.2764 71.7041C23.1737 71.67 22.9818 71.5468 22.8379 71.4307C22.7009 71.3077 22.5364 71.082 22.4678 70.9316C22.3513 70.6856 22.3379 70.446 22.3379 68.6758C22.3379 66.9065 22.3514 66.6668 22.4678 66.4209C22.5363 66.2706 22.7009 66.0449 22.8379 65.9287C22.9818 65.8057 23.1736 65.6826 23.2764 65.6621C23.3855 65.6417 23.4946 65.6143 23.5361 65.6006C23.5704 65.5869 25.3318 65.5801 31.2793 65.6006ZM58.1396 65.6006L58.4336 65.7715C58.598 65.8672 58.8108 66.0655 59.0986 66.4756V70.877L58.9131 71.1436C58.8102 71.287 58.5982 71.4857 58.1396 71.752H54.2334C52.0888 71.752 50.2454 71.7314 50.1357 71.7041C50.0329 71.6698 49.8411 71.5468 49.6973 71.4307C49.5602 71.3077 49.3957 71.082 49.3271 70.9316C49.2107 70.6856 49.1973 70.446 49.1973 68.6758C49.1973 66.9069 49.2109 66.6668 49.3271 66.4209C49.3956 66.2707 49.5603 66.045 49.6973 65.9287C49.841 65.8058 50.0329 65.6828 50.1357 65.6621C50.2453 65.6416 50.3553 65.6143 50.3965 65.6006C50.4307 65.5869 52.1921 65.5801 58.1396 65.6006ZM38.8301 27.9072C38.8438 27.9072 38.8506 34.2433 38.8506 56.0664H34.0889C29.3982 56.0664 29.3263 56.0661 29.2578 55.9297C29.203 55.8203 30.1492 53.0106 34 41.8496C36.6363 34.206 38.8093 27.9475 38.8301 27.9072ZM40.0635 28.249C40.1199 28.3827 42.6482 34.3817 45.6826 41.5762C48.7181 48.7731 51.3005 54.918 51.4307 55.2324C51.6088 55.6629 51.6505 55.8272 51.5957 55.9297C51.5272 56.0661 51.4503 56.0664 39.9473 56.0664L39.9541 42.041C39.961 29.4175 39.9675 28.0371 40.0635 28.249ZM56.0498 16.2197H60.8457V4.05371H56.0498V16.2197Z" fill="#2D2D2D"/>
<path d="M251.221 27.796C251.221 28.3195 251.221 28.8474 251.221 29.3709C251.226 34.9594 251.239 40.5434 251.23 46.1319C251.23 46.7136 251.41 47.1521 251.885 47.4966C252.477 47.9306 252.652 48.6062 252.827 49.2729C252.89 49.5011 252.782 49.6398 252.553 49.6711C252.329 49.7025 252.1 49.7338 251.872 49.7338C250.687 49.7383 249.503 49.7383 248.314 49.7383C248.121 49.7383 247.933 49.7248 247.74 49.7293C247.224 49.7517 246.677 49.5503 246.498 49.1745C246.309 48.7807 246.695 48.302 247.058 48.0201C247.933 47.3489 248.045 46.4451 248.041 45.425C248.014 38.521 248.018 31.6216 248.041 24.7176C248.045 23.9167 247.861 23.259 247.224 22.7534C247.179 22.7176 247.135 22.6773 247.108 22.6281C246.91 22.2791 246.525 21.9703 246.753 21.514C246.982 21.0576 247.431 21.0218 247.884 21.0263C249.391 21.0442 250.903 20.986 252.41 21.1202C253.253 21.1963 253.908 21.6885 254.164 22.5073C255.16 25.7422 256.16 28.9772 257.165 32.2122C258.048 35.0534 258.744 37.9394 259.376 40.8432C259.399 40.9551 259.425 41.0625 259.461 41.1699C259.502 41.2951 259.538 41.4473 259.717 41.407C259.87 41.3712 259.914 41.2325 259.914 41.0938C259.91 40.8074 259.879 40.5255 259.874 40.2392C259.829 34.9013 259.766 29.5633 259.632 24.2299C259.623 23.8899 259.547 23.6572 259.264 23.4111C258.757 22.9681 258.457 22.3686 258.317 21.6929C258.228 21.25 258.403 21.0218 258.838 21.0263C260.004 21.0352 261.17 21.0576 262.332 21.0799C262.772 21.0889 263.211 21.1023 263.647 21.1336C264.221 21.1694 264.409 21.4603 264.243 22.0196C264.158 22.3015 264.019 22.552 263.79 22.731C263.005 23.3529 262.781 24.1494 262.785 25.1427C262.812 32.7133 262.799 40.2795 262.794 47.8501C262.794 47.868 262.794 47.8903 262.794 47.9082C262.722 49.9172 263.027 49.5459 260.973 49.7204C260.152 49.792 259.331 49.689 258.515 49.6219C258.003 49.5817 257.739 49.2506 257.555 48.8389C257.053 47.689 256.747 46.4764 256.407 45.2728C254.94 40.105 253.495 34.9371 252.029 29.7692C251.84 29.098 251.661 28.4045 251.221 27.796Z" fill="#2D2D2D"/>
<path d="M218.17 41.4787C218.13 42.4989 218.291 44.1186 218.09 45.7338C218.004 46.4229 218.251 47.0001 218.718 47.5012C219.067 47.8771 219.426 48.2529 219.66 48.7182C219.915 49.2283 219.763 49.5684 219.206 49.5997C216.955 49.725 214.703 49.8323 212.451 49.6221C212.159 49.5952 212.106 49.4565 212.119 49.2149C212.137 48.8167 212.285 48.4811 212.581 48.2082C213.456 47.4072 213.86 46.4408 213.855 45.2282C213.824 38.4988 213.837 31.7693 213.828 25.0354C213.828 24.2524 213.792 23.5007 213.097 22.9146C212.729 22.6059 212.487 22.1405 212.464 21.6125C212.451 21.3172 212.527 21.1383 212.864 21.1248C214.905 21.0488 216.95 20.9145 218.991 21.1338C219.381 21.1741 219.556 21.3978 219.511 21.796C219.458 22.2569 219.269 22.6595 218.875 22.8967C218.386 23.1875 218.206 23.626 218.206 24.1316C218.193 26.9728 218.197 29.8141 218.197 32.6553C218.197 33.1519 218.466 33.2504 218.87 33.0938C219.875 32.7134 220.606 32.0289 221.081 31.0669C221.929 29.3442 222.382 27.4784 223.019 25.6797C223.369 24.6954 223.733 23.7244 224.329 22.8519C225.155 21.6439 226.388 21.2098 227.743 21.0353C228.281 20.9682 228.842 20.9682 229.394 21.1114C230.075 21.2904 230.282 21.9168 229.802 22.4448C229.402 22.8833 228.851 23.1383 228.46 23.5992C227.756 24.4314 227.613 25.4918 227.285 26.4717C226.523 28.7492 225.796 31.04 224.8 33.2325C224.396 34.1229 224.486 34.266 225.361 34.7448C226.029 35.1117 226.388 35.7381 226.702 36.3958C227.415 37.8992 227.689 39.5279 228.061 41.1297C228.42 42.6599 228.783 44.1902 229.093 45.7294C229.259 46.5661 229.743 47.1209 230.434 47.5415C230.905 47.8323 231.233 48.1992 231.17 48.7853C231.107 49.376 230.645 49.6221 230.17 49.7563C228.667 50.1679 227.182 50.2082 225.917 49.1254C225.19 48.499 224.867 47.6041 224.639 46.6913C223.988 44.1052 223.522 41.4742 222.791 38.9104C222.472 37.8053 222.077 36.7225 220.938 36.1676C220.314 35.8634 219.655 35.6978 218.951 35.8186C218.448 35.9037 218.179 36.1721 218.184 36.7046C218.179 38.0961 218.17 39.4876 218.17 41.4787Z" fill="#2D2D2D"/>
<path d="M162.22 33.6709C162.22 30.7358 162.202 27.7961 162.234 24.8609C162.243 24.1361 162.054 23.5634 161.493 23.098C161.108 22.7714 160.83 22.3598 160.762 21.8407C160.713 21.4246 160.847 21.098 161.314 21.0846C162.974 21.0309 164.638 20.9459 166.298 21.1293C166.692 21.174 166.84 21.8407 166.594 22.3687C166.477 22.6148 166.289 22.8117 166.082 22.9772C165.589 23.3754 165.378 23.8766 165.36 24.5164C165.261 27.8364 165.432 31.1519 165.383 34.4719C165.342 37.0446 165.369 39.6218 165.284 42.1946C165.226 43.8904 164.979 45.5683 164.005 47.0359C162.722 48.9733 160.852 49.9039 158.582 50.065C157.075 50.1724 155.581 50.074 154.141 49.5102C151.966 48.6601 149.947 45.9486 149.898 43.5056C149.772 37.3668 149.849 31.2235 149.813 25.0846C149.808 24.1629 149.7 23.3575 148.718 22.9146C148.238 22.6998 148.144 22.1852 148.153 21.6886C148.157 21.2814 148.377 21.0353 148.79 21.0398C150.948 21.0756 153.11 20.9324 155.267 21.1069C155.572 21.1293 155.895 21.1606 156.007 21.5186C156.12 21.8765 156.034 22.1942 155.765 22.4582C155.644 22.579 155.527 22.7088 155.393 22.8117C154.684 23.3531 154.401 24.0869 154.401 24.9504C154.401 30.861 154.402 36.7762 154.419 42.6868C154.424 43.9128 154.778 45.0582 155.581 46.0068C156.429 47.009 157.775 47.3088 159.125 47.0269C161.081 46.6153 162.216 44.6734 162.216 42.7629C162.211 39.7292 162.216 36.6956 162.216 33.6665H162.22V33.6709Z" fill="#2D2D2D"/>
<path d="M201.192 32.2614C201.632 31.5142 201.892 30.682 202.215 29.8855C202.995 27.975 203.713 26.0421 204.467 24.1226C204.727 23.4604 204.646 23.1248 204.058 22.7042C203.664 22.4268 203.408 22.0688 203.538 21.5945C203.682 21.0845 204.144 21.0218 204.606 21.0352C205.924 21.0666 207.239 21.0979 208.558 21.1337C208.872 21.1426 209.181 21.2053 209.289 21.5587C209.437 22.0375 209.123 22.3462 208.791 22.5476C208.024 23.0129 207.62 23.7154 207.324 24.5163C206.925 25.5991 206.526 26.6864 206.108 27.7602C205.382 29.6305 204.637 31.4918 203.906 33.3621C203.152 35.2995 202.583 37.2548 202.681 39.3891C202.785 41.5592 202.708 43.7337 202.686 45.9082C202.677 46.6376 202.897 47.1879 203.587 47.5414C204.103 47.8054 204.413 48.9061 204.184 49.4161C204.103 49.5951 203.951 49.5862 203.803 49.6085C203.256 49.7025 202.708 49.7472 202.152 49.7294C200.551 49.6757 198.945 49.7965 197.339 49.6354C196.518 49.5504 196.231 49.0627 196.63 48.302C196.796 47.9799 197.002 47.6846 197.303 47.4608C197.891 47.0224 198.151 46.4675 198.128 45.7024C198.079 43.8545 198.057 42.0021 198.128 40.1542C198.196 38.3018 197.922 36.5613 197.209 34.8297C195.737 31.2592 194.405 27.626 192.768 24.1226C192.566 23.6885 192.306 23.2948 191.983 22.9413C191.844 22.7892 191.709 22.6236 191.593 22.4536C191.027 21.6124 191.252 21.1024 192.252 21.0666C193.297 21.0263 194.342 20.9592 195.397 21.1068C196.406 21.25 196.984 21.8093 197.334 22.7131C198.51 25.7468 199.694 28.7759 200.883 31.805C200.936 31.9661 200.954 32.1585 201.192 32.2614Z" fill="#2D2D2D"/>
<path d="M237.531 49.743C236.984 49.7161 236.127 49.6669 235.266 49.6266C234.934 49.6087 234.476 49.6937 234.377 49.3313C234.261 48.8973 234.373 48.4051 234.822 48.1232C235.418 47.7429 235.768 47.197 235.921 46.5259C235.974 46.2887 236.01 46.0382 236.01 45.7921C236.01 38.7181 236.001 31.6397 236.01 24.5657C236.01 23.9661 235.831 23.4963 235.423 23.0802C235.127 22.7804 234.889 22.4359 234.732 22.0422C234.516 21.5052 234.691 21.1697 235.275 21.1473C236.858 21.0847 238.441 20.9504 240.029 21.0533C240.352 21.0757 240.675 21.1115 240.998 21.1339C241.797 21.1831 242.003 21.5589 241.595 22.2569C241.451 22.4986 241.29 22.7491 241.079 22.9326C240.509 23.4292 240.357 24.0646 240.366 24.7805C240.393 27.6978 240.429 30.6151 240.429 33.5323C240.429 37.6532 240.397 41.7696 240.37 45.8905C240.366 46.6019 240.572 47.1881 241.137 47.649C241.608 48.0337 241.878 48.5259 241.999 49.1389C242.075 49.5371 241.958 49.5819 241.626 49.6266C240.366 49.8011 239.101 49.6982 237.531 49.743Z" fill="#2D2D2D"/>
<path d="M143.515 34.5792C143.488 30.8252 143.596 27.7334 143.385 24.6506C143.21 22.0465 142.017 20.0644 139.666 18.8473C138.491 18.2388 137.181 18.1359 135.894 18.0688C132.493 17.8943 129.093 17.9256 125.689 17.9032C125.384 17.9032 124.993 17.8406 124.859 18.2478C124.729 18.6415 124.859 19.0084 125.114 19.3082C125.375 19.6124 125.666 19.8899 125.967 20.1538C126.402 20.5342 126.559 20.9861 126.554 21.5633C126.545 29.456 126.496 37.3488 126.617 45.2461C126.635 46.3289 126.258 47.2148 125.339 47.8323C125.245 47.8949 125.155 47.971 125.074 48.0515C124.792 48.3334 124.473 48.5884 124.657 49.0717C124.841 49.5549 125.209 49.6354 125.662 49.6399C129.237 49.6712 132.812 49.707 136.383 49.5057C138.913 49.3625 140.859 48.1678 142.268 46.0828C143.282 44.5794 143.457 42.8568 143.492 41.1207C143.551 38.718 143.591 36.3152 143.515 34.5792ZM138.675 42.3691C138.652 43.5234 138.231 44.5883 137.508 45.5235C136.737 46.5168 135.647 46.7137 134.499 46.745C133.485 46.7718 132.471 46.745 131.462 46.7674C131.085 46.7763 131.058 46.5571 131.076 46.2976C131.731 38.6509 131.251 30.9863 131.421 23.3351C131.439 22.6282 131.448 21.9257 131.448 21.2187C131.448 20.9369 131.547 20.7847 131.843 20.7892C132.969 20.8026 134.099 20.7221 135.221 20.8474C137.136 21.0666 138.083 22.3105 138.558 24.0331C138.67 24.4358 138.697 24.8519 138.697 25.2725C138.688 28.0556 138.693 30.8386 138.693 33.6217C138.693 36.539 138.729 39.4518 138.675 42.3691Z" fill="#2D2D2D"/>
<path d="M188.753 47.5056C188.134 47.0985 187.641 46.5794 187.336 45.9038C187.089 45.3534 186.878 44.7807 186.64 44.2259C185.761 42.1588 185.169 39.9663 183.931 38.0513C183.465 37.3309 183.518 37.313 184.281 36.9282C185.842 36.1407 186.905 34.9774 187.241 33.1966C187.551 31.55 187.452 29.8945 187.443 28.2435C187.439 27.022 187.3 25.8184 186.793 24.6864C185.99 22.8966 184.676 21.7556 182.684 21.4782C180.562 21.1785 178.427 21.1292 176.848 21.1337C174.74 21.1292 173.192 21.1516 171.645 21.0308C171.106 20.9905 170.981 21.2366 171.035 21.7109C171.093 22.2031 171.367 22.5879 171.716 22.8608C172.371 23.3664 172.483 24.0197 172.483 24.7714C172.492 31.7469 172.51 38.7269 172.533 45.7024C172.533 46.1499 172.43 46.5571 172.219 46.9553C171.981 47.3982 171.681 47.783 171.295 48.1007C170.891 48.4318 170.788 48.8703 170.949 49.3312C171.093 49.7518 171.519 49.6175 171.842 49.6444C172.183 49.6712 172.528 49.6802 172.874 49.6846C174.574 49.716 176.274 49.8278 177.97 49.6265C178.665 49.5415 178.795 49.3133 178.476 48.6913C178.225 48.1991 177.907 47.7472 177.44 47.4206C177.059 47.1521 176.884 46.7808 176.884 46.302C176.897 43.7651 176.906 41.2326 176.888 38.6956C176.884 38.2795 177.041 38.1676 177.418 38.1587C179.042 38.1229 179.54 38.4764 180.159 39.7918C181.002 41.5771 181.558 43.4697 182.276 45.3042C182.715 46.4318 183.061 47.5996 183.671 48.6555C183.971 49.1746 184.366 49.6533 185.008 49.707C186.246 49.8099 187.488 49.7562 188.722 49.5862C188.825 49.5728 188.946 49.5057 189.018 49.4296C189.345 49.0582 189.184 47.792 188.753 47.5056ZM182.733 32.7581C182.684 34.5613 181.495 35.2727 179.773 35.5277C179.046 35.6351 178.288 35.5367 177.543 35.4875C176.969 35.4517 176.862 35.1832 176.871 34.6866C176.893 33.0087 176.879 31.3353 176.879 29.6574H176.893C176.893 27.9616 176.888 26.2658 176.897 24.57C176.902 23.8407 176.992 23.7736 177.732 23.7602C178.593 23.7467 179.445 23.7781 180.302 23.8765C181.733 24.0376 182.518 24.8206 182.639 26.2524C182.828 28.4225 182.792 30.588 182.733 32.7581Z" fill="#2D2D2D"/>
<path d="M285.537 26.3776C284.927 23.8496 283.527 22.0644 280.975 21.2277C278.866 20.5386 276.772 20.5028 274.623 21.0039C271.528 21.7288 269.581 24.1002 269.366 27.1651C269.191 29.6574 269.231 32.1585 269.249 35.5277C269.307 37.5636 269.146 40.4808 269.348 43.3981C269.532 46.0962 270.873 47.9754 273.246 49.1924C275.202 50.1902 277.274 50.3021 279.378 49.9352C281.957 49.4877 284.016 48.2394 285.119 45.7561C285.613 44.6465 285.73 43.4339 285.747 42.2437C285.81 38.2213 285.837 34.1988 285.833 30.1809C285.828 28.9101 285.842 27.6305 285.537 26.3776ZM281.293 34.87C281.293 37.8454 281.311 40.19 281.289 42.5346C281.275 43.7292 281.006 44.8612 280.302 45.8635C279.804 46.5704 279.149 46.9955 278.292 47.1253C275.749 47.5101 274.085 46.1856 273.829 43.6397C273.721 42.5525 273.748 41.4697 273.744 40.3869C273.735 36.4987 273.739 32.6104 273.744 28.7222C273.744 27.9616 273.833 27.2054 273.941 26.4537C274.327 23.778 276.816 23.2501 278.579 23.7065C280.01 24.0778 281.055 25.5275 281.194 27.1607C281.419 29.9392 281.203 32.7223 281.293 34.87Z" fill="#2D2D2D"/>
<path d="M130.9 60.3083V61.57C130.9 61.7356 130.883 61.8698 130.851 61.9727C130.82 62.0712 130.757 62.1651 130.667 62.2457C130.578 62.3262 130.465 62.4023 130.326 62.4783C129.927 62.6931 129.546 62.8497 129.173 62.9481C128.806 63.0466 128.402 63.0958 127.967 63.0958C127.46 63.0958 126.998 63.0197 126.581 62.8631C126.164 62.7065 125.809 62.4828 125.518 62.1875C125.226 61.8922 124.997 61.5342 124.84 61.1092C124.683 60.6886 124.603 60.2188 124.603 59.6953C124.603 59.1852 124.679 58.7154 124.831 58.2903C124.984 57.8653 125.208 57.5073 125.504 57.2075C125.8 56.9122 126.164 56.684 126.59 56.5274C127.016 56.3708 127.496 56.2903 128.039 56.2903C128.483 56.2903 128.873 56.3485 129.218 56.4693C129.559 56.5856 129.837 56.7377 130.048 56.9167C130.259 57.0957 130.42 57.2881 130.528 57.4849C130.636 57.6863 130.69 57.8653 130.69 58.0174C130.69 58.1829 130.627 58.3261 130.501 58.4469C130.376 58.5633 130.228 58.6259 130.053 58.6259C129.958 58.6259 129.864 58.6035 129.775 58.5588C129.685 58.514 129.613 58.4514 129.55 58.3709C129.384 58.1114 129.245 57.919 129.133 57.7892C129.021 57.6594 128.864 57.5476 128.671 57.4581C128.478 57.3686 128.231 57.3239 127.931 57.3239C127.621 57.3239 127.348 57.3776 127.106 57.4849C126.863 57.5923 126.657 57.7445 126.482 57.9458C126.312 58.1472 126.177 58.3932 126.087 58.6885C125.998 58.9794 125.948 59.306 125.948 59.6595C125.948 60.4291 126.128 61.0242 126.482 61.4403C126.836 61.8564 127.334 62.0622 127.967 62.0622C128.276 62.0622 128.563 62.022 128.837 61.9414C129.106 61.8609 129.384 61.7445 129.662 61.5969V60.5275H128.626C128.38 60.5275 128.191 60.4917 128.061 60.4157C127.935 60.3396 127.868 60.2143 127.868 60.0353C127.868 59.8877 127.922 59.7669 128.03 59.6729C128.137 59.5789 128.281 59.5297 128.465 59.5297H129.981C130.165 59.5297 130.326 59.5476 130.452 59.5789C130.582 59.6103 130.685 59.6863 130.766 59.7982C130.86 59.9101 130.9 60.0801 130.9 60.3083Z" fill="#2D2D2D"/>
<path d="M133.484 57.1046V61.8876H136.189C136.404 61.8876 136.57 61.9413 136.687 62.0442C136.804 62.1472 136.862 62.2814 136.862 62.438C136.862 62.5991 136.804 62.7288 136.691 62.8317C136.579 62.9302 136.409 62.9839 136.194 62.9839H132.968C132.677 62.9839 132.47 62.9212 132.34 62.7915C132.215 62.6617 132.147 62.4559 132.147 62.1695V57.109C132.147 56.8406 132.21 56.6392 132.331 56.505C132.452 56.3708 132.614 56.3036 132.811 56.3036C133.013 56.3036 133.175 56.3708 133.3 56.505C133.421 56.6303 133.484 56.8316 133.484 57.1046Z" fill="#2D2D2D"/>
<path d="M141.832 62.2366L141.518 61.4133H138.84L138.526 62.2545C138.405 62.5811 138.297 62.8048 138.212 62.9212C138.127 63.0375 137.983 63.0957 137.786 63.0957C137.62 63.0957 137.472 63.033 137.342 62.9122C137.212 62.7914 137.149 62.6527 137.149 62.4961C137.149 62.4066 137.162 62.3126 137.194 62.2187C137.225 62.1247 137.275 61.9905 137.342 61.8205L139.028 57.5519C139.078 57.4311 139.136 57.2835 139.203 57.109C139.271 56.9389 139.342 56.7958 139.419 56.6794C139.495 56.5676 139.594 56.4736 139.719 56.402C139.845 56.3304 139.997 56.2946 140.181 56.2946C140.365 56.2946 140.522 56.3304 140.648 56.402C140.773 56.4736 140.872 56.5631 140.948 56.675C141.025 56.7868 141.087 56.9031 141.141 57.0329C141.195 57.1582 141.262 57.3282 141.343 57.543L143.066 61.7847C143.2 62.1068 143.267 62.344 143.267 62.4872C143.267 62.6393 143.205 62.778 143.075 62.9077C142.949 63.033 142.792 63.1001 142.613 63.1001C142.509 63.1001 142.42 63.0822 142.343 63.0464C142.267 63.0107 142.204 62.957 142.155 62.8943C142.106 62.8317 142.047 62.7332 141.989 62.599C141.922 62.4558 141.872 62.3395 141.832 62.2366ZM139.185 60.411H141.155L140.163 57.6996L139.185 60.411Z" fill="#2D2D2D"/>
<path d="M146.461 61.9905L145.407 57.8025V62.3395C145.407 62.59 145.349 62.778 145.237 62.9032C145.125 63.0285 144.977 63.0912 144.788 63.0912C144.609 63.0912 144.461 63.0285 144.349 62.9032C144.237 62.778 144.178 62.59 144.178 62.335V57.1313C144.178 56.845 144.254 56.6526 144.403 56.5497C144.551 56.4512 144.752 56.3975 145.008 56.3975H145.421C145.667 56.3975 145.851 56.4199 145.964 56.4646C146.076 56.5094 146.161 56.5899 146.215 56.7063C146.269 56.8226 146.331 57.0105 146.399 57.2745L147.359 60.8764L148.314 57.2745C148.381 57.0105 148.444 56.8226 148.498 56.7063C148.552 56.5899 148.637 56.5094 148.749 56.4646C148.861 56.4199 149.041 56.3975 149.292 56.3975H149.705C149.96 56.3975 150.162 56.4467 150.31 56.5497C150.458 56.6481 150.534 56.845 150.534 57.1313V62.335C150.534 62.5856 150.476 62.7735 150.364 62.8988C150.252 63.0241 150.099 63.0867 149.911 63.0867C149.736 63.0867 149.588 63.0241 149.476 62.8988C149.364 62.7735 149.305 62.5856 149.305 62.335V57.798L148.251 61.986C148.184 62.2589 148.126 62.4558 148.081 62.5856C148.036 62.7108 147.955 62.8272 147.839 62.9346C147.722 63.0375 147.56 63.0912 147.354 63.0912C147.197 63.0912 147.067 63.0599 146.959 62.9927C146.852 62.9256 146.766 62.8406 146.708 62.7332C146.65 62.6303 146.601 62.514 146.565 62.3842C146.533 62.2589 146.497 62.1292 146.461 61.9905Z" fill="#2D2D2D"/>
<path d="M154.464 60.4202H153.239V62.2815C153.239 62.55 153.177 62.7513 153.051 62.8856C152.925 63.0243 152.768 63.0914 152.576 63.0914C152.374 63.0914 152.212 63.0243 152.091 62.8856C151.97 62.7513 151.907 62.55 151.907 62.286V57.2255C151.907 56.9347 151.975 56.7244 152.109 56.5991C152.244 56.4738 152.459 56.4112 152.751 56.4112H154.464C154.971 56.4112 155.361 56.4515 155.635 56.5275C155.904 56.6036 156.137 56.7289 156.335 56.8989C156.532 57.0734 156.68 57.2837 156.783 57.5342C156.886 57.7848 156.936 58.0667 156.936 58.3799C156.936 59.0511 156.729 59.5567 156.317 59.9012C155.895 60.2502 155.28 60.4202 154.464 60.4202ZM154.141 57.409H153.244V59.418H154.141C154.455 59.418 154.72 59.3866 154.931 59.3195C155.141 59.2524 155.303 59.145 155.415 58.9974C155.527 58.8497 155.581 58.6528 155.581 58.4112C155.581 58.1204 155.496 57.8832 155.325 57.7043C155.128 57.5074 154.733 57.409 154.141 57.409Z" fill="#2D2D2D"/>
<path d="M158.097 62.2813V57.1C158.097 56.8316 158.16 56.6302 158.281 56.496C158.402 56.3618 158.564 56.2946 158.757 56.2946C158.958 56.2946 159.12 56.3618 159.246 56.496C159.371 56.6302 159.434 56.8316 159.434 57.1045V62.2858C159.434 62.5587 159.371 62.7601 159.246 62.8943C159.12 63.0286 158.958 63.0957 158.757 63.0957C158.564 63.0957 158.407 63.0285 158.281 62.8898C158.155 62.7511 158.097 62.5498 158.097 62.2813Z" fill="#2D2D2D"/>
<path d="M162.668 57.0956L165.234 60.9704V57.0598C165.234 56.8048 165.288 56.6169 165.4 56.4871C165.508 56.3618 165.656 56.2947 165.844 56.2947C166.037 56.2947 166.185 56.3573 166.297 56.4871C166.409 56.6124 166.463 56.8048 166.463 57.0598V62.2322C166.463 62.8094 166.225 63.0957 165.745 63.0957C165.624 63.0957 165.517 63.0778 165.422 63.0421C165.328 63.0063 165.238 62.9526 165.153 62.8765C165.068 62.8004 164.992 62.7154 164.92 62.6125C164.848 62.5096 164.776 62.4112 164.705 62.3038L162.202 58.4737V62.3262C162.202 62.5767 162.143 62.7691 162.027 62.8944C161.91 63.0242 161.762 63.0868 161.578 63.0868C161.39 63.0868 161.237 63.0242 161.125 62.8899C161.013 62.7602 160.955 62.5722 160.955 62.3217V57.2477C160.955 57.033 160.977 56.863 161.026 56.7421C161.085 56.6079 161.179 56.4961 161.309 56.411C161.439 56.326 161.583 56.2813 161.735 56.2813C161.856 56.2813 161.959 56.2992 162.045 56.3395C162.13 56.3797 162.206 56.4289 162.269 56.4961C162.332 56.5632 162.399 56.6482 162.466 56.7511C162.525 56.8719 162.596 56.9793 162.668 57.0956Z" fill="#2D2D2D"/>
<path d="M173.941 60.3083V61.57C173.941 61.7356 173.923 61.8698 173.892 61.9727C173.86 62.0712 173.797 62.1651 173.708 62.2457C173.618 62.3262 173.506 62.4023 173.367 62.4783C172.968 62.6931 172.586 62.8497 172.214 62.9481C171.846 63.0466 171.442 63.0958 171.007 63.0958C170.5 63.0958 170.038 63.0197 169.621 62.8631C169.204 62.7065 168.85 62.4828 168.558 62.1875C168.267 61.8922 168.038 61.5342 167.881 61.1092C167.724 60.6886 167.643 60.2188 167.643 59.6953C167.643 59.1852 167.719 58.7154 167.872 58.2903C168.024 57.8653 168.249 57.5073 168.545 57.2075C168.841 56.9122 169.204 56.684 169.63 56.5274C170.056 56.3708 170.536 56.2903 171.079 56.2903C171.523 56.2903 171.913 56.3485 172.259 56.4693C172.6 56.5856 172.878 56.7377 173.089 56.9167C173.3 57.0957 173.461 57.2881 173.569 57.4849C173.676 57.6863 173.73 57.8653 173.73 58.0174C173.73 58.1829 173.667 58.3261 173.542 58.4469C173.416 58.5633 173.268 58.6259 173.093 58.6259C172.999 58.6259 172.905 58.6035 172.815 58.5588C172.725 58.514 172.654 58.4514 172.591 58.3709C172.425 58.1114 172.286 57.919 172.174 57.7892C172.061 57.6594 171.904 57.5476 171.712 57.4581C171.519 57.3686 171.272 57.3239 170.971 57.3239C170.662 57.3239 170.388 57.3776 170.146 57.4849C169.904 57.5923 169.698 57.7445 169.523 57.9458C169.352 58.1472 169.218 58.3932 169.128 58.6885C169.038 58.9839 168.989 59.306 168.989 59.6595C168.989 60.4291 169.168 61.0242 169.523 61.4403C169.877 61.8564 170.375 62.0622 171.007 62.0622C171.317 62.0622 171.604 62.022 171.878 61.9414C172.147 61.8609 172.425 61.7445 172.703 61.5969V60.5275H171.667C171.42 60.5275 171.232 60.4917 171.102 60.4157C170.976 60.3396 170.909 60.2143 170.909 60.0353C170.909 59.8877 170.962 59.7669 171.07 59.6729C171.178 59.5789 171.321 59.5297 171.505 59.5297H173.021C173.205 59.5297 173.367 59.5476 173.492 59.5789C173.623 59.6103 173.726 59.6863 173.806 59.7982C173.901 59.9101 173.941 60.0801 173.941 60.3083Z" fill="#2D2D2D"/>
<path d="M178.22 57.8025C178.22 57.5251 178.292 57.27 178.44 57.0419C178.588 56.8137 178.799 56.6302 179.081 56.496C179.364 56.3618 179.696 56.2946 180.073 56.2946C180.45 56.2946 180.777 56.3662 181.055 56.5049C181.329 56.6436 181.535 56.8316 181.674 57.0553C181.813 57.279 181.881 57.5206 181.881 57.7622C181.881 58.0978 181.768 58.3886 181.549 58.6392C181.329 58.8898 181.001 59.1403 180.566 59.3954C180.714 59.5699 180.858 59.7354 180.983 59.892C181.114 60.0486 181.235 60.1918 181.356 60.326C181.477 60.4603 181.585 60.5766 181.683 60.6706C181.728 60.5855 181.8 60.4289 181.894 60.2008C181.988 59.9726 182.078 59.8025 182.159 59.7041C182.239 59.6012 182.356 59.552 182.509 59.552C182.648 59.552 182.773 59.6012 182.881 59.7041C182.989 59.8025 183.042 59.9278 183.042 60.071C183.042 60.2008 182.998 60.3887 182.903 60.6303C182.809 60.8719 182.675 61.1359 182.5 61.4312C182.612 61.5252 182.787 61.6728 183.029 61.8652C183.271 62.0576 183.419 62.1918 183.473 62.2634C183.527 62.335 183.558 62.429 183.558 62.5453C183.558 62.7019 183.5 62.8317 183.388 62.9391C183.276 63.0464 183.15 63.1001 183.011 63.1001C182.872 63.1001 182.733 63.0554 182.603 62.9659C182.473 62.8764 182.19 62.6572 181.764 62.3082C181.571 62.4916 181.369 62.6393 181.158 62.7556C180.952 62.8719 180.728 62.957 180.49 63.0151C180.252 63.0733 179.988 63.1001 179.692 63.1001C179.319 63.1001 178.983 63.0464 178.682 62.9346C178.386 62.8272 178.135 62.6795 177.938 62.4916C177.74 62.3082 177.592 62.1024 177.498 61.8742C177.404 61.6504 177.354 61.4178 177.354 61.1851C177.354 60.9614 177.39 60.7556 177.462 60.5677C177.534 60.3797 177.637 60.2097 177.767 60.062C177.897 59.9099 178.059 59.7667 178.247 59.6325C178.436 59.4983 178.66 59.364 178.911 59.2343C178.687 58.9524 178.516 58.7018 178.4 58.4826C178.279 58.2634 178.22 58.0352 178.22 57.8025ZM179.494 59.9502C179.189 60.1247 178.96 60.3037 178.808 60.4782C178.655 60.6527 178.579 60.863 178.579 61.1046C178.579 61.2433 178.606 61.373 178.664 61.4983C178.718 61.6236 178.799 61.7399 178.907 61.8473C179.014 61.9547 179.135 62.0352 179.279 62.0934C179.418 62.1516 179.57 62.1784 179.723 62.1784C179.875 62.1784 180.023 62.156 180.167 62.1068C180.311 62.0576 180.445 61.9905 180.575 61.901C180.705 61.8115 180.835 61.7041 180.974 61.5699C180.71 61.3238 180.468 61.0822 180.257 60.8406C180.046 60.6079 179.79 60.3081 179.494 59.9502ZM179.952 58.7197C180.257 58.5273 180.477 58.3618 180.616 58.2276C180.75 58.0933 180.822 57.9323 180.822 57.7443C180.822 57.5609 180.755 57.4043 180.616 57.279C180.481 57.1537 180.306 57.0911 180.1 57.0911C179.893 57.0911 179.718 57.1537 179.579 57.2835C179.44 57.4132 179.369 57.5654 179.369 57.7354C179.369 57.8249 179.395 57.9233 179.449 58.0262C179.503 58.1291 179.566 58.232 179.647 58.3349C179.723 58.4379 179.826 58.5676 179.952 58.7197Z" fill="#2D2D2D"/>
<path d="M190.749 57.4357H188.12V59.118H190.318C190.52 59.118 190.672 59.1628 190.775 59.2568C190.874 59.3462 190.928 59.4715 190.928 59.6237C190.928 59.7758 190.879 59.8966 190.775 59.9861C190.672 60.0756 190.52 60.1203 190.322 60.1203H188.124V62.2859C188.124 62.5588 188.062 62.7647 187.936 62.8989C187.81 63.0331 187.653 63.1002 187.456 63.1002C187.259 63.1002 187.097 63.0331 186.972 62.8989C186.846 62.7647 186.783 62.5633 186.783 62.2904V57.2343C186.783 57.0419 186.81 56.8853 186.868 56.7645C186.927 56.6437 187.016 56.5542 187.138 56.5005C187.259 56.4468 187.416 56.4155 187.604 56.4155H190.753C190.964 56.4155 191.125 56.4603 191.229 56.5587C191.332 56.6527 191.386 56.778 191.386 56.9301C191.386 57.0867 191.332 57.212 191.229 57.3059C191.121 57.3865 190.964 57.4357 190.749 57.4357Z" fill="#2D2D2D"/>
<path d="M192.426 62.2813V57.1C192.426 56.8316 192.489 56.6302 192.61 56.496C192.731 56.3618 192.893 56.2946 193.086 56.2946C193.288 56.2946 193.449 56.3618 193.575 56.496C193.7 56.6302 193.763 56.8316 193.763 57.1045V62.2858C193.763 62.5587 193.7 62.7601 193.575 62.8943C193.449 63.0286 193.288 63.0957 193.086 63.0957C192.893 63.0957 192.736 63.0285 192.61 62.8898C192.489 62.7556 192.426 62.5498 192.426 62.2813Z" fill="#2D2D2D"/>
<path d="M196.598 57.1045V58.9882H199.478V57.1045C199.478 56.836 199.541 56.6347 199.662 56.5005C199.783 56.3662 199.945 56.2991 200.142 56.2991C200.344 56.2991 200.505 56.3662 200.631 56.5005C200.756 56.6347 200.819 56.836 200.819 57.109V62.2903C200.819 62.5632 200.756 62.7646 200.631 62.8988C200.505 63.033 200.344 63.1001 200.146 63.1001C199.945 63.1001 199.783 63.033 199.666 62.8943C199.545 62.7601 199.487 62.5543 199.487 62.2858V60.0755H196.607V62.2858C196.607 62.5587 196.544 62.7601 196.419 62.8943C196.293 63.0286 196.132 63.0957 195.934 63.0957C195.732 63.0957 195.571 63.0285 195.454 62.8898C195.333 62.7556 195.275 62.5498 195.275 62.2813V57.1C195.275 56.8316 195.333 56.6302 195.454 56.496C195.571 56.3618 195.732 56.2946 195.939 56.2946C196.141 56.2946 196.302 56.3618 196.428 56.496C196.535 56.6302 196.598 56.8316 196.598 57.1045Z" fill="#2D2D2D"/>
<path d="M202.304 62.2813V57.1C202.304 56.8316 202.366 56.6302 202.488 56.496C202.609 56.3618 202.77 56.2946 202.963 56.2946C203.165 56.2946 203.326 56.3618 203.452 56.496C203.578 56.6302 203.64 56.8316 203.64 57.1045V62.2858C203.64 62.5587 203.578 62.7601 203.452 62.8943C203.326 63.0286 203.165 63.0957 202.963 63.0957C202.77 63.0957 202.613 63.0285 202.488 62.8898C202.366 62.7556 202.304 62.5498 202.304 62.2813Z" fill="#2D2D2D"/>
<path d="M206.87 57.0956L209.436 60.9704V57.0598C209.436 56.8048 209.49 56.6169 209.602 56.4871C209.71 56.3618 209.858 56.2947 210.046 56.2947C210.239 56.2947 210.387 56.3573 210.499 56.4871C210.611 56.6124 210.665 56.8048 210.665 57.0598V62.2322C210.665 62.8094 210.427 63.0957 209.947 63.0957C209.826 63.0957 209.719 63.0778 209.624 63.0421C209.53 63.0063 209.441 62.9526 209.355 62.8765C209.27 62.8004 209.194 62.7154 209.122 62.6125C209.05 62.5141 208.979 62.4112 208.907 62.3038L206.404 58.4737V62.3262C206.404 62.5767 206.345 62.7691 206.229 62.8944C206.112 63.0242 205.964 63.0868 205.78 63.0868C205.592 63.0868 205.439 63.0242 205.327 62.8899C205.215 62.7602 205.157 62.5722 205.157 62.3217V57.2477C205.157 57.033 205.179 56.863 205.229 56.7421C205.287 56.6079 205.381 56.4961 205.511 56.411C205.641 56.326 205.785 56.2813 205.937 56.2813C206.058 56.2813 206.162 56.2992 206.247 56.3395C206.332 56.3797 206.408 56.4289 206.471 56.4961C206.534 56.5632 206.601 56.6482 206.668 56.7511C206.731 56.8719 206.799 56.9793 206.87 57.0956Z" fill="#2D2D2D"/>
<path d="M218.148 60.3083V61.57C218.148 61.7356 218.13 61.8698 218.098 61.9727C218.067 62.0712 218.004 62.1651 217.914 62.2457C217.825 62.3262 217.712 62.4023 217.573 62.4783C217.174 62.6931 216.793 62.8497 216.421 62.9481C216.053 63.0466 215.649 63.0958 215.214 63.0958C214.707 63.0958 214.245 63.0197 213.828 62.8631C213.411 62.7065 213.056 62.4828 212.765 62.1875C212.473 61.8922 212.244 61.5342 212.087 61.1092C211.93 60.6886 211.85 60.2188 211.85 59.6953C211.85 59.1852 211.926 58.7154 212.078 58.2903C212.231 57.8653 212.455 57.5073 212.751 57.2075C213.047 56.9122 213.411 56.684 213.837 56.5274C214.263 56.3708 214.743 56.2903 215.286 56.2903C215.73 56.2903 216.12 56.3485 216.465 56.4693C216.806 56.5856 217.084 56.7377 217.295 56.9167C217.506 57.0957 217.668 57.2881 217.775 57.4849C217.883 57.6863 217.937 57.8653 217.937 58.0174C217.937 58.1829 217.874 58.3261 217.748 58.4469C217.623 58.5633 217.475 58.6259 217.3 58.6259C217.206 58.6259 217.111 58.6035 217.022 58.5588C216.932 58.514 216.86 58.4514 216.797 58.3709C216.631 58.1114 216.492 57.919 216.38 57.7892C216.268 57.6594 216.111 57.5476 215.918 57.4581C215.725 57.3686 215.479 57.3239 215.178 57.3239C214.868 57.3239 214.595 57.3776 214.353 57.4849C214.11 57.5923 213.904 57.7445 213.729 57.9458C213.559 58.1472 213.424 58.3932 213.334 58.6885C213.245 58.9839 213.195 59.306 213.195 59.6595C213.195 60.4291 213.375 61.0242 213.729 61.4403C214.083 61.8564 214.581 62.0622 215.214 62.0622C215.523 62.0622 215.81 62.022 216.084 61.9414C216.353 61.8609 216.631 61.7445 216.909 61.5969V60.5275H215.873C215.627 60.5275 215.438 60.4917 215.308 60.4157C215.182 60.3396 215.115 60.2143 215.115 60.0353C215.115 59.8877 215.169 59.7669 215.277 59.6729C215.384 59.5789 215.528 59.5297 215.712 59.5297H217.228C217.412 59.5297 217.573 59.5476 217.699 59.5789C217.829 59.6103 217.932 59.6863 218.013 59.7982C218.107 59.9101 218.148 60.0801 218.148 60.3083Z" fill="#2D2D2D"/>
<path d="M227.334 60.9077C227.334 61.118 227.281 61.3417 227.177 61.5878C227.074 61.8294 226.913 62.071 226.688 62.3037C226.469 62.5364 226.182 62.7288 225.841 62.8764C225.495 63.0241 225.096 63.0957 224.634 63.0957C224.284 63.0957 223.97 63.0643 223.687 62.9972C223.4 62.9301 223.145 62.8272 222.911 62.6885C222.678 62.5498 222.467 62.3663 222.27 62.1382C222.095 61.9323 221.947 61.6997 221.826 61.4446C221.705 61.1896 221.611 60.9167 221.548 60.6258C221.485 60.335 221.454 60.0263 221.454 59.7041C221.454 59.1761 221.53 58.7018 221.687 58.2813C221.839 57.8651 222.064 57.5072 222.351 57.2074C222.638 56.9121 222.974 56.6839 223.365 56.5273C223.75 56.3707 224.163 56.2946 224.603 56.2946C225.136 56.2946 225.612 56.402 226.029 56.6123C226.446 56.8226 226.765 57.0866 226.984 57.3998C227.204 57.713 227.316 58.0083 227.316 58.2857C227.316 58.4379 227.263 58.5721 227.155 58.6884C227.047 58.8048 226.917 58.8629 226.765 58.8629C226.594 58.8629 226.464 58.8227 226.379 58.7421C226.294 58.6616 226.2 58.5229 226.092 58.326C225.917 57.9994 225.715 57.7578 225.477 57.5967C225.244 57.4356 224.952 57.3551 224.607 57.3551C224.06 57.3551 223.62 57.5609 223.297 57.977C222.97 58.3931 222.808 58.9837 222.808 59.7488C222.808 60.2589 222.88 60.684 223.024 61.024C223.167 61.3641 223.374 61.6146 223.634 61.7847C223.898 61.9502 224.208 62.0352 224.558 62.0352C224.943 62.0352 225.266 61.9413 225.531 61.7489C225.796 61.561 225.998 61.2791 226.132 60.9122C226.191 60.7377 226.258 60.599 226.343 60.4871C226.428 60.3797 226.563 60.3216 226.747 60.3216C226.904 60.3216 227.043 60.3753 227.155 60.4871C227.276 60.6034 227.334 60.7422 227.334 60.9077Z" fill="#2D2D2D"/>
<path d="M229.842 57.1046V61.8876H232.547C232.762 61.8876 232.928 61.9413 233.044 62.0442C233.161 62.1472 233.219 62.2814 233.219 62.438C233.219 62.5991 233.161 62.7288 233.049 62.8317C232.937 62.9302 232.766 62.9839 232.551 62.9839H229.326C229.034 62.9839 228.828 62.9212 228.698 62.7915C228.572 62.6617 228.505 62.4559 228.505 62.1695V57.109C228.505 56.8406 228.568 56.6392 228.689 56.505C228.81 56.3708 228.971 56.3036 229.169 56.3036C229.371 56.3036 229.532 56.3708 229.658 56.505C229.779 56.6303 229.842 56.8316 229.842 57.1046Z" fill="#2D2D2D"/>
<path d="M233.646 60.2635V57.1001C233.646 56.8317 233.708 56.6303 233.829 56.4961C233.951 56.3619 234.112 56.2948 234.309 56.2948C234.516 56.2948 234.682 56.3619 234.803 56.4961C234.924 56.6303 234.987 56.8317 234.987 57.1001V60.3351C234.987 60.702 235.027 61.0107 235.112 61.2568C235.193 61.5029 235.341 61.6953 235.552 61.8296C235.763 61.9638 236.054 62.0354 236.431 62.0354C236.951 62.0354 237.319 61.8967 237.539 61.6193C237.754 61.3418 237.862 60.9257 237.862 60.362V57.1001C237.862 56.8272 237.92 56.6259 238.041 56.4916C238.163 56.3574 238.32 56.2903 238.521 56.2903C238.723 56.2903 238.885 56.3574 239.01 56.4916C239.136 56.6259 239.199 56.8272 239.199 57.1001V60.2635C239.199 60.7781 239.149 61.2076 239.046 61.5521C238.948 61.8967 238.755 62.1964 238.477 62.456C238.239 62.6797 237.956 62.8408 237.642 62.9392C237.324 63.0421 236.951 63.0913 236.525 63.0913C236.018 63.0913 235.583 63.0376 235.216 62.9258C234.848 62.8184 234.552 62.6484 234.323 62.4202C234.094 62.192 233.924 61.8967 233.816 61.5432C233.699 61.1852 233.646 60.7602 233.646 60.2635Z" fill="#2D2D2D"/>
<path d="M243.447 62.9838H241.433C241.141 62.9838 240.935 62.9167 240.809 62.787C240.684 62.6572 240.621 62.4514 240.621 62.165V57.2253C240.621 56.9345 240.684 56.7287 240.814 56.5989C240.94 56.4736 241.146 56.4065 241.433 56.4065H243.568C243.882 56.4065 244.156 56.4244 244.385 56.4647C244.613 56.505 244.824 56.5765 245.004 56.6884C245.161 56.7824 245.295 56.8987 245.416 57.0419C245.537 57.1851 245.627 57.3417 245.69 57.5117C245.753 57.6817 245.784 57.8652 245.784 58.0576C245.784 58.7153 245.457 59.1985 244.797 59.5028C245.663 59.7757 246.098 60.3126 246.098 61.1091C246.098 61.476 246.004 61.8071 245.816 62.1024C245.627 62.3977 245.371 62.6125 245.053 62.7557C244.851 62.8407 244.622 62.8988 244.362 62.9346C244.098 62.9659 243.792 62.9838 243.447 62.9838ZM241.958 57.4088V59.109H243.182C243.514 59.109 243.77 59.0777 243.954 59.0151C244.133 58.9524 244.272 58.8316 244.371 58.6571C244.447 58.5318 244.483 58.3931 244.483 58.2365C244.483 57.9054 244.367 57.6862 244.129 57.5743C243.891 57.4625 243.532 57.4088 243.043 57.4088H241.958ZM243.348 60.0621H241.958V61.9816H243.393C244.295 61.9816 244.748 61.6594 244.748 61.0106C244.748 60.6795 244.631 60.4379 244.398 60.2903C244.16 60.1381 243.81 60.0621 243.348 60.0621Z" fill="#2D2D2D"/>
</svg>
