<svg width="206" height="184" viewBox="0 0 206 184" fill="none" xmlns="http://www.w3.org/2000/svg">
<path d="M75.2356 10.5547C66.0679 10.6758 58.0331 13.7618 55.5022 20.3633L55.052 21.5381L53.8518 21.1602C43.9188 18.035 32.111 19.8318 24.0139 24.3857C19.9704 26.6599 16.9789 29.55 15.5471 32.7129C14.1464 35.8073 14.176 39.2869 16.3977 43.0176L17.6028 45.04H15.2493C9.17469 45.04 5.6041 46.6683 3.63208 48.7803C1.6635 50.8887 1.0717 53.7114 1.44165 56.5703C1.81377 59.4458 3.14632 62.2037 4.802 63.9854C6.5065 65.8195 8.15908 66.2751 9.39575 65.6904L10.886 67.8721C4.73258 73.6906 2.7624 82.0162 4.60083 88.4775C5.51541 91.6917 7.36035 94.4157 10.0706 96.1885C12.7749 97.9573 16.4522 98.8517 21.1633 98.2109L22.6809 98.0049V99.5361C22.6809 105.764 25.8715 113.244 31.3137 117.539C34.0083 119.665 37.2338 120.997 40.9016 121.048C44.573 121.098 48.8037 119.866 53.5002 116.667L54.5432 115.957L55.3127 116.957C61.231 124.643 71.3594 127.149 80.4407 126.336C84.962 125.931 89.1173 124.708 92.2268 122.981C95.3786 121.231 97.2307 119.099 97.6311 116.979L97.9934 115.058L99.6526 116.092C108.497 121.604 117.028 124.787 124.977 124.05C132.839 123.32 140.435 118.72 147.39 107.975L147.998 107.034L149.031 107.468C155.474 110.17 163.77 112.29 170.026 110.791C173.086 110.057 175.606 108.473 177.252 105.678C178.92 102.845 179.789 98.6049 179.168 92.3887L179.008 90.7881L180.612 90.9229C186.182 91.3909 189.894 90.5951 192.215 89.2002C194.471 87.8441 195.537 85.8498 195.717 83.5098C195.901 81.11 195.148 78.2979 193.607 75.5059C192.073 72.7267 189.806 70.0566 187.103 67.957L185.57 66.7656L187.229 65.7568C192.573 62.5082 195.259 57.2591 193.798 52.1436C192.315 46.9528 186.391 41.2195 172.944 37.5361L172.079 37.2998L171.969 36.4102C170.776 26.7862 167.181 22.5478 163.265 21.3799C159.237 20.1788 154.122 21.9725 149.394 26.1064L148.051 27.2803L147.3 25.6631C146 22.8623 142.88 20.005 138.586 17.5225C134.333 15.0632 129.099 13.0719 123.824 11.9131C118.54 10.752 113.305 10.4465 109.031 11.2764C104.756 12.1063 101.632 14.0221 100.155 17.1455L99.3499 18.8447L98.0081 17.5283C95.8742 15.4345 92.4873 13.649 88.4172 12.4043C84.3669 11.1657 79.7444 10.4951 75.2356 10.5547Z" fill="white" stroke="#97A483" stroke-width="2.67532"/>
<path d="M47.5805 75.8281C47.229 75.8281 46.936 75.7139 46.7016 75.4854C46.4673 75.251 46.3501 74.9668 46.3501 74.6328C46.3501 74.3164 46.3384 73.8418 46.3149 73.209C46.2915 72.5762 46.2798 72.1045 46.2798 71.7939C44.0884 72.4736 42.0434 73.7012 40.145 75.4766C39.8872 75.7227 39.5971 75.8457 39.2749 75.8457C38.935 75.8457 38.6421 75.7256 38.396 75.4854C38.1499 75.2451 38.0268 74.9639 38.0268 74.6416C38.0268 74.3604 38.1294 74.0996 38.3344 73.8594C39.143 72.9336 40.4585 71.958 42.2807 70.9326C40.0718 70.1182 38.9673 68.9609 38.9673 67.4609C38.9673 65.6035 40.2182 64.042 42.7202 62.7764C43.2944 62.4893 43.9917 62.293 44.812 62.1875C44.8764 62.1816 45.6059 62.126 47.0005 62.0205C47.5278 61.9795 47.9409 62.1582 48.2397 62.5566C48.4682 62.8672 48.5825 63.2129 48.5825 63.5938C48.5825 64.3906 48.6118 65.5771 48.6704 67.1533C48.7348 68.7295 48.7671 69.9102 48.7671 70.6953C48.7671 71.1348 48.7759 71.791 48.7934 72.6641C48.811 73.5371 48.8198 74.1934 48.8198 74.6328C48.8198 74.9668 48.6997 75.251 48.4594 75.4854C48.2251 75.7139 47.9321 75.8281 47.5805 75.8281ZM46.0952 64.499C45.8901 64.5107 45.5854 64.5342 45.1811 64.5693C44.3081 64.6572 43.4761 64.9912 42.685 65.5713C41.853 66.1748 41.437 66.8047 41.437 67.4609C41.437 67.5898 41.563 67.7803 41.8149 68.0322C42.0669 68.2842 42.3393 68.4863 42.6323 68.6387C43.3237 68.9961 44.3901 69.1748 45.8315 69.1748C45.9136 69.1748 46.0483 69.1719 46.2358 69.166C46.23 68.873 46.2007 68.1289 46.1479 66.9336C46.1069 65.9609 46.0893 65.1494 46.0952 64.499ZM68.6655 64.9824C68.2085 64.9824 67.4966 64.9502 66.5298 64.8857C65.5981 64.8213 64.8862 64.792 64.394 64.7979C64.4175 65.4658 64.4966 66.6553 64.6313 68.3662C64.7544 69.8779 64.8159 71.0732 64.8159 71.9521C64.8159 72.1514 64.8364 72.4473 64.8774 72.8398C64.9184 73.2324 64.9389 73.5283 64.9389 73.7275C64.9389 74.167 64.8452 74.5625 64.6577 74.9141C64.4175 75.3652 64.0747 75.5908 63.6294 75.5908C63.3071 75.5908 63.0229 75.4883 62.7768 75.2832C62.5014 75.0547 62.3637 74.7676 62.3637 74.4219C62.3637 74.3398 62.3784 74.2168 62.4077 74.0527C62.437 73.8828 62.4516 73.7539 62.4516 73.666C62.4516 73.3965 62.4311 72.9893 62.3901 72.4443C62.355 71.8994 62.3374 71.4893 62.3374 71.2139C62.3374 70.4287 62.2759 69.3652 62.1528 68.0234C62.0122 66.4824 61.9302 65.4189 61.9067 64.833H61.4497C60.143 64.833 59.1059 64.7393 58.3384 64.5518C57.688 64.3936 57.3628 64.0098 57.3628 63.4004C57.3628 63.1016 57.4682 62.832 57.6792 62.5918C57.9253 62.3047 58.2475 62.1758 58.646 62.2051C58.8511 62.2168 59.3169 62.2666 60.0434 62.3545C60.6235 62.4189 61.0923 62.4512 61.4497 62.4512C61.8071 62.4512 62.3403 62.4453 63.0493 62.4336C63.7641 62.4219 64.3003 62.416 64.6577 62.416C65.103 62.416 65.771 62.4482 66.6616 62.5127C67.5522 62.5713 68.2202 62.6006 68.6655 62.6006C69.0171 62.6006 69.31 62.7148 69.5444 62.9434C69.7846 63.1719 69.9048 63.4531 69.9048 63.7871C69.9048 64.1211 69.7846 64.4053 69.5444 64.6396C69.31 64.8682 69.0171 64.9824 68.6655 64.9824ZM79.5552 64.2529C79.438 64.2529 79.3149 64.2354 79.186 64.2002C78.2368 63.9424 77.3139 63.8135 76.4175 63.8135C75.978 63.8135 75.5063 63.8486 75.0024 63.9189C74.4985 63.9893 73.9624 64.0947 73.394 64.2354C73.394 65.0146 73.3677 66.1719 73.3149 67.707C73.643 67.6836 74.7886 67.5752 76.7514 67.3818C77.8706 67.2705 78.5796 67.2148 78.8784 67.2148C79.2241 67.2148 79.52 67.3262 79.7661 67.5488C80.0122 67.7656 80.1352 68.0557 80.1352 68.4189C80.1352 69.1162 79.7632 69.5117 79.019 69.6055C78.5503 69.6406 77.8501 69.6992 76.9184 69.7812C76.0864 69.875 74.8325 69.9893 73.1567 70.124C73.1157 70.8682 73.0952 71.4688 73.0952 71.9258C73.0952 73.0742 73.1626 73.7275 73.2973 73.8857C73.3618 73.9619 73.7309 74 74.4048 74C74.768 74 75.3159 73.9912 76.0483 73.9736C76.7807 73.9561 77.3286 73.9473 77.6919 73.9473C77.8091 73.9473 77.9819 73.9297 78.2104 73.8945C78.4389 73.8594 78.6089 73.8418 78.7202 73.8418C79.06 73.8418 79.3501 73.9385 79.5903 74.1318C79.8657 74.3486 80.0034 74.6533 80.0034 75.0459C80.0034 75.7021 79.6606 76.0947 78.9751 76.2236C78.3891 76.335 77.1733 76.3906 75.3276 76.3906C73.4175 76.3906 72.1723 76.1328 71.5923 75.6172C70.9536 75.0488 70.6343 73.8184 70.6343 71.9258C70.6343 71.1406 70.6899 69.9629 70.8012 68.3926C70.9184 66.8164 70.977 65.6387 70.977 64.8594C70.977 64.6543 70.9477 64.3525 70.8891 63.9541C70.8305 63.5498 70.8012 63.2451 70.8012 63.04C70.8012 62.1494 71.2114 61.7041 72.0317 61.7041C72.2895 61.7041 72.5268 61.7773 72.7436 61.9238C73.4233 61.7539 74.0678 61.6279 74.6772 61.5459C75.2925 61.458 75.8725 61.4141 76.4175 61.4141C77.894 61.4141 79.0747 61.584 79.9594 61.9238C80.4985 62.1289 80.768 62.501 80.768 63.04C80.768 63.3447 80.6626 63.6143 80.4516 63.8486C80.2173 64.1182 79.9184 64.2529 79.5552 64.2529ZM86.0151 75.6436C85.7397 75.6436 85.3618 75.6318 84.8813 75.6084C84.3305 75.585 83.9526 75.5703 83.7475 75.5645C83.6186 75.5996 83.4897 75.6172 83.3608 75.6172C82.4995 75.6172 82.0688 75.0137 82.0688 73.8066C82.0688 73.6484 82.1098 73.1533 82.1919 72.3213C82.3032 71.2197 82.3589 70.1885 82.3589 69.2275C82.3589 68.665 82.3296 67.8271 82.271 66.7139C82.2124 65.6006 82.1831 64.7627 82.1831 64.2002C82.1831 63.4854 82.2417 63.0166 82.3589 62.7939C82.5639 62.4014 83.0268 62.2051 83.7475 62.2051C84.187 62.2051 84.8491 62.1963 85.7339 62.1787C86.6245 62.1553 87.2925 62.1436 87.7378 62.1436H89.9526C90.3042 62.1436 90.5942 62.2549 90.8227 62.4775C91.0571 62.6943 91.1743 62.9697 91.1743 63.3037C91.1743 63.6377 91.0571 63.916 90.8227 64.1387C90.5942 64.3555 90.3042 64.4639 89.9526 64.4639C89.3139 64.4639 87.5561 64.4844 84.6792 64.5254C84.7085 65.2578 84.7524 66.0576 84.811 66.9248C85.1157 66.9131 85.3677 66.9072 85.5669 66.9072C87.4302 66.9072 88.8012 67.1855 89.6802 67.7422C90.7876 68.4336 91.3413 69.6494 91.3413 71.3896C91.3413 72.8662 90.8022 73.9707 89.7241 74.7031C88.8042 75.3301 87.5678 75.6436 86.0151 75.6436ZM85.9448 69.21C85.6577 69.21 85.2915 69.2246 84.8462 69.2539C84.852 69.3828 84.855 69.5176 84.855 69.6582C84.855 70.291 84.7876 71.5039 84.6528 73.2969C85.2036 73.3086 85.6577 73.3145 86.0151 73.3145C87.9311 73.3145 88.8891 72.6729 88.8891 71.3896C88.8891 70.499 88.643 69.9014 88.1509 69.5967C87.7524 69.3389 87.0171 69.21 85.9448 69.21ZM101.37 75.8281C101.018 75.8281 100.725 75.7139 100.491 75.4854C100.256 75.251 100.139 74.9668 100.139 74.6328C100.139 74.3164 100.127 73.8418 100.104 73.209C100.081 72.5762 100.069 72.1045 100.069 71.7939C97.8774 72.4736 95.8325 73.7012 93.9341 75.4766C93.6762 75.7227 93.3862 75.8457 93.0639 75.8457C92.7241 75.8457 92.4311 75.7256 92.185 75.4854C91.9389 75.2451 91.8159 74.9639 91.8159 74.6416C91.8159 74.3604 91.9184 74.0996 92.1235 73.8594C92.9321 72.9336 94.2475 71.958 96.0698 70.9326C93.8608 70.1182 92.7563 68.9609 92.7563 67.4609C92.7563 65.6035 94.0073 64.042 96.5093 62.7764C97.0835 62.4893 97.7807 62.293 98.6011 62.1875C98.6655 62.1816 99.395 62.126 100.79 62.0205C101.317 61.9795 101.73 62.1582 102.029 62.5566C102.257 62.8672 102.372 63.2129 102.372 63.5938C102.372 64.3906 102.401 65.5771 102.459 67.1533C102.524 68.7295 102.556 69.9102 102.556 70.6953C102.556 71.1348 102.565 71.791 102.582 72.6641C102.6 73.5371 102.609 74.1934 102.609 74.6328C102.609 74.9668 102.489 75.251 102.249 75.4854C102.014 75.7139 101.721 75.8281 101.37 75.8281ZM99.8843 64.499C99.6792 64.5107 99.3745 64.5342 98.9702 64.5693C98.0971 64.6572 97.2651 64.9912 96.4741 65.5713C95.6421 66.1748 95.2261 66.8047 95.2261 67.4609C95.2261 67.5898 95.352 67.7803 95.604 68.0322C95.8559 68.2842 96.1284 68.4863 96.4214 68.6387C97.1128 68.9961 98.1792 69.1748 99.6206 69.1748C99.7026 69.1748 99.8374 69.1719 100.025 69.166C100.019 68.873 99.9897 68.1289 99.937 66.9336C99.896 65.9609 99.8784 65.1494 99.8843 64.499ZM125.267 75.626C124.693 75.626 124.3 75.3242 124.089 74.7207C123.861 74.0703 123.292 73.0361 122.384 71.6182C121.353 70.0127 120.632 69.2041 120.222 69.1924C120.146 69.1865 120.055 69.1836 119.95 69.1836C119.95 69.5 119.947 70.0244 119.941 70.7568C119.935 71.4424 119.932 71.9639 119.932 72.3213C119.932 72.415 119.938 72.6055 119.95 72.8926C119.967 73.1797 119.976 73.4082 119.976 73.5781C119.976 74.9668 119.54 75.6611 118.666 75.6611C118.321 75.6611 118.028 75.5557 117.788 75.3447C117.553 75.1338 117.436 74.8584 117.436 74.5186C117.436 74.1025 117.454 73.4756 117.489 72.6377C117.524 71.7998 117.541 71.1729 117.541 70.7568C117.541 70.1943 117.539 69.6699 117.533 69.1836H117.26C116.85 69.1836 116.132 69.9922 115.107 71.6094C114.193 73.0332 113.622 74.0703 113.393 74.7207C113.182 75.3242 112.792 75.626 112.224 75.626C111.89 75.626 111.603 75.5205 111.363 75.3096C111.105 75.0928 110.976 74.8203 110.976 74.4922C110.976 73.7598 111.448 72.6582 112.391 71.1875C113.317 69.7461 114.193 68.7236 115.019 68.1201C114.457 67.6865 113.964 66.9775 113.542 65.9932C113.033 64.8096 112.546 64.2178 112.083 64.2178C111.837 64.2178 111.632 64.1035 111.468 63.875C111.333 63.6816 111.266 63.4678 111.266 63.2334C111.266 62.9521 111.459 62.7148 111.846 62.5215C112.168 62.3574 112.482 62.2754 112.787 62.2754C113.876 62.2754 114.749 62.9932 115.406 64.4287C115.505 64.7744 115.705 65.2783 116.003 65.9404C116.32 66.4326 116.803 66.7139 117.454 66.7842C117.395 65.4365 117.366 64.3936 117.366 63.6553C117.366 62.5537 117.785 62.0029 118.623 62.0029C118.974 62.0029 119.264 62.1143 119.493 62.3369C119.727 62.5537 119.844 62.8291 119.844 63.1631C119.844 63.6436 119.874 64.8594 119.932 66.8105C120.635 66.7461 121.139 66.4678 121.444 65.9756C121.661 65.46 121.877 64.9443 122.094 64.4287C122.745 62.999 123.615 62.2842 124.705 62.2842C125.009 62.2842 125.323 62.3633 125.645 62.5215C126.032 62.7148 126.225 62.9521 126.225 63.2334C126.225 63.4678 126.155 63.6846 126.014 63.8838C125.856 64.1064 125.654 64.2178 125.408 64.2178C124.945 64.2178 124.458 64.8096 123.949 65.9932C123.521 66.9775 123.029 67.6865 122.472 68.1201C123.298 68.7236 124.174 69.749 125.1 71.1963C126.043 72.6611 126.515 73.7598 126.515 74.4922C126.515 74.8203 126.389 75.0928 126.137 75.3096C125.885 75.5205 125.595 75.626 125.267 75.626ZM139.857 76.5049C139.857 76.5928 139.866 76.7217 139.883 76.8916C139.901 77.0674 139.91 77.1992 139.91 77.2871C139.91 77.6211 139.792 77.8994 139.558 78.1221C139.324 78.3447 139.031 78.4561 138.679 78.4561C138.146 78.4561 137.783 78.2363 137.589 77.7969C137.466 77.5156 137.405 77.085 137.405 76.5049C137.405 76.2939 137.422 76.0068 137.457 75.6436C136.737 75.6436 135.404 75.6553 133.458 75.6787C131.542 75.6963 130.212 75.7051 129.468 75.7051C129.451 76.502 129.442 76.9971 129.442 77.1904C129.442 77.5244 129.325 77.8027 129.09 78.0254C128.862 78.248 128.572 78.3594 128.22 78.3594C127.869 78.3594 127.576 78.248 127.341 78.0254C127.113 77.8027 126.999 77.5244 126.999 77.1904C126.999 76.9326 127.004 76.5459 127.016 76.0303C127.028 75.5146 127.034 75.1279 127.034 74.8701C126.993 74.6943 126.972 74.5918 126.972 74.5625C126.972 73.9648 127.394 73.584 128.238 73.4199C129.398 70.9473 129.978 68.2168 129.978 65.2285C129.978 65.0117 129.943 64.6953 129.873 64.2793C129.808 63.8574 129.776 63.5498 129.776 63.3564C129.776 62.583 130.332 62.1904 131.446 62.1787L135.911 62.1611C135.893 62.1611 136.347 62.1436 137.273 62.1084C137.46 62.0088 137.666 61.959 137.888 61.959C138.24 61.959 138.533 62.0703 138.767 62.293C139.001 62.5156 139.119 62.7939 139.119 63.1279C139.119 63.7197 139.127 64.6045 139.145 65.7822C139.163 66.9541 139.171 67.833 139.171 68.4189C139.171 69.415 139.139 71.0938 139.075 73.4551L139.145 73.4902C139.702 73.6543 139.98 74.0264 139.98 74.6064C139.98 74.8174 139.959 75.1338 139.918 75.5557C139.877 75.9775 139.857 76.2939 139.857 76.5049ZM136.675 64.499C136.341 64.5049 135.902 64.5049 135.357 64.499C134.677 64.4873 134.238 64.4814 134.039 64.4814C133.664 64.4814 133.127 64.4902 132.43 64.5078C132.43 64.5488 132.43 64.8037 132.43 65.2725C132.43 66.4502 132.301 67.7773 132.043 69.2539C131.756 70.8711 131.384 72.2217 130.927 73.3057C131.337 73.3057 131.988 73.2881 132.878 73.2529C133.728 73.2236 134.381 73.209 134.838 73.209C135.231 73.209 135.82 73.2236 136.605 73.2529C136.611 72.7314 136.631 71.9316 136.666 70.8535C136.702 69.8457 136.719 69.0342 136.719 68.4189C136.719 68.1904 136.705 66.8838 136.675 64.499ZM151.291 64.5781C151.145 64.8066 150.946 65.1523 150.694 65.6152C149.487 68.3457 148.432 70.6953 147.53 72.6641C146.557 74.791 144.849 75.8545 142.406 75.8545C142.054 75.8545 141.761 75.7432 141.527 75.5205C141.292 75.2979 141.175 75.0195 141.175 74.6855C141.175 74.2285 141.342 73.9121 141.676 73.7363C141.864 73.6367 142.23 73.5576 142.775 73.499C143.519 73.417 144.076 73.1855 144.445 72.8047C144.568 72.6816 144.896 72.1836 145.429 71.3105C144.486 70.1445 143.841 69.1631 143.496 68.3662C143.232 67.7686 142.787 67.0215 142.16 66.125C141.404 65.0527 140.92 64.3291 140.709 63.9541C140.592 63.7432 140.534 63.5381 140.534 63.3389C140.534 63.0166 140.657 62.7383 140.903 62.5039C141.155 62.2695 141.451 62.1523 141.791 62.1523C142.177 62.1523 142.526 62.3398 142.836 62.7148C143.059 63.0547 143.285 63.3945 143.513 63.7344C144.117 64.6016 144.53 65.208 144.752 65.5537C145.192 66.251 145.541 66.8955 145.798 67.4873C145.968 67.8857 146.247 68.3369 146.633 68.8408C147.02 67.9209 147.609 66.5469 148.4 64.7188C148.623 64.3262 148.942 63.7314 149.358 62.9346C149.598 62.4189 149.976 62.1611 150.492 62.1611C150.832 62.1611 151.124 62.2754 151.371 62.5039C151.623 62.7266 151.749 63.002 151.749 63.3301C151.749 63.6406 151.596 64.0566 151.291 64.5781ZM154.095 72.9102C153.767 72.9102 153.495 72.8076 153.278 72.6025C153.067 72.3975 152.961 72.1396 152.961 71.8291C152.961 71.6006 152.953 71.2607 152.935 70.8096C152.923 70.3525 152.917 70.0098 152.917 69.7812C152.917 68.9727 152.923 67.7598 152.935 66.1426C152.953 64.5254 152.961 63.3125 152.961 62.5039C152.961 62.1934 153.07 61.9355 153.287 61.7305C153.503 61.5195 153.773 61.4141 154.095 61.4141C154.417 61.4141 154.687 61.5195 154.904 61.7305C155.121 61.9355 155.229 62.1934 155.229 62.5039V71.8291C155.229 72.1396 155.121 72.3975 154.904 72.6025C154.693 72.8076 154.423 72.9102 154.095 72.9102ZM154.069 76.1006C153.717 76.1006 153.389 75.9131 153.084 75.5381C152.809 75.1924 152.671 74.8701 152.671 74.5713C152.671 74.2666 152.791 74.0117 153.032 73.8066C153.272 73.6016 153.544 73.499 153.849 73.499C154.201 73.499 154.526 73.6865 154.825 74.0615C155.1 74.4072 155.238 74.7266 155.238 75.0195C155.238 75.3184 155.118 75.5732 154.877 75.7842C154.643 75.9951 154.374 76.1006 154.069 76.1006Z" fill="#345E40"/>
<path d="M47.5805 75.8281C47.229 75.8281 46.936 75.7139 46.7016 75.4854C46.4673 75.251 46.3501 74.9668 46.3501 74.6328C46.3501 74.3164 46.3384 73.8418 46.3149 73.209C46.2915 72.5762 46.2798 72.1045 46.2798 71.7939C44.0884 72.4736 42.0434 73.7012 40.145 75.4766C39.8872 75.7227 39.5971 75.8457 39.2749 75.8457C38.935 75.8457 38.6421 75.7256 38.396 75.4854C38.1499 75.2451 38.0268 74.9639 38.0268 74.6416C38.0268 74.3604 38.1294 74.0996 38.3344 73.8594C39.143 72.9336 40.4585 71.958 42.2807 70.9326C40.0718 70.1182 38.9673 68.9609 38.9673 67.4609C38.9673 65.6035 40.2182 64.042 42.7202 62.7764C43.2944 62.4893 43.9917 62.293 44.812 62.1875C44.8764 62.1816 45.6059 62.126 47.0005 62.0205C47.5278 61.9795 47.9409 62.1582 48.2397 62.5566C48.4682 62.8672 48.5825 63.2129 48.5825 63.5938C48.5825 64.3906 48.6118 65.5771 48.6704 67.1533C48.7348 68.7295 48.7671 69.9102 48.7671 70.6953C48.7671 71.1348 48.7759 71.791 48.7934 72.6641C48.811 73.5371 48.8198 74.1934 48.8198 74.6328C48.8198 74.9668 48.6997 75.251 48.4594 75.4854C48.2251 75.7139 47.9321 75.8281 47.5805 75.8281ZM46.0952 64.499C45.8901 64.5107 45.5854 64.5342 45.1811 64.5693C44.3081 64.6572 43.4761 64.9912 42.685 65.5713C41.853 66.1748 41.437 66.8047 41.437 67.4609C41.437 67.5898 41.563 67.7803 41.8149 68.0322C42.0669 68.2842 42.3393 68.4863 42.6323 68.6387C43.3237 68.9961 44.3901 69.1748 45.8315 69.1748C45.9136 69.1748 46.0483 69.1719 46.2358 69.166C46.23 68.873 46.2007 68.1289 46.1479 66.9336C46.1069 65.9609 46.0893 65.1494 46.0952 64.499ZM68.6655 64.9824C68.2085 64.9824 67.4966 64.9502 66.5298 64.8857C65.5981 64.8213 64.8862 64.792 64.394 64.7979C64.4175 65.4658 64.4966 66.6553 64.6313 68.3662C64.7544 69.8779 64.8159 71.0732 64.8159 71.9521C64.8159 72.1514 64.8364 72.4473 64.8774 72.8398C64.9184 73.2324 64.9389 73.5283 64.9389 73.7275C64.9389 74.167 64.8452 74.5625 64.6577 74.9141C64.4175 75.3652 64.0747 75.5908 63.6294 75.5908C63.3071 75.5908 63.0229 75.4883 62.7768 75.2832C62.5014 75.0547 62.3637 74.7676 62.3637 74.4219C62.3637 74.3398 62.3784 74.2168 62.4077 74.0527C62.437 73.8828 62.4516 73.7539 62.4516 73.666C62.4516 73.3965 62.4311 72.9893 62.3901 72.4443C62.355 71.8994 62.3374 71.4893 62.3374 71.2139C62.3374 70.4287 62.2759 69.3652 62.1528 68.0234C62.0122 66.4824 61.9302 65.4189 61.9067 64.833H61.4497C60.143 64.833 59.1059 64.7393 58.3384 64.5518C57.688 64.3936 57.3628 64.0098 57.3628 63.4004C57.3628 63.1016 57.4682 62.832 57.6792 62.5918C57.9253 62.3047 58.2475 62.1758 58.646 62.2051C58.8511 62.2168 59.3169 62.2666 60.0434 62.3545C60.6235 62.4189 61.0923 62.4512 61.4497 62.4512C61.8071 62.4512 62.3403 62.4453 63.0493 62.4336C63.7641 62.4219 64.3003 62.416 64.6577 62.416C65.103 62.416 65.771 62.4482 66.6616 62.5127C67.5522 62.5713 68.2202 62.6006 68.6655 62.6006C69.0171 62.6006 69.31 62.7148 69.5444 62.9434C69.7846 63.1719 69.9048 63.4531 69.9048 63.7871C69.9048 64.1211 69.7846 64.4053 69.5444 64.6396C69.31 64.8682 69.0171 64.9824 68.6655 64.9824ZM79.5552 64.2529C79.438 64.2529 79.3149 64.2354 79.186 64.2002C78.2368 63.9424 77.3139 63.8135 76.4175 63.8135C75.978 63.8135 75.5063 63.8486 75.0024 63.9189C74.4985 63.9893 73.9624 64.0947 73.394 64.2354C73.394 65.0146 73.3677 66.1719 73.3149 67.707C73.643 67.6836 74.7886 67.5752 76.7514 67.3818C77.8706 67.2705 78.5796 67.2148 78.8784 67.2148C79.2241 67.2148 79.52 67.3262 79.7661 67.5488C80.0122 67.7656 80.1352 68.0557 80.1352 68.4189C80.1352 69.1162 79.7632 69.5117 79.019 69.6055C78.5503 69.6406 77.8501 69.6992 76.9184 69.7812C76.0864 69.875 74.8325 69.9893 73.1567 70.124C73.1157 70.8682 73.0952 71.4688 73.0952 71.9258C73.0952 73.0742 73.1626 73.7275 73.2973 73.8857C73.3618 73.9619 73.7309 74 74.4048 74C74.768 74 75.3159 73.9912 76.0483 73.9736C76.7807 73.9561 77.3286 73.9473 77.6919 73.9473C77.8091 73.9473 77.9819 73.9297 78.2104 73.8945C78.4389 73.8594 78.6089 73.8418 78.7202 73.8418C79.06 73.8418 79.3501 73.9385 79.5903 74.1318C79.8657 74.3486 80.0034 74.6533 80.0034 75.0459C80.0034 75.7021 79.6606 76.0947 78.9751 76.2236C78.3891 76.335 77.1733 76.3906 75.3276 76.3906C73.4175 76.3906 72.1723 76.1328 71.5923 75.6172C70.9536 75.0488 70.6343 73.8184 70.6343 71.9258C70.6343 71.1406 70.6899 69.9629 70.8012 68.3926C70.9184 66.8164 70.977 65.6387 70.977 64.8594C70.977 64.6543 70.9477 64.3525 70.8891 63.9541C70.8305 63.5498 70.8012 63.2451 70.8012 63.04C70.8012 62.1494 71.2114 61.7041 72.0317 61.7041C72.2895 61.7041 72.5268 61.7773 72.7436 61.9238C73.4233 61.7539 74.0678 61.6279 74.6772 61.5459C75.2925 61.458 75.8725 61.4141 76.4175 61.4141C77.894 61.4141 79.0747 61.584 79.9594 61.9238C80.4985 62.1289 80.768 62.501 80.768 63.04C80.768 63.3447 80.6626 63.6143 80.4516 63.8486C80.2173 64.1182 79.9184 64.2529 79.5552 64.2529ZM86.0151 75.6436C85.7397 75.6436 85.3618 75.6318 84.8813 75.6084C84.3305 75.585 83.9526 75.5703 83.7475 75.5645C83.6186 75.5996 83.4897 75.6172 83.3608 75.6172C82.4995 75.6172 82.0688 75.0137 82.0688 73.8066C82.0688 73.6484 82.1098 73.1533 82.1919 72.3213C82.3032 71.2197 82.3589 70.1885 82.3589 69.2275C82.3589 68.665 82.3296 67.8271 82.271 66.7139C82.2124 65.6006 82.1831 64.7627 82.1831 64.2002C82.1831 63.4854 82.2417 63.0166 82.3589 62.7939C82.5639 62.4014 83.0268 62.2051 83.7475 62.2051C84.187 62.2051 84.8491 62.1963 85.7339 62.1787C86.6245 62.1553 87.2925 62.1436 87.7378 62.1436H89.9526C90.3042 62.1436 90.5942 62.2549 90.8227 62.4775C91.0571 62.6943 91.1743 62.9697 91.1743 63.3037C91.1743 63.6377 91.0571 63.916 90.8227 64.1387C90.5942 64.3555 90.3042 64.4639 89.9526 64.4639C89.3139 64.4639 87.5561 64.4844 84.6792 64.5254C84.7085 65.2578 84.7524 66.0576 84.811 66.9248C85.1157 66.9131 85.3677 66.9072 85.5669 66.9072C87.4302 66.9072 88.8012 67.1855 89.6802 67.7422C90.7876 68.4336 91.3413 69.6494 91.3413 71.3896C91.3413 72.8662 90.8022 73.9707 89.7241 74.7031C88.8042 75.3301 87.5678 75.6436 86.0151 75.6436ZM85.9448 69.21C85.6577 69.21 85.2915 69.2246 84.8462 69.2539C84.852 69.3828 84.855 69.5176 84.855 69.6582C84.855 70.291 84.7876 71.5039 84.6528 73.2969C85.2036 73.3086 85.6577 73.3145 86.0151 73.3145C87.9311 73.3145 88.8891 72.6729 88.8891 71.3896C88.8891 70.499 88.643 69.9014 88.1509 69.5967C87.7524 69.3389 87.0171 69.21 85.9448 69.21ZM101.37 75.8281C101.018 75.8281 100.725 75.7139 100.491 75.4854C100.256 75.251 100.139 74.9668 100.139 74.6328C100.139 74.3164 100.127 73.8418 100.104 73.209C100.081 72.5762 100.069 72.1045 100.069 71.7939C97.8774 72.4736 95.8325 73.7012 93.9341 75.4766C93.6762 75.7227 93.3862 75.8457 93.0639 75.8457C92.7241 75.8457 92.4311 75.7256 92.185 75.4854C91.9389 75.2451 91.8159 74.9639 91.8159 74.6416C91.8159 74.3604 91.9184 74.0996 92.1235 73.8594C92.9321 72.9336 94.2475 71.958 96.0698 70.9326C93.8608 70.1182 92.7563 68.9609 92.7563 67.4609C92.7563 65.6035 94.0073 64.042 96.5093 62.7764C97.0835 62.4893 97.7807 62.293 98.6011 62.1875C98.6655 62.1816 99.395 62.126 100.79 62.0205C101.317 61.9795 101.73 62.1582 102.029 62.5566C102.257 62.8672 102.372 63.2129 102.372 63.5938C102.372 64.3906 102.401 65.5771 102.459 67.1533C102.524 68.7295 102.556 69.9102 102.556 70.6953C102.556 71.1348 102.565 71.791 102.582 72.6641C102.6 73.5371 102.609 74.1934 102.609 74.6328C102.609 74.9668 102.489 75.251 102.249 75.4854C102.014 75.7139 101.721 75.8281 101.37 75.8281ZM99.8843 64.499C99.6792 64.5107 99.3745 64.5342 98.9702 64.5693C98.0971 64.6572 97.2651 64.9912 96.4741 65.5713C95.6421 66.1748 95.2261 66.8047 95.2261 67.4609C95.2261 67.5898 95.352 67.7803 95.604 68.0322C95.8559 68.2842 96.1284 68.4863 96.4214 68.6387C97.1128 68.9961 98.1792 69.1748 99.6206 69.1748C99.7026 69.1748 99.8374 69.1719 100.025 69.166C100.019 68.873 99.9897 68.1289 99.937 66.9336C99.896 65.9609 99.8784 65.1494 99.8843 64.499ZM125.267 75.626C124.693 75.626 124.3 75.3242 124.089 74.7207C123.861 74.0703 123.292 73.0361 122.384 71.6182C121.353 70.0127 120.632 69.2041 120.222 69.1924C120.146 69.1865 120.055 69.1836 119.95 69.1836C119.95 69.5 119.947 70.0244 119.941 70.7568C119.935 71.4424 119.932 71.9639 119.932 72.3213C119.932 72.415 119.938 72.6055 119.95 72.8926C119.967 73.1797 119.976 73.4082 119.976 73.5781C119.976 74.9668 119.54 75.6611 118.666 75.6611C118.321 75.6611 118.028 75.5557 117.788 75.3447C117.553 75.1338 117.436 74.8584 117.436 74.5186C117.436 74.1025 117.454 73.4756 117.489 72.6377C117.524 71.7998 117.541 71.1729 117.541 70.7568C117.541 70.1943 117.539 69.6699 117.533 69.1836H117.26C116.85 69.1836 116.132 69.9922 115.107 71.6094C114.193 73.0332 113.622 74.0703 113.393 74.7207C113.182 75.3242 112.792 75.626 112.224 75.626C111.89 75.626 111.603 75.5205 111.363 75.3096C111.105 75.0928 110.976 74.8203 110.976 74.4922C110.976 73.7598 111.448 72.6582 112.391 71.1875C113.317 69.7461 114.193 68.7236 115.019 68.1201C114.457 67.6865 113.964 66.9775 113.542 65.9932C113.033 64.8096 112.546 64.2178 112.083 64.2178C111.837 64.2178 111.632 64.1035 111.468 63.875C111.333 63.6816 111.266 63.4678 111.266 63.2334C111.266 62.9521 111.459 62.7148 111.846 62.5215C112.168 62.3574 112.482 62.2754 112.787 62.2754C113.876 62.2754 114.749 62.9932 115.406 64.4287C115.505 64.7744 115.705 65.2783 116.003 65.9404C116.32 66.4326 116.803 66.7139 117.454 66.7842C117.395 65.4365 117.366 64.3936 117.366 63.6553C117.366 62.5537 117.785 62.0029 118.623 62.0029C118.974 62.0029 119.264 62.1143 119.493 62.3369C119.727 62.5537 119.844 62.8291 119.844 63.1631C119.844 63.6436 119.874 64.8594 119.932 66.8105C120.635 66.7461 121.139 66.4678 121.444 65.9756C121.661 65.46 121.877 64.9443 122.094 64.4287C122.745 62.999 123.615 62.2842 124.705 62.2842C125.009 62.2842 125.323 62.3633 125.645 62.5215C126.032 62.7148 126.225 62.9521 126.225 63.2334C126.225 63.4678 126.155 63.6846 126.014 63.8838C125.856 64.1064 125.654 64.2178 125.408 64.2178C124.945 64.2178 124.458 64.8096 123.949 65.9932C123.521 66.9775 123.029 67.6865 122.472 68.1201C123.298 68.7236 124.174 69.749 125.1 71.1963C126.043 72.6611 126.515 73.7598 126.515 74.4922C126.515 74.8203 126.389 75.0928 126.137 75.3096C125.885 75.5205 125.595 75.626 125.267 75.626ZM139.857 76.5049C139.857 76.5928 139.866 76.7217 139.883 76.8916C139.901 77.0674 139.91 77.1992 139.91 77.2871C139.91 77.6211 139.792 77.8994 139.558 78.1221C139.324 78.3447 139.031 78.4561 138.679 78.4561C138.146 78.4561 137.783 78.2363 137.589 77.7969C137.466 77.5156 137.405 77.085 137.405 76.5049C137.405 76.2939 137.422 76.0068 137.457 75.6436C136.737 75.6436 135.404 75.6553 133.458 75.6787C131.542 75.6963 130.212 75.7051 129.468 75.7051C129.451 76.502 129.442 76.9971 129.442 77.1904C129.442 77.5244 129.325 77.8027 129.09 78.0254C128.862 78.248 128.572 78.3594 128.22 78.3594C127.869 78.3594 127.576 78.248 127.341 78.0254C127.113 77.8027 126.999 77.5244 126.999 77.1904C126.999 76.9326 127.004 76.5459 127.016 76.0303C127.028 75.5146 127.034 75.1279 127.034 74.8701C126.993 74.6943 126.972 74.5918 126.972 74.5625C126.972 73.9648 127.394 73.584 128.238 73.4199C129.398 70.9473 129.978 68.2168 129.978 65.2285C129.978 65.0117 129.943 64.6953 129.873 64.2793C129.808 63.8574 129.776 63.5498 129.776 63.3564C129.776 62.583 130.332 62.1904 131.446 62.1787L135.911 62.1611C135.893 62.1611 136.347 62.1436 137.273 62.1084C137.46 62.0088 137.666 61.959 137.888 61.959C138.24 61.959 138.533 62.0703 138.767 62.293C139.001 62.5156 139.119 62.7939 139.119 63.1279C139.119 63.7197 139.127 64.6045 139.145 65.7822C139.163 66.9541 139.171 67.833 139.171 68.4189C139.171 69.415 139.139 71.0938 139.075 73.4551L139.145 73.4902C139.702 73.6543 139.98 74.0264 139.98 74.6064C139.98 74.8174 139.959 75.1338 139.918 75.5557C139.877 75.9775 139.857 76.2939 139.857 76.5049ZM136.675 64.499C136.341 64.5049 135.902 64.5049 135.357 64.499C134.677 64.4873 134.238 64.4814 134.039 64.4814C133.664 64.4814 133.127 64.4902 132.43 64.5078C132.43 64.5488 132.43 64.8037 132.43 65.2725C132.43 66.4502 132.301 67.7773 132.043 69.2539C131.756 70.8711 131.384 72.2217 130.927 73.3057C131.337 73.3057 131.988 73.2881 132.878 73.2529C133.728 73.2236 134.381 73.209 134.838 73.209C135.231 73.209 135.82 73.2236 136.605 73.2529C136.611 72.7314 136.631 71.9316 136.666 70.8535C136.702 69.8457 136.719 69.0342 136.719 68.4189C136.719 68.1904 136.705 66.8838 136.675 64.499ZM151.291 64.5781C151.145 64.8066 150.946 65.1523 150.694 65.6152C149.487 68.3457 148.432 70.6953 147.53 72.6641C146.557 74.791 144.849 75.8545 142.406 75.8545C142.054 75.8545 141.761 75.7432 141.527 75.5205C141.292 75.2979 141.175 75.0195 141.175 74.6855C141.175 74.2285 141.342 73.9121 141.676 73.7363C141.864 73.6367 142.23 73.5576 142.775 73.499C143.519 73.417 144.076 73.1855 144.445 72.8047C144.568 72.6816 144.896 72.1836 145.429 71.3105C144.486 70.1445 143.841 69.1631 143.496 68.3662C143.232 67.7686 142.787 67.0215 142.16 66.125C141.404 65.0527 140.92 64.3291 140.709 63.9541C140.592 63.7432 140.534 63.5381 140.534 63.3389C140.534 63.0166 140.657 62.7383 140.903 62.5039C141.155 62.2695 141.451 62.1523 141.791 62.1523C142.177 62.1523 142.526 62.3398 142.836 62.7148C143.059 63.0547 143.285 63.3945 143.513 63.7344C144.117 64.6016 144.53 65.208 144.752 65.5537C145.192 66.251 145.541 66.8955 145.798 67.4873C145.968 67.8857 146.247 68.3369 146.633 68.8408C147.02 67.9209 147.609 66.5469 148.4 64.7188C148.623 64.3262 148.942 63.7314 149.358 62.9346C149.598 62.4189 149.976 62.1611 150.492 62.1611C150.832 62.1611 151.124 62.2754 151.371 62.5039C151.623 62.7266 151.749 63.002 151.749 63.3301C151.749 63.6406 151.596 64.0566 151.291 64.5781ZM154.095 72.9102C153.767 72.9102 153.495 72.8076 153.278 72.6025C153.067 72.3975 152.961 72.1396 152.961 71.8291C152.961 71.6006 152.953 71.2607 152.935 70.8096C152.923 70.3525 152.917 70.0098 152.917 69.7812C152.917 68.9727 152.923 67.7598 152.935 66.1426C152.953 64.5254 152.961 63.3125 152.961 62.5039C152.961 62.1934 153.07 61.9355 153.287 61.7305C153.503 61.5195 153.773 61.4141 154.095 61.4141C154.417 61.4141 154.687 61.5195 154.904 61.7305C155.121 61.9355 155.229 62.1934 155.229 62.5039V71.8291C155.229 72.1396 155.121 72.3975 154.904 72.6025C154.693 72.8076 154.423 72.9102 154.095 72.9102ZM154.069 76.1006C153.717 76.1006 153.389 75.9131 153.084 75.5381C152.809 75.1924 152.671 74.8701 152.671 74.5713C152.671 74.2666 152.791 74.0117 153.032 73.8066C153.272 73.6016 153.544 73.499 153.849 73.499C154.201 73.499 154.526 73.6865 154.825 74.0615C155.1 74.4072 155.238 74.7266 155.238 75.0195C155.238 75.3184 155.118 75.5732 154.877 75.7842C154.643 75.9951 154.374 76.1006 154.069 76.1006Z" fill="black" fill-opacity="0.2"/>
<path d="M47.5805 75.8281C47.229 75.8281 46.936 75.7139 46.7016 75.4854C46.4673 75.251 46.3501 74.9668 46.3501 74.6328C46.3501 74.3164 46.3384 73.8418 46.3149 73.209C46.2915 72.5762 46.2798 72.1045 46.2798 71.7939C44.0884 72.4736 42.0434 73.7012 40.145 75.4766C39.8872 75.7227 39.5971 75.8457 39.2749 75.8457C38.935 75.8457 38.6421 75.7256 38.396 75.4854C38.1499 75.2451 38.0268 74.9639 38.0268 74.6416C38.0268 74.3604 38.1294 74.0996 38.3344 73.8594C39.143 72.9336 40.4585 71.958 42.2807 70.9326C40.0718 70.1182 38.9673 68.9609 38.9673 67.4609C38.9673 65.6035 40.2182 64.042 42.7202 62.7764C43.2944 62.4893 43.9917 62.293 44.812 62.1875C44.8764 62.1816 45.6059 62.126 47.0005 62.0205C47.5278 61.9795 47.9409 62.1582 48.2397 62.5566C48.4682 62.8672 48.5825 63.2129 48.5825 63.5938C48.5825 64.3906 48.6118 65.5771 48.6704 67.1533C48.7348 68.7295 48.7671 69.9102 48.7671 70.6953C48.7671 71.1348 48.7759 71.791 48.7934 72.6641C48.811 73.5371 48.8198 74.1934 48.8198 74.6328C48.8198 74.9668 48.6997 75.251 48.4594 75.4854C48.2251 75.7139 47.9321 75.8281 47.5805 75.8281ZM46.0952 64.499C45.8901 64.5107 45.5854 64.5342 45.1811 64.5693C44.3081 64.6572 43.4761 64.9912 42.685 65.5713C41.853 66.1748 41.437 66.8047 41.437 67.4609C41.437 67.5898 41.563 67.7803 41.8149 68.0322C42.0669 68.2842 42.3393 68.4863 42.6323 68.6387C43.3237 68.9961 44.3901 69.1748 45.8315 69.1748C45.9136 69.1748 46.0483 69.1719 46.2358 69.166C46.23 68.873 46.2007 68.1289 46.1479 66.9336C46.1069 65.9609 46.0893 65.1494 46.0952 64.499ZM68.6655 64.9824C68.2085 64.9824 67.4966 64.9502 66.5298 64.8857C65.5981 64.8213 64.8862 64.792 64.394 64.7979C64.4175 65.4658 64.4966 66.6553 64.6313 68.3662C64.7544 69.8779 64.8159 71.0732 64.8159 71.9521C64.8159 72.1514 64.8364 72.4473 64.8774 72.8398C64.9184 73.2324 64.9389 73.5283 64.9389 73.7275C64.9389 74.167 64.8452 74.5625 64.6577 74.9141C64.4175 75.3652 64.0747 75.5908 63.6294 75.5908C63.3071 75.5908 63.0229 75.4883 62.7768 75.2832C62.5014 75.0547 62.3637 74.7676 62.3637 74.4219C62.3637 74.3398 62.3784 74.2168 62.4077 74.0527C62.437 73.8828 62.4516 73.7539 62.4516 73.666C62.4516 73.3965 62.4311 72.9893 62.3901 72.4443C62.355 71.8994 62.3374 71.4893 62.3374 71.2139C62.3374 70.4287 62.2759 69.3652 62.1528 68.0234C62.0122 66.4824 61.9302 65.4189 61.9067 64.833H61.4497C60.143 64.833 59.1059 64.7393 58.3384 64.5518C57.688 64.3936 57.3628 64.0098 57.3628 63.4004C57.3628 63.1016 57.4682 62.832 57.6792 62.5918C57.9253 62.3047 58.2475 62.1758 58.646 62.2051C58.8511 62.2168 59.3169 62.2666 60.0434 62.3545C60.6235 62.4189 61.0923 62.4512 61.4497 62.4512C61.8071 62.4512 62.3403 62.4453 63.0493 62.4336C63.7641 62.4219 64.3003 62.416 64.6577 62.416C65.103 62.416 65.771 62.4482 66.6616 62.5127C67.5522 62.5713 68.2202 62.6006 68.6655 62.6006C69.0171 62.6006 69.31 62.7148 69.5444 62.9434C69.7846 63.1719 69.9048 63.4531 69.9048 63.7871C69.9048 64.1211 69.7846 64.4053 69.5444 64.6396C69.31 64.8682 69.0171 64.9824 68.6655 64.9824ZM79.5552 64.2529C79.438 64.2529 79.3149 64.2354 79.186 64.2002C78.2368 63.9424 77.3139 63.8135 76.4175 63.8135C75.978 63.8135 75.5063 63.8486 75.0024 63.9189C74.4985 63.9893 73.9624 64.0947 73.394 64.2354C73.394 65.0146 73.3677 66.1719 73.3149 67.707C73.643 67.6836 74.7886 67.5752 76.7514 67.3818C77.8706 67.2705 78.5796 67.2148 78.8784 67.2148C79.2241 67.2148 79.52 67.3262 79.7661 67.5488C80.0122 67.7656 80.1352 68.0557 80.1352 68.4189C80.1352 69.1162 79.7632 69.5117 79.019 69.6055C78.5503 69.6406 77.8501 69.6992 76.9184 69.7812C76.0864 69.875 74.8325 69.9893 73.1567 70.124C73.1157 70.8682 73.0952 71.4688 73.0952 71.9258C73.0952 73.0742 73.1626 73.7275 73.2973 73.8857C73.3618 73.9619 73.7309 74 74.4048 74C74.768 74 75.3159 73.9912 76.0483 73.9736C76.7807 73.9561 77.3286 73.9473 77.6919 73.9473C77.8091 73.9473 77.9819 73.9297 78.2104 73.8945C78.4389 73.8594 78.6089 73.8418 78.7202 73.8418C79.06 73.8418 79.3501 73.9385 79.5903 74.1318C79.8657 74.3486 80.0034 74.6533 80.0034 75.0459C80.0034 75.7021 79.6606 76.0947 78.9751 76.2236C78.3891 76.335 77.1733 76.3906 75.3276 76.3906C73.4175 76.3906 72.1723 76.1328 71.5923 75.6172C70.9536 75.0488 70.6343 73.8184 70.6343 71.9258C70.6343 71.1406 70.6899 69.9629 70.8012 68.3926C70.9184 66.8164 70.977 65.6387 70.977 64.8594C70.977 64.6543 70.9477 64.3525 70.8891 63.9541C70.8305 63.5498 70.8012 63.2451 70.8012 63.04C70.8012 62.1494 71.2114 61.7041 72.0317 61.7041C72.2895 61.7041 72.5268 61.7773 72.7436 61.9238C73.4233 61.7539 74.0678 61.6279 74.6772 61.5459C75.2925 61.458 75.8725 61.4141 76.4175 61.4141C77.894 61.4141 79.0747 61.584 79.9594 61.9238C80.4985 62.1289 80.768 62.501 80.768 63.04C80.768 63.3447 80.6626 63.6143 80.4516 63.8486C80.2173 64.1182 79.9184 64.2529 79.5552 64.2529ZM86.0151 75.6436C85.7397 75.6436 85.3618 75.6318 84.8813 75.6084C84.3305 75.585 83.9526 75.5703 83.7475 75.5645C83.6186 75.5996 83.4897 75.6172 83.3608 75.6172C82.4995 75.6172 82.0688 75.0137 82.0688 73.8066C82.0688 73.6484 82.1098 73.1533 82.1919 72.3213C82.3032 71.2197 82.3589 70.1885 82.3589 69.2275C82.3589 68.665 82.3296 67.8271 82.271 66.7139C82.2124 65.6006 82.1831 64.7627 82.1831 64.2002C82.1831 63.4854 82.2417 63.0166 82.3589 62.7939C82.5639 62.4014 83.0268 62.2051 83.7475 62.2051C84.187 62.2051 84.8491 62.1963 85.7339 62.1787C86.6245 62.1553 87.2925 62.1436 87.7378 62.1436H89.9526C90.3042 62.1436 90.5942 62.2549 90.8227 62.4775C91.0571 62.6943 91.1743 62.9697 91.1743 63.3037C91.1743 63.6377 91.0571 63.916 90.8227 64.1387C90.5942 64.3555 90.3042 64.4639 89.9526 64.4639C89.3139 64.4639 87.5561 64.4844 84.6792 64.5254C84.7085 65.2578 84.7524 66.0576 84.811 66.9248C85.1157 66.9131 85.3677 66.9072 85.5669 66.9072C87.4302 66.9072 88.8012 67.1855 89.6802 67.7422C90.7876 68.4336 91.3413 69.6494 91.3413 71.3896C91.3413 72.8662 90.8022 73.9707 89.7241 74.7031C88.8042 75.3301 87.5678 75.6436 86.0151 75.6436ZM85.9448 69.21C85.6577 69.21 85.2915 69.2246 84.8462 69.2539C84.852 69.3828 84.855 69.5176 84.855 69.6582C84.855 70.291 84.7876 71.5039 84.6528 73.2969C85.2036 73.3086 85.6577 73.3145 86.0151 73.3145C87.9311 73.3145 88.8891 72.6729 88.8891 71.3896C88.8891 70.499 88.643 69.9014 88.1509 69.5967C87.7524 69.3389 87.0171 69.21 85.9448 69.21ZM101.37 75.8281C101.018 75.8281 100.725 75.7139 100.491 75.4854C100.256 75.251 100.139 74.9668 100.139 74.6328C100.139 74.3164 100.127 73.8418 100.104 73.209C100.081 72.5762 100.069 72.1045 100.069 71.7939C97.8774 72.4736 95.8325 73.7012 93.9341 75.4766C93.6762 75.7227 93.3862 75.8457 93.0639 75.8457C92.7241 75.8457 92.4311 75.7256 92.185 75.4854C91.9389 75.2451 91.8159 74.9639 91.8159 74.6416C91.8159 74.3604 91.9184 74.0996 92.1235 73.8594C92.9321 72.9336 94.2475 71.958 96.0698 70.9326C93.8608 70.1182 92.7563 68.9609 92.7563 67.4609C92.7563 65.6035 94.0073 64.042 96.5093 62.7764C97.0835 62.4893 97.7807 62.293 98.6011 62.1875C98.6655 62.1816 99.395 62.126 100.79 62.0205C101.317 61.9795 101.73 62.1582 102.029 62.5566C102.257 62.8672 102.372 63.2129 102.372 63.5938C102.372 64.3906 102.401 65.5771 102.459 67.1533C102.524 68.7295 102.556 69.9102 102.556 70.6953C102.556 71.1348 102.565 71.791 102.582 72.6641C102.6 73.5371 102.609 74.1934 102.609 74.6328C102.609 74.9668 102.489 75.251 102.249 75.4854C102.014 75.7139 101.721 75.8281 101.37 75.8281ZM99.8843 64.499C99.6792 64.5107 99.3745 64.5342 98.9702 64.5693C98.0971 64.6572 97.2651 64.9912 96.4741 65.5713C95.6421 66.1748 95.2261 66.8047 95.2261 67.4609C95.2261 67.5898 95.352 67.7803 95.604 68.0322C95.8559 68.2842 96.1284 68.4863 96.4214 68.6387C97.1128 68.9961 98.1792 69.1748 99.6206 69.1748C99.7026 69.1748 99.8374 69.1719 100.025 69.166C100.019 68.873 99.9897 68.1289 99.937 66.9336C99.896 65.9609 99.8784 65.1494 99.8843 64.499ZM125.267 75.626C124.693 75.626 124.3 75.3242 124.089 74.7207C123.861 74.0703 123.292 73.0361 122.384 71.6182C121.353 70.0127 120.632 69.2041 120.222 69.1924C120.146 69.1865 120.055 69.1836 119.95 69.1836C119.95 69.5 119.947 70.0244 119.941 70.7568C119.935 71.4424 119.932 71.9639 119.932 72.3213C119.932 72.415 119.938 72.6055 119.95 72.8926C119.967 73.1797 119.976 73.4082 119.976 73.5781C119.976 74.9668 119.54 75.6611 118.666 75.6611C118.321 75.6611 118.028 75.5557 117.788 75.3447C117.553 75.1338 117.436 74.8584 117.436 74.5186C117.436 74.1025 117.454 73.4756 117.489 72.6377C117.524 71.7998 117.541 71.1729 117.541 70.7568C117.541 70.1943 117.539 69.6699 117.533 69.1836H117.26C116.85 69.1836 116.132 69.9922 115.107 71.6094C114.193 73.0332 113.622 74.0703 113.393 74.7207C113.182 75.3242 112.792 75.626 112.224 75.626C111.89 75.626 111.603 75.5205 111.363 75.3096C111.105 75.0928 110.976 74.8203 110.976 74.4922C110.976 73.7598 111.448 72.6582 112.391 71.1875C113.317 69.7461 114.193 68.7236 115.019 68.1201C114.457 67.6865 113.964 66.9775 113.542 65.9932C113.033 64.8096 112.546 64.2178 112.083 64.2178C111.837 64.2178 111.632 64.1035 111.468 63.875C111.333 63.6816 111.266 63.4678 111.266 63.2334C111.266 62.9521 111.459 62.7148 111.846 62.5215C112.168 62.3574 112.482 62.2754 112.787 62.2754C113.876 62.2754 114.749 62.9932 115.406 64.4287C115.505 64.7744 115.705 65.2783 116.003 65.9404C116.32 66.4326 116.803 66.7139 117.454 66.7842C117.395 65.4365 117.366 64.3936 117.366 63.6553C117.366 62.5537 117.785 62.0029 118.623 62.0029C118.974 62.0029 119.264 62.1143 119.493 62.3369C119.727 62.5537 119.844 62.8291 119.844 63.1631C119.844 63.6436 119.874 64.8594 119.932 66.8105C120.635 66.7461 121.139 66.4678 121.444 65.9756C121.661 65.46 121.877 64.9443 122.094 64.4287C122.745 62.999 123.615 62.2842 124.705 62.2842C125.009 62.2842 125.323 62.3633 125.645 62.5215C126.032 62.7148 126.225 62.9521 126.225 63.2334C126.225 63.4678 126.155 63.6846 126.014 63.8838C125.856 64.1064 125.654 64.2178 125.408 64.2178C124.945 64.2178 124.458 64.8096 123.949 65.9932C123.521 66.9775 123.029 67.6865 122.472 68.1201C123.298 68.7236 124.174 69.749 125.1 71.1963C126.043 72.6611 126.515 73.7598 126.515 74.4922C126.515 74.8203 126.389 75.0928 126.137 75.3096C125.885 75.5205 125.595 75.626 125.267 75.626ZM139.857 76.5049C139.857 76.5928 139.866 76.7217 139.883 76.8916C139.901 77.0674 139.91 77.1992 139.91 77.2871C139.91 77.6211 139.792 77.8994 139.558 78.1221C139.324 78.3447 139.031 78.4561 138.679 78.4561C138.146 78.4561 137.783 78.2363 137.589 77.7969C137.466 77.5156 137.405 77.085 137.405 76.5049C137.405 76.2939 137.422 76.0068 137.457 75.6436C136.737 75.6436 135.404 75.6553 133.458 75.6787C131.542 75.6963 130.212 75.7051 129.468 75.7051C129.451 76.502 129.442 76.9971 129.442 77.1904C129.442 77.5244 129.325 77.8027 129.09 78.0254C128.862 78.248 128.572 78.3594 128.22 78.3594C127.869 78.3594 127.576 78.248 127.341 78.0254C127.113 77.8027 126.999 77.5244 126.999 77.1904C126.999 76.9326 127.004 76.5459 127.016 76.0303C127.028 75.5146 127.034 75.1279 127.034 74.8701C126.993 74.6943 126.972 74.5918 126.972 74.5625C126.972 73.9648 127.394 73.584 128.238 73.4199C129.398 70.9473 129.978 68.2168 129.978 65.2285C129.978 65.0117 129.943 64.6953 129.873 64.2793C129.808 63.8574 129.776 63.5498 129.776 63.3564C129.776 62.583 130.332 62.1904 131.446 62.1787L135.911 62.1611C135.893 62.1611 136.347 62.1436 137.273 62.1084C137.46 62.0088 137.666 61.959 137.888 61.959C138.24 61.959 138.533 62.0703 138.767 62.293C139.001 62.5156 139.119 62.7939 139.119 63.1279C139.119 63.7197 139.127 64.6045 139.145 65.7822C139.163 66.9541 139.171 67.833 139.171 68.4189C139.171 69.415 139.139 71.0938 139.075 73.4551L139.145 73.4902C139.702 73.6543 139.98 74.0264 139.98 74.6064C139.98 74.8174 139.959 75.1338 139.918 75.5557C139.877 75.9775 139.857 76.2939 139.857 76.5049ZM136.675 64.499C136.341 64.5049 135.902 64.5049 135.357 64.499C134.677 64.4873 134.238 64.4814 134.039 64.4814C133.664 64.4814 133.127 64.4902 132.43 64.5078C132.43 64.5488 132.43 64.8037 132.43 65.2725C132.43 66.4502 132.301 67.7773 132.043 69.2539C131.756 70.8711 131.384 72.2217 130.927 73.3057C131.337 73.3057 131.988 73.2881 132.878 73.2529C133.728 73.2236 134.381 73.209 134.838 73.209C135.231 73.209 135.82 73.2236 136.605 73.2529C136.611 72.7314 136.631 71.9316 136.666 70.8535C136.702 69.8457 136.719 69.0342 136.719 68.4189C136.719 68.1904 136.705 66.8838 136.675 64.499ZM151.291 64.5781C151.145 64.8066 150.946 65.1523 150.694 65.6152C149.487 68.3457 148.432 70.6953 147.53 72.6641C146.557 74.791 144.849 75.8545 142.406 75.8545C142.054 75.8545 141.761 75.7432 141.527 75.5205C141.292 75.2979 141.175 75.0195 141.175 74.6855C141.175 74.2285 141.342 73.9121 141.676 73.7363C141.864 73.6367 142.23 73.5576 142.775 73.499C143.519 73.417 144.076 73.1855 144.445 72.8047C144.568 72.6816 144.896 72.1836 145.429 71.3105C144.486 70.1445 143.841 69.1631 143.496 68.3662C143.232 67.7686 142.787 67.0215 142.16 66.125C141.404 65.0527 140.92 64.3291 140.709 63.9541C140.592 63.7432 140.534 63.5381 140.534 63.3389C140.534 63.0166 140.657 62.7383 140.903 62.5039C141.155 62.2695 141.451 62.1523 141.791 62.1523C142.177 62.1523 142.526 62.3398 142.836 62.7148C143.059 63.0547 143.285 63.3945 143.513 63.7344C144.117 64.6016 144.53 65.208 144.752 65.5537C145.192 66.251 145.541 66.8955 145.798 67.4873C145.968 67.8857 146.247 68.3369 146.633 68.8408C147.02 67.9209 147.609 66.5469 148.4 64.7188C148.623 64.3262 148.942 63.7314 149.358 62.9346C149.598 62.4189 149.976 62.1611 150.492 62.1611C150.832 62.1611 151.124 62.2754 151.371 62.5039C151.623 62.7266 151.749 63.002 151.749 63.3301C151.749 63.6406 151.596 64.0566 151.291 64.5781ZM154.095 72.9102C153.767 72.9102 153.495 72.8076 153.278 72.6025C153.067 72.3975 152.961 72.1396 152.961 71.8291C152.961 71.6006 152.953 71.2607 152.935 70.8096C152.923 70.3525 152.917 70.0098 152.917 69.7812C152.917 68.9727 152.923 67.7598 152.935 66.1426C152.953 64.5254 152.961 63.3125 152.961 62.5039C152.961 62.1934 153.07 61.9355 153.287 61.7305C153.503 61.5195 153.773 61.4141 154.095 61.4141C154.417 61.4141 154.687 61.5195 154.904 61.7305C155.121 61.9355 155.229 62.1934 155.229 62.5039V71.8291C155.229 72.1396 155.121 72.3975 154.904 72.6025C154.693 72.8076 154.423 72.9102 154.095 72.9102ZM154.069 76.1006C153.717 76.1006 153.389 75.9131 153.084 75.5381C152.809 75.1924 152.671 74.8701 152.671 74.5713C152.671 74.2666 152.791 74.0117 153.032 73.8066C153.272 73.6016 153.544 73.499 153.849 73.499C154.201 73.499 154.526 73.6865 154.825 74.0615C155.1 74.4072 155.238 74.7266 155.238 75.0195C155.238 75.3184 155.118 75.5732 154.877 75.7842C154.643 75.9951 154.374 76.1006 154.069 76.1006Z" fill="black" fill-opacity="0.2"/>
<path d="M47.5805 75.8281C47.229 75.8281 46.936 75.7139 46.7016 75.4854C46.4673 75.251 46.3501 74.9668 46.3501 74.6328C46.3501 74.3164 46.3384 73.8418 46.3149 73.209C46.2915 72.5762 46.2798 72.1045 46.2798 71.7939C44.0884 72.4736 42.0434 73.7012 40.145 75.4766C39.8872 75.7227 39.5971 75.8457 39.2749 75.8457C38.935 75.8457 38.6421 75.7256 38.396 75.4854C38.1499 75.2451 38.0268 74.9639 38.0268 74.6416C38.0268 74.3604 38.1294 74.0996 38.3344 73.8594C39.143 72.9336 40.4585 71.958 42.2807 70.9326C40.0718 70.1182 38.9673 68.9609 38.9673 67.4609C38.9673 65.6035 40.2182 64.042 42.7202 62.7764C43.2944 62.4893 43.9917 62.293 44.812 62.1875C44.8764 62.1816 45.6059 62.126 47.0005 62.0205C47.5278 61.9795 47.9409 62.1582 48.2397 62.5566C48.4682 62.8672 48.5825 63.2129 48.5825 63.5938C48.5825 64.3906 48.6118 65.5771 48.6704 67.1533C48.7348 68.7295 48.7671 69.9102 48.7671 70.6953C48.7671 71.1348 48.7759 71.791 48.7934 72.6641C48.811 73.5371 48.8198 74.1934 48.8198 74.6328C48.8198 74.9668 48.6997 75.251 48.4594 75.4854C48.2251 75.7139 47.9321 75.8281 47.5805 75.8281ZM46.0952 64.499C45.8901 64.5107 45.5854 64.5342 45.1811 64.5693C44.3081 64.6572 43.4761 64.9912 42.685 65.5713C41.853 66.1748 41.437 66.8047 41.437 67.4609C41.437 67.5898 41.563 67.7803 41.8149 68.0322C42.0669 68.2842 42.3393 68.4863 42.6323 68.6387C43.3237 68.9961 44.3901 69.1748 45.8315 69.1748C45.9136 69.1748 46.0483 69.1719 46.2358 69.166C46.23 68.873 46.2007 68.1289 46.1479 66.9336C46.1069 65.9609 46.0893 65.1494 46.0952 64.499ZM68.6655 64.9824C68.2085 64.9824 67.4966 64.9502 66.5298 64.8857C65.5981 64.8213 64.8862 64.792 64.394 64.7979C64.4175 65.4658 64.4966 66.6553 64.6313 68.3662C64.7544 69.8779 64.8159 71.0732 64.8159 71.9521C64.8159 72.1514 64.8364 72.4473 64.8774 72.8398C64.9184 73.2324 64.9389 73.5283 64.9389 73.7275C64.9389 74.167 64.8452 74.5625 64.6577 74.9141C64.4175 75.3652 64.0747 75.5908 63.6294 75.5908C63.3071 75.5908 63.0229 75.4883 62.7768 75.2832C62.5014 75.0547 62.3637 74.7676 62.3637 74.4219C62.3637 74.3398 62.3784 74.2168 62.4077 74.0527C62.437 73.8828 62.4516 73.7539 62.4516 73.666C62.4516 73.3965 62.4311 72.9893 62.3901 72.4443C62.355 71.8994 62.3374 71.4893 62.3374 71.2139C62.3374 70.4287 62.2759 69.3652 62.1528 68.0234C62.0122 66.4824 61.9302 65.4189 61.9067 64.833H61.4497C60.143 64.833 59.1059 64.7393 58.3384 64.5518C57.688 64.3936 57.3628 64.0098 57.3628 63.4004C57.3628 63.1016 57.4682 62.832 57.6792 62.5918C57.9253 62.3047 58.2475 62.1758 58.646 62.2051C58.8511 62.2168 59.3169 62.2666 60.0434 62.3545C60.6235 62.4189 61.0923 62.4512 61.4497 62.4512C61.8071 62.4512 62.3403 62.4453 63.0493 62.4336C63.7641 62.4219 64.3003 62.416 64.6577 62.416C65.103 62.416 65.771 62.4482 66.6616 62.5127C67.5522 62.5713 68.2202 62.6006 68.6655 62.6006C69.0171 62.6006 69.31 62.7148 69.5444 62.9434C69.7846 63.1719 69.9048 63.4531 69.9048 63.7871C69.9048 64.1211 69.7846 64.4053 69.5444 64.6396C69.31 64.8682 69.0171 64.9824 68.6655 64.9824ZM79.5552 64.2529C79.438 64.2529 79.3149 64.2354 79.186 64.2002C78.2368 63.9424 77.3139 63.8135 76.4175 63.8135C75.978 63.8135 75.5063 63.8486 75.0024 63.9189C74.4985 63.9893 73.9624 64.0947 73.394 64.2354C73.394 65.0146 73.3677 66.1719 73.3149 67.707C73.643 67.6836 74.7886 67.5752 76.7514 67.3818C77.8706 67.2705 78.5796 67.2148 78.8784 67.2148C79.2241 67.2148 79.52 67.3262 79.7661 67.5488C80.0122 67.7656 80.1352 68.0557 80.1352 68.4189C80.1352 69.1162 79.7632 69.5117 79.019 69.6055C78.5503 69.6406 77.8501 69.6992 76.9184 69.7812C76.0864 69.875 74.8325 69.9893 73.1567 70.124C73.1157 70.8682 73.0952 71.4688 73.0952 71.9258C73.0952 73.0742 73.1626 73.7275 73.2973 73.8857C73.3618 73.9619 73.7309 74 74.4048 74C74.768 74 75.3159 73.9912 76.0483 73.9736C76.7807 73.9561 77.3286 73.9473 77.6919 73.9473C77.8091 73.9473 77.9819 73.9297 78.2104 73.8945C78.4389 73.8594 78.6089 73.8418 78.7202 73.8418C79.06 73.8418 79.3501 73.9385 79.5903 74.1318C79.8657 74.3486 80.0034 74.6533 80.0034 75.0459C80.0034 75.7021 79.6606 76.0947 78.9751 76.2236C78.3891 76.335 77.1733 76.3906 75.3276 76.3906C73.4175 76.3906 72.1723 76.1328 71.5923 75.6172C70.9536 75.0488 70.6343 73.8184 70.6343 71.9258C70.6343 71.1406 70.6899 69.9629 70.8012 68.3926C70.9184 66.8164 70.977 65.6387 70.977 64.8594C70.977 64.6543 70.9477 64.3525 70.8891 63.9541C70.8305 63.5498 70.8012 63.2451 70.8012 63.04C70.8012 62.1494 71.2114 61.7041 72.0317 61.7041C72.2895 61.7041 72.5268 61.7773 72.7436 61.9238C73.4233 61.7539 74.0678 61.6279 74.6772 61.5459C75.2925 61.458 75.8725 61.4141 76.4175 61.4141C77.894 61.4141 79.0747 61.584 79.9594 61.9238C80.4985 62.1289 80.768 62.501 80.768 63.04C80.768 63.3447 80.6626 63.6143 80.4516 63.8486C80.2173 64.1182 79.9184 64.2529 79.5552 64.2529ZM86.0151 75.6436C85.7397 75.6436 85.3618 75.6318 84.8813 75.6084C84.3305 75.585 83.9526 75.5703 83.7475 75.5645C83.6186 75.5996 83.4897 75.6172 83.3608 75.6172C82.4995 75.6172 82.0688 75.0137 82.0688 73.8066C82.0688 73.6484 82.1098 73.1533 82.1919 72.3213C82.3032 71.2197 82.3589 70.1885 82.3589 69.2275C82.3589 68.665 82.3296 67.8271 82.271 66.7139C82.2124 65.6006 82.1831 64.7627 82.1831 64.2002C82.1831 63.4854 82.2417 63.0166 82.3589 62.7939C82.5639 62.4014 83.0268 62.2051 83.7475 62.2051C84.187 62.2051 84.8491 62.1963 85.7339 62.1787C86.6245 62.1553 87.2925 62.1436 87.7378 62.1436H89.9526C90.3042 62.1436 90.5942 62.2549 90.8227 62.4775C91.0571 62.6943 91.1743 62.9697 91.1743 63.3037C91.1743 63.6377 91.0571 63.916 90.8227 64.1387C90.5942 64.3555 90.3042 64.4639 89.9526 64.4639C89.3139 64.4639 87.5561 64.4844 84.6792 64.5254C84.7085 65.2578 84.7524 66.0576 84.811 66.9248C85.1157 66.9131 85.3677 66.9072 85.5669 66.9072C87.4302 66.9072 88.8012 67.1855 89.6802 67.7422C90.7876 68.4336 91.3413 69.6494 91.3413 71.3896C91.3413 72.8662 90.8022 73.9707 89.7241 74.7031C88.8042 75.3301 87.5678 75.6436 86.0151 75.6436ZM85.9448 69.21C85.6577 69.21 85.2915 69.2246 84.8462 69.2539C84.852 69.3828 84.855 69.5176 84.855 69.6582C84.855 70.291 84.7876 71.5039 84.6528 73.2969C85.2036 73.3086 85.6577 73.3145 86.0151 73.3145C87.9311 73.3145 88.8891 72.6729 88.8891 71.3896C88.8891 70.499 88.643 69.9014 88.1509 69.5967C87.7524 69.3389 87.0171 69.21 85.9448 69.21ZM101.37 75.8281C101.018 75.8281 100.725 75.7139 100.491 75.4854C100.256 75.251 100.139 74.9668 100.139 74.6328C100.139 74.3164 100.127 73.8418 100.104 73.209C100.081 72.5762 100.069 72.1045 100.069 71.7939C97.8774 72.4736 95.8325 73.7012 93.9341 75.4766C93.6762 75.7227 93.3862 75.8457 93.0639 75.8457C92.7241 75.8457 92.4311 75.7256 92.185 75.4854C91.9389 75.2451 91.8159 74.9639 91.8159 74.6416C91.8159 74.3604 91.9184 74.0996 92.1235 73.8594C92.9321 72.9336 94.2475 71.958 96.0698 70.9326C93.8608 70.1182 92.7563 68.9609 92.7563 67.4609C92.7563 65.6035 94.0073 64.042 96.5093 62.7764C97.0835 62.4893 97.7807 62.293 98.6011 62.1875C98.6655 62.1816 99.395 62.126 100.79 62.0205C101.317 61.9795 101.73 62.1582 102.029 62.5566C102.257 62.8672 102.372 63.2129 102.372 63.5938C102.372 64.3906 102.401 65.5771 102.459 67.1533C102.524 68.7295 102.556 69.9102 102.556 70.6953C102.556 71.1348 102.565 71.791 102.582 72.6641C102.6 73.5371 102.609 74.1934 102.609 74.6328C102.609 74.9668 102.489 75.251 102.249 75.4854C102.014 75.7139 101.721 75.8281 101.37 75.8281ZM99.8843 64.499C99.6792 64.5107 99.3745 64.5342 98.9702 64.5693C98.0971 64.6572 97.2651 64.9912 96.4741 65.5713C95.6421 66.1748 95.2261 66.8047 95.2261 67.4609C95.2261 67.5898 95.352 67.7803 95.604 68.0322C95.8559 68.2842 96.1284 68.4863 96.4214 68.6387C97.1128 68.9961 98.1792 69.1748 99.6206 69.1748C99.7026 69.1748 99.8374 69.1719 100.025 69.166C100.019 68.873 99.9897 68.1289 99.937 66.9336C99.896 65.9609 99.8784 65.1494 99.8843 64.499ZM125.267 75.626C124.693 75.626 124.3 75.3242 124.089 74.7207C123.861 74.0703 123.292 73.0361 122.384 71.6182C121.353 70.0127 120.632 69.2041 120.222 69.1924C120.146 69.1865 120.055 69.1836 119.95 69.1836C119.95 69.5 119.947 70.0244 119.941 70.7568C119.935 71.4424 119.932 71.9639 119.932 72.3213C119.932 72.415 119.938 72.6055 119.95 72.8926C119.967 73.1797 119.976 73.4082 119.976 73.5781C119.976 74.9668 119.54 75.6611 118.666 75.6611C118.321 75.6611 118.028 75.5557 117.788 75.3447C117.553 75.1338 117.436 74.8584 117.436 74.5186C117.436 74.1025 117.454 73.4756 117.489 72.6377C117.524 71.7998 117.541 71.1729 117.541 70.7568C117.541 70.1943 117.539 69.6699 117.533 69.1836H117.26C116.85 69.1836 116.132 69.9922 115.107 71.6094C114.193 73.0332 113.622 74.0703 113.393 74.7207C113.182 75.3242 112.792 75.626 112.224 75.626C111.89 75.626 111.603 75.5205 111.363 75.3096C111.105 75.0928 110.976 74.8203 110.976 74.4922C110.976 73.7598 111.448 72.6582 112.391 71.1875C113.317 69.7461 114.193 68.7236 115.019 68.1201C114.457 67.6865 113.964 66.9775 113.542 65.9932C113.033 64.8096 112.546 64.2178 112.083 64.2178C111.837 64.2178 111.632 64.1035 111.468 63.875C111.333 63.6816 111.266 63.4678 111.266 63.2334C111.266 62.9521 111.459 62.7148 111.846 62.5215C112.168 62.3574 112.482 62.2754 112.787 62.2754C113.876 62.2754 114.749 62.9932 115.406 64.4287C115.505 64.7744 115.705 65.2783 116.003 65.9404C116.32 66.4326 116.803 66.7139 117.454 66.7842C117.395 65.4365 117.366 64.3936 117.366 63.6553C117.366 62.5537 117.785 62.0029 118.623 62.0029C118.974 62.0029 119.264 62.1143 119.493 62.3369C119.727 62.5537 119.844 62.8291 119.844 63.1631C119.844 63.6436 119.874 64.8594 119.932 66.8105C120.635 66.7461 121.139 66.4678 121.444 65.9756C121.661 65.46 121.877 64.9443 122.094 64.4287C122.745 62.999 123.615 62.2842 124.705 62.2842C125.009 62.2842 125.323 62.3633 125.645 62.5215C126.032 62.7148 126.225 62.9521 126.225 63.2334C126.225 63.4678 126.155 63.6846 126.014 63.8838C125.856 64.1064 125.654 64.2178 125.408 64.2178C124.945 64.2178 124.458 64.8096 123.949 65.9932C123.521 66.9775 123.029 67.6865 122.472 68.1201C123.298 68.7236 124.174 69.749 125.1 71.1963C126.043 72.6611 126.515 73.7598 126.515 74.4922C126.515 74.8203 126.389 75.0928 126.137 75.3096C125.885 75.5205 125.595 75.626 125.267 75.626ZM139.857 76.5049C139.857 76.5928 139.866 76.7217 139.883 76.8916C139.901 77.0674 139.91 77.1992 139.91 77.2871C139.91 77.6211 139.792 77.8994 139.558 78.1221C139.324 78.3447 139.031 78.4561 138.679 78.4561C138.146 78.4561 137.783 78.2363 137.589 77.7969C137.466 77.5156 137.405 77.085 137.405 76.5049C137.405 76.2939 137.422 76.0068 137.457 75.6436C136.737 75.6436 135.404 75.6553 133.458 75.6787C131.542 75.6963 130.212 75.7051 129.468 75.7051C129.451 76.502 129.442 76.9971 129.442 77.1904C129.442 77.5244 129.325 77.8027 129.09 78.0254C128.862 78.248 128.572 78.3594 128.22 78.3594C127.869 78.3594 127.576 78.248 127.341 78.0254C127.113 77.8027 126.999 77.5244 126.999 77.1904C126.999 76.9326 127.004 76.5459 127.016 76.0303C127.028 75.5146 127.034 75.1279 127.034 74.8701C126.993 74.6943 126.972 74.5918 126.972 74.5625C126.972 73.9648 127.394 73.584 128.238 73.4199C129.398 70.9473 129.978 68.2168 129.978 65.2285C129.978 65.0117 129.943 64.6953 129.873 64.2793C129.808 63.8574 129.776 63.5498 129.776 63.3564C129.776 62.583 130.332 62.1904 131.446 62.1787L135.911 62.1611C135.893 62.1611 136.347 62.1436 137.273 62.1084C137.46 62.0088 137.666 61.959 137.888 61.959C138.24 61.959 138.533 62.0703 138.767 62.293C139.001 62.5156 139.119 62.7939 139.119 63.1279C139.119 63.7197 139.127 64.6045 139.145 65.7822C139.163 66.9541 139.171 67.833 139.171 68.4189C139.171 69.415 139.139 71.0938 139.075 73.4551L139.145 73.4902C139.702 73.6543 139.98 74.0264 139.98 74.6064C139.98 74.8174 139.959 75.1338 139.918 75.5557C139.877 75.9775 139.857 76.2939 139.857 76.5049ZM136.675 64.499C136.341 64.5049 135.902 64.5049 135.357 64.499C134.677 64.4873 134.238 64.4814 134.039 64.4814C133.664 64.4814 133.127 64.4902 132.43 64.5078C132.43 64.5488 132.43 64.8037 132.43 65.2725C132.43 66.4502 132.301 67.7773 132.043 69.2539C131.756 70.8711 131.384 72.2217 130.927 73.3057C131.337 73.3057 131.988 73.2881 132.878 73.2529C133.728 73.2236 134.381 73.209 134.838 73.209C135.231 73.209 135.82 73.2236 136.605 73.2529C136.611 72.7314 136.631 71.9316 136.666 70.8535C136.702 69.8457 136.719 69.0342 136.719 68.4189C136.719 68.1904 136.705 66.8838 136.675 64.499ZM151.291 64.5781C151.145 64.8066 150.946 65.1523 150.694 65.6152C149.487 68.3457 148.432 70.6953 147.53 72.6641C146.557 74.791 144.849 75.8545 142.406 75.8545C142.054 75.8545 141.761 75.7432 141.527 75.5205C141.292 75.2979 141.175 75.0195 141.175 74.6855C141.175 74.2285 141.342 73.9121 141.676 73.7363C141.864 73.6367 142.23 73.5576 142.775 73.499C143.519 73.417 144.076 73.1855 144.445 72.8047C144.568 72.6816 144.896 72.1836 145.429 71.3105C144.486 70.1445 143.841 69.1631 143.496 68.3662C143.232 67.7686 142.787 67.0215 142.16 66.125C141.404 65.0527 140.92 64.3291 140.709 63.9541C140.592 63.7432 140.534 63.5381 140.534 63.3389C140.534 63.0166 140.657 62.7383 140.903 62.5039C141.155 62.2695 141.451 62.1523 141.791 62.1523C142.177 62.1523 142.526 62.3398 142.836 62.7148C143.059 63.0547 143.285 63.3945 143.513 63.7344C144.117 64.6016 144.53 65.208 144.752 65.5537C145.192 66.251 145.541 66.8955 145.798 67.4873C145.968 67.8857 146.247 68.3369 146.633 68.8408C147.02 67.9209 147.609 66.5469 148.4 64.7188C148.623 64.3262 148.942 63.7314 149.358 62.9346C149.598 62.4189 149.976 62.1611 150.492 62.1611C150.832 62.1611 151.124 62.2754 151.371 62.5039C151.623 62.7266 151.749 63.002 151.749 63.3301C151.749 63.6406 151.596 64.0566 151.291 64.5781ZM154.095 72.9102C153.767 72.9102 153.495 72.8076 153.278 72.6025C153.067 72.3975 152.961 72.1396 152.961 71.8291C152.961 71.6006 152.953 71.2607 152.935 70.8096C152.923 70.3525 152.917 70.0098 152.917 69.7812C152.917 68.9727 152.923 67.7598 152.935 66.1426C152.953 64.5254 152.961 63.3125 152.961 62.5039C152.961 62.1934 153.07 61.9355 153.287 61.7305C153.503 61.5195 153.773 61.4141 154.095 61.4141C154.417 61.4141 154.687 61.5195 154.904 61.7305C155.121 61.9355 155.229 62.1934 155.229 62.5039V71.8291C155.229 72.1396 155.121 72.3975 154.904 72.6025C154.693 72.8076 154.423 72.9102 154.095 72.9102ZM154.069 76.1006C153.717 76.1006 153.389 75.9131 153.084 75.5381C152.809 75.1924 152.671 74.8701 152.671 74.5713C152.671 74.2666 152.791 74.0117 153.032 73.8066C153.272 73.6016 153.544 73.499 153.849 73.499C154.201 73.499 154.526 73.6865 154.825 74.0615C155.1 74.4072 155.238 74.7266 155.238 75.0195C155.238 75.3184 155.118 75.5732 154.877 75.7842C154.643 75.9951 154.374 76.1006 154.069 76.1006Z" fill="black" fill-opacity="0.2"/>
<path d="M47.5805 75.8281C47.229 75.8281 46.936 75.7139 46.7016 75.4854C46.4673 75.251 46.3501 74.9668 46.3501 74.6328C46.3501 74.3164 46.3384 73.8418 46.3149 73.209C46.2915 72.5762 46.2798 72.1045 46.2798 71.7939C44.0884 72.4736 42.0434 73.7012 40.145 75.4766C39.8872 75.7227 39.5971 75.8457 39.2749 75.8457C38.935 75.8457 38.6421 75.7256 38.396 75.4854C38.1499 75.2451 38.0268 74.9639 38.0268 74.6416C38.0268 74.3604 38.1294 74.0996 38.3344 73.8594C39.143 72.9336 40.4585 71.958 42.2807 70.9326C40.0718 70.1182 38.9673 68.9609 38.9673 67.4609C38.9673 65.6035 40.2182 64.042 42.7202 62.7764C43.2944 62.4893 43.9917 62.293 44.812 62.1875C44.8764 62.1816 45.6059 62.126 47.0005 62.0205C47.5278 61.9795 47.9409 62.1582 48.2397 62.5566C48.4682 62.8672 48.5825 63.2129 48.5825 63.5938C48.5825 64.3906 48.6118 65.5771 48.6704 67.1533C48.7348 68.7295 48.7671 69.9102 48.7671 70.6953C48.7671 71.1348 48.7759 71.791 48.7934 72.6641C48.811 73.5371 48.8198 74.1934 48.8198 74.6328C48.8198 74.9668 48.6997 75.251 48.4594 75.4854C48.2251 75.7139 47.9321 75.8281 47.5805 75.8281ZM46.0952 64.499C45.8901 64.5107 45.5854 64.5342 45.1811 64.5693C44.3081 64.6572 43.4761 64.9912 42.685 65.5713C41.853 66.1748 41.437 66.8047 41.437 67.4609C41.437 67.5898 41.563 67.7803 41.8149 68.0322C42.0669 68.2842 42.3393 68.4863 42.6323 68.6387C43.3237 68.9961 44.3901 69.1748 45.8315 69.1748C45.9136 69.1748 46.0483 69.1719 46.2358 69.166C46.23 68.873 46.2007 68.1289 46.1479 66.9336C46.1069 65.9609 46.0893 65.1494 46.0952 64.499ZM68.6655 64.9824C68.2085 64.9824 67.4966 64.9502 66.5298 64.8857C65.5981 64.8213 64.8862 64.792 64.394 64.7979C64.4175 65.4658 64.4966 66.6553 64.6313 68.3662C64.7544 69.8779 64.8159 71.0732 64.8159 71.9521C64.8159 72.1514 64.8364 72.4473 64.8774 72.8398C64.9184 73.2324 64.9389 73.5283 64.9389 73.7275C64.9389 74.167 64.8452 74.5625 64.6577 74.9141C64.4175 75.3652 64.0747 75.5908 63.6294 75.5908C63.3071 75.5908 63.0229 75.4883 62.7768 75.2832C62.5014 75.0547 62.3637 74.7676 62.3637 74.4219C62.3637 74.3398 62.3784 74.2168 62.4077 74.0527C62.437 73.8828 62.4516 73.7539 62.4516 73.666C62.4516 73.3965 62.4311 72.9893 62.3901 72.4443C62.355 71.8994 62.3374 71.4893 62.3374 71.2139C62.3374 70.4287 62.2759 69.3652 62.1528 68.0234C62.0122 66.4824 61.9302 65.4189 61.9067 64.833H61.4497C60.143 64.833 59.1059 64.7393 58.3384 64.5518C57.688 64.3936 57.3628 64.0098 57.3628 63.4004C57.3628 63.1016 57.4682 62.832 57.6792 62.5918C57.9253 62.3047 58.2475 62.1758 58.646 62.2051C58.8511 62.2168 59.3169 62.2666 60.0434 62.3545C60.6235 62.4189 61.0923 62.4512 61.4497 62.4512C61.8071 62.4512 62.3403 62.4453 63.0493 62.4336C63.7641 62.4219 64.3003 62.416 64.6577 62.416C65.103 62.416 65.771 62.4482 66.6616 62.5127C67.5522 62.5713 68.2202 62.6006 68.6655 62.6006C69.0171 62.6006 69.31 62.7148 69.5444 62.9434C69.7846 63.1719 69.9048 63.4531 69.9048 63.7871C69.9048 64.1211 69.7846 64.4053 69.5444 64.6396C69.31 64.8682 69.0171 64.9824 68.6655 64.9824ZM79.5552 64.2529C79.438 64.2529 79.3149 64.2354 79.186 64.2002C78.2368 63.9424 77.3139 63.8135 76.4175 63.8135C75.978 63.8135 75.5063 63.8486 75.0024 63.9189C74.4985 63.9893 73.9624 64.0947 73.394 64.2354C73.394 65.0146 73.3677 66.1719 73.3149 67.707C73.643 67.6836 74.7886 67.5752 76.7514 67.3818C77.8706 67.2705 78.5796 67.2148 78.8784 67.2148C79.2241 67.2148 79.52 67.3262 79.7661 67.5488C80.0122 67.7656 80.1352 68.0557 80.1352 68.4189C80.1352 69.1162 79.7632 69.5117 79.019 69.6055C78.5503 69.6406 77.8501 69.6992 76.9184 69.7812C76.0864 69.875 74.8325 69.9893 73.1567 70.124C73.1157 70.8682 73.0952 71.4688 73.0952 71.9258C73.0952 73.0742 73.1626 73.7275 73.2973 73.8857C73.3618 73.9619 73.7309 74 74.4048 74C74.768 74 75.3159 73.9912 76.0483 73.9736C76.7807 73.9561 77.3286 73.9473 77.6919 73.9473C77.8091 73.9473 77.9819 73.9297 78.2104 73.8945C78.4389 73.8594 78.6089 73.8418 78.7202 73.8418C79.06 73.8418 79.3501 73.9385 79.5903 74.1318C79.8657 74.3486 80.0034 74.6533 80.0034 75.0459C80.0034 75.7021 79.6606 76.0947 78.9751 76.2236C78.3891 76.335 77.1733 76.3906 75.3276 76.3906C73.4175 76.3906 72.1723 76.1328 71.5923 75.6172C70.9536 75.0488 70.6343 73.8184 70.6343 71.9258C70.6343 71.1406 70.6899 69.9629 70.8012 68.3926C70.9184 66.8164 70.977 65.6387 70.977 64.8594C70.977 64.6543 70.9477 64.3525 70.8891 63.9541C70.8305 63.5498 70.8012 63.2451 70.8012 63.04C70.8012 62.1494 71.2114 61.7041 72.0317 61.7041C72.2895 61.7041 72.5268 61.7773 72.7436 61.9238C73.4233 61.7539 74.0678 61.6279 74.6772 61.5459C75.2925 61.458 75.8725 61.4141 76.4175 61.4141C77.894 61.4141 79.0747 61.584 79.9594 61.9238C80.4985 62.1289 80.768 62.501 80.768 63.04C80.768 63.3447 80.6626 63.6143 80.4516 63.8486C80.2173 64.1182 79.9184 64.2529 79.5552 64.2529ZM86.0151 75.6436C85.7397 75.6436 85.3618 75.6318 84.8813 75.6084C84.3305 75.585 83.9526 75.5703 83.7475 75.5645C83.6186 75.5996 83.4897 75.6172 83.3608 75.6172C82.4995 75.6172 82.0688 75.0137 82.0688 73.8066C82.0688 73.6484 82.1098 73.1533 82.1919 72.3213C82.3032 71.2197 82.3589 70.1885 82.3589 69.2275C82.3589 68.665 82.3296 67.8271 82.271 66.7139C82.2124 65.6006 82.1831 64.7627 82.1831 64.2002C82.1831 63.4854 82.2417 63.0166 82.3589 62.7939C82.5639 62.4014 83.0268 62.2051 83.7475 62.2051C84.187 62.2051 84.8491 62.1963 85.7339 62.1787C86.6245 62.1553 87.2925 62.1436 87.7378 62.1436H89.9526C90.3042 62.1436 90.5942 62.2549 90.8227 62.4775C91.0571 62.6943 91.1743 62.9697 91.1743 63.3037C91.1743 63.6377 91.0571 63.916 90.8227 64.1387C90.5942 64.3555 90.3042 64.4639 89.9526 64.4639C89.3139 64.4639 87.5561 64.4844 84.6792 64.5254C84.7085 65.2578 84.7524 66.0576 84.811 66.9248C85.1157 66.9131 85.3677 66.9072 85.5669 66.9072C87.4302 66.9072 88.8012 67.1855 89.6802 67.7422C90.7876 68.4336 91.3413 69.6494 91.3413 71.3896C91.3413 72.8662 90.8022 73.9707 89.7241 74.7031C88.8042 75.3301 87.5678 75.6436 86.0151 75.6436ZM85.9448 69.21C85.6577 69.21 85.2915 69.2246 84.8462 69.2539C84.852 69.3828 84.855 69.5176 84.855 69.6582C84.855 70.291 84.7876 71.5039 84.6528 73.2969C85.2036 73.3086 85.6577 73.3145 86.0151 73.3145C87.9311 73.3145 88.8891 72.6729 88.8891 71.3896C88.8891 70.499 88.643 69.9014 88.1509 69.5967C87.7524 69.3389 87.0171 69.21 85.9448 69.21ZM101.37 75.8281C101.018 75.8281 100.725 75.7139 100.491 75.4854C100.256 75.251 100.139 74.9668 100.139 74.6328C100.139 74.3164 100.127 73.8418 100.104 73.209C100.081 72.5762 100.069 72.1045 100.069 71.7939C97.8774 72.4736 95.8325 73.7012 93.9341 75.4766C93.6762 75.7227 93.3862 75.8457 93.0639 75.8457C92.7241 75.8457 92.4311 75.7256 92.185 75.4854C91.9389 75.2451 91.8159 74.9639 91.8159 74.6416C91.8159 74.3604 91.9184 74.0996 92.1235 73.8594C92.9321 72.9336 94.2475 71.958 96.0698 70.9326C93.8608 70.1182 92.7563 68.9609 92.7563 67.4609C92.7563 65.6035 94.0073 64.042 96.5093 62.7764C97.0835 62.4893 97.7807 62.293 98.6011 62.1875C98.6655 62.1816 99.395 62.126 100.79 62.0205C101.317 61.9795 101.73 62.1582 102.029 62.5566C102.257 62.8672 102.372 63.2129 102.372 63.5938C102.372 64.3906 102.401 65.5771 102.459 67.1533C102.524 68.7295 102.556 69.9102 102.556 70.6953C102.556 71.1348 102.565 71.791 102.582 72.6641C102.6 73.5371 102.609 74.1934 102.609 74.6328C102.609 74.9668 102.489 75.251 102.249 75.4854C102.014 75.7139 101.721 75.8281 101.37 75.8281ZM99.8843 64.499C99.6792 64.5107 99.3745 64.5342 98.9702 64.5693C98.0971 64.6572 97.2651 64.9912 96.4741 65.5713C95.6421 66.1748 95.2261 66.8047 95.2261 67.4609C95.2261 67.5898 95.352 67.7803 95.604 68.0322C95.8559 68.2842 96.1284 68.4863 96.4214 68.6387C97.1128 68.9961 98.1792 69.1748 99.6206 69.1748C99.7026 69.1748 99.8374 69.1719 100.025 69.166C100.019 68.873 99.9897 68.1289 99.937 66.9336C99.896 65.9609 99.8784 65.1494 99.8843 64.499ZM125.267 75.626C124.693 75.626 124.3 75.3242 124.089 74.7207C123.861 74.0703 123.292 73.0361 122.384 71.6182C121.353 70.0127 120.632 69.2041 120.222 69.1924C120.146 69.1865 120.055 69.1836 119.95 69.1836C119.95 69.5 119.947 70.0244 119.941 70.7568C119.935 71.4424 119.932 71.9639 119.932 72.3213C119.932 72.415 119.938 72.6055 119.95 72.8926C119.967 73.1797 119.976 73.4082 119.976 73.5781C119.976 74.9668 119.54 75.6611 118.666 75.6611C118.321 75.6611 118.028 75.5557 117.788 75.3447C117.553 75.1338 117.436 74.8584 117.436 74.5186C117.436 74.1025 117.454 73.4756 117.489 72.6377C117.524 71.7998 117.541 71.1729 117.541 70.7568C117.541 70.1943 117.539 69.6699 117.533 69.1836H117.26C116.85 69.1836 116.132 69.9922 115.107 71.6094C114.193 73.0332 113.622 74.0703 113.393 74.7207C113.182 75.3242 112.792 75.626 112.224 75.626C111.89 75.626 111.603 75.5205 111.363 75.3096C111.105 75.0928 110.976 74.8203 110.976 74.4922C110.976 73.7598 111.448 72.6582 112.391 71.1875C113.317 69.7461 114.193 68.7236 115.019 68.1201C114.457 67.6865 113.964 66.9775 113.542 65.9932C113.033 64.8096 112.546 64.2178 112.083 64.2178C111.837 64.2178 111.632 64.1035 111.468 63.875C111.333 63.6816 111.266 63.4678 111.266 63.2334C111.266 62.9521 111.459 62.7148 111.846 62.5215C112.168 62.3574 112.482 62.2754 112.787 62.2754C113.876 62.2754 114.749 62.9932 115.406 64.4287C115.505 64.7744 115.705 65.2783 116.003 65.9404C116.32 66.4326 116.803 66.7139 117.454 66.7842C117.395 65.4365 117.366 64.3936 117.366 63.6553C117.366 62.5537 117.785 62.0029 118.623 62.0029C118.974 62.0029 119.264 62.1143 119.493 62.3369C119.727 62.5537 119.844 62.8291 119.844 63.1631C119.844 63.6436 119.874 64.8594 119.932 66.8105C120.635 66.7461 121.139 66.4678 121.444 65.9756C121.661 65.46 121.877 64.9443 122.094 64.4287C122.745 62.999 123.615 62.2842 124.705 62.2842C125.009 62.2842 125.323 62.3633 125.645 62.5215C126.032 62.7148 126.225 62.9521 126.225 63.2334C126.225 63.4678 126.155 63.6846 126.014 63.8838C125.856 64.1064 125.654 64.2178 125.408 64.2178C124.945 64.2178 124.458 64.8096 123.949 65.9932C123.521 66.9775 123.029 67.6865 122.472 68.1201C123.298 68.7236 124.174 69.749 125.1 71.1963C126.043 72.6611 126.515 73.7598 126.515 74.4922C126.515 74.8203 126.389 75.0928 126.137 75.3096C125.885 75.5205 125.595 75.626 125.267 75.626ZM139.857 76.5049C139.857 76.5928 139.866 76.7217 139.883 76.8916C139.901 77.0674 139.91 77.1992 139.91 77.2871C139.91 77.6211 139.792 77.8994 139.558 78.1221C139.324 78.3447 139.031 78.4561 138.679 78.4561C138.146 78.4561 137.783 78.2363 137.589 77.7969C137.466 77.5156 137.405 77.085 137.405 76.5049C137.405 76.2939 137.422 76.0068 137.457 75.6436C136.737 75.6436 135.404 75.6553 133.458 75.6787C131.542 75.6963 130.212 75.7051 129.468 75.7051C129.451 76.502 129.442 76.9971 129.442 77.1904C129.442 77.5244 129.325 77.8027 129.09 78.0254C128.862 78.248 128.572 78.3594 128.22 78.3594C127.869 78.3594 127.576 78.248 127.341 78.0254C127.113 77.8027 126.999 77.5244 126.999 77.1904C126.999 76.9326 127.004 76.5459 127.016 76.0303C127.028 75.5146 127.034 75.1279 127.034 74.8701C126.993 74.6943 126.972 74.5918 126.972 74.5625C126.972 73.9648 127.394 73.584 128.238 73.4199C129.398 70.9473 129.978 68.2168 129.978 65.2285C129.978 65.0117 129.943 64.6953 129.873 64.2793C129.808 63.8574 129.776 63.5498 129.776 63.3564C129.776 62.583 130.332 62.1904 131.446 62.1787L135.911 62.1611C135.893 62.1611 136.347 62.1436 137.273 62.1084C137.46 62.0088 137.666 61.959 137.888 61.959C138.24 61.959 138.533 62.0703 138.767 62.293C139.001 62.5156 139.119 62.7939 139.119 63.1279C139.119 63.7197 139.127 64.6045 139.145 65.7822C139.163 66.9541 139.171 67.833 139.171 68.4189C139.171 69.415 139.139 71.0938 139.075 73.4551L139.145 73.4902C139.702 73.6543 139.98 74.0264 139.98 74.6064C139.98 74.8174 139.959 75.1338 139.918 75.5557C139.877 75.9775 139.857 76.2939 139.857 76.5049ZM136.675 64.499C136.341 64.5049 135.902 64.5049 135.357 64.499C134.677 64.4873 134.238 64.4814 134.039 64.4814C133.664 64.4814 133.127 64.4902 132.43 64.5078C132.43 64.5488 132.43 64.8037 132.43 65.2725C132.43 66.4502 132.301 67.7773 132.043 69.2539C131.756 70.8711 131.384 72.2217 130.927 73.3057C131.337 73.3057 131.988 73.2881 132.878 73.2529C133.728 73.2236 134.381 73.209 134.838 73.209C135.231 73.209 135.82 73.2236 136.605 73.2529C136.611 72.7314 136.631 71.9316 136.666 70.8535C136.702 69.8457 136.719 69.0342 136.719 68.4189C136.719 68.1904 136.705 66.8838 136.675 64.499ZM151.291 64.5781C151.145 64.8066 150.946 65.1523 150.694 65.6152C149.487 68.3457 148.432 70.6953 147.53 72.6641C146.557 74.791 144.849 75.8545 142.406 75.8545C142.054 75.8545 141.761 75.7432 141.527 75.5205C141.292 75.2979 141.175 75.0195 141.175 74.6855C141.175 74.2285 141.342 73.9121 141.676 73.7363C141.864 73.6367 142.23 73.5576 142.775 73.499C143.519 73.417 144.076 73.1855 144.445 72.8047C144.568 72.6816 144.896 72.1836 145.429 71.3105C144.486 70.1445 143.841 69.1631 143.496 68.3662C143.232 67.7686 142.787 67.0215 142.16 66.125C141.404 65.0527 140.92 64.3291 140.709 63.9541C140.592 63.7432 140.534 63.5381 140.534 63.3389C140.534 63.0166 140.657 62.7383 140.903 62.5039C141.155 62.2695 141.451 62.1523 141.791 62.1523C142.177 62.1523 142.526 62.3398 142.836 62.7148C143.059 63.0547 143.285 63.3945 143.513 63.7344C144.117 64.6016 144.53 65.208 144.752 65.5537C145.192 66.251 145.541 66.8955 145.798 67.4873C145.968 67.8857 146.247 68.3369 146.633 68.8408C147.02 67.9209 147.609 66.5469 148.4 64.7188C148.623 64.3262 148.942 63.7314 149.358 62.9346C149.598 62.4189 149.976 62.1611 150.492 62.1611C150.832 62.1611 151.124 62.2754 151.371 62.5039C151.623 62.7266 151.749 63.002 151.749 63.3301C151.749 63.6406 151.596 64.0566 151.291 64.5781ZM154.095 72.9102C153.767 72.9102 153.495 72.8076 153.278 72.6025C153.067 72.3975 152.961 72.1396 152.961 71.8291C152.961 71.6006 152.953 71.2607 152.935 70.8096C152.923 70.3525 152.917 70.0098 152.917 69.7812C152.917 68.9727 152.923 67.7598 152.935 66.1426C152.953 64.5254 152.961 63.3125 152.961 62.5039C152.961 62.1934 153.07 61.9355 153.287 61.7305C153.503 61.5195 153.773 61.4141 154.095 61.4141C154.417 61.4141 154.687 61.5195 154.904 61.7305C155.121 61.9355 155.229 62.1934 155.229 62.5039V71.8291C155.229 72.1396 155.121 72.3975 154.904 72.6025C154.693 72.8076 154.423 72.9102 154.095 72.9102ZM154.069 76.1006C153.717 76.1006 153.389 75.9131 153.084 75.5381C152.809 75.1924 152.671 74.8701 152.671 74.5713C152.671 74.2666 152.791 74.0117 153.032 73.8066C153.272 73.6016 153.544 73.499 153.849 73.499C154.201 73.499 154.526 73.6865 154.825 74.0615C155.1 74.4072 155.238 74.7266 155.238 75.0195C155.238 75.3184 155.118 75.5732 154.877 75.7842C154.643 75.9951 154.374 76.1006 154.069 76.1006Z" fill="black" fill-opacity="0.2"/>
<path d="M148.927 126.841C145.3 126.841 142.595 127.685 140.834 128.972C139.108 130.233 138.226 131.957 138.226 133.975C138.226 136.108 139.207 139.175 141.112 141.705C143 144.211 145.654 146.014 148.927 146.014C152.525 146.014 155.721 145.07 157.976 143.615C160.244 142.152 161.411 140.289 161.411 138.434C161.411 136.252 160.609 133.329 158.654 130.976C156.738 128.669 153.662 126.841 148.927 126.841Z" fill="white" stroke="#97A483" stroke-width="2.67532"/>
<path d="M165.87 151.572C163.332 151.572 160.938 152.97 159.14 155.014C157.334 157.068 156.283 159.603 156.283 161.605C156.284 165.44 160.319 168.962 165.87 168.962C171.422 168.962 175.457 165.44 175.457 161.605C175.457 159.603 174.406 157.068 172.6 155.014C170.802 152.97 168.409 151.572 165.87 151.572Z" fill="white" stroke="#97A483" stroke-width="2.22944"/>
<path d="M183.259 169.955C181.511 169.955 179.791 171.049 178.452 172.707C177.11 174.369 176.348 176.359 176.348 177.759C176.348 180.346 179.166 182.887 183.259 182.887C187.353 182.887 190.171 180.346 190.171 177.759C190.171 176.359 189.41 174.369 188.068 172.707C186.728 171.048 185.008 169.955 183.259 169.955Z" fill="white" stroke="#97A483" stroke-width="2.22944"/>
</svg>
