<svg width="166" height="166" viewBox="0 0 166 166" fill="none" xmlns="http://www.w3.org/2000/svg">
<mask id="mask0_801_6034" style="mask-type:luminance" maskUnits="userSpaceOnUse" x="0" y="0" width="166" height="166">
<path d="M18.9635 0.397217H147.068C157.184 0.397217 165.389 8.60193 165.389 18.7179V146.822C165.389 156.938 157.184 165.143 147.068 165.143H18.9635C8.84753 165.143 0.642822 156.938 0.642822 146.822V18.7179C0.658361 8.60193 8.84753 0.397217 18.9635 0.397217Z" fill="white"/>
</mask>
<g mask="url(#mask0_801_6034)">
<path d="M18.964 0.38147H146.944C157.06 0.38147 165.265 8.58618 165.265 18.7021V146.682C165.265 156.798 157.06 165.003 146.944 165.003H18.964C8.84802 165.003 0.643311 156.798 0.643311 146.682V18.7021C0.65885 8.57064 8.84802 0.38147 18.964 0.38147Z" fill="white"/>
</g>
<path d="M55.5272 10.3579H50.5391V15.3459H55.5272V10.3579Z" fill="black"/>
<path d="M90.444 10.3579H85.4561V15.3459H90.444V10.3579Z" fill="black"/>
<path d="M95.4314 10.3579H90.4434V15.3459H95.4314V10.3579Z" fill="black"/>
<path d="M100.42 10.3579H95.4314V15.3459H100.42V10.3579Z" fill="black"/>
<path d="M105.408 10.3579H100.42V15.3459H105.408V10.3579Z" fill="black"/>
<path d="M110.396 10.3579H105.408V15.3459H110.396V10.3579Z" fill="black"/>
<path d="M115.384 10.3579H110.396V15.3459H115.384V10.3579Z" fill="black"/>
<path d="M55.5272 15.3459H50.5391V20.334H55.5272V15.3459Z" fill="black"/>
<path d="M60.5156 15.3459H55.5276V20.334H60.5156V15.3459Z" fill="black"/>
<path d="M65.5036 15.3459H60.5156V20.334H65.5036V15.3459Z" fill="black"/>
<path d="M70.4918 15.3459H65.5037V20.334H70.4918V15.3459Z" fill="black"/>
<path d="M75.4797 15.3459H70.4917V20.334H75.4797V15.3459Z" fill="black"/>
<path d="M85.4555 15.3459H80.4673V20.334H85.4555V15.3459Z" fill="black"/>
<path d="M90.444 15.3459H85.4561V20.334H90.444V15.3459Z" fill="black"/>
<path d="M100.42 15.3459H95.4314V20.334H100.42V15.3459Z" fill="black"/>
<path d="M115.384 15.3459H110.396V20.334H115.384V15.3459Z" fill="black"/>
<path d="M60.5156 20.334H55.5276V25.3221H60.5156V20.334Z" fill="black"/>
<path d="M65.5036 20.334H60.5156V25.3221H65.5036V20.334Z" fill="black"/>
<path d="M70.4918 20.334H65.5037V25.3221H70.4918V20.334Z" fill="black"/>
<path d="M80.468 20.334H75.48V25.3221H80.468V20.334Z" fill="black"/>
<path d="M85.4555 20.334H80.4673V25.3221H85.4555V20.334Z" fill="black"/>
<path d="M90.444 20.334H85.4561V25.3221H90.444V20.334Z" fill="black"/>
<path d="M105.408 20.334H100.42V25.3221H105.408V20.334Z" fill="black"/>
<path d="M110.396 20.334H105.408V25.3221H110.396V20.334Z" fill="black"/>
<path d="M55.5272 25.322H50.5391V30.31H55.5272V25.322Z" fill="black"/>
<path d="M60.5156 25.322H55.5276V30.31H60.5156V25.322Z" fill="black"/>
<path d="M70.4918 25.322H65.5037V30.31H70.4918V25.322Z" fill="black"/>
<path d="M75.4797 25.322H70.4917V30.31H75.4797V25.322Z" fill="black"/>
<path d="M95.4314 25.322H90.4434V30.31H95.4314V25.322Z" fill="black"/>
<path d="M100.42 25.322H95.4314V30.31H100.42V25.322Z" fill="black"/>
<path d="M115.384 25.322H110.396V30.31H115.384V25.322Z" fill="black"/>
<path d="M65.5036 30.3098H60.5156V35.2979H65.5036V30.3098Z" fill="black"/>
<path d="M75.4797 30.3098H70.4917V35.2979H75.4797V30.3098Z" fill="black"/>
<path d="M80.468 30.3098H75.48V35.2979H80.468V30.3098Z" fill="black"/>
<path d="M110.396 30.3098H105.408V35.2979H110.396V30.3098Z" fill="black"/>
<path d="M85.4555 35.2983H80.4673V40.2864H85.4555V35.2983Z" fill="black"/>
<path d="M100.42 35.2983H95.4314V40.2864H100.42V35.2983Z" fill="black"/>
<path d="M105.408 35.2983H100.42V40.2864H105.408V35.2983Z" fill="black"/>
<path d="M110.396 35.2983H105.408V40.2864H110.396V35.2983Z" fill="black"/>
<path d="M115.384 35.2983H110.396V40.2864H115.384V35.2983Z" fill="black"/>
<path d="M55.5272 40.2861H50.5391V45.2741H55.5272V40.2861Z" fill="black"/>
<path d="M65.5036 40.2861H60.5156V45.2741H65.5036V40.2861Z" fill="black"/>
<path d="M75.4797 40.2861H70.4917V45.2741H75.4797V40.2861Z" fill="black"/>
<path d="M85.4555 40.2861H80.4673V45.2741H85.4555V40.2861Z" fill="black"/>
<path d="M95.4314 40.2861H90.4434V45.2741H95.4314V40.2861Z" fill="black"/>
<path d="M105.408 40.2861H100.42V45.2741H105.408V40.2861Z" fill="black"/>
<path d="M115.384 40.2861H110.396V45.2741H115.384V40.2861Z" fill="black"/>
<path d="M55.5272 45.2742H50.5391V50.2623H55.5272V45.2742Z" fill="black"/>
<path d="M60.5156 45.2742H55.5276V50.2623H60.5156V45.2742Z" fill="black"/>
<path d="M70.4918 45.2742H65.5037V50.2623H70.4918V45.2742Z" fill="black"/>
<path d="M80.468 45.2742H75.48V50.2623H80.468V45.2742Z" fill="black"/>
<path d="M85.4555 45.2742H80.4673V50.2623H85.4555V45.2742Z" fill="black"/>
<path d="M100.42 45.2742H95.4314V50.2623H100.42V45.2742Z" fill="black"/>
<path d="M15.6228 50.2622H10.6348V55.2502H15.6228V50.2622Z" fill="black"/>
<path d="M25.599 50.2622H20.6108V55.2502H25.599V50.2622Z" fill="black"/>
<path d="M30.5869 50.2622H25.5989V55.2502H30.5869V50.2622Z" fill="black"/>
<path d="M40.5631 50.2622H35.575V55.2502H40.5631V50.2622Z" fill="black"/>
<path d="M45.551 50.2622H40.563V55.2502H45.551V50.2622Z" fill="black"/>
<path d="M50.539 50.2622H45.551V55.2502H50.539V50.2622Z" fill="black"/>
<path d="M60.5156 50.2622H55.5276V55.2502H60.5156V50.2622Z" fill="black"/>
<path d="M70.4918 50.2622H65.5037V55.2502H70.4918V50.2622Z" fill="black"/>
<path d="M75.4797 50.2622H70.4917V55.2502H75.4797V50.2622Z" fill="black"/>
<path d="M80.468 50.2622H75.48V55.2502H80.468V50.2622Z" fill="black"/>
<path d="M85.4555 50.2622H80.4673V55.2502H85.4555V50.2622Z" fill="black"/>
<path d="M95.4314 50.2622H90.4434V55.2502H95.4314V50.2622Z" fill="black"/>
<path d="M100.42 50.2622H95.4314V55.2502H100.42V50.2622Z" fill="black"/>
<path d="M105.408 50.2622H100.42V55.2502H105.408V50.2622Z" fill="black"/>
<path d="M125.36 50.2622H120.372V55.2502H125.36V50.2622Z" fill="black"/>
<path d="M140.324 50.2622H135.336V55.2502H140.324V50.2622Z" fill="black"/>
<path d="M150.3 50.2622H145.312V55.2502H150.3V50.2622Z" fill="black"/>
<path d="M155.288 50.2622H150.3V55.2502H155.288V50.2622Z" fill="black"/>
<path d="M25.599 55.2504H20.6108V60.2385H25.599V55.2504Z" fill="black"/>
<path d="M50.539 55.2504H45.551V60.2385H50.539V55.2504Z" fill="black"/>
<path d="M60.5156 55.2504H55.5276V60.2385H60.5156V55.2504Z" fill="black"/>
<path d="M70.4918 55.2504H65.5037V60.2385H70.4918V55.2504Z" fill="black"/>
<path d="M90.444 55.2504H85.4561V60.2385H90.444V55.2504Z" fill="black"/>
<path d="M95.4314 55.2504H90.4434V60.2385H95.4314V55.2504Z" fill="black"/>
<path d="M105.408 55.2504H100.42V60.2385H105.408V55.2504Z" fill="black"/>
<path d="M110.396 55.2504H105.408V60.2385H110.396V55.2504Z" fill="black"/>
<path d="M115.384 55.2504H110.396V60.2385H115.384V55.2504Z" fill="black"/>
<path d="M120.372 55.2504H115.384V60.2385H120.372V55.2504Z" fill="black"/>
<path d="M125.36 55.2504H120.372V60.2385H125.36V55.2504Z" fill="black"/>
<path d="M130.349 55.2504H125.36V60.2385H130.349V55.2504Z" fill="black"/>
<path d="M135.336 55.2504H130.348V60.2385H135.336V55.2504Z" fill="black"/>
<path d="M155.288 55.2504H150.3V60.2385H155.288V55.2504Z" fill="black"/>
<path d="M15.6228 60.2384H10.6348V65.2265H15.6228V60.2384Z" fill="black"/>
<path d="M25.599 60.2384H20.6108V65.2265H25.599V60.2384Z" fill="black"/>
<path d="M30.5869 60.2384H25.5989V65.2265H30.5869V60.2384Z" fill="black"/>
<path d="M35.5749 60.2384H30.5869V65.2265H35.5749V60.2384Z" fill="black"/>
<path d="M45.551 60.2384H40.563V65.2265H45.551V60.2384Z" fill="black"/>
<path d="M50.539 60.2384H45.551V65.2265H50.539V60.2384Z" fill="black"/>
<path d="M85.4555 60.2384H80.4673V65.2265H85.4555V60.2384Z" fill="black"/>
<path d="M90.444 60.2384H85.4561V65.2265H90.444V60.2384Z" fill="black"/>
<path d="M105.408 60.2384H100.42V65.2265H105.408V60.2384Z" fill="black"/>
<path d="M125.36 60.2384H120.372V65.2265H125.36V60.2384Z" fill="black"/>
<path d="M145.312 60.2384H140.324V65.2265H145.312V60.2384Z" fill="black"/>
<path d="M150.3 60.2384H145.312V65.2265H150.3V60.2384Z" fill="black"/>
<path d="M20.6113 65.2267H15.6233V70.2147H20.6113V65.2267Z" fill="black"/>
<path d="M25.599 65.2267H20.6108V70.2147H25.599V65.2267Z" fill="black"/>
<path d="M35.5749 65.2267H30.5869V70.2147H35.5749V65.2267Z" fill="black"/>
<path d="M55.5272 65.2267H50.5391V70.2147H55.5272V65.2267Z" fill="black"/>
<path d="M60.5156 65.2267H55.5276V70.2147H60.5156V65.2267Z" fill="black"/>
<path d="M65.5036 65.2267H60.5156V70.2147H65.5036V65.2267Z" fill="black"/>
<path d="M70.4918 65.2267H65.5037V70.2147H70.4918V65.2267Z" fill="black"/>
<path d="M80.468 65.2267H75.48V70.2147H80.468V65.2267Z" fill="black"/>
<path d="M85.4555 65.2267H80.4673V70.2147H85.4555V65.2267Z" fill="black"/>
<path d="M90.444 65.2267H85.4561V70.2147H90.444V65.2267Z" fill="black"/>
<path d="M105.408 65.2267H100.42V70.2147H105.408V65.2267Z" fill="black"/>
<path d="M110.396 65.2267H105.408V70.2147H110.396V65.2267Z" fill="black"/>
<path d="M120.372 65.2267H115.384V70.2147H120.372V65.2267Z" fill="black"/>
<path d="M135.336 65.2267H130.348V70.2147H135.336V65.2267Z" fill="black"/>
<path d="M155.288 65.2267H150.3V70.2147H155.288V65.2267Z" fill="black"/>
<path d="M20.6113 70.2147H15.6233V75.2028H20.6113V70.2147Z" fill="black"/>
<path d="M30.5869 70.2147H25.5989V75.2028H30.5869V70.2147Z" fill="black"/>
<path d="M35.5749 70.2147H30.5869V75.2028H35.5749V70.2147Z" fill="black"/>
<path d="M40.5631 70.2147H35.575V75.2028H40.5631V70.2147Z" fill="black"/>
<path d="M45.551 70.2147H40.563V75.2028H45.551V70.2147Z" fill="black"/>
<path d="M50.539 70.2147H45.551V75.2028H50.539V70.2147Z" fill="black"/>
<path d="M55.5272 70.2147H50.5391V75.2028H55.5272V70.2147Z" fill="black"/>
<path d="M95.4314 70.2147H90.4434V75.2028H95.4314V70.2147Z" fill="black"/>
<path d="M100.42 70.2147H95.4314V75.2028H100.42V70.2147Z" fill="black"/>
<path d="M105.408 70.2147H100.42V75.2028H105.408V70.2147Z" fill="black"/>
<path d="M130.349 70.2147H125.36V75.2028H130.349V70.2147Z" fill="black"/>
<path d="M140.324 70.2147H135.336V75.2028H140.324V70.2147Z" fill="black"/>
<path d="M145.312 70.2147H140.324V75.2028H145.312V70.2147Z" fill="black"/>
<path d="M20.6113 75.2025H15.6233V80.1906H20.6113V75.2025Z" fill="black"/>
<path d="M30.5869 75.2025H25.5989V80.1906H30.5869V75.2025Z" fill="black"/>
<path d="M50.539 75.2025H45.551V80.1906H50.539V75.2025Z" fill="black"/>
<path d="M60.5156 75.2025H55.5276V80.1906H60.5156V75.2025Z" fill="black"/>
<path d="M75.4797 75.2025H70.4917V80.1906H75.4797V75.2025Z" fill="black"/>
<path d="M80.468 75.2025H75.48V80.1906H80.468V75.2025Z" fill="black"/>
<path d="M110.396 75.2025H105.408V80.1906H110.396V75.2025Z" fill="black"/>
<path d="M125.36 75.2025H120.372V80.1906H125.36V75.2025Z" fill="black"/>
<path d="M145.312 75.2025H140.324V80.1906H145.312V75.2025Z" fill="black"/>
<path d="M150.3 75.2025H145.312V80.1906H150.3V75.2025Z" fill="black"/>
<path d="M155.288 75.2025H150.3V80.1906H155.288V75.2025Z" fill="black"/>
<path d="M20.6113 80.1908H15.6233V85.1788H20.6113V80.1908Z" fill="black"/>
<path d="M40.5631 80.1908H35.575V85.1788H40.5631V80.1908Z" fill="black"/>
<path d="M45.551 80.1908H40.563V85.1788H45.551V80.1908Z" fill="black"/>
<path d="M60.5156 80.1908H55.5276V85.1788H60.5156V80.1908Z" fill="black"/>
<path d="M65.5036 80.1908H60.5156V85.1788H65.5036V80.1908Z" fill="black"/>
<path d="M85.4555 80.1908H80.4673V85.1788H85.4555V80.1908Z" fill="black"/>
<path d="M100.42 80.1908H95.4314V85.1788H100.42V80.1908Z" fill="black"/>
<path d="M105.408 80.1908H100.42V85.1788H105.408V80.1908Z" fill="black"/>
<path d="M110.396 80.1908H105.408V85.1788H110.396V80.1908Z" fill="black"/>
<path d="M135.336 80.1908H130.348V85.1788H135.336V80.1908Z" fill="black"/>
<path d="M145.312 80.1908H140.324V85.1788H145.312V80.1908Z" fill="black"/>
<path d="M150.3 80.1908H145.312V85.1788H150.3V80.1908Z" fill="black"/>
<path d="M155.288 80.1908H150.3V85.1788H155.288V80.1908Z" fill="black"/>
<path d="M15.6228 85.1786H10.6348V90.1667H15.6228V85.1786Z" fill="black"/>
<path d="M25.599 85.1786H20.6108V90.1667H25.599V85.1786Z" fill="black"/>
<path d="M30.5869 85.1786H25.5989V90.1667H30.5869V85.1786Z" fill="black"/>
<path d="M60.5156 85.1786H55.5276V90.1667H60.5156V85.1786Z" fill="black"/>
<path d="M65.5036 85.1786H60.5156V90.1667H65.5036V85.1786Z" fill="black"/>
<path d="M80.468 85.1786H75.48V90.1667H80.468V85.1786Z" fill="black"/>
<path d="M90.444 85.1786H85.4561V90.1667H90.444V85.1786Z" fill="black"/>
<path d="M105.408 85.1786H100.42V90.1667H105.408V85.1786Z" fill="black"/>
<path d="M115.384 85.1786H110.396V90.1667H115.384V85.1786Z" fill="black"/>
<path d="M135.336 85.1786H130.348V90.1667H135.336V85.1786Z" fill="black"/>
<path d="M150.3 85.1786H145.312V90.1667H150.3V85.1786Z" fill="black"/>
<path d="M25.599 90.167H20.6108V95.1551H25.599V90.167Z" fill="black"/>
<path d="M30.5869 90.167H25.5989V95.1551H30.5869V90.167Z" fill="black"/>
<path d="M45.551 90.167H40.563V95.1551H45.551V90.167Z" fill="black"/>
<path d="M60.5156 90.167H55.5276V95.1551H60.5156V90.167Z" fill="black"/>
<path d="M105.408 90.167H100.42V95.1551H105.408V90.167Z" fill="black"/>
<path d="M110.396 90.167H105.408V95.1551H110.396V90.167Z" fill="black"/>
<path d="M115.384 90.167H110.396V95.1551H115.384V90.167Z" fill="black"/>
<path d="M120.372 90.167H115.384V95.1551H120.372V90.167Z" fill="black"/>
<path d="M135.336 90.167H130.348V95.1551H135.336V90.167Z" fill="black"/>
<path d="M140.324 90.167H135.336V95.1551H140.324V90.167Z" fill="black"/>
<path d="M150.3 90.167H145.312V95.1551H150.3V90.167Z" fill="black"/>
<path d="M20.6113 95.1547H15.6233V100.143H20.6113V95.1547Z" fill="black"/>
<path d="M25.599 95.1547H20.6108V100.143H25.599V95.1547Z" fill="black"/>
<path d="M40.5631 95.1547H35.575V100.143H40.5631V95.1547Z" fill="black"/>
<path d="M50.539 95.1547H45.551V100.143H50.539V95.1547Z" fill="black"/>
<path d="M60.5156 95.1547H55.5276V100.143H60.5156V95.1547Z" fill="black"/>
<path d="M70.4918 95.1547H65.5037V100.143H70.4918V95.1547Z" fill="black"/>
<path d="M75.4797 95.1547H70.4917V100.143H75.4797V95.1547Z" fill="black"/>
<path d="M80.468 95.1547H75.48V100.143H80.468V95.1547Z" fill="black"/>
<path d="M105.408 95.1547H100.42V100.143H105.408V95.1547Z" fill="black"/>
<path d="M115.384 95.1547H110.396V100.143H115.384V95.1547Z" fill="black"/>
<path d="M130.349 95.1547H125.36V100.143H130.349V95.1547Z" fill="black"/>
<path d="M140.324 95.1547H135.336V100.143H140.324V95.1547Z" fill="black"/>
<path d="M145.312 95.1547H140.324V100.143H145.312V95.1547Z" fill="black"/>
<path d="M150.3 95.1547H145.312V100.143H150.3V95.1547Z" fill="black"/>
<path d="M15.6228 100.142H10.6348V105.131H15.6228V100.142Z" fill="black"/>
<path d="M25.599 100.142H20.6108V105.131H25.599V100.142Z" fill="black"/>
<path d="M45.551 100.142H40.563V105.131H45.551V100.142Z" fill="black"/>
<path d="M50.539 100.142H45.551V105.131H50.539V100.142Z" fill="black"/>
<path d="M55.5272 100.142H50.5391V105.131H55.5272V100.142Z" fill="black"/>
<path d="M65.5036 100.142H60.5156V105.131H65.5036V100.142Z" fill="black"/>
<path d="M70.4918 100.142H65.5037V105.131H70.4918V100.142Z" fill="black"/>
<path d="M75.4797 100.142H70.4917V105.131H75.4797V100.142Z" fill="black"/>
<path d="M100.42 100.142H95.4314V105.131H100.42V100.142Z" fill="black"/>
<path d="M105.408 100.142H100.42V105.131H105.408V100.142Z" fill="black"/>
<path d="M115.384 100.142H110.396V105.131H115.384V100.142Z" fill="black"/>
<path d="M125.36 100.142H120.372V105.131H125.36V100.142Z" fill="black"/>
<path d="M130.349 100.142H125.36V105.131H130.349V100.142Z" fill="black"/>
<path d="M135.336 100.142H130.348V105.131H135.336V100.142Z" fill="black"/>
<path d="M145.312 100.142H140.324V105.131H145.312V100.142Z" fill="black"/>
<path d="M50.539 105.131H45.551V110.119H50.539V105.131Z" fill="black"/>
<path d="M55.5272 105.131H50.5391V110.119H55.5272V105.131Z" fill="black"/>
<path d="M60.5156 105.131H55.5276V110.119H60.5156V105.131Z" fill="black"/>
<path d="M65.5036 105.131H60.5156V110.119H65.5036V105.131Z" fill="black"/>
<path d="M70.4918 105.131H65.5037V110.119H70.4918V105.131Z" fill="black"/>
<path d="M90.444 105.131H85.4561V110.119H90.444V105.131Z" fill="black"/>
<path d="M95.4314 105.131H90.4434V110.119H95.4314V105.131Z" fill="black"/>
<path d="M100.42 105.131H95.4314V110.119H100.42V105.131Z" fill="black"/>
<path d="M110.396 105.131H105.408V110.119H110.396V105.131Z" fill="black"/>
<path d="M125.36 105.131H120.372V110.119H125.36V105.131Z" fill="black"/>
<path d="M145.312 105.131H140.324V110.119H145.312V105.131Z" fill="black"/>
<path d="M20.6113 110.119H15.6233V115.107H20.6113V110.119Z" fill="black"/>
<path d="M25.599 110.119H20.6108V115.107H25.599V110.119Z" fill="black"/>
<path d="M40.5631 110.119H35.575V115.107H40.5631V110.119Z" fill="black"/>
<path d="M45.551 110.119H40.563V115.107H45.551V110.119Z" fill="black"/>
<path d="M65.5036 110.119H60.5156V115.107H65.5036V110.119Z" fill="black"/>
<path d="M75.4797 110.119H70.4917V115.107H75.4797V110.119Z" fill="black"/>
<path d="M80.468 110.119H75.48V115.107H80.468V110.119Z" fill="black"/>
<path d="M90.444 110.119H85.4561V115.107H90.444V110.119Z" fill="black"/>
<path d="M100.42 110.119H95.4314V115.107H100.42V110.119Z" fill="black"/>
<path d="M105.408 110.119H100.42V115.107H105.408V110.119Z" fill="black"/>
<path d="M110.396 110.119H105.408V115.107H110.396V110.119Z" fill="black"/>
<path d="M115.384 110.119H110.396V115.107H115.384V110.119Z" fill="black"/>
<path d="M120.372 110.119H115.384V115.107H120.372V110.119Z" fill="black"/>
<path d="M125.36 110.119H120.372V115.107H125.36V110.119Z" fill="black"/>
<path d="M130.349 110.119H125.36V115.107H130.349V110.119Z" fill="black"/>
<path d="M135.336 110.119H130.348V115.107H135.336V110.119Z" fill="black"/>
<path d="M140.324 110.119H135.336V115.107H140.324V110.119Z" fill="black"/>
<path d="M145.312 110.119H140.324V115.107H145.312V110.119Z" fill="black"/>
<path d="M55.5272 115.107H50.5391V120.095H55.5272V115.107Z" fill="black"/>
<path d="M60.5156 115.107H55.5276V120.095H60.5156V115.107Z" fill="black"/>
<path d="M70.4918 115.107H65.5037V120.095H70.4918V115.107Z" fill="black"/>
<path d="M75.4797 115.107H70.4917V120.095H75.4797V115.107Z" fill="black"/>
<path d="M80.468 115.107H75.48V120.095H80.468V115.107Z" fill="black"/>
<path d="M85.4555 115.107H80.4673V120.095H85.4555V115.107Z" fill="black"/>
<path d="M90.444 115.107H85.4561V120.095H90.444V115.107Z" fill="black"/>
<path d="M115.384 115.107H110.396V120.095H115.384V115.107Z" fill="black"/>
<path d="M135.336 115.107H130.348V120.095H135.336V115.107Z" fill="black"/>
<path d="M140.324 115.107H135.336V120.095H140.324V115.107Z" fill="black"/>
<path d="M145.312 115.107H140.324V120.095H145.312V115.107Z" fill="black"/>
<path d="M150.3 115.107H145.312V120.095H150.3V115.107Z" fill="black"/>
<path d="M155.288 115.107H150.3V120.095H155.288V115.107Z" fill="black"/>
<path d="M55.5272 120.095H50.5391V125.083H55.5272V120.095Z" fill="black"/>
<path d="M60.5156 120.095H55.5276V125.083H60.5156V120.095Z" fill="black"/>
<path d="M65.5036 120.095H60.5156V125.083H65.5036V120.095Z" fill="black"/>
<path d="M75.4797 120.095H70.4917V125.083H75.4797V120.095Z" fill="black"/>
<path d="M80.468 120.095H75.48V125.083H80.468V120.095Z" fill="black"/>
<path d="M95.4314 120.095H90.4434V125.083H95.4314V120.095Z" fill="black"/>
<path d="M100.42 120.095H95.4314V125.083H100.42V120.095Z" fill="black"/>
<path d="M105.408 120.095H100.42V125.083H105.408V120.095Z" fill="black"/>
<path d="M110.396 120.095H105.408V125.083H110.396V120.095Z" fill="black"/>
<path d="M115.384 120.095H110.396V125.083H115.384V120.095Z" fill="black"/>
<path d="M125.36 120.095H120.372V125.083H125.36V120.095Z" fill="black"/>
<path d="M135.336 120.095H130.348V125.083H135.336V120.095Z" fill="black"/>
<path d="M140.324 120.095H135.336V125.083H140.324V120.095Z" fill="black"/>
<path d="M150.3 120.095H145.312V125.083H150.3V120.095Z" fill="black"/>
<path d="M55.5272 125.083H50.5391V130.071H55.5272V125.083Z" fill="black"/>
<path d="M60.5156 125.083H55.5276V130.071H60.5156V125.083Z" fill="black"/>
<path d="M70.4918 125.083H65.5037V130.071H70.4918V125.083Z" fill="black"/>
<path d="M75.4797 125.083H70.4917V130.071H75.4797V125.083Z" fill="black"/>
<path d="M95.4314 125.083H90.4434V130.071H95.4314V125.083Z" fill="black"/>
<path d="M105.408 125.083H100.42V130.071H105.408V125.083Z" fill="black"/>
<path d="M115.384 125.083H110.396V130.071H115.384V125.083Z" fill="black"/>
<path d="M135.336 125.083H130.348V130.071H135.336V125.083Z" fill="black"/>
<path d="M140.324 125.083H135.336V130.071H140.324V125.083Z" fill="black"/>
<path d="M150.3 125.083H145.312V130.071H150.3V125.083Z" fill="black"/>
<path d="M155.288 125.083H150.3V130.071H155.288V125.083Z" fill="black"/>
<path d="M65.5036 130.071H60.5156V135.059H65.5036V130.071Z" fill="black"/>
<path d="M85.4555 130.071H80.4673V135.059H85.4555V130.071Z" fill="black"/>
<path d="M90.444 130.071H85.4561V135.059H90.444V130.071Z" fill="black"/>
<path d="M100.42 130.071H95.4314V135.059H100.42V130.071Z" fill="black"/>
<path d="M105.408 130.071H100.42V135.059H105.408V130.071Z" fill="black"/>
<path d="M115.384 130.071H110.396V135.059H115.384V130.071Z" fill="black"/>
<path d="M120.372 130.071H115.384V135.059H120.372V130.071Z" fill="black"/>
<path d="M125.36 130.071H120.372V135.059H125.36V130.071Z" fill="black"/>
<path d="M130.349 130.071H125.36V135.059H130.349V130.071Z" fill="black"/>
<path d="M135.336 130.071H130.348V135.059H135.336V130.071Z" fill="black"/>
<path d="M145.312 130.071H140.324V135.059H145.312V130.071Z" fill="black"/>
<path d="M155.288 130.071H150.3V135.059H155.288V130.071Z" fill="black"/>
<path d="M55.5272 135.059H50.5391V140.047H55.5272V135.059Z" fill="black"/>
<path d="M60.5156 135.059H55.5276V140.047H60.5156V135.059Z" fill="black"/>
<path d="M65.5036 135.059H60.5156V140.047H65.5036V135.059Z" fill="black"/>
<path d="M70.4918 135.059H65.5037V140.047H70.4918V135.059Z" fill="black"/>
<path d="M80.468 135.059H75.48V140.047H80.468V135.059Z" fill="black"/>
<path d="M85.4555 135.059H80.4673V140.047H85.4555V135.059Z" fill="black"/>
<path d="M95.4314 135.059H90.4434V140.047H95.4314V135.059Z" fill="black"/>
<path d="M110.396 135.059H105.408V140.047H110.396V135.059Z" fill="black"/>
<path d="M115.384 135.059H110.396V140.047H115.384V135.059Z" fill="black"/>
<path d="M120.372 135.059H115.384V140.047H120.372V135.059Z" fill="black"/>
<path d="M135.336 135.059H130.348V140.047H135.336V135.059Z" fill="black"/>
<path d="M140.324 135.059H135.336V140.047H140.324V135.059Z" fill="black"/>
<path d="M150.3 135.059H145.312V140.047H150.3V135.059Z" fill="black"/>
<path d="M55.5272 140.047H50.5391V145.035H55.5272V140.047Z" fill="black"/>
<path d="M60.5156 140.047H55.5276V145.035H60.5156V140.047Z" fill="black"/>
<path d="M70.4918 140.047H65.5037V145.035H70.4918V140.047Z" fill="black"/>
<path d="M75.4797 140.047H70.4917V145.035H75.4797V140.047Z" fill="black"/>
<path d="M85.4555 140.047H80.4673V145.035H85.4555V140.047Z" fill="black"/>
<path d="M90.444 140.047H85.4561V145.035H90.444V140.047Z" fill="black"/>
<path d="M95.4314 140.047H90.4434V145.035H95.4314V140.047Z" fill="black"/>
<path d="M100.42 140.047H95.4314V145.035H100.42V140.047Z" fill="black"/>
<path d="M105.408 140.047H100.42V145.035H105.408V140.047Z" fill="black"/>
<path d="M115.384 140.047H110.396V145.035H115.384V140.047Z" fill="black"/>
<path d="M130.349 140.047H125.36V145.035H130.349V140.047Z" fill="black"/>
<path d="M145.312 140.047H140.324V145.035H145.312V140.047Z" fill="black"/>
<path d="M155.288 140.047H150.3V145.035H155.288V140.047Z" fill="black"/>
<path d="M65.5036 145.036H60.5156V150.024H65.5036V145.036Z" fill="black"/>
<path d="M80.468 145.036H75.48V150.024H80.468V145.036Z" fill="black"/>
<path d="M85.4555 145.036H80.4673V150.024H85.4555V145.036Z" fill="black"/>
<path d="M95.4314 145.036H90.4434V150.024H95.4314V145.036Z" fill="black"/>
<path d="M115.384 145.036H110.396V150.024H115.384V145.036Z" fill="black"/>
<path d="M125.36 145.036H120.372V150.024H125.36V145.036Z" fill="black"/>
<path d="M135.336 145.036H130.348V150.024H135.336V145.036Z" fill="black"/>
<path d="M140.324 145.036H135.336V150.024H140.324V145.036Z" fill="black"/>
<path d="M150.3 145.036H145.312V150.024H150.3V145.036Z" fill="black"/>
<path d="M55.5272 150.023H50.5391V155.011H55.5272V150.023Z" fill="black"/>
<path d="M60.5156 150.023H55.5276V155.011H60.5156V150.023Z" fill="black"/>
<path d="M65.5036 150.023H60.5156V155.011H65.5036V150.023Z" fill="black"/>
<path d="M75.4797 150.023H70.4917V155.011H75.4797V150.023Z" fill="black"/>
<path d="M80.468 150.023H75.48V155.011H80.468V150.023Z" fill="black"/>
<path d="M90.444 150.023H85.4561V155.011H90.444V150.023Z" fill="black"/>
<path d="M100.42 150.023H95.4314V155.011H100.42V150.023Z" fill="black"/>
<path d="M115.384 150.023H110.396V155.011H115.384V150.023Z" fill="black"/>
<path d="M120.372 150.023H115.384V155.011H120.372V150.023Z" fill="black"/>
<path d="M125.36 150.023H120.372V155.011H125.36V150.023Z" fill="black"/>
<path d="M150.3 150.023H145.312V155.011H150.3V150.023Z" fill="black"/>
<path d="M10.6348 33.4801V22.1365C10.6348 15.6411 15.9801 10.3579 22.5531 10.3579H33.6325C40.2056 10.3579 45.5511 15.6411 45.5511 22.1365V45.2742H22.5531C15.9801 45.2587 10.6348 39.9755 10.6348 33.4801ZM15.8714 33.4801C15.8714 37.0852 18.8704 40.0376 22.5531 40.0376H40.3144V22.1365C40.3144 18.5314 37.3153 15.5946 33.6325 15.5946H22.5531C18.8704 15.5946 15.8714 18.5314 15.8714 22.1365V33.4801Z" fill="black"/>
<path d="M155.288 33.4801V22.1365C155.288 15.6411 149.943 10.3579 143.37 10.3579H132.29C125.717 10.3579 120.372 15.6411 120.372 22.1365V45.2742H143.37C149.943 45.2587 155.288 39.9755 155.288 33.4801ZM150.051 33.4801C150.051 37.0852 147.052 40.0376 143.37 40.0376H125.608V22.1365C125.608 18.5314 128.608 15.5946 132.29 15.5946H143.37C147.052 15.5946 150.051 18.5314 150.051 22.1365V33.4801Z" fill="black"/>
<path d="M10.6348 131.889V143.233C10.6348 149.728 15.9801 155.011 22.5531 155.011H33.6325C40.2056 155.011 45.5511 149.728 45.5511 143.233V120.095H22.5531C15.9801 120.095 10.6348 125.378 10.6348 131.889ZM15.8714 131.889C15.8714 128.284 18.8704 125.332 22.5531 125.332H40.3144V143.233C40.3144 146.838 37.3153 149.775 33.6325 149.775H22.5531C18.8704 149.775 15.8714 146.838 15.8714 143.233V131.889Z" fill="black"/>
<path d="M20.6108 31.2114V24.3897C20.6108 22.1521 22.46 20.3185 24.7443 20.3185H31.4417C33.726 20.3185 35.575 22.1521 35.575 24.3897V35.2827H24.7443C22.46 35.2827 20.6108 33.4646 20.6108 31.2114Z" fill="black"/>
<path d="M145.312 31.2114V24.3897C145.312 22.1521 143.463 20.3185 141.179 20.3185H134.481C132.197 20.3185 130.348 22.1521 130.348 24.3897V35.2827H141.179C143.447 35.2827 145.312 33.4646 145.312 31.2114Z" fill="black"/>
<path d="M20.6108 134.143V140.964C20.6108 143.202 22.46 145.035 24.7443 145.035H31.4417C33.726 145.035 35.575 143.202 35.575 140.964V130.071H24.7443C22.46 130.071 20.6108 131.889 20.6108 134.143Z" fill="black"/>
<path d="M83.0163 105.923C95.8121 105.923 106.185 95.5501 106.185 82.7543C106.185 69.9586 95.8121 59.5856 83.0163 59.5856C70.2205 59.5856 59.8474 69.9586 59.8474 82.7543C59.8474 95.5501 70.2205 105.923 83.0163 105.923Z" fill="white"/>
<path d="M70.554 72.2499C69.8858 72.2499 65.364 89.7781 65.7369 90.2909C66.0632 90.726 68.0368 90.959 69.9326 91.0056V93.2899C69.9326 93.523 71.1912 93.523 71.1912 93.2899V91.0056C73.0869 90.959 75.0603 90.726 75.3866 90.2909C75.744 89.7781 71.2066 72.2499 70.554 72.2499Z" fill="black"/>
<path d="M70.5538 93.554C70.3363 93.554 69.8235 93.5229 69.8235 93.2743V91.0833C69.0155 91.0678 66.0942 90.9434 65.6436 90.3218C65.3639 89.9489 67.0732 83.2826 67.4151 81.9617C68.3629 78.279 69.6837 73.5863 70.2742 72.4364C70.383 72.2188 70.4606 72.1411 70.5538 72.1411C70.647 72.1411 70.7248 72.2188 70.8336 72.4364C71.4241 73.5863 72.7448 78.2945 73.6927 81.9617C74.0346 83.2981 75.7439 89.9489 75.4642 90.3218C75.0136 90.9278 72.0923 91.0522 71.2843 91.0833V93.2743C71.2687 93.5384 70.7713 93.554 70.5538 93.554ZM70.0255 93.2743C70.0566 93.3053 70.243 93.3675 70.5538 93.3675C70.8646 93.3675 71.0512 93.3053 71.0823 93.2743V91.0055C71.0823 90.9589 71.1288 90.9123 71.1754 90.9123C73.3509 90.8657 75.0447 90.586 75.2933 90.2286C75.4021 89.9178 74.5318 85.9398 73.2731 81.1848C71.7814 75.4975 70.8335 72.6538 70.5538 72.3586C70.2741 72.6538 69.3262 75.4819 67.8345 81.1848C66.5913 85.9398 65.7057 89.9178 65.8145 90.2441C66.0631 90.586 67.7569 90.8657 69.9324 90.9123C69.979 90.9123 70.0255 90.9589 70.0255 91.0055V93.2743Z" fill="black"/>
<path d="M98.1203 72.374C98.7885 72.374 103.311 89.9021 102.938 90.4149C102.611 90.85 100.638 91.0831 98.7419 91.1297V93.414C98.7419 93.6471 97.4833 93.6471 97.4833 93.414V91.1297C95.5876 91.0831 93.614 90.85 93.2877 90.4149C92.9303 89.9021 97.4521 72.374 98.1203 72.374Z" fill="black"/>
<path d="M98.1204 93.6782C97.9029 93.6782 97.3902 93.6471 97.3902 93.3985V91.2074C96.5821 91.1919 93.6609 91.0676 93.2102 90.446C92.9305 90.0731 94.6398 83.4068 94.9817 82.086C95.9296 78.4032 97.2504 73.7104 97.8409 72.5605C97.9496 72.343 98.0272 72.2653 98.1204 72.2653C98.2137 72.2653 98.2915 72.343 98.4002 72.5605C98.9907 73.7104 100.311 78.4188 101.259 82.086C101.601 83.4223 103.311 90.0731 103.031 90.446C102.58 91.0521 99.659 91.1764 98.8509 91.2074V93.3985C98.8354 93.6627 98.338 93.6782 98.1204 93.6782ZM97.5922 93.3985C97.6233 93.4296 97.8097 93.4917 98.1204 93.4917C98.4312 93.4917 98.6178 93.4296 98.6489 93.3985V91.1298C98.6489 91.0831 98.6954 91.0365 98.7421 91.0365C100.918 90.9899 102.611 90.7102 102.86 90.3528C102.969 90.042 102.098 86.064 100.84 81.309C99.348 75.6217 98.4002 72.7781 98.1204 72.4828C97.8407 72.7781 96.8929 75.6062 95.4011 81.309C94.158 86.064 93.2724 90.042 93.3811 90.3684C93.6298 90.7102 95.3236 90.9899 97.499 91.0365C97.5457 91.0365 97.5922 91.0831 97.5922 91.1298V93.3985Z" fill="black"/>
<path d="M70.5845 90.6638H84.9737V69.4529H78.3074L70.5845 90.6638Z" fill="black"/>
<path d="M84.9744 90.7568H70.6007C70.5696 90.7568 70.5387 90.7412 70.5231 90.7101C70.5076 90.6791 70.5076 90.648 70.5076 90.6169L78.2305 69.4061C78.246 69.375 78.277 69.3439 78.3236 69.3439H84.9899C85.0366 69.3439 85.0833 69.3905 85.0833 69.4371V90.648C85.0677 90.7102 85.021 90.7568 84.9744 90.7568ZM70.7249 90.5548H84.8657V69.5459H78.3703L70.7249 90.5548Z" fill="black"/>
<path d="M72.0459 90.633V93.4612H95.3857L95.3546 91.177L86.0311 70.4478H79.3337L72.0459 90.633Z" fill="white"/>
<path d="M95.3858 93.5542H72.0616C72.015 93.5542 71.9683 93.5076 71.9683 93.461V90.6328C71.9683 90.6173 71.9683 90.6173 71.9683 90.6017L79.2562 70.432C79.2717 70.4009 79.3027 70.3699 79.3493 70.3699H86.0468C86.0779 70.3699 86.1244 70.3854 86.1399 70.432L95.4634 91.1612C95.4634 91.1768 95.4789 91.1922 95.4789 91.1922L95.5101 93.4765C95.5101 93.5076 95.4945 93.5231 95.4789 93.5386C95.4323 93.5542 95.4013 93.5542 95.3858 93.5542ZM72.1392 93.3677H95.2769L95.2458 91.2078L85.969 70.5563H79.396L72.1392 90.6484V93.3677Z" fill="black"/>
<path d="M87.6 91.0521C87.5534 91.0521 87.5222 91.0365 87.5067 90.9898L78.2143 69.4838C78.1988 69.4527 78.1988 69.4216 78.2299 69.3905C78.2454 69.3595 78.2764 69.3439 78.3074 69.3439H86.683C86.7141 69.3439 86.7608 69.3595 86.7764 69.4061L96.5194 90.9122C96.535 90.9432 96.535 90.9743 96.5194 91.0054C96.5039 91.0365 96.4727 91.0521 96.4416 91.0521H87.6Z" fill="black"/>
<path d="M86.6838 69.4531L96.4269 90.9593H87.5852L78.2928 69.4531H86.6838ZM86.6838 69.2511H78.3082C78.246 69.2511 78.1839 69.2822 78.1529 69.3443C78.1218 69.4065 78.1062 69.4686 78.1373 69.5308L87.4297 91.037C87.4607 91.1147 87.5231 91.1613 87.6008 91.1613H96.4424C96.5046 91.1613 96.5667 91.1302 96.6133 91.0681C96.6444 91.0059 96.66 90.9438 96.6289 90.8816L86.8858 69.3754C86.8237 69.2977 86.7615 69.2511 86.6838 69.2511Z" fill="black"/>
<path d="M86.6991 93.5541C86.6525 93.5541 86.606 93.5075 86.606 93.4609V85.2252C86.606 85.1786 86.6525 85.132 86.6991 85.132C86.7457 85.132 86.7924 85.1786 86.7924 85.2252V93.4609C86.7924 93.5075 86.7457 93.5541 86.6991 93.5541Z" fill="black"/>
<path d="M87.6006 91.0518C87.5695 91.0518 87.5228 91.0362 87.5073 90.9896L78.7898 70.8509L71.7195 90.6788C71.7039 90.7099 71.673 90.741 71.6263 90.741H70.6007C70.5696 90.741 70.5387 90.7255 70.5231 90.6944C70.5076 90.6633 70.5076 90.6322 70.5076 90.6011L78.2305 69.3902C78.246 69.3592 78.277 69.3281 78.3236 69.3281H79.3492C79.3958 69.3281 79.427 69.3436 79.4426 69.3902L88.7349 90.8963C88.7505 90.9274 88.7504 90.9585 88.7194 90.9896C88.7038 91.0206 88.6727 91.0362 88.6416 91.0362H87.6006V91.0518Z" fill="white"/>
<path d="M79.3332 69.4531L88.6255 90.9593H87.6001L78.7738 70.603L71.6103 90.664H70.5847L78.3076 69.4531H79.3332ZM79.3332 69.2511H78.3076C78.2299 69.2511 78.1522 69.2977 78.1211 69.3754L70.3982 90.5864C70.3827 90.6485 70.3827 90.7107 70.4293 90.7573C70.4759 90.8039 70.5225 90.8349 70.5847 90.8349H71.6103C71.688 90.8349 71.7657 90.7883 71.7968 90.7106L78.7894 71.1158L87.4136 91.0214C87.4447 91.0991 87.5224 91.1457 87.5845 91.1457H88.61C88.6721 91.1457 88.7345 91.1147 88.7655 91.0525C88.7966 90.9904 88.8122 90.9282 88.7811 90.8661L79.4885 69.3599C79.473 69.2977 79.4109 69.2511 79.3332 69.2511Z" fill="black"/>
<path d="M75.6816 85.2253H83.1094L79.0226 75.4978L75.6816 85.2253Z" fill="black"/>
<path d="M83.1089 85.3185H75.6656C75.6346 85.3185 75.6034 85.3029 75.5879 85.2718C75.5723 85.2408 75.5725 85.2097 75.5725 85.1786L78.9288 75.4667C78.9444 75.4356 78.9755 75.4045 79.0221 75.4045C79.0688 75.4045 79.0997 75.42 79.1153 75.4667L83.2021 85.1786C83.2176 85.2097 83.2176 85.2408 83.1865 85.2718C83.171 85.3029 83.14 85.3185 83.1089 85.3185ZM75.8054 85.1165H82.9536L79.0221 75.7619L75.8054 85.1165Z" fill="black"/>
<path d="M81.1203 87.3694H77.8882V93.4607H81.1203V87.3694Z" fill="black"/>
<path d="M81.1208 93.5539H77.8887C77.8421 93.5539 77.7954 93.5073 77.7954 93.4607V87.3694C77.7954 87.3227 77.8421 87.2761 77.8887 87.2761H81.1208C81.1674 87.2761 81.2139 87.3227 81.2139 87.3694V93.4607C81.2139 93.5073 81.1674 93.5539 81.1208 93.5539ZM77.9819 93.3674H81.0275V87.4626H77.9819V93.3674Z" fill="black"/>
<path d="M76.5057 90.2285C76.5057 90.4306 76.3503 90.586 76.1483 90.586H73.6774C73.4754 90.586 73.3201 90.4306 73.3201 90.2285V89.0476C73.3201 88.8455 73.4754 88.6902 73.6774 88.6902H76.1483C76.3503 88.6902 76.5057 88.8455 76.5057 89.0476V90.2285Z" fill="black"/>
<path d="M76.1631 90.6795H73.6924C73.4438 90.6795 73.2419 90.4774 73.2419 90.2288V89.0478C73.2419 88.7991 73.4438 88.5972 73.6924 88.5972H76.1631C76.4117 88.5972 76.6138 88.7991 76.6138 89.0478V90.2288C76.6138 90.4774 76.4117 90.6795 76.1631 90.6795ZM73.6924 88.7836C73.5526 88.7836 73.4438 88.8925 73.4438 89.0323V90.2132C73.4438 90.3531 73.5526 90.4774 73.6924 90.4774H76.1631C76.303 90.4774 76.4118 90.3686 76.4118 90.2132V89.0323C76.4118 88.8925 76.303 88.7836 76.1631 88.7836H73.6924Z" fill="black"/>
<path d="M82.5037 90.2285C82.5037 90.4306 82.659 90.586 82.861 90.586H85.3317C85.5337 90.586 85.6891 90.4306 85.6891 90.2285V89.0476C85.6891 88.8455 85.5337 88.6902 85.3317 88.6902H82.861C82.659 88.6902 82.5037 88.8455 82.5037 89.0476V90.2285Z" fill="black"/>
<path d="M85.3164 90.6795H82.8457C82.5971 90.6795 82.395 90.4774 82.395 90.2288V89.0478C82.395 88.7991 82.5971 88.5972 82.8457 88.5972H85.3164C85.565 88.5972 85.7671 88.7991 85.7671 89.0478V90.2288C85.7671 90.4774 85.565 90.6795 85.3164 90.6795ZM82.8457 88.7836C82.7059 88.7836 82.5815 88.8925 82.5815 89.0323V90.2132C82.5815 90.3531 82.6903 90.4774 82.8457 90.4774H85.3164C85.4562 90.4774 85.5806 90.3686 85.5806 90.2132V89.0323C85.5806 88.8925 85.4718 88.7836 85.3164 88.7836H82.8457Z" fill="black"/>
<path d="M84.6167 71.7991L83.3579 69.4216V67.0286H84.6167V71.7991Z" fill="black"/>
<path d="M84.6166 71.9081C84.5856 71.9081 84.5544 71.8925 84.5233 71.8614L83.2492 69.4684C83.2492 69.4529 83.2336 69.4374 83.2336 69.4219V67.0288C83.2336 66.9822 83.2804 66.9355 83.327 66.9355H84.6011C84.6477 66.9355 84.6944 66.9822 84.6944 67.0288V71.7993C84.6944 71.8459 84.6633 71.877 84.6166 71.8925C84.6322 71.9081 84.6322 71.9081 84.6166 71.9081ZM83.4512 69.3908L84.5233 71.4108V67.122H83.4512V69.3908Z" fill="black"/>
<path d="M86.466 67.0286H84.6169V71.7991H86.466V67.0286Z" fill="white"/>
<path d="M86.4653 71.908H84.6163C84.5697 71.908 84.5229 71.8614 84.5229 71.8148V67.0443C84.5229 66.9977 84.5697 66.951 84.6163 66.951H86.4653C86.512 66.951 86.5587 66.9977 86.5587 67.0443V71.8148C86.5587 71.8614 86.5275 71.908 86.4653 71.908ZM84.7094 71.706H86.3566V67.122H84.7094V71.706Z" fill="black"/>
<path d="M86.9005 66.4381H82.9846V67.4326H86.9005V66.4381Z" fill="black"/>
<path d="M86.9167 67.5261H83.0009C82.9542 67.5261 82.9077 67.4795 82.9077 67.4328V66.4383C82.9077 66.3917 82.9542 66.3451 83.0009 66.3451H86.9167C86.9634 66.3451 87.0101 66.3917 87.0101 66.4383V67.4328C87.0101 67.495 86.9634 67.5261 86.9167 67.5261ZM83.0942 67.3396H86.8236V66.5316H83.0942V67.3396Z" fill="black"/>
<path d="M79.0536 85.707C78.9449 85.707 78.8672 85.5672 78.8672 85.4118V75.6532C78.8672 75.4822 78.9449 75.3579 79.0536 75.3579C79.1624 75.3579 79.2401 75.4978 79.2401 75.6532V85.4118C79.2401 85.5672 79.1469 85.707 79.0536 85.707Z" fill="white"/>
</svg>
